<svg xmlns="http://www.w3.org/2000/svg" xmlns:xlink="http://www.w3.org/1999/xlink" viewBox="0 0 424 313.11"><defs><style>.cls-1{isolation:isolate;}.cls-2{fill:#d6e8fc;}.cls-3{fill:#bcbec0;}.cls-35,.cls-4{fill:#414042;}.cls-5{fill:#5184ce;}.cls-6{fill:#13375b;}.cls-7{fill:#466eb6;}.cls-10,.cls-8{fill:#184655;}.cls-20,.cls-8,.cls-9{opacity:0.3;}.cls-20,.cls-35,.cls-8,.cls-9{mix-blend-mode:multiply;}.cls-13,.cls-9{fill:#0396fb;}.cls-11{fill:#cce6ff;}.cls-12{fill:#e9ffff;}.cls-14,.cls-18,.cls-20{fill:#9bc1f9;}.cls-14,.cls-32{opacity:0.6;}.cls-15{fill:#f7cc7f;}.cls-16,.cls-33{fill:#fff;}.cls-17{fill:#355389;}.cls-19{fill:#f47458;}.cls-21{fill:url(#New_Gradient_Swatch);}.cls-22{fill:url(#New_Gradient_Swatch-2);}.cls-23{fill:url(#New_Gradient_Swatch-3);}.cls-24{fill:#0a2033;}.cls-25{fill:#243c55;}.cls-26{fill:#033cfb;}.cls-27{fill:#f7a491;}.cls-28{fill:url(#New_Gradient_Swatch-4);}.cls-29,.cls-42{fill:#efa78b;}.cls-30{fill:url(#New_Gradient_Swatch-5);}.cls-31{fill:#0e2e35;}.cls-32{fill:#c5ddf9;}.cls-33{mix-blend-mode:soft-light;}.cls-34{fill:#58595b;}.cls-35,.cls-42{opacity:0.5;}.cls-36{fill:url(#New_Gradient_Swatch-6);}.cls-37{fill:url(#New_Gradient_Swatch-7);}.cls-38{fill:url(#New_Gradient_Swatch-8);}.cls-39{fill:url(#New_Gradient_Swatch-9);}.cls-40,.cls-49{fill:#031efb;}.cls-41{fill:url(#New_Gradient_Swatch-10);}.cls-43{fill:url(#New_Gradient_Swatch-11);}.cls-44{fill:url(#New_Gradient_Swatch-12);}.cls-45{fill:url(#New_Gradient_Swatch-13);}.cls-46{fill:url(#New_Gradient_Swatch-14);}.cls-47{fill:#035afb;}.cls-48{fill:#03d0fb;}.cls-49{opacity:0.35;}</style><radialGradient id="New_Gradient_Swatch" cx="331.81" cy="163.46" r="20.1" gradientUnits="userSpaceOnUse"><stop offset="0" stop-color="#ffc8af"/><stop offset="1" stop-color="#ffbb9c"/></radialGradient><radialGradient id="New_Gradient_Swatch-2" cx="393.39" cy="295.52" r="9.58" xlink:href="#New_Gradient_Swatch"/><radialGradient id="New_Gradient_Swatch-3" cx="360.41" cy="301.16" r="5.73" xlink:href="#New_Gradient_Swatch"/><radialGradient id="New_Gradient_Swatch-4" cx="357.88" cy="131.6" r="8.38" xlink:href="#New_Gradient_Swatch"/><radialGradient id="New_Gradient_Swatch-5" cx="356.52" cy="114.69" r="8.76" xlink:href="#New_Gradient_Swatch"/><radialGradient id="New_Gradient_Swatch-6" cx="386.05" cy="177.31" r="25.91" xlink:href="#New_Gradient_Swatch"/><radialGradient id="New_Gradient_Swatch-7" cx="96.33" cy="295.9" r="8.97" xlink:href="#New_Gradient_Swatch"/><radialGradient id="New_Gradient_Swatch-8" cx="136.74" cy="297.69" r="9.93" xlink:href="#New_Gradient_Swatch"/><radialGradient id="New_Gradient_Swatch-9" cx="151.8" cy="154.19" r="17.37" xlink:href="#New_Gradient_Swatch"/><radialGradient id="New_Gradient_Swatch-10" cx="126.33" cy="123.1" r="8.12" xlink:href="#New_Gradient_Swatch"/><radialGradient id="New_Gradient_Swatch-11" cx="128.66" cy="106" r="9.59" xlink:href="#New_Gradient_Swatch"/><radialGradient id="New_Gradient_Swatch-12" cx="136.41" cy="106.74" r="2.15" xlink:href="#New_Gradient_Swatch"/><radialGradient id="New_Gradient_Swatch-13" cx="120.73" cy="106.21" r="2.36" xlink:href="#New_Gradient_Swatch"/><radialGradient id="New_Gradient_Swatch-14" cx="125.75" cy="166.66" r="15.83" xlink:href="#New_Gradient_Swatch"/></defs><g class="cls-1"><g id="Layer_2" data-name="Layer 2"><g id="Designed_By_Freepik" data-name="Designed By Freepik"><path class="cls-2" d="M200.31,100.47c.7-.23.87-.9,1.31-2.56.79-3,1.58-6,2.47-8.89a2,2,0,0,1,1.27-1.1c2.93-.67,5.91-1.17,8.83-1.88a1.64,1.64,0,0,1,2,.58c2.47,3.06,5,6,7.52,9,3.37-1.22,10.67-6.21,12.59-8.65-1.85-3.25-3.69-6.61-5.65-9.88a1.88,1.88,0,0,1,.17-2.58,80.3,80.3,0,0,0,4.76-7.31c.6-1,1.09-1.58,2.41-1.43,3.4.39,6.83.57,10.24.9.92.09,1.46-.14,1.62-1.06.8-4.3,1.58-8.61,2.38-12.91.19-1.06-.67-1.12-1.3-1.3-3.19-.93-6.38-1.88-9.61-2.7a2.15,2.15,0,0,1-1.85-2.11c-.5-3.32-1.21-6.6-1.89-10.15l9.6-8.09A45,45,0,0,0,238.47,16l-10.72,6c-3.41-2.09-6.53-4.1-9.76-5.93a1.68,1.68,0,0,1-1-2c.33-3.36.55-6.73.86-10.09.07-.73,0-1.26-.78-1.53A43.14,43.14,0,0,0,204.32,0a1.34,1.34,0,0,0-1.55,1.2c-.94,3.35-2,6.68-2.87,10a1.57,1.57,0,0,1-1.45,1.36c-3.25.63-6.48,1.41-9.67,2.26a1.34,1.34,0,0,1-1.63-.54c-2.53-3-5.09-6-7.7-9.06a47.85,47.85,0,0,0-12.38,8.5l6.28,11.17c-2.27,3.52-4.47,6.92-6.83,10.56-3-.24-6.45-.54-9.91-.79-2.84-.2-2.52-.64-3.36,2.29a4.83,4.83,0,0,1-.39.79c-.46,2.58-.91,5.17-1.37,7.75a9.5,9.5,0,0,1,0,1.77c-.28,1.48.14,2.24,1.73,2.63,3.33.81,6.61,1.83,9.88,2.84a1.81,1.81,0,0,1,1,1.11c.71,2.87,1.18,5.82,2,8.64a2.22,2.22,0,0,1-.91,2.85c-2.89,2.35-5.68,4.82-8.8,7.48L165,85.26c.84-.45,1.32-.7,1.8-1,2.94-1.65,5.9-3.28,8.81-5a1.69,1.69,0,0,1,2.12.16c2.69,1.77,5.48,3.36,8.17,5.1a2,2,0,0,1,.75,1.53c-.14,2.76-.45,5.52-.65,8.28-.17,2.24-.22,3.07.57,3.68Zm-2.63-19.56a31,31,0,1,1,22.93-6.14A30.81,30.81,0,0,1,197.68,80.91Z"/><path class="cls-2" d="M147.52,122.31a18.19,18.19,0,1,0,9.35-24A18.21,18.21,0,0,0,147.52,122.31Zm3.87-2.35h0a13.71,13.71,0,0,1,7.83-17.75h0A13.72,13.72,0,0,1,177,110h0a13.72,13.72,0,0,1-7.83,17.76h0A13.71,13.71,0,0,1,151.39,120Z"/><path class="cls-2" d="M137.6,130.09c.34.29.74.16,1.74-.13,1.79-.53,3.59-1.05,5.4-1.51a1.2,1.2,0,0,1,1,.31c1.28,1.31,2.47,2.7,3.76,4a1,1,0,0,1,.34,1.23c-.82,2.24-1.57,4.51-2.33,6.74a26.19,26.19,0,0,0,8.45,3.83c1.11-2,2.28-4,3.36-6.05a1.16,1.16,0,0,1,1.39-.73,46.86,46.86,0,0,0,5.3.18c.71,0,1.16.07,1.5.8.86,1.89,1.85,3.73,2.75,5.61.24.5.53.71,1.06.51l7.46-2.83c.61-.24.37-.7.27-1.09-.53-2-1-3.9-1.63-5.84a1.3,1.3,0,0,1,.52-1.62c1.56-1.3,3-2.71,4.67-4.18l7.23,2.44a27.22,27.22,0,0,0,3.71-8.44L187,119.65c0-2.43.08-4.69,0-6.93a1,1,0,0,1,.7-1.16c1.85-.89,3.67-1.83,5.52-2.73.4-.19.66-.38.54-.89a26,26,0,0,0-2.72-7.38.82.82,0,0,0-1.11-.42c-2,.56-4.08,1.09-6.12,1.66a1,1,0,0,1-1.16-.33c-1.35-1.48-2.76-2.92-4.21-4.31a.8.8,0,0,1-.23-1c.76-2.26,1.51-4.52,2.28-6.85a29.27,29.27,0,0,0-8.31-3.75l-3.83,6.78-7.63-.23c-.82-1.63-1.75-3.52-2.71-5.4-.79-1.53-.46-1.51-2.24-1a3.19,3.19,0,0,1-.54,0l-4.45,1.73a5.54,5.54,0,0,1-.93.55,1.18,1.18,0,0,0-.82,1.73c.63,2,1.13,4,1.64,6a1.11,1.11,0,0,1-.26.89c-1.27,1.28-2.65,2.45-3.84,3.78a1.35,1.35,0,0,1-1.77.42c-2.13-.76-4.29-1.43-6.65-2.21-1.28,2.81-2.52,5.56-3.77,8.33l1.07.64c1.78,1,3.56,2,5.36,3a1,1,0,0,1,.59,1.16c-.08,1.94,0,3.89-.08,5.84a1.21,1.21,0,0,1-.56.87c-1.48.79-3,1.5-4.51,2.27-1.21.61-1.66.85-1.73,1.45Zm9.33-7.52a18.83,18.83,0,1,1,10.41,10A18.71,18.71,0,0,1,146.93,122.57Z"/><path class="cls-3" d="M141.17,306.72a1.72,1.72,0,0,1-.69-.15,2,2,0,0,1-.91-2.51l36.65-93a1.7,1.7,0,0,1,2.3-1,2,2,0,0,1,.91,2.5l-36.65,93A1.76,1.76,0,0,1,141.17,306.72Z"/><path class="cls-3" d="M182.47,306.72a1.75,1.75,0,0,1-1.61-1.15l-36.66-93a2,2,0,0,1,.92-2.5,1.69,1.69,0,0,1,2.29,1l36.66,93a2,2,0,0,1-.91,2.51A1.72,1.72,0,0,1,182.47,306.72Z"/><path class="cls-3" d="M297.2,306.72a1.68,1.68,0,0,1-.69-.15,2,2,0,0,1-.92-2.51l36.66-93a1.69,1.69,0,0,1,2.29-1,2,2,0,0,1,.92,2.5l-36.66,93A1.73,1.73,0,0,1,297.2,306.72Z"/><path class="cls-3" d="M338.49,306.72a1.73,1.73,0,0,1-1.6-1.15l-36.66-93a2,2,0,0,1,.91-2.5,1.7,1.7,0,0,1,2.3,1l36.66,93a2,2,0,0,1-.92,2.51A1.68,1.68,0,0,1,338.49,306.72Z"/><path class="cls-4" d="M342.78,208.38a1.67,1.67,0,0,0-.45-1.53,2.26,2.26,0,0,0-1.63-.67h-215a2.56,2.56,0,0,0-2.06,1,1.89,1.89,0,0,0-.16,2l2.33,4.38a3.33,3.33,0,0,0,3,1.64H339.22a2.4,2.4,0,0,0,2.42-1.74Z"/><rect class="cls-5" x="230" y="126.62" width="14.53" height="7.4" rx="3.7"/><polygon class="cls-6" points="228.53 199.58 217.3 204.75 217.3 205.9 257.28 205.9 257.28 204.75 245.95 199.58 228.53 199.58"/><rect class="cls-7" x="228.53" y="177.4" width="17.43" height="22.19"/><path class="cls-6" d="M290,184.36v-50a4.31,4.31,0,0,0-4.3-4.3h-97a4.31,4.31,0,0,0-4.31,4.3v50Z"/><rect class="cls-8" x="217.3" y="204.75" width="39.98" height="1.15"/><rect class="cls-9" x="228.53" y="196.98" width="17.43" height="2.6"/><path class="cls-6" d="M184.37,184.36v8a2.79,2.79,0,0,0,2.47,3h100.7a2.78,2.78,0,0,0,2.46-3v-8Z"/><path class="cls-10" d="M238.33,128.58a1,1,0,0,1-2,0,1,1,0,0,1,2,0Z"/><path class="cls-11" d="M287.53,182.19V134.46a2.31,2.31,0,0,0-2.35-2.27h-96a2.31,2.31,0,0,0-2.34,2.27v47.73Z"/><rect class="cls-12" x="191.27" y="136.04" width="60.51" height="42.23"/><rect class="cls-13" x="191.27" y="136.04" width="60.51" height="4.94"/><rect class="cls-14" x="273.32" y="146.61" width="4.13" height="31.97"/><rect class="cls-14" x="267.55" y="156.36" width="4.13" height="22.22"/><rect class="cls-14" x="279.17" y="153.54" width="4.13" height="25.05"/><rect class="cls-14" x="261.78" y="152.55" width="4.13" height="26.03"/><rect class="cls-14" x="256.01" y="160.27" width="4.13" height="18.31"/><rect class="cls-9" x="273.32" y="153.98" width="4.13" height="24.6"/><rect class="cls-9" x="267.55" y="161.48" width="4.13" height="17.1"/><rect class="cls-9" x="279.17" y="159.31" width="4.13" height="19.27"/><rect class="cls-9" x="261.78" y="158.55" width="4.13" height="20.03"/><rect class="cls-9" x="256.01" y="164.49" width="4.13" height="14.09"/><rect class="cls-14" x="193.36" y="143.02" width="55.86" height="7.17"/><rect class="cls-14" x="213.26" y="152.23" width="35.95" height="1.84"/><rect class="cls-13" x="193.36" y="152.23" width="17.69" height="21.2"/><rect class="cls-14" x="213.26" y="156.1" width="35.95" height="1.84"/><rect class="cls-14" x="213.26" y="167.72" width="35.95" height="1.84"/><rect class="cls-14" x="213.26" y="171.6" width="35.95" height="1.84"/><rect class="cls-15" x="167.24" y="159.8" width="35.4" height="46.07" rx="0.91" transform="translate(-0.33 0.33) rotate(-0.1)"/><rect class="cls-16" x="169.08" y="161.09" width="31.72" height="43.25" transform="translate(-0.33 0.33) rotate(-0.1)"/><path class="cls-6" d="M191.77,159.18a.35.35,0,0,0-.35-.35l-13.32,0a.36.36,0,0,0-.35.36v1.38l14,0Z"/><path class="cls-6" d="M184.76,157.16a2.1,2.1,0,1,0,2.1,2.09A2.1,2.1,0,0,0,184.76,157.16Zm0,3.45a1.35,1.35,0,1,1,1.35-1.35A1.36,1.36,0,0,1,184.76,160.61Z"/><path class="cls-17" d="M191.56,158.86a.34.34,0,0,1,.21.32v1.38l-14,0a1.73,1.73,0,0,0,1.74,1.73l10.55,0a1.73,1.73,0,0,0,1.73-1.74v-1.38A.34.34,0,0,0,191.56,158.86Z"/><path class="cls-18" d="M178.1,158.85h0a.34.34,0,0,0-.29.16A.34.34,0,0,1,178.1,158.85Z"/><path class="cls-18" d="M177.77,159.1a.14.14,0,0,1,0-.06A.14.14,0,0,0,177.77,159.1Z"/><path class="cls-10" d="M197.12,173.82h-4.51v-4.51h4.51Zm-4.32-.18h4.14v-4.14h-4.14Z"/><path class="cls-10" d="M197.13,181.32h-4.5v-4.51h4.51Zm-4.32-.18H197V177H192.8Z"/><path class="cls-10" d="M197.15,188.82h-4.51v-4.51h4.51Zm-4.33-.17H197V184.5h-4.14Z"/><path class="cls-10" d="M197.16,196.33h-4.51v-4.51h4.51Zm-4.32-.18H197V192h-4.14Z"/><rect class="cls-18" x="171.42" y="169.43" width="19.3" height="0.65" transform="translate(-0.31 0.33) rotate(-0.1)"/><rect class="cls-18" x="171.42" y="171.27" width="19.3" height="0.65" transform="translate(-0.31 0.33) rotate(-0.1)"/><rect class="cls-18" x="171.43" y="173.11" width="19.3" height="0.65" transform="translate(-0.31 0.33) rotate(-0.1)"/><rect class="cls-18" x="171.43" y="177.19" width="19.3" height="0.65" transform="translate(-0.32 0.33) rotate(-0.1)"/><rect class="cls-18" x="171.44" y="179.03" width="19.3" height="0.65" transform="translate(-0.32 0.33) rotate(-0.1)"/><rect class="cls-18" x="171.44" y="180.86" width="19.3" height="0.65" transform="translate(-0.33 0.33) rotate(-0.1)"/><rect class="cls-18" x="171.45" y="184.54" width="19.3" height="0.65" transform="translate(-0.33 0.33) rotate(-0.1)"/><rect class="cls-18" x="171.45" y="186.38" width="19.3" height="0.65" transform="translate(-0.34 0.33) rotate(-0.1)"/><rect class="cls-18" x="171.45" y="188.22" width="19.3" height="0.65" transform="translate(-0.34 0.33) rotate(-0.1)"/><rect class="cls-18" x="171.46" y="191.89" width="19.3" height="0.65" transform="translate(-0.35 0.33) rotate(-0.1)"/><rect class="cls-18" x="171.46" y="193.73" width="19.3" height="0.65" transform="translate(-0.35 0.33) rotate(-0.1)"/><rect class="cls-18" x="171.47" y="195.57" width="19.3" height="0.65" transform="translate(-0.35 0.33) rotate(-0.1)"/><rect class="cls-18" x="171.48" y="200.32" width="22.26" height="0.65" transform="translate(-0.36 0.33) rotate(-0.1)"/><rect class="cls-18" x="171.48" y="201.88" width="26.65" height="0.65" transform="translate(-0.36 0.33) rotate(-0.1)"/><polygon class="cls-19" points="194.84 173.08 193.44 170.68 193.94 170.39 194.76 171.78 196.09 168.6 196.62 168.82 194.84 173.08"/><polygon class="cls-19" points="194.86 180.68 193.46 178.28 193.96 177.99 194.77 179.38 196.1 176.2 196.63 176.42 194.86 180.68"/><polygon class="cls-19" points="194.88 195.54 193.49 193.14 193.99 192.85 194.8 194.24 196.13 191.06 196.66 191.28 194.88 195.54"/><polygon class="cls-19" points="196.44 185.44 196.04 185.03 194.89 186.17 193.73 185.03 193.33 185.44 194.48 186.57 193.34 187.71 193.74 188.12 194.89 186.98 196.05 188.11 196.45 187.7 195.3 186.57 196.44 185.44"/><path class="cls-20" d="M172.31,189.86a8.37,8.37,0,0,0-3.22.64v1.06a7.5,7.5,0,0,1,3.21-.75,7.35,7.35,0,0,1,4,13.54h1.58c.12-.1.23-.21.34-.32a8.31,8.31,0,0,0-5.9-14.17Z"/><path class="cls-20" d="M172.31,192.11a6,6,0,0,0-3.21.93v.58a5.51,5.51,0,0,1,3.21-1,5.58,5.58,0,1,1,0,11.15,5.49,5.49,0,0,1-3.21-1v.57a6,6,0,0,0,3.21.92,6.06,6.06,0,1,0,0-12.11Z"/><path class="cls-10" d="M178.16,167.32v-2.16h-.86V165h2v.19h-.87v2.16Z"/><path class="cls-10" d="M181.5,167.13v.19h-1.73V165h1.66v.19H180V166h1v.19h-1v1Z"/><path class="cls-10" d="M181.77,166.76l.23-.08a.82.82,0,0,0,.31.37.79.79,0,0,0,.45.12.74.74,0,0,0,.44-.12.42.42,0,0,0,.17-.33.37.37,0,0,0-.11-.27,1,1,0,0,0-.37-.2l-.39-.11-.3-.09a1,1,0,0,1-.3-.21.45.45,0,0,1-.09-.28.55.55,0,0,1,.23-.46,1,1,0,0,1,.61-.17,1.09,1.09,0,0,1,.57.14.85.85,0,0,1,.34.42l-.23.06a.78.78,0,0,0-.27-.32.82.82,0,0,0-.42-.11.62.62,0,0,0-.4.12.34.34,0,0,0-.15.29.33.33,0,0,0,.1.23.84.84,0,0,0,.3.15l.23.07a3.79,3.79,0,0,1,.55.18.89.89,0,0,1,.29.23.51.51,0,0,1,.09.3.59.59,0,0,1-.24.49,1.07,1.07,0,0,1-.65.18,1.13,1.13,0,0,1-.61-.15A.9.9,0,0,1,181.77,166.76Z"/><path class="cls-10" d="M184.76,167.32v-2.16h-.86V165h2v.19H185v2.16Z"/><path class="cls-10" d="M186.41,167.32V165h.27v2.35Z"/><path class="cls-10" d="M187.76,165.14v2.18h-.26V165h.44l1.4,2v-2h.26v2.35h-.29Z"/><path class="cls-10" d="M192.06,167.06a.89.89,0,0,1-.34.23,1.3,1.3,0,0,1-.46.08,1.1,1.1,0,0,1-.83-.31,1.36,1.36,0,0,1-.28-.91,1.3,1.3,0,0,1,.29-.9,1,1,0,0,1,.82-.32,1,1,0,0,1,.62.17,1,1,0,0,1,.35.53l-.25,0a1,1,0,0,0-.27-.42.74.74,0,0,0-.46-.14.72.72,0,0,0-.6.27,1.09,1.09,0,0,0-.22.74,1.2,1.2,0,0,0,.22.79.78.78,0,0,0,.65.27.81.81,0,0,0,.51-.15.47.47,0,0,0,.2-.4v-.25h-.72v-.18h1v1.12h-.24Z"/><rect class="cls-13" x="256.63" y="136.04" width="8.71" height="8.71"/><rect class="cls-13" x="266.88" y="136.04" width="17" height="1.18"/><rect class="cls-13" x="266.88" y="138.55" width="11.47" height="1.18"/><rect class="cls-13" x="266.88" y="141.06" width="15.27" height="1.18"/><path class="cls-21" d="M353.21,146.21c-1.39-1.13-12.19,3.61-12,5.26s-7.54,17.63-7.54,17.63l-13.25-10.57h0c-.12-.39-1.37-4.5-1.43-5.23s-2.31-2.12-3.35-1.92.89,1.5,1,1.74c.34.65-1,.9-1,.9s-3.79-1.22-3.87-2.45-2.67,2.16-2.36,2.63,6.48,5.45,7.37,6.53c0,0,17.15,19.6,18.37,20.11,1.07.45,4.89-6.3,8.5-10.79S357.58,149.76,353.21,146.21Z"/><path class="cls-22" d="M387.81,290.34s2.36,2.3,2.41,3.14.21,9.89-.75,10.73-3.79,1.44-2.88,2.39c.68.72,6,.57,9.47.37,1-.05,2.3-8.2,2.7-9.4.59-1.74,2-5.66,1.49-6.88a10.33,10.33,0,0,0-3.26-2.94,16,16,0,0,1-3.62-3.84Z"/><path class="cls-23" d="M363.4,295.7s2.11,5.95,2.11,6a41.37,41.37,0,0,1,.78,4.13c0,3.22-14.54-2.74-11.28-4.16a3.46,3.46,0,0,0,1.32-2.26,7.53,7.53,0,0,0-1.23-3.81Z"/><path class="cls-24" d="M340.6,184.78s-1.06,10.68-1.06,10.84c0,17.27-3.42,51-2.77,54.26,1.59,7.92,18.69,48.33,18.69,48.33l9.24-1.11-9.92-48.83,2.31-19,6.27-38.49Z"/><path class="cls-25" d="M371.62,194.22l1.75,10.12L378.11,246l18.07,40.71s-2.54,5.92-6.29,6.75l-28.76-41.79-17.86-53.49.63-11.88Z"/><path class="cls-26" d="M336.92,159.36l12.81,1.3s.59-10.5.59-15.51c0-6.08-.52-13.91-1.25-13.74a11.15,11.15,0,0,0-6.49,3.88C336.86,143.14,336.92,159.36,336.92,159.36Z"/><path class="cls-26" d="M343.21,144.07c-.27,1.86-5.19,52.25-5.19,52.25,23.33,11.27,36.2,2,36.2,2s-.76-35.39.15-40.2c.61-3.19,1.36-24.37-.7-25a51.5,51.5,0,0,0-9-1.91c-2.83-.29-13.81-.46-15.77.2A25,25,0,0,0,343.21,144.07Z"/><path class="cls-24" d="M396.87,287.7s-5.43,15.29-7.55,16c-.57.19-3.28.69-3.79,1.89a5.28,5.28,0,0,0,0,1.56h11.32s1.43-6.73,2-9.69c0,0,3-7.24,2.66-7.89S396.87,287.7,396.87,287.7Z"/><path class="cls-24" d="M367.12,306.86l-1.67-5.25s-3.5,1.47-5.24,1.23-5.16-1.23-5.16-1.23c-7,2.29-12.69,3.41-11.65,5.25h23.72Z"/><path class="cls-27" d="M335.12,180.85a3,3,0,0,1-.35-.26c.41-4.94.34-9.72-1.21-11.34l.73-1.54c1.79,1.39,2.65,5.08,2.31,11.07a9.19,9.19,0,0,1-.24,1.24C335.84,180.59,335.37,181,335.12,180.85Z"/><path class="cls-28" d="M361.55,121.52l1.5,9.91s-5.49,11.8-8.77,10.78c-2.75-.86-1-11.3-1-11.3s1.49-5.61,1-8.42S361.55,121.52,361.55,121.52Z"/><path class="cls-29" d="M354.27,122.49c-.44-2.8,7.28-1,7.28-1l.13.82a4.75,4.75,0,0,1-.84,1.38,10.21,10.21,0,0,1-6.76,3.06A14.87,14.87,0,0,0,354.27,122.49Z"/><path class="cls-30" d="M362.82,107.5c.22-.08,1.75,11.28-1.16,14.41s-8.57,4.15-10.6,1.69c-2.25-2.72-2.13-14.94,2.38-18.16S362.82,107.5,362.82,107.5Z"/><path class="cls-31" d="M355.17,99.36a12.58,12.58,0,0,1,6.58,3.75c1.59.19,3.74,1.07,6,4.75a9.21,9.21,0,0,1-2.47,12c-3.19,2.47-3.14,5.31-3.14,5.31l-.51-1.47a8.18,8.18,0,0,1-.39-3.47,6.61,6.61,0,0,1,.51-2.08c.77-1.65-1.65-2.74-2.32-4.11-.52-1-.55-3.46-1.37-5.21l-1-1.33s-2.26-1.76-4.47-1.26S350.68,98.44,355.17,99.36Z"/><path class="cls-27" d="M359.55,116.08c0,1.39.6,2.53,1.4,2.54s1.47-1.1,1.5-2.49-.61-2.52-1.41-2.53S359.57,114.7,359.55,116.08Z"/><path class="cls-4" d="M319,145.21q1.54-1.59,2.88-3.25L341,160.63c1.17,1.15.77,3.47-.91,5.18s-4,2.18-5.16,1l-19.12-18.67Q317.42,146.79,319,145.21Z"/><ellipse class="cls-32" cx="283.88" cy="110.93" rx="48.24" ry="48.54" transform="translate(6.15 236.47) rotate(-45.67)"/><path class="cls-33" d="M318.66,144.33a48.23,48.23,0,0,1-30.71,15l-52.32-53.19c0-.1,0-.2,0-.3a48.54,48.54,0,0,1,15.22-30.45Z"/><path class="cls-33" d="M283.46,62.49l48.39,49.19c0,1.48-.11,3-.27,4.49a48.66,48.66,0,0,1-6.08,18.9L260.16,68.65A47.83,47.83,0,0,1,283.46,62.49Z"/><path class="cls-34" d="M245.78,150a54.53,54.53,0,1,0-1.16-77.35A54.69,54.69,0,0,0,245.78,150Zm4.4-4.51a48.24,48.24,0,1,1,68.42-.6A48.39,48.39,0,0,1,250.18,145.44Z"/><path class="cls-35" d="M248.09,147.58A51.22,51.22,0,1,0,247,74.92,51.38,51.38,0,0,0,248.09,147.58Zm2.09-2.14a48.24,48.24,0,1,1,68.42-.6A48.39,48.39,0,0,1,250.18,145.44Z"/><path class="cls-34" d="M400.38,227.17l3-3.09a7.74,7.74,0,0,0-.2-11L347.93,159.6a7.74,7.74,0,0,0-10.95.2l-3,3.08a7.75,7.75,0,0,0,.21,11l55.21,53.53A7.75,7.75,0,0,0,400.38,227.17Z"/><path class="cls-36" d="M397.33,196.85a1.71,1.71,0,0,0,0-.32c-.35-3.49-3.25-32.79-3.73-34s-13.44-19.71-13.44-19.71l-6.39,8.7,12.5,16.67c.28,1.06,4.79,20.84,4.79,20.84s.93,3.61,1.34,5.77c-.19.52-.38,1-.54,1.41a12.7,12.7,0,0,1-1.35,2.17,15,15,0,0,0-1.59,2.82c-.13.51-.37,1.57-.51,2.2s-.32,1.39-.35,1.73a3.65,3.65,0,0,1-.4.93.55.55,0,0,0,.66.8c.45-.15.8-.73,1-1.1.62-1,.94-2.92,1.1-2.82s.69,3.3.77,3.66a41.55,41.55,0,0,0,1.1,4.76c.36.68.85.57,1,.14s-.41-5.57-.41-5.57-.06-.66.23-.45.77,4.93,1,5.62.66,1.06,1.05.5-.34-5.68-.34-5.68-.09-.63.18-.58.6,4.09.81,4.44a.53.53,0,0,0,1-.11c.3-.68-.47-5.15-.47-5.15s0-.36.21-.24.7,3.53,1,3.85a.38.38,0,0,0,.54,0c.63-.43-.34-3.67-.33-5.29s-.74-3.42-.52-5.34C397.27,197.33,397.31,197,397.33,196.85Z"/><path class="cls-26" d="M390.32,154.55,379.22,162s-6.25-9.31-9.61-12.62c-4.21-4.15,1.53-16.87,4.24-16.15C379.91,134.84,390.32,154.55,390.32,154.55Z"/><path class="cls-37" d="M95.81,285s-1,7.33-2.86,9.7a18.78,18.78,0,0,0-2.45,3.24c-1.13,2.23-.51,5.56.33,7.4.43.94,0,.94,1,1.24a6,6,0,0,0,7.2-3.4,17.33,17.33,0,0,0,1.42-6.26c.31-6.66,2.37-10,2.37-10Z"/><path class="cls-38" d="M127.47,288.33s.65,8.28.12,11c-.28,1.44-1.85,4.4-1.13,5.76a3.63,3.63,0,0,0,1.55,1.69l18.69.3c1,0,.34-.64-.48-1.25-1.34-1-2.43-1.65-6.72-3.74-.28-.13-1.3-.78-1.67-1a13.07,13.07,0,0,1-2.67-2.37c-1.34-1.51-1.46-8.79-1.46-8.79Z"/><path class="cls-24" d="M142.08,178.34s2.35,13.43.81,22.24-9,90.45-9,90.45l-8.25.47s-1.73-34.1-1.42-38.85S127,240,127,240l-.82-27.53,10.4-36.18Z"/><path class="cls-25" d="M117.85,175.51s-6.49,9.83-8,18S111,226.58,108,237.24c-1.61,5.77-7.71,14.67-8.64,22.13s-4.56,27-4.56,27L103,288l19.15-48.76,15-44.07,3.84-22.7Z"/><path class="cls-24" d="M99.55,301.69a9.21,9.21,0,0,1-9-3.8c-1.14,2.24-1.7,5.59-.86,7.43.74,1.62,2.9,1.57,4.61,1.64a4.45,4.45,0,0,0,4.08-2.52A14.7,14.7,0,0,0,99.55,301.69Z"/><path class="cls-24" d="M137.83,301.05a16.79,16.79,0,0,1-10.64-.42c-.53,1.5-1.23,3.39-.85,4.47.45,1.33,1.1,1.63,1.67,1.65,4.51.12,16.53.28,20,.33a.56.56,0,0,0,.43-.93C147.57,305.12,138.2,301.28,137.83,301.05Z"/><path class="cls-39" d="M171.66,155.13c.35-.73-3.28-1.73-3.4-2.52s4.75-.34,5-1c.45-1.21-5.3-.81-5.13-1.38s6.09-1.27,5.57-2.34-6.06,1.37-6.14.67,5.34-1.79,5.4-3.29c0-.79-9,3.07-10,2.53s1.5-4.05.77-4.68-3.93,6.71-4.5,6.93-13,4-17.28,4.6c-.36-1.43-3.54-9.33-3.85-10.68-2.49,1.41-5.66-.29-8.2,1,1.28,4.52,4.16,19.41,5.31,20.08,3.5,2,21.93-7.7,25-9.42s4.61-.9,6.6-1.34S171.32,155.86,171.66,155.13Z"/><path class="cls-31" d="M138.87,111.26c.93-4.21,1.84-8.45-.61-13.08a11.85,11.85,0,0,0-9.35-6.37c-11.21-1.33-8.81,9.14-24.48,11.4-4.87.7-9.39,1.38-13.46,3.8-7.34,4.37-10.11,11.39-5.24,22.81,11.92,28,40.44,3.67,44.79-1.28S138.28,114,138.87,111.26Z"/><path class="cls-40" d="M121.23,124.56s-5.66.65-9,4.33,5.47,33.29,6.09,38-5.89,17.66-5.89,17.66,22.11,4.39,27.85.6c0,0,.51-36.23-.11-39.58s-5.74-17-7-18.31S121.23,124.56,121.23,124.56Z"/><path class="cls-41" d="M124.08,113.15s0,.25-.13.68c-.38,2-1.85,8.87-2.84,10.74-1.2,2.26,4.11,9.48,9.21,8.6,1.52-.26-1.28-6.63-1.15-7.31.26-1.29.61-3,1-4.86.2-1,.41-2,.6-3,.55-2.76,1-5,1-5Z"/><path class="cls-42" d="M124,113.83c.08-.43.13-.68.13-.68l7.65-.19s-.44,2.26-1,5c-.19,1-.4,2-.6,3a7.14,7.14,0,0,1-3.65-1.82,9.72,9.72,0,0,1-2.77-4.11C123.82,114.56,123.89,114.15,124,113.83Z"/><path class="cls-43" d="M128.68,95a9,9,0,0,0-5.38,3.35c-2.26,2.92-4.7,12,.92,16.85s11.17-.64,12-6.53S136.86,94.75,128.68,95Z"/><path class="cls-44" d="M137.85,107.17c-.36,1.42-1.29,2.38-2.08,2.14s-1.15-1.57-.8-3,1.29-2.38,2.08-2.15S138.2,105.75,137.85,107.17Z"/><path class="cls-31" d="M132.15,95s-7.34,8.42-10.79,8.81-3.9,5-3.9,5,1.24-10.51,4.65-12.54S132.15,95,132.15,95Z"/><path class="cls-45" d="M122.49,105.85c.28,1.52-.28,2.92-1.26,3.12s-2-.87-2.27-2.4.28-2.92,1.26-3.12S122.21,104.32,122.49,105.85Z"/><rect class="cls-10" x="114.45" y="154.14" width="34.57" height="26.56" rx="1.3" transform="translate(-52.99 273.54) rotate(-81.68)"/><path class="cls-6" d="M140.07,150.13a.26.26,0,0,0-.23-.3L130,148.38a.26.26,0,0,0-.3.23l-.15,1,10.41,1.53Z"/><path class="cls-6" d="M135.08,147.86a1.57,1.57,0,1,0,1.33,1.78A1.56,1.56,0,0,0,135.08,147.86Zm-.37,2.56a1,1,0,0,1-.85-1.15,1,1,0,0,1,1.14-.85,1,1,0,0,1,.86,1.14A1,1,0,0,1,134.71,150.42Z"/><path class="cls-17" d="M139.94,149.86a.29.29,0,0,1,.13.27l-.15,1-10.41-1.53a1.3,1.3,0,0,0,1.1,1.48l7.83,1.15a1.31,1.31,0,0,0,1.48-1.1l.15-1A.29.29,0,0,0,139.94,149.86Z"/><path class="cls-46" d="M105.76,156.68l8.59.87s-.14,7.29,0,8.13c0,0,14.69,4.07,20.83,5.18,0,0,2.79-1.59,3.92-2.09a27.82,27.82,0,0,1,4.85-1.14c.67-.09.44.65-.14.9a5.52,5.52,0,0,0-2.49,1.83,4.61,4.61,0,0,0,1.85-.16c.64-.28,1.53-.89,1.54-1.2s.16-1.07.37-1c0,0,.13.26.2.52s.14.5.2.75c.11.44.23,1.1.28,1.39a19.85,19.85,0,0,1-.36,3.17c-.1,1.2-.44,1.73-1.08,2a15.6,15.6,0,0,1-3.69.74c-2.92.3-5.6-.54-6.78-.67s-19.87-2-19.87-2-7.43-1.07-7.93-2.34S105.76,156.68,105.76,156.68Z"/><path class="cls-40" d="M113.22,127.82s-2.71,1.28-5.09,6.84c-2.27,5.27-2.93,31.6-2.93,31.6l9-1.5,4.57-12.27a22.52,22.52,0,0,0-2.33-22.39C115.15,128.37,114,127.32,113.22,127.82Z"/><path class="cls-47" d="M37.6,242.85c2.36-5.63,10.92-22.7,26.06-17.43a.23.23,0,0,1,0,.44c-3.34.62-15.72,3.75-25.64,17.21A.22.22,0,0,1,37.6,242.85Z"/><path class="cls-47" d="M37.73,243.2c3.4-3.21,13.54-15.62,27-9.95a.16.16,0,0,1,0,.3c-3.32.35-19.84,2.45-26.89,9.93C37.6,243.67,37.53,243.39,37.73,243.2Z"/><path class="cls-47" d="M38.05,241.79c.32-4.24,2.22-20.27,12.54-23.57a.08.08,0,0,1,.09.12c-1.24,1.76-10.29,14.72-12.47,23.48A.08.08,0,0,1,38.05,241.79Z"/><path class="cls-47" d="M37,246.66a.09.09,0,0,1-.11-.14c1.82-1.82,9.37-8.49,19-5.21C66.72,245,47.71,240.85,37,246.66Z"/><path class="cls-47" d="M37.27,243.33a.27.27,0,0,0,.54,0c1.15-5,3.57-18.92-3.49-22.45C26,216.75,36.13,226.87,37.27,243.33Z"/><path class="cls-47" d="M37.76,243.3c-1.19-3.09-5.76-12.69-15.28-7.51a.19.19,0,0,0,.07.35,22.39,22.39,0,0,1,14.9,7.34A.18.18,0,0,0,37.76,243.3Z"/><path class="cls-47" d="M37.5,244.07c-.44-1.91-2.72-5.73-14.3-2.23-.07,0-.05.13,0,.12,2.28-.24,10-.76,13.74,2.44A.33.33,0,0,0,37.5,244.07Z"/><path class="cls-47" d="M34.78,296.11l0,0h0v-.66l0-.84,0-1.68-.06-3.35q0-3.37,0-6.73,0-6.72.26-13.44c.09-2.24.2-4.48.35-6.71s.32-4.47.55-6.7.52-4.44.91-6.63A35.47,35.47,0,0,1,38.34,243v0a.39.39,0,0,0-.73-.28,36.12,36.12,0,0,0-1.79,6.57c-.42,2.22-.75,4.45-1,6.69s-.47,4.48-.65,6.72-.32,4.49-.44,6.73c-.23,4.5-.37,9-.45,13.49,0,2.25-.05,4.49-.06,6.74l0,3.38,0,1.69v1.55s0,.07,0,.11a2,2,0,0,0,0,.24.76.76,0,1,0,1.44-.48Z"/><path class="cls-40" d="M29.06,256.34c-1.76-4.21-8.16-17-19.49-13a.17.17,0,0,0,0,.33c2.5.47,11.75,2.8,19.17,12.87A.17.17,0,0,0,29.06,256.34Z"/><path class="cls-40" d="M29,256.61c-2.55-2.4-10.13-11.68-20.19-7.44a.11.11,0,0,0,0,.22c2.48.26,14.84,1.83,20.11,7.42C29.06,257,29.11,256.75,29,256.61Z"/><path class="cls-40" d="M28.73,255.55c-.24-3.17-1.66-15.15-9.38-17.62a.06.06,0,0,0-.07.09c.93,1.31,7.7,11,9.33,17.55C28.63,255.65,28.73,255.63,28.73,255.55Z"/><path class="cls-40" d="M29.5,259.19a.06.06,0,0,0,.07-.1c-1.36-1.36-7-6.35-14.17-3.9C7.28,258,21.5,254.85,29.5,259.19Z"/><path class="cls-40" d="M29.31,256.7a.21.21,0,0,1-.41,0c-.85-3.77-2.67-14.15,2.61-16.79C37.76,236.83,30.16,244.4,29.31,256.7Z"/><path class="cls-40" d="M28.94,256.68c.89-2.31,4.31-9.49,11.43-5.61a.13.13,0,0,1-.06.25,16.82,16.82,0,0,0-11.14,5.5A.14.14,0,0,1,28.94,256.68Z"/><path class="cls-40" d="M29.14,257.26c.32-1.43,2-4.29,10.69-1.67a0,0,0,0,1,0,.09c-1.7-.18-7.45-.57-10.27,1.82A.24.24,0,0,1,29.14,257.26Z"/><path class="cls-40" d="M32.43,296.59a1.46,1.46,0,0,0,0-.22.38.38,0,0,0,0-.1v-4.95c0-1.68,0-3.36,0-5.05-.07-3.36-.18-6.72-.36-10.08s-.44-6.72-.84-10.07c-.2-1.68-.45-3.35-.77-5a27.12,27.12,0,0,0-1.35-4.93.39.39,0,0,0-.51-.22.39.39,0,0,0-.22.5v0a26.27,26.27,0,0,1,1.22,4.79c.29,1.64.5,3.29.67,5,.33,3.33.52,6.67.65,10s.17,6.7.17,10.05c0,1.67,0,3.35,0,5L31,293.82l0,1.26,0,.62v.47a.09.09,0,0,1,0-.06.75.75,0,0,0,.48,1A.77.77,0,0,0,32.43,296.59Z"/><path class="cls-40" d="M42.67,263.62c2-3.3,8.94-13.16,16.84-8.17a.16.16,0,0,1-.08.28c-2,0-9.32.65-16.56,8.07C42.75,263.93,42.58,263.77,42.67,263.62Z"/><path class="cls-40" d="M42.7,263.86c2.31-1.66,9.55-8.4,16.45-3.34.07.05,0,.19-.06.18-1.92-.14-11.49-.62-16.39,3.34C42.57,264.14,42.57,264,42.7,263.86Z"/><path class="cls-40" d="M43.05,263c.71-2.65,3.74-12.57,10-13.53a.05.05,0,0,1,0,.09c-.91,1-7.6,8.17-9.91,13.47C43.12,263.09,43,263.06,43.05,263Z"/><path class="cls-40" d="M41.88,266c-.06,0-.09-.06,0-.1,1.25-.95,6.32-4.34,11.33-1.22C58.83,268.18,48.62,263.46,41.88,266Z"/><path class="cls-40" d="M42.43,263.89a.16.16,0,0,0,.3.09c1.26-3.06,4.33-11.57.78-14.57C39.31,245.85,43.8,253.36,42.43,263.89Z"/><path class="cls-40" d="M42.71,263.92c-.29-2.08-1.7-8.65-7.7-6.41a.12.12,0,0,0,0,.22,12.3,12.3,0,0,1,7.5,6.27C42.57,264.11,42.72,264.05,42.71,263.92Z"/><path class="cls-40" d="M42.47,264.38c0-1.25-.83-3.92-7.8-3,0,0,0,.07,0,.08,1.31.09,5.72.61,7.45,3C42.23,264.69,42.47,264.59,42.47,264.38Z"/><path class="cls-40" d="M34.88,297a.13.13,0,0,1,0,.06v0l0-.13,0-.26.08-.53.18-1.07.37-2.12c.25-1.42.51-2.84.78-4.25.55-2.83,1.13-5.65,1.76-8.46s1.31-5.61,2.1-8.37c.4-1.38.83-2.75,1.3-4.1a25.61,25.61,0,0,1,1.71-3.89h0a.39.39,0,0,0-.14-.53.38.38,0,0,0-.53.14,25.75,25.75,0,0,0-1.86,4c-.51,1.36-1,2.74-1.4,4.12-.86,2.78-1.6,5.57-2.3,8.38s-1.34,5.63-1.94,8.46c-.31,1.42-.6,2.83-.88,4.25l-.42,2.13-.2,1.07-.1.54,0,.27,0,.15v.12a1.21,1.21,0,0,0,0,.19.76.76,0,0,0,1.51-.14Z"/><path class="cls-48" d="M41.06,293.11H26.12A1.52,1.52,0,0,0,24.64,295a47.21,47.21,0,0,0,4.45,12.61,2.46,2.46,0,0,0,2.15,1.28h4.88a2.4,2.4,0,0,0,2.11-1.27,43,43,0,0,0,4.58-12.37A1.78,1.78,0,0,0,41.06,293.11Z"/><rect class="cls-49" y="307.23" width="424" height="5.88" transform="translate(424 620.35) rotate(180)"/><rect class="cls-2" x="211.96" y="59.42" width="2.33" height="8.58"/><path class="cls-2" d="M214,58.57h-1.65a.29.29,0,0,1-.29-.29h0a.29.29,0,0,1,.29-.29H214a.29.29,0,0,1,.29.29h0A.29.29,0,0,1,214,58.57Z"/><rect class="cls-2" x="207.94" y="52.68" width="2.33" height="15.32"/><path class="cls-2" d="M209.93,52h-1.64a.29.29,0,0,1-.29-.29h0a.29.29,0,0,1,.29-.29h1.64a.29.29,0,0,1,.29.29h0A.29.29,0,0,1,209.93,52Z"/><rect class="cls-2" x="204.09" y="42.01" width="2.33" height="26"/><path class="cls-2" d="M206.08,41.3h-1.65a.29.29,0,0,1-.29-.29h0a.29.29,0,0,1,.29-.29h1.65a.29.29,0,0,1,.29.29h0A.29.29,0,0,1,206.08,41.3Z"/><rect class="cls-2" x="200.13" y="46.73" width="2.33" height="21.28"/><path class="cls-2" d="M202.12,46.16h-1.64a.3.3,0,0,1-.3-.3h0a.3.3,0,0,1,.3-.29h1.64a.29.29,0,0,1,.29.29h0A.29.29,0,0,1,202.12,46.16Z"/><rect class="cls-2" x="196.28" y="34.92" width="2.33" height="33.09"/><path class="cls-2" d="M198.26,34.28h-1.64a.29.29,0,0,1-.29-.29h0a.29.29,0,0,1,.29-.29h1.64a.29.29,0,0,1,.3.29h0A.29.29,0,0,1,198.26,34.28Z"/><rect class="cls-2" x="192.52" y="40.08" width="2.33" height="27.92"/><path class="cls-2" d="M194.51,39.49h-1.64a.29.29,0,0,1-.29-.29h0a.29.29,0,0,1,.29-.29h1.64a.29.29,0,0,1,.29.29h0A.29.29,0,0,1,194.51,39.49Z"/></g></g></g></svg>