<svg xmlns="http://www.w3.org/2000/svg" xmlns:xlink="http://www.w3.org/1999/xlink" width="424" height="313.126" viewBox="0 0 424 313.126"><defs><radialGradient id="a" cx="0.5" cy="0.5" r="0.577" gradientTransform="translate(0.112) scale(0.776 1)" gradientUnits="objectBoundingBox"><stop offset="0" stop-color="#ffc8af"/><stop offset="1" stop-color="#ffbb9c"/></radialGradient><radialGradient id="b" cx="0.5" cy="0.5" r="0.413" gradientTransform="translate(-0.332) scale(1.664 1)" xlink:href="#a"/><radialGradient id="c" cx="0.497" cy="0.497" r="0.514" gradientTransform="translate(0.025) scale(0.949 1)" xlink:href="#a"/><radialGradient id="d" cx="0.5" cy="0.498" r="0.393" gradientTransform="translate(-0.533) scale(2.066 1)" xlink:href="#a"/><radialGradient id="e" cx="0.5" cy="0.501" r="0.425" gradientTransform="translate(-0.247) scale(1.494 1)" xlink:href="#a"/><radialGradient id="f" cx="0.5" cy="0.5" r="0.375" gradientTransform="translate(-0.908) scale(2.815 1)" xlink:href="#a"/><radialGradient id="g" cx="0.503" cy="0.501" r="0.411" gradientTransform="translate(-0.348) scale(1.695 1)" xlink:href="#a"/><radialGradient id="h" cx="0.5" cy="0.5" r="0.531" gradientTransform="translate(0.053) scale(0.894 1)" xlink:href="#a"/><radialGradient id="i" cx="0.5" cy="0.5" r="0.782" gradientTransform="translate(0.247) scale(0.507 1)" xlink:href="#a"/><radialGradient id="j" cx="0.5" cy="0.499" r="0.401" gradientTransform="translate(-0.438) scale(1.876 1)" xlink:href="#a"/><radialGradient id="k" cx="0.5" cy="0.501" r="0.435" gradientTransform="translate(-0.2) scale(1.4 1)" xlink:href="#a"/><radialGradient id="l" cx="0.505" cy="0.499" r="0.412" gradientTransform="translate(-0.325) scale(1.651 1)" xlink:href="#a"/><radialGradient id="m" cx="0.5" cy="0.499" r="0.423" gradientTransform="translate(-0.256) scale(1.513 1)" xlink:href="#a"/><radialGradient id="n" cx="0.5" cy="0.5" r="0.792" gradientTransform="translate(0.251) scale(0.499 1)" xlink:href="#a"/></defs><g transform="translate(0 0.019)"><g transform="translate(0 -0.019)"><path d="M231.377,100.464c.7-.224.83-.9,1.3-2.556.83-2.979,1.585-5.949,2.489-8.887a2.008,2.008,0,0,1,1.27-1.1c2.937-.672,5.908-1.17,8.837-1.875a1.66,1.66,0,0,1,2.016.573c2.489,3.062,5.02,6.049,7.518,9.028,3.369-1.22,10.671-6.207,12.6-8.646-1.85-3.253-3.692-6.638-5.659-9.882a1.892,1.892,0,0,1,.174-2.581,78.753,78.753,0,0,0,4.738-7.327c.606-1.012,1.1-1.577,2.415-1.427,3.4.39,6.829.573,10.239.9.921.091,1.46-.149,1.66-1.062.83-4.306,1.577-8.613,2.373-12.919.191-1.054-.664-1.112-1.294-1.294-3.195-.929-6.389-1.875-9.609-2.7a2.149,2.149,0,0,1-1.85-2.116c-.5-3.319-1.22-6.638-1.892-10.148l9.592-8.09a44.732,44.732,0,0,0-8.721-12.446l-10.729,6.032c-3.41-2.091-6.53-4.107-9.75-5.924a1.66,1.66,0,0,1-1.07-1.917c.332-3.319.556-6.729.83-10.1.066-.722,0-1.245-.788-1.518A42.857,42.857,0,0,0,235.351,0,1.352,1.352,0,0,0,233.8,1.2c-.938,3.319-1.942,6.68-2.871,10.032a1.568,1.568,0,0,1-1.452,1.361c-3.244.631-6.472,1.4-9.667,2.257a1.328,1.328,0,0,1-1.66-.548c-2.539-3-5.095-5.991-7.7-9.061a48.259,48.259,0,0,0-12.388,8.505l6.356,11.144-6.829,10.555c-3-.241-6.456-.548-9.916-.788-2.838-.2-2.489-.639-3.361,2.29a4.637,4.637,0,0,1-.39.83l-1.369,7.75a8.98,8.98,0,0,1,0,1.767c-.282,1.485.141,2.249,1.734,2.63,3.319.83,6.638,1.825,9.874,2.838a1.809,1.809,0,0,1,1.037,1.112c.714,2.879,1.178,5.808,2.041,8.646a2.224,2.224,0,0,1-.913,2.854c-2.888,2.34-5.676,4.813-8.8,7.468l8.53,12.446c.83-.456,1.328-.705,1.8-.971,2.946-1.66,5.9-3.319,8.812-4.979a1.66,1.66,0,0,1,2.124.166c2.68,1.759,5.476,3.319,8.165,5.095a2.008,2.008,0,0,1,.755,1.527c-.149,2.763-.456,5.518-.656,8.3-.166,2.24-.224,3.07.573,3.676Zm-2.63-19.557a31,31,0,1,1,22.935-6.14,31,31,0,0,1-22.935,6.14Z" transform="translate(-31.064 0.019)" fill="#d6e8fc"/><path d="M177.479,142.168a18.188,18.188,0,1,0,9.343-23.964A18.188,18.188,0,0,0,177.479,142.168Zm3.867-2.348h0a13.716,13.716,0,0,1,7.825-17.749h0a13.724,13.724,0,0,1,17.757,7.825h0a13.733,13.733,0,0,1-7.825,17.757h0a13.724,13.724,0,0,1-17.757-7.833Z" transform="translate(-29.955 -19.845)" fill="#d6e8fc"/><path d="M165.178,147.606c.34.29.738.174,1.742-.124,1.792-.523,3.585-1.046,5.393-1.51a1.2,1.2,0,0,1,.971.315c1.27,1.311,2.489,2.7,3.751,4a1,1,0,0,1,.34,1.228c-.83,2.249-1.56,4.514-2.323,6.746a25.911,25.911,0,0,0,8.447,3.817c1.112-1.983,2.274-3.991,3.361-6.041a1.153,1.153,0,0,1,1.394-.73,45.027,45.027,0,0,0,5.294.174c.714,0,1.162.075,1.494.83.871,1.892,1.859,3.726,2.755,5.609.249.5.539.705,1.062.506l7.468-2.829c.606-.232.373-.7.266-1.079-.523-1.958-1.037-3.908-1.618-5.808a1.3,1.3,0,0,1,.514-1.66c1.56-1.3,3.045-2.705,4.672-4.149l7.227,2.439a27.166,27.166,0,0,0,3.709-8.447l-6.505-3.668c0-2.439.075-4.688,0-6.937a1.037,1.037,0,0,1,.7-1.162c1.85-.88,3.676-1.825,5.518-2.722.4-.2.664-.382.548-.888a26.055,26.055,0,0,0-2.722-7.377.83.83,0,0,0-1.112-.431c-2.041.564-4.082,1.1-6.115,1.66a.954.954,0,0,1-1.162-.332c-1.353-1.485-2.771-2.921-4.215-4.306a.83.83,0,0,1-.232-1.021c.763-2.265,1.51-4.531,2.282-6.854a29.1,29.1,0,0,0-8.3-3.751c-1.3,2.3-2.6,4.589-3.825,6.779l-7.634-.232c-.83-1.66-1.751-3.518-2.713-5.393-.788-1.535-.456-1.51-2.24-1.029a2.9,2.9,0,0,1-.539.05l-4.456,1.726a4.978,4.978,0,0,1-.921.548,1.2,1.2,0,0,0-.83,1.734c.631,1.983,1.128,4,1.66,6.024a1.1,1.1,0,0,1-.257.888c-1.261,1.27-2.647,2.439-3.842,3.775a1.344,1.344,0,0,1-1.767.423c-2.132-.763-4.29-1.436-6.638-2.215l-3.775,8.3,1.07.631c1.784,1,3.56,2.033,5.369,3a1.045,1.045,0,0,1,.581,1.153c-.075,1.95,0,3.9-.083,5.85a1.228,1.228,0,0,1-.556.871c-1.477.788-3,1.5-4.506,2.265-1.211.614-1.66.83-1.726,1.452Zm9.335-7.509a18.844,18.844,0,1,1,10.405,9.957A18.844,18.844,0,0,1,174.513,140.1Z" transform="translate(-27.579 -17.508)" fill="#d6e8fc"/><path d="M169.781,349.788a1.759,1.759,0,0,1-.7-.149,1.983,1.983,0,0,1-.913-2.489l36.659-93.008a1.66,1.66,0,0,1,2.29-1,1.983,1.983,0,0,1,.921,2.489l-36.659,93.008A1.742,1.742,0,0,1,169.781,349.788Z" transform="translate(-28.605 -43.051)" fill="#bcbec0"/><path d="M212.021,349.788a1.734,1.734,0,0,1-1.6-1.153L173.76,255.626a1.975,1.975,0,0,1,.913-2.489,1.66,1.66,0,0,1,2.3,1l36.651,93.008a1.975,1.975,0,0,1-.913,2.489A1.66,1.66,0,0,1,212.021,349.788Z" transform="translate(-29.556 -43.05)" fill="#bcbec0"/><path d="M357.812,349.788a1.717,1.717,0,0,1-.689-.149,1.975,1.975,0,0,1-.913-2.489l36.659-93.008a1.66,1.66,0,0,1,2.29-1,1.975,1.975,0,0,1,.913,2.489l-36.651,93.008a1.751,1.751,0,0,1-1.61,1.153Z" transform="translate(-60.616 -43.051)" fill="#bcbec0"/><path d="M400.061,349.788a1.759,1.759,0,0,1-1.61-1.153L361.8,255.626a1.975,1.975,0,0,1,.913-2.489,1.66,1.66,0,0,1,2.3,1l36.651,93.008a1.975,1.975,0,0,1-.913,2.489A1.659,1.659,0,0,1,400.061,349.788Z" transform="translate(-61.568 -43.05)" fill="#bcbec0"/><path d="M368.077,250.679a1.66,1.66,0,0,0-.448-1.527,2.282,2.282,0,0,0-1.66-.672H151.028a2.564,2.564,0,0,0-2.058.979,1.9,1.9,0,0,0-.166,2.041l2.332,4.381a3.319,3.319,0,0,0,2.962,1.66H364.518a2.406,2.406,0,0,0,2.423-1.743Z" transform="translate(-25.294 -42.285)" fill="#414042"/><rect width="14.529" height="7.401" rx="3.701" transform="translate(230.002 126.637)" fill="#5184ce"/><path d="M273.107,240.53,261.88,245.7v1.153h39.986V245.7L290.54,240.53Z" transform="translate(-44.582 -40.932)" fill="#13375b"/><rect width="17.433" height="22.188" transform="translate(228.525 177.419)" fill="#466eb6"/><path d="M327.829,211.039V161a4.306,4.306,0,0,0-4.306-4.306H226.506A4.306,4.306,0,0,0,222.2,161v50.043Z" transform="translate(-37.827 -26.659)" fill="#13375b"/><rect width="39.986" height="1.145" transform="translate(217.298 204.768)" fill="#184655" opacity="0.3"/><rect width="17.425" height="2.605" transform="translate(228.525 196.993)" fill="#0396fb" opacity="0.3"/><path d="M222.2,222.19v8.016a2.792,2.792,0,0,0,2.489,3.02H325.364a2.8,2.8,0,0,0,2.489-3.02V222.19Z" transform="translate(-37.827 -37.809)" fill="#13375b"/><path d="M286.828,154.8a.979.979,0,1,1-.284-.7A.979.979,0,0,1,286.828,154.8Z" transform="translate(-48.496 -26.169)" fill="#184655"/><path d="M325.862,209.3V161.535a2.315,2.315,0,0,0-2.348-2.265h-96a2.315,2.315,0,0,0-2.348,2.265v47.736Z" transform="translate(-38.333 -27.098)" fill="#cce6ff"/><rect width="60.515" height="42.227" transform="translate(191.268 136.064)" fill="#e9ffff"/><rect width="60.515" height="4.945" transform="translate(191.268 136.064)" fill="#0396fb"/><rect width="4.132" height="31.971" transform="translate(273.315 146.626)" fill="#9bc1f9" opacity="0.6"/><rect width="4.132" height="22.221" transform="translate(267.548 156.376)" fill="#9bc1f9" opacity="0.6"/><rect width="4.132" height="25.042" transform="translate(279.173 153.555)" fill="#9bc1f9" opacity="0.6"/><rect width="4.132" height="26.03" transform="translate(261.782 152.567)" fill="#9bc1f9" opacity="0.6"/><rect width="4.132" height="18.313" transform="translate(256.015 160.284)" fill="#9bc1f9" opacity="0.6"/><rect width="4.132" height="24.602" transform="translate(273.315 153.995)" fill="#0396fb" opacity="0.3"/><rect width="4.132" height="17.101" transform="translate(267.548 161.496)" fill="#0396fb" opacity="0.3"/><rect width="4.132" height="19.275" transform="translate(279.173 159.322)" fill="#0396fb" opacity="0.3"/><rect width="4.132" height="20.03" transform="translate(261.782 158.567)" fill="#0396fb" opacity="0.3"/><rect width="4.132" height="14.089" transform="translate(256.015 164.508)" fill="#0396fb" opacity="0.3"/><rect width="55.851" height="7.169" transform="translate(193.359 143.042)" fill="#9bc1f9" opacity="0.6"/><rect width="35.954" height="1.834" transform="translate(213.257 152.244)" fill="#9bc1f9" opacity="0.6"/><rect width="17.682" height="21.209" transform="translate(193.359 152.244)" fill="#0396fb"/><rect width="35.954" height="1.834" transform="translate(213.257 156.119)" fill="#9bc1f9" opacity="0.6"/><rect width="35.954" height="1.834" transform="translate(213.257 167.744)" fill="#9bc1f9" opacity="0.6"/><rect width="35.954" height="1.834" transform="translate(213.257 171.611)" fill="#9bc1f9" opacity="0.6"/><rect width="35.406" height="46.068" rx="1.1" transform="translate(167.186 159.859) rotate(-0.1)" fill="#f7cc7f"/><rect width="31.722" height="43.247" transform="translate(169.031 161.142) rotate(-0.1)" fill="#fff"/><path d="M228.243,191.768a.34.34,0,0,0-.357-.348H214.568a.357.357,0,0,0-.348.357v1.386h14.023Z" transform="translate(-36.468 -32.571)" fill="#13375b"/><path d="M222.231,189.4a2.1,2.1,0,1,0,1.49.612,2.1,2.1,0,0,0-1.49-.612Zm0,3.452a1.34,1.34,0,1,1,.008,0Z" transform="translate(-37.476 -32.227)" fill="#13375b"/><path d="M228.027,191.45a.349.349,0,0,1,.216.324v1.386H214.22a1.743,1.743,0,0,0,1.743,1.734h10.546a1.734,1.734,0,0,0,1.734-1.734v-1.386A.349.349,0,0,0,228.027,191.45Z" transform="translate(-36.468 -32.576)" fill="#355389"/><path d="M214.58,191.44h0a.373.373,0,0,0-.29.158A.373.373,0,0,1,214.58,191.44Z" transform="translate(-36.48 -32.575)" fill="#9bc1f9"/><path d="M214.24,191.728v-.058Z" transform="translate(-36.472 -32.614)" fill="#9bc1f9"/><path d="M236.636,208.556H232.13V204.05h4.506Zm-4.323-.174h4.149v-4.149h-4.149Z" transform="translate(-39.517 -34.721)" fill="#184655"/><path d="M236.656,217.6H232.15v-4.5h4.506Zm-4.323-.174h4.149v-4.149h-4.149Z" transform="translate(-39.521 -36.262)" fill="#184655"/><path d="M236.674,226.636H232.16V222.13h4.514Zm-4.331-.174h4.149v-4.149h-4.149Z" transform="translate(-39.522 -37.799)" fill="#184655"/><path d="M236.686,235.676H232.18V231.17h4.506Zm-4.323-.174h4.149v-4.149h-4.149Z" transform="translate(-39.526 -39.338)" fill="#184655"/><rect width="19.3" height="0.647" transform="translate(171.41 169.468) rotate(-0.1)" fill="#9bc1f9"/><rect width="19.3" height="0.647" transform="translate(171.413 171.311) rotate(-0.1)" fill="#9bc1f9"/><rect width="19.3" height="0.647" transform="translate(171.416 173.144) rotate(-0.1)" fill="#9bc1f9"/><rect width="19.3" height="0.647" transform="translate(171.432 177.227) rotate(-0.1)" fill="#9bc1f9"/><rect width="19.3" height="0.647" transform="translate(171.427 179.069) rotate(-0.1)" fill="#9bc1f9"/><rect width="19.3" height="0.647" transform="translate(171.43 180.903) rotate(-0.1)" fill="#9bc1f9"/><rect width="19.3" height="0.647" transform="translate(171.436 184.578) rotate(-0.1)" fill="#9bc1f9"/><rect width="19.3" height="0.647" transform="translate(171.448 186.42) rotate(-0.1)" fill="#9bc1f9"/><rect width="19.3" height="0.647" transform="translate(171.443 188.254) rotate(-0.1)" fill="#9bc1f9"/><rect width="19.3" height="0.647" transform="translate(171.449 191.93) rotate(-0.1)" fill="#9bc1f9"/><rect width="19.3" height="0.647" transform="translate(171.453 193.772) rotate(-0.1)" fill="#9bc1f9"/><rect width="19.3" height="0.647" transform="translate(171.464 195.606) rotate(-0.1)" fill="#9bc1f9"/><rect width="22.263" height="0.647" transform="translate(171.464 200.36) rotate(-0.1)" fill="#9bc1f9"/><rect width="26.652" height="0.647" transform="translate(171.467 201.929) rotate(-0.1)" fill="#9bc1f9"/><path d="M234.532,207.671l-1.4-2.4.506-.3.813,1.4,1.319-3.186.539.224Z" transform="translate(-39.688 -34.575)" fill="#f47458"/><path d="M234.552,216.831l-1.4-2.4.5-.3.813,1.4,1.328-3.186.539.224Z" transform="translate(-39.691 -36.134)" fill="#f47458"/><path d="M234.582,234.741l-1.4-2.4.5-.3.813,1.394,1.328-3.178.539.224Z" transform="translate(-39.696 -39.183)" fill="#f47458"/><path d="M236.112,223.4l-.407-.407-1.153,1.145L233.4,222.99l-.4.415,1.145,1.128L233,225.67l.407.407,1.153-1.137,1.153,1.137.4-.407-1.145-1.137Z" transform="translate(-39.665 -37.946)" fill="#f47458"/><path d="M207,228.81a8.248,8.248,0,0,0-3.211.647v1.054a7.352,7.352,0,0,1,7.194,12.795h1.585c.116-.1.224-.207.332-.315a8.3,8.3,0,0,0-5.9-14.172Z" transform="translate(-34.693 -38.936)" fill="#9bc1f9" opacity="0.3"/><path d="M207,231.518a6.065,6.065,0,0,0-3.211.938v.573a5.576,5.576,0,1,1,0,9.127v.548a6.057,6.057,0,1,0,3.195-11.193Z" transform="translate(-34.693 -39.396)" fill="#9bc1f9" opacity="0.3"/><path d="M214.55,201.168v-2.157h-.83v-.191h1.991v.191h-.83v2.157Z" transform="translate(-36.383 -33.831)" fill="#184655"/><path d="M218.376,200.977v.191H216.65V198.82h1.66v.191H216.94v.83h1.012v.191H216.94v.954Z" transform="translate(-36.882 -33.831)" fill="#184655"/><path d="M219.06,200.625l.241-.075a.747.747,0,0,0,.747.49.755.755,0,0,0,.448-.124.4.4,0,0,0,.166-.332.34.34,0,0,0-.108-.266.962.962,0,0,0-.373-.2l-.382-.108a1.87,1.87,0,0,1-.307-.1.829.829,0,0,1-.3-.207.431.431,0,0,1-.083-.274.564.564,0,0,1,.216-.465,1.037,1.037,0,0,1,.614-.166,1.087,1.087,0,0,1,.573.141.83.83,0,0,1,.34.423l-.224.058a.73.73,0,0,0-.282-.324.722.722,0,0,0-.415-.108.647.647,0,0,0-.4.116.349.349,0,0,0-.149.29.315.315,0,0,0,.1.232.829.829,0,0,0,.3.149l.232.066a4.385,4.385,0,0,1,.548.183.83.83,0,0,1,.29.232.506.506,0,0,1,.091.3.6.6,0,0,1-.241.49,1.1,1.1,0,0,1-.655.183,1.128,1.128,0,0,1-.606-.149A1.054,1.054,0,0,1,219.06,200.625Z" transform="translate(-37.292 -33.827)" fill="#184655"/><path d="M222.5,201.168v-2.157h-.83v-.191H223.6v.191h-.83v2.157Z" transform="translate(-37.737 -33.831)" fill="#184655"/><path d="M224.66,201.168V198.82h.282v2.348Z" transform="translate(-38.246 -33.831)" fill="#184655"/><path d="M226.241,198.966v2.182H226V198.8h.44l1.394,1.983V198.8h.266v2.348h-.29Z" transform="translate(-38.474 -33.828)" fill="#184655"/><path d="M231.074,200.894a.889.889,0,0,1-.348.232,1.244,1.244,0,0,1-.456.083,1.037,1.037,0,0,1-.83-.315,1.287,1.287,0,0,1-.29-.9,1.3,1.3,0,0,1,.29-.9,1.037,1.037,0,0,1,.83-.315,1.02,1.02,0,0,1,.622.166.971.971,0,0,1,.348.531h-.257a.83.83,0,0,0-.266-.423.78.78,0,0,0-.456-.133.747.747,0,0,0-.606.266,1.162,1.162,0,0,0-.216.747,1.212,1.212,0,0,0,.216.78.78.78,0,0,0,.647.266.83.83,0,0,0,.523-.149.473.473,0,0,0,.2-.39v-.257h-.73V200h1.021v1.12h-.241Z" transform="translate(-39.009 -33.822)" fill="#184655"/><rect width="8.712" height="8.712" transform="translate(256.629 136.055)" fill="#0396fb"/><rect width="17.002" height="1.187" transform="translate(266.885 136.055)" fill="#0396fb"/><rect width="11.467" height="1.187" transform="translate(266.885 138.569)" fill="#0396fb"/><rect width="15.268" height="1.187" transform="translate(266.885 141.075)" fill="#0396fb"/><path d="M416.683,176.175c-1.394-1.129-12.189,3.6-12.056,5.252s-7.534,17.641-7.534,17.641L383.816,188.5h0c-.116-.382-1.377-4.489-1.435-5.227s-2.307-2.116-3.319-1.917.888,1.5,1.012,1.742c.349.647-.987.9-.987.9s-3.784-1.22-3.867-2.448-2.664,2.157-2.365,2.63,6.48,5.443,7.377,6.53c0,0,17.143,19.6,18.363,20.113,1.07.448,4.9-6.306,8.505-10.787S421.048,179.726,416.683,176.175Z" transform="translate(-63.47 -29.947)" fill="url(#a)"/><path d="M467.092,348.591s2.357,2.3,2.406,3.145.207,9.882-.755,10.729-3.784,1.435-2.879,2.39c.689.714,5.974.564,9.468.365,1.029-.05,2.307-8.206,2.713-9.4.589-1.743,2.016-5.659,1.477-6.879A10.173,10.173,0,0,0,476.261,346a16,16,0,0,1-3.609-3.842Z" transform="translate(-79.278 -58.233)" fill="url(#b)"/><path d="M436.181,356.341l2.116,5.974c.149.946.772,3.278.772,4.149,0,3.228-14.537-2.738-11.276-4.149a3.418,3.418,0,0,0,1.311-2.257,7.683,7.683,0,0,0-1.22-3.809Z" transform="translate(-72.745 -60.632)" fill="url(#c)"/><path d="M409.677,222.69s-1.054,10.679-1.054,10.837c0,17.276-3.427,51.014-2.78,54.258,1.593,7.924,18.686,48.334,18.686,48.334l9.244-1.1-9.916-48.831,2.307-19.026,6.273-38.484Z" transform="translate(-69.076 -37.895)" fill="#0a2033"/><path d="M442.045,232.446l1.751,10.123,4.746,41.654,18.064,40.708s-2.539,5.924-6.29,6.754l-28.751-41.8L413.7,236.412l.631-11.882Z" transform="translate(-70.428 -38.208)" fill="#243c55"/><path d="M406,186.316l12.812,1.311s.589-10.5.589-15.517c0-6.082-.514-13.915-1.253-13.741a11.217,11.217,0,0,0-6.489,3.875C406,170.1,406,186.316,406,186.316Z" transform="translate(-69.117 -26.944)" fill="#033cfb"/><path d="M412.564,170.945c-.274,1.859-5.194,52.275-5.194,52.275,23.333,11.243,36.2,1.967,36.2,1.967s-.763-35.389.149-40.2c.606-3.186,1.361-24.362-.705-24.959a51.837,51.837,0,0,0-8.995-1.908c-2.83-.29-13.807-.465-15.766.2A24.994,24.994,0,0,0,412.564,170.945Z" transform="translate(-69.35 -26.858)" fill="#033cfb"/><path d="M475.961,346.72s-5.435,15.293-7.559,16.031c-.564.2-3.269.689-3.784,1.892a5.363,5.363,0,0,0,0,1.568h11.318s1.435-6.738,2-9.7c0,0,3-7.235,2.664-7.891S475.961,346.72,475.961,346.72Z" transform="translate(-79.086 -59.009)" fill="#0a2033"/><path d="M437.555,368.742,435.9,363.49s-3.493,1.477-5.244,1.228-5.161-1.228-5.161-1.228c-6.978,2.29-12.687,3.41-11.617,5.252H437.6Z" transform="translate(-70.435 -61.864)" fill="#0a2033"/><path d="M403.55,215.3a3.544,3.544,0,0,1-.348-.266c.415-4.937.34-9.716-1.211-11.335.042-.083.382-.83.73-1.543,1.8,1.386,2.647,5.078,2.315,11.069a9.968,9.968,0,0,1-.241,1.236C404.28,215,403.807,215.37,403.55,215.3Z" transform="translate(-68.434 -34.4)" fill="#f7a491"/><path d="M433.917,146.335l1.5,9.957s-5.493,11.8-8.771,10.787c-2.746-.83-1.054-11.3-1.054-11.3s1.494-5.609,1.046-8.422S433.917,146.335,433.917,146.335Z" transform="translate(-72.365 -24.8)" fill="url(#d)"/><path d="M426.963,147.3c-.448-2.8,7.277-.971,7.277-.971l.125.83a4.706,4.706,0,0,1-.83,1.386,10.189,10.189,0,0,1-6.754,3.054A15.427,15.427,0,0,0,426.963,147.3Z" transform="translate(-72.654 -24.795)" fill="#efa78b"/><path d="M434.553,128.908c.216-.083,1.751,11.293-1.162,14.413s-8.571,4.149-10.6,1.66c-2.249-2.722-2.141-14.936,2.381-18.163S434.553,128.908,434.553,128.908Z" transform="translate(-71.731 -21.396)" fill="url(#e)"/><path d="M427.194,119.726a12.538,12.538,0,0,1,6.588,3.759c1.585.191,3.742,1.062,5.974,4.755a9.21,9.21,0,0,1-2.489,12.015c-3.2,2.464-3.145,5.31-3.145,5.31l-.506-1.477a8.3,8.3,0,0,1-.4-3.468,6.787,6.787,0,0,1,.514-2.083c.772-1.66-1.66-2.738-2.323-4.107-.514-1.054-.539-3.46-1.361-5.2l-.979-1.336s-2.265-1.759-4.481-1.261S422.738,118.813,427.194,119.726Z" transform="translate(-72.056 -20.354)" fill="#0e2e35"/><path d="M433.31,139.389c0,1.386.614,2.489,1.411,2.539s1.469-1.1,1.494-2.489-.606-2.489-1.411-2.539S433.335,138,433.31,139.389Z" transform="translate(-73.766 -23.29)" fill="#f7a491"/><path d="M383.758,174.333q1.543-1.585,2.888-3.253l19.126,18.678c1.17,1.145.772,3.468-.9,5.178s-3.991,2.174-5.161,1.029L380.58,177.287Q382.206,175.918,383.758,174.333Z" transform="translate(-64.789 -29.109)" fill="#414042"/><ellipse cx="48.234" cy="48.533" rx="48.234" ry="48.533" transform="translate(215.449 111.521) rotate(-45.67)" fill="#c5ddf9" opacity="0.6"/><path d="M366.976,159.86a48.225,48.225,0,0,1-30.7,15.027L284,121.691v-.3A48.524,48.524,0,0,1,299.218,90.94Z" transform="translate(-48.348 -15.466)" fill="#fff"/><path d="M336.838,75.32l48.383,49.18a43.42,43.42,0,0,1-.266,4.5,48.6,48.6,0,0,1-6.082,18.894L313.53,81.51a47.811,47.811,0,0,1,23.308-6.19Z" transform="translate(-53.375 -12.807)" fill="#fff"/><path d="M292.793,161.483a54.536,54.536,0,1,0-1.153-77.35A54.708,54.708,0,0,0,292.793,161.483Zm4.4-4.506a48.242,48.242,0,1,1,68.43-.6,48.242,48.242,0,0,1-68.43.6Z" transform="translate(-47.018 -11.521)" fill="#58595b"/><path d="M295.8,159.787a51.221,51.221,0,1,0-1.087-72.662A51.221,51.221,0,0,0,295.8,159.787Zm2.083-2.141a3919.954,3919.954,0,1,0-.008,0Z" transform="translate(-47.7 -12.189)" fill="#414042" opacity="0.5"/><path d="M468.458,259.462l2.971-3.078a7.758,7.758,0,0,0-.2-10.961l-55.212-53.528a7.758,7.758,0,0,0-10.961.2l-2.971,3.087a7.75,7.75,0,0,0,.2,10.953l55.221,53.52a7.742,7.742,0,0,0,10.953-.191Z" transform="translate(-68.081 -32.283)" fill="#58595b"/><path d="M474.017,226.149a1.41,1.41,0,0,0,0-.324c-.348-3.493-3.244-32.792-3.734-34.02s-13.434-19.715-13.434-19.715l-6.389,8.7,12.5,16.67c.282,1.062,4.8,20.844,4.8,20.844s.921,3.6,1.336,5.767c-.191.514-.373,1-.539,1.411a13.418,13.418,0,0,1-1.344,2.166,14.587,14.587,0,0,0-1.6,2.821c-.133.506-.365,1.568-.506,2.207s-.315,1.377-.349,1.726a3.16,3.16,0,0,1-.407.929.564.564,0,0,0,.664.83,2.308,2.308,0,0,0,1.021-1.1c.614-1.037.946-2.921,1.1-2.821a36.782,36.782,0,0,1,.78,3.659,38.868,38.868,0,0,0,1.1,4.763c.365.68.83.564.979.141s-.407-5.568-.407-5.568-.066-.664.224-.456.772,4.929.971,5.617.664,1.062,1.054.506c.481-.68-.34-5.692-.34-5.692s-.091-.622.174-.564.606,4.082.83,4.431a.531.531,0,0,0,.987-.108c.3-.689-.473-5.153-.473-5.153s.042-.357.207-.232.7,3.526,1.046,3.842a.365.365,0,0,0,.531,0c.639-.431-.34-3.676-.324-5.294s-.738-3.427-.514-5.344C473.951,226.63,473.992,226.332,474.017,226.149Z" transform="translate(-76.685 -29.281)" fill="url(#f)"/><path d="M465.853,181.874l-11.1,7.468s-6.256-9.343-9.617-12.662c-4.207-4.149,1.535-16.877,4.24-16.155C455.439,162.159,465.853,181.874,465.853,181.874Z" transform="translate(-75.525 -27.307)" fill="#033cfb"/><path d="M114.237,343.44s-1.046,7.343-2.854,9.708a18.588,18.588,0,0,0-2.489,3.236c-1.137,2.24-.506,5.568.332,7.4.423.938,0,.938.946,1.245a5.991,5.991,0,0,0,7.2-3.41,17.375,17.375,0,0,0,1.419-6.248c.307-6.638,2.365-10.057,2.365-10.057Z" transform="translate(-18.433 -58.451)" fill="url(#g)"/><path d="M153.375,347.49s.656,8.3.124,10.961c-.282,1.444-1.85,4.406-1.128,5.759a3.6,3.6,0,0,0,1.543,1.7l18.686.3c1.021,0,.348-.639-.473-1.253a37.37,37.37,0,0,0-6.721-3.734c-.282-.141-1.294-.83-1.66-1.012a12.97,12.97,0,0,1-2.672-2.381c-1.344-1.5-1.46-8.787-1.46-8.787Z" transform="translate(-25.907 -59.14)" fill="url(#h)"/><path d="M167.573,214.5s2.356,13.434.83,22.238-8.961,90.444-8.961,90.444l-8.24.465s-1.726-34.1-1.419-38.849,2.755-12.679,2.755-12.679l-.83-27.54,10.405-36.169Z" transform="translate(-25.492 -36.145)" fill="#0a2033"/><path d="M137.267,210.9s-6.489,9.824-8.032,17.956,1.137,33.116-1.842,43.77c-1.61,5.767-7.708,14.678-8.63,22.13s-4.564,26.976-4.564,26.976l8.231,1.66,19.151-48.757L156.6,230.561l3.9-22.711Z" transform="translate(-19.441 -35.368)" fill="#243c55"/><path d="M117.893,362.81c-4.489.83-7.468-1.817-9.036-3.8-1.137,2.24-1.66,5.584-.83,7.426.738,1.66,2.9,1.577,4.6,1.66a4.431,4.431,0,0,0,4.082-2.489A14.388,14.388,0,0,0,117.893,362.81Z" transform="translate(-18.321 -61.101)" fill="#0a2033"/><path d="M163.733,362.725a16.8,16.8,0,0,1-10.638-.415c-.531,1.5-1.228,3.385-.83,4.472.456,1.328,1.1,1.66,1.66,1.66,4.514.116,16.537.274,19.981.324a.564.564,0,0,0,.44-.929C173.475,366.8,164.1,362.957,163.733,362.725Z" transform="translate(-25.901 -61.663)" fill="#0a2033"/><path d="M198.305,184.522c.348-.738-3.319-1.734-3.4-2.489s4.755-.34,4.979-1c.448-1.211-5.3-.83-5.128-1.386s6.082-1.27,5.559-2.332-6.049,1.361-6.14.672,5.344-1.8,5.41-3.319c0-.83-9.053,3.062-10.007,2.489s1.5-4.049.772-4.68-3.925,6.713-4.5,6.929-13.044,3.983-17.284,4.605c-.357-1.435-3.543-9.327-3.85-10.687-2.489,1.411-5.659-.282-8.206.971,1.286,4.522,4.149,19.416,5.31,20.08,3.51,2.041,21.931-7.692,24.984-9.409s4.605-.9,6.588-1.344S197.965,185.219,198.305,184.522Z" transform="translate(-26.644 -29.341)" fill="url(#i)"/><path d="M155.958,130.076c.929-4.215,1.842-8.455-.606-13.085A11.866,11.866,0,0,0,146,110.626c-11.21-1.336-8.812,9.127-24.486,11.4-4.862.7-9.393,1.377-13.45,3.8-7.343,4.373-10.115,11.384-5.244,22.81,11.915,27.98,40.434,3.668,44.807-1.286S155.368,132.789,155.958,130.076Z" transform="translate(-17.089 -18.797)" fill="#0e2e35"/><path d="M144.087,150.12s-5.659.639-9.044,4.323,5.468,33.29,6.09,37.978-5.891,17.666-5.891,17.666,22.1,4.389,27.855.6c0,0,.5-36.236-.116-39.58s-5.7-16.935-6.978-18.3S144.087,150.12,144.087,150.12Z" transform="translate(-22.858 -25.54)" fill="#031efb"/><path d="M148.887,136.338s-.042.249-.124.672c-.382,2.058-1.85,8.87-2.838,10.745-1.2,2.257,4.107,9.476,9.21,8.6,1.527-.266-1.286-6.638-1.145-7.31.257-1.286.606-3.054.963-4.854.2-1.021.407-2.058.6-3.029l1-4.979Z" transform="translate(-24.813 -23.167)" fill="url(#j)"/><path d="M149.332,137c.083-.423.124-.672.124-.672l7.659-.191-1,4.979c-.191.971-.39,1.991-.6,3.012a7.144,7.144,0,0,1-3.651-1.834,9.675,9.675,0,0,1-2.771-4.107C149.2,137.741,149.274,137.327,149.332,137Z" transform="translate(-25.383 -23.16)" fill="#efa78b" opacity="0.5"/><path d="M153.458,114.439a9,9,0,0,0-5.377,3.319c-2.265,2.921-4.7,11.949.913,16.852s11.169-.647,11.99-6.539S161.64,114.232,153.458,114.439Z" transform="translate(-24.779 -19.465)" fill="url(#k)"/><path d="M165.509,128.538c-.357,1.419-1.286,2.381-2.083,2.141s-1.145-1.577-.83-3,1.278-2.381,2.074-2.141S165.857,127.119,165.509,128.538Z" transform="translate(-27.66 -21.35)" fill="url(#l)"/><path d="M156.247,114.441s-7.335,8.422-10.787,8.82-3.9,4.979-3.9,4.979,1.236-10.513,4.647-12.538S156.247,114.441,156.247,114.441Z" transform="translate(-24.099 -19.442)" fill="#0e2e35"/><path d="M146.88,127.073c.282,1.518-.282,2.921-1.253,3.12s-2-.871-2.282-2.4.29-2.921,1.261-3.12S146.606,125.546,146.88,127.073Z" transform="translate(-24.391 -21.205)" fill="url(#m)"/><rect width="34.568" height="26.561" rx="1.57" transform="translate(116.088 182.607) rotate(-81.68)" fill="#184655"/><path d="M166.635,180.572a.257.257,0,0,0-.216-.3l-9.891-1.444a.257.257,0,0,0-.3.216l-.149,1.029,10.405,1.527Z" transform="translate(-26.571 -30.427)" fill="#13375b"/><path d="M162.429,178.186a1.577,1.577,0,1,0,1.328,1.792A1.577,1.577,0,0,0,162.429,178.186Zm-.373,2.564a1.012,1.012,0,1,1,1.145-.83A1.012,1.012,0,0,1,162.056,180.75Z" transform="translate(-27.344 -30.315)" fill="#13375b"/><path d="M166.507,180.562a.266.266,0,0,1,.124.266l-.149,1.029-10.405-1.527a1.294,1.294,0,0,0,1.1,1.477l7.833,1.145a1.294,1.294,0,0,0,1.477-1.1l.149-1.029A.265.265,0,0,0,166.507,180.562Z" transform="translate(-26.568 -30.683)" fill="#355389"/><path d="M127.453,188.82l8.588.88s-.141,7.285,0,8.123c0,0,14.687,4.074,20.819,5.178,0,0,2.8-1.585,3.925-2.091a28.367,28.367,0,0,1,4.846-1.137c.672-.091.44.647-.133.9a5.553,5.553,0,0,0-2.489,1.825,4.639,4.639,0,0,0,1.859-.158c.639-.282,1.518-.888,1.535-1.2s.158-1.07.373-1.029c.05,0,.124.257.191.523s.141.5.207.747c.108.448.232,1.1.274,1.394a19.517,19.517,0,0,1-.357,3.17c-.1,1.195-.44,1.726-1.079,2.033a15.45,15.45,0,0,1-3.692.747c-2.921.3-5.6-.539-6.771-.672s-19.873-1.983-19.873-1.983-7.468-1.07-7.933-2.348S127.453,188.82,127.453,188.82Z" transform="translate(-21.692 -32.129)" fill="url(#n)"/><path d="M134.8,153.977s-2.713,1.286-5.095,6.837c-2.265,5.277-2.929,31.606-2.929,31.606l8.986-1.494,4.564-12.28a22.5,22.5,0,0,0-2.332-22.4C136.737,154.558,135.567,153.513,134.8,153.977Z" transform="translate(-21.583 -26.178)" fill="#031efb"/><path d="M45.3,288.9c2.365-5.634,10.92-22.711,26.063-17.425a.224.224,0,0,1,0,.44c-3.319.622-15.707,3.751-25.631,17.209a.243.243,0,1,1-.431-.224Z" transform="translate(-7.708 -46.029)" fill="#035afb"/><path d="M45.446,290.757c3.4-3.211,13.533-15.624,27-9.957a.158.158,0,0,1-.041.3c-3.319.349-19.848,2.439-26.9,9.957C45.321,291.23,45.247,290.948,45.446,290.757Z" transform="translate(-7.716 -47.538)" fill="#035afb"/><path d="M45.85,286.564c.324-4.24,2.224-20.246,12.571-23.565a.083.083,0,0,1,.1.124c-1.245,1.759-10.3,14.712-12.446,23.474a.113.113,0,1,1-.224-.033Z" transform="translate(-7.805 -44.756)" fill="#035afb"/><path d="M44.584,295.98a.091.091,0,0,1-.108-.141c1.825-1.817,9.376-8.488,18.96-5.2C74.289,294.362,55.279,290.18,44.584,295.98Z" transform="translate(-7.568 -49.309)" fill="#035afb"/><path d="M43.635,288.47a.282.282,0,0,0,.548.042c1.145-5.037,3.568-18.919-3.493-22.445C32.334,261.884,42.507,272.008,43.635,288.47Z" transform="translate(-6.371 -45.118)" fill="#035afb"/><path d="M42.347,291.365c-1.187-3.087-5.759-12.687-15.276-7.468a.183.183,0,0,0,.075.34,22.4,22.4,0,0,1,14.936,7.343.183.183,0,0,0,.266-.216Z" transform="translate(-4.593 -48.055)" fill="#035afb"/><path d="M42.248,293.4c-.431-1.908-2.713-5.742-14.3-2.232-.066,0-.05.124,0,.116,2.282-.232,9.957-.755,13.741,2.448a.332.332,0,0,0,.556-.332Z" transform="translate(-4.751 -49.309)" fill="#035afb"/><path d="M41.605,345.847v.042h0v-1.5l-.041-1.66-.091-3.4q-.05-3.319,0-6.721,0-6.721.266-13.442c.091-2.24.2-4.481.34-6.713s.332-4.464.556-6.688.523-4.448.9-6.638A35.6,35.6,0,0,1,45.2,292.7h0a.4.4,0,0,0-.224-.506.39.39,0,0,0-.506.224,35.953,35.953,0,0,0-1.792,6.563c-.423,2.224-.747,4.456-1,6.7s-.473,4.481-.656,6.721-.315,4.489-.44,6.738c-.232,4.489-.373,8.986-.448,13.484,0,2.24-.058,4.489-.058,6.738v6.962a.763.763,0,0,0,1.444-.481Z" transform="translate(-6.821 -49.722)" fill="#035afb"/><path d="M30.976,306.113c-1.767-4.215-8.173-16.977-19.491-13.036a.174.174,0,0,0,0,.332c2.489.465,11.749,2.8,19.167,12.87a.182.182,0,1,0,.324-.166Z" transform="translate(-1.935 -49.75)" fill="#031efb"/><path d="M30.751,307.506c-2.547-2.406-10.123-11.683-20.188-7.468a.116.116,0,0,0,0,.224c2.489.266,14.844,1.826,20.113,7.418C30.825,307.854,30.9,307.638,30.751,307.506Z" transform="translate(-1.784 -50.878)" fill="#031efb"/><path d="M32.679,304.382c-.241-3.178-1.66-15.16-9.376-17.632-.058,0-.108.05-.075.091.938,1.311,7.7,11,9.335,17.558a.059.059,0,0,0,.116-.017Z" transform="translate(-3.952 -48.8)" fill="#031efb"/><path d="M32.161,311.412a.066.066,0,0,0,.075-.108c-1.361-1.353-7-6.348-14.172-3.892C9.948,310.2,24.162,307.073,32.161,311.412Z" transform="translate(-2.663 -52.204)" fill="#031efb"/><path d="M35.032,305.785a.207.207,0,0,1-.407,0c-.83-3.759-2.672-14.106,2.614-16.786C43.488,285.912,35.879,293.479,35.032,305.785Z" transform="translate(-5.725 -49.065)" fill="#031efb"/><path d="M34.879,307.957c.888-2.315,4.306-9.492,11.426-5.609a.141.141,0,0,1-.058.257A16.712,16.712,0,0,0,35.111,308.1a.141.141,0,0,1-.232-.141Z" transform="translate(-5.937 -51.263)" fill="#031efb"/><path d="M35.108,309.44c.332-1.427,2.033-4.29,10.7-1.66a.05.05,0,0,1,0,.091c-1.66-.183-7.468-.573-10.272,1.825a.257.257,0,0,1-.423-.257Z" transform="translate(-5.975 -52.198)" fill="#031efb"/><path d="M38.238,349.12a1.661,1.661,0,0,0,0-.216.473.473,0,0,0,0-.1v-4.921c0-1.659,0-3.319-.058-5.045q-.091-5.045-.357-10.09c-.183-3.361-.44-6.721-.83-10.065-.2-1.66-.448-3.319-.763-4.979a26.86,26.86,0,0,0-1.361-4.929.39.39,0,0,0-.722.282h0a25.631,25.631,0,0,1,1.22,4.788c.29,1.66.5,3.319.664,4.979.34,3.319.531,6.638.656,10.024s.174,6.7.174,10.04v5.028l-.05,2.489v2.282a.763.763,0,1,0,1.444.481Z" transform="translate(-5.811 -52.514)" fill="#031efb"/><path d="M51.425,315.749c2.016-3.319,8.937-13.16,16.836-8.173a.158.158,0,0,1-.075.282c-1.958,0-9.327.647-16.6,8.074C51.5,316.048,51.333,315.89,51.425,315.749Z" transform="translate(-8.75 -52.11)" fill="#031efb"/><path d="M51.44,316.938c2.315-1.66,9.551-8.389,16.446-3.319a.1.1,0,0,1-.058.183c-1.917-.141-11.492-.622-16.379,3.319C51.316,317.212,51.308,317.029,51.44,316.938Z" transform="translate(-8.741 -53.058)" fill="#031efb"/><path d="M51.89,314.223c.7-2.647,3.734-12.571,9.957-13.533a.058.058,0,0,1,0,.091c-.88.938-7.567,8.14-9.866,13.442C51.981,314.282,51.873,314.223,51.89,314.223Z" transform="translate(-8.833 -51.173)" fill="#031efb"/><path d="M50.464,319.993a.058.058,0,0,1,0-.1c1.253-.954,6.323-4.348,11.326-1.22C67.416,322.217,57.21,317.5,50.464,319.993Z" transform="translate(-8.586 -54.014)" fill="#031efb"/><path d="M50.974,314.848a.16.16,0,0,0,.307.091c1.261-3.062,4.323-11.567.78-14.571C47.854,296.834,52.352,304.343,50.974,314.848Z" transform="translate(-8.549 -50.968)" fill="#031efb"/><path d="M49.876,316.66c-.29-2.083-1.66-8.654-7.7-6.414a.124.124,0,0,0,0,.224,12.281,12.281,0,0,1,7.468,6.273A.127.127,0,0,0,49.876,316.66Z" transform="translate(-7.168 -52.722)" fill="#031efb"/><path d="M49.581,317.97c0-1.253-.83-3.916-7.791-2.971v.075c1.311.1,5.709.614,7.468,3.045a.2.2,0,0,0,.324-.149Z" transform="translate(-7.114 -53.575)" fill="#031efb"/><path d="M41.7,350.99a.141.141,0,0,1,0,.058h0v-.39l.083-.531.174-1.062.373-2.133c.249-1.411.514-2.829.78-4.248q.83-4.24,1.759-8.455c.631-2.813,1.311-5.609,2.1-8.372q.6-2.066,1.3-4.1a25.144,25.144,0,0,1,1.809-3.883h0a.39.39,0,1,0-.672-.39,25.523,25.523,0,0,0-1.85,3.991c-.523,1.361-.979,2.738-1.411,4.149q-1.245,4.157-2.3,8.381c-.7,2.813-1.336,5.634-1.942,8.455q-.456,2.124-.88,4.257l-.415,2.132-.2,1.062-.1.539-.05.274v.266a1.534,1.534,0,0,0,0,.191.758.758,0,0,0,1.51-.141Z" transform="translate(-6.855 -53.994)" fill="#031efb"/><path d="M46.114,353.25H31.179a1.519,1.519,0,0,0-1.477,1.867,47.22,47.22,0,0,0,4.439,12.6,2.489,2.489,0,0,0,2.157,1.286h4.879a2.415,2.415,0,0,0,2.116-1.27,42.965,42.965,0,0,0,4.572-12.372,1.784,1.784,0,0,0-1.751-2.116Z" transform="translate(-5.049 -60.121)" fill="#03d0fb"/><rect width="424" height="5.883" transform="translate(424 313.126) rotate(180)" fill="#031efb" opacity="0.35"/><rect width="2.332" height="8.588" transform="translate(211.963 59.435)" fill="#d6e8fc"/><path d="M257.51,70.469h-1.66a.29.29,0,0,1-.29-.29h0a.3.3,0,0,1,.29-.3h1.66a.29.29,0,0,1,.29.3h0A.29.29,0,0,1,257.51,70.469Z" transform="translate(-43.506 -11.88)" fill="#d6e8fc"/><rect width="2.332" height="15.326" transform="translate(207.947 52.697)" fill="#d6e8fc"/><path d="M252.6,62.6h-1.66a.29.29,0,0,1-.29-.29h0a.29.29,0,0,1,.29-.307h1.66a.29.29,0,0,1,.29.29h0a.29.29,0,0,1-.29.307Z" transform="translate(-42.67 -10.539)" fill="#d6e8fc"/><rect width="2.332" height="25.996" transform="translate(204.088 42.027)" fill="#d6e8fc"/><path d="M247.96,49.651H246.3a.29.29,0,0,1-.29-.29h0a.29.29,0,0,1,.29-.29h1.66a.29.29,0,0,1,.29.29h0A.29.29,0,0,1,247.96,49.651Z" transform="translate(-41.88 -8.338)" fill="#d6e8fc"/><rect width="2.332" height="21.275" transform="translate(200.13 46.74)" fill="#d6e8fc"/><path d="M243.19,55.509h-1.66a.29.29,0,0,1-.29-.3h0a.29.29,0,0,1,.29-.29h1.66a.29.29,0,0,1,.29.29h0A.3.3,0,0,1,243.19,55.509Z" transform="translate(-41.068 -9.334)" fill="#d6e8fc"/><rect width="2.332" height="33.091" transform="translate(196.28 34.932)" fill="#d6e8fc"/><path d="M238.54,41.2h-1.66a.29.29,0,0,1-.29-.29h0a.3.3,0,0,1,.29-.3h1.66a.29.29,0,0,1,.29.3h0A.29.29,0,0,1,238.54,41.2Z" transform="translate(-40.277 -6.898)" fill="#d6e8fc"/><rect width="2.332" height="27.921" transform="translate(192.521 40.102)" fill="#d6e8fc"/><path d="M234.02,47.471h-1.66a.29.29,0,0,1-.29-.29h0a.29.29,0,0,1,.29-.29h1.66a.29.29,0,0,1,.29.29h0A.29.29,0,0,1,234.02,47.471Z" transform="translate(-39.507 -7.967)" fill="#d6e8fc"/></g></g></svg>