<svg xmlns="http://www.w3.org/2000/svg" width="1263.74" height="812.499" viewBox="0 0 1263.74 812.499"><g transform="translate(-154 -0.041)"><path d="M3555.71,749.48c-19.494-5.4-37.278-11.187-52.858-17.206a319.114,319.114,0,0,1-39.69-18.259,181.759,181.759,0,0,1-28.405-19.183,126.237,126.237,0,0,1-10.556-9.9,105.517,105.517,0,0,1-8.436-10.078,91.431,91.431,0,0,1-11.437-20.617,102,102,0,0,1-5.754-21.085c-2.359-14.16-2.2-28.783-2.039-42.924.11-9.836.223-20.008-.51-29.965a141.458,141.458,0,0,0-1.835-14.874,105.612,105.612,0,0,0-3.727-14.742,94.426,94.426,0,0,0-6.25-14.571,97.97,97.97,0,0,0-9.407-14.366,117.945,117.945,0,0,0-13.207-14.122,158.811,158.811,0,0,0-17.649-13.834c-20.3-13.821-46.424-20.9-76.559-20.9a214.607,214.607,0,0,0-27.317,1.81c-32.56,4.182-67.909,15.625-100.965,32.56,5.5,6.322,10.7,12.883,15.542,19.591a262.353,262.353,0,0,1,17.787,28.254,235.309,235.309,0,0,1,13.1,28.417,197.164,197.164,0,0,1,8.338,27.694,151.679,151.679,0,0,1,3.552,27.213,107.11,107.11,0,0,1-1.81,24.452,73.029,73.029,0,0,1-7.27,20.678,54.514,54.514,0,0,1-12.832,15.865,53.145,53.145,0,0,1-16.59,9.364,69.534,69.534,0,0,1-21.273,3.695q-1.117.029-2.252.029c-15.887,0-34.2-4.244-54.48-12.63a144.666,144.666,0,0,1-24.793-12.947,88,88,0,0,1-17.369-14.88c-8.913-10.129-13.831-21.6-14.618-34.087-.646-10.254,1.5-21.193,6.365-32.512,4.627-10.753,11.688-21.8,20.987-32.836a231.022,231.022,0,0,1,32.523-31.225,318.973,318.973,0,0,1,41.022-27.661q6.175-3.519,12.481-6.782-2.942-3.35-6-6.622a285.938,285.938,0,0,0-134.065-80.258,279.058,279.058,0,0,1-32.006-10.618,153.6,153.6,0,0,1-23.71-11.931,87.365,87.365,0,0,1-16.424-13.1,57.99,57.99,0,0,1-10.129-14.112,51.33,51.33,0,0,1-3.679-9.656,55.282,55.282,0,0,1-1.7-9.949,76.244,76.244,0,0,1,1.392-20.566c2.67-13.925,8.4-28.48,13.95-42.555,2.755-6.993,5.6-14.224,8.026-21.256a150.855,150.855,0,0,0,5.758-20.788,72.492,72.492,0,0,0,1.278-19.945,51.856,51.856,0,0,0-1.722-9.546,48.138,48.138,0,0,0-3.661-9.215,55.5,55.5,0,0,0-10.55-13.931A87.99,87.99,0,0,0,2906.9,160.02a162.517,162.517,0,0,0-25.344-11.587,306.021,306.021,0,0,0-34.452-10.119q-10.729-2.539-20.525-4.271a175.254,175.254,0,0,1,3.561,17.373,182.1,182.1,0,0,1,2.021,23.627,198.558,198.558,0,0,1-1.151,25.488c-1.368,12.558-4.31,22.548-8.745,29.692-4.062,6.543-9.353,10.7-15.726,12.346a29.359,29.359,0,0,1-14.461-.219,53.329,53.329,0,0,1-15.163-6.663c-9.915-6.153-19.648-15.592-27.409-26.579a99.866,99.866,0,0,1-9.128-15.7,73.7,73.7,0,0,1-5.434-16.23,46.969,46.969,0,0,1-.687-15.608,32.224,32.224,0,0,1,5.148-13.8,34.683,34.683,0,0,1,12.822-11.144c5.833-3.078,13.061-5.207,21.483-6.327,13.866-1.844,31.128-1.005,51.5,2.489a172.623,172.623,0,0,0-7.828-22.744c-9.5-22.4-23.866-43.311-42.708-62.159a244.471,244.471,0,0,0-24.143-21.111,257.487,257.487,0,0,0-21.464-14.782A190.426,190.426,0,0,0,2707.8.459l.4-.917a191.286,191.286,0,0,1,21.359,11.584,258.448,258.448,0,0,1,21.547,14.834,245.5,245.5,0,0,1,24.247,21.2c18.94,18.94,33.387,39.962,42.938,62.481a175.091,175.091,0,0,1,7.083,19.987q.479,1.67.927,3.356,10.026,1.757,21.034,4.362a307.056,307.056,0,0,1,34.565,10.153,163.5,163.5,0,0,1,25.5,11.661,88.98,88.98,0,0,1,17.566,13.006,56.488,56.488,0,0,1,10.738,14.184,49.127,49.127,0,0,1,3.737,9.407,52.862,52.862,0,0,1,1.756,9.731,73.465,73.465,0,0,1-1.292,20.218c-2.611,13.732-8.317,28.216-13.835,42.224-5.529,14.033-11.246,28.544-13.9,42.377a75.274,75.274,0,0,0-1.377,20.3,54.3,54.3,0,0,0,1.669,9.769,50.313,50.313,0,0,0,3.607,9.467c10.584,21.089,37.288,37.2,81.637,49.242a290.172,290.172,0,0,1,76.11,32.834,283.787,283.787,0,0,1,58.423,47.706q3.149,3.363,6.189,6.834A344.872,344.872,0,0,1,3181.171,468a287.666,287.666,0,0,1,58.775-14.325c20.168-2.59,39.074-2.427,56.193.486,18.407,3.132,34.682,9.447,48.373,18.768a159.811,159.811,0,0,1,17.76,13.922,118.954,118.954,0,0,1,13.319,14.242,99,99,0,0,1,9.5,14.513,95.418,95.418,0,0,1,6.316,14.726,106.575,106.575,0,0,1,3.763,14.88,142.456,142.456,0,0,1,1.848,14.978c.736,10,.623,20.192.513,30.049-.157,14.1-.319,28.676,2.026,42.749a100.983,100.983,0,0,0,5.7,20.881,90.43,90.43,0,0,0,11.314,20.394,104.448,104.448,0,0,0,8.355,9.982,125.23,125.23,0,0,0,10.472,9.818,180.76,180.76,0,0,0,28.249,19.075,318.107,318.107,0,0,0,39.565,18.2c15.55,6.007,33.3,11.786,52.765,17.175ZM3138.195,487.7q-6.4,3.3-12.667,6.873a317.946,317.946,0,0,0-40.893,27.574,230.031,230.031,0,0,0-32.383,31.088c-18.986,22.531-28.364,44.883-27.119,64.641.773,12.263,5.608,23.531,14.371,33.489,9.436,10.724,23.5,20,41.794,27.564,40.829,16.884,73.185,16.78,93.57-.3,19.954-16.718,26.524-48.511,18.025-87.227a196.221,196.221,0,0,0-8.3-27.553,234.342,234.342,0,0,0-13.041-28.3A266.047,266.047,0,0,0,3138.195,487.7ZM2789.236,130.347a117.1,117.1,0,0,0-15.393.944c-16.11,2.143-27.418,7.875-33.608,17.039a31.23,31.23,0,0,0-4.986,13.374,45.974,45.974,0,0,0,.677,15.275,72.714,72.714,0,0,0,5.362,16.009,98.876,98.876,0,0,0,9.036,15.542c7.685,10.88,17.316,20.223,27.12,26.306,10.586,6.569,20.56,8.908,28.845,6.764,6.116-1.583,11.2-5.588,15.127-11.9,4.356-7.016,7.25-16.865,8.6-29.273a183.483,183.483,0,0,0-4.528-66.57A215.042,215.042,0,0,0,2789.236,130.347Z" transform="translate(-2138.238 0.5)" fill="#035afb" opacity="0.5"/><g transform="translate(155 679.541)"><path d="M0,133a1,1,0,0,1-1-1V120a1,1,0,0,1,1-1,1,1,0,0,1,1,1v12A1,1,0,0,1,0,133Zm0-30a1,1,0,0,1-1-1V90a1,1,0,0,1,1-1,1,1,0,0,1,1,1v12A1,1,0,0,1,0,103ZM0,73a1,1,0,0,1-1-1V60a1,1,0,0,1,1-1,1,1,0,0,1,1,1V72A1,1,0,0,1,0,73ZM0,43a1,1,0,0,1-1-1V30a1,1,0,0,1,1-1,1,1,0,0,1,1,1V42A1,1,0,0,1,0,43ZM0,13a1,1,0,0,1-1-1V0A1,1,0,0,1,0-1,1,1,0,0,1,1,0V12A1,1,0,0,1,0,13Z" transform="translate(0)" fill="#ff7b6b" opacity="0.58"/><path d="M0,133a1,1,0,0,1-1-1V120a1,1,0,0,1,1-1,1,1,0,0,1,1,1v12A1,1,0,0,1,0,133Zm0-30a1,1,0,0,1-1-1V90a1,1,0,0,1,1-1,1,1,0,0,1,1,1v12A1,1,0,0,1,0,103ZM0,73a1,1,0,0,1-1-1V60a1,1,0,0,1,1-1,1,1,0,0,1,1,1V72A1,1,0,0,1,0,73ZM0,43a1,1,0,0,1-1-1V30a1,1,0,0,1,1-1,1,1,0,0,1,1,1V42A1,1,0,0,1,0,43ZM0,13a1,1,0,0,1-1-1V0A1,1,0,0,1,0-1,1,1,0,0,1,1,0V12A1,1,0,0,1,0,13Z" transform="translate(15.314)" fill="#ff7b6b" opacity="0.58"/><path d="M0,133a1,1,0,0,1-1-1V120a1,1,0,0,1,1-1,1,1,0,0,1,1,1v12A1,1,0,0,1,0,133Zm0-30a1,1,0,0,1-1-1V90a1,1,0,0,1,1-1,1,1,0,0,1,1,1v12A1,1,0,0,1,0,103ZM0,73a1,1,0,0,1-1-1V60a1,1,0,0,1,1-1,1,1,0,0,1,1,1V72A1,1,0,0,1,0,73ZM0,43a1,1,0,0,1-1-1V30a1,1,0,0,1,1-1,1,1,0,0,1,1,1V42A1,1,0,0,1,0,43ZM0,13a1,1,0,0,1-1-1V0A1,1,0,0,1,0-1,1,1,0,0,1,1,0V12A1,1,0,0,1,0,13Z" transform="translate(30.628)" fill="#ff7b6b" opacity="0.58"/><path d="M0,133a1,1,0,0,1-1-1V120a1,1,0,0,1,1-1,1,1,0,0,1,1,1v12A1,1,0,0,1,0,133Zm0-30a1,1,0,0,1-1-1V90a1,1,0,0,1,1-1,1,1,0,0,1,1,1v12A1,1,0,0,1,0,103ZM0,73a1,1,0,0,1-1-1V60a1,1,0,0,1,1-1,1,1,0,0,1,1,1V72A1,1,0,0,1,0,73ZM0,43a1,1,0,0,1-1-1V30a1,1,0,0,1,1-1,1,1,0,0,1,1,1V42A1,1,0,0,1,0,43ZM0,13a1,1,0,0,1-1-1V0A1,1,0,0,1,0-1,1,1,0,0,1,1,0V12A1,1,0,0,1,0,13Z" transform="translate(45.942)" fill="#ff7b6b" opacity="0.58"/><path d="M0,133a1,1,0,0,1-1-1V120a1,1,0,0,1,1-1,1,1,0,0,1,1,1v12A1,1,0,0,1,0,133Zm0-30a1,1,0,0,1-1-1V90a1,1,0,0,1,1-1,1,1,0,0,1,1,1v12A1,1,0,0,1,0,103ZM0,73a1,1,0,0,1-1-1V60a1,1,0,0,1,1-1,1,1,0,0,1,1,1V72A1,1,0,0,1,0,73ZM0,43a1,1,0,0,1-1-1V30a1,1,0,0,1,1-1,1,1,0,0,1,1,1V42A1,1,0,0,1,0,43ZM0,13a1,1,0,0,1-1-1V0A1,1,0,0,1,0-1,1,1,0,0,1,1,0V12A1,1,0,0,1,0,13Z" transform="translate(61.256)" fill="#ff7b6b" opacity="0.58"/><path d="M0,133a1,1,0,0,1-1-1V120a1,1,0,0,1,1-1,1,1,0,0,1,1,1v12A1,1,0,0,1,0,133Zm0-30a1,1,0,0,1-1-1V90a1,1,0,0,1,1-1,1,1,0,0,1,1,1v12A1,1,0,0,1,0,103ZM0,73a1,1,0,0,1-1-1V60a1,1,0,0,1,1-1,1,1,0,0,1,1,1V72A1,1,0,0,1,0,73ZM0,43a1,1,0,0,1-1-1V30a1,1,0,0,1,1-1,1,1,0,0,1,1,1V42A1,1,0,0,1,0,43ZM0,13a1,1,0,0,1-1-1V0A1,1,0,0,1,0-1,1,1,0,0,1,1,0V12A1,1,0,0,1,0,13Z" transform="translate(76.57)" fill="#ff7b6b" opacity="0.58"/></g></g></svg>