<svg xmlns="http://www.w3.org/2000/svg" xmlns:xlink="http://www.w3.org/1999/xlink" width="71.651" height="71.651" viewBox="0 0 71.651 71.651">
  <defs>
    <filter id="Rectangle_117" x="0" y="0" width="71.651" height="71.651" filterUnits="userSpaceOnUse">
      <feOffset dy="3" input="SourceAlpha"/>
      <feGaussianBlur stdDeviation="3" result="blur"/>
      <feFlood flood-opacity="0.161"/>
      <feComposite operator="in" in2="blur"/>
      <feComposite in="SourceGraphic"/>
    </filter>
  </defs>
  <g id="Group_1121" data-name="Group 1121" transform="translate(9 6)">
    <g transform="matrix(1, 0, 0, 1, -9, -6)" filter="url(#Rectangle_117)">
      <rect id="Rectangle_117-2" data-name="Rectangle 117" width="53.651" height="53.651" rx="8" transform="translate(9 6)" fill="#ff7b6b"/>
    </g>
    <g id="handshake" transform="translate(10.793 14.359)">
      <g id="Group_804" data-name="Group 804" transform="translate(0 0)">
        <g id="Group_803" data-name="Group 803" transform="translate(0 0)">
          <path id="Path_1207" data-name="Path 1207" d="M32.626,72.939l-6.357-6.357a.523.523,0,0,0-.74,0L22.35,69.76a.524.524,0,0,0,0,.74l.317.317-.729.729a1.637,1.637,0,0,1-1.826.321,4.521,4.521,0,0,0-4.032.15,3.529,3.529,0,0,0-2.049.109,1.63,1.63,0,0,1-1.729-.363l-1.308-1.308.156-.156a.524.524,0,0,0,0-.74L7.971,66.38a.523.523,0,0,0-.74,0L.154,73.456a.524.524,0,0,0,0,.74l3.179,3.179a.524.524,0,0,0,.74,0l.19-.19.923.923a1.6,1.6,0,0,1,.446.841,8.221,8.221,0,0,0,2.277,4.323l.174.174a1.883,1.883,0,0,0,1.367,3.179l.094,0A1.883,1.883,0,0,0,11.424,88.6h.042a1.883,1.883,0,0,0,3.215,1.373c.03-.03.058-.061.086-.092a1.761,1.761,0,0,0,2.222-1.027l.054.054a1.761,1.761,0,0,0,2.895-.632,1.76,1.76,0,0,0,2.795-1.424,1.776,1.776,0,0,0-.049-.416,1.76,1.76,0,0,0,1.081-2.743l.42-.42A8.218,8.218,0,0,0,26.471,78.9a1.414,1.414,0,0,1,.4-.75l1.562-1.562.275.275a.524.524,0,0,0,.74,0l3.179-3.179a.523.523,0,0,0,0-.74ZM3.7,76.265,1.264,73.827,7.6,67.491l2.438,2.438Zm6.339,9.07a.837.837,0,1,1,0-1.184A.838.838,0,0,1,10.041,85.335Zm1.975,1.975a.837.837,0,1,1,0-1.184A.831.831,0,0,1,12.016,87.31Zm1.924,1.924a.837.837,0,1,1,0-1.184A.832.832,0,0,1,13.941,89.234Zm8.892-4.019a.712.712,0,0,1-1.008,0l-5.079-5.078a.524.524,0,0,0-.74.74l5.471,5.47a.713.713,0,1,1-1.009,1.009l-.923-.923-.015-.016,0,0L15.282,82.17a.524.524,0,1,0-.74.74L18.8,87.167a.713.713,0,0,1-1.015,1l-4.615-4.615a.524.524,0,0,0-.74.74l3.421,3.421,0,0a.713.713,0,0,1-.5,1.217.725.725,0,0,1-.135-.013,1.883,1.883,0,0,0-1.863-2.163h-.042a1.882,1.882,0,0,0-1.882-1.925l-.094,0a1.882,1.882,0,0,0-2.306-1.928l-.375-.375a7.178,7.178,0,0,1-1.988-3.775,2.644,2.644,0,0,0-.735-1.389L5,76.445l5.25-5.25L11.562,72.5a2.669,2.669,0,0,0,1.889.772,2.745,2.745,0,0,0,.938-.165,2.463,2.463,0,0,1,.457-.117L11.6,76.235A2.1,2.1,0,0,0,14.574,79.2L16.2,77.576l.441.441h0l.018.018.018.018h0l.015.014,6.138,6.138a.713.713,0,0,1,0,1.008Zm3.3-7.81a2.455,2.455,0,0,0-.69,1.3,7.176,7.176,0,0,1-2,3.822l-.4.4-3.312-3.312c.072.005.144.009.217.009a2.671,2.671,0,0,0,1.02-.2.523.523,0,0,0-.4-.969c-1.347.551-2.963-.968-3.143-1.143l-.009-.009-.019-.019h0l-.016-.016h0l-.441-.441.5-.5a.524.524,0,1,0-.74-.74l-.869.869h0l-2,2a1.053,1.053,0,1,1-1.489-1.489l3.448-3.448a3.472,3.472,0,0,1,3.887-.707,2.689,2.689,0,0,0,3-.534l.729-.729,4.285,4.285Zm2.947-1.658L23.46,70.131,25.9,67.692l5.617,5.617Z" transform="translate(0 -66.227)" fill="#fff"/>
        </g>
      </g>
      <g id="Group_806" data-name="Group 806" transform="translate(29.081 6.96)">
        <g id="Group_805" data-name="Group 805">
          <circle id="Ellipse_30" data-name="Ellipse 30" cx="0.524" cy="0.524" r="0.524" fill="#fff"/>
        </g>
      </g>
      <g id="Group_808" data-name="Group 808" transform="translate(2.906 7.477)">
        <g id="Group_807" data-name="Group 807" transform="translate(0 0)">
          <circle id="Ellipse_31" data-name="Ellipse 31" cx="0.524" cy="0.524" r="0.524" fill="#fff"/>
        </g>
      </g>
    </g>
  </g>
</svg>
