<svg xmlns="http://www.w3.org/2000/svg" xmlns:xlink="http://www.w3.org/1999/xlink" viewBox="0 0 512 512"><defs><style>.cls-1{fill:#91b3fa;}.cls-2{fill:#bdd0fb;}.cls-3{fill:#cde0fb;}.cls-4{fill:#bed7fb;}.cls-5{fill:#dfebfd;}.cls-6{fill:#dfedfb;}.cls-7{fill:#d6e8fc;}.cls-8{fill:#243c55;}.cls-9{fill:#ffb27d;}.cls-10{fill:#0396fb;}.cls-11{fill:#233862;}.cls-12{fill:#e8945b;}.cls-13{fill:#163560;}.cls-14{fill:#f2ccaa;}.cls-15{fill:#364858;}.cls-16{fill:#0a2033;}.cls-17{fill:#fff;}.cls-18{fill:#f1f2f2;}.cls-19{fill:#bcbec0;}.cls-20{fill:#58595b;}.cls-21{fill:#035afb;}.cls-22{fill:#c8dbf4;}.cls-23{fill:#0378fb;}.cls-24{fill:#033cfb;}.cls-25{fill:#d4e4f8;}.cls-26{fill:#03d0fb;}.cls-27{fill:#9fc1f4;}.cls-28{fill:url(#radial-gradient);}.cls-29{fill:#efa78b;}.cls-30{fill:url(#New_Gradient_Swatch);}.cls-31{fill:url(#New_Gradient_Swatch-2);}.cls-32{fill:url(#linear-gradient);}.cls-33{fill:#3030ef;}.cls-34{fill:url(#radial-gradient-2);}.cls-35{fill:url(#radial-gradient-3);}.cls-36{fill:url(#linear-gradient-2);}.cls-37{fill:#1a1d3e;}.cls-38{fill:#6d6e71;}.cls-39{fill:#414042;}.cls-40{fill:url(#linear-gradient-3);}.cls-41{fill:url(#New_Gradient_Swatch-3);}.cls-42{fill:url(#linear-gradient-4);}.cls-43{fill:url(#New_Gradient_Swatch-4);}.cls-44{fill:url(#linear-gradient-5);}.cls-45{fill:url(#New_Gradient_Swatch-5);}.cls-46{fill:url(#New_Gradient_Swatch-6);}.cls-47{fill:url(#New_Gradient_Swatch-7);}.cls-48{fill:url(#New_Gradient_Swatch-8);}.cls-49{fill:url(#New_Gradient_Swatch-9);}.cls-50{fill:#808285;}.cls-51{fill:#a7a9ac;}.cls-52{fill:#7d97f4;}.cls-53{fill:#031efb;opacity:0.35;}</style><radialGradient id="radial-gradient" cx="935.25" cy="223.89" r="23.1" gradientTransform="matrix(-1, 0, 0, 1, 1383.5, 0)" gradientUnits="userSpaceOnUse"><stop offset="0" stop-color="#ffc8af"/><stop offset="1" stop-color="#ffbb9c"/></radialGradient><radialGradient id="New_Gradient_Swatch" cx="374.1" cy="394.08" r="5.9" gradientTransform="matrix(1, 0, 0, 1, 0, 0)" xlink:href="#radial-gradient"/><radialGradient id="New_Gradient_Swatch-2" cx="416.06" cy="395.04" r="5.32" gradientTransform="matrix(1, 0, 0, 1, 0, 0)" xlink:href="#radial-gradient"/><linearGradient id="linear-gradient" x1="915" y1="264.47" x2="942.43" y2="264.47" gradientTransform="matrix(-1, 0, 0, 1, 1383.5, 0)" gradientUnits="userSpaceOnUse"><stop offset="0" stop-color="#606bf1"/><stop offset="1" stop-color="#433aff"/></linearGradient><radialGradient id="radial-gradient-2" cx="958.66" cy="284.43" r="29.24" xlink:href="#radial-gradient"/><radialGradient id="radial-gradient-3" cx="935.25" cy="223.89" r="23.09" xlink:href="#radial-gradient"/><linearGradient id="linear-gradient-2" x1="941.17" y1="199.73" x2="941.17" y2="224.65" gradientTransform="matrix(-1, 0, 0, 1, 1383.5, 0)" gradientUnits="userSpaceOnUse"><stop offset="0" stop-color="#56549e"/><stop offset="0.99" stop-color="#2e2c71"/></linearGradient><linearGradient id="linear-gradient-3" x1="-12865.36" y1="445.51" x2="-12864.94" y2="489.61" gradientTransform="translate(13027.82)" gradientUnits="userSpaceOnUse"><stop offset="0" stop-color="#09005d"/><stop offset="1" stop-color="#1a0f91"/></linearGradient><radialGradient id="New_Gradient_Swatch-3" cx="-12876.89" cy="389.46" r="4.76" gradientTransform="translate(13027.82)" xlink:href="#radial-gradient"/><linearGradient id="linear-gradient-4" x1="-12924.93" y1="446.07" x2="-12924.52" y2="490.17" xlink:href="#linear-gradient-3"/><radialGradient id="New_Gradient_Swatch-4" cx="-12927.25" cy="396.68" r="4.24" gradientTransform="translate(13027.82)" xlink:href="#radial-gradient"/><linearGradient id="linear-gradient-5" x1="-12927.34" y1="325.63" x2="-12924.84" y2="320.64" gradientTransform="translate(13027.82)" gradientUnits="userSpaceOnUse"><stop offset="0" stop-color="#4f52ff"/><stop offset="1" stop-color="#4042e2"/></linearGradient><radialGradient id="New_Gradient_Swatch-5" cx="-12893.52" cy="287.91" r="16.1" gradientTransform="translate(13027.82)" xlink:href="#radial-gradient"/><radialGradient id="New_Gradient_Swatch-6" cx="-12851.17" cy="248.74" r="27.78" gradientTransform="translate(13027.82)" xlink:href="#radial-gradient"/><radialGradient id="New_Gradient_Swatch-7" cx="-12889.9" cy="202.34" r="10.7" gradientTransform="translate(13027.82)" xlink:href="#radial-gradient"/><radialGradient id="New_Gradient_Swatch-8" cx="-12876.55" cy="190.3" r="11.27" gradientTransform="translate(13027.82)" xlink:href="#radial-gradient"/><radialGradient id="New_Gradient_Swatch-9" cx="-12889.16" cy="188.27" r="3.86" gradientTransform="translate(13027.82)" xlink:href="#radial-gradient"/></defs><g id="OBJECTS"><path class="cls-1" d="M199.61,143.31a.52.52,0,0,1-.3-.46c0-.67,0-1.35,0-2a.5.5,0,0,1,.53-.47c.68,0,.45.7.46,2.51a.49.49,0,0,1-.51.49A.46.46,0,0,1,199.61,143.31Z"/><path class="cls-1" d="M200,134.56c.21-1.26.48-2.54.8-3.78a.5.5,0,0,1,.61-.36c.75.2.23.59-.41,4.33a.49.49,0,0,1-.58.4A.52.52,0,0,1,200,134.56Zm2.73-9.76c.47-1.2,1-2.4,1.55-3.53a.51.51,0,0,1,.92.44c-.55,1.13-1.06,2.29-1.53,3.47a.49.49,0,0,1-.65.27A.49.49,0,0,1,202.72,124.8Zm4.67-9c.71-1.07,1.47-2.13,2.26-3.14a.51.51,0,0,1,.81.62c-.77,1-1.52,2-2.21,3.07A.51.51,0,0,1,207.39,115.82Zm6.47-7.12a.5.5,0,0,1,0-.71c.92-.9,1.89-1.77,2.88-2.6a.51.51,0,0,1,.67.77c-1,.81-1.92,1.67-2.82,2.55A.52.52,0,0,1,213.86,108.7Zm7.82-6.34a.49.49,0,0,1,.15-.69c1.09-.7,2.22-1.36,3.36-2a.51.51,0,0,1,.49.89c-1.12.59-2.22,1.24-3.29,1.92A.52.52,0,0,1,221.68,102.36ZM230.94,98a.55.55,0,0,1-.26-.28.48.48,0,0,1,.28-.64c1.21-.46,2.46-.88,3.71-1.25a.53.53,0,0,1,.64.34.49.49,0,0,1-.34.62c-1.22.36-2.44.77-3.63,1.22A.55.55,0,0,1,230.94,98Zm9.82-2.62a.5.5,0,0,1-.29-.37.49.49,0,0,1,.41-.58c1.28-.2,2.59-.36,3.89-.47a.52.52,0,0,1,.56.46.49.49,0,0,1-.45.54c-1.28.1-2.56.26-3.82.46A.5.5,0,0,1,240.76,95.39Zm9.89-1.06a.49.49,0,0,1,.52-.48c1.3.06,2.63.17,3.93.33a.5.5,0,1,1-.11,1c-1.28-.15-2.57-.26-3.85-.32A.5.5,0,0,1,250.65,94.33Zm31.75,13.14c-2.87-2.54-3.56-2.55-3.1-3.15a.52.52,0,0,1,.71-.09c1.05.79,2.08,1.63,3.06,2.5A.5.5,0,1,1,282.4,107.47ZM260.79,95.71a.5.5,0,0,1,.61-.36c1.27.32,2.55.7,3.79,1.11a.5.5,0,1,1-.31,1c-1.22-.41-2.47-.77-3.71-1.09A.5.5,0,0,1,260.79,95.71Zm13.36,5.85c-3.32-1.9-4-1.78-3.68-2.47a.54.54,0,0,1,.68-.23c1.19.57,2.37,1.19,3.5,1.84a.5.5,0,0,1,.2.68A.51.51,0,0,1,274.15,101.56Z"/><path class="cls-1" d="M288.16,113.47c-1.08-1.33-1.77-1.8-1.26-2.24a.52.52,0,0,1,.72,0c1.17,1.33,1.77,1.87,1.25,2.27A.57.57,0,0,1,288.16,113.47Z"/><path class="cls-1" d="M299.16,150.8a.5.5,0,0,1-.29-.52c.08-.66.15-1.32.2-2a.49.49,0,0,1,.55-.45.51.51,0,0,1,.46.55c-.05.66-.12,1.34-.2,2a.5.5,0,0,1-.57.42A.42.42,0,0,1,299.16,150.8Z"/><path class="cls-1" d="M227.73,187.86c-1.27-.62-2.52-1.31-3.74-2a.49.49,0,0,1-.17-.69c.4-.66.64,0,4.35,1.84a.5.5,0,0,1,.24.67A.52.52,0,0,1,227.73,187.86Zm6.06,2c.25-.73.65-.13,4.64.87a.51.51,0,0,1,.38.61.5.5,0,0,1-.61.36c-1.37-.34-2.74-.74-4.08-1.2A.52.52,0,0,1,233.79,189.87Zm-15.47-8c-1.1-.88-2.17-1.82-3.2-2.79a.5.5,0,0,1,0-.71c.55-.56.63.14,3.86,2.73a.5.5,0,0,1,.08.7A.51.51,0,0,1,218.32,181.87Zm26.51,11a.5.5,0,0,1,.26-.95c1.37.16,2.77.25,4.14.29a.52.52,0,0,1,.51.52.5.5,0,0,1-.52.48c-1.4,0-2.83-.13-4.23-.29A.43.43,0,0,1,244.83,192.89Zm11,0a.54.54,0,0,1-.3-.4A.51.51,0,0,1,256,192c1.37-.14,2.75-.35,4.1-.61a.52.52,0,0,1,.6.4.48.48,0,0,1-.39.58c-1.38.27-2.78.48-4.18.63A.61.61,0,0,1,255.82,192.92Zm10.69-2.36a.51.51,0,0,1-.27-.29.49.49,0,0,1,.3-.64c1.3-.43,2.6-.93,3.85-1.48a.51.51,0,0,1,.67.26.49.49,0,0,1-.25.66c-1.28.55-2.6,1.06-3.92,1.51A.5.5,0,0,1,266.51,190.56Zm9.87-4.6a.57.57,0,0,1-.22-.19.49.49,0,0,1,.16-.69c1.16-.71,2.31-1.48,3.41-2.28a.51.51,0,0,1,.71.11.49.49,0,0,1-.1.7c-1.12.82-2.29,1.6-3.48,2.32A.51.51,0,0,1,276.38,186Zm8.43-6.74c-.56-.56.15-.61,2.81-3.68a.51.51,0,0,1,.78.66c-.91,1.05-1.87,2.07-2.87,3A.52.52,0,0,1,284.81,179.22Zm6.95-8.29c-.67-.42,0-.63,1.9-4.21a.51.51,0,0,1,.91.48c-.65,1.22-1.36,2.43-2.11,3.59A.51.51,0,0,1,291.76,170.93Zm4.86-9.63a.5.5,0,0,1-.27-.63c.47-1.28.88-2.59,1.23-3.89a.51.51,0,0,1,.63-.34.51.51,0,0,1,.36.62c-.36,1.33-.78,2.66-1.26,4a.51.51,0,0,1-.65.3Z"/><path class="cls-1" d="M210.43,174c-1.11-1.38-1.67-1.94-1.14-2.32s.8.29,1.94,1.71a.49.49,0,0,1-.08.7A.52.52,0,0,1,210.43,174Z"/><path class="cls-2" d="M313,118.87a5.1,5.1,0,1,1,4.76,5.42h0A5.1,5.1,0,0,1,313,118.87Zm4.8,4.66h0ZM314.49,119a3.59,3.59,0,0,0,3.34,3.8h0a3.58,3.58,0,1,0-3.34-3.8Z"/><path class="cls-1" d="M292.48,126.83c-.19-.66-.36-1.33-.51-2a.51.51,0,0,1,.39-.6c.69-.15.59.62,1.09,2.31a.51.51,0,0,1-1,.29Z"/><path class="cls-1" d="M291.4,118.08a27.48,27.48,0,0,1,.5-4.14.51.51,0,0,1,1,.2c-.72,3.63-.16,4.51-1,4.47A.51.51,0,0,1,291.4,118.08Zm2.89-9.88a.5.5,0,0,1-.23-.67,27.56,27.56,0,0,1,2.11-3.6.51.51,0,0,1,.83.58,26.1,26.1,0,0,0-2,3.46A.51.51,0,0,1,294.29,108.2Zm6.54-8.44a.52.52,0,0,1-.17-.13.51.51,0,0,1,.06-.71,27.16,27.16,0,0,1,3.37-2.46.5.5,0,0,1,.69.17.49.49,0,0,1-.16.69,25.15,25.15,0,0,0-3.24,2.37A.53.53,0,0,1,300.83,99.76Zm9.36-5.14a.49.49,0,0,1-.27-.31.5.5,0,0,1,.33-.64,27.14,27.14,0,0,1,4.07-.9.5.5,0,1,1,.14,1,26,26,0,0,0-3.91.87A.49.49,0,0,1,310.19,94.62Zm10.34-1.49a.51.51,0,0,1,.56-.45,27.22,27.22,0,0,1,4.1.79.51.51,0,0,1-.27,1,25.15,25.15,0,0,0-3.94-.76A.51.51,0,0,1,320.53,93.13Z"/><path class="cls-1" d="M332.62,98c-1.53-1.05-2.2-1.16-1.86-1.75a.5.5,0,0,1,.69-.19c.59.34,1.18.72,1.74,1.11a.5.5,0,1,1-.57.83Z"/><path class="cls-1" d="M343.54,115.93c-.24-1.85-.6-2.42.07-2.56a.49.49,0,0,1,.59.39c.14.67.26,1.35.34,2a.5.5,0,0,1-.43.56A.51.51,0,0,1,343.54,115.93Z"/><path class="cls-1" d="M309.34,143.9c.26-.8.86,0,4.47.62a.51.51,0,0,1-.17,1,26.89,26.89,0,0,1-4-1A.51.51,0,0,1,309.34,143.9Zm10.4,1.44a.51.51,0,0,1,.47-.55c3.67-.3,4.3-1.07,4.5-.25a.5.5,0,0,1-.37.61,26.48,26.48,0,0,1-4,.65A.51.51,0,0,1,319.74,145.34Zm10.14-2.76c-.4-.75.6-.6,3.54-2.8a.51.51,0,0,1,.61.81,27.41,27.41,0,0,1-3.47,2.2A.5.5,0,0,1,329.88,142.58Zm8.23-6.52c-.66-.53.32-.79,2.17-4a.5.5,0,0,1,.87.51,25.91,25.91,0,0,1-2.33,3.37A.51.51,0,0,1,338.11,136.06Zm4.67-9.86c1-3.55.5-4.41,1.34-4.31a.5.5,0,0,1,.44.56,27.39,27.39,0,0,1-.81,4,.5.5,0,0,1-.62.35A.51.51,0,0,1,342.78,126.2Z"/><path class="cls-1" d="M303.63,141.65c-.58-.37-1.14-.77-1.69-1.18a.51.51,0,0,1-.1-.71c.43-.56.85.08,2.34,1a.51.51,0,0,1,.15.7A.5.5,0,0,1,303.63,141.65Z"/><path class="cls-2" d="M311.89,130a.76.76,0,1,1,.73-1.33,11.16,11.16,0,0,0,2.15.95,11,11,0,1,0-6.63-15.11c-2.32,5,.3,7.64-1.3,8a.75.75,0,0,1-.91-.56,12.55,12.55,0,1,1,8.37,9.11h0A12.37,12.37,0,0,1,311.89,130Z"/><path class="cls-3" d="M354.12,145.81l-5.57,19.46a2.55,2.55,0,0,0-.09.86,2.49,2.49,0,0,0,1.81,2.23L384.06,178a2.5,2.5,0,0,0,2.73-.95,2.75,2.75,0,0,0,.37-.77l5.56-19.44a2.51,2.51,0,0,0-1.72-3.1l-33.78-9.67A2.52,2.52,0,0,0,354.12,145.81Z"/><path class="cls-4" d="M348.46,166.13a2.49,2.49,0,0,0,1.81,2.23L384.06,178a2.5,2.5,0,0,0,2.73-.95L369.58,161.4Z"/><path class="cls-5" d="M354.12,145.81l15.13,18.79,23.19-6.74.28-1a2.51,2.51,0,0,0-1.72-3.1l-33.78-9.67A2.52,2.52,0,0,0,354.12,145.81Z"/><path class="cls-6" d="M281.45,165.23l2.58-6,.06-.14a1.57,1.57,0,0,0-.67-2l-4.78-2.68-.22-.15a1.54,1.54,0,0,1-.51-1.62,27.43,27.43,0,0,0,.84-10.78,1.57,1.57,0,0,1,1-1.65l4.28-1.61a1.6,1.6,0,0,0,1-1.31,1.46,1.46,0,0,0,0-.55l-1.67-6.49a1.61,1.61,0,0,0-1.82-1.18l-6,1a1.55,1.55,0,0,1-1.53-.64c-.5-.71-1-1.39-1.6-2.06A27.53,27.53,0,0,0,268.9,124h0a1.55,1.55,0,0,1-.51-1.72l1.93-5.87.09-.3a1.54,1.54,0,0,0-.86-1.91l-6.17-2.63a1.6,1.6,0,0,0-2,.69l-3,5.32a1.56,1.56,0,0,1-1.66.77,27.28,27.28,0,0,0-8.46-.24,1.58,1.58,0,0,1-1.65-1L244.67,112a1.6,1.6,0,0,0-1.9-1l-6.52,1.68a1.51,1.51,0,0,0-1.12,1.73l1.18,7a1.6,1.6,0,0,1-.63,1.57c-.61.43-1.2.9-1.78,1.4a28,28,0,0,0-3,3,1.54,1.54,0,0,1-1.66.47l-7-2.33a1.58,1.58,0,0,0-1.94.87l-2.65,6.19a1.58,1.58,0,0,0,.49,1.85.83.83,0,0,0,.18.13l5.9,3.32a1.55,1.55,0,0,1,.8,1.53,1,1,0,0,1,0,.16,3.7,3.7,0,0,0-.09.48,27.7,27.7,0,0,0-.46,5.83,1.53,1.53,0,0,1-1,1.47l-5.35,2a1.61,1.61,0,0,0-1,1.9l.37,1.44,1.31,5a1.57,1.57,0,0,0,1.78,1.16l5.91-1a1.51,1.51,0,0,1,1.58.74,27.24,27.24,0,0,0,5.68,6.92l-.4,1.23L231.64,172a1.52,1.52,0,0,0,.52,1.69,1.17,1.17,0,0,0,.34.2l6.21,2.67a1.58,1.58,0,0,0,2-.68l2-3.63a1.57,1.57,0,0,1,1.76-.75,27.34,27.34,0,0,0,8.62.93,1.51,1.51,0,0,1,1.53,1l2.43,6.41a1.52,1.52,0,0,0,1.79.93l6.58-1.71a1.53,1.53,0,0,0,1.14-1.75l-1.24-7.34a1.54,1.54,0,0,1,.73-1.59,27.44,27.44,0,0,0,3.38-2.49c.59-.5,1.14-1,1.67-1.56a1.58,1.58,0,0,1,1.6-.39l6.77,2.23A1.6,1.6,0,0,0,281.45,165.23ZM263.87,136.9a14,14,0,0,1,1.74,13.41c-5.9,13.58-24.19,12.36-28.33-1.64a13.57,13.57,0,0,1,2-11.51A14.75,14.75,0,0,1,263.87,136.9Z"/><path class="cls-7" d="M228.34,265.46l5.92-10.15.14-.24a2.82,2.82,0,0,0-.76-3.66l-7.89-5.83a2.67,2.67,0,0,1-.36-.31,2.77,2.77,0,0,1-.54-3,48.64,48.64,0,0,0,3.88-19,3.18,3.18,0,0,1,.12-.77,2.85,2.85,0,0,1,2-1.93l8-1.91a2.85,2.85,0,0,0,2.07-2.11,3.18,3.18,0,0,0,.05-1l-1.53-11.9a2.87,2.87,0,0,0-3-2.49l-10.88.48a2.77,2.77,0,0,1-2.57-1.49c-.74-1.36-1.52-2.69-2.39-4a48.66,48.66,0,0,0-5.4-6.76h0a2.82,2.82,0,0,1-.52-3.18l4.73-10,.24-.5a2.76,2.76,0,0,0-1.1-3.57l-10.38-6.06a2.87,2.87,0,0,0-3.75.78l-6.5,8.77a2.79,2.79,0,0,1-3.12,1,48.69,48.69,0,0,0-15-2.31,2.8,2.8,0,0,1-2.71-2.16l-2.29-9.43a2.86,2.86,0,0,0-3.15-2.16l-11.95,1.53a2.74,2.74,0,0,0-2.38,2.83l.54,12.79a2.87,2.87,0,0,1-1.47,2.63c-1.18.64-2.33,1.34-3.47,2.1a49.12,49.12,0,0,0-6,4.64,2.73,2.73,0,0,1-3,.46l-12-5.7a2.81,2.81,0,0,0-3.62,1.12l-6.08,10.41a2.82,2.82,0,0,0,.44,3.39,2.51,2.51,0,0,0,.31.26l9.74,7.21a2.8,2.8,0,0,1,1.08,2.89,1.47,1.47,0,0,1-.08.28,8.16,8.16,0,0,0-.26.84,48.92,48.92,0,0,0-2.12,10.24,2.73,2.73,0,0,1-2.12,2.4l-10,2.41a2.86,2.86,0,0,0-2.15,3.15l.34,2.65,1.2,9.23a2.81,2.81,0,0,0,2.91,2.45l10.72-.46a2.71,2.71,0,0,1,2.63,1.67,49.14,49.14,0,0,0,8.55,13.55l-1,2.1-4.08,8.61a2.72,2.72,0,0,0,.54,3.11,2.23,2.23,0,0,0,.57.44L150,276a2.83,2.83,0,0,0,3.67-.76l4.42-6a2.79,2.79,0,0,1,3.29-.93,49.21,49.21,0,0,0,15.11,3.56,2.71,2.71,0,0,1,2.49,2.1l2.89,11.92a2.7,2.7,0,0,0,3,2l12.08-1.57a2.73,2.73,0,0,0,2.4-2.84l-.56-13.31a2.78,2.78,0,0,1,1.64-2.68,47.79,47.79,0,0,0,6.56-3.66c1.15-.77,2.26-1.56,3.32-2.4a2.8,2.8,0,0,1,2.93-.34l11.51,5.46A2.86,2.86,0,0,0,228.34,265.46Zm-24.93-54.2a30.5,30.5,0,0,1,3,9.83,18.94,18.94,0,0,1,.14,2.58,26.74,26.74,0,0,1-3,11.77c-13.49,22.81-45.7,16.59-49.94-9.19-.07-.42-.13-.85-.19-1.28a25.67,25.67,0,0,1,2.79-13.74,32.74,32.74,0,0,1,3.52-5A26.4,26.4,0,0,1,203.41,211.26Z"/><rect class="cls-7" x="138.59" y="163.54" width="2.81" height="10.35"/><path class="cls-7" d="M141.05,162.52h-2a.35.35,0,0,1-.35-.35h0a.35.35,0,0,1,.35-.35h2a.35.35,0,0,1,.35.35h0A.35.35,0,0,1,141.05,162.52Z"/><rect class="cls-7" x="133.74" y="155.42" width="2.81" height="18.47"/><path class="cls-7" d="M136.14,154.65h-2a.35.35,0,0,1-.35-.35h0a.35.35,0,0,1,.35-.35h2a.35.35,0,0,1,.35.35h0A.35.35,0,0,1,136.14,154.65Z"/><rect class="cls-7" x="129.09" y="142.56" width="2.81" height="31.33"/><path class="cls-7" d="M131.49,141.71h-2a.36.36,0,0,1-.35-.36h0a.35.35,0,0,1,.35-.35h2a.35.35,0,0,1,.35.35h0A.36.36,0,0,1,131.49,141.71Z"/><rect class="cls-7" x="124.33" y="148.25" width="2.81" height="25.64"/><path class="cls-7" d="M126.72,147.56h-2a.35.35,0,0,1-.35-.35h0a.35.35,0,0,1,.35-.35h2a.34.34,0,0,1,.35.35h0A.35.35,0,0,1,126.72,147.56Z"/><rect class="cls-7" x="119.68" y="134.01" width="2.81" height="39.88"/><path class="cls-7" d="M122.08,133.25h-2a.36.36,0,0,1-.36-.35h0a.36.36,0,0,1,.36-.35h2a.35.35,0,0,1,.35.35h0A.35.35,0,0,1,122.08,133.25Z"/><rect class="cls-7" x="115.16" y="140.24" width="2.81" height="33.65"/><path class="cls-7" d="M117.55,139.53h-2a.36.36,0,0,1-.35-.36h0a.35.35,0,0,1,.35-.35h2a.35.35,0,0,1,.35.35h0A.35.35,0,0,1,117.55,139.53Z"/><path class="cls-8" d="M308.74,173.68a9.91,9.91,0,0,0-7.83-.83c-13.31-1.57-17.19,14-17,19.29s.79,11.07-5.15,18c-17.16,20,18.78,20.92,18.78,20.92.3-16,19.49-10.17,18.65-8.54C340.77,228.42,318.62,178.81,308.74,173.68Z"/><path class="cls-9" d="M257.42,240.41s-2.34-3.56-4.22-3.63-5.38-1.05-5.1-.35,2.44.77,2.65,1.19-3.21,1-4.19,1.11-3.28,0-3.21.49,4.15,2.52,7,2.24a19.63,19.63,0,0,1,6.45.83Z"/><path class="cls-10" d="M291.25,241.56a35.05,35.05,0,0,1-3.57,5.41c-2.78,3.48-7.07,7.51-12.45,8.3a13.34,13.34,0,0,1-7.4-1.2h0c-6.53-2.9-11.45-9.58-11.45-9.58a5.37,5.37,0,0,1,.74-5.27s13.19,3,14.45,2.34,8.59-21.75,10.34-24.4,7.69-4,7.69-4Z"/><path class="cls-10" d="M287.68,247c-2.78,3.48-7.07,7.51-12.45,8.3a13.34,13.34,0,0,1-7.4-1.2c.26,0,6.79.84,9.39-3.81s5.52-12.3,9.47-9.78C288.39,241.56,288.31,244.26,287.68,247Z"/><path class="cls-11" d="M340.49,384s4,3.68,3.25,6.29-4.42,4.35-4.92,7.54-2.45,4.93-4.22,4.93h-8.43s-1.3-2.24,1.84-2.92,4.33-4.43,4.14-7.91a61,61,0,0,1,.29-8.12l6.68-1.55Z"/><path class="cls-11" d="M306.41,385.59s1.45,15.57-.32,16.44l-22.63,0s0-2.61,3.64-3.19,10-2.71,11.09-7.44S306.41,385.59,306.41,385.59Z"/><path class="cls-9" d="M322.53,273.89c-4.65-10.44-7.5-13.44-7-16.68.41-2.41-1.23-45-1.23-45-.55-.17-1.66-.32-2.27-.46a5.67,5.67,0,0,1-4.15-3.61,28.88,28.88,0,0,1-1.4-9.6l-.6.12-10,2s.23,3.16.24,6.13v.08a5.77,5.77,0,0,1-4.17,5.57l-2.37.68a92,92,0,0,0-4.38,21.32c-.71,10.8,6.69,15.49-.06,37.08C278.26,293.56,325.1,279.66,322.53,273.89Z"/><path class="cls-12" d="M295.89,200.66s.23,3.16.24,6.13c5.61-.15,8.57-5.27,9.79-8.11Z"/><path class="cls-9" d="M294,203.48s13.27.22,13.28-8,1.73-13.82-6.74-14.31-10.13,2.67-10.81,5.43S290.56,203.21,294,203.48Z"/><path class="cls-13" d="M294.51,180.92s3.63,9.71,9.21,11.14,8-.06,8-.06a15.81,15.81,0,0,1-5.17-9.33S297.25,176.3,294.51,180.92Z"/><path class="cls-13" d="M295.41,181.71a8.27,8.27,0,0,0-3.81,3,13.39,13.39,0,0,0-1.79,7.6s-2.74-6.6.34-10.33C293.41,178,295.41,181.71,295.41,181.71Z"/><path class="cls-10" d="M323.81,231.06a89.38,89.38,0,0,1,0,10.46c-.22,3.78-4.05,8.84-4.59,10.1-1.36,3.14-2.9,3.65-2.9,3.65l-11.88,2.91-4.17,1-13.18-3.94s-6-16.75-3.59-26.17a72.57,72.57,0,0,1,6.09-16s10.75,10.53,24.75-.89Z"/><path class="cls-14" d="M320.34,243.06c-.23,3.78-.58,7.3-1.12,8.56-1.36,3.14-2.9,3.65-2.9,3.65l-11.88,2.91-5.16-1.51s17.23-2.61,15.32-17.43Z"/><path class="cls-15" d="M287.93,257.81S281.41,278.12,281,285s12.47,98.21,13,101.4c.49,3,4.21,4.92,4.21,4.92a5.67,5.67,0,0,0,4.17.32c3.39-1,4.47-2.11,4.47-2.11s5.07-65.11,1.93-88.37a369.14,369.14,0,0,1-3.18-43.38Z"/><path class="cls-16" d="M315.57,257.21s9.95,13.35,10.88,22.38,1.45,40.72,3.43,49.52,9.24,25.74,9.24,53.18A5.51,5.51,0,0,1,336,384.7a24,24,0,0,1-2.71.75,4.27,4.27,0,0,1-4.77-2.26c-4.91-9.89-20.55-41.77-21.35-48.39-.57-4.68-5.51-35.68-16.28-53.86-2.58-4.37,1.59-21.73,1.59-21.73Z"/><path class="cls-11" d="M286.89,254.68s2.62,2.07,7.82,2.17c6.22.13,21.61-1.58,21.61-1.58a12.59,12.59,0,0,1,.66,3.93s-18.81,4.74-29.7.69A6.86,6.86,0,0,1,286.89,254.68Z"/><path class="cls-17" d="M293.22,262.21a3.23,3.23,0,1,1,2.84-3.21A3,3,0,0,1,293.22,262.21Zm0-5.48a2.31,2.31,0,1,0,1.9,2.27A2.11,2.11,0,0,0,293.22,256.73Z"/><rect class="cls-18" x="302.68" y="236.07" width="25.55" height="34.97" transform="translate(-88.96 269.48) rotate(-41.05)"/><path class="cls-9" d="M312,258.41s-7.06.83-7,2.5,1.76,5.12,2.63,5.28,5.75-4.66,5.75-4.66Z"/><path class="cls-10" d="M314.34,212.23s9.42.66,13,9.44,10.47,23.53,10.47,26-3.83,10.13-24.4,14.53c0,0-2.13-2.24-2-4,0,0,12.84-11,12.81-12.31-.07-2.44-2.11-5.66-13.38-16.93C307.82,225.89,314.34,212.23,314.34,212.23Z"/><path class="cls-19" d="M373.23,415.78h.11c.59,0,1.07-.7,1.05-1.55l-1.6-99.34-4.73-.79,4,100.14C372.13,415.1,372.63,415.78,373.23,415.78Z"/><path class="cls-19" d="M174.83,415.78h-.12a1.45,1.45,0,0,1-1.25-1.61L175.36,311l5.61-.82-4.78,104A1.53,1.53,0,0,1,174.83,415.78Z"/><rect class="cls-20" x="125" y="304.84" width="293.72" height="10.6" rx="4.98"/><path class="cls-21" d="M50.21,384.06s-4.59-5.36-.28-8.76c0,0,3.14-1.9,5.71-1.75,0,0-3.64,6.1-2.46,6.7s3.56-7.08,3.56-7.08,7.16-.69,9.46.41c0,0-6.12,5-4.83,5.31s7.9-4.62,7.9-4.62,6.66,1.14,6.31,5.2-2.66,5.32-3.66,5.21-6.92-2.36-7-1.53,3.42,3.53,5.91,3.65c0,0-4.7,5.18-7.82,3.69s-3.39-3.87-5.33-4.76-3.61-.88-2.81,0,4.33,1.79,5.44,3.76,2.11,3.29-1.12,2.81-8.48-2.85-8.71-5.56Z"/><path class="cls-22" d="M72.3,379.58s-18.09-.7-22.09,4.48a13.05,13.05,0,0,1-3.6,5.05l-.43,1.16s3.14-3.31,4.26-3.51C50.44,386.76,48.69,380.35,72.3,379.58Z"/><path class="cls-22" d="M46.61,389.11a11.38,11.38,0,0,0-4.16,8l.71.06s1.24-5.3,3.48-7.38S46.61,389.11,46.61,389.11Z"/><path class="cls-23" d="M34.17,377.32s7.3-4.08,3.89-9.63c0,0-2.73-3.41-5.65-4.28,0,0,1.56,8.27,0,8.46s-1.07-9.34-1.07-9.34-7.69-3.7-10.7-3.41c0,0,4.77,8.08,3.21,7.89s-6.91-8.37-6.91-8.37-7.89-1.46-9.15,3.21.78,7,2,7.3,8.66.19,8.46,1.17S13,372.85,10.12,372c0,0,3.12,7.69,7.21,7.3s5.35-2.92,7.88-3.11,4.38.48,3.12,1.16-5.55.23-7.6,2-3.69,2.8.1,3.58,10.61.29,12-2.63Z"/><path class="cls-22" d="M11.39,363.31s20.44,6.62,22.78,14a15.55,15.55,0,0,0,1.94,7.11v1.46s-2.14-5-3.31-5.65C32.8,380.24,37.38,373.82,11.39,363.31Z"/><path class="cls-22" d="M36.11,384.43A13.46,13.46,0,0,1,37.47,395l-.81-.21s.78-6.42-.86-9.65S36.11,384.43,36.11,384.43Z"/><path class="cls-24" d="M45.78,371.69S36.16,366.3,40.65,359c0,0,3.59-4.49,7.44-5.64,0,0-2.05,10.91,0,11.16s1.41-12.32,1.41-12.32,10.14-4.87,14.11-4.49c0,0-6.28,10.65-4.23,10.4s9.11-11,9.11-11,10.39-1.92,12.06,4.24-1,9.23-2.56,9.62-11.42.26-11.17,1.54,6.93,3.33,10.65,2.18c0,0-4.1,10.14-9.49,9.62s-7.06-3.85-10.4-4.1-5.77.64-4.1,1.54,7.31.29,10,2.58,4.87,3.7-.13,4.73-14,.39-15.78-3.46Z"/><path class="cls-25" d="M75.8,353.21s-26.94,8.73-30,18.48a20.39,20.39,0,0,1-2.57,9.36V383s2.83-6.55,4.37-7.44C47.58,375.54,41.55,367.07,75.8,353.21Z"/><path class="cls-25" d="M43.21,381.05a17.78,17.78,0,0,0-1.78,14l1.07-.28s-1-8.46,1.13-12.72S43.21,381.05,43.21,381.05Z"/><path class="cls-26" d="M45.46,411.7a18.85,18.85,0,0,0,18.85-18.85H26.61A18.85,18.85,0,0,0,45.46,411.7Z"/><path class="cls-25" d="M64.57,412.66H26.35a2.33,2.33,0,0,1,2.32-2.33H62.24a2.34,2.34,0,0,1,2.33,2.33Z"/><rect class="cls-27" x="25.99" y="392.85" width="38.75" height="0.58"/><path class="cls-8" d="M184.67,305.35h45a3.86,3.86,0,0,0,3.57-2.42l12.92-32.14a3.84,3.84,0,0,0-3.57-5.28H197.66a3.82,3.82,0,0,0-3.56,2.41l-13,32.14A3.85,3.85,0,0,0,184.67,305.35Z"/><path class="cls-8" d="M231.69,303.79H163.3a.78.78,0,0,0-.78.78h0a.78.78,0,0,0,.78.78h68.39a.77.77,0,0,0,.72-.49h0A.78.78,0,0,0,231.69,303.79Z"/><path class="cls-17" d="M218.78,285.43a1.85,1.85,0,0,0-1.81-2.54,3.66,3.66,0,0,0-3.27,2.54,1.84,1.84,0,0,0,1.81,2.53A3.65,3.65,0,0,0,218.78,285.43Z"/><path class="cls-28" d="M432.32,218a22.56,22.56,0,0,0,3.11,8c2.49,3.85,8.1,9.49,9.65,10,.62.2,2.85-.81,5.28-2.08l2.41-1.3c2.79-1.55,5.25-3,5.25-3l3.71-5.23a42.66,42.66,0,0,0-8.31-18.65c-4.11-5.39-13.31-2.15-16.65.43S431.59,212.71,432.32,218Z"/><path class="cls-29" d="M452.93,218.65c.11,3.38-2.12,4.66-2.57,5.24s2.56,3.7,3.9,2.29S452.93,218.65,452.93,218.65Z"/><polygon class="cls-30" points="369.03 389.15 367.37 397.12 378.31 399 380.83 389.88 369.03 389.15"/><path class="cls-8" d="M428.45,337.86c7.11.36,16.6.86,29,1.34,34.7,1.33,27.63-32.27,27.63-32.27l-33.16-.44s-49.3-.73-59.68,5.91S366.71,389,366.71,389l16.51,4.62s13.38-28.77,21.19-44.09c3.21-6.3,5.53-10.93,5.73-11.43C410.57,337,415.65,337.2,428.45,337.86Z"/><path class="cls-16" d="M450.87,306.48h1.05l33.16.44s4,18.84-8.62,27.75c-12.52-3-20-15.74-26.56-27.15Z"/><path class="cls-16" d="M404.41,349.53l2.75,41.52,3,.06v-1.72H422v2l3.27.07,3.21-53.62c-12.8-.66-17.88-.89-18.31.24C409.94,338.6,407.62,343.23,404.41,349.53Z"/><polygon class="cls-31" points="410.14 390.4 410.14 399.67 421.98 399.67 421.98 390.75 410.14 390.4"/><polygon class="cls-16" points="410.14 389.39 410.14 391.11 421.98 391.4 421.98 389.39 410.14 389.39"/><path class="cls-29" d="M390.91,297.21h19.57s29.51-4.76,35.25-8.29c2.13-1.31,5.8-5.33,9.58-9.87L442,268c-2.34,3.7-4.46,6.71-5.31,7-2.32.88-24.31,13.15-26.86,13.15S395.12,287.92,390.91,297.21Z"/><path class="cls-32" d="M441.07,267.67l14.24,11.38c6.44-7.73,13.19-17,13.19-17l-20.18-12.18S443.14,262.2,441.07,267.67Z"/><path class="cls-24" d="M453.25,239.72,467.84,234s17.4,2,18.6,43.94c.23,8.1.15,52.82-2.32,54-9.83,4.58-35.14-25.42-35.14-25.42-.5-.93.21-10.6,0-11.56a9.48,9.48,0,0,0,1.51-.69c2.59-1.52,7.42-7.93,12.16-14.85l-15-11.7-1.76,2.75C445.48,248.05,453.25,239.72,453.25,239.72Z"/><path class="cls-33" d="M449,294.91a9.48,9.48,0,0,0,1.51-.69c2.59-1.52,7.42-7.93,12.16-14.85l-7.37-5.74,7.37-10.93L475.93,254v6a228.14,228.14,0,0,1-12.45,27.6c-3.67,6.59-9.76,9.82-14.55,11.4A39.08,39.08,0,0,0,449,294.91Z"/><path class="cls-34" d="M406.17,292.57S437,280,439.1,279.51c.66-.14,2.93-3.27,5.72-7.5.59-.91,2.23-3.41,2.82-4.34l15,11.7c-4.74,6.92-9.57,13.33-12.16,14.85a9.48,9.48,0,0,1-1.51.69l0-.09s0,.06,0,.09c-9,3.36-41.23,4.9-41.86,5.12-1.16.89-3.88,1-6.33.27a9,9,0,0,1-3.05-1.4c-2.15-1.61-5.37.67-6.83,1.76a3.73,3.73,0,0,1-3.87,0C388.7,291.34,406.17,292.57,406.17,292.57Z"/><polygon class="cls-35" points="449.92 232.98 450.36 233.87 451.3 235.76 451.47 236.11 453.25 239.72 467.84 233.98 461.73 224.29 452.06 231.41 449.92 232.98"/><path class="cls-21" d="M475.93,260l-15.21,23.37-17.39-10s4.74-18.22,9.33-28.24c2.86-6.22,11.08-9.31,19-4.36C478.69,245.15,478.48,255.34,475.93,260Z"/><path class="cls-36" d="M447.25,218c.56-2.54,2.88-4.87,5-1.48a6.74,6.74,0,0,1,.8,2.83c.37,3.53,4.48,5.09,7.56,5.32a5.66,5.66,0,0,0,1.48-.05s-.78-5.82-2.5-12.83-5.64-14.15-11.28-11.29c0,0-5.2-2.42-8.36,1.6,0,0-5.36-1.92-8.14,2.39,0,0-7.53,1.43-8.93,6.1-1.79,6,6.53,7.39,9.31,5.71s4.88-4.88,6.79-4.82,1.48,3,1.77,4.82,3.11-.05,4.31,2.39,1.79,3.81,2.51,3.38S447.25,218,447.25,218Z"/><path class="cls-29" d="M448.26,218.57c-.22-.92.35-2.21,1.15-2.27,1-.07,1.49,1.18,1.56,2.27s-.23,2.75-1.34,2.37c-.85-.29.09-1.31-.21-1.87S448.26,219.55,448.26,218.57Z"/><path class="cls-29" d="M450.36,233.87l.94,1.89a6.94,6.94,0,0,0,2.94-5.51A9.53,9.53,0,0,1,450.36,233.87Z"/><path class="cls-37" d="M421.41,411.41a17.8,17.8,0,0,1-6,.21,6.84,6.84,0,0,0-2.21,0,2.6,2.6,0,0,0-2.42-1.66,3.94,3.94,0,0,0-2.79,1.24,4.17,4.17,0,0,1-1.22,1,2.86,2.86,0,0,1-1.17.13l-13.88-.3a3.18,3.18,0,0,1-2.57-.85,3.07,3.07,0,0,1-.41-1.92,5.77,5.77,0,0,1,.92-3.59c1-1.25,2.79-1.27,4.33-1.72s2.93-1.15,4.55-1.66a13.2,13.2,0,0,0,8.18-7.44,3.29,3.29,0,0,1,.94-1.51,2.75,2.75,0,0,1,2.51,0,22.39,22.39,0,0,1,2.92,1.3c.64.34,1.37.89,1.28,1.62-.1.94-1.53,1.63-1.11,2.48.25.49.93.52,1.48.46a26,26,0,0,0,8-2.17,21.57,21.57,0,0,1,.32,3.67l-.37,7.88A5.37,5.37,0,0,1,421.41,411.41Z"/><path class="cls-37" d="M379.18,409.78a17.81,17.81,0,0,1-6,.21,6.9,6.9,0,0,0-2.22,0,2.59,2.59,0,0,0-2.42-1.66,3.92,3.92,0,0,0-2.78,1.24,4,4,0,0,1-1.22,1,2.9,2.9,0,0,1-1.17.13l-13.88-.3a3.16,3.16,0,0,1-2.57-.85,3,3,0,0,1-.41-1.91,5.84,5.84,0,0,1,.91-3.6c1-1.25,2.8-1.27,4.33-1.72s2.93-1.15,4.56-1.66a13.19,13.19,0,0,0,8.17-7.44,3.23,3.23,0,0,1,1-1.51,2.75,2.75,0,0,1,2.51,0,22.26,22.26,0,0,1,2.91,1.3c.65.34,1.37.89,1.29,1.62-.11.94-1.54,1.63-1.11,2.48.24.5.93.52,1.47.46a25.86,25.86,0,0,0,8-2.17,20.6,20.6,0,0,1,.32,3.67l-.37,7.88A5.28,5.28,0,0,1,379.18,409.78Z"/><path class="cls-19" d="M505.49,267.71a1,1,0,0,1,0,.21c0,.14,0,.17,0,.25,0,.27-.1.73-.21,1.44-.79,5.29-3.63,23.43-6.26,40.26s-5.08,32.34-5.08,32.34l-5.24-.83.5-3.15c1.1-7,3.86-24.62,6.35-40.52,1.24-7.95,2.42-15.48,3.28-21,.43-2.79.79-5.09,1-6.71.13-.8.22-1.44.28-1.88,0-.22.06-.39.08-.5v-.1h0l1.57.17-1.57-.13v0l1.57.17-1.57-.13,2.45.2h-2.46a.72.72,0,0,1,0-.2l2.45.2h2.84Z"/><path class="cls-19" d="M452.19,349.37h6.42a0,0,0,0,1,0,0v61.15a1.63,1.63,0,0,1-1.63,1.63h-3.17a1.63,1.63,0,0,1-1.63-1.63V349.37A0,0,0,0,1,452.19,349.37Z"/><path class="cls-16" d="M452.19,396.73h6.42a0,0,0,0,1,0,0v13.79a1.63,1.63,0,0,1-1.63,1.63h-3.17a1.63,1.63,0,0,1-1.63-1.63V396.73A0,0,0,0,1,452.19,396.73Z"/><path class="cls-38" d="M437.74,350.25h35.33a0,0,0,0,1,0,0v.64a4.72,4.72,0,0,1-4.72,4.72h-25.9a4.72,4.72,0,0,1-4.72-4.72v-.64a0,0,0,0,1,0,0Z"/><rect class="cls-39" x="416.26" y="337.9" width="78.29" height="12.52" rx="5.51"/><path class="cls-16" d="M488.75,408.38a3.76,3.76,0,1,1-3.76-3.76A3.76,3.76,0,0,1,488.75,408.38Z"/><circle class="cls-16" cx="425.83" cy="408.38" r="3.76"/><rect class="cls-38" x="448.94" y="391.94" width="12.93" height="11.29"/><path class="cls-20" d="M426.74,400.58h57.32a4.68,4.68,0,0,1,4.68,4.68v.64a0,0,0,0,1,0,0H422.07a0,0,0,0,1,0,0v-.64A4.68,4.68,0,0,1,426.74,400.58Z"/><path class="cls-20" d="M507.07,272.09l-2.83,21a5.46,5.46,0,1,1-10.83-1.46l2.83-21a5.46,5.46,0,1,1,10.83,1.46"/><path class="cls-40" d="M149.09,393.51a58.76,58.76,0,0,0-.72,6.28,2.69,2.69,0,0,0,2.43,2.85c5,.49,16.53,1.4,23.86.34a1.23,1.23,0,0,0,.68-2.12c-3-2.82-10.33-8.29-22.34-9.49Z"/><path class="cls-41" d="M146.58,387l2.55,6.25a2.09,2.09,0,0,0,2.14,1.3,11.72,11.72,0,0,0,2.08-.41,2.73,2.73,0,0,0,1.82-3.4l-1.92-6.44Z"/><path class="cls-42" d="M103,398.49s5.1,4.27,7.09,9.75a2.32,2.32,0,0,1-2.21,3.09H97.35a2.47,2.47,0,0,1-2.45-2.89C95.57,404.65,97.5,398.5,103,398.49Z"/><path class="cls-43" d="M96.65,392.92s1,4.57,1.83,7.59a1,1,0,0,0,1.26.65,8.83,8.83,0,0,1,3.82-.69.74.74,0,0,0,.82-.74l.1-7.58Z"/><path class="cls-16" d="M123.81,290.19,154.87,385s-6,3.9-8.79,3.74l-36.9-76.16s-6.45,46.93-3.33,80.62l-10.56.8S78.1,307.86,91.12,278.37Z"/><path class="cls-44" d="M109.38,311.71h0a.3.3,0,0,1-.26-.34l1.21-9.56a.31.31,0,0,1,.33-.27.32.32,0,0,1,.27.34l-1.21,9.57A.3.3,0,0,1,109.38,311.71Z"/><path class="cls-24" d="M129.64,206.8S104.47,209,108,227c0,0-13.91,26.18-20.42,57a1.81,1.81,0,0,0,1.47,2.16L131,293.32a2.27,2.27,0,0,0,2.56-1.66l10-38.7,3.91,18,12.4-3.23-10.44-52.88S148,207.13,129.64,206.8Z"/><path class="cls-1" d="M143.79,251.22h-.07a.32.32,0,0,1-.24-.37l3.5-16a.31.31,0,0,1,.37-.23.31.31,0,0,1,.24.37l-3.5,16A.31.31,0,0,1,143.79,251.22Z"/><path class="cls-45" d="M141.26,299a5.94,5.94,0,0,0-4.33-.56l-2.92.72a1,1,0,0,1-1.3-.91l-3-26.85c-3.77,1.79-9.22,1.57-11,1.44l6.94,31.67h24.31Z"/><path class="cls-46" d="M205.83,240.7l-.73-2.44a4.82,4.82,0,0,0-2.82-3.09L189,229.83s-.2-1.71,2.81-2.87,2.3-4.52,2.3-4.52S190,224.31,184,227.29a14.12,14.12,0,0,0-6.4,7L147.48,271l3.53,2.43A9.44,9.44,0,0,0,164.69,270L181,238.75A60.72,60.72,0,0,0,205.83,240.7Z"/><path class="cls-47" d="M137.79,189.68l-7.74,21.66s6.85,5.36,11.85,3.55l3.9-12.42S142.83,187.29,137.79,189.68Z"/><path class="cls-48" d="M160.89,181.9c0,.33-7.46,21.1-7.46,21.1l-11.77-4.51,4.14-20.73S160.89,176.31,160.89,181.9Z"/><path class="cls-16" d="M147.87,182.81l-3,10.74a2,2,0,0,0-.05.42c0,.88.21,3.9,3.28,3.49,2.79-.38,5.34-.67,7,.09a1.56,1.56,0,0,1,.81,1.94,68.29,68.29,0,0,1-4.24,9.57,1.57,1.57,0,0,1-2,.64,50.5,50.5,0,0,1-10.09-5.94,1.56,1.56,0,0,1-.55-1.5c.52-2.75,2.05-11.11,2.12-13.5s-2.46-4-3.57-4.61a1.54,1.54,0,0,1-.72-1c-.35-1.45-.65-4.73,3.53-5.45a1.56,1.56,0,0,0,1.27-1.86c-.35-1.73-.24-4.28,3.05-5.22a5.72,5.72,0,0,1,6.51,2.6,1.55,1.55,0,0,0,1.93.52,1.24,1.24,0,0,1,1.39.25,1.55,1.55,0,0,0,2.25-.34,4.65,4.65,0,0,1,5.74-1.9c5.32,1.72,5.06,7.85,3.11,11.19s-7.61,1.14-10.29-1.07c-2-1.68-5.14-.68-6.51-.1A1.54,1.54,0,0,0,147.87,182.81Z"/><path class="cls-49" d="M140,192.68s3.15-6,1.07-7.82-5.61-1.57-5.51,3.09C135.67,193.74,140,192.68,140,192.68Z"/><path class="cls-1" d="M121.12,273.21a30.58,30.58,0,0,1-3.07-.15l-.23,0-9.16-42.73a.31.31,0,0,1,.61-.13l9.07,42.28c1.36.12,8.64.6,12.49-2.12l-7.94-37.12,1.66-3.12a.31.31,0,0,1,.55.29l-1.55,2.92,8,37.29-.16.12C128.59,272.81,124.11,273.21,121.12,273.21Z"/><path class="cls-50" d="M409.52,305.17h-.1l-43.49-.05a1.95,1.95,0,0,1,0-3.89l43.49,0a1.95,1.95,0,0,1,.09,3.89Z"/><path class="cls-51" d="M326.84,265.68h36.22a6.91,6.91,0,0,1,6.24,4L386,305.15H341a4.21,4.21,0,0,1-3.91-2.66l-13-32.85A2.9,2.9,0,0,1,326.84,265.68Z"/><path class="cls-52" d="M352.36,283.89c.78,2.44.2,4.8-1.3,5.29s-3.35-1.1-4.14-3.54-.2-4.81,1.3-5.29S351.57,281.45,352.36,283.89Z"/><rect class="cls-53" x="0.5" y="412.23" width="510.99" height="7.09"/></g></svg>