<svg xmlns="http://www.w3.org/2000/svg" xmlns:xlink="http://www.w3.org/1999/xlink" width="65.126" height="65.126" viewBox="0 0 65.126 65.126">
  <defs>
    <filter id="Rectangle_92" x="0" y="0" width="65.126" height="65.126" filterUnits="userSpaceOnUse">
      <feOffset dy="3" input="SourceAlpha"/>
      <feGaussianBlur stdDeviation="3" result="blur"/>
      <feFlood flood-opacity="0.161"/>
      <feComposite operator="in" in2="blur"/>
      <feComposite in="SourceGraphic"/>
    </filter>
  </defs>
  <g id="Group_810" data-name="Group 810" transform="translate(9 6)">
    <g transform="matrix(1, 0, 0, 1, -9, -6)" filter="url(#Rectangle_92)">
      <rect id="Rectangle_92-2" data-name="Rectangle 92" width="47.126" height="47.126" rx="8" transform="translate(9 6)" fill="#c0ecf7"/>
    </g>
    <g id="Group_770" data-name="Group 770" transform="translate(9.402 9.014)">
      <rect id="Rectangle_93" data-name="Rectangle 93" width="2.399" height="0.96" rx="0.48" transform="matrix(0.545, 0.839, -0.839, 0.545, 9.202, 24.393)" fill="#fff"/>
      <g id="goal" transform="translate(0 0)">
        <g id="Group_769" data-name="Group 769" transform="translate(0)">
          <g id="Group_768" data-name="Group 768">
            <path id="Path_973" data-name="Path 973" d="M28.841,28.085l-8.1-12.348V9.618h.48a1.44,1.44,0,1,0,0-2.879h-.48V4.172l4.036-1.795a.48.48,0,0,0-.043-.893L20.414.045A.484.484,0,0,0,19.781.5V6.739h-.96V5.3a1.44,1.44,0,0,0-1.44-1.44H16.153a1.877,1.877,0,0,0,.269-.96V1.46a1.44,1.44,0,0,0-1.44-1.44h-2.4a.48.48,0,0,0-.427.7l.427.859V2.9a1.877,1.877,0,0,0,.269.96H11.143V1.513A1.483,1.483,0,0,0,9.943.021a1.44,1.44,0,0,0-1.68,1.44V4.82a1.92,1.92,0,0,0,1.92,1.92H12.1v8.638h-.48a.48.48,0,0,0-.384.192L8.5,19.216H6.824a.48.48,0,0,0-.389.2L.2,28.051a.48.48,0,0,0,.389.763H28.419a.49.49,0,0,0,.422-.729Zm-8.1-26.917L23.255,2,20.741,3.121Zm0,6.531h.48a.48.48,0,1,1,0,.96h-.48ZM14.982.98a.48.48,0,0,1,.48.48V2.9a.96.96,0,0,1-1.92,0V1.46a.48.48,0,0,0-.053-.216L13.36.98h1.622Zm-4.8,4.8a.96.96,0,0,1-.96-.96V1.46A.491.491,0,0,1,9.79.98a.523.523,0,0,1,.394.533V4.34a.48.48,0,0,0,.48.48h6.718a.48.48,0,0,1,.48.48v1.92a.48.48,0,0,0,.48.48h1.44v.96h-1.92a.96.96,0,0,1-.96-.96V5.779h-.96V8.659H13.063v-2.4a.48.48,0,0,0-.48-.48Zm9.6,3.839v4.655l-.077-.12a.48.48,0,0,0-.4-.216h-.96a.48.48,0,0,0-.48.326l-.355,1.065-.6-.629V9.359a1.92,1.92,0,0,0,.96.259Zm-5.759.96V14.9a.48.48,0,0,0,.139.341l.144.139H13.063V9.618h2.879V14.9a.48.48,0,0,0,.139.341l.144.139h-.566l-.677-.677V10.578ZM1.545,27.854l3.119-4.319H7.544L9.324,26.2l.8-.528L8.2,22.791a.48.48,0,0,0-.418-.216H5.336l1.732-2.4h4.756L13.6,23.3a.48.48,0,0,0,.418.24h2.6l2.356,4.319Zm18.538,0-1.569-2.879H20.5L21.8,26.7l.768-.576-1.44-1.92a.48.48,0,0,0-.384-.192H17.972l-.648-1.19a.48.48,0,0,0-.422-.25H14.3l-1.78-3.119a.48.48,0,0,0-.418-.24H9.7l2.16-2.879h6a.48.48,0,0,0,.48-.326l.346-1.113h.355l8.489,12.957H20.083Z" transform="translate(-0.104 0)" fill="#fff"/>
          </g>
        </g>
      </g>
      <rect id="Rectangle_94" data-name="Rectangle 94" width="2.399" height="0.96" rx="0.48" transform="matrix(0.602, 0.799, -0.799, 0.602, 21.591, 24.954)" fill="#fff"/>
    </g>
  </g>
</svg>
