<svg xmlns="http://www.w3.org/2000/svg" xmlns:xlink="http://www.w3.org/1999/xlink" width="65.126" height="65.126" viewBox="0 0 65.126 65.126">
  <defs>
    <filter id="Rectangle_92" x="0" y="0" width="65.126" height="65.126" filterUnits="userSpaceOnUse">
      <feOffset dy="3" input="SourceAlpha"/>
      <feGaussianBlur stdDeviation="3" result="blur"/>
      <feFlood flood-opacity="0.161"/>
      <feComposite operator="in" in2="blur"/>
      <feComposite in="SourceGraphic"/>
    </filter>
  </defs>
  <g id="Group_1122" data-name="Group 1122" transform="translate(9 6)">
    <g transform="matrix(1, 0, 0, 1, -9, -6)" filter="url(#Rectangle_92)">
      <rect id="Rectangle_92-2" data-name="Rectangle 92" width="47.126" height="47.126" rx="8" transform="translate(9 6)" fill="#624f85"/>
    </g>
    <g id="fencing" transform="translate(9.379 9.457)">
      <path id="Path_977" data-name="Path 977" d="M27.9,19.309l-1.611-2.3a.843.843,0,0,0-1.174-.207l-1.22.854a4.225,4.225,0,0,0-4.576-.806L15.41,11.268l6.962-9.943A.843.843,0,1,0,20.992.359L14.382,9.8,7.772.359a.843.843,0,0,0-1.381.967l6.962,9.943L9.445,16.849a4.225,4.225,0,0,0-4.576.806L3.649,16.8a.843.843,0,0,0-1.174.207l-1.611,2.3a4.777,4.777,0,0,0,.617,6.2,2.528,2.528,0,0,0,4.491,2.18l3.383-4.832.69.483a.843.843,0,0,0,1.174-.207,4.221,4.221,0,0,0-.393-5.315l3.555-5.077,3.555,5.078a4.221,4.221,0,0,0-.393,5.315.843.843,0,0,0,1.174.207l.69-.483,3.383,4.832a2.528,2.528,0,0,0,4.491-2.18,4.777,4.777,0,0,0,.617-6.2ZM2.381,24a3.091,3.091,0,0,1-.135-3.724l1.128-1.611,1.841,1.289Zm2.211,2.719a.843.843,0,1,1-1.381-.967l.483-.69,1.381.967Zm1.45-2.071-1.381-.967,1.934-2.761,1.381.967ZM10.2,21.391,6.3,18.656A2.528,2.528,0,0,1,10.2,21.391Zm8.355,0a2.528,2.528,0,0,1,3.905-2.734Zm4.163,3.258-1.934-2.761,1.381-.967L24.1,23.682Zm2.624,2.278a.844.844,0,0,1-1.174-.207l-.483-.69,1.381-.967.483.69A.844.844,0,0,1,25.345,26.926Zm1.685-4.342A3.071,3.071,0,0,1,26.383,24L23.55,19.954l1.841-1.289,1.128,1.611A3.069,3.069,0,0,1,27.03,22.585Z" transform="translate(0 0.001)" fill="#fff"/>
    </g>
  </g>
</svg>
