<svg xmlns="http://www.w3.org/2000/svg" xmlns:xlink="http://www.w3.org/1999/xlink" viewBox="0 0 512 512"><defs><style>.cls-1{isolation:isolate;}.cls-2{fill:#91b3fa;}.cls-3{fill:#bdd0fb;}.cls-4{fill:#112b46;}.cls-5{fill:#0a2033;}.cls-6{fill:#bcbec0;}.cls-7{fill:#a7a9ac;}.cls-31,.cls-8{fill:none;stroke-miterlimit:10;}.cls-8{stroke:#c8c9e3;stroke-width:1.36px;}.cls-9{fill:#243c55;}.cls-10{fill:#909c90;}.cls-11{fill:url(#linear-gradient);}.cls-12{fill:#031e79;}.cls-13{fill:url(#linear-gradient-2);}.cls-14{fill:#033cfb;}.cls-15{fill:url(#New_Gradient_Swatch);}.cls-16{fill:url(#New_Gradient_Swatch-2);}.cls-17{fill:#efa78b;}.cls-18{fill:url(#New_Gradient_Swatch-3);}.cls-19{fill:url(#New_Gradient_Swatch-4);}.cls-20{fill:url(#New_Gradient_Swatch-5);}.cls-21{fill:url(#New_Gradient_Swatch-6);}.cls-22{fill:url(#New_Gradient_Swatch-7);}.cls-23{fill:url(#New_Gradient_Swatch-8);}.cls-24,.cls-34{fill:#035afb;}.cls-25{fill:url(#New_Gradient_Swatch-9);}.cls-26{fill:url(#New_Gradient_Swatch-10);}.cls-27{fill:url(#New_Gradient_Swatch-11);}.cls-28{fill:url(#New_Gradient_Swatch-12);}.cls-29{fill:#7d97f4;}.cls-30{fill:#414042;}.cls-31{stroke:#e5e6f3;stroke-width:1.1px;}.cls-32{fill:#97b5ce;}.cls-33{fill:#97c6db;}.cls-34,.cls-35{mix-blend-mode:multiply;}.cls-36{fill:#bee1f4;}.cls-37{fill:#7aabbc;}</style><linearGradient id="linear-gradient" x1="4949.32" y1="431.85" x2="4958.55" y2="431.85" gradientTransform="matrix(-1, 0.01, 0.01, 1, 5307.82, -41.66)" gradientUnits="userSpaceOnUse"><stop offset="0" stop-color="#febbba"/><stop offset="1" stop-color="#ff928e"/></linearGradient><linearGradient id="linear-gradient-2" x1="4916.05" y1="431.37" x2="4924.02" y2="431.37" xlink:href="#linear-gradient"/><radialGradient id="New_Gradient_Swatch" cx="298.64" cy="196.99" r="25.71" gradientUnits="userSpaceOnUse"><stop offset="0" stop-color="#ffc8af"/><stop offset="1" stop-color="#ffbb9c"/></radialGradient><radialGradient id="New_Gradient_Swatch-2" cx="816.91" cy="152.39" r="11.05" gradientTransform="translate(-546.05 14.89) rotate(-0.54)" xlink:href="#New_Gradient_Swatch"/><radialGradient id="New_Gradient_Swatch-3" cx="4913.96" cy="257.81" r="23.69" gradientTransform="matrix(-1, 0.01, 0.01, 1, 5307.82, -41.66)" xlink:href="#New_Gradient_Swatch"/><radialGradient id="New_Gradient_Swatch-4" cx="4941.75" cy="194.01" r="12.27" gradientTransform="matrix(-1, 0.01, 0.01, 1, 5307.82, -41.66)" xlink:href="#New_Gradient_Swatch"/><radialGradient id="New_Gradient_Swatch-5" cx="-2430.38" cy="1735.49" r="14.39" gradientTransform="matrix(-0.75, -0.66, -0.66, 0.75, -325.37, -2727.12)" xlink:href="#New_Gradient_Swatch"/><radialGradient id="New_Gradient_Swatch-6" cx="-2439.81" cy="1731.3" r="3.67" gradientTransform="matrix(-0.75, -0.66, -0.66, 0.75, -325.37, -2727.12)" xlink:href="#New_Gradient_Swatch"/><radialGradient id="New_Gradient_Swatch-7" cx="4660.64" cy="260.93" r="8.87" gradientTransform="matrix(-1, 0, 0, 1, 5024.34, 0)" xlink:href="#New_Gradient_Swatch"/><radialGradient id="New_Gradient_Swatch-8" cx="735.84" cy="393.7" r="48.93" gradientTransform="matrix(-1, 0, 0, 1, 915.67, 0)" xlink:href="#New_Gradient_Swatch"/><radialGradient id="New_Gradient_Swatch-9" cx="130.12" cy="237.29" r="11.05" xlink:href="#New_Gradient_Swatch"/><radialGradient id="New_Gradient_Swatch-10" cx="143.62" cy="226" r="16.18" xlink:href="#New_Gradient_Swatch"/><radialGradient id="New_Gradient_Swatch-11" cx="-1799.8" cy="4996.72" r="4.82" gradientTransform="matrix(-0.6, -0.8, -0.8, 0.6, 3027.92, -4236.35)" xlink:href="#New_Gradient_Swatch"/><radialGradient id="New_Gradient_Swatch-12" cx="804.09" cy="318.12" r="29.33" gradientTransform="matrix(-1, 0, 0, 1, 915.67, 0)" xlink:href="#New_Gradient_Swatch"/></defs><g class="cls-1"><g id="OBJECTS"><path class="cls-2" d="M59,199.52a.76.76,0,0,1-.45-.69c0-1,0-2,.05-3a.74.74,0,0,1,.79-.7c1,0,.66,1,.67,3.73a.73.73,0,0,1-.75.74A.78.78,0,0,1,59,199.52Z"/><path class="cls-2" d="M59.55,186.51c.32-1.89.72-3.78,1.19-5.64a.75.75,0,0,1,.92-.53c1.1.3.33.88-.61,6.44a.75.75,0,0,1-.87.6A.78.78,0,0,1,59.55,186.51ZM63.61,172c.71-1.79,1.5-3.58,2.32-5.27a.76.76,0,0,1,1.37.67c-.82,1.68-1.59,3.41-2.28,5.16a.76.76,0,0,1-1.41-.56Zm7-13.38c1.06-1.59,2.19-3.16,3.37-4.66a.76.76,0,0,1,1.2.92c-1.15,1.48-2.26,3-3.3,4.57A.76.76,0,0,1,70.57,158.6ZM80.2,148a.73.73,0,0,1,0-1c1.37-1.34,2.81-2.64,4.28-3.87.76-.64,1.75.51,1,1.14-1.44,1.21-2.85,2.48-4.19,3.8A.77.77,0,0,1,80.2,148Zm11.64-9.44a.74.74,0,0,1,.21-1c1.63-1,3.31-2,5-2.92a.76.76,0,0,1,.74,1.32c-1.67.88-3.32,1.84-4.91,2.86A.77.77,0,0,1,91.84,138.57Zm13.78-6.47a.78.78,0,0,1-.39-.41.73.73,0,0,1,.42-1c1.81-.69,3.66-1.31,5.52-1.86a.78.78,0,0,1,1,.51.73.73,0,0,1-.5.92c-1.81.54-3.63,1.15-5.4,1.82A.83.83,0,0,1,105.62,132.1Zm14.61-3.9a.76.76,0,0,1-.43-.56.74.74,0,0,1,.61-.85c1.91-.31,3.87-.54,5.8-.7a.76.76,0,0,1,.83.68.73.73,0,0,1-.68.8c-1.89.16-3.81.39-5.68.69A.77.77,0,0,1,120.23,128.2ZM135,126.62a.74.74,0,0,1,.78-.71c1.94.09,3.91.25,5.85.49a.74.74,0,1,1-.16,1.48c-1.9-.23-3.83-.4-5.73-.48A.77.77,0,0,1,135,126.62Zm47.27,19.56c-4.28-3.77-5.31-3.79-4.62-4.68a.76.76,0,0,1,1.06-.14c1.56,1.18,3.09,2.43,4.55,3.72A.74.74,0,1,1,182.22,146.18Zm-32.17-17.5a.73.73,0,0,1,.91-.53c1.89.47,3.79,1,5.64,1.65a.74.74,0,1,1-.46,1.41c-1.82-.61-3.68-1.15-5.53-1.62A.75.75,0,0,1,150.05,128.68Zm19.89,8.71c-4.95-2.84-6-2.66-5.48-3.68a.78.78,0,0,1,1-.34c1.77.84,3.52,1.76,5.21,2.73a.75.75,0,0,1,.29,1A.76.76,0,0,1,169.94,137.39Z"/><path class="cls-2" d="M190.78,155.11c-1.6-2-2.63-2.68-1.86-3.34a.77.77,0,0,1,1.07.09c1.74,2,2.62,2.78,1.86,3.38A.88.88,0,0,1,190.78,155.11Z"/><path class="cls-2" d="M207.16,210.67a.75.75,0,0,1-.44-.77c.12-1,.23-2,.31-2.93a.74.74,0,0,1,.81-.67.77.77,0,0,1,.7.81c-.09,1-.19,2-.32,3a.74.74,0,0,1-.84.64A.81.81,0,0,1,207.16,210.67Z"/><path class="cls-2" d="M100.84,265.84c-1.88-.94-3.75-2-5.56-3a.75.75,0,0,1-.26-1c.6-1,1,0,6.48,2.74a.74.74,0,0,1,.35,1A.78.78,0,0,1,100.84,265.84Zm9,3c.36-1.1,1-.2,6.9,1.29a.75.75,0,0,1,.56.91.74.74,0,0,1-.91.54c-2-.51-4.07-1.12-6.07-1.79A.75.75,0,0,1,109.87,268.83Zm-23-11.91c-1.63-1.32-3.24-2.72-4.76-4.16a.74.74,0,0,1,0-1.06c.81-.83.94.22,5.74,4.07a.75.75,0,0,1,.12,1A.78.78,0,0,1,86.84,256.92Zm39.45,16.41a.78.78,0,0,1-.44-.76.74.74,0,0,1,.83-.66c2,.23,4.12.37,6.17.43a.77.77,0,0,1,.75.77.74.74,0,0,1-.77.72c-2.09-.06-4.21-.21-6.3-.44A1.05,1.05,0,0,1,126.29,273.33Zm16.36,0a.79.79,0,0,1-.44-.6.74.74,0,0,1,.66-.82c2-.22,4.08-.52,6.09-.91a.77.77,0,0,1,.9.59.73.73,0,0,1-.58.87c-2.05.4-4.15.71-6.22.93A.79.79,0,0,1,142.65,273.36Zm15.91-3.51a.74.74,0,0,1,.05-1.38c1.93-.65,3.86-1.39,5.73-2.2a.76.76,0,0,1,1,.38.73.73,0,0,1-.37,1c-1.91.83-3.87,1.59-5.84,2.25A.75.75,0,0,1,158.56,269.85Zm14.7-6.85a.81.81,0,0,1-.33-.28.73.73,0,0,1,.23-1c1.73-1.05,3.44-2.19,5.08-3.39a.77.77,0,0,1,1.06.16.73.73,0,0,1-.15,1c-1.67,1.22-3.41,2.39-5.18,3.46A.75.75,0,0,1,173.26,263Zm12.55-10c-.84-.83.22-.91,4.17-5.47.65-.74,1.81.23,1.16,1-1.35,1.55-2.78,3.07-4.26,4.51A.77.77,0,0,1,185.81,253Zm10.34-12.33c-1-.64,0-.94,2.83-6.27a.76.76,0,0,1,1.34.71c-1,1.82-2,3.62-3.13,5.34A.76.76,0,0,1,196.15,240.64Zm7.23-14.34a.75.75,0,0,1-.4-.93c.69-1.91,1.31-3.85,1.83-5.79a.76.76,0,0,1,.93-.52.78.78,0,0,1,.54.93c-.54,2-1.17,4-1.87,5.9a.76.76,0,0,1-1,.44Z"/><path class="cls-2" d="M75.1,245.18c-1.65-2.06-2.5-2.9-1.7-3.46s1.19.44,2.88,2.54a.74.74,0,0,1-.12,1.05A.77.77,0,0,1,75.1,245.18Z"/><path class="cls-3" d="M121.29,197.41a12.44,12.44,0,0,1,14.3-10.47,12.82,12.82,0,0,1,10.87,14.28,12.44,12.44,0,0,1-14.3,10.46h0A12.81,12.81,0,0,1,121.29,197.41Zm11,13.16h0Zm3-21.42a10.2,10.2,0,0,0-11.74,8.6,10.51,10.51,0,0,0,8.92,11.72,10.22,10.22,0,0,0,11.75-8.59A10.53,10.53,0,0,0,135.28,189.15Z"/><path class="cls-3" d="M120.73,228.21h0a33.77,33.77,0,0,1-4.9-2.78,1.13,1.13,0,0,1-.4-1.39l.1-.17a1.15,1.15,0,0,1,1.58-.27,30.93,30.93,0,0,0,5.69,3.08h0c15.12,6.25,32.31-.36,38.94-14.75.17-.37.33-.74.48-1.12,6.28-15.25-1.32-32.71-16.79-39.12s-33.15.66-39.42,15.87c-3.72,9.06-1.48,15.47-1.91,16.4a1.15,1.15,0,0,1-2.16-.32,31.45,31.45,0,0,1,2.49-18.15c11.61-25.2,48.57-24.17,59.65,1.64a31.44,31.44,0,0,1,.25,24.56c-.17.4-.35.81-.53,1.21a31.31,31.31,0,0,1-16.92,16,32.79,32.79,0,0,1-24.92-.18C121.54,228.57,121.14,228.39,120.73,228.21Z"/><path class="cls-2" d="M98.52,158.11a.75.75,0,0,1-.44-.68c0-1,0-2,0-3a.73.73,0,0,1,.78-.7c1,.05.67,1,.68,3.73a.73.73,0,0,1-.75.73A.71.71,0,0,1,98.52,158.11Z"/><path class="cls-2" d="M99.09,145.1c.32-1.88.72-3.78,1.19-5.63a.74.74,0,0,1,.92-.53c1.1.3.33.88-.62,6.43a.73.73,0,0,1-.87.6A.75.75,0,0,1,99.09,145.1Zm4.06-14.53c.7-1.78,1.49-3.58,2.32-5.26a.76.76,0,0,1,1.36.67c-.82,1.68-1.58,3.41-2.27,5.15a.74.74,0,0,1-1,.41A.75.75,0,0,1,103.15,130.57Zm7-13.37c1-1.59,2.19-3.16,3.37-4.67a.76.76,0,0,1,1.2.93c-1.16,1.47-2.27,3-3.3,4.57A.76.76,0,0,1,110.11,117.2Zm9.62-10.59a.72.72,0,0,1,0-1c1.36-1.34,2.8-2.65,4.28-3.88a.76.76,0,0,1,1,1.15c-1.45,1.2-2.86,2.48-4.2,3.79A.77.77,0,0,1,119.73,106.61Zm11.65-9.44a.73.73,0,0,1,.21-1c1.62-1,3.31-2,5-2.92a.75.75,0,0,1,.73,1.31c-1.66.89-3.31,1.85-4.9,2.86A.78.78,0,0,1,131.38,97.17Zm13.78-6.48a.75.75,0,0,1-.39-.41.73.73,0,0,1,.42-1c1.8-.68,3.66-1.31,5.52-1.85a.76.76,0,0,1,.94.5.73.73,0,0,1-.49.93c-1.82.53-3.64,1.14-5.41,1.81A.71.71,0,0,1,145.16,90.69Zm14.61-3.89a.77.77,0,0,1-.43-.56.72.72,0,0,1,.61-.85c1.91-.31,3.86-.55,5.8-.71a.78.78,0,0,1,.83.69.73.73,0,0,1-.68.8c-1.9.15-3.81.39-5.69.69A.82.82,0,0,1,159.77,86.8Zm14.72-1.58a.73.73,0,0,1,.77-.71c2,.08,3.91.25,5.85.48a.74.74,0,1,1-.16,1.48c-1.9-.23-3.82-.39-5.73-.47A.77.77,0,0,1,174.49,85.22Zm47.26,19.56c-4.28-3.78-5.3-3.79-4.61-4.69a.77.77,0,0,1,1.06-.13c1.55,1.18,3.09,2.43,4.55,3.72A.74.74,0,1,1,221.75,104.78Zm-32.17-17.5a.76.76,0,0,1,.92-.54c1.89.48,3.79,1,5.64,1.65a.74.74,0,1,1-.46,1.41c-1.82-.6-3.68-1.15-5.53-1.61A.77.77,0,0,1,189.58,87.28ZM209.47,96c-4.94-2.83-6-2.65-5.47-3.67a.77.77,0,0,1,1-.34c1.76.84,3.52,1.76,5.21,2.73a.74.74,0,1,1-.75,1.28Z"/><path class="cls-2" d="M230.32,113.71c-1.61-2-2.64-2.69-1.87-3.34a.77.77,0,0,1,1.07.08c1.74,2,2.63,2.78,1.86,3.38A.86.86,0,0,1,230.32,113.71Z"/><path class="cls-2" d="M246.7,169.27a.76.76,0,0,1-.44-.78c.12-1,.22-2,.3-2.93a.75.75,0,0,1,.82-.67.77.77,0,0,1,.69.82c-.08,1-.19,2-.31,3a.73.73,0,0,1-.84.63A.79.79,0,0,1,246.7,169.27Z"/><path class="cls-2" d="M140.38,224.43c-1.89-.93-3.76-2-5.56-3a.73.73,0,0,1-.26-1c.6-1,1,0,6.48,2.73a.75.75,0,0,1,.35,1A.77.77,0,0,1,140.38,224.43Zm9,3c.37-1.09,1-.19,6.91,1.3a.76.76,0,0,1,.56.9.75.75,0,0,1-.91.54c-2-.51-4.08-1.11-6.07-1.79A.76.76,0,0,1,149.4,227.42Zm-23-11.91c-1.64-1.31-3.24-2.71-4.77-4.15a.75.75,0,0,1,0-1.06c.81-.83.94.21,5.74,4.06a.74.74,0,1,1-.94,1.15Zm39.45,16.41a.75.75,0,0,1-.44-.76.73.73,0,0,1,.82-.65c2,.22,4.13.37,6.18.43a.76.76,0,0,1,.74.76.73.73,0,0,1-.76.73c-2.09-.06-4.21-.21-6.3-.44A.61.61,0,0,1,165.83,231.92Zm16.36,0a.74.74,0,0,1-.44-.59.72.72,0,0,1,.65-.82c2-.22,4.09-.53,6.1-.92a.78.78,0,0,1,.9.59.74.74,0,0,1-.59.88c-2.05.39-4.14.71-6.22.93A.68.68,0,0,1,182.19,232Zm15.91-3.5a.77.77,0,0,1-.4-.43.73.73,0,0,1,.45-1c1.93-.65,3.86-1.4,5.72-2.21a.79.79,0,0,1,1,.39.74.74,0,0,1-.38,1c-1.9.83-3.87,1.58-5.84,2.25A.72.72,0,0,1,198.1,228.45Zm14.69-6.85a.83.83,0,0,1-.33-.29.73.73,0,0,1,.24-1c1.73-1.06,3.44-2.2,5.07-3.39a.75.75,0,0,1,1.06.16.73.73,0,0,1-.14,1c-1.67,1.22-3.41,2.38-5.18,3.46A.77.77,0,0,1,212.79,221.6Zm12.55-10c-.83-.83.22-.91,4.18-5.48.64-.74,1.8.24,1.16,1-1.35,1.56-2.79,3.08-4.27,4.52A.77.77,0,0,1,225.34,211.57Zm10.34-12.34c-1-.63,0-.93,2.84-6.26a.76.76,0,0,1,1.34.71c-1,1.82-2,3.61-3.13,5.34A.76.76,0,0,1,235.68,199.23Zm7.24-14.33a.75.75,0,0,1-.4-.94c.69-1.9,1.31-3.85,1.83-5.79a.76.76,0,0,1,1.46.41c-.53,2-1.16,4-1.87,5.91a.74.74,0,0,1-1,.43Z"/><path class="cls-2" d="M114.63,203.77c-1.65-2.05-2.49-2.89-1.7-3.46s1.2.44,2.89,2.55a.75.75,0,0,1-.12,1A.78.78,0,0,1,114.63,203.77Z"/><path class="cls-3" d="M160.82,156a12.44,12.44,0,0,1,14.3-10.46A12.81,12.81,0,0,1,186,159.81a12.44,12.44,0,0,1-14.3,10.47h0A12.82,12.82,0,0,1,160.82,156Zm11,13.17Zm3-21.42a10.21,10.21,0,0,0-11.75,8.59A10.54,10.54,0,0,0,172,168.07a10.23,10.23,0,0,0,11.75-8.6A10.53,10.53,0,0,0,174.82,147.75Z"/><path class="cls-3" d="M160.27,186.8h0a34.13,34.13,0,0,1-4.9-2.77,1.13,1.13,0,0,1-.4-1.39,1,1,0,0,1,.1-.17,1.12,1.12,0,0,1,1.57-.27,31.62,31.62,0,0,0,5.7,3.08h0c15.11,6.25,32.3-.36,38.93-14.75.17-.37.33-.74.49-1.12,6.28-15.25-1.32-32.71-16.79-39.12s-33.16.66-39.42,15.87c-3.73,9.05-1.49,15.46-1.91,16.39a1.15,1.15,0,0,1-2.16-.32A31.34,31.34,0,0,1,144,144.09c11.61-25.21,48.57-24.17,59.65,1.63a31.49,31.49,0,0,1,.25,24.56c-.17.41-.35.81-.53,1.21a31.37,31.37,0,0,1-16.92,16,32.81,32.81,0,0,1-24.93-.18C161.08,187.17,160.67,187,160.27,186.8Z"/><path class="cls-2" d="M221.6,251.64a.75.75,0,0,1-.44-.68c0-1,0-2,.05-3a.74.74,0,0,1,.78-.71c1,0,.67,1,.68,3.74a.73.73,0,0,1-.75.73A.68.68,0,0,1,221.6,251.64Z"/><path class="cls-2" d="M222.17,238.63c.32-1.88.72-3.78,1.19-5.63a.74.74,0,0,1,.91-.53c1.11.29.33.87-.61,6.43a.74.74,0,0,1-.87.6A.76.76,0,0,1,222.17,238.63Zm4.06-14.53c.7-1.79,1.49-3.58,2.32-5.26a.76.76,0,0,1,1.36.66c-.82,1.68-1.58,3.41-2.27,5.16a.76.76,0,0,1-1.41-.56Zm7-13.37c1.05-1.59,2.18-3.16,3.36-4.67a.76.76,0,0,1,1.21.92c-1.16,1.48-2.27,3-3.3,4.58A.76.76,0,0,1,233.19,210.73Zm9.62-10.59a.75.75,0,0,1,0-1.06c1.37-1.34,2.81-2.64,4.29-3.87.75-.63,1.74.51,1,1.14-1.45,1.21-2.86,2.49-4.2,3.8A.77.77,0,0,1,242.81,200.14Zm11.65-9.45a.73.73,0,0,1,.21-1c1.62-1,3.31-2,5-2.92a.76.76,0,0,1,.74,1.32c-1.66.88-3.31,1.85-4.9,2.86A.77.77,0,0,1,254.46,190.69Zm13.78-6.47a.75.75,0,0,1-.39-.41.73.73,0,0,1,.42-1c1.8-.69,3.66-1.31,5.51-1.85a.77.77,0,0,1,1,.5.73.73,0,0,1-.49.93c-1.82.53-3.64,1.14-5.41,1.81A.75.75,0,0,1,268.24,184.22Zm14.61-3.9a.77.77,0,0,1-.44-.55.74.74,0,0,1,.61-.86c1.92-.3,3.87-.54,5.81-.7a.78.78,0,0,1,.83.68.75.75,0,0,1-.68.81c-1.9.15-3.81.38-5.69.68A.66.66,0,0,1,282.85,180.32Zm14.72-1.57a.73.73,0,0,1,.77-.72c2,.09,3.91.25,5.85.49A.74.74,0,1,1,304,180c-1.9-.23-3.83-.39-5.73-.48A.74.74,0,0,1,297.57,178.75Zm47.26,19.56c-4.28-3.78-5.3-3.8-4.61-4.69a.76.76,0,0,1,1-.13c1.56,1.17,3.1,2.42,4.56,3.71A.75.75,0,1,1,344.83,198.31Zm-32.17-17.5a.75.75,0,0,1,.91-.54c1.89.48,3.79,1,5.65,1.65a.74.74,0,1,1-.47,1.41c-1.81-.61-3.67-1.15-5.53-1.62A.76.76,0,0,1,312.66,180.81Zm19.89,8.7c-4.94-2.84-6-2.65-5.47-3.67a.78.78,0,0,1,1-.35c1.77.85,3.53,1.77,5.22,2.74a.74.74,0,1,1-.75,1.28Z"/><path class="cls-2" d="M353.4,207.23c-1.61-2-2.64-2.68-1.87-3.33a.77.77,0,0,1,1.07.08c1.74,2,2.63,2.78,1.86,3.38A.85.85,0,0,1,353.4,207.23Z"/><path class="cls-2" d="M369.78,262.8a.75.75,0,0,1-.44-.78c.12-1,.22-2,.3-2.93a.75.75,0,0,1,.82-.67.77.77,0,0,1,.69.82c-.08,1-.19,2-.31,3a.74.74,0,0,1-.84.63A.71.71,0,0,1,369.78,262.8Z"/><path class="cls-2" d="M263.46,318c-1.89-.93-3.76-2-5.56-3a.74.74,0,0,1-.27-1c.6-1,1,0,6.49,2.73a.75.75,0,0,1,.35,1A.77.77,0,0,1,263.46,318Zm9,3c.37-1.09,1-.19,6.91,1.3a.76.76,0,0,1,.56.9.75.75,0,0,1-.91.54c-2-.51-4.08-1.11-6.08-1.79A.75.75,0,0,1,272.48,321Zm-23-11.91c-1.64-1.31-3.24-2.71-4.77-4.16a.74.74,0,0,1,0-1.05c.81-.83.94.21,5.74,4.06a.74.74,0,0,1,.12,1.05A.76.76,0,0,1,249.46,309Zm39.45,16.41a.74.74,0,0,1,.38-1.42c2,.23,4.12.38,6.17.43a.77.77,0,0,1,.75.77.72.72,0,0,1-.76.72c-2.09-.05-4.21-.2-6.3-.43A.84.84,0,0,1,288.91,325.45Zm16.36,0a.73.73,0,0,1-.44-.59.72.72,0,0,1,.65-.82c2-.22,4.09-.53,6.1-.92a.76.76,0,0,1,.89.59.73.73,0,0,1-.58.87c-2.05.4-4.14.71-6.22.94A.77.77,0,0,1,305.27,325.48Zm15.9-3.5a.82.82,0,0,1-.4-.44.73.73,0,0,1,.46-.94c1.93-.66,3.85-1.4,5.72-2.21a.78.78,0,0,1,1,.38.75.75,0,0,1-.38,1c-1.9.82-3.87,1.58-5.84,2.25A.8.8,0,0,1,321.17,322Zm14.7-6.86a.8.8,0,0,1-.33-.28.74.74,0,0,1,.24-1c1.73-1.05,3.44-2.19,5.07-3.39a.77.77,0,0,1,1.06.16.74.74,0,0,1-.14,1.05c-1.67,1.22-3.41,2.38-5.18,3.46A.77.77,0,0,1,335.87,315.12Zm12.55-10c-.83-.84.22-.92,4.18-5.48.64-.74,1.8.24,1.16,1-1.35,1.56-2.79,3.08-4.27,4.51A.77.77,0,0,1,348.42,305.1Zm10.34-12.34c-1-.63,0-.93,2.83-6.26a.76.76,0,0,1,1.35.7c-1,1.82-2,3.62-3.14,5.35A.75.75,0,0,1,358.76,292.76ZM366,278.43a.75.75,0,0,1-.4-.94c.69-1.9,1.3-3.85,1.83-5.79a.76.76,0,0,1,1.46.41c-.53,2-1.16,4-1.87,5.9a.75.75,0,0,1-1,.44Z"/><path class="cls-2" d="M237.71,297.3c-1.65-2.06-2.49-2.89-1.7-3.46s1.19.44,2.88,2.55a.73.73,0,0,1-.11,1A.78.78,0,0,1,237.71,297.3Z"/><path class="cls-3" d="M283.9,249.53a12.44,12.44,0,0,1,14.3-10.46,12.81,12.81,0,0,1,10.87,14.27,12.43,12.43,0,0,1-14.3,10.46h0A12.82,12.82,0,0,1,283.9,249.53Zm11,13.17Zm3-21.42a10.19,10.19,0,0,0-11.75,8.59,10.52,10.52,0,0,0,8.93,11.72A10.2,10.2,0,0,0,306.82,253,10.52,10.52,0,0,0,297.9,241.28Z"/><path class="cls-3" d="M283.35,280.33h0a33.59,33.59,0,0,1-4.9-2.77,1.12,1.12,0,0,1-.4-1.39.91.91,0,0,1,.09-.17,1.13,1.13,0,0,1,1.58-.27,32.26,32.26,0,0,0,5.7,3.08h0c15.11,6.25,32.3-.37,38.93-14.75.17-.37.33-.74.49-1.12,6.27-15.25-1.32-32.72-16.79-39.12s-33.16.66-39.42,15.87c-3.73,9.05-1.49,15.46-1.92,16.39a1.14,1.14,0,0,1-2.15-.32A31.44,31.44,0,0,1,267,237.61c11.62-25.2,48.58-24.17,59.65,1.64a31.45,31.45,0,0,1,.25,24.56c-.16.41-.34.81-.52,1.21a31.4,31.4,0,0,1-16.92,16,32.82,32.82,0,0,1-24.93-.19C284.16,280.69,283.75,280.52,283.35,280.33Z"/><path class="cls-2" d="M261.14,210.24a.77.77,0,0,1-.45-.69c0-1,0-2,.05-3a.74.74,0,0,1,.79-.7c1,0,.67,1,.68,3.73a.75.75,0,0,1-.76.74A.78.78,0,0,1,261.14,210.24Z"/><path class="cls-2" d="M261.71,197.23c.31-1.89.71-3.78,1.18-5.64a.75.75,0,0,1,.92-.53c1.1.3.33.88-.61,6.44a.75.75,0,0,1-.87.6A.76.76,0,0,1,261.71,197.23Zm4.05-14.53c.71-1.79,1.5-3.58,2.32-5.27a.76.76,0,0,1,1.37.67c-.82,1.68-1.59,3.41-2.28,5.16a.74.74,0,0,1-1,.41A.75.75,0,0,1,265.76,182.7Zm7-13.38c1.06-1.59,2.19-3.16,3.37-4.66a.76.76,0,0,1,1.2.92c-1.15,1.48-2.26,3-3.3,4.57A.76.76,0,0,1,272.72,169.32Zm9.63-10.59a.73.73,0,0,1,0-1c1.37-1.34,2.81-2.64,4.28-3.87.76-.64,1.75.51,1,1.14-1.44,1.21-2.85,2.48-4.19,3.8A.77.77,0,0,1,282.35,158.73ZM294,149.29a.73.73,0,0,1,.22-1c1.62-1,3.3-2,5-2.92a.75.75,0,0,1,.74,1.31c-1.67.89-3.32,1.85-4.91,2.87A.77.77,0,0,1,294,149.29Zm13.78-6.47a.82.82,0,0,1-.39-.41.74.74,0,0,1,.42-1c1.81-.68,3.67-1.3,5.52-1.85a.78.78,0,0,1,.95.51.73.73,0,0,1-.5.92c-1.81.54-3.63,1.15-5.4,1.82A.83.83,0,0,1,307.77,142.82Zm14.61-3.9a.76.76,0,0,1-.43-.56.73.73,0,0,1,.61-.85c1.92-.31,3.87-.54,5.8-.7a.76.76,0,0,1,.83.68.73.73,0,0,1-.68.8c-1.89.16-3.81.39-5.68.69A.77.77,0,0,1,322.38,138.92Zm14.72-1.58a.74.74,0,0,1,.78-.71c1.94.09,3.91.25,5.85.49a.74.74,0,1,1-.16,1.48c-1.9-.24-3.83-.4-5.73-.48A.77.77,0,0,1,337.1,137.34Zm47.27,19.56c-4.28-3.77-5.31-3.79-4.62-4.68a.76.76,0,0,1,1.06-.14c1.56,1.18,3.09,2.43,4.56,3.72A.74.74,0,1,1,384.37,156.9ZM352.2,139.4a.73.73,0,0,1,.91-.53c1.89.47,3.79,1,5.64,1.65a.74.74,0,1,1-.46,1.41c-1.82-.61-3.68-1.15-5.53-1.62A.75.75,0,0,1,352.2,139.4Zm19.89,8.71c-4.95-2.84-6-2.66-5.48-3.68a.78.78,0,0,1,1-.34c1.77.84,3.52,1.76,5.21,2.73a.74.74,0,0,1,.29,1A.76.76,0,0,1,372.09,148.11Z"/><path class="cls-2" d="M392.93,165.83c-1.6-2-2.63-2.68-1.86-3.34a.77.77,0,0,1,1.07.09c1.74,2,2.62,2.78,1.86,3.38A.88.88,0,0,1,392.93,165.83Z"/><path class="cls-2" d="M409.31,221.39a.76.76,0,0,1-.44-.78c.12-1,.23-2,.31-2.92A.74.74,0,0,1,410,217a.77.77,0,0,1,.7.81c-.09,1-.19,2-.32,3a.74.74,0,0,1-.84.64A.81.81,0,0,1,409.31,221.39Z"/><path class="cls-2" d="M303,276.56c-1.88-.94-3.75-2-5.56-3a.76.76,0,0,1-.26-1c.6-1,1,0,6.48,2.73a.76.76,0,0,1,.36,1A.79.79,0,0,1,303,276.56Zm9,3c.36-1.1,1-.2,6.9,1.29a.75.75,0,0,1,.56.91.74.74,0,0,1-.91.54c-2-.51-4.07-1.12-6.07-1.79A.76.76,0,0,1,312,279.55Zm-23-11.91c-1.64-1.32-3.25-2.72-4.77-4.16a.75.75,0,0,1,0-1.06c.81-.83.94.22,5.74,4.07a.74.74,0,0,1,.12,1.05A.77.77,0,0,1,289,267.64Zm39.44,16.41a.78.78,0,0,1-.44-.76.74.74,0,0,1,.83-.66c2,.23,4.12.37,6.17.43a.77.77,0,0,1,.75.77.74.74,0,0,1-.77.72c-2.09-.06-4.21-.21-6.3-.44Zm16.36,0a.79.79,0,0,1-.44-.6.73.73,0,0,1,.66-.82c2-.22,4.08-.53,6.09-.91a.77.77,0,0,1,.9.58.73.73,0,0,1-.58.88c-2.05.4-4.15.71-6.22.93A.81.81,0,0,1,344.8,284.08Zm15.91-3.51a.74.74,0,0,1,.06-1.38c1.93-.65,3.85-1.39,5.72-2.2a.76.76,0,0,1,1,.38.72.72,0,0,1-.37,1c-1.91.83-3.87,1.59-5.84,2.25A.75.75,0,0,1,360.71,280.57Zm14.7-6.85a.81.81,0,0,1-.33-.28.74.74,0,0,1,.23-1c1.74-1.05,3.44-2.19,5.08-3.39a.77.77,0,0,1,1.06.16.73.73,0,0,1-.15,1c-1.66,1.22-3.41,2.39-5.18,3.46A.75.75,0,0,1,375.41,273.72Zm12.55-10c-.84-.83.22-.91,4.17-5.47.65-.74,1.81.23,1.16,1-1.35,1.55-2.78,3.07-4.26,4.51A.77.77,0,0,1,388,263.69Zm10.34-12.33c-1-.64,0-.94,2.83-6.27a.76.76,0,0,1,1.34.71c-1,1.82-2,3.62-3.13,5.34A.76.76,0,0,1,398.3,251.36ZM405.53,237a.76.76,0,0,1-.4-.94c.69-1.9,1.31-3.84,1.84-5.78a.74.74,0,0,1,.92-.52.77.77,0,0,1,.54.93c-.54,2-1.17,4-1.87,5.9a.74.74,0,0,1-1,.43Z"/><path class="cls-2" d="M277.25,255.9c-1.65-2.06-2.5-2.9-1.7-3.46s1.19.44,2.88,2.54a.74.74,0,0,1-.12,1A.77.77,0,0,1,277.25,255.9Z"/><path class="cls-3" d="M323.44,208.13a12.44,12.44,0,0,1,14.3-10.47,12.82,12.82,0,0,1,10.87,14.28,12.44,12.44,0,0,1-14.3,10.46h0A12.81,12.81,0,0,1,323.44,208.13Zm11,13.16h0Zm3-21.42a10.2,10.2,0,0,0-11.74,8.6,10.52,10.52,0,0,0,8.93,11.72,10.22,10.22,0,0,0,11.74-8.59A10.53,10.53,0,0,0,337.43,199.87Z"/><path class="cls-3" d="M322.88,238.92h0a32.81,32.81,0,0,1-4.9-2.77,1.13,1.13,0,0,1-.4-1.39l.1-.17a1.15,1.15,0,0,1,1.58-.27A31.53,31.53,0,0,0,325,237.4h0c15.12,6.25,32.31-.36,38.94-14.75.17-.37.33-.74.48-1.12,6.28-15.25-1.32-32.71-16.79-39.12s-33.15.66-39.42,15.87c-3.72,9.06-1.48,15.47-1.91,16.4a1.15,1.15,0,0,1-2.16-.32,31.44,31.44,0,0,1,2.49-18.15c11.61-25.2,48.57-24.17,59.65,1.64a31.44,31.44,0,0,1,.25,24.56c-.17.4-.34.81-.53,1.21a31.31,31.31,0,0,1-16.92,16,32.79,32.79,0,0,1-24.92-.18Q323.5,239.21,322.88,238.92Z"/><path class="cls-4" d="M36.71,276c0,.14,0,.2,0,.25a3.07,3.07,0,0,0,0,.31c0,.33.12.9.26,1.78,1,6.55,4.55,29,7.86,49.79s6.38,40,6.38,40l6.58-1s-.23-1.42-.62-3.9c-1.39-8.7-4.86-30.45-8-50.11-1.56-9.84-3-19.15-4.12-26-.54-3.45-1-6.29-1.29-8.29-.15-1-.27-1.79-.35-2.34,0-.27-.08-.48-.09-.61l0-.13h0l-2,.21,2-.16v-.05l-2,.21,2-.16-3.08.26h3.09a1.23,1.23,0,0,0,0-.26l-3.08.26H36.71Z"/><path class="cls-5" d="M97.2,376.94H102a1.63,1.63,0,0,1,1.63,1.63v76a0,0,0,0,1,0,0H95.58a0,0,0,0,1,0,0v-76A1.63,1.63,0,0,1,97.2,376.94Z" transform="translate(199.22 831.51) rotate(180)"/><path class="cls-5" d="M97.2,435.51H102a1.63,1.63,0,0,1,1.63,1.63v17.44a0,0,0,0,1,0,0H95.58a0,0,0,0,1,0,0V437.13A1.63,1.63,0,0,1,97.2,435.51Z" transform="translate(199.22 890.08) rotate(180)"/><path class="cls-4" d="M82.74,378h33.74a5.31,5.31,0,0,1,5.31,5.31v1.32a0,0,0,0,1,0,0H77.42a0,0,0,0,1,0,0v-1.32A5.31,5.31,0,0,1,82.74,378Z" transform="translate(199.22 762.68) rotate(180)"/><rect class="cls-6" x="50.45" y="362.75" width="98.32" height="15.48" rx="6.2" transform="translate(199.22 740.98) rotate(180)"/><path class="cls-5" d="M57.74,449.92a4.73,4.73,0,1,0,4.72-4.65A4.7,4.7,0,0,0,57.74,449.92Z"/><ellipse class="cls-5" cx="136.76" cy="449.92" rx="4.72" ry="4.65"/><rect class="cls-4" x="91.49" y="429.59" width="16.23" height="13.97" transform="translate(199.22 873.14) rotate(180)"/><path class="cls-6" d="M57.74,440.27h83.74a0,0,0,0,1,0,0v1.3a5.27,5.27,0,0,1-5.27,5.27H63a5.27,5.27,0,0,1-5.27-5.27v-1.3a0,0,0,0,1,0,0Z" transform="translate(199.22 887.11) rotate(180)"/><path class="cls-7" d="M34.73,281.35l3.55,26A6.84,6.84,0,0,0,46,313.1a6.77,6.77,0,0,0,5.88-7.6l-3.55-25.95a6.85,6.85,0,0,0-7.72-5.8,6.77,6.77,0,0,0-5.88,7.6"/><path class="cls-8" d="M262.42,91.45l10.67,57.3a8,8,0,0,1-7.68,9.46l-97.18,2.16a8,8,0,0,1-8-6.31l-13-59.76a8,8,0,0,1,7.85-9.69l99.47.3A8,8,0,0,1,262.42,91.45Z"/><path class="cls-9" d="M265.65,87.57l10.67,57.3a8,8,0,0,1-7.69,9.46l-97.18,2.15a8,8,0,0,1-8-6.3l-13-59.76a8,8,0,0,1,7.85-9.7l99.47.31A8,8,0,0,1,265.65,87.57Z"/><path class="cls-10" d="M255.06,88.38c-1.15-.14-2.31-.23-3.47-.26a13.15,13.15,0,0,0-3.49.28c-.59.15-.41.95.14,1,1.13.11,2.27,0,3.41.08a32.39,32.39,0,0,1,3.41.25.68.68,0,0,0,.68-.68.7.7,0,0,0-.68-.68Z"/><path class="cls-10" d="M243.64,88.2c-2.53-.26-5.08-.41-7.63-.46-1.24,0-2.47,0-3.7.05a18.61,18.61,0,0,0-3.8.36c-.44.11-.31.71.1.75a30.47,30.47,0,0,0,3.7-.07c1.27,0,2.55,0,3.82,0q3.76,0,7.51.29c.57.05.56-.81,0-.87Z"/><path class="cls-10" d="M221.09,87.74c-2.61-.14-5.22-.22-7.83-.21-1.29,0-2.57,0-3.86.06a14.93,14.93,0,0,0-3.83.39c-.37.1-.43.73,0,.8a18.16,18.16,0,0,0,3.83,0c1.29-.06,2.57-.1,3.86-.13,2.61-.06,5.22-.08,7.83,0a.46.46,0,0,0,0-.91Z"/><path class="cls-10" d="M200.31,86.82l-10.63-.13c-1.73,0-3.46-.06-5.19-.07h-2.72a4.75,4.75,0,0,0-2.52.32.58.58,0,0,0,0,1,4.76,4.76,0,0,0,2.52.32h2.59c1.77,0,3.55,0,5.32-.07l10.63-.13a.62.62,0,0,0,0-1.24Z"/><path class="cls-10" d="M261.92,100c-3.51.08-7,.07-10.52,0-1.73-.05-3.47-.11-5.2-.19a26.27,26.27,0,0,0-5.17,0c-.42.06-.35.67,0,.78a21.32,21.32,0,0,0,5.05.58c1.77.1,3.54.17,5.32.21q5.26.11,10.52-.06a.63.63,0,0,0,0-1.26Z"/><path class="cls-10" d="M236.13,100.41a.08.08,0,0,0,0-.15.08.08,0,0,0,0,.15Z"/><path class="cls-10" d="M236.49,99.64h-2a7.94,7.94,0,0,0-1.08.07c-.31,0-.85.22-.85.62s.54.57.85.61a7.94,7.94,0,0,0,1.08.07h2a.7.7,0,0,0,0-1.39Z"/><path class="cls-10" d="M229.67,99.1q-14.19.3-28.4.17l-7.33-.09a.65.65,0,0,0,0,1.3c9.18.09,18.35.2,27.53.11,2.73,0,5.47-.07,8.2-.13a.68.68,0,0,0,0-1.36Z"/><path class="cls-10" d="M260,109.55c-1.41-.2-2.8-.34-4.22-.43a20.43,20.43,0,0,0-4.21-.09.64.64,0,0,0-.62.55.63.63,0,0,0,.45.7,21.29,21.29,0,0,0,4.22.45c1.41.08,2.8.13,4.21.1.69,0,.92-1.17.17-1.28Z"/><path class="cls-10" d="M261.79,116.3a14.67,14.67,0,0,0-6.46,0,.55.55,0,0,0-.38.6.54.54,0,0,0,.53.47,28.38,28.38,0,0,0,3.06.16,28.45,28.45,0,0,1,3,.23.75.75,0,0,0,.2-1.48Z"/><path class="cls-10" d="M250.82,116.39h-1.49c-.24,0-.49.06-.73.09a3.55,3.55,0,0,0-.47.09,1.36,1.36,0,0,0-.39.22.44.44,0,0,0,0,.74,1.36,1.36,0,0,0,.39.22,3.43,3.43,0,0,0,.44.09,6.56,6.56,0,0,0,.76.09h1.49a.78.78,0,0,0,0-1.56Z"/><path class="cls-10" d="M243.89,116.32c-2.36-.56-5.09-.72-7.3.42a.52.52,0,0,0,.26,1c1.12,0,2.23-.08,3.34-.09a13.6,13.6,0,0,1,3.24.38.87.87,0,0,0,.46-1.68Z"/><path class="cls-10" d="M230,115.67c-3.31,0-6.61.07-9.92.16l-4.83.12-2.48.07a4.13,4.13,0,0,0-2.34.38.47.47,0,0,0,0,.81,3.8,3.8,0,0,0,2.22.28l2.47,0,5-.12c3.31-.07,6.62-.2,9.92-.33a.66.66,0,0,0,0-1.32Z"/><path class="cls-10" d="M205.68,115l-4.09-.11-2,0a3.25,3.25,0,0,0-2,.41.48.48,0,0,0-.1.75,2,2,0,0,0,.9.45,8.65,8.65,0,0,0,1.14.13l2,0,4.17.12c1.13,0,1.12-1.71,0-1.75Z"/><path class="cls-10" d="M194.58,115.35l-3.65-.09c-.61,0-1.22,0-1.82,0a4.22,4.22,0,0,0-1.91.23.73.73,0,0,0,0,1.25,4.09,4.09,0,0,0,1.91.23c.6,0,1.21,0,1.82,0l3.65-.09a.75.75,0,0,0,0-1.49Z"/><path class="cls-10" d="M265.5,124.18a22.14,22.14,0,0,0-6,.34.92.92,0,1,0,.49,1.78,20.86,20.86,0,0,1,5.48-.38.88.88,0,0,0,.88-.87.91.91,0,0,0-.88-.87Z"/><path class="cls-10" d="M263,132.66c-3.35,0-6.7-.09-10.05-.08h-7.43a2.79,2.79,0,0,0-2.13.52.39.39,0,0,0,0,.53,2.62,2.62,0,0,0,2,.52H253c3.35,0,6.7-.06,10.05-.1a.71.71,0,0,0,0-1.41Z"/><path class="cls-10" d="M240.29,132.13a14.15,14.15,0,0,0-2.43-.39,6.09,6.09,0,0,0-1.28,0l-.55.08a1.34,1.34,0,0,0-.64.37.55.55,0,0,0,.11.85,1.5,1.5,0,0,0,.68.24l.58.05c.35,0,.7,0,1.06.06l.53,0,.12,0h0l.24,0a10.62,10.62,0,0,1,1.12.24.84.84,0,0,0,.44-1.62Z"/><path class="cls-10" d="M239,132.21l-2.65,0a9.15,9.15,0,0,0-1.28.07c-.42.06-1.15.08-1.15.67s.73.62,1.15.67a9.15,9.15,0,0,0,1.28.07l2.65,0a.72.72,0,0,0,.72-.72.74.74,0,0,0-.72-.72Z"/><path class="cls-10" d="M228.62,132.16c-7.05-.45-14.13-.39-21.19-.33s-14.12.2-21.18.4c-2,.05-4,.11-6,.18a50.64,50.64,0,0,0-5.91.3c-.83.13-.55,1.32.18,1.38a48,48,0,0,0,5.36-.12l5.23-.15q5.3-.13,10.59-.21c7-.1,14-.07,20.94-.11,4,0,8,0,12-.13a.61.61,0,0,0,0-1.21Z"/><path class="cls-10" d="M270.16,143.25q-13.35,0-26.71-.34l-3.72-.1a15.25,15.25,0,0,0-3.76.1.6.6,0,0,0,0,1.15,12.7,12.7,0,0,0,3.26.31l3.35.1c2.24.07,4.48.12,6.71.17q6.65.15,13.29.21c2.53,0,5.06,0,7.58,0a.82.82,0,0,0,0-1.64Z"/><path class="cls-10" d="M231.84,142.52l-3.29,0a15.16,15.16,0,0,0-1.65.05,4.26,4.26,0,0,0-1.63.31.49.49,0,0,0,0,.84,4.5,4.5,0,0,0,1.63.31,13,13,0,0,0,1.65,0l3.29,0a.8.8,0,0,0,0-1.6Z"/><path class="cls-10" d="M221.43,143.12c-4.8.17-9.62.23-14.43.13-2.39-.05-4.77-.14-7.16-.27-1.19-.07-2.38-.14-3.57-.23l-1.72-.14c-.66-.05-1.36,0-2-.13l.47.36-.09-.12a1,1,0,1,0-.15,1.17l.11-.11-.55.23c1.23,0,2.47.23,3.69.32s2.47.16,3.7.23c2.38.12,4.77.21,7.15.25,4.86.08,9.71,0,14.56-.35.86-.06.87-1.37,0-1.34Z"/><path class="cls-9" d="M361.72,437.24s1.13,6.08,1.72,12.11a4.15,4.15,0,0,1-3.93,4.54c-8,.41-25.21,1.23-31.38,1a1.35,1.35,0,0,1-1.2-1.84h0a3,3,0,0,1,1.53-1.65l28.25-13.31Z"/><path class="cls-11" d="M362.57,433.65l-.8,7.3s-4.95,2.36-8.37-.21l2-8.14Z"/><path class="cls-12" d="M360.61,296.64c.39,1.9,2.91,95-6.64,136.76a1.41,1.41,0,0,0,.84,1.64,24.82,24.82,0,0,0,8.12,1.57,2.43,2.43,0,0,0,2.4-1.77c2.76-9.71,15.92-58.32,17.26-104.66,1.49-51.77,0-1.76,0-1.76l-1.47-32Z"/><path class="cls-9" d="M394.39,440.11s1.75,3.06,3.48,11.22a2.52,2.52,0,0,1-2.2,3.05c-2.65.29-6.73.66-10,.67a2.52,2.52,0,0,1-2.53-2.79A21.34,21.34,0,0,1,388,440.52Z"/><path class="cls-13" d="M395.81,430.72l-1.92,11s-2,1.51-5.94.47l.85-11.87Z"/><path class="cls-12" d="M400,299.12c8.61,49-.6,121.39-3.81,135.56a2.19,2.19,0,0,1-1.76,1.69,14.68,14.68,0,0,1-6.37-.19,2,2,0,0,1-1.47-1.85c-.56-11.43-.42-81.63-8.27-109.31a6.33,6.33,0,0,0-2.46-3.45l-14.82-10.32-1.29-16.9Z"/><path class="cls-14" d="M347.28,206.56c24.38-.63,51.35,5.92,51.35,5.92,7.67,42.34,2.14,91.32,2.14,91.32-18.83,5.13-40.2-2.65-40.2-2.65-3.31-17.69-18.42-67.44-18.42-67.44a80.43,80.43,0,0,1-29.91-9.18c6.1-7.21,8.92-16.33,10.13-21.71A81.94,81.94,0,0,0,347.28,206.56Z"/><path class="cls-15" d="M274.91,171.33a4.66,4.66,0,0,1,5.41-1.57c3.73,15.12,22.66,27.23,42.05,33.06-1.21,5.38-4,14.5-10.13,21.71C280,206.8,274.91,171.33,274.91,171.33Z"/><path class="cls-16" d="M275.49,172.06c-.24.8,2.68,2,4.35-1.29.05-1.56.93-8.26,0-9.52-5-6.73-14.75-15.13-14.75-15.13a2.28,2.28,0,0,0-.26,3.18l4.72,4.83c-1,1.78-2.14,3.28-2.68,5.42a6.57,6.57,0,0,0,.7,4.82,57.11,57.11,0,0,0,3.05,4.87A6.44,6.44,0,0,0,275.49,172.06Z"/><path class="cls-17" d="M271.62,157.27l4.29,3.57,1.37,3.58-3.76,4.25s-1.34-7.12-2.31-8.65S270.74,157.73,271.62,157.27Z"/><path class="cls-14" d="M389.5,236.18l9.13-23.7s22.92,15.26,26.86,34.84a53.85,53.85,0,0,0-19.75,5.5C404,243.57,389.5,236.18,389.5,236.18Z"/><path class="cls-18" d="M369.81,258.59s25.71,14.21,34.22,1.78a9.7,9.7,0,0,0,1.71-7.55,53.85,53.85,0,0,1,19.75-5.5,27.11,27.11,0,0,1-2.77,18.6c-14.85,27.79-56.24-1-56.24-1Z"/><path class="cls-19" d="M371.79,186.53l8,22.37a.8.8,0,0,1-.36,1c-2.1,1.19-9.69,4.65-18.93-1.09a3.83,3.83,0,0,1-1.78-2.7L356,186.68Z"/><path class="cls-20" d="M354.71,165.92s-8.37,16.11-7.22,22.58,11.71,5.9,20.88.56l6.28-17.38Z"/><path class="cls-5" d="M367.89,180.55a.66.66,0,0,1-.3-1,17.31,17.31,0,0,0,2.32-5.06s1.52-1-3.92-2.24-13.56-3.19-15.31-7.79,2.55-15.87,9.6-6.9a.65.65,0,0,0,1,0c1.13-1.49,4.1-4.6,8.28-2.77,3.91,1.71,4.38,4.56,4.34,6a.65.65,0,0,0,.78.66c2-.39,6.69-.76,8.94,4.07,1.86,4,.7,6.24-.37,7.36a.66.66,0,0,0,.3,1.09c1.29.39,3,1.47,2.84,4.5-.19,4.2-4.88,3.87-6.22,3.69a.66.66,0,0,0-.59.22c-1.13,1.27-6.23,6.7-11.81,7.4a.66.66,0,0,1-.7-.87l2.34-7.05a.67.67,0,0,0-.36-.82Z"/><path class="cls-21" d="M366.92,181.56s6-4.22,6.51-.72-5.42,5.13-8.35,3.85Z"/><path class="cls-9" d="M375.06,281l-14-48.91a1.44,1.44,0,0,0-1.21-1c-2.54-.29-9.89-1.12-18.38-1.84-10.22-.87-22.1-1.57-29.2-1a1.43,1.43,0,0,0-1.17,2.06c4,8.16,20.64,41.37,28.95,52.25a1.46,1.46,0,0,0,1.16.57l32.49-.3A1.43,1.43,0,0,0,375.06,281Z"/><path class="cls-22" d="M371.68,269.22s1.95-8,1.16-10.86-2.31-6.51-7.39-5.7a75.14,75.14,0,0,0-11.08,3s.3,3.71,4.17,2.51l-2.4,1.85s.34,3,3.61,1.39l-2.23,2.45a2.6,2.6,0,0,0,3.8.88C363.72,263.13,364.87,270.19,371.68,269.22Z"/><path class="cls-2" d="M342.41,243.86a4.12,4.12,0,1,1-4.12-4.11A4.12,4.12,0,0,1,342.41,243.86Z"/><path class="cls-2" d="M359.47,246.57l1-.31-2.85-9.67a4.42,4.42,0,0,0-3.32-3.09c-9-1.89-32.84-2.27-33.85-2.29l0,1.1c.25,0,24.71.39,33.65,2.26a3.31,3.31,0,0,1,2.49,2.33Z"/><path class="cls-17" d="M154.77,336s8.5,1.42,18.07,8.31a5.29,5.29,0,0,1,2.1,4.91c-1.15,9.77-5.85,41.4-21.38,72.29a8.32,8.32,0,0,0-.69,5.34l2.69,13.52,5,5.05H147.68l-8.58-25,3.67-1.25a7.43,7.43,0,0,0,4.85-7l.43-26.83a31.78,31.78,0,0,1,6.8-20.2L134.27,364Z"/><path class="cls-5" d="M165.6,447.85c1.17,1.66-12.63,3.84-19.61.22,0,0-9.66-18.12-9.66-27.45,0,0,.76-1.9,6.44-1.47,0,0,3.25,21.46,6.67,23.86s9.59.24,9.59.24S163.87,445.41,165.6,447.85Z"/><path class="cls-23" d="M136.88,365.51c.11-.2,22.15-2.85,22.15-2.85a59,59,0,0,0,1.54,17.16c2.25,9.94,34.62,53,34.62,53l-3.39,11.59a50.86,50.86,0,0,0,31,2l-21-13.6S182.05,360.56,170,347.67l-22.1-8.24Z"/><path class="cls-9" d="M87.43,323.47s-12.7,20.35-13.74,29.63,3.48,13.06,16.81,13.68,48.9.61,48.9.61l30.37-28s-22.13-8.5-27.88-10.91S87.43,323.47,87.43,323.47Z"/><path class="cls-5" d="M193.08,440.52s-3.65,3.81-1.19,8.05c0,0,29,5.53,36.81,3,0,0-1.63-4-10.48-8.58l.65.54a1.15,1.15,0,0,1-.7,2C212.34,445.24,200.27,444.09,193.08,440.52Z"/><path class="cls-5" d="M142.46,194.39c-26-4.75-38.19,18.06-37.3,22.86a.84.84,0,0,1-1,1c-3-.86-9.57-1.95-13.65,3.56-3.6,4.86-.91,9.45,1.29,12a.88.88,0,0,1-.69,1.49c-5.48-.74-17.39-.92-19.33,11.1-1.82,11.21,5.42,14.37,9.71,15.26a.9.9,0,0,1,.28,1.6c-2.15,1.47-4.63,4.49-3.63,10.46,1.58,9.36,18.61,8.6,20.6,8.47a.66.66,0,0,0,.35-.11l27.28-16.76a.9.9,0,0,0,.41-.62l5.5-34.26a.93.93,0,0,0-.21-.77l17.78-27C156.29,201.58,142.76,194.45,142.46,194.39Z"/><path class="cls-24" d="M121.79,320.77s14.79-15.17,22.07-25.22a22.66,22.66,0,0,0,3.35-19.19c-3.32-12.07-9.23-24.56-9.77-26.51-.83-3-17.41-2.85-17.41-2.85s-32.64,22.81-45.46,61.47L89,313.3s8.52-15.4,16.94-25.2c0,0-14.57,20.74-15.08,29.22Z"/><path class="cls-25" d="M139.45,233.19c-.18.62-4.51,16.08-4.85,16.4s-9.49.86-13.8-2.32l10.69-22.52Z"/><path class="cls-26" d="M156.8,213.33s2.09,8.86-3.7,20.77-12.34,11.9-15.92,8.08-8-10.28-7-21.8S153.78,202.06,156.8,213.33Z"/><path class="cls-5" d="M138.24,221s9.6-15.81,18.61-3.37l.16,4.53s10.55-1.35,8.7-11.77-11-16.93-22.7-12.41-18.46,9.14-19.22,18.2,5.93,7.07,5.93,7.07,2.19-6.38,5.29-7,2.3,4.31,2.3,4.31Z"/><path class="cls-27" d="M135.78,220.8s5-8.1-.12-9.31-4.32,7.89-3.76,11.26Z"/><path class="cls-28" d="M151.92,321.9l-10.87-11.29-15,6.85s-15,2.49-23.53,0L93.92,315l-19.35-6.49-3,9.25a5.81,5.81,0,0,0,1.89,6.4,33.85,33.85,0,0,0,4.89,3.28c2.55,1.2,62.83-.83,62.83-.83Z"/><path class="cls-5" d="M110.79,327.22h.15l63-.07a3,3,0,0,0,0-6.08l-63,.07a3.06,3.06,0,0,0-.14,6.08Z"/><path class="cls-5" d="M230.65,265.56h-52.5a10,10,0,0,0-9.05,6.18l-24.27,55.44h65.24a6.11,6.11,0,0,0,5.66-4.14l18.82-51.31C235.64,268.77,233.61,265.56,230.65,265.56Z"/><path class="cls-29" d="M193.66,294c-1.13,3.81-.29,7.51,1.88,8.26s4.86-1.72,6-5.53.29-7.5-1.88-8.25S194.8,290.18,193.66,294Z"/><rect class="cls-7" x="267" y="334.83" width="7.03" height="122.73"/><rect class="cls-7" x="161.03" y="334.83" width="7.03" height="122.73"/><rect class="cls-30" x="155.75" y="327.18" width="125.33" height="8.57" rx="3.57"/><path class="cls-8" d="M187.5,52.75l-64.1,1.19a4.53,4.53,0,0,0-4.4,5.19l1.11,7.54a4.53,4.53,0,0,0,4.52,3.87l64.28-.47a4.54,4.54,0,0,0,4.45-5.24l-1.29-8.25A4.53,4.53,0,0,0,187.5,52.75Z"/><path class="cls-31" d="M262.62,56l.36,2.12a5.85,5.85,0,0,1-5.65,6.8l-7.94.15-39,.75a5.83,5.83,0,0,1-5.92-5.23L204.24,58A5.84,5.84,0,0,1,210,51.59l46.82-.43A5.82,5.82,0,0,1,262.62,56Z"/><path class="cls-9" d="M190.17,49.9l-64.1,1.19a4.54,4.54,0,0,0-4.41,5.2l1.11,7.53a4.54,4.54,0,0,0,4.53,3.88l64.28-.48A4.54,4.54,0,0,0,196,62l-1.29-8.25A4.54,4.54,0,0,0,190.17,49.9Z"/><path class="cls-32" d="M185.75,55l-3.29.2c-.53,0-1.06,0-1.59.12a2.85,2.85,0,0,0-1.5.36.24.24,0,0,0,0,.37,2.73,2.73,0,0,0,1.45.14c.55,0,1.1-.06,1.65-.1l3.23-.25c.53,0,.54-.87,0-.84Z"/><path class="cls-32" d="M172,55.38c-2.69-.15-5.36-.22-8.05-.21-1.33,0-2.65,0-4,.09-1.16.05-2.67-.08-3.72.47a.29.29,0,0,0,.07.52,5.16,5.16,0,0,0,1.8.08c.66,0,1.32-.08,2-.1,1.32,0,2.64-.06,4-.06,2.65,0,5.28.08,7.93,0a.41.41,0,0,0,0-.81Z"/><path class="cls-32" d="M153.19,55.26a18.58,18.58,0,0,0-3.94.35c-.27.07-.3.53,0,.58a18.54,18.54,0,0,0,3.94,0,.46.46,0,0,0,.45-.45.45.45,0,0,0-.45-.44Z"/><path class="cls-32" d="M146.13,55.43a63.2,63.2,0,0,0-7.41-.25c-1.22,0-2.43.1-3.65.19-.6.05-1.21.09-1.81.16a2.43,2.43,0,0,0-1.44.47.33.33,0,0,0,.07.5,2.67,2.67,0,0,0,1.61.12l1.7-.16c1.21-.1,2.42-.17,3.64-.21q3.65-.14,7.29,0c.54,0,.52-.78,0-.82Z"/><path class="cls-32" d="M186.24,61.19a15.92,15.92,0,0,0-5.29-.28l-5.81.14-5.68.13-3,.07c-.79,0-1.83-.15-2.49.37a.38.38,0,0,0,.08.59c.65.46,1.79.21,2.54.19l2.84-.08,5.56-.15,5.56-.16,2.72-.07a8.68,8.68,0,0,1,2.69.16.47.47,0,0,0,.25-.91Z"/><path class="cls-32" d="M161.41,61.21q-1,0-1.95-.09l-.94-.06a1.33,1.33,0,0,0-1,.24.33.33,0,0,0-.05.41,1.17,1.17,0,0,0,.93.45c.35.05.7.09,1,.11.66,0,1.33,0,2,0a.53.53,0,1,0,0-1Z"/><path class="cls-32" d="M153.86,61.11c-4,0-7.93,0-11.9.08h-6c-.95,0-1.9,0-2.85,0-.75,0-2-.21-2.44.5a.37.37,0,0,0,0,.38c.47.68,1.59.48,2.31.48,1,0,2,0,3,0l6-.14c4-.08,7.94-.19,11.9-.4a.44.44,0,0,0,0-.87Z"/><path class="cls-32" d="M255.27,58.7a12.21,12.21,0,0,0-2.5-2.26,2,2,0,0,0-2.63-.11c-1,.81-1.93,1.7-2.89,2.54a4.59,4.59,0,0,1-1.35,1.06c-.39.14-.66-.09-.93-.36a5.07,5.07,0,0,0-1.62-1.44,2.36,2.36,0,0,0-2.09.32c-.59.34-1.3,1.09-2,.6a3.43,3.43,0,0,0-1.13-.71,2.61,2.61,0,0,0-1.56.15,14,14,0,0,1-1.78.64,5.28,5.28,0,0,1-1.9,0A20,20,0,0,1,229,58c-.49-.18-.8.59-.35.84,2,1.07,4.09,2,6.37,1.53.91-.2,2.26-1.31,3.13-.67a3.86,3.86,0,0,0,1.07.76,1.93,1.93,0,0,0,1.14,0c.72-.25,1.21-.89,1.89-1.21s1.22.38,1.65.88a2.42,2.42,0,0,0,1.73,1.08c1,0,1.76-1,2.41-1.63L249.54,58c.48-.46,1.18-1.46,1.93-1.35a4.74,4.74,0,0,1,1.84,1.2,13.06,13.06,0,0,1,1.37,1.41c.34.41.94-.18.59-.6Z"/><rect class="cls-33" y="455.13" width="502.18" height="6.97" transform="translate(502.18 917.23) rotate(180)"/><path class="cls-24" d="M453.41,409.9s.65,1.92,1.33,4.32a41.67,41.67,0,0,1,1.56,7.31l-1.15.08a41,41,0,0,0-1.52-7.07c-.33-1.19-.66-2.26-.91-3s-.4-1.24-.4-1.25l1.09-.36Z"/><path class="cls-24" d="M463.73,410.85l-.06.55c-.1,1.06-.31,3.53-.31,6.22a36.39,36.39,0,0,0,.17,3.78l-1.15.12c-.13-1.28-.18-2.62-.18-3.9a67.53,67.53,0,0,1,.38-6.91l1.15.14Z"/><path class="cls-24" d="M469.45,418.48h0a5.32,5.32,0,0,0-.49.72,3,3,0,0,0-.41,1.39h-1.15a4.1,4.1,0,0,1,.6-2,5.27,5.27,0,0,1,.61-.85l.85.78Z"/><path class="cls-24" d="M454.79,411.07s5.91-7.5-3.18-23.08-27.84-19.33-28.7-17.32,9.52,5.92,12.4,17.89,3.27,18.61,6.88,22.22S450.7,415.83,454.79,411.07Z"/><path class="cls-24" d="M467,412.58s.65-8.44,15.93-13.13,29.74,4.11,29.09,5.95-9.75-1.86-18.82,4.21-13.3,10.16-17.81,10.34S466.77,418.13,467,412.58Z"/><path class="cls-24" d="M457.78,407.05s-10.19-10.94,1.62-28.44,37.87-18.73,38.73-16.3-10.2,7-14.49,20.77-6.63,20.67-11.12,24.6S462.19,412.93,457.78,407.05Z"/><path class="cls-34" d="M452.38,408.75a.44.44,0,0,0,.16,0,.58.58,0,0,0,.4-.71c-.26-.95-6.6-23.43-18.32-32a.58.58,0,0,0-.68.93c11.39,8.35,17.82,31.17,17.89,31.4A.56.56,0,0,0,452.38,408.75Z"/><path class="cls-34" d="M464.18,405.91a.64.64,0,0,0,.58-.44,2.43,2.43,0,0,0,.07-.62c.53-7.91,3.89-34.14,25.06-39.68a.58.58,0,1,0-.29-1.12c-21.91,5.74-25.38,32.62-25.92,40.72q0,.33,0,.42a.54.54,0,0,0,.37.69A.45.45,0,0,0,464.18,405.91Z"/><g class="cls-35"><path class="cls-24" d="M471.31,416.41c.26,0,.52-.23,1.36-1,9.5-8.6,18.64-12.66,27.2-12.11a.58.58,0,1,0,.08-1.15c-8.89-.59-18.32,3.59-28.05,12.4-.34.31-.68.62-.82.72a.59.59,0,0,0-.35.36.58.58,0,0,0,.37.73A.56.56,0,0,0,471.31,416.41Z"/></g><path class="cls-36" d="M447.7,455.5h29.76a1.59,1.59,0,0,0,1.56-1.24l7.79-33.67H438.34l7.79,33.67A1.61,1.61,0,0,0,447.7,455.5Z"/><polygon class="cls-37" points="484.55 430.38 440.61 430.38 438.34 420.59 486.81 420.59 484.55 430.38"/><polygon class="cls-36" points="486.36 422.57 438.8 422.57 438.34 420.59 486.81 420.59 486.36 422.57"/></g></g></svg>