<svg xmlns="http://www.w3.org/2000/svg" xmlns:xlink="http://www.w3.org/1999/xlink" width="65.071" height="65.071" viewBox="0 0 65.071 65.071">
  <defs>
    <filter id="Rectangle_92" x="0" y="0" width="65.071" height="65.071" filterUnits="userSpaceOnUse">
      <feOffset dy="3" input="SourceAlpha"/>
      <feGaussianBlur stdDeviation="3" result="blur"/>
      <feFlood flood-opacity="0.161"/>
      <feComposite operator="in" in2="blur"/>
      <feComposite in="SourceGraphic"/>
    </filter>
  </defs>
  <g id="Group_1169" data-name="Group 1169" transform="translate(9 6)">
    <g transform="matrix(1, 0, 0, 1, -9, -6)" filter="url(#Rectangle_92)">
      <rect id="Rectangle_92-2" data-name="Rectangle 92" width="47.071" height="47.071" rx="8" transform="translate(9 6)" fill="#fadc9b"/>
    </g>
    <g id="hands-holding-heart" transform="translate(9.153 9.152)">
      <path id="Path_974" data-name="Path 974" d="M239.046,111.5l-.515-7.517a1.822,1.822,0,0,0-3.639.143l.061,6.128-2.654,3.4a1.707,1.707,0,0,1-1.765.6l2.888-3.75a1.618,1.618,0,0,0-.192-2.171,1.609,1.609,0,0,0-2.321.162l-4.363,5.254a4.771,4.771,0,0,0-1.1,3.09l.068,6.978a.508.508,0,0,0,.507.5l7.265.01h0a.507.507,0,0,0,.506-.551l-.3-3.415,4.823-6.409A3.658,3.658,0,0,0,239.046,111.5Zm-1.538,1.839-4.94,6.565a.508.508,0,0,0-.1.349l.265,3.057-6.209-.008-.063-6.476a3.754,3.754,0,0,1,.865-2.432l4.363-5.254a.594.594,0,0,1,.856-.06.6.6,0,0,1,.071.8l-3.277,4.256a.508.508,0,0,0,.122.733,2.725,2.725,0,0,0,3.636-.591l2.764-3.54a.508.508,0,0,0,.108-.317l-.063-6.305a.807.807,0,0,1,1.611-.063l.515,7.517A2.643,2.643,0,0,1,237.509,113.339Z" transform="translate(-210.289 -95.364)" fill="#fff"/>
      <path id="Path_975" data-name="Path 975" d="M9.592,108.492a1.609,1.609,0,0,0-2.32-.162A1.618,1.618,0,0,0,7.08,110.5l2.888,3.75a1.707,1.707,0,0,1-1.765-.6l-2.654-3.4.061-6.128a1.822,1.822,0,0,0-3.639-.143L1.456,111.5a3.659,3.659,0,0,0,.726,2.449l4.823,6.409-.3,3.415a.507.507,0,0,0,.506.551h0l7.265-.01a.508.508,0,0,0,.507-.5l.068-6.978a4.771,4.771,0,0,0-1.1-3.09ZM13.976,123.3l-6.208.008.265-3.057a.507.507,0,0,0-.1-.349l-4.94-6.565a2.643,2.643,0,0,1-.525-1.77l.515-7.517a.807.807,0,0,1,.8-.751l.06,0a.808.808,0,0,1,.748.812l-.063,6.305a.507.507,0,0,0,.108.317l2.764,3.54a2.725,2.725,0,0,0,3.636.591.508.508,0,0,0,.122-.733l-3.277-4.256a.6.6,0,0,1,.071-.8.594.594,0,0,1,.856.06l4.363,5.254a3.754,3.754,0,0,1,.865,2.432Z" transform="translate(-1.447 -95.366)" fill="#fff"/>
      <path id="Path_976" data-name="Path 976" d="M86.986,5.711a5.711,5.711,0,0,0-9.749-4.038l-.193.193-.193-.193a5.711,5.711,0,1,0-8.077,8.077l7.911,7.911a.508.508,0,0,0,.718,0l7.911-7.911A5.673,5.673,0,0,0,86.986,5.711ZM77.044,16.583,69.492,9.031A4.7,4.7,0,1,1,76.133,2.39l.552.552a.508.508,0,0,0,.718,0l.552-.552A4.7,4.7,0,1,1,84.6,9.032Z" transform="translate(-62.661)" fill="#fff"/>
    </g>
  </g>
</svg>
