<svg xmlns="http://www.w3.org/2000/svg" viewBox="0 0 17.57 17.57"><defs><style>.cls-1{fill:#535453;}</style></defs><g id="Layer_2" data-name="Layer 2"><g id="Layer_1-2" data-name="Layer 1"><path class="cls-1" d="M12.81,0h-8A4.76,4.76,0,0,0,0,4.76v8.05a4.76,4.76,0,0,0,4.76,4.76h8.05a4.76,4.76,0,0,0,4.76-4.76v-8A4.76,4.76,0,0,0,12.81,0Zm-4,13.59a4.81,4.81,0,1,1,4.81-4.81A4.82,4.82,0,0,1,8.78,13.59ZM13.7,5.11a1.42,1.42,0,1,1,1.42-1.42A1.42,1.42,0,0,1,13.7,5.11Z"/><path class="cls-1" d="M8.78,5a3.78,3.78,0,1,0,3.78,3.77A3.77,3.77,0,0,0,8.78,5Z"/><path class="cls-1" d="M13.7,3.3a.4.4,0,0,0-.39.39.39.39,0,0,0,.39.39.38.38,0,0,0,.39-.39A.39.39,0,0,0,13.7,3.3Z"/></g></g></svg>