<svg xmlns="http://www.w3.org/2000/svg" width="17.572" height="17.572" viewBox="0 0 17.572 17.572">
  <g id="instagram" transform="translate(0)">
    <path id="Path_1873" data-name="Path 1873" d="M12.815,0H4.756A4.762,4.762,0,0,0,0,4.757v8.059a4.762,4.762,0,0,0,4.757,4.757h8.059a4.762,4.762,0,0,0,4.757-4.757V4.757A4.762,4.762,0,0,0,12.815,0ZM8.785,13.591a4.8,4.8,0,1,1,4.8-4.8A4.81,4.81,0,0,1,8.785,13.591ZM13.7,5.114a1.42,1.42,0,1,1,1.42-1.42A1.421,1.421,0,0,1,13.7,5.114Zm0,0" transform="translate(0.001 0)" fill="#535353"/>
    <path id="Path_1874" data-name="Path 1874" d="M149.795,146.02a3.775,3.775,0,1,0,3.775,3.775A3.779,3.779,0,0,0,149.795,146.02Zm0,0" transform="translate(-141.008 -141.008)" fill="#535353"/>
    <path id="Path_1875" data-name="Path 1875" d="M388.382,96.3a.39.39,0,1,0,.39.39A.39.39,0,0,0,388.382,96.3Zm0,0" transform="translate(-374.676 -92.996)" fill="#535353"/>
  </g>
</svg>
