<svg xmlns="http://www.w3.org/2000/svg" xmlns:xlink="http://www.w3.org/1999/xlink" width="65.071" height="65.071" viewBox="0 0 65.071 65.071">
  <defs>
    <filter id="Path_1208" x="0" y="0" width="65.071" height="65.071" filterUnits="userSpaceOnUse">
      <feOffset dy="3" input="SourceAlpha"/>
      <feGaussianBlur stdDeviation="3" result="blur"/>
      <feFlood flood-opacity="0.161"/>
      <feComposite operator="in" in2="blur"/>
      <feComposite in="SourceGraphic"/>
    </filter>
  </defs>
  <g id="Group_1168" data-name="Group 1168" transform="translate(-14.535 -19.497)">
    <g transform="matrix(1, 0, 0, 1, 14.54, 19.5)" filter="url(#Path_1208)">
      <path id="Path_1208-2" data-name="Path 1208" d="M5.23,0H41.841a5.23,5.23,0,0,1,5.23,5.23V41.841a5.23,5.23,0,0,1-5.23,5.23H5.23A5.23,5.23,0,0,1,0,41.841V5.23A5.23,5.23,0,0,1,5.23,0Z" transform="translate(9 6)" fill="#b2b2b2"/>
    </g>
    <path id="recovery" d="M29.873,28.584v-.958H27.55c-.009-.019-.02-.036-.03-.054l1.489-.315-.2-.937-2.158.457a4.518,4.518,0,0,0-.568-.262l.451-.286-.513-.809-1.188.754c-.235-.045-.478-.082-.725-.112a.468.468,0,0,0-.011-.236l-1.916-5.748a.478.478,0,0,0-.36-.318l-4.4-.881V15.411h2.874a.477.477,0,0,0,.339-.14l3.353-3.353a.478.478,0,0,0,0-.677l-1.3-1.3V7.577L27.676,5.31a.479.479,0,0,0,0-.872L22.407,2.043a.479.479,0,0,0-.677.436V9.944l-2.593,2.593H16.682a2.874,2.874,0,1,0-4.273,0H11.192a.479.479,0,0,0-.362.165l-2.554,2.94a2.4,2.4,0,0,0-.38,2.543l1.421,3.2a.479.479,0,0,0,.652.234l1.7-.849-.475,9.468a.479.479,0,0,0,.479.5h2.395a.479.479,0,0,0,.476-.426l.9-8.083,4.5.818,1.14,3.039c-.183.025-.364.053-.539.087l-1.188-.754-.513.809.451.286a4.417,4.417,0,0,0-.568.262l-2.158-.457-.2.937,1.489.315c-.01.018-.021.036-.03.054H15.5v.958h2.323c.009.019.02.036.03.054l-1.489.315.2.937,2.158-.457a4.519,4.519,0,0,0,.568.262l-.451.286.513.809,1.188-.754a11.365,11.365,0,0,0,1.669.185v.519h.958v-.518a11.365,11.365,0,0,0,1.669-.185l1.188.754.513-.809-.451-.286a4.417,4.417,0,0,0,.568-.262l2.158.457.2-.937-1.489-.315c.01-.018.021-.036.03-.054h2.322Zm-11.2-.479c0-.411,1.523-1.168,4.012-1.168S26.7,27.693,26.7,28.1s-1.523,1.168-4.012,1.168S18.677,28.516,18.677,28.1ZM22.688,3.223,26.32,4.874,22.688,6.525Zm-10.059,7.4a1.916,1.916,0,1,1,3.329,1.284.947.947,0,0,1-.455-.8h-.958a1.912,1.912,0,0,0,.558,1.345,1.888,1.888,0,0,1-.558.092A1.918,1.918,0,0,1,12.629,10.622Zm-1.812,6.829.854-.854V19.16Zm9.562,4.7L15.11,21.2a.469.469,0,0,0-.372.087.478.478,0,0,0-.19.331l-.911,8.167H12.175l.455-9.072V15.44a.479.479,0,0,0-.818-.339L9.9,17.018a.479.479,0,0,0-.09.553l1.223,2.445-1.039.52L8.772,17.8A1.441,1.441,0,0,1,9,16.27l2.41-2.774h7.924a.477.477,0,0,0,.339-.14l2.535-2.535.76.76-2.874,2.874H16.94a.479.479,0,0,0-.479.479v4.34a.479.479,0,0,0,.385.469l4.517.9,1.665,4.993-1,.25-1.287-3.432a.481.481,0,0,0-.363-.3Z" transform="translate(28.265 32.624)" fill="#fff"/>
  </g>
</svg>
