<svg xmlns="http://www.w3.org/2000/svg" width="1366.682" height="1452.47" viewBox="0 0 1366.682 1452.47">
  <g id="Group_1158" data-name="Group 1158" transform="translate(0.087 -3226.508)">
    <path id="Path_1206" data-name="Path 1206" d="M1990,3227s552,97.112,422.78,243.567-236.912-213.221,0-124.917-30.152,467.363,174.453,579.358,103.38-232.6-45.229-127.071,79.689,394.136,213.221,372.6S2916.757,4121,2989.984,4265.3s-271.372-15.075-21.537-94.764,6.461,363.983,139.993,415.672,103.38-28,135.686-86.149,111.995,178.761,111.995,178.761" transform="translate(-1990)" fill="none" stroke="#033cfb" stroke-width="1" opacity="0.61"/>
    <g id="Group_734" data-name="Group 734" transform="translate(1105.906 3377.676)">
      <line id="Line_21" data-name="Line 21" y2="142.858" transform="translate(0)" fill="none" stroke="#ff7b6b" stroke-linecap="round" stroke-width="2" stroke-dasharray="12 18" opacity="0.58"/>
      <line id="Line_21-2" data-name="Line 21" y2="142.858" transform="translate(15.636)" fill="none" stroke="#ff7b6b" stroke-linecap="round" stroke-width="2" stroke-dasharray="12 18" opacity="0.58"/>
      <line id="Line_21-3" data-name="Line 21" y2="142.858" transform="translate(31.272)" fill="none" stroke="#ff7b6b" stroke-linecap="round" stroke-width="2" stroke-dasharray="12 18" opacity="0.58"/>
      <line id="Line_21-4" data-name="Line 21" y2="142.858" transform="translate(46.909)" fill="none" stroke="#ff7b6b" stroke-linecap="round" stroke-width="2" stroke-dasharray="12 18" opacity="0.58"/>
      <line id="Line_21-5" data-name="Line 21" y2="142.858" transform="translate(62.545)" fill="none" stroke="#ff7b6b" stroke-linecap="round" stroke-width="2" stroke-dasharray="12 18" opacity="0.58"/>
      <line id="Line_21-6" data-name="Line 21" y2="142.858" transform="translate(78.181)" fill="none" stroke="#ff7b6b" stroke-linecap="round" stroke-width="2" stroke-dasharray="12 18" opacity="0.58"/>
    </g>
  </g>
</svg>
