<svg id="Layer_2" data-name="Layer 2" xmlns="http://www.w3.org/2000/svg" xmlns:xlink="http://www.w3.org/1999/xlink" width="426.309" height="334.8" viewBox="0 0 426.309 334.8">
  <defs>
    <linearGradient id="linear-gradient" x1="0.516" y1="4.473" x2="0.531" y2="8.117" gradientUnits="objectBoundingBox">
      <stop offset="0" stop-color="#2b3582"/>
      <stop offset="1" stop-color="#150e42"/>
    </linearGradient>
    <radialGradient id="radial-gradient" cx="0.5" cy="0.5" r="0.464" gradientTransform="translate(-0.089) scale(1.178 1)" gradientUnits="objectBoundingBox">
      <stop offset="0" stop-color="#ffc8af"/>
      <stop offset="1" stop-color="#ffbb9c"/>
    </radialGradient>
    <linearGradient id="linear-gradient-2" x1="0.524" y1="3.702" x2="0.551" y2="7.134" xlink:href="#linear-gradient"/>
    <radialGradient id="radial-gradient-2" cx="0.502" cy="0.5" r="0.468" gradientTransform="translate(-0.078) scale(1.156 1)" xlink:href="#radial-gradient"/>
    <linearGradient id="linear-gradient-3" x1="-4.797" y1="2.365" x2="-3.412" y2="1.875" gradientUnits="objectBoundingBox">
      <stop offset="0" stop-color="#53d8ff"/>
      <stop offset="1" stop-color="#3840f7"/>
    </linearGradient>
    <linearGradient id="linear-gradient-4" x1="1.885" y1="0.866" x2="5.571" y2="1.84" xlink:href="#linear-gradient-3"/>
    <radialGradient id="radial-gradient-3" cx="0.499" cy="0.5" r="0.486" gradientTransform="translate(-0.03) scale(1.06 1)" xlink:href="#radial-gradient"/>
    <radialGradient id="radial-gradient-4" cx="0.5" cy="0.5" r="0.528" gradientTransform="translate(0.049) scale(0.902 1)" xlink:href="#radial-gradient"/>
    <radialGradient id="radial-gradient-5" cx="0.5" cy="0.499" r="0.413" gradientTransform="translate(-0.321) scale(1.643 1)" xlink:href="#radial-gradient"/>
    <radialGradient id="radial-gradient-6" cx="0.499" cy="0.499" r="0.444" gradientTransform="translate(-0.161) scale(1.321 1)" xlink:href="#radial-gradient"/>
    <linearGradient id="linear-gradient-5" x1="0" y1="0.499" x2="1" y2="0.499" xlink:href="#linear-gradient"/>
    <radialGradient id="radial-gradient-7" cx="0.501" cy="0.5" r="0.43" gradientTransform="translate(-0.22) scale(1.44 1)" xlink:href="#radial-gradient"/>
    <linearGradient id="linear-gradient-6" x1="0.34" y1="0.722" x2="-0.172" y2="1.518" xlink:href="#linear-gradient-3"/>
    <radialGradient id="radial-gradient-8" cx="0.5" cy="0.5" r="0.381" gradientTransform="translate(-0.747) scale(2.494 1)" xlink:href="#radial-gradient"/>
    <radialGradient id="radial-gradient-9" cx="0.5" cy="0.5" r="0.465" gradientTransform="translate(-0.087) scale(1.174 1)" xlink:href="#radial-gradient"/>
    <radialGradient id="radial-gradient-10" cx="0.499" cy="0.5" r="0.514" gradientTransform="translate(0.027) scale(0.945 1)" xlink:href="#radial-gradient"/>
    <radialGradient id="radial-gradient-11" cx="0.499" cy="0.501" r="0.478" gradientTransform="translate(-0.049) scale(1.098 1)" xlink:href="#radial-gradient"/>
    <radialGradient id="radial-gradient-12" cx="0.5" cy="0.499" r="0.454" gradientTransform="translate(-0.121) scale(1.242 1)" xlink:href="#radial-gradient"/>
    <radialGradient id="radial-gradient-13" cx="0.5" cy="0.5" r="1.63" gradientTransform="translate(0.389) scale(0.222 1)" xlink:href="#radial-gradient"/>
    <linearGradient id="linear-gradient-7" x1="1.285" y1="-0.304" x2="-0.56" y2="1.583" xlink:href="#linear-gradient-3"/>
    <linearGradient id="linear-gradient-8" x1="0.632" y1="-0.33" x2="-0.241" y2="5.151" xlink:href="#linear-gradient-3"/>
    <linearGradient id="linear-gradient-9" x1="0.57" y1="-0.551" x2="0.47" y2="1.4" xlink:href="#linear-gradient"/>
    <linearGradient id="linear-gradient-10" x1="0.503" y1="0.237" x2="0.285" y2="9.857" xlink:href="#linear-gradient"/>
    <radialGradient id="radial-gradient-14" cx="0.5" cy="0.504" r="0.499" gradientTransform="translate(-0.001)" xlink:href="#radial-gradient"/>
    <linearGradient id="linear-gradient-11" x1="0.398" y1="0.589" x2="-0.758" y2="1.432" xlink:href="#linear-gradient"/>
    <linearGradient id="linear-gradient-12" x1="0" y1="0.501" x2="1" y2="0.501" xlink:href="#linear-gradient"/>
    <radialGradient id="radial-gradient-15" cx="0.502" cy="0.501" r="0.588" gradientTransform="translate(0.122) scale(0.755 1)" xlink:href="#radial-gradient"/>
    <linearGradient id="linear-gradient-13" x1="0.729" y1="0.091" x2="-0.282" y2="0.801" xlink:href="#linear-gradient"/>
    <linearGradient id="linear-gradient-14" x1="-0.702" y1="3.44" x2="0.515" y2="0.466" xlink:href="#linear-gradient-3"/>
    <radialGradient id="radial-gradient-16" cx="0.501" cy="0.5" r="0.674" gradientTransform="translate(0.191) scale(0.618 1)" xlink:href="#radial-gradient"/>
    <radialGradient id="radial-gradient-17" cx="0.499" cy="0.5" r="0.541" gradientTransform="translate(0.067) scale(0.866 1)" xlink:href="#radial-gradient"/>
    <radialGradient id="radial-gradient-18" cx="0.5" cy="0.5" r="0.473" gradientTransform="translate(-0.062) scale(1.124 1)" xlink:href="#radial-gradient"/>
    <linearGradient id="linear-gradient-15" x1="0.281" y1="0.154" x2="1.011" y2="1.105" xlink:href="#linear-gradient"/>
    <radialGradient id="radial-gradient-19" cx="0.499" cy="0.501" r="0.434" gradientTransform="translate(-0.205) scale(1.411 1)" xlink:href="#radial-gradient"/>
    <radialGradient id="radial-gradient-20" cx="0.5" cy="0.5" r="1.132" gradientTransform="translate(0.335) scale(0.329 1)" xlink:href="#radial-gradient"/>
    <linearGradient id="linear-gradient-16" x1="0.497" y1="0.862" x2="0.382" y2="15.604" xlink:href="#linear-gradient-3"/>
    <linearGradient id="linear-gradient-17" x1="0.637" y1="-14.04" x2="0.128" y2="39.037" xlink:href="#linear-gradient-3"/>
    <linearGradient id="linear-gradient-18" x1="0.598" y1="-7.943" x2="0.176" y2="27.78" xlink:href="#linear-gradient-3"/>
    <linearGradient id="linear-gradient-19" x1="0.582" y1="-6.766" x2="0.168" y2="28.846" xlink:href="#linear-gradient-3"/>
    <linearGradient id="linear-gradient-20" x1="0.574" y1="-5.714" x2="0.135" y2="30.581" xlink:href="#linear-gradient-3"/>
    <linearGradient id="linear-gradient-21" x1="17.182" y1="-3.759" x2="8.905" y2="-1.65" gradientUnits="objectBoundingBox">
      <stop offset="0" stop-color="#e1473d"/>
      <stop offset="1" stop-color="#e9605a"/>
    </linearGradient>
    <linearGradient id="linear-gradient-22" x1="18.038" y1="-3.917" x2="9.677" y2="-1.808" xlink:href="#linear-gradient-21"/>
  </defs>
  <g id="Designed_By_Freepik" data-name="Designed By Freepik" transform="translate(0 0)">
    <rect id="Rectangle_108" data-name="Rectangle 108" width="2.344" height="8.635" transform="translate(167.932 113.207)" fill="#d6e8fc"/>
    <path id="Path_1083" data-name="Path 1083" d="M203.361,134.552h-1.669a.3.3,0,0,1-.292-.3h0a.292.292,0,0,1,.292-.292h1.669a.3.3,0,0,1,.3.292h0a.3.3,0,0,1-.3.3Z" transform="translate(-33.376 -22.197)" fill="#d6e8fc"/>
    <rect id="Rectangle_109" data-name="Rectangle 109" width="2.344" height="15.409" transform="translate(163.894 106.432)" fill="#d6e8fc"/>
    <path id="Path_1084" data-name="Path 1084" d="M198.451,126.684h-1.669a.292.292,0,0,1-.292-.292h0a.292.292,0,0,1,.292-.292h1.669a.292.292,0,0,1,.292.292h0A.292.292,0,0,1,198.451,126.684Z" transform="translate(-32.562 -20.894)" fill="#d6e8fc"/>
    <rect id="Rectangle_110" data-name="Rectangle 110" width="2.344" height="26.138" transform="translate(160.015 95.703)" fill="#d6e8fc"/>
    <path id="Path_1085" data-name="Path 1085" d="M193.809,113.734H192.14a.3.3,0,0,1-.3-.292h0a.3.3,0,0,1,.3-.292h1.669a.292.292,0,0,1,.292.292h0a.292.292,0,0,1-.292.292Z" transform="translate(-31.792 -18.748)" fill="#d6e8fc"/>
    <rect id="Rectangle_111" data-name="Rectangle 111" width="2.344" height="21.391" transform="translate(156.035 100.442)" fill="#d6e8fc"/>
    <path id="Path_1086" data-name="Path 1086" d="M189.041,119.592h-1.669a.292.292,0,0,1-.292-.3h0a.292.292,0,0,1,.292-.292h1.669a.292.292,0,0,1,.292.292h0a.3.3,0,0,1-.292.3Z" transform="translate(-31.003 -19.718)" fill="#d6e8fc"/>
    <rect id="Rectangle_112" data-name="Rectangle 112" width="2.344" height="33.271" transform="translate(152.164 88.57)" fill="#d6e8fc"/>
    <path id="Path_1087" data-name="Path 1087" d="M184.391,105.282h-1.669a.3.3,0,0,1-.292-.3h0a.292.292,0,0,1,.292-.292h1.669a.292.292,0,0,1,.292.292h0a.292.292,0,0,1-.292.3Z" transform="translate(-30.232 -17.346)" fill="#d6e8fc"/>
    <rect id="Rectangle_113" data-name="Rectangle 113" width="2.344" height="28.074" transform="translate(148.385 93.768)" fill="#d6e8fc"/>
    <path id="Path_1088" data-name="Path 1088" d="M179.871,111.554H178.2a.292.292,0,0,1-.292-.292h0a.292.292,0,0,1,.292-.292h1.669a.292.292,0,0,1,.292.292h0A.292.292,0,0,1,179.871,111.554Z" transform="translate(-29.483 -18.387)" fill="#d6e8fc"/>
    <g id="Group_787" data-name="Group 787" transform="translate(219.941 54.098)" opacity="0.39">
      <path id="Path_1089" data-name="Path 1089" d="M320.6,173.317a2.436,2.436,0,0,1-2.194-1.377l-3.729-7.7A42.547,42.547,0,0,1,303.084,161l-7.167,4.63a2.444,2.444,0,0,1-2.837-.125l-8.91-6.983a2.5,2.5,0,0,1-.834-2.728l2.787-8.059a42.883,42.883,0,0,1-5.915-10.479l-8.343-1.794a2.436,2.436,0,0,1-1.919-2.094l-1.36-11.238a2.436,2.436,0,0,1,1.36-2.5l7.667-3.729a42.549,42.549,0,0,1,3.237-11.588l-4.639-7.166a2.444,2.444,0,0,1,.133-2.837l6.983-8.91a2.453,2.453,0,0,1,2.728-.834l8.059,2.786a42.723,42.723,0,0,1,10.479-5.915l1.785-8.343a2.5,2.5,0,0,1,2.094-1.919l11.246-1.36a2.444,2.444,0,0,1,2.5,1.36l3.729,7.667a42.548,42.548,0,0,1,11.588,3.237l7.166-4.639a2.444,2.444,0,0,1,2.828.133l8.993,7.066a2.453,2.453,0,0,1,.834,2.728l-2.786,8.059a42.722,42.722,0,0,1,5.915,10.479l8.343,1.785a2.453,2.453,0,0,1,1.911,2.1l1.368,11.238a2.5,2.5,0,0,1-1.36,2.5l-7.667,3.729a42.547,42.547,0,0,1-3.237,11.588l4.63,7.166a2.436,2.436,0,0,1-.125,2.828l-6.983,8.918a2.453,2.453,0,0,1-2.728.834l-8.126-2.828a42.883,42.883,0,0,1-10.479,5.915l-1.794,8.343a2.436,2.436,0,0,1-2.094,1.911l-11.238,1.368Zm-17.787-16.077.834.384a39.211,39.211,0,0,0,12.314,3.446l.918.1,4.246,8.735,10.011-1.21,2.036-9.461.834-.317a39.3,39.3,0,0,0,11.138-6.357l.717-.576,9.177,3.179,6.2-7.909-5.281-8.168.384-.834a39.3,39.3,0,0,0,3.446-12.314l.083-.909,8.735-4.246-1.21-10.011-9.5-2.036-.317-.834a39.372,39.372,0,0,0-6.282-11.129l-.576-.717,3.179-9.177-7.909-6.2-8.168,5.281-.834-.392a39.512,39.512,0,0,0-12.314-3.437l-.918-.1L319.527,73.3l-10.011,1.21-2.036,9.5-.834.317a39.345,39.345,0,0,0-11.129,6.282l-.717.576-9.177-3.17-6.2,7.909L284.7,104.1l-.392.834a39.453,39.453,0,0,0-3.437,12.314l-.1.918-8.743,4.246,1.21,10.011,9.5,2.044.317.834a39.5,39.5,0,0,0,6.282,11.138l.576.717-3.17,9.177,7.909,6.2Zm65.241-46.286ZM320.07,150.466a28.991,28.991,0,1,1,28.841-32.487,29.323,29.323,0,0,1,.092,6.165,1.667,1.667,0,1,1-3.32-.3,26.6,26.6,0,0,0-.083-5.465,25.654,25.654,0,1,0-9.744,23.36,1.669,1.669,0,1,1,2.044,2.636,28.891,28.891,0,0,1-14.283,5.84A29.853,29.853,0,0,1,320.07,150.466Z" transform="translate(-264.448 -65.662)" fill="#d6e8fc"/>
      <path id="Path_1090" data-name="Path 1090" d="M328.29,141.283a11.722,11.722,0,1,1,10.929-15.943h0A11.738,11.738,0,0,1,332.5,140.5,11.613,11.613,0,0,1,328.29,141.283Zm0-20.114a8.393,8.393,0,1,0,7.826,5.373,8.393,8.393,0,0,0-7.826-5.373Z" transform="translate(-272.402 -73.623)" fill="#d6e8fc"/>
      <path id="Path_1091" data-name="Path 1091" d="M372.6,183.473a.392.392,0,0,1-.317-.159.409.409,0,0,1,.058-.584c.534-.434,1.06-.884,1.577-1.335a.417.417,0,0,1,.592,0,.426.426,0,0,1-.042.592c-.526.459-1.06.909-1.6,1.36A.434.434,0,0,1,372.6,183.473Z" transform="translate(-281.62 -84.135)" fill="#d6e8fc"/>
      <path id="Path_1092" data-name="Path 1092" d="M319.051,187.105h0c-1.435,0-2.878-.075-4.3-.2a.419.419,0,0,1,.075-.834c1.4.125,2.82.192,4.23.2a.425.425,0,0,1,.417.425A.417.417,0,0,1,319.051,187.105Zm4.272-.125a.417.417,0,0,1,0-.834c1.393-.1,2.812-.25,4.213-.459a.425.425,0,0,1,.476.35.417.417,0,0,1-.359.476c-1.418.209-2.853.367-4.28.467Zm-12.773-.626h-.075c-1.41-.234-2.828-.526-4.171-.834a.429.429,0,1,1,.2-.834c1.36.342,2.761.626,4.171.834a.425.425,0,0,1,.342.484.417.417,0,0,1-.467.35Zm21.216-.651a.42.42,0,1,1-.092-.834c1.368-.317,2.753-.684,4.1-1.1a.436.436,0,1,1,.25.834,42.718,42.718,0,0,1-4.171,1.118Zm-29.508-1.385a.342.342,0,0,1-.133,0c-1.36-.451-2.711-.951-4.038-1.5a.417.417,0,0,1-.225-.542.425.425,0,0,1,.551-.225c1.3.542,2.636,1.035,3.971,1.477a.422.422,0,0,1-.125.834Zm37.668-1.143a.415.415,0,0,1-.159-.8c1.318-.526,2.62-1.093,3.888-1.669a.417.417,0,1,1,.359.751c-1.276.626-2.6,1.21-3.938,1.735a.475.475,0,0,1-.15.008Zm-45.56-2.127a.491.491,0,0,1-.184,0c-1.276-.651-2.545-1.36-3.763-2.094a.434.434,0,0,1-.142-.576.425.425,0,0,1,.576-.142c1.2.734,2.444,1.427,3.7,2.061a.425.425,0,0,1,.184.567.417.417,0,0,1-.375.209Zm53.236-1.61a.409.409,0,0,1-.359-.2.426.426,0,0,1,.15-.576c1.21-.709,2.419-1.477,3.571-2.278a.417.417,0,1,1,.476.684c-1.176.834-2.394,1.593-3.629,2.319a.45.45,0,0,1-.209.075Zm-60.527-2.828a.434.434,0,0,1-.242-.075c-1.16-.834-2.3-1.727-3.4-2.645a.42.42,0,1,1,.542-.642c1.076.909,2.194,1.785,3.337,2.611a.417.417,0,0,1-.25.751Zm-6.524-5.5a.409.409,0,0,1-.292-.125c-1.018-1-2.011-2.052-2.945-3.137a.417.417,0,1,1,.626-.542c.926,1.06,1.9,2.1,2.9,3.087a.417.417,0,0,1-.292.718Zm-5.6-6.449a.384.384,0,0,1-.334-.175c-.834-1.143-1.669-2.336-2.428-3.554a.417.417,0,0,1,.125-.576.426.426,0,0,1,.576.133c.751,1.193,1.56,2.369,2.394,3.5a.425.425,0,0,1-.083.584.476.476,0,0,1-.25.083Zm-4.539-7.233a.417.417,0,0,1-.367-.225c-.667-1.26-1.293-2.57-1.852-3.879a.417.417,0,1,1,.759-.334c.559,1.293,1.176,2.586,1.827,3.829a.409.409,0,0,1-.175.559.383.383,0,0,1-.192.083Zm-3.379-7.842a.417.417,0,0,1-.392-.275c-.467-1.36-.884-2.745-1.251-4.121a.425.425,0,0,1,.3-.509.417.417,0,0,1,.509.292c.359,1.36.768,2.728,1.226,4.063a.425.425,0,0,1-.259.534Zm-2.152-8.259a.409.409,0,0,1-.409-.342c-.259-1.41-.459-2.845-.6-4.263a.426.426,0,0,1,.375-.459.417.417,0,0,1,.459.375c.142,1.393.334,2.812.584,4.171a.417.417,0,0,1-.334.484Zm-.834-8.5a.409.409,0,0,1-.417-.4q0-.626,0-1.251c0-1.009,0-2.036.083-3.053a.409.409,0,0,1,.442-.392.417.417,0,0,1,.392.434c-.058,1-.083,2.019-.083,3.012V132.4a.417.417,0,0,1-.409.426Z" transform="translate(-263.63 -75.262)" fill="#d6e8fc"/>
      <path id="Path_1093" data-name="Path 1093" d="M264.6,123.045h-.058a.417.417,0,0,1-.359-.467c.092-.7.2-1.393.317-2.077a.417.417,0,0,1,.484-.342.426.426,0,0,1,.342.484c-.117.676-.225,1.36-.317,2.044A.417.417,0,0,1,264.6,123.045Z" transform="translate(-263.72 -74.006)" fill="#d6e8fc"/>
      <path id="Path_1094" data-name="Path 1094" d="M290.917,78.594a.425.425,0,0,1-.334-.167.417.417,0,0,1,.083-.584c.567-.417,1.135-.834,1.71-1.218a.417.417,0,0,1,.584.108.409.409,0,0,1-.109.576c-.576.392-1.135.834-1.668,1.2A.409.409,0,0,1,290.917,78.594Z" transform="translate(-268.083 -66.781)" fill="#d6e8fc"/>
      <path id="Path_1095" data-name="Path 1095" d="M380.212,126.852h-.05a.417.417,0,0,1-.367-.459c.142-1.377.234-2.778.267-4.171a.442.442,0,0,1,.425-.409.417.417,0,0,1,.409.425,39.857,39.857,0,0,1-.275,4.23.409.409,0,0,1-.409.384Zm.184-8.4a.409.409,0,0,1-.409-.392c-.075-1.385-.192-2.778-.367-4.171a.409.409,0,0,1,.359-.467.417.417,0,0,1,.467.359c.175,1.4.3,2.82.367,4.221a.409.409,0,0,1-.392.434Zm-1.051-8.343a.417.417,0,0,1-.409-.334c-.275-1.351-.609-2.72-.993-4.046a.417.417,0,0,1,.8-.234c.392,1.352.726,2.736,1.009,4.113a.409.409,0,0,1-.325.492Zm-2.286-8.068a.417.417,0,0,1-.392-.275l-.3-.793c-.4-1.035-.834-2.069-1.285-3.07a.409.409,0,0,1,.209-.551.426.426,0,0,1,.551.209c.459,1.018.9,2.061,1.3,3.112.108.267.209.534.309.834a.434.434,0,0,1-.25.542A.426.426,0,0,1,377.059,102.041Zm-3.487-7.65a.409.409,0,0,1-.359-.217c-.667-1.21-1.393-2.411-2.152-3.571a.409.409,0,0,1,.158-.6.417.417,0,0,1,.576.117c.768,1.176,1.5,2.4,2.177,3.629a.417.417,0,0,1-.167.567.4.4,0,0,1-.217.075Zm-4.589-7.025a.409.409,0,0,1-.334-.167c-.834-1.093-1.744-2.177-2.67-3.2a.425.425,0,0,1,0-.592.417.417,0,0,1,.592,0c.934,1.043,1.844,2.144,2.7,3.254a.409.409,0,0,1-.075.584.417.417,0,0,1-.2.125Zm-5.615-6.257a.425.425,0,0,1-.292-.108c-.993-.959-2.044-1.885-3.12-2.77a.418.418,0,1,1,.534-.642c1.085.893,2.152,1.835,3.162,2.8a.417.417,0,0,1-.284.717Zm-6.474-5.289a.434.434,0,0,1-.242-.075,40.315,40.315,0,0,0-3.5-2.261.421.421,0,0,1,.426-.726c1.21.726,2.4,1.493,3.554,2.3a.425.425,0,0,1,.108.584A.45.45,0,0,1,356.894,75.819Zm-59.676-2.653a.417.417,0,0,1-.209-.776c1.218-.709,2.5-1.368,3.746-1.977a.417.417,0,0,1,.559.192.426.426,0,0,1-.192.559c-1.251.6-2.5,1.251-3.7,1.944A.375.375,0,0,1,297.218,73.166ZM349.669,71.5a.45.45,0,0,1-.184,0,37.545,37.545,0,0,0-3.8-1.669.426.426,0,0,1-.234-.551.417.417,0,0,1,.542-.225c1.3.526,2.6,1.11,3.863,1.735a.417.417,0,0,1-.184.793Zm-44.876-1.969a.424.424,0,1,1-.15-.834l.259-.1c1.226-.467,2.5-.909,3.738-1.293a.426.426,0,0,1,.526.275.417.417,0,0,1-.284.526c-1.235.375-2.5.834-3.679,1.276l-.259.1a.476.476,0,0,1-.15.05Zm37.092-1.218a.375.375,0,0,1-.134,0c-1.318-.417-2.67-.834-4.013-1.118a.428.428,0,1,1,.192-.834c1.368.325,2.736.709,4.08,1.135a.422.422,0,1,1-.125.834Zm-29.066-1.251a.417.417,0,0,1-.409-.325.426.426,0,0,1,.317-.5c1.368-.309,2.77-.567,4.171-.776a.417.417,0,0,1,.467.35.409.409,0,0,1-.35.476c-1.368.2-2.753.459-4.1.768Zm20.857-.667h0c-1.368-.217-2.761-.384-4.171-.5a.418.418,0,0,1,.067-.834c1.4.117,2.82.284,4.171.509a.418.418,0,0,1-.067.834Zm-12.514-.584a.417.417,0,1,1,0-.834c1.293-.083,2.6-.133,3.888-.133h.284a.417.417,0,1,1,0,.834h-.35a36.789,36.789,0,0,0-3.829.133Z" transform="translate(-269.128 -64.84)" fill="#d6e8fc"/>
      <path id="Path_1096" data-name="Path 1096" d="M395.487,146.079h-.092a.417.417,0,0,1-.317-.5c.15-.667.284-1.343.409-2.027a.424.424,0,1,1,.834.15c-.125.692-.259,1.377-.409,2.061A.417.417,0,0,1,395.487,146.079Z" transform="translate(-285.412 -77.826)" fill="#d6e8fc"/>
    </g>
    <g id="Group_788" data-name="Group 788" transform="translate(171.849 34.699)" opacity="0.39">
      <path id="Path_1097" data-name="Path 1097" d="M230.37,96.719a1.619,1.619,0,0,1-.592-.108l-5.072-1.952a1.61,1.61,0,0,1-1.035-1.577l.142-3.863a20.941,20.941,0,0,1-3.929-3.754l-3.846.325a1.669,1.669,0,0,1-1.619-.968l-2.2-5.006a1.669,1.669,0,0,1,.384-1.852l2.837-2.62a21.133,21.133,0,0,1-.125-5.431l-2.953-2.5a1.669,1.669,0,0,1-.459-1.827l1.969-5.081a1.669,1.669,0,0,1,1.577-1.035l3.854.142a20.907,20.907,0,0,1,3.754-3.921l-.317-3.854a1.669,1.669,0,0,1,.959-1.618l5.006-2.194a1.61,1.61,0,0,1,1.852.384l2.595,2.87a21.141,21.141,0,0,1,5.431-.125l2.5-2.945a1.619,1.619,0,0,1,1.827-.467l5.081,1.969a1.61,1.61,0,0,1,1.026,1.568l-.142,3.863a21.166,21.166,0,0,1,3.971,3.729l3.846-.317a1.6,1.6,0,0,1,1.619.959l2.2,5.006a1.669,1.669,0,0,1-.384,1.844L257.3,68.987a21.126,21.126,0,0,1,.117,5.431l2.953,2.5a1.669,1.669,0,0,1,.459,1.827l-2.011,5.064a1.669,1.669,0,0,1-1.577,1.043l-3.854-.15a21.216,21.216,0,0,1-3.754,3.929l.317,3.846a1.669,1.669,0,0,1-.959,1.627L243.986,96.3a1.669,1.669,0,0,1-1.852-.384l-2.62-2.828a20.773,20.773,0,0,1-5.431.117l-2.5,2.953a1.668,1.668,0,0,1-1.21.559ZM230.687,94.274Zm-4.5-1.744,3.913,1.518,2.978-3.521.676.1a18.6,18.6,0,0,0,6.007-.133l.676-.125,3.129,3.337,3.838-1.669-.4-4.572.551-.417a18.353,18.353,0,0,0,4.171-4.347l.392-.567,4.605.175,1.518-3.913-3.529-2.928.1-.684a18.847,18.847,0,0,0-.133-6.007l-.134-.676,3.337-3.129-1.669-3.838-4.589.384-.409-.551a18.654,18.654,0,0,0-4.347-4.171l-.567-.392.175-4.605-3.9-1.527-2.97,3.5-.684-.092a18.354,18.354,0,0,0-6.007.133l-.676.125-3.129-3.379-3.838,1.669.384,4.589-.551.417a18.287,18.287,0,0,0-4.171,4.338l-.392.567-4.605-.167-1.477,3.938L217.99,68.9l-.1.684a18.787,18.787,0,0,0,.133,6l.133.684-3.379,3.129,1.669,3.838,4.589-.384.417.551a18.456,18.456,0,0,0,4.338,4.171l.567.384ZM243,93.991ZM215.829,83.278ZM216.2,61.42Zm40.554-1.627ZM247.081,52.018ZM228.727,50.116Zm7.509,36.416A14.4,14.4,0,1,1,249.4,66.292a14.183,14.183,0,0,1,.934,2.92,1.252,1.252,0,0,1-2.453.5,11.883,11.883,0,1,0-1.944,9.261,1.268,1.268,0,0,1,2.044,1.5,14.467,14.467,0,0,1-11.747,6.082Z" transform="translate(-206.948 -42.589)" fill="#d6e8fc"/>
      <path id="Path_1098" data-name="Path 1098" d="M239.943,82.245a6.507,6.507,0,1,1,5.114-10.5h0a6.507,6.507,0,0,1-5.114,10.5Zm0-9.669a2.83,2.83,0,1,0,.367-.008,3.019,3.019,0,0,0-.392.008Z" transform="translate(-210.53 -46.169)" fill="#d6e8fc"/>
      <path id="Path_1099" data-name="Path 1099" d="M269.518,97.5a.384.384,0,0,1-.242-.083.425.425,0,0,1-.092-.584c.4-.551.784-1.126,1.143-1.669a.409.409,0,0,1,.567-.142.426.426,0,0,1,.142.576c-.375.6-.768,1.193-1.176,1.76A.409.409,0,0,1,269.518,97.5Z" transform="translate(-216.445 -50.433)" fill="#d6e8fc"/>
      <path id="Path_1100" data-name="Path 1100" d="M235.376,108.459h0a29.46,29.46,0,0,1-4.021-.309.425.425,0,0,1-.35-.476.4.4,0,0,1,.467-.35,29.314,29.314,0,0,0,3.913.3.417.417,0,1,1,0,.834Zm3.971-.234a.418.418,0,0,1-.05-.834,29.85,29.85,0,0,0,3.846-.759.431.431,0,0,1,.217.834,29.081,29.081,0,0,1-3.954.784Zm-11.83-.918H227.4a29.063,29.063,0,0,1-3.8-1.385.417.417,0,0,1,.342-.759,28.613,28.613,0,0,0,3.688,1.343.417.417,0,0,1,.284.517A.409.409,0,0,1,227.517,107.308Zm19.505-1.143a.417.417,0,0,1-.384-.259.409.409,0,0,1,.217-.542,29.375,29.375,0,0,0,3.5-1.777.409.409,0,0,1,.567.142.417.417,0,0,1-.142.576,30.419,30.419,0,0,1-3.6,1.827A.543.543,0,0,1,247.022,106.165Zm-26.764-2.077a.417.417,0,0,1-.217-.067,28.308,28.308,0,0,1-3.279-2.353.434.434,0,0,1-.058-.592.425.425,0,0,1,.592-.05,27.614,27.614,0,0,0,3.179,2.286.417.417,0,0,1-.217.776Zm33.563-1.994a.417.417,0,0,1-.267-.743,30.169,30.169,0,0,0,2.9-2.645.409.409,0,0,1,.584,0,.417.417,0,0,1,0,.592,29.673,29.673,0,0,1-2.978,2.72A.375.375,0,0,1,253.822,102.093Zm-39.7-3.079a.417.417,0,0,1-.309-.133c-.534-.584-1.051-1.193-1.535-1.819-.342-.434-.667-.884-.984-1.335a.417.417,0,0,1,.1-.576.426.426,0,0,1,.584.1c.309.442.626.834.959,1.3.467.609.976,1.2,1.493,1.769a.409.409,0,0,1,0,.584.417.417,0,0,1-.284.108ZM209.6,92.491a.425.425,0,0,1-.375-.225,28.492,28.492,0,0,1-1.577-3.713.417.417,0,1,1,.784-.275,28.617,28.617,0,0,0,1.535,3.612.417.417,0,0,1-.175.559.4.4,0,0,1-.192.042Z" transform="translate(-206.255 -49.274)" fill="#d6e8fc"/>
      <path id="Path_1101" data-name="Path 1101" d="M206.732,83.786a.417.417,0,0,1-.409-.334c-.133-.684-.25-1.393-.334-2.086a.409.409,0,0,1,.359-.467.425.425,0,0,1,.467.359c.083.684.192,1.368.325,2.036a.409.409,0,0,1-.325.484Z" transform="translate(-205.985 -48.103)" fill="#d6e8fc"/>
      <path id="Path_1102" data-name="Path 1102" d="M213.017,56.192a.45.45,0,0,1-.25-.083.417.417,0,0,1-.083-.584c.417-.567.834-1.118,1.318-1.669a.432.432,0,0,1,.634.584c-.45.517-.884,1.06-1.285,1.6a.409.409,0,0,1-.334.15Z" transform="translate(-207.081 -43.601)" fill="#d6e8fc"/>
      <path id="Path_1103" data-name="Path 1103" d="M265.31,63.356a.417.417,0,0,1-.4-.292,29.521,29.521,0,0,0-1.335-3.629.425.425,0,0,1,.209-.551.409.409,0,0,1,.551.217,29.188,29.188,0,0,1,1.377,3.688.417.417,0,0,1-.284.517.3.3,0,0,1-.117.05Zm-3.179-7.133a.425.425,0,0,1-.359-.192,28.5,28.5,0,0,0-1.794-2.578l-.451-.567a.417.417,0,0,1,.058-.584.409.409,0,0,1,.584.058l.467.576a30.128,30.128,0,0,1,1.844,2.653.409.409,0,0,1-.133.576A.4.4,0,0,1,262.132,56.223Zm-4.956-6.032a.434.434,0,0,1-.292-.117,28.821,28.821,0,0,0-2.987-2.436.409.409,0,0,1-.1-.576.417.417,0,0,1,.584-.1,29.433,29.433,0,0,1,3.078,2.5.417.417,0,0,1,0,.592.434.434,0,0,1-.292.133Zm-39.261-.434a.426.426,0,0,1-.309-.142.417.417,0,0,1,0-.584c.476-.417.968-.834,1.46-1.218s1.11-.834,1.669-1.218a.417.417,0,0,1,.584.108.425.425,0,0,1-.117.584c-.551.367-1.1.768-1.627,1.185s-.968.776-1.418,1.176A.417.417,0,0,1,217.915,49.757Zm32.912-4.08a.384.384,0,0,1-.192-.042,28.366,28.366,0,0,0-3.537-1.552.417.417,0,1,1,.284-.784,30.035,30.035,0,0,1,3.637,1.593.426.426,0,0,1,.184.567.417.417,0,0,1-.417.217Zm-26.43-.292a.427.427,0,0,1-.184-.834,29.259,29.259,0,0,1,3.671-1.51.417.417,0,0,1,.267.784,28.966,28.966,0,0,0-3.571,1.477.351.351,0,0,1-.225.083Zm19.08-2.353h-.083a29.709,29.709,0,0,0-3.821-.559.417.417,0,0,1-.384-.451.425.425,0,0,1,.451-.384,31.2,31.2,0,0,1,3.93.576.42.42,0,1,1-.092.834ZM231.8,42.9a.409.409,0,0,1-.409-.342.4.4,0,0,1,.325-.484,28.484,28.484,0,0,1,3.946-.484.4.4,0,0,1,.434.392.417.417,0,0,1-.392.442,28.065,28.065,0,0,0-3.829.467Z" transform="translate(-207.891 -41.588)" fill="#d6e8fc"/>
      <path id="Path_1104" data-name="Path 1104" d="M275.98,74.2a.417.417,0,0,1-.417-.384c-.05-.676-.133-1.36-.234-2.036a.422.422,0,0,1,.834-.125c.1.692.183,1.4.242,2.094a.417.417,0,0,1-.384.451Z" transform="translate(-217.475 -46.512)" fill="#d6e8fc"/>
    </g>
    <path id="Path_1105" data-name="Path 1105" d="M232.545,373.425a51.854,51.854,0,0,0-.626,5.465,2.361,2.361,0,0,0,2.119,2.5c4.388.425,14.366,1.21,20.74.284a1.068,1.068,0,0,0,.592-1.835c-2.628-2.453-8.977-7.217-19.422-8.251Z" transform="translate(-38.433 -61.577)" fill="url(#linear-gradient)"/>
    <path id="Path_1106" data-name="Path 1106" d="M230.06,366.583l2.219,5.431a1.81,1.81,0,0,0,1.86,1.126,9.84,9.84,0,0,0,1.81-.35,2.378,2.378,0,0,0,1.577-2.962l-1.669-5.6Z" transform="translate(-38.125 -60.357)" fill="url(#radial-gradient)"/>
    <path id="Path_1107" data-name="Path 1107" d="M183.212,379s4.447,3.713,6.174,8.485a2.027,2.027,0,0,1-1.927,2.686h-9.177a2.152,2.152,0,0,1-2.127-2.5C176.78,384.348,178.457,379,183.212,379Z" transform="translate(-29.187 -62.805)" fill="url(#linear-gradient-2)"/>
    <path id="Path_1108" data-name="Path 1108" d="M178,373.056s.9,3.971,1.585,6.591a.834.834,0,0,0,1.1.567,7.65,7.65,0,0,1,3.337-.6.642.642,0,0,0,.717-.642l.083-6.591Z" transform="translate(-29.498 -61.708)" fill="url(#radial-gradient-2)"/>
    <path id="Path_1109" data-name="Path 1109" d="M199.845,264.078l27.006,82.394s-5.173,3.387-7.642,3.245l-32.078-66.208s-5.615,40.8-2.895,70.08l-9.177.7s-14.942-74.852-3.621-100.489Z" transform="translate(-27.708 -42.057)" fill="#243c55"/>
    <path id="Path_1110" data-name="Path 1110" d="M191.255,286.8h0a.25.25,0,0,1-.225-.292l1.043-8.343a.261.261,0,1,1,.517.067l-1.043,8.343A.267.267,0,0,1,191.255,286.8Z" transform="translate(-31.657 -46.057)" fill="url(#linear-gradient-3)"/>
    <path id="Path_1111" data-name="Path 1111" d="M205.137,179.23s-21.875,1.944-18.78,17.52c0,0-12.1,22.759-17.753,49.573a1.577,1.577,0,0,0,1.285,1.877l36.433,6.24A1.961,1.961,0,0,0,208.549,253l8.71-33.647,3.4,15.651,10.779-2.812-9.11-45.969S221.088,179.514,205.137,179.23Z" transform="translate(-27.935 -29.699)" fill="#0396fb"/>
    <path id="Path_1112" data-name="Path 1112" d="M227.1,222.644h-.058a.275.275,0,0,1-.209-.317l3.037-13.949a.284.284,0,0,1,.325-.209.267.267,0,0,1,.209.325l-3.037,13.949A.267.267,0,0,1,227.1,222.644Z" transform="translate(-37.589 -34.494)" fill="url(#linear-gradient-4)"/>
    <path id="Path_1113" data-name="Path 1113" d="M220.627,270.5a5.189,5.189,0,0,0-3.763-.492l-2.5.634a.918.918,0,0,1-1.135-.793L210.6,246.49c-3.279,1.56-8.009,1.377-9.569,1.26l6.032,27.531h21.132Z" transform="translate(-33.315 -40.845)" fill="url(#radial-gradient-3)"/>
    <path id="Path_1114" data-name="Path 1114" d="M281.733,211.391l-.676-2.127a4.172,4.172,0,0,0-2.453-2.686l-11.546-4.647s-.175-1.477,2.436-2.5,2-3.938,2-3.938-3.571,1.669-8.8,4.221a12.272,12.272,0,0,0-5.556,6.049L231,237.7l3.07,2.111a8.209,8.209,0,0,0,11.9-2.92L260.15,209.7A52.877,52.877,0,0,0,281.733,211.391Z" transform="translate(-38.281 -32.394)" fill="url(#radial-gradient-4)"/>
    <path id="Path_1115" data-name="Path 1115" d="M219.563,161.336l-6.733,18.871s5.965,4.655,10.312,3.087l3.387-10.8S223.943,159.267,219.563,161.336Z" transform="translate(-35.27 -26.697)" fill="url(#radial-gradient-5)"/>
    <path id="Path_1116" data-name="Path 1116" d="M241.681,152.54c0,.284-6.482,18.354-6.482,18.354l-10.228-3.921,3.571-18S241.681,147.676,241.681,152.54Z" transform="translate(-37.282 -24.658)" fill="url(#radial-gradient-6)"/>
    <path id="Path_1117" data-name="Path 1117" d="M229.46,152.1l-2.645,9.344a1.284,1.284,0,0,0-.05.359c0,.768.192,3.387,2.862,3.028,2.419-.325,4.639-.584,6.049.083a1.36,1.36,0,0,1,.7,1.669,58.493,58.493,0,0,1-3.687,8.343,1.36,1.36,0,0,1-1.744.559,43.794,43.794,0,0,1-8.768-5.164,1.343,1.343,0,0,1-.484-1.3c.45-2.386,1.785-9.661,1.844-11.738s-2.136-3.454-3.1-4.013a1.31,1.31,0,0,1-.626-.834c-.309-1.26-.567-4.1,3.07-4.739a1.36,1.36,0,0,0,1.1-1.61c-.309-1.51-.209-3.721,2.645-4.539a5.006,5.006,0,0,1,5.665,2.261,1.368,1.368,0,0,0,1.669.45,1.06,1.06,0,0,1,1.2.217,1.335,1.335,0,0,0,1.952-.3,4.063,4.063,0,0,1,5.006-1.669c4.622,1.5,4.4,6.833,2.7,9.728s-6.616.993-8.944-.926c-1.769-1.46-4.463-.592-5.656-.083a1.327,1.327,0,0,0-.759.876Z" transform="translate(-36.399 -23.422)" fill="url(#linear-gradient-5)"/>
    <path id="Path_1118" data-name="Path 1118" d="M222.431,162.974s2.736-5.173.926-6.8-4.872-1.36-4.8,2.686C218.668,163.9,222.431,162.974,222.431,162.974Z" transform="translate(-36.219 -25.724)" fill="url(#radial-gradient-7)"/>
    <path id="Path_1119" data-name="Path 1119" d="M201.376,240.954c-1.493,0-2.561-.117-2.67-.125h-.2l-7.967-37.142a.284.284,0,0,1,.209-.325.275.275,0,0,1,.325.209l7.884,36.758c1.185.108,7.509.526,10.846-1.844l-6.908-32.27,1.443-2.711a.275.275,0,1,1,.484.25L203.47,206.3l6.933,32.42-.142.1C207.867,240.6,203.979,240.954,201.376,240.954Z" transform="translate(-31.575 -33.691)" fill="url(#linear-gradient-6)"/>
    <path id="Path_1120" data-name="Path 1120" d="M215.575,378.925a1.485,1.485,0,0,1-.617-.142,1.777,1.777,0,0,1-.834-2.253l32.912-83.495a1.527,1.527,0,0,1,2.069-.893,1.777,1.777,0,0,1,.834,2.253l-32.921,83.486A1.577,1.577,0,0,1,215.575,378.925Z" transform="translate(-35.463 -48.389)" fill="#bcbec0"/>
    <path id="Path_1121" data-name="Path 1121" d="M253.471,378.925a1.577,1.577,0,0,1-1.443-1.043l-32.9-83.486a1.777,1.777,0,0,1,.834-2.253,1.518,1.518,0,0,1,2.061.893l32.9,83.495a1.777,1.777,0,0,1-.834,2.253A1.485,1.485,0,0,1,253.471,378.925Z" transform="translate(-36.291 -48.389)" fill="#bcbec0"/>
    <path id="Path_1122" data-name="Path 1122" d="M383.459,378.922a1.486,1.486,0,0,1-.651-.159,1.777,1.777,0,0,1-.834-2.253l32.9-83.495a1.518,1.518,0,0,1,2.061-.893,1.777,1.777,0,0,1,.834,2.253l-32.871,83.5a1.577,1.577,0,0,1-1.443,1.043Z" transform="translate(-63.279 -48.385)" fill="#bcbec0"/>
    <path id="Path_1123" data-name="Path 1123" d="M421.355,378.925a1.577,1.577,0,0,1-1.443-1.043L386.974,294.4a1.777,1.777,0,0,1,.834-2.253,1.527,1.527,0,0,1,2.069.893l32.9,83.495a1.777,1.777,0,0,1-.834,2.253,1.486,1.486,0,0,1-.592.142Z" transform="translate(-64.107 -48.389)" fill="#bcbec0"/>
    <rect id="Rectangle_114" data-name="Rectangle 114" width="3.888" height="42.073" transform="translate(298.113 274.273)" fill="#6d6e71"/>
    <path id="Path_1124" data-name="Path 1124" d="M373.312,379.648H339.24v-.183a2.344,2.344,0,0,1,2.344-2.344h29.2a2.5,2.5,0,0,1,2.5,2.5Z" transform="translate(-56.219 -62.493)" fill="#d1d3d4"/>
    <path id="Path_1125" data-name="Path 1125" d="M338.971,317.45h34.472a4.171,4.171,0,0,1,4.171,4.171v3.8a4.171,4.171,0,0,1-4.171,4.171H338.971a4.171,4.171,0,0,1-4.171-4.171v-3.779a4.171,4.171,0,0,1,4.171-4.188Z" transform="translate(-55.483 -52.605)" fill="#d1d3d4"/>
    <path id="Path_1126" data-name="Path 1126" d="M322.5,295.12a33.8,33.8,0,0,0-12.281,5.239,3.237,3.237,0,0,0-1.427,3.1c.776,6.165,3.979,26.121,14.525,45.61a4.931,4.931,0,0,1,.476,3.337l-1.835,8.535-3.4,3.187h8.752l5.84-15.71-2.5-.784a4.739,4.739,0,0,1-3.3-4.422l-.292-16.919a19.272,19.272,0,0,0-4.622-12.748l13.991-.684Z" transform="translate(-51.169 -48.904)" fill="url(#radial-gradient-8)"/>
    <path id="Path_1127" data-name="Path 1127" d="M316.4,376.106c-.834,1.043,8.585,2.419,13.348.142,0,0,6.566-11.43,6.566-17.32,0,0-.517-1.2-4.38-.926,0,0-2.2,13.532-4.53,15.017s-6.516.15-6.516.15S317.576,374.571,316.4,376.106Z" transform="translate(-52.425 -59.318)" fill="#0a2033"/>
    <path id="Path_1128" data-name="Path 1128" d="M328.211,314.182c-.067-.133-15.017-1.8-15.017-1.8a34.872,34.872,0,0,1-1.043,10.846c-1.535,6.265-23.535,33.438-23.535,33.438l2.311,7.317a37.15,37.15,0,0,1-21.057,1.26l14.291-8.593s13.349-45.593,21.574-53.728l15.017-5.189Z" transform="translate(-44.723 -49.337)" fill="url(#radial-gradient-9)"/>
    <path id="Path_1129" data-name="Path 1129" d="M368.964,285.65s8.635,12.84,9.344,18.7-2.369,8.234-11.421,8.626-33.238.392-33.238.392L313,295.728s15.017-5.373,18.947-6.891S368.964,285.65,368.964,285.65Z" transform="translate(-51.87 -47.335)" fill="#0a2033"/>
    <path id="Path_1130" data-name="Path 1130" d="M289.194,374.16s2.5,2.411.834,5.081c0,0-19.672,3.487-25.028,1.91,0,0,1.11-2.5,7.125-5.414l-.442.342a.717.717,0,0,0,.476,1.285C276.121,377.138,284.322,376.413,289.194,374.16Z" transform="translate(-43.916 -62.003)" fill="#0a2033"/>
    <path id="Path_1131" data-name="Path 1131" d="M356.59,199.187c1.3.409,6.007,2.094,5.4,5.122a.559.559,0,0,0,.693.634c2.027-.551,6.507-1.235,9.277,2.236,2.453,3.07.617,5.973-.834,7.559a.559.559,0,0,0,.467.943c3.729-.467,11.822-.584,13.14,7,1.235,7.066-3.679,9.06-6.6,9.628a.551.551,0,0,0-.184,1.009c1.452.926,3.137,2.837,2.461,6.6-1.068,5.907-12.648,5.423-14,5.348a.626.626,0,0,1-.242-.075l-18.538-10.57a.534.534,0,0,1-.275-.392l-3.746-21.616a.576.576,0,0,1,.15-.484l12.306-12.79a.559.559,0,0,1,.526-.15Z" transform="translate(-56.942 -33.004)" fill="#0a2033"/>
    <path id="Path_1132" data-name="Path 1132" d="M348.554,274.359s-10.053-9.569-15.017-15.91a13.424,13.424,0,0,1-2.261-12.13c2.253-7.617,6.274-15.493,6.674-16.727.559-1.877,11.83-1.8,11.83-1.8s22.184,14.4,30.868,38.786l-9.794,3.1s-5.79-9.719-11.513-15.851c0,0,9.9,13.082,10.253,18.438Z" transform="translate(-54.804 -37.746)" fill="#03d0fb"/>
    <path id="Path_1133" data-name="Path 1133" d="M337.71,217.088c.117.384,3.062,10.145,3.337,10.345s6.449.534,9.377-1.468l-5.006-10.4Z" transform="translate(-55.965 -35.721)" fill="url(#radial-gradient-10)"/>
    <path id="Path_1134" data-name="Path 1134" d="M341.387,192.767s-5.306,2.244-8.918,9.92-.918,11.221,2.5,11.68,8.46.409,13.816-4.547S348.3,190.114,341.387,192.767Z" transform="translate(-54.812 -31.89)" fill="url(#radial-gradient-11)"/>
    <path id="Path_1135" data-name="Path 1135" d="M346.135,204.4s4.013-11.229-5.948-11.363l-2.344,1.669s-3.646-6.224,2.344-9.177,13.015-.517,15.568,7.559,2.987,13.482-1.26,17.353-5.99-.517-5.99-.517,2.311-3.621,1.368-5.548-3.112.392-3.112.392Z" transform="translate(-55.805 -30.543)" fill="#0a2033"/>
    <path id="Path_1136" data-name="Path 1136" d="M349.35,209.091s2.027-5.782,4.73-3.479-2.194,5.339-4.113,6.324Z" transform="translate(-57.894 -33.981)" fill="url(#radial-gradient-12)"/>
    <path id="Path_1137" data-name="Path 1137" d="M327.55,282.778l7.383-7.116,10.22,4.313s10.17,1.577,15.993,0,18.971-5.665,18.971-5.665l2.069,5.84a3.529,3.529,0,0,1-1.285,4.038,23.714,23.714,0,0,1-3.337,2.069c-1.735.759-42.707-.526-42.707-.526Z" transform="translate(-54.281 -45.456)" fill="url(#radial-gradient-13)"/>
    <path id="Path_1138" data-name="Path 1138" d="M352.114,287.719h-.1l-42.84-.05a1.919,1.919,0,1,1,0-3.829l42.84.042a1.919,1.919,0,0,1,.092,3.838Z" transform="translate(-50.897 -47.034)" fill="#939598"/>
    <path id="Path_1139" data-name="Path 1139" d="M262.845,241.86h35.682a6.808,6.808,0,0,1,6.157,3.9l16.494,34.981H276.836a4.171,4.171,0,0,1-3.846-2.611l-12.79-32.37a2.845,2.845,0,0,1,2.645-3.9Z" transform="translate(-43.087 -40.078)" fill="#939598"/>
    <path id="Path_1140" data-name="Path 1140" d="M292.42,262.649c.768,2.4.2,4.73-1.276,5.206s-3.337-1.085-4.08-3.487-.2-4.739,1.276-5.214S291.644,260.246,292.42,262.649Z" transform="translate(-47.517 -42.93)" fill="url(#linear-gradient-7)"/>
    <path id="Path_1141" data-name="Path 1141" d="M249.675,285.985H207.51V281.63h42.165C248.8,281.63,248.8,285.985,249.675,285.985Z" transform="translate(-34.389 -46.669)" fill="url(#linear-gradient-8)"/>
    <path id="Path_1142" data-name="Path 1142" d="M207.212,285.789a.551.551,0,0,1-.542-.542v-3.27a.542.542,0,0,1,.542-.542h42.365a.5.5,0,1,0,0-.984H204.259a1.819,1.819,0,0,0-1.819,1.819v2.812a1.719,1.719,0,0,0,1.71,1.719h45.426a.5.5,0,1,0,0-.984Z" transform="translate(-33.548 -46.473)" fill="#0a2033"/>
    <path id="Path_1143" data-name="Path 1143" d="M393.689,289.969a1.51,1.51,0,0,0-.4-1.368,2.044,2.044,0,0,0-1.477-.6H198.843a2.3,2.3,0,0,0-1.852.876,1.669,1.669,0,0,0-.142,1.827l2.094,3.971a2.978,2.978,0,0,0,2.653,1.468h188.9a2.152,2.152,0,0,0,2.177-1.552Z" transform="translate(-32.587 -47.724)" fill="#414042"/>
    <path id="Path_1144" data-name="Path 1144" d="M7.764,352.618a2.4,2.4,0,0,1-1.076-.259,2.361,2.361,0,0,1-1.009-3.17L111.857,144.432a2.353,2.353,0,1,1,4.171,2.169L9.85,351.35A2.336,2.336,0,0,1,7.764,352.618Z" transform="translate(-0.898 -23.708)" fill="#414042"/>
    <path id="Path_1145" data-name="Path 1145" d="M68.133,353.943a2.235,2.235,0,0,1-.934-.2,2.344,2.344,0,0,1-1.235-1.293,2.311,2.311,0,0,1,0-1.794L156.7,142.169a2.347,2.347,0,1,1,4.3,1.869l-90.72,208.5A2.361,2.361,0,0,1,68.133,353.943Z" transform="translate(-10.902 -23.323)" fill="#414042"/>
    <path id="Path_1146" data-name="Path 1146" d="M149.208,191.677h-36.8a1.468,1.468,0,1,1,0-2.937h36.8a1.468,1.468,0,0,1,0,2.937Z" transform="translate(-18.385 -31.275)" fill="#414042"/>
    <path id="Path_1147" data-name="Path 1147" d="M137.4,219.007H100.618a1.468,1.468,0,1,1,0-2.937H137.4a1.468,1.468,0,1,1,0,2.937Z" transform="translate(-16.431 -35.804)" fill="#414042"/>
    <path id="Path_1148" data-name="Path 1148" d="M121.411,251.737H82.258a1.468,1.468,0,1,1,0-2.937h39.153a1.468,1.468,0,1,1,0,2.937Z" transform="translate(-13.388 -41.228)" fill="#414042"/>
    <path id="Path_1149" data-name="Path 1149" d="M161.251,165.167H126.136a1.468,1.468,0,1,1,0-2.928h35.115a1.468,1.468,0,0,1,0,2.928Z" transform="translate(-20.642 -26.882)" fill="#414042"/>
    <path id="Path_1150" data-name="Path 1150" d="M105.257,289.417H62.708a1.468,1.468,0,0,1,0-2.937h42.548a1.468,1.468,0,0,1,0,2.937Z" transform="translate(-10.149 -47.472)" fill="#414042"/>
    <path id="Path_1151" data-name="Path 1151" d="M92.647,318.6H47.028a1.468,1.468,0,0,1,0-2.937H92.647a1.468,1.468,0,1,1,0,2.937Z" transform="translate(-7.55 -52.308)" fill="#414042"/>
    <path id="Path_1152" data-name="Path 1152" d="M195.44,63.652a5.047,5.047,0,0,1,4.53-1.176c2.945.542,5.565,1.56,7.4,0s2.5.534,2.5.534l-5.49,4.171Z" transform="translate(-32.388 -10.255)" fill="#efa78b"/>
    <path id="Path_1153" data-name="Path 1153" d="M86.618,282.207c-4.7-4.088-14.792-7.367-14.792-7.367l-6.074.134c-1.543,1.735-2.244,5.1-2.5,7.2,1.143.684,3.287,1.285,7.217,1.477a59.234,59.234,0,0,0,16.152-1.443Z" transform="translate(-10.482 -45.543)" fill="url(#linear-gradient-9)"/>
    <path id="Path_1154" data-name="Path 1154" d="M86.6,283.663a59.234,59.234,0,0,1-16.185,1.443c-3.929-.192-6.074-.793-7.217-1.477a4.229,4.229,0,0,1-.067.484,1.794,1.794,0,0,0,1.26,1.936c5.548,1.669,17.745,1.151,22.526.834a1.251,1.251,0,0,0,.893-2.044A10.1,10.1,0,0,0,86.6,283.663Z" transform="translate(-10.459 -47)" fill="url(#linear-gradient-10)"/>
    <path id="Path_1155" data-name="Path 1155" d="M66.84,268.7v4.831a1.969,1.969,0,0,0,1.56,1.927,7.583,7.583,0,0,0,3.4,0,1.877,1.877,0,0,0,1.41-1.61l.609-5.181Z" transform="translate(-11.077 -44.521)" fill="url(#radial-gradient-14)"/>
    <path id="Path_1156" data-name="Path 1156" d="M102.381,237.914c-1.877-4.171-1.343-6.082-5.072-5.665a5.231,5.231,0,0,0-1.135.25,3.379,3.379,0,0,0,0,2.186,41.622,41.622,0,0,0,6.5,11.914,4.088,4.088,0,0,0,3.145,1.535l4.113.067a26.322,26.322,0,0,1-7.55-10.287Z" transform="translate(-15.908 -38.476)" fill="url(#linear-gradient-11)"/>
    <path id="Path_1157" data-name="Path 1157" d="M110.259,241.187c-3.154-2.228-4.33-11.3-4.33-11.3l-4.864-2.5-3.671,2.653A3.42,3.42,0,0,0,96.21,231.7a5.232,5.232,0,0,1,1.135-.25c3.729-.417,3.2,1.468,5.072,5.665A26.321,26.321,0,0,0,110,247.4l2.828.05a1.518,1.518,0,0,0,1.235-2.436,18.355,18.355,0,0,0-3.8-3.829Z" transform="translate(-15.944 -37.678)" fill="url(#linear-gradient-12)"/>
    <path id="Path_1158" data-name="Path 1158" d="M104.919,221.94l-2.962,4.572a1.318,1.318,0,0,0,.292,1.76,4.355,4.355,0,0,0,4.572.709l4.714-3.229Z" transform="translate(-16.861 -36.777)" fill="url(#radial-gradient-15)"/>
    <path id="Path_1159" data-name="Path 1159" d="M76.835,163.983s-1.543,4.355-3.788,19.656-3.713,26.422-4.939,32.487c-1.118,5.548-2.878,25.529-2.77,34.264a2.094,2.094,0,0,0,2.152,2.077l5.782-.184a1.869,1.869,0,0,0,1.794-1.56c1.527-8.994,12.105-55.413,18.479-68.77,0,0,16.961,4.8,21.191,6.724,0,0-5.465,2.194-16.686,23.2,0,0,4.847,3.846,8.268,4.647,0,0,24.519-20.34,27.114-22.467s4.947-5.84-1.669-12.514-23.21-18.3-23.21-18.3Z" transform="translate(-10.827 -27.049)" fill="url(#linear-gradient-13)"/>
    <path id="Path_1160" data-name="Path 1160" d="M95.919,184.371h-.125l-6.049-2.328a7.6,7.6,0,0,1-4.3-6.783.3.3,0,0,1,.292-.3.284.284,0,0,1,.3.292A7,7,0,0,0,90,181.509l6.057,2.328a.292.292,0,0,1,.133.392.284.284,0,0,1-.267.142Z" transform="translate(-14.159 -28.991)" fill="url(#linear-gradient-14)"/>
    <path id="Path_1161" data-name="Path 1161" d="M144.87,161.789s6.374-4.822,9.269-3.921a12.006,12.006,0,0,1,5.006,3.629h-6.407s-1.527,2.928,0,2.928H155S149.058,170.7,144.87,161.789Z" transform="translate(-24.008 -26.14)" fill="url(#radial-gradient-16)"/>
    <path id="Path_1162" data-name="Path 1162" d="M129.862,108.07s7.509,29.567,17.6,41.455a14.241,14.241,0,0,1-6.816,4.03s-15.543-13.624-20.281-23.093S129.862,108.07,129.862,108.07Z" transform="translate(-19.787 -17.906)" fill="#033cfb"/>
    <path id="Path_1163" data-name="Path 1163" d="M118.525,74.34,111.1,87.93h11.68s.943-6.215,4.021-9.953Z" transform="translate(-18.411 -12.317)" fill="url(#radial-gradient-17)"/>
    <path id="Path_1164" data-name="Path 1164" d="M127.876,51.91s4.238,9.728,4.522,14.834,1.385,8.418-4.522,9.444-10.846-1.91-13.574-7c0,0-4.221-7.834-3.27-11.046S127.876,51.91,127.876,51.91Z" transform="translate(-18.377 -8.6)" fill="url(#radial-gradient-18)"/>
    <path id="Path_1165" data-name="Path 1165" d="M114.813,63.424h.751s-3.078-6.307-.375-7.417,13.407-3.287,15.718-7.091a7.07,7.07,0,0,0-2.736-9.711.4.4,0,0,0-.5.184l-.25.467a.4.4,0,0,1-.734-.075h0a.409.409,0,0,0-.726-.108c-.7,1.135-2.62,2.978-7.75,3.929-7.283,1.343-12.105,4.3-12.222,9.327a.4.4,0,0,1-.617.325c-.542-.325-1.4-.476-2.553.492-1.994,1.669-1.176,6.04,3.2,9.628a.4.4,0,0,1,0,.642c-.834.517-1.977,1.752,1.093,3.4s5.006,1.493,5.7,1.31a.4.4,0,0,0,.309-.409l-.309-4.463a.392.392,0,0,1,.392-.425Z" transform="translate(-16.868 -6.489)" fill="url(#linear-gradient-15)"/>
    <path id="Path_1166" data-name="Path 1166" d="M116.564,68.41s-1.61-6.215-4.4-4.472,1.443,6.958,3.679,7.192Z" transform="translate(-18.436 -10.542)" fill="url(#radial-gradient-19)"/>
    <path id="Path_1167" data-name="Path 1167" d="M190.89,66.536s1.085-4.564,4.372-3.938,10.746,4.68,12.664,3.938,4.38-2.5,5.64-1.9l-2.219,2.753s5.706-3.287,6.674-1.268L208.5,71.467S194.636,70.073,190.89,66.536Z" transform="translate(-31.634 -10.361)" fill="url(#radial-gradient-20)"/>
    <path id="Path_1168" data-name="Path 1168" d="M103.934,85.742s3.337-5.439,24.978-4.1c11.254.692,36.583-9.119,42.223-14.058a10.537,10.537,0,0,1,7.058,3.521s-23.36,24.686-50.657,27.84c0,0-12.147,44.8-12.005,51.725,0,0-20.857,6.1-37.493.2,0,0-.517-11.855,5.99-28.232a183.734,183.734,0,0,1,19.906-36.892Z" transform="translate(-12.931 -11.196)" fill="#033cfb"/>
    <path id="Path_1169" data-name="Path 1169" d="M120.792,106.677a.3.3,0,0,1-.292-.267.292.292,0,0,1,.275-.317c.1,0,10.5-.834,12.122-1.043a.3.3,0,0,1,.325.259.292.292,0,0,1-.259.325c-1.669.184-12.039,1.035-12.147,1.043Z" transform="translate(-19.969 -17.406)" fill="url(#linear-gradient-16)"/>
    <path id="Path_1170" data-name="Path 1170" d="M460.439,312.94c-2.378-5.656-10.979-22.826-26.2-17.52a.225.225,0,0,0,0,.442c3.337.626,15.8,3.763,25.771,17.3a.244.244,0,0,0,.434-.225Z" transform="translate(-71.931 -48.787)" fill="#035afb"/>
    <path id="Path_1171" data-name="Path 1171" d="M460.114,314.769c-3.429-3.229-13.615-15.71-27.156-10.011a.159.159,0,0,0,0,.3c3.337.35,19.956,2.453,27.047,10.011C460.231,315.245,460.306,314.953,460.114,314.769Z" transform="translate(-71.732 -50.258)" fill="#035afb"/>
    <path id="Path_1172" data-name="Path 1172" d="M462.613,310.641c-.325-4.271-2.236-20.381-12.606-23.7a.083.083,0,0,0-.1.125c1.251,1.76,10.353,14.792,12.514,23.6a.1.1,0,0,0,.192-.025Z" transform="translate(-74.556 -47.547)" fill="#035afb"/>
    <path id="Path_1173" data-name="Path 1173" d="M461.968,319.964a.092.092,0,0,0,.108-.142c-1.835-1.827-9.427-8.535-19.063-5.231C432.1,318.337,451.214,314.132,461.968,319.964Z" transform="translate(-72.876 -51.982)" fill="#035afb"/>
    <path id="Path_1174" data-name="Path 1174" d="M465.7,312.539a.276.276,0,0,1-.551.05c-1.151-5.064-3.587-19.022,3.512-22.567C477.065,285.817,466.837,296,465.7,312.539Z" transform="translate(-76.861 -47.902)" fill="#035afb"/>
    <path id="Path_1175" data-name="Path 1175" d="M465.483,315.364c1.193-3.1,5.79-12.756,15.359-7.509a.184.184,0,0,1-.075.342,22.526,22.526,0,0,0-14.975,7.383.189.189,0,1,1-.309-.217Z" transform="translate(-77.134 -50.76)" fill="#035afb"/>
    <path id="Path_1176" data-name="Path 1176" d="M465.8,317.369c.442-1.919,2.728-5.773,14.375-2.244a.058.058,0,1,1,0,.117c-2.294-.234-10.011-.759-13.816,2.453a.334.334,0,0,1-.559-.325Z" transform="translate(-77.19 -51.982)" fill="#035afb"/>
    <path id="Path_1177" data-name="Path 1177" d="M468.341,370.1v.042h0v-1.5l.042-1.669.058-3.337q.05-3.379,0-6.758c0-4.505-.092-9.019-.267-13.515-.092-2.253-.2-4.505-.342-6.749s-.334-4.488-.559-6.733-.526-4.463-.909-6.674a35.87,35.87,0,0,0-1.669-6.466h0a.4.4,0,0,1,.234-.509.392.392,0,0,1,.5.225,36.147,36.147,0,0,1,1.8,6.6c.425,2.236.751,4.48,1.009,6.733s.476,4.5.659,6.758.317,4.513.442,6.766c.234,4.522.375,9.044.451,13.557,0,2.261.058,4.522.058,6.783v6.724a2.422,2.422,0,0,1-.042.242.768.768,0,0,1-1.452-.484Z" transform="translate(-77.005 -52.399)" fill="#035afb"/>
    <path id="Path_1178" data-name="Path 1178" d="M476,330.138c1.777-4.238,8.218-17.069,19.6-13.107a.175.175,0,0,1,0,.334c-2.5.467-11.813,2.812-19.272,12.94a.183.183,0,0,1-.325-.167Z" transform="translate(-78.879 -52.411)" fill="#031efb"/>
    <path id="Path_1179" data-name="Path 1179" d="M476.064,331.493c2.561-2.411,10.178-11.738,20.3-7.509a.117.117,0,0,1,0,.225c-2.5.259-14.925,1.835-20.223,7.458C476,331.852,475.914,331.635,476.064,331.493Z" transform="translate(-78.88 -53.508)" fill="#031efb"/>
    <path id="Path_1180" data-name="Path 1180" d="M476.37,328.41c.242-3.187,1.669-15.234,9.427-17.72a.067.067,0,0,1,.075.092c-.934,1.318-7.742,11.063-9.386,17.653a.06.06,0,0,1-.117-.025Z" transform="translate(-78.944 -51.484)" fill="#031efb"/>
    <path id="Path_1181" data-name="Path 1181" d="M475.421,335.387a.067.067,0,0,1-.075-.108c1.368-1.368,7.041-6.382,14.25-3.913C497.763,334.169,483.463,331.024,475.421,335.387Z" transform="translate(-78.771 -54.799)" fill="#031efb"/>
    <path id="Path_1182" data-name="Path 1182" d="M474.741,329.83a.209.209,0,0,0,.409,0c.834-3.788,2.686-14.224-2.628-16.878C466.24,309.849,473.89,317.457,474.741,329.83Z" transform="translate(-77.899 -51.744)" fill="#031efb"/>
    <path id="Path_1183" data-name="Path 1183" d="M473.815,331.944c-.893-2.328-4.33-9.544-11.488-5.64a.142.142,0,0,0,.058.259,16.819,16.819,0,0,1,11.2,5.515.135.135,0,1,0,.234-.133Z" transform="translate(-76.606 -53.884)" fill="#031efb"/>
    <path id="Path_1184" data-name="Path 1184" d="M473.736,333.455c-.334-1.435-2.044-4.313-10.754-1.669a.042.042,0,0,0,0,.083c1.71-.175,7.509-.567,10.328,1.835a.25.25,0,0,0,.425-.25Z" transform="translate(-76.718 -54.802)" fill="#031efb"/>
    <path id="Path_1185" data-name="Path 1185" d="M471.909,373.282a1.67,1.67,0,0,1,0-.217.518.518,0,0,1,0-.1v-4.947c0-1.669,0-3.387.058-5.072q.092-5.081.359-10.145c.192-3.379.442-6.758.834-10.128.2-1.669.451-3.337.768-5.006a27.315,27.315,0,0,1,1.368-4.956.384.384,0,0,1,.509-.217.375.375,0,0,1,.217.5h0a26.7,26.7,0,0,0-1.226,4.822c-.292,1.669-.5,3.337-.667,5.006-.342,3.337-.534,6.674-.659,10.07s-.167,6.733-.175,10.1v5.056l.042,2.5.042,1.26v1.043a.768.768,0,1,1-1.452.484Z" transform="translate(-78.204 -55.093)" fill="#031efb"/>
    <path id="Path_1186" data-name="Path 1186" d="M456.193,339.743c-2.036-3.337-8.994-13.223-16.936-8.209a.15.15,0,0,0,.075.275c1.977,0,9.377.659,16.686,8.126C456.109,340.035,456.276,339.893,456.193,339.743Z" transform="translate(-72.782 -54.708)" fill="#031efb"/>
    <path id="Path_1187" data-name="Path 1187" d="M456.237,340.905c-2.328-1.669-9.6-8.443-16.535-3.337a.1.1,0,0,0,.058.184c1.927-.142,11.555-.626,16.477,3.337C456.362,341.189,456.37,341.005,456.237,340.905Z" transform="translate(-72.86 -55.628)" fill="#031efb"/>
    <path id="Path_1188" data-name="Path 1188" d="M457.1,338.206c-.7-2.661-3.754-12.639-10.011-13.607a.05.05,0,1,0-.042.092c.926.976,7.65,8.218,9.97,13.549a.045.045,0,0,0,.083-.033Z" transform="translate(-74.079 -53.789)" fill="#031efb"/>
    <path id="Path_1189" data-name="Path 1189" d="M457.937,343.958a.058.058,0,0,0,.042-.1c-1.26-.96-6.357-4.372-11.388-1.226C440.892,346.193,451.154,341.446,457.937,343.958Z" transform="translate(-73.734 -56.562)" fill="#031efb"/>
    <path id="Path_1190" data-name="Path 1190" d="M459.313,338.928a.159.159,0,0,1-.3.083c-1.276-3.07-4.355-11.622-.784-14.642C462.45,320.774,457.928,328.324,459.313,338.928Z" transform="translate(-75.661 -53.601)" fill="#031efb"/>
    <path id="Path_1191" data-name="Path 1191" d="M459.52,340.629c.292-2.094,1.669-8.693,7.742-6.441a.125.125,0,0,1,0,.225,12.322,12.322,0,0,0-7.508,6.3A.125.125,0,0,1,459.52,340.629Z" transform="translate(-76.151 -55.302)" fill="#031efb"/>
    <path id="Path_1192" data-name="Path 1192" d="M459.81,341.936c0-1.26.834-3.946,7.834-2.987.042,0,.05.075,0,.075-1.326.1-5.748.617-7.508,3.062a.2.2,0,0,1-.325-.15Z" transform="translate(-76.2 -56.134)" fill="#031efb"/>
    <path id="Path_1193" data-name="Path 1193" d="M467.327,375.12v.067h0v-.125l-.042-.259-.083-.534-.175-1.068-.375-2.144c-.25-1.427-.517-2.845-.784-4.272q-.834-4.263-1.769-8.5c-.634-2.828-1.318-5.64-2.111-8.418-.4-1.385-.834-2.77-1.31-4.121a24.928,24.928,0,0,0-1.719-3.913h0a.393.393,0,0,1,.676-.4,26.1,26.1,0,0,1,1.86,4.021c.526,1.368.984,2.753,1.418,4.171q1.251,4.18,2.311,8.426c.7,2.828,1.343,5.656,1.952,8.5.309,1.427.6,2.845.884,4.271l.417,2.144.2,1.076.1.542.05.275V375h0v.083a1.594,1.594,0,0,1,0,.2.763.763,0,0,1-1.518-.15Z" transform="translate(-76.049 -56.547)" fill="#031efb"/>
    <path id="Path_1194" data-name="Path 1194" d="M461.144,377.2h15.017a1.535,1.535,0,0,1,1.493,1.877,47.8,47.8,0,0,1-4.472,12.673,2.5,2.5,0,0,1-2.169,1.293h-4.9a2.428,2.428,0,0,1-2.136-1.276,43.289,43.289,0,0,1-4.6-12.439,1.794,1.794,0,0,1,1.76-2.127Z" transform="translate(-76.124 -62.506)" fill="#03d0fb"/>
    <path id="Path_1195" data-name="Path 1195" d="M216.631,54.525c0-.3-.325-.559-.834-.768.559-.309.834-.642.834-.968-.075-.976-3.2-1.535-6.958-1.226s-6.749,1.343-6.674,2.328c0,.3.325.559.834.768-.559.309-.876.642-.834.959s.325.559.834.768c-.559.309-.876.642-.834.968s.325.559.834.759c-.559.309-.876.642-.834.968s.659.784,1.669,1.018a9.318,9.318,0,0,0,0,1.06c.15,1.819,2.186,3.237,4.889,3.237s5.006-1.936,5.056-3.754a8.636,8.636,0,0,0-.017-1.218c1.293-.425,2.077-.951,2.036-1.468,0-.292-.325-.551-.834-.759.559-.309.834-.642.834-.968s-.325-.559-.834-.759C216.348,55.176,216.665,54.85,216.631,54.525Z" transform="translate(-33.64 -8.528)" fill="#0a2033"/>
    <path id="Path_1196" data-name="Path 1196" d="M208.311,62.083a15.794,15.794,0,0,1-2.987-.25.083.083,0,0,1-.075-.1.092.092,0,0,1,.108-.075,19.28,19.28,0,0,0,5.006.159,21.691,21.691,0,0,0,4.171-.717.075.075,0,0,1,.108.058.092.092,0,0,1-.058.117,22.19,22.19,0,0,1-4.171.726C209.646,62.049,208.962,62.083,208.311,62.083Z" transform="translate(-34.014 -10.121)" fill="url(#linear-gradient-17)"/>
    <path id="Path_1197" data-name="Path 1197" d="M208.2,59.907a14.383,14.383,0,0,1-3.671-.392.1.1,0,0,1-.058-.117.083.083,0,0,1,.108-.058,20.857,20.857,0,0,0,11.088-.884.074.074,0,1,1,.075.125,17.778,17.778,0,0,1-5.523,1.2A14.027,14.027,0,0,1,208.2,59.907Z" transform="translate(-33.884 -9.681)" fill="url(#linear-gradient-18)"/>
    <path id="Path_1198" data-name="Path 1198" d="M208.14,57.837a13.115,13.115,0,0,1-3.871-.467.083.083,0,0,1-.05-.108.075.075,0,0,1,.108-.058,16.469,16.469,0,0,0,5.84.367,17.7,17.7,0,0,0,5.465-1.185.083.083,0,0,1,.117,0,.092.092,0,0,1-.042.125,17.828,17.828,0,0,1-5.531,1.218A17.185,17.185,0,0,1,208.14,57.837Z" transform="translate(-33.842 -9.337)" fill="url(#linear-gradient-19)"/>
    <path id="Path_1199" data-name="Path 1199" d="M208.27,55.772a15.217,15.217,0,0,1-3.254-.3.083.083,0,0,1-.067-.108.092.092,0,0,1,.108-.067,18.989,18.989,0,0,0,5.223.209,17.8,17.8,0,0,0,5.431-1.176.092.092,0,1,1,.075.167,18.229,18.229,0,0,1-5.49,1.226C209.6,55.722,208.92,55.772,208.27,55.772Z" transform="translate(-33.963 -8.999)" fill="url(#linear-gradient-20)"/>
    <path id="Path_1200" data-name="Path 1200" d="M198.28,37.258A12.789,12.789,0,0,0,196,32.812a29.458,29.458,0,0,1-6.349-16.41C188.978,5.005,199.114-.71,208.291.066s18.354,7.65,17.361,18.287c-.609,6.524-4.263,11.48-6.983,14.325a15.075,15.075,0,0,0-3.629,6.424c-.834,2.945-2.753,6.616-7.375,6.841C201.692,46.2,199.215,40.629,198.28,37.258Z" transform="translate(-31.424 0.004)" fill="#03d0fb"/>
    <path id="Path_1201" data-name="Path 1201" d="M213.079,48l3.27-21c.067-.434.284-.726.476-.651s.309.492.242.926h0l-3.679,20.807c0,.15-.108.25-.175.217A.293.293,0,0,1,213.079,48Z" transform="translate(-35.311 -4.361)" fill="url(#linear-gradient-21)"/>
    <path id="Path_1202" data-name="Path 1202" d="M208.282,48.2l-3.229-21c-.067-.434-.284-.726-.484-.651s-.3.492-.234.926h0l3.679,20.807c0,.15.108.25.175.217S208.3,48.347,208.282,48.2Z" transform="translate(-33.859 -4.395)" fill="url(#linear-gradient-22)"/>
    <path id="Path_1203" data-name="Path 1203" d="M215.039,24.494a.325.325,0,0,0-.417-.108l-1.8.834-.626-1.777a.384.384,0,0,0-.217-.225.442.442,0,0,0-.551.175h0l-1.485,2.695-1.368-3.838h0a.409.409,0,0,0-.209-.234.542.542,0,0,0-.684.133l-2.061,2.845a.25.25,0,0,0,.067.359.35.35,0,0,0,.442-.05l1.819-2.027,1.669,3.646h0a.292.292,0,0,0,.142.142.35.35,0,0,0,.425-.117l1.585-2.5.592,1.285h0a.342.342,0,0,0,.417.108l2.136-1a.25.25,0,0,0,.125-.342Z" transform="translate(-34.067 -3.634)" fill="#fff"/>
    <path id="Path_1204" data-name="Path 1204" d="M224.439,35.258a.384.384,0,0,1-.242-.083.4.4,0,0,1-.083-.567,25.488,25.488,0,0,0,1.5-2.278.409.409,0,0,1,.559-.15.417.417,0,0,1,.15.559,24.324,24.324,0,0,1-1.552,2.353A.426.426,0,0,1,224.439,35.258Z" transform="translate(-37.126 -5.321)" fill="#fff"/>
    <path id="Path_1205" data-name="Path 1205" d="M227.628,27.313a.592.592,0,0,1-.167,0,.409.409,0,0,1-.209-.542,19.088,19.088,0,0,0,.434-14.516.413.413,0,0,1,.751-.342A19.681,19.681,0,0,1,228,27.1a.409.409,0,0,1-.375.217Z" transform="translate(-37.654 -1.931)" fill="#fff"/>
    <rect id="Rectangle_115" data-name="Rectangle 115" width="426.309" height="5.915" transform="translate(0 328.885)" fill="#031efb" opacity="0.35"/>
  </g>
</svg>
