<svg xmlns="http://www.w3.org/2000/svg" width="19.949" height="19.949" viewBox="0 0 19.949 19.949">
  <g id="calendar" opacity="0.45">
    <path id="Path_754" data-name="Path 754" d="M17.377,1.558H15.585V.623a.623.623,0,1,0-1.247,0v.935H5.611V.623a.623.623,0,1,0-1.247,0v.935H2.572A2.574,2.574,0,0,0,0,4.13V17.377a2.574,2.574,0,0,0,2.572,2.572H17.377a2.574,2.574,0,0,0,2.572-2.572V4.13A2.574,2.574,0,0,0,17.377,1.558ZM2.572,2.805H4.364v.623a.623.623,0,1,0,1.247,0V2.805h8.728v.623a.623.623,0,1,0,1.247,0V2.805h1.792A1.326,1.326,0,0,1,18.7,4.13V5.611H1.247V4.13A1.326,1.326,0,0,1,2.572,2.805ZM17.377,18.7H2.572a1.326,1.326,0,0,1-1.325-1.325V6.857H18.7v10.52A1.326,1.326,0,0,1,17.377,18.7Z"/>
  </g>
</svg>
