<svg xmlns="http://www.w3.org/2000/svg" viewBox="0 0 128 128"><defs><style>.cls-1{fill:#031efb;}.cls-2{fill:#fff;}</style></defs><g id="Layer_2" data-name="Layer 2"><g id="Capa_1" data-name="Capa 1"><circle class="cls-1" cx="64" cy="64" r="64"/><path class="cls-2" d="M108.91,57c0-15.08-16.7-27.35-37.22-27.35S34.47,41.87,34.47,57,51.16,84.3,71.69,84.3c1.72,0,3.46-.09,5.16-.26,7.9,4.4,13.74,6.81,17.36,7.16a2.3,2.3,0,0,0,.37,0,3.6,3.6,0,0,0,2.88-1.36,2.67,2.67,0,0,0,.12-3.14s-2.82-4.51-2-8.77C104.06,72.74,108.91,65.13,108.91,57ZM61.58,61.08c-3,0-5.51-2.16-5.51-4.83s2.46-4.83,5.51-4.83,5.51,2.16,5.51,4.83S64.62,61.08,61.58,61.08Zm20.22,0c-3,0-5.52-2.16-5.52-4.83s2.47-4.83,5.52-4.83,5.51,2.16,5.51,4.83S84.84,61.08,81.8,61.08Z"/><path class="cls-2" d="M42.33,78.83a30.69,30.69,0,0,1-8.65-9.32,22.59,22.59,0,0,1,0-23.38c.16-.28.34-.56.51-.84-9.12,4.58-15.1,12.22-15.1,20.85,0,7.76,4.77,15,13.1,19.79,1.54,5.3-2,10.91-2.07,11a.9.9,0,0,0,0,1,1.2,1.2,0,0,0,1,.45h.13c4.17-.41,11.51-4.12,17.07-7.25a48.83,48.83,0,0,0,5.69.33,44.34,44.34,0,0,0,19.71-4.43c-1.25.09-2.52.14-3.78.14C59.56,87.19,49.76,84.22,42.33,78.83Z"/></g></g></svg>