<svg xmlns="http://www.w3.org/2000/svg" width="295" height="295" viewBox="0 0 295 295">
  <g id="Group_739" data-name="Group 739" transform="translate(-412 -1211)" opacity="0.95">
    <g id="Ellipse_15" data-name="Ellipse 15" transform="translate(518 1317)" fill="none" stroke="#fadc9b" stroke-linecap="round" stroke-width="1" stroke-dasharray="6">
      <circle cx="41.5" cy="41.5" r="41.5" stroke="none"/>
      <circle cx="41.5" cy="41.5" r="41" fill="none"/>
    </g>
    <g id="Ellipse_16" data-name="Ellipse 16" transform="translate(503 1302)" fill="none" stroke="#fadc9b" stroke-linecap="round" stroke-width="1" stroke-dasharray="6">
      <circle cx="56.5" cy="56.5" r="56.5" stroke="none"/>
      <circle cx="56.5" cy="56.5" r="56" fill="none"/>
    </g>
    <g id="Ellipse_17" data-name="Ellipse 17" transform="translate(488 1287)" fill="none" stroke="#fadc9b" stroke-linecap="round" stroke-width="1" stroke-dasharray="6">
      <circle cx="71.5" cy="71.5" r="71.5" stroke="none"/>
      <circle cx="71.5" cy="71.5" r="71" fill="none"/>
    </g>
    <g id="Ellipse_18" data-name="Ellipse 18" transform="translate(472 1271)" fill="none" stroke="#fadc9b" stroke-linecap="round" stroke-width="1" stroke-dasharray="6">
      <circle cx="87.5" cy="87.5" r="87.5" stroke="none"/>
      <circle cx="87.5" cy="87.5" r="87" fill="none"/>
    </g>
    <g id="Ellipse_19" data-name="Ellipse 19" transform="translate(457 1256)" fill="none" stroke="#fadc9b" stroke-linecap="round" stroke-width="1" stroke-dasharray="6">
      <circle cx="102" cy="102" r="102" stroke="none"/>
      <circle cx="102" cy="102" r="101.5" fill="none"/>
    </g>
    <g id="Ellipse_20" data-name="Ellipse 20" transform="translate(443 1242)" fill="none" stroke="#fadc9b" stroke-linecap="round" stroke-width="1" stroke-dasharray="6">
      <circle cx="116.5" cy="116.5" r="116.5" stroke="none"/>
      <circle cx="116.5" cy="116.5" r="116" fill="none"/>
    </g>
    <g id="Ellipse_21" data-name="Ellipse 21" transform="translate(427 1226)" fill="none" stroke="#fadc9b" stroke-linecap="round" stroke-width="1" stroke-dasharray="6">
      <circle cx="132.5" cy="132.5" r="132.5" stroke="none"/>
      <circle cx="132.5" cy="132.5" r="132" fill="none"/>
    </g>
    <g id="Ellipse_22" data-name="Ellipse 22" transform="translate(412 1211)" fill="none" stroke="#fadc9b" stroke-linecap="round" stroke-width="1" stroke-dasharray="6" opacity="0.56">
      <circle cx="147.5" cy="147.5" r="147.5" stroke="none"/>
      <circle cx="147.5" cy="147.5" r="147" fill="none"/>
    </g>
  </g>
</svg>
