<svg xmlns="http://www.w3.org/2000/svg" xmlns:xlink="http://www.w3.org/1999/xlink" width="70.01" height="70.733" viewBox="0 0 70.01 70.733">
  <defs>
    <filter id="Rectangle_59" x="0" y="0" width="70.01" height="70.733" filterUnits="userSpaceOnUse">
      <feOffset dy="3" input="SourceAlpha"/>
      <feGaussianBlur stdDeviation="3" result="blur"/>
      <feFlood flood-opacity="0.161"/>
      <feComposite operator="in" in2="blur"/>
      <feComposite in="SourceGraphic"/>
    </filter>
  </defs>
  <g id="Group_1143" data-name="Group 1143" transform="translate(8.895 6.321)">
    <g transform="matrix(1, 0, 0, 1, -8.9, -6.32)" filter="url(#Rectangle_59)">
      <rect id="Rectangle_59-2" data-name="Rectangle 59" width="52.01" height="52.733" rx="7" transform="translate(9 6)" fill="#c0ecf7"/>
    </g>
    <g id="Icons" transform="translate(7.553 7.494)">
      <g id="Group_1185" data-name="Group 1185" transform="translate(4 4)">
        <g id="Group_1170" data-name="Group 1170">
          <path id="Path_1878" data-name="Path 1878" d="M29.764,13.241a5.155,5.155,0,0,1-6-6,12.321,12.321,0,0,0-3.192-1V4H16.433V6.247A12.357,12.357,0,0,0,11.3,8.373l-1.59-1.59L6.783,9.714l1.59,1.59a12.357,12.357,0,0,0-2.126,5.129H4v4.144H6.247a12.357,12.357,0,0,0,2.126,5.129L6.783,27.3l2.931,2.931,1.59-1.59a12.36,12.36,0,0,0,5.129,2.126V33.01h4.144V30.763a12.357,12.357,0,0,0,5.129-2.126l1.59,1.59L30.227,27.3l-1.59-1.59a12.36,12.36,0,0,0,2.126-5.129H33.01V16.433H30.763A12.321,12.321,0,0,0,29.764,13.241ZM26.794,18.5A8.289,8.289,0,1,1,18.5,10.216,8.288,8.288,0,0,1,26.794,18.5Z" transform="translate(-4 -4)" fill="#fab400"/>
        </g>
        <g id="Group_1171" data-name="Group 1171" transform="translate(20.721 0)">
          <circle id="Ellipse_53" data-name="Ellipse 53" cx="4.144" cy="4.144" r="4.144" fill="#3cc8b4"/>
        </g>
        <g id="Group_1172" data-name="Group 1172" transform="translate(20.721 0)">
          <path id="Path_1879" data-name="Path 1879" d="M45.036,8.144a4.143,4.143,0,0,1,3.626-4.109,4.144,4.144,0,1,0,0,8.217A4.143,4.143,0,0,1,45.036,8.144Z" transform="translate(-44 -4)" fill="#1eaa96"/>
        </g>
        <g id="Group_1173" data-name="Group 1173" transform="translate(22.276 2.072)">
          <path id="Path_1880" data-name="Path 1880" d="M52.18,9.036l-3.108,3.108L47,10.072l1.036-1.036,1.036,1.036L51.144,8Z" transform="translate(-47 -8)" fill="#f0f0f0"/>
        </g>
        <g id="Group_1174" data-name="Group 1174" transform="translate(8.581 0)">
          <path id="Path_1881" data-name="Path 1881" d="M21.36,8.373a12.357,12.357,0,0,1,5.129-2.126V4H24.417V6.247a12.326,12.326,0,0,0-3.852,1.331Z" transform="translate(-20.565 -4)" fill="#dc9600"/>
        </g>
        <g id="Group_1175" data-name="Group 1175" transform="translate(15.541 6.216)">
          <path id="Path_1882" data-name="Path 1882" d="M39.311,17.2A8.238,8.238,0,0,0,35.036,16,8.337,8.337,0,0,0,34,16.071a8.281,8.281,0,0,1,0,16.434,8.241,8.241,0,0,0,9.325-8.217,8.253,8.253,0,0,0-2.309-5.73,5.207,5.207,0,0,1-1.7-1.361Z" transform="translate(-34 -16)" fill="#dc9600"/>
        </g>
        <g id="Group_1176" data-name="Group 1176" transform="translate(2.247 2.783)">
          <path id="Path_1883" data-name="Path 1883" d="M10.41,19.022a12.357,12.357,0,0,1,2.126-5.129l-1.59-1.59,1.894-1.894L11.8,9.373,8.874,12.3l1.59,1.59a12.357,12.357,0,0,0-2.126,5.129Z" transform="translate(-8.338 -9.373)" fill="#dc9600"/>
        </g>
        <g id="Group_1177" data-name="Group 1177" transform="translate(8.581 24.637)">
          <path id="Path_1884" data-name="Path 1884" d="M21.36,51.558l-.795.795a12.326,12.326,0,0,0,3.852,1.331v2.247h2.072V53.684a12.357,12.357,0,0,1-5.129-2.126Z" transform="translate(-20.565 -51.558)" fill="#dc9600"/>
        </g>
        <g id="Group_1178" data-name="Group 1178" transform="translate(0 12.433)">
          <path id="Path_1885" data-name="Path 1885" d="M4,28H6.072v4.144H4Z" transform="translate(-4 -28)" fill="#dc9600"/>
        </g>
        <g id="Group_1179" data-name="Group 1179" transform="translate(2.247 16.577)">
          <path id="Path_1886" data-name="Path 1886" d="M10.946,42.719l1.59-1.59A12.362,12.362,0,0,1,10.41,36H8.338a12.357,12.357,0,0,0,2.126,5.129l-1.59,1.59L11.8,45.649l1.036-1.036Z" transform="translate(-8.338 -36)" fill="#dc9600"/>
        </g>
        <g id="Group_1180" data-name="Group 1180" transform="translate(8.289 8.289)">
          <path id="Path_1887" data-name="Path 1887" d="M26.216,32.433a6.216,6.216,0,1,1,6.216-6.216A6.217,6.217,0,0,1,26.216,32.433Z" transform="translate(-20 -20)" fill="#64c8f0"/>
        </g>
        <g id="Group_1181" data-name="Group 1181" transform="translate(8.289 8.289)">
          <path id="Path_1888" data-name="Path 1888" d="M21.036,26.216a6.214,6.214,0,0,1,5.7-6.191c-.171-.014-.343-.026-.518-.026a6.216,6.216,0,1,0,0,12.433c.175,0,.347-.012.518-.026A6.214,6.214,0,0,1,21.036,26.216Z" transform="translate(-20 -20)" fill="#46aad2"/>
        </g>
        <g id="Group_1182" data-name="Group 1182" transform="translate(10.361 12.433)">
          <path id="Path_1889" data-name="Path 1889" d="M26.072,28,24,30.072l2.072,2.072V31.108l-1.036-1.036,1.036-1.036Z" transform="translate(-24 -28)" fill="#f0f0f0"/>
        </g>
        <g id="Group_1183" data-name="Group 1183" transform="translate(16.577 12.433)">
          <path id="Path_1890" data-name="Path 1890" d="M36,32.144l2.072-2.072L36,28v1.036l1.036,1.036L36,31.108Z" transform="translate(-36 -28)" fill="#f0f0f0"/>
        </g>
        <g id="Group_1184" data-name="Group 1184" transform="translate(13.469 11.397)">
          <path id="Path_1891" data-name="Path 1891" d="M31.036,26,30,32.216h1.036L32.072,26Z" transform="translate(-30 -26)" fill="#f0f0f0"/>
        </g>
      </g>
    </g>
  </g>
</svg>
