<svg id="Group_663" data-name="Group 663" xmlns="http://www.w3.org/2000/svg" xmlns:xlink="http://www.w3.org/1999/xlink" width="91.8" height="92.739" viewBox="0 0 91.8 92.739">
  <defs>
    <filter id="Rectangle_59" x="0" y="0" width="91.8" height="92.74" filterUnits="userSpaceOnUse">
      <feOffset dy="3" input="SourceAlpha"/>
      <feGaussianBlur stdDeviation="3" result="blur"/>
      <feFlood flood-opacity="0.161"/>
      <feComposite operator="in" in2="blur"/>
      <feComposite in="SourceGraphic"/>
    </filter>
  </defs>
  <g transform="matrix(1, 0, 0, 1, 0, 0)" filter="url(#Rectangle_59)">
    <path id="Rectangle_59-2" data-name="Rectangle 59" d="M17.247,6.109l57.4.76a8.291,8.291,0,0,1,7.513,5.037,8.062,8.062,0,0,1,.64,3.155v57.6a7.968,7.968,0,0,1-2.387,5.7,8.108,8.108,0,0,1-5.767,2.329l-57.4-.394a8.335,8.335,0,0,1-5.83-2.422,8.223,8.223,0,0,1-1.768-2.6A8.045,8.045,0,0,1,9,72.1V14.135a7.947,7.947,0,0,1,2.417-5.721,8.121,8.121,0,0,1,2.621-1.708A8.255,8.255,0,0,1,17.247,6.109Z" transform="translate(0 0)" fill="#c0ecf7"/>
  </g>
  <g id="cloud" transform="translate(25.351 22.7)">
    <path id="Path_807" data-name="Path 807" d="M36.969,19.473a4.266,4.266,0,0,0,1.661-.315,4.217,4.217,0,0,0,1.356-.892,4.185,4.185,0,0,0,.914-4.624,4.294,4.294,0,0,0-.914-1.353,4.322,4.322,0,0,0-3.018-1.271h0a4.382,4.382,0,0,0-1.315.187,4.326,4.326,0,0,0-1.193.571q.082-.288.145-.582t.1-.59q.042-.3.064-.6t.023-.6a9.117,9.117,0,0,0-.79-3.56,9.322,9.322,0,0,0-2.034-2.9A9.389,9.389,0,0,0,25.38.3,9.288,9.288,0,0,0,22.45.79,9.175,9.175,0,0,0,19.9,2.134a9.014,9.014,0,0,0-3.268,4.717,5.557,5.557,0,0,0-3.6-1.39,5.414,5.414,0,0,0-2.108.378A5.341,5.341,0,0,0,9.188,6.95,5.237,5.237,0,0,0,7.57,10.7q0,.252.026.5t.075.5q.05.246.123.487t.171.475A4.421,4.421,0,0,0,6.382,11.2a4.45,4.45,0,0,0-2.087-.541,4.3,4.3,0,0,0-1.671.315,4.242,4.242,0,0,0-1.365.894,4.188,4.188,0,0,0-.921,4.64,4.306,4.306,0,0,0,.921,1.358,4.353,4.353,0,0,0,3.036,1.273" fill="#e6e6e6"/>
    <path id="Path_808" data-name="Path 808" d="M1.43.014,25.689.244A1.441,1.441,0,0,1,27,1.118a1.4,1.4,0,0,1,.112.55V4.487a1.385,1.385,0,0,1-.417.993,1.409,1.409,0,0,1-.453.3,1.424,1.424,0,0,1-.554.106L1.43,5.664A1.448,1.448,0,0,1,.419,5.242,1.432,1.432,0,0,1,.112,4.79,1.4,1.4,0,0,1,0,4.239V1.413a1.386,1.386,0,0,1,.419-1,1.416,1.416,0,0,1,.455-.3A1.433,1.433,0,0,1,1.43.014Z" transform="translate(7.081 26.939)" fill="#3b6882"/>
    <path id="Path_809" data-name="Path 809" d="M1.372,2.746A1.4,1.4,0,0,1,.105,1.892,1.357,1.357,0,0,1,0,1.358,1.342,1.342,0,0,1,.41.4,1.366,1.366,0,0,1,.851.112a1.381,1.381,0,0,1,.538-.1A1.4,1.4,0,0,1,2.653.861a1.347,1.347,0,0,1-.3,1.494,1.372,1.372,0,0,1-.441.288A1.388,1.388,0,0,1,1.372,2.746Zm0-1.41-.036.043a.053.053,0,0,0,0,.016.051.051,0,0,0,.007.014.038.038,0,0,0,.011.01.029.029,0,0,0,.015,0Z" transform="translate(29.44 28.606)" fill="#ed1c24"/>
    <path id="Path_810" data-name="Path 810" d="M14.281,1.544.715,1.419a.724.724,0,0,1-.505-.212A.716.716,0,0,1,.056.982.7.7,0,0,1,0,.706a.693.693,0,0,1,.209-.5A.708.708,0,0,1,.437.059.716.716,0,0,1,.715.007L14.281.133a.721.721,0,0,1,.657.437.7.7,0,0,1,.056.275.693.693,0,0,1-.209.5.706.706,0,0,1-.227.149A.714.714,0,0,1,14.281,1.544Z" transform="translate(9.083 29.078)" fill="#f2f2f2"/>
    <path id="Path_811" data-name="Path 811" d="M2.609,1.435l-1.9-.017A.721.721,0,0,1,.056.98.7.7,0,0,1,0,.705a.693.693,0,0,1,.209-.5.708.708,0,0,1,.5-.2l1.9.018a.721.721,0,0,1,.657.437.7.7,0,0,1,.056.275.693.693,0,0,1-.209.5.7.7,0,0,1-.227.149A.713.713,0,0,1,2.609,1.435Z" transform="translate(25.157 29.228)" fill="#f8cf26"/>
    <path id="Path_812" data-name="Path 812" d="M1.43.013,25.689.226A1.439,1.439,0,0,1,27,1.1a1.4,1.4,0,0,1,.112.55V4.467a1.386,1.386,0,0,1-.417.993,1.415,1.415,0,0,1-1.007.4L1.43,5.663A1.447,1.447,0,0,1,.419,5.241,1.43,1.43,0,0,1,.112,4.79,1.4,1.4,0,0,1,0,4.239V1.413a1.387,1.387,0,0,1,.419-1,1.417,1.417,0,0,1,.455-.3A1.434,1.434,0,0,1,1.43.013Z" transform="translate(7.081 35.417)" fill="#06aae9"/>
    <path id="Path_813" data-name="Path 813" d="M1.372,2.745A1.395,1.395,0,0,1,.105,1.892,1.356,1.356,0,0,1,0,1.358,1.343,1.343,0,0,1,.41.4,1.372,1.372,0,0,1,1.389.012,1.395,1.395,0,0,1,2.653.859a1.348,1.348,0,0,1-.3,1.494,1.373,1.373,0,0,1-.441.289A1.388,1.388,0,0,1,1.372,2.745Zm0-1.41-.036.043a.053.053,0,0,0,0,.016.051.051,0,0,0,.007.014.038.038,0,0,0,.011.01.029.029,0,0,0,.015,0Z" transform="translate(29.44 37.067)" fill="#ed1c24"/>
    <path id="Path_814" data-name="Path 814" d="M14.281,1.534.715,1.419a.723.723,0,0,1-.505-.211A.716.716,0,0,1,.056.982.7.7,0,0,1,.209.209.708.708,0,0,1,.437.059.716.716,0,0,1,.715.006L14.281.123a.721.721,0,0,1,.657.436.7.7,0,0,1,.056.275.693.693,0,0,1-.209.5.706.706,0,0,1-.227.149A.715.715,0,0,1,14.281,1.534Z" transform="translate(9.083 37.553)" fill="#f2f2f2"/>
    <path id="Path_815" data-name="Path 815" d="M2.609,1.433l-1.9-.016A.72.72,0,0,1,.056.98.7.7,0,0,1,.435.059.714.714,0,0,1,.713.006l1.9.016a.72.72,0,0,1,.5.211.714.714,0,0,1,.153.225.7.7,0,0,1-.379.921A.713.713,0,0,1,2.609,1.433Z" transform="translate(25.157 37.691)" fill="#f8cf26"/>
    <path id="Path_816" data-name="Path 816" d="M1.43.015,25.689.263A1.442,1.442,0,0,1,27,1.138a1.4,1.4,0,0,1,.112.55V4.507A1.384,1.384,0,0,1,26.7,5.5a1.408,1.408,0,0,1-.453.3,1.424,1.424,0,0,1-.554.105L1.43,5.666A1.449,1.449,0,0,1,.419,5.242,1.433,1.433,0,0,1,.112,4.79,1.4,1.4,0,0,1,0,4.239V1.413A1.385,1.385,0,0,1,.419.418,1.414,1.414,0,0,1,.874.12,1.432,1.432,0,0,1,1.43.015Z" transform="translate(7.081 18.462)" fill="#06aae9"/>
    <path id="Path_817" data-name="Path 817" d="M1.392,2.747a1.414,1.414,0,0,1-1.2-.691A1.383,1.383,0,0,1,.022,1.6,1.33,1.33,0,0,1,.251.584a1.362,1.362,0,0,1,.4-.371,1.39,1.39,0,0,1,.5-.182A1.41,1.41,0,0,1,2.562.664,1.392,1.392,0,0,1,2.683.9a1.376,1.376,0,0,1,.074.258,1.324,1.324,0,0,1-.229,1.017,1.35,1.35,0,0,1-.394.368,1.371,1.371,0,0,1-.51.187l-.058.007-.058,0-.058,0Zm0-1.41-.032.055a.047.047,0,0,0,0,.011.023.023,0,0,0,0,.01.027.027,0,0,0,.011.008.065.065,0,0,0,.019,0Z" transform="translate(29.202 20.187)" fill="#ed1c24"/>
    <path id="Path_818" data-name="Path 818" d="M14.281,1.554.715,1.419a.724.724,0,0,1-.505-.212A.717.717,0,0,1,.056.982.7.7,0,0,1,0,.706a.693.693,0,0,1,.209-.5A.707.707,0,0,1,.437.06.716.716,0,0,1,.715.007L14.281.143a.722.722,0,0,1,.657.437.7.7,0,0,1,.056.275.692.692,0,0,1-.209.5.705.705,0,0,1-.227.149A.714.714,0,0,1,14.281,1.554Z" transform="translate(8.94 20.601)" fill="#f2f2f2"/>
    <path id="Path_819" data-name="Path 819" d="M2.609,1.437l-1.9-.019A.722.722,0,0,1,.056.98.7.7,0,0,1,0,.705a.692.692,0,0,1,.209-.5A.705.705,0,0,1,.435.06.713.713,0,0,1,.713.007l1.9.019a.722.722,0,0,1,.657.437.7.7,0,0,1,.056.275.692.692,0,0,1-.209.5.7.7,0,0,1-.227.149A.713.713,0,0,1,2.609,1.437Z" transform="translate(24.702 20.759)" fill="#f8cf26"/>
    <path id="Path_820" data-name="Path 820" d="M5.5,2.385,3.354.244A.724.724,0,0,0,2.58.08a.7.7,0,0,0-.236.152L.2,2.327a.692.692,0,0,0-.2.5.7.7,0,0,0,.057.265.714.714,0,0,0,.161.233.725.725,0,0,0,.76.157.7.7,0,0,0,.233-.146l.924-.9v4.65a.7.7,0,0,0,.056.275.717.717,0,0,0,.153.226.724.724,0,0,0,.505.212.715.715,0,0,0,.278-.053A.706.706,0,0,0,3.354,7.6a.692.692,0,0,0,.209-.5V2.449l.923.923a.724.724,0,0,0,.776.15A.7.7,0,0,0,5.5,3.365a.692.692,0,0,0,.2-.488.7.7,0,0,0-.05-.261.713.713,0,0,0-.15-.232Z" transform="translate(12.094 8.628)" fill="#06aae9"/>
    <path id="Path_821" data-name="Path 821" d="M5.485,4.5a.722.722,0,0,0-.772-.163.7.7,0,0,0-.236.152l-.921.9V.744A.7.7,0,0,0,3.5.469.717.717,0,0,0,3.347.244a.722.722,0,0,0-.5-.212.713.713,0,0,0-.277.052.7.7,0,0,0-.227.149.691.691,0,0,0-.209.5V5.374l-.922-.922A.722.722,0,0,0,.433,4.3.7.7,0,0,0,.2,4.458a.692.692,0,0,0-.2.488.7.7,0,0,0,.05.261.713.713,0,0,0,.15.232L2.339,7.577a.722.722,0,0,0,.772.163.7.7,0,0,0,.236-.152L5.485,5.495A.692.692,0,0,0,5.693,5a.7.7,0,0,0-.052-.266A.712.712,0,0,0,5.485,4.5Z" transform="translate(23.515 8.755)" fill="#29485a"/>
  </g>
</svg>
