<svg xmlns="http://www.w3.org/2000/svg" xmlns:xlink="http://www.w3.org/1999/xlink" width="424" height="307.294" viewBox="0 0 424 307.294">
  <defs>
    <linearGradient id="linear-gradient" x1="-430.909" y1="4.476" x2="-430.895" y2="8.119" gradientUnits="objectBoundingBox">
      <stop offset="0" stop-color="#09005d"/>
      <stop offset="1" stop-color="#1a0f91"/>
    </linearGradient>
    <linearGradient id="linear-gradient-2" x1="-1357.792" y1="1.164" x2="-1358.052" y2="-0.58" gradientUnits="objectBoundingBox">
      <stop offset="0" stop-color="#febbba"/>
      <stop offset="1" stop-color="#ff928e"/>
    </linearGradient>
    <linearGradient id="linear-gradient-3" x1="-777.056" y1="3.704" x2="-777.032" y2="7.135" xlink:href="#linear-gradient"/>
    <linearGradient id="linear-gradient-4" x1="-1523.652" y1="1.127" x2="-1523.929" y2="-0.799" xlink:href="#linear-gradient-2"/>
    <linearGradient id="linear-gradient-5" x1="55.11" y1="-13.104" x2="21.465" y2="-4.719" xlink:href="#linear-gradient"/>
    <linearGradient id="linear-gradient-6" x1="-0.001" y1="0.5" x2="1.001" y2="0.5" gradientUnits="objectBoundingBox">
      <stop offset="0" stop-color="#e1473d"/>
      <stop offset="1" stop-color="#e9605a"/>
    </linearGradient>
    <linearGradient id="linear-gradient-7" x1="-379.607" y1="0.501" x2="-378.607" y2="0.501" xlink:href="#linear-gradient-2"/>
    <linearGradient id="linear-gradient-8" x1="-201.866" y1="0.499" x2="-200.866" y2="0.499" xlink:href="#linear-gradient-2"/>
    <linearGradient id="linear-gradient-9" x1="-752.61" y1="1.029" x2="-751.322" y2="0.223" xlink:href="#linear-gradient-2"/>
    <linearGradient id="linear-gradient-10" x1="-614.33" y1="0.176" x2="-615.65" y2="1.493" xlink:href="#linear-gradient-2"/>
    <linearGradient id="linear-gradient-11" x1="-391.082" y1="0.5" x2="-390.084" y2="0.5" xlink:href="#linear-gradient"/>
    <linearGradient id="linear-gradient-12" x1="-1906.934" y1="2.761" x2="-1903.673" y2="0.44" xlink:href="#linear-gradient-2"/>
    <linearGradient id="linear-gradient-13" x1="0" y1="0.5" x2="1" y2="0.5" xlink:href="#linear-gradient-6"/>
  </defs>
  <g id="contact_us_pop_back" opacity="0.2">
    <g id="OBJECTS">
      <path id="Path_1235" data-name="Path 1235" d="M123.859,173.68l1.245-1.66a.367.367,0,0,1,.581.448h0l-1.278,1.6h0a.34.34,0,0,1-.481.05.332.332,0,0,1-.066-.44Z" transform="translate(-21.076 -29.26)" fill="#d6e8fc"/>
      <path id="Path_1236" data-name="Path 1236" d="M129.073,167.278l1.394-1.527a.44.44,0,0,1,.647.6h0l-1.4,1.477h0a.422.422,0,0,1-.639-.548Z" transform="translate(-21.959 -28.193)" fill="#d6e8fc"/>
      <path id="Path_1237" data-name="Path 1237" d="M134.832,161.358l1.518-1.4a.514.514,0,0,1,.7.755h0l-1.527,1.361h0a.506.506,0,0,1-.7-.042A.49.49,0,0,1,134.832,161.358Z" transform="translate(-22.93 -27.21)" fill="#d6e8fc"/>
      <path id="Path_1238" data-name="Path 1238" d="M141.084,155.934l1.66-1.27a.567.567,0,1,1,.705.888h0l-1.66,1.228h0a.548.548,0,0,1-.772-.108.556.556,0,0,1,.066-.739Z" transform="translate(-23.988 -26.309)" fill="#d6e8fc"/>
      <path id="Path_1239" data-name="Path 1239" d="M147.74,151.024l1.718-1.145a.623.623,0,1,1,.689,1.037h0l-1.709,1.1h0a.609.609,0,0,1-.664-1.021Z" transform="translate(-25.109 -25.497)" fill="#d6e8fc"/>
      <path id="Path_1240" data-name="Path 1240" d="M154.741,146.627l1.8-1.021a.68.68,0,0,1,.672,1.178h0l-1.784.979h0a.655.655,0,0,1-.9-.266A.672.672,0,0,1,154.741,146.627Z" transform="translate(-26.294 -24.777)" fill="#d6e8fc"/>
      <path id="Path_1241" data-name="Path 1241" d="M162.044,142.719l1.859-.9a.738.738,0,0,1,.987.348.73.73,0,0,1-.348.979h0l-1.859.83h0a.722.722,0,0,1-.954-.348.714.714,0,0,1,.315-.9Z" transform="translate(-27.523 -24.13)" fill="#d6e8fc"/>
      <path id="Path_1242" data-name="Path 1242" d="M169.6,139.319l1.917-.78a.83.83,0,0,1,.6,1.469h0l-1.908.738h0a.78.78,0,0,1-.573-1.444Z" transform="translate(-28.805 -23.584)" fill="#d6e8fc"/>
      <path id="Path_1243" data-name="Path 1243" d="M177.341,136.388l1.958-.647a.844.844,0,0,1,.531,1.6h0l-1.933.614h0a.832.832,0,0,1-.556-1.568Z" transform="translate(-30.1 -23.101)" fill="#d6e8fc"/>
      <path id="Path_1244" data-name="Path 1244" d="M185.256,133.973l2-.539a.881.881,0,1,1,.456,1.7h0l-1.975.514h0a.859.859,0,1,1-.448-1.66Z" transform="translate(-31.435 -22.71)" fill="#d6e8fc"/>
      <path id="Path_1245" data-name="Path 1245" d="M193.313,132l2.025-.423a.913.913,0,0,1,.382,1.784h0l-2,.407h0a.9.9,0,0,1-.365-1.767Z" transform="translate(-32.804 -22.397)" fill="#d6e8fc"/>
      <path id="Path_1246" data-name="Path 1246" d="M201.445,130.44l2.041-.324a.946.946,0,1,1,.3,1.867h0l-2.008.3h0a.938.938,0,0,1-.29-1.85Z" transform="translate(-34.174 -22.148)" fill="#d6e8fc"/>
      <path id="Path_1247" data-name="Path 1247" d="M209.629,129.281l2.058-.232a.981.981,0,0,1,.224,1.95h0l-2.033.207h0a.973.973,0,0,1-.216-1.933Z" transform="translate(-35.545 -21.968)" fill="#d6e8fc"/>
      <path id="Path_1248" data-name="Path 1248" d="M217.889,128.479l2.058-.149a1.015,1.015,0,0,1,.149,2.025h0l-2.033.124h0a1,1,0,0,1-.133-2Z" transform="translate(-36.951 -21.846)" fill="#d6e8fc"/>
      <path id="Path_1249" data-name="Path 1249" d="M226.157,127.986l2.066-.066a1.046,1.046,0,1,1,.075,2.091h0l-2.041.05h0a1.046,1.046,0,0,1-.066-2.083Z" transform="translate(-38.349 -21.777)" fill="#d6e8fc"/>
      <path id="Path_1250" data-name="Path 1250" d="M234.433,127.819H236.5a1.087,1.087,0,1,1,0,2.166h-2.041a1.079,1.079,0,0,1,0-2.149Z" transform="translate(-39.746 -21.759)" fill="#d6e8fc"/>
      <path id="Path_1251" data-name="Path 1251" d="M242.709,127.9l2.066.066a1.121,1.121,0,1,1-.066,2.24h0l-2.041-.083h0a1.112,1.112,0,0,1,.075-2.215Z" transform="translate(-41.143 -21.773)" fill="#d6e8fc"/>
      <path id="Path_1252" data-name="Path 1252" d="M250.967,128.267l2.066.149a1.153,1.153,0,1,1-.158,2.3h0l-2.083-.183h0a1.145,1.145,0,0,1,.166-2.282Z" transform="translate(-42.522 -21.833)" fill="#d6e8fc"/>
      <path id="Path_1253" data-name="Path 1253" d="M259.226,129l2.058.249a1.178,1.178,0,1,1-.282,2.34h0l-2.025-.249h0a1.178,1.178,0,0,1,.282-2.34Z" transform="translate(-43.911 -21.959)" fill="#d6e8fc"/>
      <path id="Path_1254" data-name="Path 1254" d="M267.453,130.118l2.05.357a1.195,1.195,0,0,1-.407,2.348h0l-2.008-.357h0a1.187,1.187,0,0,1,.407-2.34Z" transform="translate(-45.301 -22.149)" fill="#d6e8fc"/>
      <path id="Path_1255" data-name="Path 1255" d="M275.644,131.72l2.016.49a1.2,1.2,0,1,1-.556,2.34h0l-1.975-.481h0a1.2,1.2,0,0,1,.564-2.332Z" transform="translate(-46.696 -22.424)" fill="#d6e8fc"/>
      <path id="Path_1256" data-name="Path 1256" d="M283.688,133.844l1.975.622a1.22,1.22,0,0,1-.722,2.323h0l-1.925-.606h0a1.214,1.214,0,0,1,.73-2.315Z" transform="translate(-48.036 -22.78)" fill="#d6e8fc"/>
      <path id="Path_1257" data-name="Path 1257" d="M291.55,136.555c.647.249,1.286.506,1.933.772a1.23,1.23,0,0,1-.938,2.274h0l-1.875-.763a1.22,1.22,0,0,1,.888-2.274Z" transform="translate(-49.351 -23.234)" fill="#d6e8fc"/>
      <path id="Path_1258" data-name="Path 1258" d="M299.2,139.909l1.859.938a1.238,1.238,0,1,1-1.12,2.207h0l-1.8-.921h0a1.23,1.23,0,0,1,1.12-2.191Z" transform="translate(-50.641 -23.801)" fill="#d6e8fc"/>
      <path id="Path_1259" data-name="Path 1259" d="M306.524,143.963l1.734,1.079a1.253,1.253,0,1,1-1.336,2.116h0l-1.7-1.079h0a1.253,1.253,0,0,1-.382-1.726A1.236,1.236,0,0,1,306.524,143.963Z" transform="translate(-51.862 -24.477)" fill="#d6e8fc"/>
      <path id="Path_1260" data-name="Path 1260" d="M313.436,148.621l1.66,1.286a1.261,1.261,0,0,1-1.543,1.991h0l-1.651-1.27h0a1.256,1.256,0,1,1,1.543-1.983Z" transform="translate(-53.015 -25.26)" fill="#d6e8fc"/>
      <path id="Path_1261" data-name="Path 1261" d="M319.854,153.994l1.51,1.46a1.27,1.27,0,1,1-1.751,1.8h0l-1.444-1.4h0a1.27,1.27,0,1,1,1.759-1.825Z" transform="translate(-54.09 -26.152)" fill="#d6e8fc"/>
      <path id="Path_1262" data-name="Path 1262" d="M325.663,160.077l1.328,1.66a1.293,1.293,0,1,1-1.983,1.66h0l-1.27-1.552h0a1.293,1.293,0,0,1,1.983-1.66Z" transform="translate(-55.061 -27.191)" fill="#d6e8fc"/>
      <path id="Path_1263" data-name="Path 1263" d="M330.709,166.807l1.12,1.776a1.3,1.3,0,1,1-2.2,1.377h0l-1.062-1.7h0a1.294,1.294,0,0,1,2.191-1.369Z" transform="translate(-55.909 -28.319)" fill="#d6e8fc"/>
      <path id="Path_1264" data-name="Path 1264" d="M334.828,174.094l.83,1.925a1.311,1.311,0,0,1-2.381,1.079h0v-.05l-.83-1.825v-.05a1.305,1.305,0,0,1,2.381-1.07Z" transform="translate(-56.575 -29.508)" fill="#d6e8fc"/>
      <path id="Path_1265" data-name="Path 1265" d="M337.877,181.969l.548,2.05a1.319,1.319,0,1,1-2.547.68h0v-.075l-.506-1.917v-.066a1.313,1.313,0,0,1,2.539-.672Z" transform="translate(-57.085 -30.812)" fill="#d6e8fc"/>
      <path id="Path_1266" data-name="Path 1266" d="M339.51,190.308l.133,2.133a1.328,1.328,0,1,1-2.647.166h0v-.091l-.116-1.958v-.083a1.328,1.328,0,0,1,2.647-.166Z" transform="translate(-57.35 -32.197)" fill="#d6e8fc"/>
      <path id="Path_1267" data-name="Path 1267" d="M338.59,198.876c0,.705.083,1.427.091,2.149a1.046,1.046,0,1,1-2.091,0,1.154,1.154,0,0,1,.066-.382v-.05c.232-.631.514-1.253.763-1.9v-.042a.581.581,0,0,1,.755-.34.589.589,0,0,1,.415.564Z" transform="translate(-57.3 -33.754)" fill="#d6e8fc"/>
      <path id="Path_1268" data-name="Path 1268" d="M337.209,207.115l-.738,1.983a1.245,1.245,0,0,1-2.34-.83v-.058l.689-1.867v-.058a1.253,1.253,0,0,1,2.348.83Z" transform="translate(-56.874 -34.997)" fill="#d6e8fc"/>
      <path id="Path_1269" data-name="Path 1269" d="M333.773,214.8l-1.012,1.842a1.246,1.246,0,0,1-2.182-1.2V215.4l.971-1.751v-.05a1.245,1.245,0,1,1,2.174,1.2Z" transform="translate(-56.251 -36.241)" fill="#d6e8fc"/>
      <path id="Path_1270" data-name="Path 1270" d="M329.384,221.981c-.407.564-.83,1.137-1.211,1.7h0a1.236,1.236,0,0,1-1.983-1.469c.4-.539.772-1.1,1.162-1.659h0a1.236,1.236,0,1,1,2.016,1.427Z" transform="translate(-55.496 -37.45)" fill="#d6e8fc"/>
      <path id="Path_1271" data-name="Path 1271" d="M324.276,228.645l-1.369,1.577a1.232,1.232,0,1,1-1.859-1.618h0l1.319-1.518h0a1.246,1.246,0,0,1,1.859,1.66Z" transform="translate(-54.603 -38.588)" fill="#d6e8fc"/>
      <path id="Path_1272" data-name="Path 1272" d="M318.514,234.741,317,236.177a1.22,1.22,0,1,1-1.66-1.776h0l1.46-1.386h0a1.228,1.228,0,1,1,1.66,1.776Z" transform="translate(-53.604 -39.59)" fill="#d6e8fc"/>
      <path id="Path_1273" data-name="Path 1273" d="M312.256,240.323l-1.66,1.294a1.214,1.214,0,0,1-1.5-1.908h0l1.585-1.253h0a1.22,1.22,0,0,1,1.51,1.908Z" transform="translate(-52.541 -40.558)" fill="#d6e8fc"/>
      <path id="Path_1274" data-name="Path 1274" d="M305.526,245.279l-1.742,1.137a1.211,1.211,0,0,1-1.328-2.025h0l1.66-1.112h0a1.214,1.214,0,0,1,1.328,2.033Z" transform="translate(-51.403 -41.382)" fill="#d6e8fc"/>
      <path id="Path_1275" data-name="Path 1275" d="M298.378,249.62l-1.842.987a1.2,1.2,0,0,1-1.137-2.124h0l1.784-.963h0a1.207,1.207,0,1,1,1.145,2.124Z" transform="translate(-50.18 -42.113)" fill="#d6e8fc"/>
      <path id="Path_1276" data-name="Path 1276" d="M290.884,253.339l-1.917.83a1.2,1.2,0,0,1-.946-2.2h0l1.859-.83h0a1.2,1.2,0,0,1,.954,2.2Z" transform="translate(-48.909 -42.737)" fill="#d6e8fc"/>
      <path id="Path_1277" data-name="Path 1277" d="M283.107,256.429l-1.975.656a1.187,1.187,0,1,1-.755-2.249h0l1.917-.639h0a1.2,1.2,0,1,1,.763,2.265Z" transform="translate(-47.587 -43.263)" fill="#d6e8fc"/>
      <path id="Path_1278" data-name="Path 1278" d="M275.115,258.848l-2.016.5a1.2,1.2,0,0,1-1.436-.871,1.178,1.178,0,0,1,.871-1.427h0l1.967-.481h0a1.187,1.187,0,0,1,.573,2.3Z" transform="translate(-46.242 -43.674)" fill="#d6e8fc"/>
      <path id="Path_1279" data-name="Path 1279" d="M266.934,260.592l-2.058.324a1.178,1.178,0,1,1-.365-2.323h0l1.991-.315h0a1.181,1.181,0,1,1,.373,2.332Z" transform="translate(-44.848 -43.966)" fill="#d6e8fc"/>
      <path id="Path_1280" data-name="Path 1280" d="M258.667,261.639l-2.074.149a1.173,1.173,0,0,1-.166-2.34h0l2.025-.149h0a1.173,1.173,0,1,1,.174,2.34Z" transform="translate(-43.468 -44.142)" fill="#d6e8fc"/>
      <path id="Path_1281" data-name="Path 1281" d="M250.339,261.973h-2.083a1.162,1.162,0,0,1,.041-2.323h2.025a1.17,1.17,0,1,1,0,2.332Z" transform="translate(-42.068 -44.201)" fill="#d6e8fc"/>
      <path id="Path_1282" data-name="Path 1282" d="M241.994,261.531l-2.066-.224a1.155,1.155,0,1,1,.241-2.3h0l2.008.216h0a1.162,1.162,0,0,1-.249,2.307Z" transform="translate(-40.669 -44.092)" fill="#d6e8fc"/>
      <path id="Path_1283" data-name="Path 1283" d="M233.745,260.33l-2.041-.415a1.153,1.153,0,0,1,.456-2.257h0l1.975.4h0a1.153,1.153,0,1,1-.456,2.257Z" transform="translate(-39.299 -43.861)" fill="#d6e8fc"/>
      <path id="Path_1284" data-name="Path 1284" d="M225.625,258.355l-2-.614a1.145,1.145,0,0,1-.755-1.427,1.128,1.128,0,0,1,1.427-.755h0l1.925.589h0a1.145,1.145,0,1,1-.664,2.191Z" transform="translate(-37.932 -43.497)" fill="#d6e8fc"/>
      <path id="Path_1285" data-name="Path 1285" d="M217.706,255.582l-1.925-.83a1.137,1.137,0,1,1,.871-2.083h0l1.859.78h0a1.138,1.138,0,1,1-.88,2.1Z" transform="translate(-36.594 -42.989)" fill="#d6e8fc"/>
      <path id="Path_1286" data-name="Path 1286" d="M210.182,251.96l-1.817-1.062a1.129,1.129,0,0,1,1.137-1.95h.041l1.734,1h0a1.132,1.132,0,1,1-1.137,1.958Z" transform="translate(-35.376 -42.354)" fill="#d6e8fc"/>
      <path id="Path_1287" data-name="Path 1287" d="M203.186,247.315l-1.66-1.352a1.122,1.122,0,0,1,1.435-1.726h.05l1.535,1.27.041.041a1.122,1.122,0,1,1-1.435,1.726Z" transform="translate(-34.239 -41.534)" fill="#d6e8fc"/>
      <path id="Path_1288" data-name="Path 1288" d="M197.163,241.34l-1.311-1.66a1.115,1.115,0,0,1,1.759-1.369l.05.058,1.22,1.552v.066a1.12,1.12,0,1,1-1.759,1.377Z" transform="translate(-33.301 -40.497)" fill="#d6e8fc"/>
      <path id="Path_1289" data-name="Path 1289" d="M192.653,234.109l-.83-1.991a1.106,1.106,0,0,1,2.05-.83v.083l.747,1.809v.091a1.112,1.112,0,1,1-2.058.83Z" transform="translate(-32.642 -39.256)" fill="#d6e8fc"/>
      <path id="Path_1290" data-name="Path 1290" d="M190.344,225.916l-.224-2.141a1.1,1.1,0,0,1,2.174-.232v.1l.216,1.942v.1a1.1,1.1,0,0,1-2.182.232Z" transform="translate(-32.365 -37.9)" fill="#d6e8fc"/>
      <path id="Path_1291" data-name="Path 1291" d="M190.41,217.391l.456-2.116a1.072,1.072,0,0,1,2.1.44v.108l-.4,1.9v.108a1.079,1.079,0,1,1-2.108-.44Z" transform="translate(-32.415 -36.503)" fill="#d6e8fc"/>
      <path id="Path_1292" data-name="Path 1292" d="M193.291,209.326l1.228-1.8a1.054,1.054,0,0,1,1.742,1.178l-.075.108-1.07,1.593-.075.108a1.062,1.062,0,0,1-1.759-1.178Z" transform="translate(-32.881 -35.259)" fill="#d6e8fc"/>
      <path id="Path_1293" data-name="Path 1293" d="M199.1,203.1l1.809-1.178a1.037,1.037,0,0,1,1.137,1.726l-.091.058-1.66,1.07-.091.066a1.037,1.037,0,0,1-1.436-.3,1.054,1.054,0,0,1,.29-1.444Z" transform="translate(-33.809 -34.354)" fill="#d6e8fc"/>
      <path id="Path_1294" data-name="Path 1294" d="M206.711,199.343l2.025-.614a1.012,1.012,0,1,1,.6,1.933h-.058l-1.9.589h-.066a1.021,1.021,0,0,1-.606-1.95Z" transform="translate(-35.066 -33.822)" fill="#d6e8fc"/>
      <path id="Path_1295" data-name="Path 1295" d="M214.938,197.508l2.083-.249a1,1,0,0,1,.249,1.975h0l-2,.249h0a1,1,0,1,1-.249-1.983Z" transform="translate(-36.456 -33.58)" fill="#d6e8fc"/>
      <path id="Path_1296" data-name="Path 1296" d="M223.277,196.916h2.1a.979.979,0,1,1,0,1.95h-2.058a.987.987,0,1,1,0-1.967Z" transform="translate(-37.834 -33.519)" fill="#d6e8fc"/>
      <path id="Path_1297" data-name="Path 1297" d="M231.669,197.619l2.074.481a.957.957,0,1,1-.423,1.867h-.075l-1.933-.44h-.066a.963.963,0,1,1,.423-1.875Z" transform="translate(-39.231 -33.642)" fill="#d6e8fc"/>
      <path id="Path_1298" data-name="Path 1298" d="M239.709,200.392c.614.373,1.245.714,1.842,1.12a.938.938,0,1,1-1.062,1.543c-.531-.365-1.112-.664-1.66-1l-.091-.058a.939.939,0,1,1,.979-1.6Z" transform="translate(-40.566 -34.091)" fill="#d6e8fc"/>
      <path id="Path_1299" data-name="Path 1299" d="M246.412,205.706l1.328,1.66a.915.915,0,0,1-1.427,1.145l-.05-.066-1.236-1.527-.058-.066a.923.923,0,1,1,1.435-1.162Z" transform="translate(-41.668 -34.958)" fill="#d6e8fc"/>
      <path id="Path_1300" data-name="Path 1300" d="M251.008,212.9l.83,1.95a.9.9,0,0,1-1.66.705v-.058l-.83-1.825v-.058a.9.9,0,0,1,1.66-.714Z" transform="translate(-42.439 -36.157)" fill="#d6e8fc"/>
      <path id="Path_1301" data-name="Path 1301" d="M253.74,220.847l.44,2.049a.88.88,0,0,1-1.718.365v-.041l-.431-1.958h0a.888.888,0,1,1,1.726-.382Z" transform="translate(-42.898 -37.47)" fill="#d6e8fc"/>
      <path id="Path_1302" data-name="Path 1302" d="M255.067,229.086l.141,2.074a.857.857,0,0,1-1.709.124h0l-.149-2.016h0a.866.866,0,0,1,1.726-.133Z" transform="translate(-43.129 -38.872)" fill="#d6e8fc"/>
      <path id="Path_1303" data-name="Path 1303" d="M255.346,237.416l-.066,2.083a.83.83,0,1,1-1.66-.05h0l.05-2.025h0a.83.83,0,0,1,1.66.042Z" transform="translate(-43.176 -40.281)" fill="#d6e8fc"/>
      <path id="Path_1304" data-name="Path 1304" d="M254.784,245.718l-.249,2.066a.819.819,0,0,1-1.626-.2h0l.241-2.016h0a.835.835,0,1,1,1.66.191Z" transform="translate(-43.054 -41.679)" fill="#d6e8fc"/>
      <path id="Path_1305" data-name="Path 1305" d="M253.467,253.95l-.44,2.025a.8.8,0,1,1-1.56-.332h0l.423-1.983h0a.806.806,0,1,1,1.577.332Z" transform="translate(-42.807 -43.074)" fill="#d6e8fc"/>
      <path id="Path_1306" data-name="Path 1306" d="M251.4,262.034l-.631,1.975a.765.765,0,1,1-1.46-.456h0l.6-1.942h0a.78.78,0,0,1,1.485.456Z" transform="translate(-42.437 -44.453)" fill="#d6e8fc"/>
      <path id="Path_1307" data-name="Path 1307" d="M248.611,269.866l-.83,1.917a.733.733,0,1,1-1.352-.564h0l.763-1.884h0a.738.738,0,0,1,.971-.407.73.73,0,0,1,.407.963Z" transform="translate(-41.942 -45.772)" fill="#d6e8fc"/>
      <path id="Path_1308" data-name="Path 1308" d="M245.131,277.434l-.971,1.834a.705.705,0,0,1-.946.29.7.7,0,0,1-.29-.938h0l.938-1.809h0a.714.714,0,0,1,.954-.307.705.705,0,0,1,.3.954Z" transform="translate(-41.341 -47.059)" fill="#d6e8fc"/>
      <path id="Path_1309" data-name="Path 1309" d="M240.977,284.661l-1.137,1.776a.656.656,0,0,1-.913.191.664.664,0,0,1-.2-.913h0l1.1-1.709h0a.673.673,0,0,1,1.137.722Z" transform="translate(-40.623 -48.295)" fill="#d6e8fc"/>
      <path id="Path_1310" data-name="Path 1310" d="M236.181,291.455l-1.286,1.618a.631.631,0,0,1-.987-.78h0l1.253-1.6h0a.651.651,0,0,1,1,.83Z" transform="translate(-39.801 -49.447)" fill="#d6e8fc"/>
      <path id="Path_1311" data-name="Path 1311" d="M230.773,297.787l-1.419,1.5a.6.6,0,0,1-.83,0,.581.581,0,0,1,0-.83h0l1.394-1.494h0a.606.606,0,1,1,.88.83Z" transform="translate(-38.874 -50.518)" fill="#d6e8fc"/>
      <path id="Path_1312" data-name="Path 1312" d="M225.062,303.741l-1.4,1.485h0a.564.564,0,1,1-.83-.763l1.394-1.518a.581.581,0,0,1,.83,0,.564.564,0,0,1,0,.83h0Z" transform="translate(-37.909 -51.543)" fill="#d6e8fc"/>
      <path id="Path_1313" data-name="Path 1313" d="M219.677,309.877l-1.22,1.61h0a.522.522,0,1,1-.838-.622l1.236-1.66a.531.531,0,0,1,.747-.116.539.539,0,0,1,.108.747h0Z" transform="translate(-37.03 -52.601)" fill="#d6e8fc"/>
      <path id="Path_1314" data-name="Path 1314" d="M215.329,316.692l-.83,1.834h0a.487.487,0,1,1-.888-.4l.83-1.908a.5.5,0,0,1,.664-.249.506.506,0,0,1,.249.664h0Z" transform="translate(-36.357 -53.782)" fill="#d6e8fc"/>
      <path id="Path_1315" data-name="Path 1315" d="M212.63,324.324l-.407,1.983h0a.456.456,0,1,1-.888-.174l.4-2.049a.465.465,0,0,1,.913.183h0Z" transform="translate(-35.973 -55.108)" fill="#d6e8fc"/>
      <path id="Path_1316" data-name="Path 1316" d="M211.7,332.4v2.033h0a.419.419,0,0,1-.838.017l-.058-2.083a.44.44,0,0,1,.423-.44.431.431,0,0,1,.44.415h0Z" transform="translate(-35.886 -56.507)" fill="#d6e8fc"/>
      <path id="Path_1317" data-name="Path 1317" d="M212.458,340.527l.473,1.975h0a.384.384,0,0,1-.747.183l-.506-2.025a.39.39,0,0,1,.29-.473.382.382,0,0,1,.473.282h0Z" transform="translate(-36.034 -57.911)" fill="#d6e8fc"/>
      <path id="Path_1318" data-name="Path 1318" d="M214.988,348.279l.913,1.809h0a.349.349,0,0,1-.158.465.357.357,0,0,1-.465-.149l-.946-1.85a.358.358,0,0,1,.639-.324h0Z" transform="translate(-36.481 -59.249)" fill="#d6e8fc"/>
      <path id="Path_1319" data-name="Path 1319" d="M303.462,139.45l-53.221.987a3.767,3.767,0,0,0-3.659,4.315L247.5,151a3.767,3.767,0,0,0,3.759,3.22l53.337-.4a3.767,3.767,0,0,0,3.692-4.34l-1.07-6.846A3.767,3.767,0,0,0,303.462,139.45Z" transform="translate(-41.971 -23.74)" fill="none" stroke="#c8c9e3" stroke-miterlimit="10" stroke-width="1.36"/>
      <path id="Path_1320" data-name="Path 1320" d="M380.3,141.911l.29,1.767a4.838,4.838,0,0,1-4.68,5.634l-6.638.124-32.361.631a4.838,4.838,0,0,1-4.9-4.348l-.224-2.157a4.837,4.837,0,0,1,4.771-5.335l38.849-.357a4.838,4.838,0,0,1,4.9,4.041Z" transform="translate(-56.478 -23.47)" fill="none" stroke="#e5e6f3" stroke-miterlimit="10" stroke-width="1.1"/>
      <path id="Path_1321" data-name="Path 1321" d="M306.139,136.61l-53.2.987a3.759,3.759,0,0,0-3.651,4.306l.921,6.256a3.759,3.759,0,0,0,3.751,3.211l53.337-.39a3.759,3.759,0,0,0,3.692-4.348l-1.07-6.846a3.759,3.759,0,0,0-3.784-3.178Z" transform="translate(-42.432 -23.256)" fill="#243c55"/>
      <path id="Path_1322" data-name="Path 1322" d="M312.289,141.69l-2.73.166a6.418,6.418,0,0,0-1.319.091,2.373,2.373,0,0,0-1.245.307.191.191,0,0,0,0,.3,2.3,2.3,0,0,0,1.211.124c.456,0,.913-.058,1.369-.091l2.68-.2c.44,0,.448-.73,0-.7Z" transform="translate(-52.25 -24.121)" fill="#97b5ce"/>
      <path id="Path_1323" data-name="Path 1323" d="M296.919,142.054c-2.232-.133-4.456-.183-6.688-.174-1.1,0-2.191,0-3.319.066a6.973,6.973,0,0,0-3.1.4.241.241,0,0,0,.058.431,4.15,4.15,0,0,0,1.5.058l1.66-.083c1.1,0,2.2-.05,3.319-.041,2.191,0,4.381.058,6.58,0a.34.34,0,0,0,0-.672Z" transform="translate(-48.298 -24.153)" fill="#97b5ce"/>
      <path id="Path_1324" data-name="Path 1324" d="M280.123,142a14.934,14.934,0,0,0-3.269.3c-.224.05-.249.44,0,.473a14.86,14.86,0,0,0,3.269,0,.373.373,0,0,0,0-.738Z" transform="translate(-47.101 -24.173)" fill="#97b5ce"/>
      <path id="Path_1325" data-name="Path 1325" d="M271.319,142.086a54.448,54.448,0,0,0-6.157-.2c-1,0-2.016.075-3.02.149-.5.041-1,.075-1.51.141a1.983,1.983,0,0,0-1.187.382.265.265,0,0,0,.058.415,2.149,2.149,0,0,0,1.336.1l1.4-.124c1-.083,2.016-.149,3.029-.183,2.008-.066,4.033-.075,6.049,0a.345.345,0,0,0,0-.689Z" transform="translate(-44.155 -24.152)" fill="#97b5ce"/>
      <path id="Path_1326" data-name="Path 1326" d="M310.061,147.833a12.936,12.936,0,0,0-4.381-.241l-4.821.116-4.713.108-2.489.058a3.359,3.359,0,0,0-2.066.307.307.307,0,0,0,.066.49c.531.39,1.477.183,2.1.166l2.365-.066,4.613-.133,4.613-.124c.747,0,1.5,0,2.249-.066a7.17,7.17,0,0,1,2.232.141.392.392,0,1,0,.207-.755Z" transform="translate(-49.624 -25.111)" fill="#97b5ce"/>
      <path id="Path_1327" data-name="Path 1327" d="M288.364,147.891a12.592,12.592,0,0,1-1.66-.075c-.257,0-.514-.042-.78-.05a1.1,1.1,0,0,0-.83.191.307.307,0,0,0-.041.34,1.012,1.012,0,0,0,.772.382,7.886,7.886,0,0,0,.88.083h1.66a.44.44,0,0,0,.431-.431.431.431,0,0,0-.431-.431Z" transform="translate(-48.521 -25.153)" fill="#97b5ce"/>
      <path id="Path_1328" data-name="Path 1328" d="M277.55,147.808c-3.319,0-6.588.041-9.882.066h-7.31c-.614,0-1.66-.174-2.016.423a.307.307,0,0,0,0,.315c.39.564,1.319.39,1.917.4.83,0,1.66,0,2.489-.041l4.937-.108c3.319-.075,6.588-.158,9.882-.332a.365.365,0,1,0,0-.73Z" transform="translate(-43.972 -25.161)" fill="#97b5ce"/>
      <path id="Path_1329" data-name="Path 1329" d="M378.336,144.93a10.176,10.176,0,0,0-2.074-1.884,1.66,1.66,0,0,0-2.182-.091c-.83.672-1.6,1.411-2.406,2.116a3.916,3.916,0,0,1-1.112.88c-.324.108-.548-.083-.772-.307a4.365,4.365,0,0,0-1.344-1.187,1.975,1.975,0,0,0-1.742.257c-.481.282-1.079.9-1.659.506a2.739,2.739,0,0,0-.938-.6,2.3,2.3,0,0,0-1.294.124,10.587,10.587,0,0,1-1.485.539,4.148,4.148,0,0,1-1.568,0,17.24,17.24,0,0,1-3.253-.971c-.4-.149-.655.49-.29.689,1.659.888,3.4,1.66,5.294,1.278.747-.166,1.875-1.087,2.589-.556a3.161,3.161,0,0,0,.9.622,1.477,1.477,0,0,0,.946,0c.6-.207,1-.73,1.568-1s1.012.307,1.361.722a2.05,2.05,0,0,0,1.444.9c.83,0,1.46-.83,2-1.353l1.236-1.211c.39-.39.979-1.211,1.6-1.12a3.808,3.808,0,0,1,1.518,1,10.011,10.011,0,0,1,1.137,1.162c.29.349.78-.149.5-.49Z" transform="translate(-60.611 -24.274)" fill="#97b5ce"/>
      <path id="Path_1330" data-name="Path 1330" d="M473.6,332.469s20.487-47.3,4.979-97.182a.39.39,0,0,0-.722.075C474.122,265.515,473,298.174,473.6,332.469Z" transform="translate(-80.599 -40.019)" fill="#031efb" opacity="0.5"/>
      <path id="Path_1331" data-name="Path 1331" d="M473.619,334.3h-.141a.548.548,0,0,1-.382-.672c6.92-24.578,5.808-82.387,5.767-82.976a.548.548,0,0,1,.531-.556.539.539,0,0,1,.556.531c0,.581,1.153,58.548-5.808,83.283a.539.539,0,0,1-.523.39Z" transform="translate(-80.536 -42.577)" fill="#031efb"/>
      <path id="Path_1332" data-name="Path 1332" d="M465.544,319.137s12.654-58.083-11.26-116.822a.373.373,0,0,0-.714.141C454.848,238.849,459.188,278.072,465.544,319.137Z" transform="translate(-77.215 -34.404)" fill="#035afb" opacity="0.5"/>
      <path id="Path_1333" data-name="Path 1333" d="M466.057,321.254H466a.556.556,0,0,1-.49-.6c2.846-29.946-7.982-99.2-8.09-99.9a.556.556,0,0,1,.456-.622.539.539,0,0,1,.614.456c.116.7,10.953,70.082,8.107,100.169A.548.548,0,0,1,466.057,321.254Z" transform="translate(-77.869 -37.475)" fill="#035afb"/>
      <path id="Path_1334" data-name="Path 1334" d="M460.481,342.352s6.066-50.657-24.063-96.252c-.2-.3-.747-.116-.689.232C441.048,276.692,449.677,308.879,460.481,342.352Z" transform="translate(-74.177 -41.87)" fill="#031efb" opacity="0.5"/>
      <path id="Path_1335" data-name="Path 1335" d="M461.177,344.093a.539.539,0,0,1-.539-.531c-.514-25.532-18.86-81.922-19.043-82.487a.541.541,0,1,1,1.029-.332c.191.564,18.578,57.1,19.085,82.794a.548.548,0,0,1-.531.556Z" transform="translate(-75.172 -44.325)" fill="#031efb"/>
      <path id="Path_1336" data-name="Path 1336" d="M449.848,328.49h27.839a2.838,2.838,0,0,1,2.771,3.477c-1.784,7.717-3.916,15.55-8.3,23.5a4.589,4.589,0,0,1-4.016,2.381h-9.127a4.489,4.489,0,0,1-3.949-2.356,80.626,80.626,0,0,1-8.53-23.051,3.319,3.319,0,0,1,3.311-3.95Z" transform="translate(-76.007 -55.921)" fill="#03d0fb"/>
      <path id="Path_1337" data-name="Path 1337" d="M319.134,251.78H281.081a1.73,1.73,0,0,1,0-3.46h37.97a1.734,1.734,0,0,1,.083,3.46Z" transform="translate(-47.561 -42.274)" fill="#243c55"/>
      <path id="Path_1338" data-name="Path 1338" d="M263.046,206.6c0,.028,0,.055,0,.083L279.052,241.8a1.743,1.743,0,0,1-.83,2.3,1.66,1.66,0,0,1-2.249-.83l-16.006-35.14a1.742,1.742,0,0,1,.83-2.3,1.659,1.659,0,0,1,2.249.763Z" transform="translate(-44.229 -35.01)" fill="#243c55"/>
      <path id="Path_1339" data-name="Path 1339" d="M342.787,345.178a52.753,52.753,0,0,1,.639,5.518,2.382,2.382,0,0,1-2.149,2.489c-4.431.423-14.521,1.22-20.968.29a1.079,1.079,0,0,1-.589-1.859c2.655-2.489,9.069-7.294,19.632-8.347Z" transform="translate(-54.37 -58.438)" fill="url(#linear-gradient)"/>
      <path id="Path_1340" data-name="Path 1340" d="M348.68,338.223l-2.24,5.493a1.834,1.834,0,0,1-1.884,1.137,10.023,10.023,0,0,1-1.826-.348,2.406,2.406,0,0,1-1.6-3l1.659-5.659Z" transform="translate(-58.056 -57.175)" fill="url(#linear-gradient-2)"/>
      <path id="Path_1341" data-name="Path 1341" d="M395.127,350.84s-4.489,3.759-6.24,8.571a2.049,2.049,0,0,0,1.95,2.722h9.235a2.174,2.174,0,0,0,2.149-2.547C401.632,356.258,399.939,350.857,395.127,350.84Z" transform="translate(-66.184 -59.726)" fill="url(#linear-gradient-3)"/>
      <path id="Path_1342" data-name="Path 1342" d="M401.719,344.86s-.9,4.016-1.6,6.638a.83.83,0,0,1-1.112.581,7.642,7.642,0,0,0-3.361-.606.664.664,0,0,1-.722-.656l-.083-6.638Z" transform="translate(-67.217 -58.593)" fill="url(#linear-gradient-4)"/>
      <path id="Path_1343" data-name="Path 1343" d="M368.759,234.007,341.46,317.3s5.236,3.427,7.733,3.319l32.427-66.937s5.676,41.239,2.921,70.853l9.293.705s15.1-75.666,3.659-101.579Z" transform="translate(-58.13 -38.075)" fill="#243c55"/>
      <path id="Path_1344" data-name="Path 1344" d="M389.371,257.1h0a.257.257,0,0,0,.224-.3l-1.054-8.405a.274.274,0,0,0-.3-.232.282.282,0,0,0-.232.3l1.062,8.405a.266.266,0,0,0,.3.232Z" transform="translate(-66.054 -42.246)" fill="url(#linear-gradient-5)"/>
      <path id="Path_1345" data-name="Path 1345" d="M362.737,147.81s22.121,1.967,18.993,17.724c0,0,12.231,23.009,17.939,50.109a1.593,1.593,0,0,1-1.286,1.9l-36.841,6.306a1.983,1.983,0,0,1-2.249-1.46l-8.8-34.02-3.427,15.815-10.9-2.838,9.177-46.467S346.615,148.1,362.737,147.81Z" transform="translate(-57.227 -25.163)" fill="#031efb"/>
      <path id="Path_1346" data-name="Path 1346" d="M352.514,191.863h.066a.282.282,0,0,0,.207-.332l-3.07-14.106a.276.276,0,0,0-.539.116l3.07,14.106A.282.282,0,0,0,352.514,191.863Z" transform="translate(-59.443 -30.168)" fill="url(#linear-gradient-6)"/>
      <path id="Path_1347" data-name="Path 1347" d="M354.317,240.445a5.252,5.252,0,0,1,3.809-.5l2.564.639a.929.929,0,0,0,1.145-.83l2.655-23.607c3.319,1.577,8.1,1.386,9.675,1.27l-6.107,27.83H346.7Z" transform="translate(-59.022 -36.797)" fill="url(#linear-gradient-7)"/>
      <path id="Path_1348" data-name="Path 1348" d="M287.49,180.433l.647-2.149a4.207,4.207,0,0,1,2.489-2.713l11.675-4.7s.174-1.494-2.489-2.489-2.025-3.975-2.025-3.975,3.618,1.66,8.9,4.257a12.372,12.372,0,0,1,5.617,6.115l26.461,32.261-3.112,2.133a8.3,8.3,0,0,1-12.023-2.954L309.3,178.74A53.561,53.561,0,0,1,287.49,180.433Z" transform="translate(-48.942 -27.989)" fill="url(#linear-gradient-8)"/>
      <path id="Path_1349" data-name="Path 1349" d="M358.115,129.634l6.8,19.035s-6.024,4.713-10.422,3.12l-3.427-10.92S353.684,127.535,358.115,129.634Z" transform="translate(-59.766 -22.031)" fill="url(#linear-gradient-9)"/>
      <path id="Path_1350" data-name="Path 1350" d="M335.09,120.648c0,.3,6.555,18.553,6.555,18.553l10.347-3.975-3.643-18.255S335.09,115.744,335.09,120.648Z" transform="translate(-57.045 -19.89)" fill="url(#linear-gradient-10)"/>
      <path id="Path_1351" data-name="Path 1351" d="M345.47,120.166l2.672,9.443a1.441,1.441,0,0,1,.05.373c0,.772-.191,3.419-2.888,3.062-2.489-.332-4.7-.589-6.115.075a1.386,1.386,0,0,0-.714,1.709,58.648,58.648,0,0,0,3.775,8.406A1.361,1.361,0,0,0,344,143.8a43.639,43.639,0,0,0,8.87-5.219,1.352,1.352,0,0,0,.49-1.311c-.456-2.423-1.8-9.766-1.867-11.874-.05-1.975,2.166-3.485,3.145-4.049a1.369,1.369,0,0,0,.631-.83c.307-1.27.564-4.149-3.1-4.788a1.369,1.369,0,0,1-1.112-1.66c.307-1.518.207-3.759-2.68-4.58a5.078,5.078,0,0,0-5.725,2.282,1.377,1.377,0,0,1-1.7.456,1.079,1.079,0,0,0-1.22.216,1.344,1.344,0,0,1-1.975-.3,4.082,4.082,0,0,0-5.045-1.66c-4.672,1.51-4.448,6.9-2.738,9.833s6.688,1,9.044-.946c1.792-1.469,4.514-.589,5.717-.083A1.361,1.361,0,0,1,345.47,120.166Z" transform="translate(-55.983 -18.603)" fill="url(#linear-gradient-11)"/>
      <path id="Path_1352" data-name="Path 1352" d="M356.9,131.255s-2.763-5.236-.938-6.879,4.929-1.377,4.846,2.722C360.708,132.2,356.9,131.255,356.9,131.255Z" transform="translate(-60.492 -21.013)" fill="url(#linear-gradient-12)"/>
      <path id="Path_1353" data-name="Path 1353" d="M375.336,210.35a24.534,24.534,0,0,0,2.7-.133h.2l8.049-37.555a.265.265,0,0,0-.207-.324.274.274,0,0,0-.324.207l-7.974,37.165c-1.195.108-7.6.531-10.978-1.867l6.978-32.618-1.46-2.747a.273.273,0,1,0-.481.257L373.2,175.3l-7,32.776.133.108C368.781,210,372.714,210.35,375.336,210.35Z" transform="translate(-62.341 -29.338)" fill="url(#linear-gradient-13)"/>
      <path id="Path_1354" data-name="Path 1354" d="M323.373,257.8c.216.714,20.329,62.506,25.424,78.172.589,1.8-1.054,3.576-3.319,3.576a3.369,3.369,0,0,1-3.319-2.157L319.83,263.243Z" transform="translate(-54.447 -43.887)" fill="#bcbec0"/>
      <path id="Path_1355" data-name="Path 1355" d="M305.589,257.8c-.207.714-20.321,62.506-25.424,78.172-.589,1.8,1.054,3.576,3.319,3.576a3.377,3.377,0,0,0,3.319-2.157l22.321-74.148Z" transform="translate(-47.674 -43.887)" fill="#bcbec0"/>
      <path id="Path_1356" data-name="Path 1356" d="M309.82,254.83h12.529v10.1a2.614,2.614,0,0,1-2.589,2.622h-1.718v22.594a1.958,1.958,0,0,1-3.916,0V267.509h-.838a3.46,3.46,0,0,1-3.435-3.477Z" transform="translate(-52.743 -43.382)" fill="#bcbec0"/>
      <path id="Path_1357" data-name="Path 1357" d="M352.222,251.919H264.607a2.647,2.647,0,0,0-2.605,1.66l-1.22,3.825c-.44,1.377.83,2.722,2.614,2.713l89.938-.415c1.743,0,3.012-1.336,2.589-2.705l-1.062-3.41a2.655,2.655,0,0,0-2.639-1.668Z" transform="translate(-44.38 -42.885)" fill="#58595b"/>
      <rect id="Rectangle_129" data-name="Rectangle 129" width="55.959" height="39.43" rx="4.07" transform="translate(100.136 56.955)" fill="#035afb"/>
      <path id="Path_1358" data-name="Path 1358" d="M140.135,103.9h-1.079a.979.979,0,0,1-.963-.83,1,1,0,0,1,.722-1.087,47.828,47.828,0,0,0,7.393-2.921c-9.791-.83-11.741-5.808-12.123-8.123-.954-5.808,4.082-12.363,11.227-14.637,7.285-2.307,14.67-1.477,18.811,2.124,2.2,1.917,4.589,5.584,3.46,12.181C165.476,102.916,146.226,103.9,140.135,103.9ZM139.305,103.654Zm-.207-1.543Zm14.147-4.821-3.1,1.726a67.512,67.512,0,0,1-6.215,3c7.567-.456,20.354-2.589,21.914-11.741.788-4.647-.174-8.19-2.879-10.538-4.149-3.651-11.617-3.518-17.1-1.776-6.232,1.983-10.787,7.775-10.007,12.654.722,4.431,5.808,6.912,13.84,6.738Z" transform="translate(-22.807 -12.77)" fill="#fff"/>
      <rect id="Rectangle_130" data-name="Rectangle 130" width="55.959" height="39.43" rx="3.19" transform="translate(173.428)" fill="#243c55"/>
      <path id="Path_1359" data-name="Path 1359" d="M251.311,34.762H224.933A3.925,3.925,0,0,1,221,30.845V10.475a3.925,3.925,0,0,1,3.916-3.925h26.378a3.925,3.925,0,0,1,3.916,3.925V30.845a3.925,3.925,0,0,1-3.9,3.916ZM224.933,7.911a2.564,2.564,0,0,0-2.556,2.564V30.845a2.556,2.556,0,0,0,2.556,2.556h26.378a2.556,2.556,0,0,0,2.556-2.556V10.475a2.564,2.564,0,0,0-2.556-2.564Z" transform="translate(-37.623 -1.115)" fill="#fff"/>
      <path id="Path_1360" data-name="Path 1360" d="M238.3,20.971,222.4,9.047l.813-1.087,15.11,11.326L253.807,8.3l.788,1.112Z" transform="translate(-37.861 -1.355)" fill="#fff"/>
      <rect id="Rectangle_131" data-name="Rectangle 131" width="1.361" height="20.13" transform="translate(205.87 14.864) rotate(-29.43)" fill="#fff"/>
      <rect id="Rectangle_132" data-name="Rectangle 132" width="20.13" height="1.361" transform="translate(184.12 31.562) rotate(-61.12)" fill="#fff"/>
      <rect id="Rectangle_133" data-name="Rectangle 133" width="55.959" height="39.43" rx="3.72" transform="translate(235.984 46.74)" fill="#035afb"/>
      <path id="Path_1361" data-name="Path 1361" d="M322.481,91.475c-2.182,0-4.755-1.021-7.65-3.054h0A111.259,111.259,0,0,1,303.214,76.8c-2.415-3.452-3.41-6.439-2.937-8.862a5.808,5.808,0,0,1,2.688-3.842l1.27-.83a2.066,2.066,0,0,1,2.846.581l3.518,5.277a2.382,2.382,0,0,1-.606,3.319h0l-.606.39a2.116,2.116,0,0,0-.954,1.593,2.075,2.075,0,0,0,.672,1.726h0l6.422,6.431a2.116,2.116,0,0,0,3.319-.29l.407-.631a2.39,2.39,0,0,1,3.319-.606l5.211,3.5a2.074,2.074,0,0,1,.589,2.846l-.83,1.27a5.875,5.875,0,0,1-3.85,2.688A6.45,6.45,0,0,1,322.481,91.475Zm-6.87-4.149c3.145,2.2,5.808,3.112,7.825,2.713a4.5,4.5,0,0,0,2.962-2.091l.83-1.278a.7.7,0,0,0-.2-.971l-5.269-3.518a1.029,1.029,0,0,0-1.411.257l-.39.589a3.468,3.468,0,0,1-5.443.481l-6.389-6.389a3.468,3.468,0,0,1,.481-5.443l.6-.382a1.045,1.045,0,0,0,.249-1.419l-3.518-5.269a.705.705,0,0,0-.971-.2l-1.27.83a4.489,4.489,0,0,0-2.1,2.962c-.4,2.05.514,4.68,2.713,7.825a111.776,111.776,0,0,0,11.3,11.3Z" transform="translate(-51.099 -10.714)" fill="#fff"/>
      <path id="Path_1362" data-name="Path 1362" d="M98.8,350.578H98.73a.88.88,0,0,1-.88-.888l1.328-57.254,3.892-.456L99.75,349.707a.946.946,0,0,1-.946.871Z" transform="translate(-16.658 -49.706)" fill="#bcbec0"/>
      <path id="Path_1363" data-name="Path 1363" d="M71.482,350.581H71.4a.83.83,0,0,1-.83-.888l1.319-57.254,3.85-.44L72.42,349.727a.938.938,0,0,1-.938.855Z" transform="translate(-12.013 -49.71)" fill="#6d6e71"/>
      <path id="Path_1364" data-name="Path 1364" d="M146.232,350.581h.083a.83.83,0,0,0,.871-.888l-1.319-57.254L142,292l3.319,57.727a.954.954,0,0,0,.913.855Z" transform="translate(-24.174 -49.71)" fill="#bcbec0"/>
      <path id="Path_1365" data-name="Path 1365" d="M68.56,277.614v-39.24a12.5,12.5,0,0,1,12.5-12.5h28.278a12.5,12.5,0,0,1,12.5,12.5v40.708Z" transform="translate(-11.672 -38.452)" fill="#bcbec0"/>
      <path id="Path_1366" data-name="Path 1366" d="M68.555,288.23H126.9v6.2H74.728a6.2,6.2,0,0,1-6.2-6.2h.025Z" transform="translate(-11.666 -49.068)" fill="#6d6e71"/>
      <rect id="Rectangle_134" data-name="Rectangle 134" width="46.848" height="6.198" rx="3.099" transform="translate(77.699 239.162)" fill="#bcbec0"/>
      <path id="Path_1367" data-name="Path 1367" d="M145.293,276.233c-4.033,7.02-9.127,9.733-9.127,9.733H115.09S148.372,270.865,145.293,276.233Z" transform="translate(-19.593 -46.829)" fill="#233862"/>
      <path id="Path_1368" data-name="Path 1368" d="M131.9,338.326a1.967,1.967,0,0,0-.348,2.083h0c.506,1.386,2.166,2.937,4.1,4.489.249.2.465.382.655.548l.149.133.116.108c1.8,1.66,1.12,2.041,4.356,5.41,3.692,3.833,6.232,3.9,6.953,3.551s-.631-2.332-2.008-4.622l-.2-.332-.548-.921c-1.618-2.755-1.2-4.041-.83-8.14.315-3.319,5.186-18.612,5.186-18.612l-7.07-1.211s-2.132,12.164-4.481,14.031c-1.253,1-2.655,1.012-3.858,1.751l-.249.158A9.483,9.483,0,0,0,131.9,338.326Z" transform="translate(-22.368 -54.614)" fill="#ffb27d"/>
      <path id="Path_1369" data-name="Path 1369" d="M131.9,341.564a1.967,1.967,0,0,0-.348,2.083h0c.614,1.386,2.24,2.929,4.107,4.472l.647.564.149.133.116.108c1.8,1.66,1.12,2.041,4.356,5.41,3.692,3.834,6.232,3.9,6.953,3.551s-.631-2.332-2.008-4.622a15.641,15.641,0,0,1-6.58-4.846c-2.215-2.829-3.7-6.472-5.211-8.588l-.249.158a9.485,9.485,0,0,0-1.933,1.577Z" transform="translate(-22.368 -57.852)" fill="#233862"/>
      <path id="Path_1370" data-name="Path 1370" d="M199.509,333.48c.44,2.182,3.543,1.817,7.02.963s2.655.166,7.6-.382,6.439-2.39,6.638-3.128-2.315-.888-4.979-1.187l-.987-.083c-2.962-.373-5.128-2.282-7.816-3.85-2.547-1.485-6.348-7.543-6.348-7.543l-6.787.539s3.56,5.41,4.979,7.758a8.046,8.046,0,0,1,.672,4.622,8.4,8.4,0,0,0,.008,2.29Z" transform="translate(-33.001 -54.182)" fill="#ffb27d"/>
      <path id="Path_1371" data-name="Path 1371" d="M207.673,336.8c3.477-.83,2.655.166,7.6-.382s6.439-2.39,6.638-3.128-2.315-.888-4.979-1.187v.05a13.907,13.907,0,0,1-7.078,2.207c-3.319.075-6.912-.888-9.227-.83a8.4,8.4,0,0,0,.05,2.323C201.093,338.016,204.2,337.651,207.673,336.8Z" transform="translate(-34.145 -56.536)" fill="#233862"/>
      <path id="Path_1372" data-name="Path 1372" d="M164.561,282.089l-6.339,17.068-8.3,22.279a13.377,13.377,0,0,1-4.4-.407,19.133,19.133,0,0,1-4.257-2.066s2.3-23.922,6.588-37.655c1.1-3.527,2.332-6.381,3.692-7.982C158.214,265.469,164.561,282.089,164.561,282.089Z" transform="translate(-24.05 -46.172)" fill="#0a2033"/>
      <path id="Path_1373" data-name="Path 1373" d="M148.984,250.954c-4.149-1.336-16.006.382-27.9,2.713l-2.489-4.149L92.867,247.51s-8.48,18.811-3.842,30.8a4.365,4.365,0,0,0,4.356,2.929h20.644c12.787,0,27.059-8.8,28.9-9.127,3.029-.606,4.232,5.435,7.26,11.783s28.4,28.112,28.4,28.112a24.235,24.235,0,0,0,5.518-.573,5.377,5.377,0,0,0,2.365-1.494S158.352,253.974,148.984,250.954Z" transform="translate(-14.919 -42.136)" fill="#243c55"/>
      <path id="Path_1374" data-name="Path 1374" d="M114.773,159.309c-3.319-1.726-8.3-1.958-9.127-2.066-9.717-1.311-15.591,12.845-15.94,17.135-.631,7.908-4.813,9.127-10.7,14.106-11.808,9.957-8.3,21.466-1.892,25.723,3.875,2.572,10.7,0,10.7,0s18.67-10.38,27.822-15.425C129.36,196.855,123.17,163.723,114.773,159.309Z" transform="translate(-12.123 -26.754)" fill="#233862"/>
      <path id="Path_1375" data-name="Path 1375" d="M112.931,199.178s-4.5,1.585-7.543.232c-2.854-1.261-4.979-5.966-4.979-5.966,1.3-.058,2.73-1.195,3.825-8.654l.556.191,9.31,3.319s-.672,2.987-1.112,5.808C112.624,196.581,112.425,198.846,112.931,199.178Z" transform="translate(-17.094 -31.458)" fill="#ffb27d"/>
      <path id="Path_1376" data-name="Path 1376" d="M115,188.367s-.672,2.987-1.112,5.808c-5.344-.963-7.468-6.29-8.2-9.185Z" transform="translate(-17.992 -31.492)" fill="#ed975d"/>
      <path id="Path_1377" data-name="Path 1377" d="M116.194,188.041s-12.737-1.709-11.55-9.634.34-13.467,8.522-12.712,9.31,4.016,9.559,6.754S119.538,188.282,116.194,188.041Z" transform="translate(-17.801 -28.196)" fill="#ffb27d"/>
      <path id="Path_1378" data-name="Path 1378" d="M121.51,167.968s-8.157,7.028-13.7,7.592-7.65-1.211-7.65-1.211a21.64,21.64,0,0,0,5.236-7.094,3.908,3.908,0,0,1,3.219-2.3C112.573,164.616,120.083,164.458,121.51,167.968Z" transform="translate(-17.051 -28.053)" fill="#233862"/>
      <path id="Path_1379" data-name="Path 1379" d="M119.75,167.548a20.2,20.2,0,0,1,3.585,4.6,15.088,15.088,0,0,1,.415,8.2s4.257-8.3,1.842-12.28C123.044,163.806,119.75,167.548,119.75,167.548Z" transform="translate(-20.386 -28.264)" fill="#233862"/>
      <path id="Path_1380" data-name="Path 1380" d="M121.418,219.66c-.382,25.789-.108,20.4-2.921,22.843-.68.589-2.6.946-5.111,1.112-7.908.523-21.806-.78-22.337-2.24-1.817-5.062-.531-6.638-2.058-14.371-.158-.83-.348-1.709-.581-2.68-1.27-5.319-2.489-7.128,2-15.674,4.074-7.733,8.3-14.015,8.7-13.791,10.787,6.4,11.617,1.021,11.617,1.021S121.609,207.081,121.418,219.66Z" transform="translate(-14.852 -33.171)" fill="#033cfb"/>
      <path id="Path_1381" data-name="Path 1381" d="M158.222,301.228l-8.3,22.279a13.377,13.377,0,0,1-4.4-.407,19.133,19.133,0,0,1-4.257-2.066s2.3-23.922,6.588-37.655Z" transform="translate(-24.05 -48.242)" fill="#243c55"/>
      <path id="Path_1382" data-name="Path 1382" d="M115.57,196.09s11.086,1.884,12.388,6.638,8.953,32.817,8.953,32.817-5.634,1.012-8.231-1.593-9.061-24.146-9.061-24.146Z" transform="translate(-19.674 -33.382)" fill="#033cfb"/>
      <path id="Path_1383" data-name="Path 1383" d="M113.745,248.009c-7.908.523-21.806-.78-22.337-2.24-1.817-5.062-.531-6.638-2.058-14.371l3.858-10.737s-.631,11.957,2.9,15.1,14.438,6.074,16.155,8.7a9.517,9.517,0,0,1,1.485,3.543Z" transform="translate(-15.211 -37.565)" fill="#033cfb"/>
      <path id="Path_1384" data-name="Path 1384" d="M107.83,247.312s7.808-1.743,9.061-1.046,4.34,3.211,4.721,4.091-2.8-.672-3.842-.946c-.672-.183-2.431.432-3.319.722a11.026,11.026,0,0,1-5.941.6Z" transform="translate(-18.357 -41.896)" fill="#ffb27d"/>
      <path id="Path_1385" data-name="Path 1385" d="M96.355,194.86s-10.48.647-14.106,5.7c-5.1,7.119-15.226,37.464-9.426,41.488,6.539,4.564,29.747,1.195,29.747,1.195s.772-3.609-.307-5.352-18.537-4.572-19.342-5.377S92.994,216.8,92.994,214.376,96.355,194.86,96.355,194.86Z" transform="translate(-12.101 -33.173)" fill="#033cfb"/>
      <path id="Path_1386" data-name="Path 1386" d="M119.21,248.91a15.517,15.517,0,0,0,2.166,2.365,1.66,1.66,0,0,0,.888.191l-1.1-1.983Z" transform="translate(-20.294 -42.374)" fill="#ffb27d"/>
      <path id="Path_1387" data-name="Path 1387" d="M118.75,246.3l4.755,2.307a.83.83,0,0,1-.83.3,11.276,11.276,0,0,1-2.058-.564Z" transform="translate(-20.216 -41.93)" fill="#ffb27d"/>
      <path id="Path_1388" data-name="Path 1388" d="M125.379,249.881h32.742a2.24,2.24,0,0,0,2.083-1.411l9.5-23.623a2.249,2.249,0,0,0-2.091-3.087H134.929a2.24,2.24,0,0,0-2.083,1.411L123.3,246.786a2.249,2.249,0,0,0,2.083,3.1Z" transform="translate(-20.962 -37.752)" fill="#6d6e71"/>
      <path id="Path_1389" data-name="Path 1389" d="M157.475,254.33H107.83v1.1h48.309a1.328,1.328,0,0,0,1.228-.83Z" transform="translate(-18.357 -43.297)" fill="#6d6e71"/>
      <path id="Path_1390" data-name="Path 1390" d="M154.941,239.268c.282-.622-.29-1.128-1.278-1.128a2.655,2.655,0,0,0-2.3,1.128c-.282.622.282,1.128,1.278,1.128A2.655,2.655,0,0,0,154.941,239.268Z" transform="translate(-25.756 -40.54)" fill="#fff"/>
      <rect id="Rectangle_135" data-name="Rectangle 135" width="424" height="5.883" transform="translate(424 307.294) rotate(180)" fill="#031efb" opacity="0.35"/>
      <path id="Path_1391" data-name="Path 1391" d="M213.232,137.056l4.622,16.139a2.116,2.116,0,0,1,.075.714,2.091,2.091,0,0,1-1.5,1.859l-28.038,8.024a2.066,2.066,0,0,1-2.257-.83,1.859,1.859,0,0,1-.307-.631L181.2,146.192a2.074,2.074,0,0,1,1.427-2.564l28.038-8.024a2.074,2.074,0,0,1,2.564,1.452Z" transform="translate(-30.834 -23.072)" fill="#cde0fb"/>
      <path id="Path_1392" data-name="Path 1392" d="M218.956,156.883a2.091,2.091,0,0,1-1.5,1.859l-28.038,8.024a2.066,2.066,0,0,1-2.257-.83L201.44,153Z" transform="translate(-31.862 -26.046)" fill="#bed7fb"/>
      <path id="Path_1393" data-name="Path 1393" d="M213.232,137.062l-12.554,15.583-19.234-5.584-.241-.83a2.074,2.074,0,0,1,1.427-2.564l28.038-8.024a2.074,2.074,0,0,1,2.564,1.419Z" transform="translate(-30.834 -23.078)" fill="#dfebfd"/>
    </g>
  </g>
</svg>
