<svg id="Group_1127" data-name="Group 1127" xmlns="http://www.w3.org/2000/svg" xmlns:xlink="http://www.w3.org/1999/xlink" width="441" height="374.188" viewBox="0 0 441 374.188">
  <defs>
    <linearGradient id="linear-gradient" y1="0.5" x2="1" y2="0.5" gradientUnits="objectBoundingBox">
      <stop offset="0" stop-color="#606bf1"/>
      <stop offset="1" stop-color="#433aff"/>
    </linearGradient>
    <radialGradient id="radial-gradient" cx="-0.554" cy="0.234" r="0.709" gradientTransform="translate(0.278) scale(0.443 1)" gradientUnits="objectBoundingBox">
      <stop offset="0" stop-color="#ffc8af"/>
      <stop offset="1" stop-color="#ffbb9c"/>
    </radialGradient>
    <radialGradient id="radial-gradient-2" cx="-3.108" cy="0.13" r="1.216" gradientTransform="translate(0.069) scale(0.861 1)" xlink:href="#radial-gradient"/>
    <linearGradient id="linear-gradient-2" x1="519.067" y1="0.303" x2="520.075" y2="0.303" gradientUnits="objectBoundingBox">
      <stop offset="0" stop-color="#febbba"/>
      <stop offset="1" stop-color="#ff928e"/>
    </linearGradient>
    <radialGradient id="radial-gradient-3" cx="0.494" cy="0.491" r="0.467" gradientTransform="matrix(1.161, 0.009, -0.011, 1, -16.155, -0.948)" xlink:href="#radial-gradient"/>
    <radialGradient id="radial-gradient-4" cx="0.496" cy="0.491" r="0.771" gradientTransform="matrix(0.516, 0.009, -0.005, 1, 38.904, -0.757)" xlink:href="#radial-gradient"/>
    <radialGradient id="radial-gradient-5" cx="0.5" cy="0.5" r="0.484" gradientTransform="translate(-0.034) scale(1.069 1)" xlink:href="#radial-gradient"/>
    <radialGradient id="radial-gradient-6" cx="0.566" cy="0.595" r="0.54" gradientTransform="matrix(0.778, -0.656, 0.635, 0.709, -47.814, -40.669)" xlink:href="#radial-gradient"/>
    <radialGradient id="radial-gradient-7" cx="1.056" cy="0.295" r="0.648" gradientTransform="matrix(0.507, -0.661, 0.446, 0.751, -227.148, -117.814)" xlink:href="#radial-gradient"/>
    <radialGradient id="radial-gradient-8" cx="0.498" cy="0.501" r="0.528" gradientTransform="translate(0.05) scale(0.9 1)" xlink:href="#radial-gradient"/>
    <radialGradient id="radial-gradient-9" cx="0.5" cy="0.5" r="0.465" gradientTransform="translate(-0.086) scale(1.173 1)" xlink:href="#radial-gradient"/>
    <radialGradient id="radial-gradient-10" cx="-2.091" cy="0.709" r="0.565" gradientTransform="translate(-0.062) scale(1.125 1)" xlink:href="#radial-gradient"/>
    <linearGradient id="linear-gradient-3" x1="0.639" y1="-14.13" x2="0.129" y2="39.27" gradientUnits="objectBoundingBox">
      <stop offset="0" stop-color="#53d8ff"/>
      <stop offset="1" stop-color="#3840f7"/>
    </linearGradient>
    <linearGradient id="linear-gradient-4" x1="0.598" y1="-8.012" x2="0.176" y2="27.99" xlink:href="#linear-gradient-3"/>
    <linearGradient id="linear-gradient-5" x1="0.584" y1="-6.928" x2="0.169" y2="29.426" xlink:href="#linear-gradient-3"/>
    <linearGradient id="linear-gradient-6" x1="0.575" y1="-5.727" x2="0.137" y2="30.649" xlink:href="#linear-gradient-3"/>
    <linearGradient id="linear-gradient-7" x1="17.38" y1="-3.753" x2="9.009" y2="-1.648" gradientUnits="objectBoundingBox">
      <stop offset="0" stop-color="#e1473d"/>
      <stop offset="1" stop-color="#e9605a"/>
    </linearGradient>
    <linearGradient id="linear-gradient-8" x1="18.06" y1="-3.91" x2="9.689" y2="-1.805" xlink:href="#linear-gradient-7"/>
    <radialGradient id="radial-gradient-11" cx="0.499" cy="0.5" r="0.412" gradientTransform="translate(-0.34) scale(1.681 1)" xlink:href="#radial-gradient"/>
    <radialGradient id="radial-gradient-12" cx="0.5" cy="0.499" r="0.453" gradientTransform="translate(-0.125) scale(1.25 1)" xlink:href="#radial-gradient"/>
    <radialGradient id="radial-gradient-13" cx="0.467" cy="0.455" r="0.454" gradientTransform="matrix(0.764, -0.797, 1.007, 0.604, -128.404, -17.82)" xlink:href="#radial-gradient"/>
    <radialGradient id="radial-gradient-14" cx="0.644" cy="0.47" r="0.433" gradientTransform="matrix(0.989, -0.797, 1.304, 0.604, -465.63, -116.921)" xlink:href="#radial-gradient"/>
    <radialGradient id="radial-gradient-15" cx="0.5" cy="0.501" r="1.631" gradientTransform="translate(0.389) scale(0.222 1)" xlink:href="#radial-gradient"/>
    <radialGradient id="radial-gradient-16" cx="0.5" cy="0.5" r="0.464" gradientTransform="matrix(-1.178, 0, 0, 1, -2043.267, 0)" xlink:href="#radial-gradient"/>
    <radialGradient id="radial-gradient-17" cx="0.499" cy="0.5" r="0.467" gradientTransform="matrix(-1.16, 0, 0, 1, -2280.731, 0)" xlink:href="#radial-gradient"/>
    <linearGradient id="linear-gradient-9" x1="-4569.939" y1="2.369" x2="-4568.559" y2="1.878" gradientUnits="objectBoundingBox">
      <stop offset="0" stop-color="#4f52ff"/>
      <stop offset="1" stop-color="#4042e2"/>
    </linearGradient>
    <radialGradient id="radial-gradient-18" cx="0.501" cy="0.498" r="0.486" gradientTransform="matrix(-1.06, 0, 0, 1, -539.818, 0)" xlink:href="#radial-gradient"/>
    <radialGradient id="radial-gradient-19" cx="0.5" cy="0.5" r="0.528" gradientTransform="matrix(-0.901, 0, 0, 1, -263.563, 0)" xlink:href="#radial-gradient"/>
    <radialGradient id="radial-gradient-20" cx="0.5" cy="0.5" r="0.415" gradientTransform="matrix(-1.636, 0, 0, 1, -1370.347, 0)" xlink:href="#radial-gradient"/>
    <radialGradient id="radial-gradient-21" cx="0.5" cy="0.5" r="0.444" gradientTransform="matrix(-1.321, 0, 0, 1, -985.666, 0)" xlink:href="#radial-gradient"/>
    <radialGradient id="radial-gradient-22" cx="0.499" cy="0.5" r="0.43" gradientTransform="matrix(-1.44, 0, 0, 1, -3211.855, 0)" xlink:href="#radial-gradient"/>
  </defs>
  <g id="Ellipse_13" data-name="Ellipse 13" transform="translate(187 125)" fill="none" stroke="#035afb" stroke-width="2" stroke-dasharray="20 21" opacity="0.44">
    <circle cx="109.5" cy="109.5" r="109.5" stroke="none"/>
    <circle cx="109.5" cy="109.5" r="108.5" fill="none"/>
  </g>
  <g id="Ellipse_14" data-name="Ellipse 14" transform="translate(222 125)" fill="none" stroke="#035afb" stroke-width="2" stroke-dasharray="20 21" opacity="0.44">
    <circle cx="109.5" cy="109.5" r="109.5" stroke="none"/>
    <circle cx="109.5" cy="109.5" r="108.5" fill="none"/>
  </g>
  <g id="Group_652" data-name="Group 652" transform="translate(0 0)">
    <path id="Path_589" data-name="Path 589" d="M770.448,444.47v6.98H759.53v-6.713Z" transform="translate(-680.933 -95.09)" fill="#ffc8af"/>
    <path id="Path_590" data-name="Path 590" d="M759.839,460.61a14.212,14.212,0,0,0,4.716.165,5.008,5.008,0,0,1,1.745,0,2.044,2.044,0,0,1,1.9-1.313,3.144,3.144,0,0,1,2.193.983,3.206,3.206,0,0,0,.951.786,2.281,2.281,0,0,0,.92.11l10.91-.236a2.508,2.508,0,0,0,2.02-.668,2.358,2.358,0,0,0,.33-1.509,4.621,4.621,0,0,0-.723-2.83c-.786-.983-2.2-.99-3.4-1.344s-2.3-.912-3.576-1.3a10.4,10.4,0,0,1-6.43-5.848,2.571,2.571,0,0,0-.739-1.195,2.2,2.2,0,0,0-1.981,0,18.611,18.611,0,0,0-2.287,1.022c-.511.275-1.077.7-1.014,1.273.086.747,1.21,1.289.873,1.957-.189.385-.723.409-1.156.362a20.555,20.555,0,0,1-6.288-1.714,16.2,16.2,0,0,0-.251,2.893l.291,6.186a4.236,4.236,0,0,0,1,2.225Z" transform="translate(-680.724 -95.453)" fill="#1a1d3e"/>
    <path id="Path_591" data-name="Path 591" d="M818.735,442.16l1.533,7.357-10.1,1.745-2.327-8.426Z" transform="translate(-691.269 -94.595)" fill="#ffc8af"/>
    <path id="Path_592" data-name="Path 592" d="M737.551,374.044c-6.563.338-15.328.786-26.773,1.242-32.031,1.226-25.507-29.791-25.507-29.791l30.609-.4s45.5-.676,55.094,5.447,23.581,70.744,23.581,70.744l-15.289,4.229S766.91,398.962,759.7,384.821c-2.963-5.817-5.1-10.085-5.29-10.549C754.05,373.227,749.4,373.439,737.551,374.044Z" transform="translate(-664.928 -73.823)" fill="#0a2033"/>
    <path id="Path_593" data-name="Path 593" d="M716.855,345.09h-.975l-30.609.4s-3.655,17.4,7.963,25.617c11.563-2.8,18.448-14.526,24.517-25.059Z" transform="translate(-664.929 -73.827)" fill="#0a2033"/>
    <path id="Path_594" data-name="Path 594" d="M774.112,392.572l-2.531,38.32-2.759.063v-1.572H757.9v1.863l-3.011.071L751.93,381.8c11.791-.605,16.507-.786,16.892.228C769.011,382.487,771.149,386.756,774.112,392.572Z" transform="translate(-679.307 -81.574)" fill="#243c55"/>
    <path id="Path_595" data-name="Path 595" d="M779.816,326.857H761.737S734.5,322.463,729.2,319.2c-1.965-1.211-5.345-4.921-8.835-9.1l12.3-10.219c2.154,3.411,4.119,6.194,4.9,6.5,2.146.786,22.442,12.129,24.792,12.129S775.941,318.289,779.816,326.857Z" transform="translate(-672.553 -64.154)" fill="#efa78b"/>
    <path id="Path_596" data-name="Path 596" d="M730.208,295.034l-13.135,10.509c-5.95-7.137-12.184-15.721-12.184-15.721l18.629-11.233S728.306,289.988,730.208,295.034Z" transform="translate(-669.243 -59.599)" fill="url(#linear-gradient)"/>
    <path id="Path_597" data-name="Path 597" d="M714.441,265.267,700.976,260s-16.059,1.871-17.167,40.56c-.212,7.475-.141,48.735,2.138,49.82,9.071,4.221,32.44-23.471,32.44-23.471.464-.857-.2-9.786,0-10.667a8.844,8.844,0,0,1-1.4-.637c-2.358-1.407-6.839-7.318-11.225-13.709l13.858-10.8c.55.872,1.1,1.714,1.627,2.539C721.617,272.954,714.441,265.267,714.441,265.267Z" transform="translate(-664.716 -55.621)" fill="#033cfb"/>
    <path id="Path_598" data-name="Path 598" d="M763.9,322.494s-28.463-11.633-30.4-12.05c-.613-.134-2.7-3.026-5.282-6.925-.542-.841-2.052-3.144-2.6-4.009l-13.858,10.8c4.386,6.391,8.843,12.3,11.225,13.709a8.85,8.85,0,0,0,1.4.637v-.079a.349.349,0,0,1,0,.079c8.277,3.1,38.06,4.528,38.634,4.716,1.069.825,3.584.88,5.848.252a8.378,8.378,0,0,0,2.806-1.289c1.989-1.493,4.968.613,6.288,1.627a3.453,3.453,0,0,0,3.569-.039C780.028,321.362,763.9,322.494,763.9,322.494Z" transform="translate(-670.713 -64.075)" fill="url(#radial-gradient)"/>
    <path id="Path_599" data-name="Path 599" d="M722.208,256.6l-.4.818-.865,1.753-.157.314-1.643,3.333-13.473-5.3,5.644-8.945,8.922,6.571Z" transform="translate(-669.41 -53.176)" fill="url(#radial-gradient-2)"/>
    <path id="Path_600" data-name="Path 600" d="M695.76,285.076l14.015,21.608,16.051-9.22s-4.37-16.806-8.646-26.057c-2.633-5.746-10.219-8.6-17.56-4.025C693.213,271.368,693.4,280.745,695.76,285.076Z" transform="translate(-666.967 -56.715)" fill="#033cfb"/>
    <path id="Path_601" data-name="Path 601" d="M661.459,299.5a1.009,1.009,0,0,0,0,.189c0,.134,0,.165,0,.236,0,.244.094.676.189,1.328.731,4.889,3.349,21.624,5.785,37.164s4.716,29.87,4.716,29.87l4.834-.786s-.165-1.061-.456-2.908c-1.022-6.493-3.569-22.725-5.864-37.4-1.148-7.342-2.232-14.29-3.034-19.431-.393-2.578-.723-4.716-.951-6.194-.11-.747-.2-1.336-.259-1.737a2.244,2.244,0,0,0-.063-.456v-.094h0l-1.446.165,1.454-.126v-.039l-1.446.165,1.454-.126-2.264.189h2.272v-.189l-2.264.189H661.49Z" transform="translate(-659.95 -64.025)" fill="#414042"/>
    <path id="Path_602" data-name="Path 602" d="M1.273,0H4.645A1.281,1.281,0,0,1,5.927,1.281V57.947H0V1.273A1.281,1.281,0,0,1,1.273,0Z" transform="translate(50.7 368.788) rotate(180)" fill="#414042"/>
    <path id="Path_603" data-name="Path 603" d="M2.94,0H29.665a2.948,2.948,0,0,1,2.948,2.948v2H0v-2A2.948,2.948,0,0,1,2.94,0Z" transform="translate(64.039 316.61) rotate(180)" fill="#414042"/>
    <rect id="Rectangle_52" data-name="Rectangle 52" width="72.261" height="11.555" rx="4.37" transform="translate(83.871 311.815) rotate(180)" fill="#808285"/>
    <path id="Path_604" data-name="Path 604" d="M681.12,463.8a3.466,3.466,0,1,0,1.015-2.459A3.474,3.474,0,0,0,681.12,463.8Z" transform="translate(-664.157 -98.483)" fill="#414042"/>
    <circle id="Ellipse_2" data-name="Ellipse 2" cx="3.474" cy="3.474" r="3.474" transform="translate(71.569 361.847)" fill="#414042"/>
    <rect id="Rectangle_53" data-name="Rectangle 53" width="11.932" height="10.423" transform="translate(53.703 360.566) rotate(180)" fill="#414042"/>
    <path id="Path_605" data-name="Path 605" d="M0,0H61.547V1.989a2.924,2.924,0,0,1-2.924,2.924H2.924A2.924,2.924,0,0,1,0,1.989V0Z" transform="translate(78.51 363.019) rotate(180)" fill="#414042"/>
    <path id="Path_606" data-name="Path 606" d="M659.592,303.182l2.61,19.368a5.046,5.046,0,1,0,10-1.352l-2.61-19.352a5.046,5.046,0,0,0-10,1.352" transform="translate(-659.545 -63.667)" fill="#808285"/>
    <path id="Path_607" data-name="Path 607" d="M809.859,459.761a14.214,14.214,0,0,0,4.716.165,5.211,5.211,0,0,1,1.745-.039,2.044,2.044,0,0,1,1.9-1.3,3.144,3.144,0,0,1,2.193.983,3.143,3.143,0,0,0,.951.786,2.279,2.279,0,0,0,.92.1l10.91-.228a2.508,2.508,0,0,0,2.02-.668,2.358,2.358,0,0,0,.33-1.509,4.717,4.717,0,0,0-.723-2.83c-.786-.983-2.2-1-3.4-1.344s-2.3-.912-3.584-1.3a10.407,10.407,0,0,1-6.422-5.848,2.57,2.57,0,0,0-.739-1.195,2.2,2.2,0,0,0-1.981,0,18.611,18.611,0,0,0-2.287,1.022c-.511.275-1.077.7-1.014,1.273.086.747,1.21,1.281.872,1.957-.189.385-.723.409-1.155.362a20.557,20.557,0,0,1-6.288-1.714,16.2,16.2,0,0,0-.251,2.885l.291,6.194A4.26,4.26,0,0,0,809.859,459.761Z" transform="translate(-691.426 -95.265)" fill="#1a1d3e"/>
    <rect id="Rectangle_54" data-name="Rectangle 54" width="402.455" height="5.51" transform="translate(0 368.678)" fill="#031efb" opacity="0.35"/>
    <path id="Path_608" data-name="Path 608" d="M673.3,140.632a1.108,1.108,0,0,1-.66-1.014c0-1.478,0-2.987.071-4.473a1.1,1.1,0,0,1,1.163-1.045c1.509.079,1,1.572,1.014,5.549a1.1,1.1,0,0,1-1.124,1.093,1.147,1.147,0,0,1-.464-.11Z" transform="translate(-662.343 -28.684)" fill="#91b3fa"/>
    <path id="Path_609" data-name="Path 609" d="M674.547,93.328c.472-2.806,1.069-5.62,1.769-8.379a1.1,1.1,0,0,1,1.36-.786c1.643.44.487,1.3-.912,9.558a1.1,1.1,0,0,1-1.289.888,1.14,1.14,0,0,1-.928-1.281Zm6.029-21.593c1.045-2.649,2.217-5.314,3.443-7.813a1.132,1.132,0,0,1,2.028.99c-1.218,2.492-2.358,5.062-3.372,7.656a1.132,1.132,0,0,1-2.1-.833Zm10.336-19.863c1.572-2.358,3.254-4.716,5.007-6.933A1.124,1.124,0,0,1,697.7,46.3c-1.714,2.193-3.364,4.48-4.9,6.8a1.132,1.132,0,0,1-1.887-1.226Zm14.3-15.721a1.093,1.093,0,0,1,0-1.572c2.028-1.989,4.174-3.93,6.359-5.754,1.124-.943,2.594.786,1.47,1.7-2.146,1.792-4.237,3.694-6.233,5.644a1.132,1.132,0,0,1-1.6-.031ZM722.5,22.128a1.1,1.1,0,0,1,.314-1.533c2.413-1.572,4.913-2.995,7.436-4.339a1.124,1.124,0,0,1,1.1,1.957c-2.476,1.313-4.929,2.743-7.287,4.245a1.155,1.155,0,0,1-1.556-.346Zm20.437-9.621a1.124,1.124,0,0,1-.582-.605,1.085,1.085,0,0,1,.621-1.431c2.688-1.022,5.447-1.942,8.2-2.751a1.148,1.148,0,0,1,1.407.747,1.085,1.085,0,0,1-.652,1.36c-2.7.786-5.4,1.7-8.033,2.7a1.14,1.14,0,0,1-.912-.024Zm21.7-5.785A1.171,1.171,0,0,1,764,5.935a1.093,1.093,0,0,1,.951-1.3c2.845-.456,5.746-.786,8.646-1.045a1.156,1.156,0,0,1,1.234,1.014A1.093,1.093,0,0,1,773.824,5.8c-2.822.236-5.66.574-8.45,1.022a1.179,1.179,0,0,1-.684-.118Zm21.868-2.358a1.093,1.093,0,0,1,1.148-1.053c2.893.126,5.817.369,8.694.723a1.108,1.108,0,1,1-.244,2.2c-2.814-.346-5.683-.582-8.513-.707a1.14,1.14,0,0,1-1.038-1.171Zm70.21,29.084c-6.359-5.6-7.86-5.628-6.854-6.957a1.124,1.124,0,0,1,1.572-.2c2.358,1.745,4.6,3.6,6.768,5.5a1.108,1.108,0,1,1-1.438,1.619ZM808.984,7.421a1.108,1.108,0,0,1,1.352-.786c2.806.707,5.628,1.572,8.387,2.452a1.108,1.108,0,1,1-.692,2.1c-2.7-.9-5.5-1.714-8.214-2.405a1.116,1.116,0,0,1-.833-1.36Zm29.547,12.938c-7.349-4.213-8.859-3.93-8.136-5.455a1.148,1.148,0,0,1,1.494-.511c2.633,1.25,5.235,2.618,7.75,4.056a1.108,1.108,0,0,1,.425,1.517,1.124,1.124,0,0,1-1.533.393Z" transform="translate(-662.748 -0.701)" fill="#91b3fa"/>
    <path id="Path_612" data-name="Path 612" d="M744.908,248.814c-2.806-1.383-5.589-2.9-8.261-4.512a1.108,1.108,0,0,1-.393-1.525c.888-1.47,1.423,0,9.629,4.064a1.116,1.116,0,0,1,.527,1.486,1.148,1.148,0,0,1-1.5.487Zm13.363,4.449c.542-1.627,1.431-.291,10.258,1.918a1.124,1.124,0,0,1,.833,1.344,1.108,1.108,0,0,1-1.352.786c-3.018-.786-6.06-1.651-9.024-2.657a1.116,1.116,0,0,1-.676-1.391Zm-34.162-17.694c-2.437-1.957-4.818-4.032-7.074-6.178a1.108,1.108,0,0,1-.047-1.572c1.2-1.226,1.4.322,8.529,6.037a1.108,1.108,0,0,1,.181,1.572A1.132,1.132,0,0,1,724.109,235.569Zm58.6,24.367a1.132,1.132,0,0,1-.652-1.132,1.093,1.093,0,0,1,1.226-.975c3.042.338,6.123.558,9.165.645a1.14,1.14,0,0,1,1.116,1.132,1.1,1.1,0,0,1-1.14,1.077c-3.1-.086-6.288-.307-9.362-.652a1.307,1.307,0,0,1-.354-.086Zm24.3.047a1.124,1.124,0,0,1-.652-.88,1.093,1.093,0,0,1,.975-1.226c3.018-.322,6.068-.786,9.047-1.36a1.14,1.14,0,0,1,1.336.872,1.093,1.093,0,0,1-.865,1.3c-3.042.59-6.155,1.053-9.236,1.383a1.109,1.109,0,0,1-.605-.063Zm23.636-5.212a1.124,1.124,0,0,1-.6-.645,1.077,1.077,0,0,1,.676-1.4c2.869-.975,5.73-2.075,8.5-3.286a1.155,1.155,0,0,1,1.493.574,1.085,1.085,0,0,1-.55,1.454c-2.83,1.234-5.754,2.358-8.646,3.349a1.108,1.108,0,0,1-.872-.039Zm21.828-10.179a1.1,1.1,0,0,1-.487-.424,1.085,1.085,0,0,1,.346-1.517c2.578-1.572,5.117-3.262,7.546-5.039a1.14,1.14,0,0,1,1.572.236,1.085,1.085,0,0,1-.212,1.572c-2.484,1.816-5.07,3.545-7.7,5.141a1.124,1.124,0,0,1-1.069.039Zm18.645-14.9c-1.234-1.234.33-1.352,6.2-8.128a1.127,1.127,0,0,1,1.721,1.454c-2,2.311-4.135,4.567-6.336,6.7a1.132,1.132,0,0,1-1.588-.016Zm15.359-18.323c-1.478-.943,0-1.391,4.213-9.307a1.132,1.132,0,0,1,2,1.053c-1.438,2.7-3,5.369-4.661,7.931a1.124,1.124,0,0,1-1.548.33Zm10.753-21.318a1.116,1.116,0,0,1-.6-1.391c1.03-2.822,1.942-5.715,2.72-8.591a1.108,1.108,0,0,1,1.376-.786,1.124,1.124,0,0,1,.786,1.368c-.786,2.932-1.729,5.887-2.783,8.772a1.116,1.116,0,0,1-1.438.645Z" transform="translate(-671.766 -38.344)" fill="#91b3fa"/>
    <path id="Path_613" data-name="Path 613" d="M703.119,227.248c-2.452-3.058-3.71-4.3-2.531-5.141s1.776.652,4.284,3.781a1.1,1.1,0,0,1-.173,1.572,1.148,1.148,0,0,1-1.58-.212Z" transform="translate(-668.227 -47.464)" fill="#91b3fa"/>
    <path id="Path_614" data-name="Path 614" d="M791.173,134.126a18.472,18.472,0,0,1,21.223-15.54,19.048,19.048,0,0,1,16.145,21.223,18.472,18.472,0,0,1-21.223,15.548h0A19.084,19.084,0,0,1,791.173,134.126Zm16.381,19.565Zm4.41-31.827a15.155,15.155,0,0,0-17.45,12.773,15.634,15.634,0,0,0,13.268,17.411,15.163,15.163,0,0,0,17.442-12.75,15.642,15.642,0,0,0-13.26-17.434Z" transform="translate(-687.666 -25.314)" fill="#bdd0fb"/>
    <path id="Path_615" data-name="Path 615" d="M782.415,171.955h0a50.045,50.045,0,0,1-7.271-4.119,1.666,1.666,0,0,1-.6-2.067,1.506,1.506,0,0,1,.141-.244,1.69,1.69,0,0,1,2.358-.409,46.726,46.726,0,0,0,8.466,4.575h0c22.449,9.291,47.949-.535,57.837-21.907.252-.55.5-1.1.723-1.666,9.322-22.654-1.965-48.6-24.949-58.112s-49.246.975-58.56,23.581c-5.5,13.449-2.2,22.976-2.838,24.367a1.706,1.706,0,0,1-3.207-.472,46.7,46.7,0,0,1,3.694-26.961c17.254-37.439,72.159-35.907,88.619,2.437a46.722,46.722,0,0,1,.369,36.48c-.252.605-.511,1.21-.786,1.8a46.557,46.557,0,0,1-25.154,23.809,48.735,48.735,0,0,1-37.023-.275C783.626,172.5,783.021,172.246,782.415,171.955Z" transform="translate(-679.734 -17.388)" fill="#bdd0fb"/>
    <path id="Path_634" data-name="Path 634" d="M846.019,444.16s-.935,5.023-1.423,10a3.435,3.435,0,0,0,3.246,3.749c6.634.338,20.807,1.006,25.9.833a1.124,1.124,0,0,0,1-1.525h0a2.523,2.523,0,0,0-1.266-1.36l-23.322-11Z" transform="translate(-699.13 -95.023)" fill="#1a1d3e"/>
    <path id="Path_635" data-name="Path 635" d="M845.52,440.153l.66,6.021s4.08,1.949,6.9-.173l-1.635-6.721Z" transform="translate(-699.331 -93.979)" fill="url(#linear-gradient-2)"/>
    <path id="Path_636" data-name="Path 636" d="M842.5,296.455c-.33,1.572-2.405,78.392,5.5,112.9a1.179,1.179,0,0,1-.7,1.352A20.339,20.339,0,0,1,840.6,412a2.012,2.012,0,0,1-1.981-1.462c-2.272-8.018-13.135-48.145-14.243-86.394-1.226-42.737,0-1.454,0-1.454l1.218-26.4Z" transform="translate(-694.69 -63.386)" fill="#0a2033"/>
    <path id="Path_637" data-name="Path 637" d="M805.39,298.038c-7.074,40.473.5,100.205,3.144,111.9a1.8,1.8,0,0,0,1.454,1.4,12.216,12.216,0,0,0,5.259-.157,1.674,1.674,0,0,0,1.211-1.525c.464-9.433.346-67.4,6.823-90.238a5.18,5.18,0,0,1,2.036-2.845l12.231-8.521,1.061-13.952Z" transform="translate(-690.116 -62.917)" fill="#243c55"/>
    <path id="Path_638" data-name="Path 638" d="M848.547,200.729c-20.131-.519-42.391,4.881-42.391,4.881-6.336,34.955-1.769,75.382-1.769,75.382,15.548,4.237,33.187-2.177,33.187-2.177,2.728-14.613,15.21-55.676,15.21-55.676a66.437,66.437,0,0,0,24.682-7.578c-5.031-5.95-7.365-13.481-8.364-17.922a67.6,67.6,0,0,1-20.555,3.089Z" transform="translate(-690.19 -42.279)" fill="#0396fb"/>
    <path id="Path_639" data-name="Path 639" d="M925.336,164.027a3.844,3.844,0,0,0-4.465-1.3c-3.081,12.482-18.708,22.481-34.712,27.284,1,4.449,3.325,11.979,8.356,17.93C921.147,193.307,925.336,164.027,925.336,164.027Z" transform="translate(-708.026 -34.755)" fill="url(#radial-gradient-3)"/>
    <path id="Path_642" data-name="Path 642" d="M809.145,227.675l-7.53-19.565s-18.928,12.577-22.174,28.761a44.443,44.443,0,0,1,16.3,4.543C797.173,233.782,809.145,227.675,809.145,227.675Z" transform="translate(-685.193 -44.519)" fill="#0396fb"/>
    <path id="Path_643" data-name="Path 643" d="M825.271,254.009s-21.223,11.736-28.25,1.478a8.018,8.018,0,0,1-1.407-6.233,44.442,44.442,0,0,0-16.3-4.543,22.371,22.371,0,0,0,2.287,15.351c12.254,22.945,46.377-.786,46.377-.786Z" transform="translate(-685.064 -52.35)" fill="url(#radial-gradient-4)"/>
    <path id="Path_644" data-name="Path 644" d="M834.031,180.87l-6.579,18.464a.676.676,0,0,0,.3.786c1.737.983,8,3.828,15.627-.9a3.144,3.144,0,0,0,1.47-2.232l2.224-16.012Z" transform="translate(-695.458 -38.691)" fill="url(#radial-gradient-5)"/>
    <path id="Path_645" data-name="Path 645" d="M848.925,158.89s6.359,13.017,5.235,18.362-9.7,5.18-17.018,1.045l-4.622-14.149Z" transform="translate(-696.55 -33.988)" fill="url(#radial-gradient-6)"/>
    <path id="Path_646" data-name="Path 646" d="M835.761,168.688a.55.55,0,0,0,.252-.786,14.15,14.15,0,0,1-1.918-4.174s-1.258-.786,3.231-1.847,11.193-2.633,12.64-6.438-2.107-13.1-7.923-5.691a.55.55,0,0,1-.865,0c-.928-1.234-3.38-3.8-6.831-2.287-3.223,1.407-3.608,3.765-3.576,4.952a.55.55,0,0,1-.652.55c-1.619-.33-5.5-.629-7.381,3.356-1.525,3.278-.574,5.156.307,6.076a.55.55,0,0,1-.236.9c-1.077.314-2.46,1.2-2.358,3.71.157,3.466,4.032,3.191,5.133,3.05a.566.566,0,0,1,.487.173c.928,1.053,5.141,5.5,9.747,6.115a.55.55,0,0,0,.582-.723l-1.934-5.817a.542.542,0,0,1,.3-.676Z" transform="translate(-693.966 -31.438)" fill="#414042"/>
    <path id="Path_647" data-name="Path 647" d="M839.473,175.177s-4.976-3.482-5.369-.59,4.473,4.229,6.894,3.144Z" transform="translate(-696.884 -37.101)" fill="url(#radial-gradient-7)"/>
    <path id="Path_648" data-name="Path 648" d="M832.389,268.228l11.555-40.379a1.187,1.187,0,0,1,1-.849c2.091-.244,8.167-.928,15.171-1.525,8.442-.707,18.244-1.289,24.108-.786a1.179,1.179,0,0,1,.959,1.7c-3.325,6.736-17.034,34.154-23.9,43.13a1.179,1.179,0,0,1-.951.472l-26.82-.291a1.171,1.171,0,0,1-1.124-1.47Z" transform="translate(-696.513 -48.026)" fill="#031efb"/>
    <path id="Path_649" data-name="Path 649" d="M835.7,263.968s-1.611-6.626-.959-8.977,1.9-5.369,6.1-4.716a61.531,61.531,0,0,1,9.142,2.445,2.394,2.394,0,0,1-3.435,2.067l1.981,1.533s-.283,2.452-2.979,1.14l1.839,2.028a2.146,2.146,0,0,1-3.144.723C842.229,258.938,841.278,264.762,835.7,263.968Z" transform="translate(-696.991 -53.521)" fill="url(#radial-gradient-8)"/>
    <path id="Path_650" data-name="Path 650" d="M866.69,240.156a3.4,3.4,0,1,0,3.4-3.4A3.4,3.4,0,0,0,866.69,240.156Z" transform="translate(-703.861 -50.649)" fill="#91b3fa"/>
    <path id="Path_651" data-name="Path 651" d="M848.535,240.471l-.865-.252,2.358-7.986a3.639,3.639,0,0,1,2.743-2.547c7.459-1.572,27.111-1.879,27.944-1.887v.9c-.2,0-20.437.33-27.771,1.871a2.743,2.743,0,0,0-2.059,1.926Z" transform="translate(-699.791 -48.732)" fill="#91b3fa"/>
    <path id="Path_652" data-name="Path 652" d="M851,442.244a1.258,1.258,0,0,0,0-2" transform="translate(-700.504 -94.184)" fill="#231f20"/>
    <path id="Path_653" data-name="Path 653" d="M820.8,463.57" transform="translate(-694.042 -99.176)" fill="#231f20"/>
    <path id="Path_654" data-name="Path 654" d="M784.385,342.55h.086l44.734-.047a2,2,0,0,0,0-3.993l-44.734.039a2,2,0,0,0-.1,4Z" transform="translate(-685.854 -72.419)" fill="#231f20"/>
    <path id="Path_655" data-name="Path 655" d="M858.744,287.687l-18.794,40.607a2,2,0,0,0,3.624,1.682L862.4,289.393c.731-1.572-.786-3.616-3.191-2.57a6.191,6.191,0,0,1-.464.865Z" transform="translate(-698.1 -61.299)" fill="#231f20"/>
    <path id="Path_659" data-name="Path 659" d="M965.136,375.566c-.094-.149-18.276-2.185-18.276-2.185a41.94,41.94,0,0,1-1.265,13.143c-1.855,7.609-28.557,40.584-28.557,40.584l2.8,8.874a45.017,45.017,0,0,1-25.547,1.533l17.348-10.407s16.224-55.353,26.183-65.218L956.05,355.6Z" transform="translate(-709.766 -76.075)" fill="url(#radial-gradient-9)"/>
    <path id="Path_661" data-name="Path 661" d="M917.452,454s3.01,2.916.975,6.163c0,0-23.872,4.229-30.357,2.311,0,0,1.352-3.073,8.646-6.563l-.535.409a.872.872,0,0,0,.574,1.572C901.566,457.632,911.518,456.751,917.452,454Z" transform="translate(-708.435 -97.128)" fill="#231f20"/>
    <path id="Path_670" data-name="Path 670" d="M885.066,283.62h43.3a8.246,8.246,0,0,1,7.467,4.716l20.021,42.446H902.06a5.023,5.023,0,0,1-4.669-3.144l-15.517-39.3a3.451,3.451,0,0,1,3.191-4.716Z" transform="translate(-707.058 -60.675)" fill="#231f20"/>
    <path id="Path_685" data-name="Path 685" d="M755.539,441.53a1.572,1.572,0,0,1-.668-.149,1.9,1.9,0,0,1-.88-2.413l35.372-89.609a1.627,1.627,0,0,1,2.209-.967,1.91,1.91,0,0,1,.88,2.421l-35.341,89.609A1.69,1.69,0,0,1,755.539,441.53Z" transform="translate(-679.717 -74.502)" fill="#6d6e71"/>
    <path id="Path_686" data-name="Path 686" d="M796.538,441.53a1.69,1.69,0,0,1-1.572-1.108l-35.325-89.609a1.91,1.91,0,0,1,.88-2.421,1.627,1.627,0,0,1,2.209.967L798.1,438.967a1.894,1.894,0,0,1-.88,2.413,1.572,1.572,0,0,1-.684.149Z" transform="translate(-680.926 -74.502)" fill="#6d6e71"/>
    <path id="Path_691" data-name="Path 691" d="M1043.792,345.437a1.572,1.572,0,0,0-.637-1.659,3.788,3.788,0,0,0-2.358-.739H734.24a4.182,4.182,0,0,0-2.94,1.069,1.666,1.666,0,0,0-.228,2.225L734.4,351.1a5.164,5.164,0,0,0,4.221,1.792h300.128c1.682,0,3.144-.786,3.458-1.894Z" transform="translate(-674.775 -73.387)" fill="#414042"/>
    <path id="Path_694" data-name="Path 694" d="M739.992,237.365a20.7,20.7,0,0,1-2.869,7.35c-2.3,3.545-7.475,8.757-8.906,9.2-.582.173-2.633-.786-4.874-1.926-.731-.385-1.486-.786-2.224-1.2-2.578-1.431-4.85-2.814-4.85-2.814l-3.419-4.826a39.459,39.459,0,0,1,7.664-17.214c3.8-4.976,12.286-1.989,15.375.4S740.668,232.484,739.992,237.365Z" transform="translate(-670.946 -47.756)" fill="url(#radial-gradient-10)"/>
    <path id="Path_695" data-name="Path 695" d="M726.129,236.543c-.519-2.358-2.657-4.5-4.591-1.36a6.122,6.122,0,0,0-.731,2.61c-.346,3.262-4.142,4.716-6.98,4.913a5.323,5.323,0,0,1-1.368-.047s.723-5.369,2.311-11.838,5.2-13.072,10.407-10.423c0,0,4.795-2.24,7.711,1.478,0,0,4.952-1.776,7.515,2.209,0,0,6.949,1.313,8.253,5.628,1.651,5.5-6.037,6.823-8.6,5.267s-4.5-4.5-6.288-4.449-1.368,2.767-1.635,4.449-2.861-.047-3.93,2.209-1.651,3.514-2.358,3.144S726.129,236.543,726.129,236.543Z" transform="translate(-670.862 -47.005)" fill="#3a3a3a"/>
    <path id="Path_610" data-name="Path 610" d="M921.709,57.061c-2.358-2.932-3.93-3.977-2.775-4.952a1.132,1.132,0,0,1,1.572.126c2.586,2.932,3.93,4.127,2.767,5.015a1.281,1.281,0,0,1-1.564-.189Z" transform="translate(-714.956 -11.087)" fill="#91b3fa"/>
    <path id="Path_611" data-name="Path 611" d="M953.34,161.729a1.124,1.124,0,0,1-.653-1.155c.181-1.446.33-2.908.456-4.355a1.092,1.092,0,0,1,1.211-.99,1.14,1.14,0,0,1,1.03,1.21c-.126,1.47-.283,2.963-.464,4.441a1.1,1.1,0,0,1-1.258.943,1.161,1.161,0,0,1-.322-.094Z" transform="translate(-722.259 -33.203)" fill="#91b3fa"/>
    <path id="Path_616" data-name="Path 616" d="M934.425,94.485c-.432-1.446-.786-2.932-1.132-4.418a1.108,1.108,0,0,1,.857-1.328c1.517-.33,1.3,1.368,2.421,5.109a1.124,1.124,0,0,1-.786,1.391A1.108,1.108,0,0,1,934.425,94.485Z" transform="translate(-718.105 -18.971)" fill="#91b3fa"/>
    <path id="Path_617" data-name="Path 617" d="M931.69,56.177a59.456,59.456,0,0,1,1.1-9.157,1.118,1.118,0,0,1,2.193.44c-1.572,8.01-.346,9.959-2.224,9.881a1.116,1.116,0,0,1-1.069-1.163Zm6.391-21.844a1.124,1.124,0,0,1-.519-1.5,59.384,59.384,0,0,1,4.716-7.955,1.124,1.124,0,0,1,1.839,1.289,55.7,55.7,0,0,0-4.535,7.632,1.156,1.156,0,0,1-1.5.535Zm14.471-18.669a1.045,1.045,0,0,1-.385-.291,1.108,1.108,0,0,1,.126-1.572,59.179,59.179,0,0,1,7.452-5.432,1.117,1.117,0,0,1,1.171,1.9,57.638,57.638,0,0,0-7.169,5.227,1.116,1.116,0,0,1-1.195.165ZM973.232,4.29a1.148,1.148,0,0,1-.605-.692,1.116,1.116,0,0,1,.786-1.4,58.592,58.592,0,0,1,8.961-2,1.119,1.119,0,1,1,.314,2.217,56.241,56.241,0,0,0-8.646,1.918,1.1,1.1,0,0,1-.81-.047ZM996.1.989A1.116,1.116,0,0,1,997.332,0a59.611,59.611,0,0,1,9.055,1.745,1.129,1.129,0,1,1-.566,2.185A56.169,56.169,0,0,0,997.1,2.246,1.116,1.116,0,0,1,996.1.989Z" transform="translate(-717.767 0.009)" fill="#91b3fa"/>
    <path id="Path_618" data-name="Path 618" d="M1046.459,13.871c-3.38-2.358-4.866-2.57-4.111-3.875a1.108,1.108,0,0,1,1.533-.409c1.3.786,2.6,1.572,3.852,2.445a1.119,1.119,0,1,1-1.273,1.839Z" transform="translate(-741.402 -2.011)" fill="#91b3fa"/>
    <path id="Path_619" data-name="Path 619" d="M1078.169,63.845c-.527-4.087-1.336-5.345.141-5.652a1.116,1.116,0,0,1,1.321.873c.307,1.478.566,2.987.786,4.5a1.117,1.117,0,1,1-2.217.283Z" transform="translate(-748.958 -12.439)" fill="#91b3fa"/>
    <path id="Path_620" data-name="Path 620" d="M982.124,130.823c.582-1.769,1.91.047,9.888,1.383a1.12,1.12,0,0,1-.369,2.209,60.11,60.11,0,0,1-8.843-2.177A1.124,1.124,0,0,1,982.124,130.823Zm23.008,3.144a1.132,1.132,0,0,1,1.03-1.21c8.128-.668,9.527-2.358,9.959-.558a1.108,1.108,0,0,1-.825,1.352,58.356,58.356,0,0,1-8.953,1.438,1.124,1.124,0,0,1-1.21-.983Zm22.41-6.1c-.872-1.643,1.336-1.328,7.86-6.186a1.124,1.124,0,0,1,1.336,1.8,58.955,58.955,0,0,1-7.656,4.85,1.116,1.116,0,0,1-1.541-.424Zm18.2-14.4c-1.446-1.179.715-1.753,4.795-8.764a1.124,1.124,0,0,1,1.934,1.132,59.72,59.72,0,0,1-5.149,7.467A1.132,1.132,0,0,1,1045.746,113.467Zm10.321-21.8c2.217-7.86,1.108-9.755,2.964-9.535a1.124,1.124,0,0,1,.975,1.25,58.647,58.647,0,0,1-1.745,8.922,1.12,1.12,0,1,1-2.154-.613Z" transform="translate(-728.545 -17.563)" fill="#91b3fa"/>
    <path id="Path_621" data-name="Path 621" d="M964.952,136.5c-1.273-.825-2.531-1.706-3.734-2.618a1.124,1.124,0,0,1-.22-1.572c.943-1.242,1.879.189,5.164,2.3a1.124,1.124,0,1,1-1.21,1.887Z" transform="translate(-723.99 -28.204)" fill="#91b3fa"/>
    <path id="Path_622" data-name="Path 622" d="M985.54,90.907a1.682,1.682,0,1,1,1.619-2.94,24.438,24.438,0,0,0,23.345.605c19.243-9.857,16.971-38.265-3.631-44.907a24.422,24.422,0,0,0-29.618,12.985c-5.125,11.123.668,16.908-2.877,17.725a1.674,1.674,0,0,1-2.012-1.258,27.74,27.74,0,1,1,18.511,20.154h0a28.213,28.213,0,0,1-5.337-2.366Z" transform="translate(-726.317 -8.366)" fill="#bdd0fb"/>
    <path id="Path_623" data-name="Path 623" d="M976.946,154.672c-.039-.527-.574-.983-1.486-1.344.99-.542,1.533-1.124,1.486-1.7-.134-1.729-5.612-2.7-12.231-2.169s-11.869,2.358-11.728,4.1c0,.519.574.975,1.486,1.336-.99.55-1.572,1.132-1.486,1.706s.574.975,1.486,1.336c-.99.55-1.572,1.132-1.486,1.7s.574.983,1.486,1.344c-.99.542-1.572,1.132-1.486,1.7.055.786,1.163,1.383,2.956,1.784a15.281,15.281,0,0,0,0,1.871c.259,3.191,3.844,5.691,8.591,5.691s8.9-3.411,8.9-6.611a16.792,16.792,0,0,0-.094-2.083c2.272-.786,3.655-1.682,3.577-2.578-.039-.527-.574-.983-1.486-1.344.99-.55,1.533-1.132,1.486-1.7s-.574-.983-1.486-1.344C976.451,155.827,976.994,155.238,976.946,154.672Z" transform="translate(-722.323 -31.939)" fill="#0a2033"/>
    <path id="Path_624" data-name="Path 624" d="M962.536,169a28.056,28.056,0,0,1-5.251-.432.157.157,0,0,1-.126-.181.165.165,0,0,1,.189-.126,34.452,34.452,0,0,0,8.741.275,37.927,37.927,0,0,0,7.334-1.266.173.173,0,0,1,.2.11.157.157,0,0,1-.11.2,38.092,38.092,0,0,1-7.4,1.273C964.894,168.951,963.691,169,962.536,169Z" transform="translate(-723.216 -35.78)" fill="url(#linear-gradient-3)"/>
    <path id="Path_625" data-name="Path 625" d="M962.266,164.9a25.156,25.156,0,0,1-6.446-.7.16.16,0,0,1,.094-.307,30.715,30.715,0,0,0,9.873.542,31.237,31.237,0,0,0,9.613-2.091.149.149,0,0,1,.2.079.157.157,0,0,1-.071.212,31.442,31.442,0,0,1-9.715,2.114C964.585,164.853,963.413,164.9,962.266,164.9Z" transform="translate(-722.907 -34.724)" fill="url(#linear-gradient-4)"/>
    <path id="Path_626" data-name="Path 626" d="M962.122,161.039a23.266,23.266,0,0,1-6.791-.786.158.158,0,1,1,.1-.3,29,29,0,0,0,10.219.652,31.239,31.239,0,0,0,9.613-2.091.149.149,0,0,1,.2.079.157.157,0,0,1-.071.212,31.442,31.442,0,0,1-9.716,2.114C964.48,160.992,963.277,161.039,962.122,161.039Z" transform="translate(-722.802 -33.905)" fill="url(#linear-gradient-5)"/>
    <path id="Path_627" data-name="Path 627" d="M962.409,157.167a27.825,27.825,0,0,1-5.722-.519.157.157,0,0,1-.118-.189.165.165,0,0,1,.189-.126,33.015,33.015,0,0,0,9.181.369,31.08,31.08,0,0,0,9.558-2.067.16.16,0,1,1,.134.291,31.569,31.569,0,0,1-9.66,2.091C964.767,157.12,963.588,157.167,962.409,157.167Z" transform="translate(-723.09 -33.075)" fill="url(#linear-gradient-6)"/>
    <path id="Path_628" data-name="Path 628" d="M943.18,118.768a22.424,22.424,0,0,0-4-7.86,51.769,51.769,0,0,1-11.193-28.816c-1.148-20.044,16.625-30.082,32.849-28.714s32.228,13.441,30.483,32.086c-1.077,11.476-7.5,20.186-12.286,25.153a26.724,26.724,0,0,0-6.375,11.3c-1.431,5.188-4.85,11.641-12.962,12.034C949.209,134.481,944.854,124.686,943.18,118.768Z" transform="translate(-716.964 -11.387)" fill="#0396fb"/>
    <path id="Path_629" data-name="Path 629" d="M971.787,140.488l5.675-36.944c.118-.786.5-1.273.841-1.14s.527.857.409,1.619v.063l-6.469,36.583c-.047.275-.189.448-.307.385A.585.585,0,0,1,971.787,140.488Z" transform="translate(-726.344 -21.898)" fill="url(#linear-gradient-7)"/>
    <path id="Path_630" data-name="Path 630" d="M962.4,140.856l-5.675-36.944c-.118-.786-.5-1.273-.841-1.148s-.527.857-.409,1.619v.063l6.469,36.583c.047.275.189.448.307.385A.562.562,0,0,0,962.4,140.856Z" transform="translate(-722.848 -21.976)" fill="url(#linear-gradient-8)"/>
    <path id="Path_631" data-name="Path 631" d="M974.458,98.622a.6.6,0,0,0-.786-.189l-3.144,1.47-1.1-3.144a.652.652,0,0,0-.377-.385.786.786,0,0,0-.975.3h0l-2.594,4.716-2.413-6.752h0a.731.731,0,0,0-.362-.409.943.943,0,0,0-1.195.236l-3.655,5.062a.432.432,0,0,0,.126.629.605.605,0,0,0,.786-.079l3.2-3.569,2.885,6.414h0a.5.5,0,0,0,.252.244.6.6,0,0,0,.786-.189l2.783-4.465,1.045,2.256h0v.047a.6.6,0,0,0,.747.189l3.757-1.753a.448.448,0,0,0,.236-.629Z" transform="translate(-723.348 -20.128)" fill="#fff"/>
    <path id="Path_632" data-name="Path 632" d="M992.946,118.711a.723.723,0,0,1-.574-1.148,43.269,43.269,0,0,0,2.633-4,.717.717,0,0,1,1.242.715,42.148,42.148,0,0,1-2.72,4.142.731.731,0,0,1-.582.291Z" transform="translate(-730.722 -24.213)" fill="#fff"/>
    <path id="Path_633" data-name="Path 633" d="M998.883,102.5a.715.715,0,0,1-.66-1.006,33.619,33.619,0,0,0,.786-25.523.731.731,0,0,1,.362-.959.715.715,0,0,1,.951.354c.228.5,5.5,12.3-.786,26.726A.707.707,0,0,1,998.883,102.5Z" transform="translate(-731.99 -16.028)" fill="#fff"/>
    <path id="Path_640" data-name="Path 640" d="M934.927,161.83c.2.66-2.2,1.635-3.592-1.069,0-1.289-.786-6.815,0-7.86,4.158-5.557,12.176-12.49,12.176-12.49a1.894,1.894,0,0,1,.212,2.633l-3.93,3.977a19.2,19.2,0,0,1,2.217,4.48,5.439,5.439,0,0,1-.582,3.93c-.692,1.218-1.627,2.8-2.515,4.032A5.353,5.353,0,0,1,934.927,161.83Z" transform="translate(-717.617 -30.034)" fill="url(#radial-gradient-11)"/>
    <path id="Path_641" data-name="Path 641" d="M938.727,152.12l-3.545,2.948-1.132,2.956,3.1,3.514s1.108-5.88,1.9-7.145S939.513,152.5,938.727,152.12Z" transform="translate(-718.273 -32.54)" fill="#efa78b"/>
    <rect id="Rectangle_55" data-name="Rectangle 55" width="4.724" height="51.062" transform="translate(273.112 310.911)" fill="#6d6e71"/>
    <path id="Path_656" data-name="Path 656" d="M1025.036,460.9H983.69a3.073,3.073,0,0,1,3.073-3.073h35.2A3.074,3.074,0,0,1,1025.036,460.9Z" transform="translate(-728.893 -97.948)" fill="#6d6e71"/>
    <rect id="Rectangle_56" data-name="Rectangle 56" width="51.989" height="14.746" rx="6.46" transform="translate(250.293 299.467)" fill="#414042"/>
    <path id="Path_657" data-name="Path 657" d="M961.1,352.22a41.016,41.016,0,0,0-14.935,6.359,3.931,3.931,0,0,0-1.737,3.757c.943,7.483,4.826,31.7,17.631,55.353a5.926,5.926,0,0,1,.574,4.08l-2.225,10.352L956.286,436h10.627l7.074-19.148-3.026-.959a5.73,5.73,0,0,1-3.993-5.361l-.354-20.539A23.413,23.413,0,0,0,961,374.52l16.971-.786Z" transform="translate(-720.488 -75.352)" fill="#efa78b"/>
    <path id="Path_658" data-name="Path 658" d="M954.264,455.177c-.967,1.266,10.415,2.94,16.169.173,0,0,7.978-13.874,7.978-21.019,0,0-.637-1.454-5.322-1.124,0,0-2.673,16.428-5.5,18.268s-7.908.181-7.908.181S955.695,453.314,954.264,455.177Z" transform="translate(-722.585 -92.669)" fill="#231f20"/>
    <path id="Path_660" data-name="Path 660" d="M1017.807,340s10.478,15.579,11.343,22.685-2.869,10-13.866,10.478-40.332.464-40.332.464L949.9,352.239s18.252-6.508,23-8.356S1017.807,340,1017.807,340Z" transform="translate(-721.664 -72.738)" fill="#243c55"/>
    <path id="Path_662" data-name="Path 662" d="M976.514,214.165c21.42-3.639,31.5,13.827,30.766,17.5a.668.668,0,0,0,.841.786c2.453-.66,7.86-1.493,11.256,2.72,2.971,3.726.786,7.239-1.061,9.173a.676.676,0,0,0,.566,1.14c4.52-.566,14.338-.707,15.949,8.5,1.494,8.576-4.48,11-8.018,11.681a.668.668,0,0,0-.228,1.226c1.769,1.124,3.82,3.443,2.987,8.01-1.3,7.169-15.344,6.579-16.979,6.485a.66.66,0,0,1-.3-.086l-22.5-12.828a.684.684,0,0,1-.33-.472l-4.543-26.238a.668.668,0,0,1,.181-.582l-14.668-20.72C965.108,219.675,976.262,214.212,976.514,214.165Z" transform="translate(-725.75 -45.709)" fill="#231f20"/>
    <path id="Path_663" data-name="Path 663" d="M994.358,322.025s-12.2-11.618-18.2-19.313a16.318,16.318,0,0,1-2.759-14.691c2.735-9.236,7.609-18.8,8.057-20.3.676-2.28,14.361-2.185,14.361-2.185s26.914,17.466,37.487,47.061l-11.877,3.694s-7.027-11.791-13.968-19.282c0,0,12.011,15.87,12.435,22.371Z" transform="translate(-726.545 -56.806)" fill="#0396fb"/>
    <path id="Path_664" data-name="Path 664" d="M981.72,250.346c.142.472,3.718,12.309,3.993,12.577s7.86.652,11.382-1.776L988.283,243.9Z" transform="translate(-728.472 -52.177)" fill="url(#radial-gradient-12)"/>
    <path id="Path_665" data-name="Path 665" d="M963.428,231.547s-1.721,6.776,3.05,15.9,10.219,9.1,13.135,6.186,6.595-7.86,5.73-16.688S965.919,222.916,963.428,231.547Z" transform="translate(-724.493 -48.588)" fill="url(#radial-gradient-13)"/>
    <path id="Path_666" data-name="Path 666" d="M976.783,235.129s-7.923-12.105-15.352-2.578l-.134,3.466s-8.694-1.038-7.177-9.008,9.047-12.962,18.724-9.511,15.234,7,15.854,13.937-4.9,5.416-4.9,5.416-1.8-4.881-4.355-5.392-1.894,3.3-1.894,3.3Z" transform="translate(-722.529 -46.29)" fill="#231f20"/>
    <path id="Path_667" data-name="Path 667" d="M985.081,238.039s-4.111-6.2.1-7.122,3.553,6.037,3.1,8.647Z" transform="translate(-728.806 -49.381)" fill="url(#radial-gradient-14)"/>
    <path id="Path_668" data-name="Path 668" d="M968.63,335.689l8.969-8.646,12.4,5.243s12.341,1.91,19.407,0l7.074-1.918,15.957-4.968,2.507,7.074a4.268,4.268,0,0,1-1.572,4.9,27.947,27.947,0,0,1-4.032,2.507c-2.091.92-51.769-.652-51.769-.652Z" transform="translate(-725.671 -69.614)" fill="url(#radial-gradient-15)"/>
    <path id="Path_669" data-name="Path 669" d="M996.859,342.378h-.126l-51.989-.063a2.358,2.358,0,1,1,0-4.653l51.989.063a2.358,2.358,0,0,1,.118,4.646Z" transform="translate(-719.974 -72.231)" fill="#231f20"/>
    <path id="Path_671" data-name="Path 671" d="M922.95,310.131c.935,2.908.244,5.746-1.572,6.288s-4.009-1.321-4.952-4.237-.244-5.746,1.572-6.288S922.007,307.215,922.95,310.131Z" transform="translate(-714.412 -65.421)" fill="#231f20"/>
    <path id="Path_672" data-name="Path 672" d="M1088.06,444.085l-2.688,6.595a2.2,2.2,0,0,1-2.256,1.368,12.4,12.4,0,0,1-2.2-.424,2.893,2.893,0,0,1-1.918-3.592l2.028-6.791Z" transform="translate(-749.258 -94.398)" fill="url(#radial-gradient-16)"/>
    <path id="Path_673" data-name="Path 673" d="M1155.331,452.545s-1.093,4.818-1.926,8a1.022,1.022,0,0,1-1.336.692,9.284,9.284,0,0,0-4.033-.731.786.786,0,0,1-.865-.786l-.1-8Z" transform="translate(-763.849 -96.641)" fill="url(#radial-gradient-17)"/>
    <path id="Path_674" data-name="Path 674" d="M1112.2,311.475l-32.77,99.985s6.288,4.111,9.283,3.93l38.925-80.35s6.807,49.521,3.506,85.058l11.154.849s18.126-90.828,4.394-121.947Z" transform="translate(-749.377 -63.965)" fill="#0a2033"/>
    <path id="Path_675" data-name="Path 675" d="M1140.046,340.841h0a.314.314,0,0,0,.275-.354l-1.273-10.093a.317.317,0,0,0-.629.079l1.273,10.093a.315.315,0,0,0,.354.275Z" transform="translate(-761.998 -70.623)" fill="url(#linear-gradient-9)"/>
    <path id="Path_676" data-name="Path 676" d="M1104.618,203s26.553,2.358,22.8,21.27c0,0,14.675,27.622,21.537,60.164a1.918,1.918,0,0,1-1.572,2.272l-44.215,7.57a2.358,2.358,0,0,1-2.7-1.753l-10.541-40.867-4.119,18.983-13.08-3.411,11-55.809S1085.265,203.307,1104.618,203Z" transform="translate(-747.942 -43.426)" fill="#035afb"/>
    <path id="Path_677" data-name="Path 677" d="M1093.212,257.8h.071a.338.338,0,0,0,.251-.393l-3.71-16.931a.33.33,0,0,0-.645.134l3.687,16.931A.338.338,0,0,0,1093.212,257.8Z" transform="translate(-751.463 -51.393)" fill="#91b3fa"/>
    <path id="Path_678" data-name="Path 678" d="M1095.2,318.74a6.289,6.289,0,0,1,4.567-.6l3.081.786a1.108,1.108,0,0,0,1.376-.951l3.144-28.3c3.978,1.887,9.724,1.659,11.618,1.525l-7.326,33.407H1086.02Z" transform="translate(-750.787 -61.971)" fill="url(#radial-gradient-18)"/>
    <path id="Path_679" data-name="Path 679" d="M1011,243.206l.786-2.578a5.078,5.078,0,0,1,2.971-3.254l14.023-5.644s.212-1.792-2.964-3.018-2.429-4.771-2.429-4.771,4.331,1.973,10.682,5.109a14.936,14.936,0,0,1,6.744,7.35l31.764,38.721-3.734,2.563a9.951,9.951,0,0,1-14.432-3.545l-17.207-33.014A64.156,64.156,0,0,1,1011,243.206Z" transform="translate(-734.737 -47.906)" fill="url(#radial-gradient-19)"/>
    <path id="Path_680" data-name="Path 680" d="M1100.058,179.925l8.167,22.8s-7.232,5.652-12.506,3.742l-4.119-13.1S1094.744,177.378,1100.058,179.925Z" transform="translate(-751.981 -38.43)" fill="url(#radial-gradient-20)"/>
    <path id="Path_681" data-name="Path 681" d="M1071.35,168.287c0,.354,7.86,22.269,7.86,22.269l12.42-4.716-4.363-21.891S1071.35,162.376,1071.35,168.287Z" transform="translate(-747.649 -35.03)" fill="url(#radial-gradient-21)"/>
    <path id="Path_682" data-name="Path 682" d="M1083.4,167.185l3.2,11.335a1.387,1.387,0,0,1,.063.44c0,.928-.228,4.111-3.466,3.679-2.94-.393-5.628-.707-7.342.094a1.651,1.651,0,0,0-.849,2.044,71.244,71.244,0,0,0,4.472,10.1,1.643,1.643,0,0,0,2.115.676,53.166,53.166,0,0,0,10.643-6.288,1.651,1.651,0,0,0,.589-1.572c-.55-2.9-2.169-11.72-2.24-14.251-.071-2.358,2.594-4.182,3.765-4.866a1.572,1.572,0,0,0,.786-1.022c.37-1.525.684-4.984-3.726-5.746a1.643,1.643,0,0,1-1.336-1.965c.369-1.824.251-4.512-3.215-5.5a6.1,6.1,0,0,0-6.878,2.743,1.635,1.635,0,0,1-2.036.542,1.321,1.321,0,0,0-1.462.267,1.627,1.627,0,0,1-2.358-.362,4.9,4.9,0,0,0-6.052-2c-5.613,1.816-5.345,8.285-3.286,11.791s8.026,1.2,10.855-1.132c2.146-1.769,5.416-.707,6.862-.1A1.65,1.65,0,0,1,1083.4,167.185Z" transform="translate(-745.955 -32.96)" fill="#58595b"/>
    <path id="Path_683" data-name="Path 683" d="M1098.89,181.446s-3.317-6.288-1.124-8.253,5.919-1.651,5.817,3.262C1103.457,182.563,1098.89,181.446,1098.89,181.446Z" transform="translate(-753.14 -36.807)" fill="url(#radial-gradient-22)"/>
    <path id="Path_684" data-name="Path 684" d="M1121.743,279.659a31.023,31.023,0,0,0,3.246-.157h.236l9.668-45.08a.322.322,0,0,0-.251-.385.33.33,0,0,0-.393.252l-9.566,44.608c-1.438.126-9.126.637-13.182-2.24l8.379-39.161-1.753-3.294a.314.314,0,0,0-.44-.134.33.33,0,0,0-.141.44l1.643,3.081-8.418,39.349.173.126C1113.867,279.242,1118.591,279.659,1121.743,279.659Z" transform="translate(-756.083 -50.064)" fill="#91b3fa"/>
    <path id="Path_687" data-name="Path 687" d="M1060.539,441.53a1.573,1.573,0,0,1-.668-.149,1.9,1.9,0,0,1-.88-2.413l35.372-89.609a1.627,1.627,0,0,1,2.209-.967,1.91,1.91,0,0,1,.88,2.421l-35.325,89.609A1.69,1.69,0,0,1,1060.539,441.53Z" transform="translate(-744.973 -74.502)" fill="#6d6e71"/>
    <path id="Path_688" data-name="Path 688" d="M1101.578,441.53a1.69,1.69,0,0,1-1.572-1.108l-35.325-89.609a1.91,1.91,0,0,1,.88-2.421,1.627,1.627,0,0,1,2.209.967l35.372,89.609a1.894,1.894,0,0,1-.88,2.413A1.572,1.572,0,0,1,1101.578,441.53Z" transform="translate(-746.191 -74.502)" fill="#6d6e71"/>
    <path id="Path_689" data-name="Path 689" d="M1054.51,340.122h51.172V334.84H1054.51C1055.6,334.84,1055.6,340.122,1054.51,340.122Z" transform="translate(-744.046 -71.634)" fill="#231f20"/>
    <path id="Path_690" data-name="Path 690" d="M1104.779,339.8a.479.479,0,0,0,.487-.479v-4.323a.487.487,0,0,0-.487-.479H1053.01a.479.479,0,0,1-.479-.479v-.228a.487.487,0,0,1,.479-.487h55.18a2.209,2.209,0,0,1,2.209,2.217v3.372a2.083,2.083,0,0,1-2.083,2.083H1053.01a.479.479,0,0,1-.479-.479v-.236a.488.488,0,0,1,.479-.48Z" transform="translate(-743.622 -71.308)" fill="#231f20"/>
    <path id="Path_692" data-name="Path 692" d="M1149.806,468.7a14.207,14.207,0,0,1-4.716.165,5.373,5.373,0,0,0-1.737,0,2.052,2.052,0,0,0-1.91-1.313,3.144,3.144,0,0,0-2.185.983,3.146,3.146,0,0,1-.959.786,2.248,2.248,0,0,1-.92.11l-10.91-.236a2.5,2.5,0,0,1-2.02-.668,2.413,2.413,0,0,1-.322-1.509,4.535,4.535,0,0,1,.723-2.822c.786-.983,2.193-1,3.4-1.352s2.3-.9,3.584-1.3a10.407,10.407,0,0,0,6.422-5.848,2.626,2.626,0,0,1,.747-1.187,2.185,2.185,0,0,1,1.973,0,18.613,18.613,0,0,1,2.287,1.022c.511.275,1.077.7,1.014,1.273-.078.747-1.2,1.289-.873,1.957.2.385.731.409,1.156.362a20.441,20.441,0,0,0,6.288-1.714,16.328,16.328,0,0,1,.244,2.893l-.283,6.194a4.253,4.253,0,0,1-1,2.209Z" transform="translate(-758.937 -97.186)" fill="#1a1d3e"/>
    <path id="Path_693" data-name="Path 693" d="M1081.213,462.759a14.211,14.211,0,0,1-4.716.165,5.423,5.423,0,0,0-1.745,0,2.036,2.036,0,0,0-1.9-1.3,3.1,3.1,0,0,0-2.193.975,3.255,3.255,0,0,1-.951.786,2.28,2.28,0,0,1-.92.1l-10.91-.236a2.484,2.484,0,0,1-2.02-.668,2.358,2.358,0,0,1-.33-1.509,4.637,4.637,0,0,1,.723-2.822c.786-.983,2.2-1,3.4-1.352s2.3-.9,3.584-1.3a10.368,10.368,0,0,0,6.422-5.848,2.586,2.586,0,0,1,.739-1.187,2.177,2.177,0,0,1,1.981,0,17.493,17.493,0,0,1,2.287,1.022c.511.267,1.077.7,1.014,1.273-.086.739-1.211,1.281-.872,1.949.189.385.723.409,1.155.362a20.328,20.328,0,0,0,6.288-1.706,16.21,16.21,0,0,1,.252,2.885l-.291,6.194A4.214,4.214,0,0,1,1081.213,462.759Z" transform="translate(-744.259 -95.913)" fill="#1a1d3e"/>
  </g>
</svg>
