<svg id="Group_664" data-name="Group 664" xmlns="http://www.w3.org/2000/svg" xmlns:xlink="http://www.w3.org/1999/xlink" width="91.813" height="92.746" viewBox="0 0 91.813 92.746">
  <defs>
    <filter id="Rectangle_60" x="0" y="0" width="91.813" height="92.746" filterUnits="userSpaceOnUse">
      <feOffset dy="3" input="SourceAlpha"/>
      <feGaussianBlur stdDeviation="3" result="blur"/>
      <feFlood flood-opacity="0.161"/>
      <feComposite operator="in" in2="blur"/>
      <feComposite in="SourceGraphic"/>
    </filter>
  </defs>
  <g transform="matrix(1, 0, 0, 1, 0, 0)" filter="url(#Rectangle_60)">
    <path id="Rectangle_60-2" data-name="Rectangle 60" d="M17.248,6.109l57.41.76a8.293,8.293,0,0,1,7.515,5.037,8.062,8.062,0,0,1,.64,3.155v57.6a7.968,7.968,0,0,1-2.387,5.7,8.11,8.11,0,0,1-5.768,2.329L17.248,80.3a8.337,8.337,0,0,1-5.831-2.422,8.223,8.223,0,0,1-1.768-2.6A8.045,8.045,0,0,1,9,72.1V14.136a7.947,7.947,0,0,1,2.417-5.721,8.123,8.123,0,0,1,2.622-1.709A8.257,8.257,0,0,1,17.248,6.109Z" transform="translate(0 0)" fill="#ff7b6b"/>
  </g>
  <g id="technical-support" transform="translate(25.041 23.057)">
    <path id="Path_796" data-name="Path 796" d="M5.745.461,4.465.133Q4.376.11,4.286.092T4.1.062Q4.014.05,3.922.043T3.738.036a3.016,3.016,0,0,0-.948.143A2.979,2.979,0,0,0,1.94.611L0,2.031l2.054.019a2.769,2.769,0,0,1,1.2.282L5.2.808q.064-.05.13-.1t.135-.09q.068-.044.139-.084T5.749.459Z" transform="translate(21.955 25.888)" fill="#f2b9a1"/>
    <path id="Path_797" data-name="Path 797" d="M6.329.737,1.541,4.753A2.689,2.689,0,0,0,1.433,4a2.723,2.723,0,0,0-.309-.686,2.754,2.754,0,0,0-.486-.578A2.772,2.772,0,0,0,0,2.3L1.951.777A3.467,3.467,0,0,1,2.978.223,3.515,3.515,0,0,1,4.136.04,3.547,3.547,0,0,1,5.7.42Z" transform="translate(25.205 25.919)" fill="#ffd2b0"/>
    <path id="Path_798" data-name="Path 798" d="M3.349,10.849,0,4.2l1.648-.8,2.2-1.424a7.6,7.6,0,0,1,2.022-.924A7.717,7.717,0,0,1,9.833.973a7.749,7.749,0,0,1,1.66.611l1.129.568L18.1,2.2a2.77,2.77,0,0,1,2.522,1.678,2.689,2.689,0,0,1,.215,1.056L25.625.921,26.54.477a2.15,2.15,0,0,1,.709-.2,2.173,2.173,0,0,1,1.97.863,2.137,2.137,0,0,1,.311.6l.2.58-8.718,6.01a11.114,11.114,0,0,1-1.483.862,11.19,11.19,0,0,1-1.592.622,11.265,11.265,0,0,1-1.672.374,11.328,11.328,0,0,1-1.723.117q-.307,0-.613-.022t-.611-.055q-.3-.036-.608-.088t-.6-.121l-1.248-.285a10.244,10.244,0,0,0-5.387.221,10.123,10.123,0,0,0-1.677.7l-.442.2Z" transform="translate(5.908 25.735)" fill="#fbe1ca"/>
    <path id="Path_799" data-name="Path 799" d="M0,0,6.846.063V1.417L0,1.355Z" transform="translate(19.9 29.932)" fill="#ffd2b0"/>
    <path id="Path_800" data-name="Path 800" d="M5.5,12.937,10.3,10.943,4.81.045,0,2.035Z" transform="translate(0 27.713)" fill="#3b5892"/>
    <path id="Path_801" data-name="Path 801" d="M0,1.077,4.325,9.655,6.2,8.878a.679.679,0,0,0,.228-.155.669.669,0,0,0,.165-.639.679.679,0,0,0-.05-.13l-4-7.93Z" transform="translate(0 28.671)" fill="#4c6cb5"/>
    <path id="Path_802" data-name="Path 802" d="M23.288,13.807V9.747L21.716,9.73q-.1-.478-.242-.944t-.332-.916q-.188-.45-.419-.881t-.5-.84l1.115-1.092-2.9-2.9L17.316,3.244q-.41-.274-.844-.508t-.886-.425q-.453-.191-.923-.34t-.953-.251V.162L9.6.113V1.671q-.483.092-.954.229t-.924.318q-.453.181-.888.405t-.845.489L4.871,1.994,1.961,4.836l1.12,1.119q-.273.4-.505.83t-.421.873q-.189.446-.333.91t-.243.941L0,9.492v4.068l1.578.017q.1.479.243.946t.333.917q.189.45.42.882t.505.841L1.961,18.257l2.91,2.9,1.118-1.095q.411.274.845.508T7.723,21q.454.191.924.338t.954.25v1.558l4.11.04V21.628q.483-.093.953-.231t.923-.32q.453-.182.886-.406t.844-.49L18.433,21.3l2.9-2.842L20.218,17.34q.273-.4.5-.829t.419-.872q.188-.446.332-.909t.243-.939Z" transform="translate(8.929 0)" fill="#939393"/>
    <path id="Ellipse_10" data-name="Ellipse 10" d="M6.854.078a6.942,6.942,0,0,1,6.308,4.206A6.729,6.729,0,0,1,13.7,6.925a6.64,6.64,0,0,1-2,4.765,6.765,6.765,0,0,1-2.176,1.429,6.853,6.853,0,0,1-2.666.5A6.942,6.942,0,0,1,.539,9.42,6.729,6.729,0,0,1,0,6.777,6.64,6.64,0,0,1,2.008,2.007,6.765,6.765,0,0,1,4.187.58,6.853,6.853,0,0,1,6.854.078Z" transform="translate(13.731 4.801)" fill="#e2e7f6"/>
    <path id="Path_803" data-name="Path 803" d="M12.334,6.231a6.719,6.719,0,0,0-.213-1.679A6.8,6.8,0,0,0,11.506,3,6.9,6.9,0,0,0,9.223.527a6.9,6.9,0,0,0-4.885,0,6.768,6.768,0,0,0-2.08,1.25A6.666,6.666,0,0,0,.239,8.545a6.827,6.827,0,0,0,1.051,2.2,6.9,6.9,0,0,0,1.828,1.74,6.93,6.93,0,0,0,3.244.4,6.849,6.849,0,0,0,1.584-.376,6.768,6.768,0,0,0,1.463-.751,6.649,6.649,0,0,0,2.926-5.528Z" transform="translate(13.728 4.802)" fill="#f2f2f2"/>
    <g id="Group_723" data-name="Group 723" transform="translate(0 2.609)">
      <path id="Path_804" data-name="Path 804" d="M8.219,2.8,5.481,2.77V.061L2.741.031V2.74L0,2.71V5.42l2.741.029V8.159l2.74.029V5.479l2.739.029Z" transform="translate(16.474 4.933)" fill="#d23f34"/>
      <path id="Path_805" data-name="Path 805" d="M5.5.064l3.433,3.43L5.5,6.845V4.811L4.123,4.8a1.376,1.376,0,0,0-.535.1,1.357,1.357,0,0,0-.437.286,1.329,1.329,0,0,0-.4.955V9.528a1.346,1.346,0,0,0,.108.529,1.378,1.378,0,0,0,.294.434,1.393,1.393,0,0,0,.971.408l2.06.022v2.713l-2.06-.021A4.18,4.18,0,0,1,1.208,12.39a4.134,4.134,0,0,1-.884-1.3A4.038,4.038,0,0,1,0,9.5V6.106A3.986,3.986,0,0,1,1.208,3.241a4.07,4.07,0,0,1,1.311-.857,4.128,4.128,0,0,1,1.6-.3L5.5,2.1Z" fill="#d23f34"/>
      <path id="Path_806" data-name="Path 806" d="M3.417.039,0,3.383,3.417,6.8V4.774l1.366.015a1.385,1.385,0,0,1,1.259.84,1.346,1.346,0,0,1,.107.528V9.539a1.327,1.327,0,0,1-.4.952,1.349,1.349,0,0,1-.434.285,1.365,1.365,0,0,1-.532.1l-2.049-.022v2.706l2.049.021a4.1,4.1,0,0,0,1.595-.3,4.047,4.047,0,0,0,1.3-.856,3.982,3.982,0,0,0,1.2-2.856V6.187A4.037,4.037,0,0,0,8.558,4.6a4.125,4.125,0,0,0-.878-1.3,4.152,4.152,0,0,0-2.9-1.221L3.417,2.069Z" transform="translate(32.218 0.373)" fill="#d23f34"/>
    </g>
  </g>
</svg>
