<svg xmlns="http://www.w3.org/2000/svg" xmlns:xlink="http://www.w3.org/1999/xlink" width="482.958" height="320.356" viewBox="0 0 482.958 320.356">
  <defs>
    <radialGradient id="radial-gradient" cx="0.5" cy="0.497" r="0.887" gradientTransform="translate(0.283) scale(0.435 1)" gradientUnits="objectBoundingBox">
      <stop offset="0" stop-color="#ffc8af"/>
      <stop offset="1" stop-color="#ffbb9c"/>
    </radialGradient>
    <radialGradient id="radial-gradient-2" cx="0.5" cy="0.5" r="0.388" gradientTransform="translate(-0.613) scale(2.227 1)" xlink:href="#radial-gradient"/>
    <radialGradient id="radial-gradient-3" cx="0.499" cy="0.5" r="0.452" gradientTransform="translate(-0.125) scale(1.25 1)" xlink:href="#radial-gradient"/>
    <radialGradient id="radial-gradient-4" cx="0.501" cy="0.5" r="0.52" gradientTransform="translate(0.036) scale(0.928 1)" xlink:href="#radial-gradient"/>
    <radialGradient id="radial-gradient-5" cx="0.501" cy="0.501" r="0.493" gradientTransform="translate(-0.013) scale(1.026 1)" xlink:href="#radial-gradient"/>
    <radialGradient id="radial-gradient-6" cx="0.501" cy="0.499" r="0.463" gradientTransform="translate(-0.093) scale(1.186 1)" xlink:href="#radial-gradient"/>
    <radialGradient id="radial-gradient-7" cx="0.5" cy="0.501" r="0.473" gradientTransform="translate(-0.062) scale(1.123 1)" xlink:href="#radial-gradient"/>
    <radialGradient id="radial-gradient-8" cx="0.5" cy="0.5" r="0.401" gradientTransform="translate(-0.437) scale(1.875 1)" xlink:href="#radial-gradient"/>
    <radialGradient id="radial-gradient-9" cx="0.5" cy="0.5" r="0.665" gradientTransform="translate(0.186) scale(0.628 1)" xlink:href="#radial-gradient"/>
    <radialGradient id="radial-gradient-10" cx="0.5" cy="0.5" r="0.476" gradientTransform="translate(-0.054) scale(1.108 1)" xlink:href="#radial-gradient"/>
    <radialGradient id="radial-gradient-11" cx="0.5" cy="0.501" r="0.455" gradientTransform="translate(-0.117) scale(1.235 1)" xlink:href="#radial-gradient"/>
  </defs>
  <g id="job_pop_back" opacity="0.2">
    <g id="Designed_By_Freepik" data-name="Designed By Freepik" transform="translate(0 0)">
      <path id="Path_1767" data-name="Path 1767" d="M251.446,36.6a.473.473,0,0,0,.161-.491c-.161-.614-.34-1.229-.52-1.834a.473.473,0,0,0-.6-.3c-.6.2-.236.747.2,2.4a.463.463,0,0,0,.586.321.415.415,0,0,0,.18-.095Z" transform="translate(-13.724 -1.862)" fill="#91b3fa"/>
      <path id="Path_1768" data-name="Path 1768" d="M244.088,26.851c-.51-1.106-1.068-2.2-1.654-3.261a.482.482,0,0,0-.652-.17c-.633.359-.057.586,1.437,3.837a.463.463,0,0,0,.633.227.491.491,0,0,0,.236-.633Zm-4.877-8.242c-.728-.945-1.512-1.947-2.3-2.835-.416-.482-1.125.17-.728.633.784.888,1.531,1.824,2.249,2.788a.463.463,0,0,0,.662.085.473.473,0,0,0,.113-.671Zm-6.474-7.06c-.945-.8-1.89-1.578-2.835-2.306a.482.482,0,1,0-.586.766c.945.709,1.89,1.474,2.779,2.259a.482.482,0,1,0,.643-.718ZM225.09,6.616a.473.473,0,0,0-.17-.652c-1.059-.6-2.155-1.163-3.261-1.673a.482.482,0,1,0-.416.87c1.078.51,2.155,1.077,3.195,1.663a.482.482,0,0,0,.652-.208Zm-8.7-3.875a.473.473,0,0,0-.3-.6c-1.163-.359-2.363-.69-3.554-.945a.486.486,0,1,0-.227.945c1.163.274,2.334.6,3.478.945a.5.5,0,0,0,.6-.312Zm-9.518-1.682a.463.463,0,0,0,.17-.312.463.463,0,0,0-.416-.52A36.4,36.4,0,0,0,202.946,0a.482.482,0,0,0-.5.463.473.473,0,0,0,.454.491c1.2,0,2.42.1,3.62.217a.444.444,0,0,0,.359-.113Zm-9.6,0a.463.463,0,0,0,.17-.406.454.454,0,0,0-.51-.406c-1.229.123-2.457.3-3.677.52a.5.5,0,0,0-.4.558.473.473,0,0,0,.548.378c1.191-.217,2.4-.388,3.6-.51a.52.52,0,0,0,.265-.113Zm-9.291,1.456A.473.473,0,0,0,187.4,2.2c-1.181.378-2.363.8-3.507,1.266a.473.473,0,1,0,.34.879c1.125-.454,2.278-.87,3.431-1.238a.473.473,0,0,0,.321-.577Zm-25.765,19.8c2-3.024,2.627-3.2,2.06-3.639a.482.482,0,0,0-.671.095c-.766.945-1.493,1.994-2.183,3.024a.474.474,0,1,0,.794.52ZM179.071,6.247a.482.482,0,0,0-.652-.18c-1.077.6-2.155,1.257-3.185,1.938a.473.473,0,1,0,.51.794c1.021-.671,2.07-1.314,3.128-1.89a.473.473,0,0,0,.2-.624Zm-10.765,8.61c2.561-2.552,3.213-2.609,2.75-3.157a.5.5,0,0,0-.671-.047c-.945.813-1.89,1.663-2.75,2.542a.473.473,0,0,0,0,.671.492.492,0,0,0,.671.028Z" transform="translate(-8.851 0)" fill="#91b3fa"/>
      <path id="Path_1769" data-name="Path 1769" d="M158.218,30.751c.652-1.474,1.172-2.079.586-2.353a.482.482,0,0,0-.633.227c-.747,1.5-1.153,2.136-.586,2.382a.567.567,0,0,0,.633-.255Z" transform="translate(-8.63 -1.555)" fill="#91b3fa"/>
      <path id="Path_1770" data-name="Path 1770" d="M157.226,69.649a.473.473,0,0,0,.142-.548c-.227-.577-.454-1.172-.662-1.749a.473.473,0,0,0-.614-.274.491.491,0,0,0-.293.614c.217.6.444,1.191.69,1.777a.463.463,0,0,0,.614.255A.387.387,0,0,0,157.226,69.649Z" transform="translate(-8.546 -3.678)" fill="#91b3fa"/>
      <path id="Path_1771" data-name="Path 1771" d="M231.715,86.392c1-.888,1.985-1.824,2.911-2.779a.482.482,0,0,0,0-.68c-.529-.5-.586.161-3.525,2.75a.482.482,0,0,0-.047.671A.491.491,0,0,0,231.715,86.392Zm-5.038,3.317c-.406-.614-.624,0-4.026,1.89a.482.482,0,0,0-.189.652.473.473,0,0,0,.643.18c1.163-.652,2.316-1.352,3.431-2.1A.482.482,0,0,0,226.678,89.709Zm12.154-11.1c.794-1.077,1.541-2.193,2.24-3.336a.473.473,0,0,0-.151-.652c-.633-.369-.539.284-2.835,3.44a.463.463,0,0,0,.1.662.473.473,0,0,0,.643-.113ZM217.34,95.172a.482.482,0,0,0,.151-.539.463.463,0,0,0-.614-.265,35.907,35.907,0,0,1-3.714,1.276.491.491,0,0,0-.34.6.473.473,0,0,0,.6.321c1.266-.388,2.542-.822,3.781-1.314Zm-10.028,2.713a.5.5,0,0,0,.18-.435.463.463,0,0,0-.539-.4c-1.285.2-2.6.35-3.894.435a.5.5,0,0,0-.454.51.473.473,0,0,0,.5.444c1.323-.095,2.656-.246,3.97-.454a.416.416,0,0,0,.236-.1Zm-10.33.473a.492.492,0,0,0,.17-.34.463.463,0,0,0-.435-.5c-1.285-.085-2.59-.227-3.866-.416a.492.492,0,0,0-.558.406.463.463,0,0,0,.388.539c1.3.189,2.637.331,3.96.416a.492.492,0,0,0,.34-.1ZM186.84,96.571a.529.529,0,0,0,.151-.227.463.463,0,0,0-.312-.6c-1.238-.359-2.467-.775-3.667-1.238a.482.482,0,0,0-.624.265.473.473,0,0,0,.255.624,32.259,32.259,0,0,0,3.781,1.266.5.5,0,0,0,.416-.095Zm-9.347-4.083c.369-.652-.284-.529-3.459-2.675a.485.485,0,1,0-.558.794c1.087.728,2.221,1.427,3.365,2.06a.482.482,0,0,0,.652-.18Zm-8.374-5.869c.51-.548-.161-.567-2.769-3.374-.425-.454-1.134.2-.709.652.9.945,1.834,1.89,2.835,2.76a.473.473,0,0,0,.643-.038Zm-6.8-7.561a.482.482,0,0,0,.095-.643c-.737-1.049-1.437-2.145-2.079-3.242a.482.482,0,0,0-.652-.17.491.491,0,0,0-.18.662c.652,1.125,1.37,2.24,2.117,3.308a.482.482,0,0,0,.671.113Z" transform="translate(-8.747 -4.088)" fill="#91b3fa"/>
      <path id="Path_1772" data-name="Path 1772" d="M248.947,69.049c.671-1.541,1.059-2.193.473-2.4s-.662.463-1.352,2.032a.473.473,0,0,0,.246.624A.492.492,0,0,0,248.947,69.049Z" transform="translate(-13.606 -3.654)" fill="#91b3fa"/>
      <path id="Path_1773" data-name="Path 1773" d="M135.145,42.35a4.82,4.82,0,1,0-3.015,6.106h0A4.82,4.82,0,0,0,135.145,42.35ZM131.9,47.784Zm1.89-4.971a3.393,3.393,0,0,1-2.136,4.291h0a3.384,3.384,0,1,1,2.136-4.319Z" transform="translate(-6.899 -2.143)" fill="#bdd0fb"/>
      <path id="Path_1774" data-name="Path 1774" d="M157.495,44.771V42.824a.492.492,0,0,0-.5-.454c-.671,0-.388.709-.435,2.382a.473.473,0,0,0,.463.491.491.491,0,0,0,.473-.473Z" transform="translate(-8.587 -2.324)" fill="#91b3fa"/>
      <path id="Path_1775" data-name="Path 1775" d="M154.178,35.164a25.678,25.678,0,0,0-1.465-3.658.482.482,0,0,0-.86.425c1.55,3.128,1.248,4.074,2.013,3.781A.473.473,0,0,0,154.178,35.164Zm-5.038-8.308a.491.491,0,0,0,.047-.68,24.278,24.278,0,0,0-2.835-2.76.476.476,0,1,0-.614.728,24.744,24.744,0,0,1,2.7,2.656.491.491,0,0,0,.7.057ZM141.1,20.75a.519.519,0,0,0,.123-.161.482.482,0,0,0-.227-.643,25.463,25.463,0,0,0-3.677-1.418.482.482,0,0,0-.6.321.473.473,0,0,0,.321.6,25.189,25.189,0,0,1,3.525,1.361.5.5,0,0,0,.51-.057Zm-9.82-2.41a.444.444,0,0,0,.17-.35.473.473,0,0,0-.454-.491,24.962,24.962,0,0,0-3.941.17.473.473,0,0,0-.416.529.482.482,0,0,0,.529.425,23.137,23.137,0,0,1,3.781-.17.473.473,0,0,0,.331-.113Zm-9.8,1.172a.482.482,0,0,0-.624-.265,25.517,25.517,0,0,0-3.544,1.72.482.482,0,0,0,.482.832,24.205,24.205,0,0,1,3.412-1.663A.482.482,0,0,0,121.476,19.512Z" transform="translate(-6.424 -0.959)" fill="#91b3fa"/>
      <path id="Path_1776" data-name="Path 1776" d="M111.271,27.383c1.144-1.333,1.73-1.6,1.276-2.051a.473.473,0,0,0-.68,0,15.671,15.671,0,0,0-1.323,1.437.482.482,0,0,0,.057.671.473.473,0,0,0,.671-.057Z" transform="translate(-6.058 -1.381)" fill="#91b3fa"/>
      <path id="Path_1777" data-name="Path 1777" d="M105.344,47.485c-.236-1.749,0-2.353-.68-2.316a.473.473,0,0,0-.454.5,13.478,13.478,0,0,0,.189,1.89.482.482,0,0,0,.539.416A.473.473,0,0,0,105.344,47.485Z" transform="translate(-5.717 -2.477)" fill="#91b3fa"/>
      <path id="Path_1778" data-name="Path 1778" d="M143.526,65.1c-.435-.671-.784.227-3.932,1.663a.482.482,0,0,0,.4.87,23.632,23.632,0,0,0,3.393-1.89A.482.482,0,0,0,143.526,65.1Zm-9.168,3.866a.473.473,0,0,0-.558-.388c-3.431.624-4.2.076-4.178.87a.491.491,0,0,0,.491.473,26.275,26.275,0,0,0,3.856-.4A.482.482,0,0,0,134.358,68.963Zm-9.924,0c.18-.775-.7-.406-3.922-1.682a.482.482,0,0,0-.331.87,26.562,26.562,0,0,0,3.7,1.153.482.482,0,0,0,.577-.378Zm-9.111-3.941c.463-.643-.491-.643-2.949-3.081a.482.482,0,0,0-.68.68,25.968,25.968,0,0,0,2.958,2.514.482.482,0,0,0,.69-.151Zm-6.682-7.845c-1.777-3-1.531-3.913-2.278-3.61a.482.482,0,0,0-.265.624,25.2,25.2,0,0,0,1.72,3.469.491.491,0,0,0,.662.17.463.463,0,0,0,.18-.69Z" transform="translate(-5.819 -2.935)" fill="#91b3fa"/>
      <path id="Path_1779" data-name="Path 1779" d="M150.578,61.988a17.679,17.679,0,0,0,1.248-1.493.482.482,0,0,0-.085-.671c-.52-.406-.756.284-1.89,1.522a.482.482,0,1,0,.709.643Z" transform="translate(-8.211 -3.275)" fill="#91b3fa"/>
      <path id="Path_1780" data-name="Path 1780" d="M138.465,51.825a.722.722,0,1,0-1-1.04,10.7,10.7,0,0,1-1.72,1.4,10.4,10.4,0,1,1,2.344-15.425c3.346,4.026,1.6,7.051,3.147,7a.737.737,0,0,0,.7-.747,11.862,11.862,0,1,0-5.416,10.4h0A11.938,11.938,0,0,0,138.465,51.825Z" transform="translate(-6.485 -1.733)" fill="#bdd0fb"/>
      <path id="Path_1781" data-name="Path 1781" d="M177.566,75.715l-3.781-4.877-.095-.123a1.474,1.474,0,0,1,.132-1.966l3.7-3.62a1.541,1.541,0,0,0,.161-.189,1.446,1.446,0,0,0,.066-1.6,25.812,25.812,0,0,1-3.4-9.64,1.388,1.388,0,0,0-.123-.4,1.484,1.484,0,0,0-1.191-.86l-4.31-.425a1.512,1.512,0,0,1-1.238-.945,1.53,1.53,0,0,1-.095-.51l-.057-6.342a1.5,1.5,0,0,1,1.37-1.512l5.728-.548a1.465,1.465,0,0,0,1.238-.945c.284-.766.6-1.522.945-2.268a24.931,24.931,0,0,1,2.335-3.932h0a1.512,1.512,0,0,0,0-1.7l-3.2-4.886-.151-.246a1.446,1.446,0,0,1,.312-1.947l4.99-3.922a1.531,1.531,0,0,1,2.023.132l4.036,4.121a1.455,1.455,0,0,0,1.7.3,25.84,25.84,0,0,1,7.656-2.325,1.465,1.465,0,0,0,1.257-1.323l.51-5.1a1.5,1.5,0,0,1,1.493-1.352l6.361-.066A1.446,1.446,0,0,1,207.4,18l.643,6.729A1.5,1.5,0,0,0,208.983,26c.662.255,1.314.539,1.966.851a26.369,26.369,0,0,1,3.459,1.994,1.437,1.437,0,0,0,1.626,0l5.869-3.856a1.474,1.474,0,0,1,1.975.321l3.941,5a1.522,1.522,0,0,1,0,1.815,1.477,1.477,0,0,1-.142.151l-4.527,4.556a1.465,1.465,0,0,0-.35,1.588.416.416,0,0,0,.057.151,2.833,2.833,0,0,1,.2.416,25.786,25.786,0,0,1,1.89,5.2,1.427,1.427,0,0,0,1.276,1.106l5.387.539a1.5,1.5,0,0,1,1.352,1.493v1.408l.047,4.915a1.5,1.5,0,0,1-1.352,1.5l-5.671.529a1.446,1.446,0,0,0-1.248,1,25.962,25.962,0,0,1-3.488,7.712l.671,1.021,2.75,4.234a1.446,1.446,0,0,1-.057,1.673,1.172,1.172,0,0,1-.265.265l-5.009,4a1.484,1.484,0,0,1-1.966-.132l-2.76-2.835a1.484,1.484,0,0,0-1.786-.246,25.736,25.736,0,0,1-7.646,2.958,1.446,1.446,0,0,0-1.153,1.285l-.643,6.446a1.427,1.427,0,0,1-1.4,1.248l-6.427.057a1.446,1.446,0,0,1-1.465-1.314l-.671-7a1.446,1.446,0,0,0-1.049-1.276,25.881,25.881,0,0,1-3.7-1.446c-.652-.312-1.285-.652-1.89-1.011a1.474,1.474,0,0,0-1.55,0l-5.671,3.7A1.5,1.5,0,0,1,177.566,75.715Zm9.111-30.159a13.232,13.232,0,0,0,1.692,12.655c8.714,10.954,25.112,5.368,25.462-8.431a12.845,12.845,0,0,0-4.65-10.019,13.95,13.95,0,0,0-22.5,5.794Z" transform="translate(-9.18 -0.916)" fill="#dfedfb"/>
      <path id="Path_1782" data-name="Path 1782" d="M253.973,155.729l-7.892-7.816-.18-.189a2.637,2.637,0,0,1-.208-3.516l5.765-7.259a2.835,2.835,0,0,0,.255-.369,2.618,2.618,0,0,0-.236-2.835,46.151,46.151,0,0,1-8.185-16.351,3.242,3.242,0,0,0-.3-.69,2.665,2.665,0,0,0-2.316-1.257l-7.741.208a2.7,2.7,0,0,1-2.41-1.418,2.967,2.967,0,0,1-.284-.888l-1.512-11.238a2.7,2.7,0,0,1,2.1-3l10.047-2.231a2.628,2.628,0,0,0,1.985-1.985c.34-1.427.728-2.835,1.2-4.244a45.96,45.96,0,0,1,3.27-7.495h0a2.675,2.675,0,0,0-.312-3.024l-6.767-7.968-.331-.406a2.609,2.609,0,0,1,.123-3.525l8-8.138a2.732,2.732,0,0,1,3.62-.217l8.081,6.427a2.627,2.627,0,0,0,3.091.151,46.312,46.312,0,0,1,13.1-5.775,2.656,2.656,0,0,0,1.947-2.627l-.227-9.177a2.7,2.7,0,0,1,2.344-2.741l11.285-1.531a2.58,2.58,0,0,1,2.835,2l2.637,11.8a2.741,2.741,0,0,0,1.994,2.042c1.229.3,2.457.652,3.677,1.059a47.643,47.643,0,0,1,6.616,2.779,2.58,2.58,0,0,0,2.892-.321l9.565-8.147a2.656,2.656,0,0,1,3.582.132l8.1,8.015a2.675,2.675,0,0,1,.425,3.2,2.3,2.3,0,0,1-.217.312l-7.126,8.969a2.628,2.628,0,0,0-.274,2.9,1.563,1.563,0,0,0,.142.236c.161.236.3.454.444.709a46.167,46.167,0,0,1,4.442,8.818,2.571,2.571,0,0,0,2.514,1.673l9.688-.236a2.694,2.694,0,0,1,2.732,2.344l.34,2.5,1.172,8.724a2.665,2.665,0,0,1-2.06,2.949l-9.9,2.2a2.58,2.58,0,0,0-1.994,2.174,46.492,46.492,0,0,1-4.48,14.461l1.418,1.673,5.822,6.862a2.561,2.561,0,0,1,.284,2.968,2.617,2.617,0,0,1-.416.548L328.11,146.1a2.684,2.684,0,0,1-3.535.208l-5.51-4.395a2.656,2.656,0,0,0-3.232,0,46.312,46.312,0,0,1-12.92,6.956,2.552,2.552,0,0,0-1.758,2.524l.293,11.587a2.571,2.571,0,0,1-2.212,2.59L287.828,167.1a2.6,2.6,0,0,1-2.892-2.013L282.2,152.8a2.656,2.656,0,0,0-2.164-2.042,43.479,43.479,0,0,1-6.881-1.739c-1.238-.406-2.438-.87-3.62-1.37a2.646,2.646,0,0,0-2.75.406l-9.177,7.807A2.7,2.7,0,0,1,253.973,155.729Zm9.451-55.584a28.506,28.506,0,0,0-.35,9.716,16.821,16.821,0,0,0,.5,2.382,25.386,25.386,0,0,0,5.671,10.009c17.9,17.513,45.773,3.941,43.335-20.632a8.961,8.961,0,0,0-.142-1.21,24.375,24.375,0,0,0-5.907-11.862,30.946,30.946,0,0,0-4.442-3.677,24.942,24.942,0,0,0-38.637,15.273Z" transform="translate(-12.546 -2.446)" fill="#d6e8fc"/>
      <path id="Path_1783" data-name="Path 1783" d="M318.513,215.131s17.646-40.764,4.282-83.711a.331.331,0,0,0-.614.066C318.967,157.477,318.021,185.567,318.513,215.131Z" transform="translate(-17.466 -7.199)" fill="#031efb" opacity="0.5"/>
      <path id="Path_1784" data-name="Path 1784" d="M318.563,215.1a.284.284,0,0,1-.123,0,.463.463,0,0,1-.331-.577c5.964-21.171,4.981-70.961,4.971-71.462a.473.473,0,1,1,.945,0c0,.5.992,50.433-5,71.736A.463.463,0,0,1,318.563,215.1Z" transform="translate(-17.45 -7.822)" fill="#031efb"/>
      <path id="Path_1785" data-name="Path 1785" d="M313.643,207.088s10.9-50.036-9.678-100.629a.321.321,0,0,0-.614.123C304.446,137.932,308.189,171.712,313.643,207.088Z" transform="translate(-16.641 -5.829)" fill="#035afb" opacity="0.5"/>
      <path id="Path_1786" data-name="Path 1786" d="M313.691,207h0a.482.482,0,0,1-.425-.51c2.448-25.793-6.871-85.441-6.966-86.008a.454.454,0,0,1,.388-.529.463.463,0,0,1,.529.388c.095.6,9.451,60.366,6.985,86.272a.472.472,0,0,1-.51.387Z" transform="translate(-16.803 -6.58)" fill="#035afb"/>
      <path id="Path_1787" data-name="Path 1787" d="M311.173,222.471s5.227-43.637-20.717-82.9c-.17-.255-.643-.095-.586.2C294.435,165.885,301.864,193.644,311.173,222.471Z" transform="translate(-15.902 -7.649)" fill="#031efb" opacity="0.5"/>
      <path id="Path_1788" data-name="Path 1788" d="M311.16,222.454A.463.463,0,0,1,310.7,222c-.444-21.993-16.247-70.564-16.408-71.056a.473.473,0,0,1,.3-.586.463.463,0,0,1,.586.3c.161.492,16.011,49.147,16.455,71.311a.473.473,0,0,1-.463.482Z" transform="translate(-16.143 -8.247)" fill="#031efb"/>
      <path id="Path_1789" data-name="Path 1789" d="M300.887,201.85h23.988a2.448,2.448,0,0,1,2.429,2.977c-1.541,6.616-3.374,13.393-7.136,20.236a3.97,3.97,0,0,1-3.469,2.06h-7.826a3.856,3.856,0,0,1-3.393-2.032,69,69,0,0,1-7.344-19.848,2.835,2.835,0,0,1,2.75-3.393Z" transform="translate(-16.352 -11.073)" fill="#03d0fb"/>
      <rect id="Rectangle_246" data-name="Rectangle 246" width="482.958" height="6.701" transform="translate(482.958 320.356) rotate(180)" fill="#031efb" opacity="0.35"/>
      <path id="Path_1790" data-name="Path 1790" d="M90.09,129.559c-.879-1.7,19.177-7.807,19.5,8.922,0,0,37.569-.945,19.631-21.861-6.21-7.249-5.576-13.232-5.387-18.827S119.966,76,106.054,77.633a10.4,10.4,0,0,0-8.185.87C87.529,83.871,64.373,135.721,90.09,129.559Z" transform="translate(-4.3 -4.233)" fill="#163560"/>
      <path id="Path_1791" data-name="Path 1791" d="M155.76,152.134s2.448-3.724,4.414-3.781,5.624-1.1,5.331-.369-2.552.8-2.769,1.248,3.355,1.1,4.376,1.163,3.431,0,3.355.51-4.338,2.628-7.353,2.344a20.416,20.416,0,0,0-6.729.87Z" transform="translate(-8.545 -8.104)" fill="url(#radial-gradient)"/>
      <path id="Path_1792" data-name="Path 1792" d="M118.34,151.935a36.259,36.259,0,0,0,3.781,5.671c2.911,3.639,7.391,7.845,13.015,8.667a13.988,13.988,0,0,0,7.731-1.248h0c6.833-3.024,11.975-10.009,11.975-10.009a5.671,5.671,0,0,0-.766-5.51s-13.8,3.109-15.122,2.448-8.979-22.74-10.8-25.519-8.053-4.215-8.053-4.215Z" transform="translate(-6.492 -6.704)" fill="#b0d0ff"/>
      <path id="Path_1793" data-name="Path 1793" d="M122.265,159.225c2.911,3.639,7.391,7.845,13.015,8.667a13.988,13.988,0,0,0,7.731-1.248c-.265,0-7.089.879-9.811-3.988s-5.775-12.854-9.9-10.226C121.528,153.564,121.6,156.39,122.265,159.225Z" transform="translate(-6.684 -8.333)" fill="#98baf4"/>
      <path id="Path_1794" data-name="Path 1794" d="M63.667,311.134s-4.206,3.847-3.384,6.616,4.622,4.546,5.132,7.882,2.571,5.123,4.414,5.123h8.809s1.361-2.353-1.89-3.062-4.527-4.622-4.319-8.27a65.064,65.064,0,0,0-.312-8.506L65.132,309.3Z" transform="translate(-3.301 -16.967)" fill="#0a2033"/>
      <path id="Path_1795" data-name="Path 1795" d="M101.546,313s-1.522,16.275.331,17.183h23.629s0-2.731-3.781-3.336-10.482-2.835-11.606-7.788S101.546,313,101.546,313Z" transform="translate(-5.538 -17.17)" fill="#0a2033"/>
      <path id="Path_1796" data-name="Path 1796" d="M83.734,184.849c4.867-10.916,7.845-14.054,7.278-17.438-.425-2.524,1.285-47.021,1.285-47.021.577-.18,1.739-.34,2.372-.482a5.945,5.945,0,0,0,4.338-3.781,30.556,30.556,0,0,0,1.474-10.037l.624.123,10.482,2.07s-.236,3.308-.246,6.408v.085a6.039,6.039,0,0,0,4.348,5.832l2.476.709A95.735,95.735,0,0,1,122.73,143.6c.737,11.294-6.994,16.2.066,38.751C130.017,205.405,81.05,190.879,83.734,184.849Z" transform="translate(-4.588 -5.82)" fill="url(#radial-gradient-2)"/>
      <path id="Path_1797" data-name="Path 1797" d="M112.6,108.3s-.236,3.308-.246,6.408c-5.869-.161-8.969-5.51-10.236-8.506Z" transform="translate(-5.602 -5.826)" fill="#efa78b"/>
      <path id="Path_1798" data-name="Path 1798" d="M114.465,110.18s-13.884.227-13.894-8.421-1.805-14.442,7.06-14.952,10.586,2.835,11.342,5.671S118.075,109.9,114.465,110.18Z" transform="translate(-5.509 -4.759)" fill="url(#radial-gradient-3)"/>
      <path id="Path_1799" data-name="Path 1799" d="M113.7,86.488s-3.781,10.141-9.631,11.644-8.365-.066-8.365-.066a16.512,16.512,0,0,0,5.4-9.754S110.822,81.658,113.7,86.488Z" transform="translate(-5.25 -4.648)" fill="#163560"/>
      <path id="Path_1800" data-name="Path 1800" d="M113.74,87.364a8.5,8.5,0,0,1,3.979,3.11,14.035,14.035,0,0,1,1.89,7.939s2.835-6.9-.359-10.794C115.876,83.48,113.74,87.364,113.74,87.364Z" transform="translate(-6.24 -4.702)" fill="#163560"/>
      <path id="Path_1801" data-name="Path 1801" d="M82.311,140.855a95.005,95.005,0,0,0,0,10.935c.236,3.96,4.234,9.253,4.8,10.557,1.427,3.289,3.034,3.781,3.034,3.781l12.419,3.053,4.367,1.068,13.771-4.121s6.266-17.5,3.781-27.362a75.933,75.933,0,0,0-6.37-16.691s-11.238,11-25.869-.945Z" transform="translate(-4.507 -6.645)" fill="#b0d0ff"/>
      <path id="Path_1802" data-name="Path 1802" d="M86.17,155.086c.236,3.951.6,7.637,1.163,8.941,1.427,3.289,3.034,3.781,3.034,3.781l12.419,3.053,5.387-1.588s-17.958-2.731-16.011-18.222Z" transform="translate(-4.727 -8.286)" fill="#f2ccaa"/>
      <path id="Path_1803" data-name="Path 1803" d="M120.672,171.638s6.824,21.228,7.259,28.449-13.024,102.671-13.572,106c-.51,3.147-4.4,5.142-4.4,5.142a5.907,5.907,0,0,1-4.348.34c-3.554-1-4.726-2.2-4.726-2.2s-5.3-68.05-2.023-92.388a384.516,384.516,0,0,0,3.327-45.367Z" transform="translate(-5.364 -9.414)" fill="#0a2033"/>
      <path id="Path_1804" data-name="Path 1804" d="M90.011,171s-10.4,13.95-11.342,23.392-1.522,42.579-3.592,51.775-9.688,26.908-9.688,55.565a5.727,5.727,0,0,0,3.232,2.533,24.476,24.476,0,0,0,2.835.784,4.452,4.452,0,0,0,4.981-2.363c5.132-10.34,21.483-43.665,22.324-50.584.6-4.9,5.756-37.3,17.013-56.311,2.7-4.565-1.654-22.683-1.654-22.683Z" transform="translate(-3.587 -9.38)" fill="#243c55"/>
      <path id="Path_1805" data-name="Path 1805" d="M121.334,168.17s-2.731,2.164-8.175,2.278c-6.493.123-22.589-1.663-22.589-1.663a13.327,13.327,0,0,0-.69,4.111s19.659,4.962,31.057.728a7.2,7.2,0,0,0,.4-5.453Z" transform="translate(-4.931 -9.225)" fill="#355389"/>
      <path id="Path_1806" data-name="Path 1806" d="M113,172.848a2.987,2.987,0,1,1,2.958,3.355A3.176,3.176,0,0,1,113,172.848Zm.945,0a2.013,2.013,0,1,0,1.975-2.372,2.212,2.212,0,0,0-1.909,2.372Z" transform="translate(-6.199 -9.338)" fill="#fff"/>
      <rect id="Rectangle_247" data-name="Rectangle 247" width="26.71" height="36.558" transform="matrix(-0.75, -0.66, 0.66, -0.75, 85.377, 180.669)" fill="#0a2033"/>
      <path id="Path_1807" data-name="Path 1807" d="M95.329,172.3s7.382.86,7.363,2.618-1.89,5.35-2.75,5.51-6.011-4.867-6.011-4.867Z" transform="translate(-5.153 -9.452)" fill="url(#radial-gradient-4)"/>
      <path id="Path_1808" data-name="Path 1808" d="M91.374,121.22s-9.848.69-13.629,9.867S66.8,155.661,66.8,158.279s4.007,10.6,25.519,15.188c0,0,2.231-2.344,2.1-4.187,0,0-13.421-11.531-13.393-12.873.076-2.552,2.2-5.917,13.988-17.7C98.179,135.5,91.374,121.22,91.374,121.22Z" transform="translate(-3.665 -6.65)" fill="#b0d0ff"/>
      <path id="Path_1809" data-name="Path 1809" d="M431.76,332.333a27.03,27.03,0,0,1,1.89-6.937c1.295-2.59,9.527-.945,9.527-.945s1.654,1.418,2,8.005Z" transform="translate(-23.686 -17.77)" fill="#233862"/>
      <path id="Path_1810" data-name="Path 1810" d="M400.549,331.961c1.938-1.181.841-9.99.841-9.99s-9.017-7.211-10.255-1.692-8.572,8.005-12.741,8.676c-2.883.473-3.781,2.06-4.045,3.006Z" transform="translate(-20.536 -17.455)" fill="#233862"/>
      <path id="Path_1811" data-name="Path 1811" d="M420.048,261.1a44.358,44.358,0,0,0-.662,4.867c-.832,16.351-13.761,53.731-16.067,54.6-3.582,1.352-9.215-1.512-12.155-2.457a2.514,2.514,0,0,1-1.777-2.835c6.4-29.432,8.752-71.831,9.6-96.877a113.753,113.753,0,0,1,2.609-21.37s31.52-8.4,31.709,2.231C433.441,208.605,422.865,245.532,420.048,261.1Z" transform="translate(-21.359 -10.635)" fill="#243c55"/>
      <path id="Path_1812" data-name="Path 1812" d="M420.608,261.1l-21.058-42.73A113.75,113.75,0,0,1,402.159,197s31.52-8.4,31.709,2.231C434,208.6,423.424,245.53,420.608,261.1Z" transform="translate(-21.919 -10.634)" fill="#0a2033"/>
      <path id="Path_1813" data-name="Path 1813" d="M414.41,199.318l16.672,120.77s7.315,1.767,13.005.359c0,0,4.877-64.27,4.471-79.76s3.506-41.586-.888-44.422S414.41,199.318,414.41,199.318Z" transform="translate(-22.734 -10.724)" fill="#243c55"/>
      <path id="Path_1814" data-name="Path 1814" d="M450.158,193.12a2.306,2.306,0,0,1-1.663,2.391c-2.325.671-5.009,1.144-10.179,2.212a98.815,98.815,0,0,1-19.347,1.956c-12.769.076-17.6-4.319-17.6-4.319-.548,0,.293-2.665,1.049-15.368.255-4.3.5-9.754.681-16.644.161-6.21.265-13.572.274-22.315,0-10.519,16.294-21.833,16.6-21.833h0c0,1.512,2.391,4.31,6.058,4.546,4.367.284,9.716-1.89,9.716-4.395,0,0,7.892,12.618,10.69,26.086C447.824,152.223,447.247,152.091,450.158,193.12Z" transform="translate(-22.009 -6.539)" fill="#033cfb"/>
      <path id="Path_1815" data-name="Path 1815" d="M419.409,119.21s-15.122-.132-18.78,4.971-11.625,32.6-7.457,41.737,11.965-3.781,16.294-9.385S419.409,119.21,419.409,119.21Z" transform="translate(-21.504 -6.539)" fill="#035afb"/>
      <path id="Path_1816" data-name="Path 1816" d="M420.857,116.234V117.8s-.425,4.886,5.6,5.6,10.491-.945,10.33-4.726a54.738,54.738,0,0,1-1.087-8.346,17.347,17.347,0,0,1,.217-2.93l-11.673-.236-3.44.567Z" transform="translate(-23.085 -5.879)" fill="url(#radial-gradient-5)"/>
      <path id="Path_1817" data-name="Path 1817" d="M420.82,107.781v8.506a9.933,9.933,0,0,0,4.215.945c5.359,0,8.828-3.932,10.642-6.786a17.35,17.35,0,0,1,.217-2.93l-11.673-.236Z" transform="translate(-23.086 -5.885)" fill="#efa78b"/>
      <path id="Path_1818" data-name="Path 1818" d="M436.639,104.406c-1.361,7.287-10.765,7.051-14.829,6.616-1.144-.132-1.89-.274-1.89-.274-1.295-.35-2.013-2.382-2.344-5.038-.671-5.274.17-13.005,1.059-14.98,1.342-2.977,3.866-6.191,13.336-3.866S438.369,95.068,436.639,104.406Z" transform="translate(-22.894 -4.721)" fill="url(#radial-gradient-6)"/>
      <path id="Path_1819" data-name="Path 1819" d="M404.321,140.87s-5.85,12.93-5.671,16.8a20.235,20.235,0,0,1,5.671.737C408.9,159.773,404.321,140.87,404.321,140.87Z" transform="translate(-21.869 -7.728)" fill="#033cfb"/>
      <path id="Path_1820" data-name="Path 1820" d="M415.665,83.456A31.35,31.35,0,0,0,424.747,81c3.989-1.739,9.026.17,10.661,1.03a2.345,2.345,0,0,0-.4-.945,2.174,2.174,0,0,1,.841,1.248c.076.057.113.095.094.113a2.836,2.836,0,0,1,1.361.085s-.369-.057-.5.189l-.066.066c6.228,3.006,6.805,12.844,4.8,15.122a79.158,79.158,0,0,0-6.049,8.941,11.04,11.04,0,0,1,.132-3.894c.435-2.41-1.645-2.41-4.272-3.506s-.444-4.168-2.741-6.03-10.737-.766-10.633-2.193C414.852,90.044,415.665,83.8,415.665,83.456Z" transform="translate(-22.798 -4.404)" fill="#233862"/>
      <path id="Path_1821" data-name="Path 1821" d="M437.723,166.467c-2.467,9.915-29.2,15.047-35.263,16.067.255-4.3.5-9.754.681-16.644Z" transform="translate(-22.078 -9.1)" fill="#033cfb"/>
      <path id="Path_1822" data-name="Path 1822" d="M433.474,169.3a47,47,0,0,0,6.956-1.361c1.021-.51,5.671-7.126,2.628-8.828s-11.238,5.094-11.238,5.094Z" transform="translate(-23.689 -8.713)" fill="#ffb27d"/>
      <path id="Path_1823" data-name="Path 1823" d="M396.988,171.31s21.993,1.191,36.757-1.966a6.361,6.361,0,0,0-4.272-6.162s-23-4.877-28.524-3.516S396.988,171.31,396.988,171.31Z" transform="translate(-21.767 -8.745)" fill="#035afb"/>
      <path id="Path_1824" data-name="Path 1824" d="M449.32,151.845c-4.565,5.5-10.529,10-17.107,11.049h0a12.211,12.211,0,0,1-1.626-7.344,14.593,14.593,0,0,1,2.391-6.748,14.907,14.907,0,0,0,1.295-2.609c3.592-9.158,3.053-26.823,3.053-26.823s15.255,1.6,20.009,8.383C460.274,131.912,456.493,143.14,449.32,151.845Z" transform="translate(-23.618 -6.548)" fill="#035afb"/>
      <path id="Path_1825" data-name="Path 1825" d="M421.824,112.142c-1.144-.132-1.89-.274-1.89-.274-1.295-.35-2.013-2.382-2.344-5.038a6.379,6.379,0,0,1,3.988,3.261A4.725,4.725,0,0,1,421.824,112.142Z" transform="translate(-22.908 -5.86)" fill="#efa78b"/>
      <path id="Path_1826" data-name="Path 1826" d="M415.411,116.281s-5.274-8.7-1.172-9.073a6.21,6.21,0,0,1,6.332,3.412c.586,1.021-.161,5.614-.161,5.614Z" transform="translate(-22.639 -5.878)" fill="url(#radial-gradient-7)"/>
      <path id="Path_1827" data-name="Path 1827" d="M435.577,155.027a11.442,11.442,0,0,1-.9,3.015,14.479,14.479,0,0,1-3.355,4.622h0c-13.686-6.181-16.455-27.409-16.918-39.034-.18-4.726,0-7.826,0-7.826,6.172-2.041,7.911,1.512,7.911,1.512s7.287,17.324,11.068,28.647C434.811,150.3,435.756,153.76,435.577,155.027Z" transform="translate(-22.729 -6.318)" fill="#033cfb"/>
      <path id="Path_1828" data-name="Path 1828" d="M448.435,152.106c-4.565,5.5-10.529,10-17.107,11.049h0c-13.686-6.181-16.455-27.409-16.918-39.034,0,0,6.474,23.477,15.292,31.691a9.584,9.584,0,0,0,4.981,2.722s11.105-3.138,13.44-6.1C448.293,152.219,448.388,152.115,448.435,152.106Z" transform="translate(-22.734 -6.809)" fill="#033cfb"/>
      <path id="Path_1829" data-name="Path 1829" d="M187.7,328.351h-.095a.945.945,0,0,1-.945-.945l1.418-61.434,4.178-.491L188.7,327.406a1.011,1.011,0,0,1-1,.945Z" transform="translate(-10.24 -14.563)" fill="#808285"/>
      <path id="Path_1830" data-name="Path 1830" d="M161.94,328.351h-.095a.945.945,0,0,1-.945-.945l1.418-61.434,4.178-.491-3.535,61.926A1.011,1.011,0,0,1,161.94,328.351Z" transform="translate(-8.827 -14.563)" fill="#6d6e71"/>
      <path id="Path_1831" data-name="Path 1831" d="M232.786,328.351h.085a.945.945,0,0,0,.945-.945L232.4,265.971l-4.168-.491,3.563,61.926A1.011,1.011,0,0,0,232.786,328.351Z" transform="translate(-12.52 -14.563)" fill="#808285"/>
      <path id="Path_1832" data-name="Path 1832" d="M159.09,258.775V216.641A13.412,13.412,0,0,1,172.5,203.22h30.33a13.412,13.412,0,0,1,13.412,13.421v43.7Z" transform="translate(-8.727 -11.148)" fill="#808285"/>
      <path id="Path_1833" data-name="Path 1833" d="M159.09,262h62.587v6.616H165.734A6.616,6.616,0,0,1,159.118,262h-.028Z" transform="translate(-8.727 -14.373)" fill="#6d6e71"/>
      <rect id="Rectangle_248" data-name="Rectangle 248" width="50.263" height="6.644" rx="3.322" transform="translate(172.687 247.58)" fill="#808285"/>
      <path id="Path_1834" data-name="Path 1834" d="M229.021,250.788c-4.338,7.561-9.811,10.482-9.811,10.482H196.48S232.339,245.013,229.021,250.788Z" transform="translate(-10.779 -13.689)" fill="#233862"/>
      <path id="Path_1835" data-name="Path 1835" d="M212.408,311.665a2.1,2.1,0,0,0-.378,2.249h0c.539,1.5,2.335,3.176,4.414,4.849.265.208.5.406.709.586l.161.142.123.113c1.89,1.786,1.21,2.2,4.726,5.832,3.97,4.13,6.71,4.206,7.486,3.828s-.68-2.514-2.164-4.981l-.217-.359-.586-.992c-1.739-2.958-1.295-4.357-.879-8.771.331-3.592,5.586-20.047,5.586-20.047l-7.618-1.314s-2.3,13.109-4.82,15.122c-1.352,1.077-2.835,1.1-4.168,1.89l-.274.17A10.1,10.1,0,0,0,212.408,311.665Z" transform="translate(-11.622 -16.062)" fill="url(#radial-gradient-8)"/>
      <path id="Path_1836" data-name="Path 1836" d="M212.408,312.653a2.1,2.1,0,0,0-.378,2.249h0c.662,1.5,2.41,3.166,4.423,4.83.265.217.491.416.7.6l.161.142.123.113c1.89,1.786,1.21,2.2,4.726,5.831,3.97,4.13,6.71,4.206,7.486,3.828s-.68-2.514-2.164-4.981a16.871,16.871,0,0,1-7.079-5.217c-2.4-3.053-4-6.985-5.624-9.253l-.274.17a10.091,10.091,0,0,0-2.1,1.682Z" transform="translate(-11.622 -17.05)" fill="#0a2033"/>
      <path id="Path_1837" data-name="Path 1837" d="M277.077,306.777c.473,2.353,3.781,1.956,7.561,1.04s2.836.18,8.185-.416,6.947-2.58,7.107-3.365-2.486-.945-5.312-1.276l-1.068-.132c-3.185-.4-5.52-2.457-8.421-4.149-2.741-1.6-6.833-8.119-6.833-8.119l-7.3.6s3.837,5.822,5.321,8.355a8.9,8.9,0,0,1,.718,4.981A9.271,9.271,0,0,0,277.077,306.777Z" transform="translate(-14.867 -15.928)" fill="url(#radial-gradient-9)"/>
      <path id="Path_1838" data-name="Path 1838" d="M284.986,308.536c3.781-.945,2.835.18,8.185-.416s6.947-2.58,7.107-3.365-2.486-.945-5.312-1.276h0a14.99,14.99,0,0,1-7.627,2.372c-3.62.095-7.448-.945-9.943-.945a9.272,9.272,0,0,0,.057,2.5C277.9,309.85,281.243,309.453,284.986,308.536Z" transform="translate(-15.214 -16.648)" fill="#0a2033"/>
      <path id="Path_1839" data-name="Path 1839" d="M246.336,257.6,239.5,275.983,230.59,299.99a14.377,14.377,0,0,1-4.726-.435,20.405,20.405,0,0,1-4.584-2.231s2.476-25.774,7.1-40.565c1.191-3.781,2.514-6.871,3.979-8.6C239.5,239.69,246.336,257.6,246.336,257.6Z" transform="translate(-12.139 -13.488)" fill="#0a2033"/>
      <path id="Path_1840" data-name="Path 1840" d="M236.6,227.177c-4.47-1.446-17.239.406-30.065,2.921l-2.684-4.433-27.7-2.164s-9.14,20.273-4.14,33.193a4.726,4.726,0,0,0,4.726,3.147H198.95c13.78,0,29.158-9.451,31.19-9.867,3.261-.643,4.565,5.869,7.816,12.7s30.613,30.245,30.613,30.245a26.518,26.518,0,0,0,5.935-.6,5.784,5.784,0,0,0,2.552-1.616S246.7,230.428,236.6,227.177Z" transform="translate(-9.354 -12.26)" fill="#243c55"/>
      <path id="Path_1841" data-name="Path 1841" d="M201.914,140.315c-3.554-1.89-8.951-2.117-9.829-2.231-10.5-1.418-16.814,13.837-17.183,18.459-.69,8.506-5.2,9.82-11.54,15.122-12.712,10.756-8.988,23.156-2.032,27.768,4.178,2.769,11.531,0,11.531,0s20.113-11.181,29.98-16.616C217.623,180.72,210.95,145.06,201.914,140.315Z" transform="translate(-8.501 -7.57)" fill="#233862"/>
      <path id="Path_1842" data-name="Path 1842" d="M196.087,179.64s-4.858,1.7-8.128.246c-3.081-1.361-5.416-6.427-5.368-6.427,1.4-.066,2.939-1.295,4.121-9.329l.6.208,10.028,3.61s-.728,3.223-1.2,6.285C195.746,176.8,195.538,179.271,196.087,179.64Z" transform="translate(-10.017 -9.004)" fill="url(#radial-gradient-10)"/>
      <path id="Path_1843" data-name="Path 1843" d="M197.618,167.96s-.728,3.223-1.2,6.285c-5.756-1.04-8.024-6.777-8.828-9.9Z" transform="translate(-10.291 -9.016)" fill="#efa78b"/>
      <path id="Path_1844" data-name="Path 1844" d="M199.053,170.147s-13.723-1.89-12.448-10.4.369-14.517,9.187-13.7,10.028,4.319,10.293,7.268S202.654,170.412,199.053,170.147Z" transform="translate(-10.232 -8.008)" fill="url(#radial-gradient-11)"/>
      <path id="Path_1845" data-name="Path 1845" d="M205.355,148.641s-8.78,7.561-14.763,8.175-8.242-1.3-8.242-1.3a23.326,23.326,0,0,0,5.671-7.646,4.2,4.2,0,0,1,3.45-2.476C195.733,145.011,203.824,144.851,205.355,148.641Z" transform="translate(-10.003 -7.965)" fill="#233862"/>
      <path id="Path_1846" data-name="Path 1846" d="M200.88,148.025s2.939,2.835,3.866,4.953,1.163,6.9.454,8.828c0,0,4.574-8.9,1.985-13.232C204.434,143.989,200.88,148.025,200.88,148.025Z" transform="translate(-11.02 -8.03)" fill="#233862"/>
      <path id="Path_1847" data-name="Path 1847" d="M206.962,200.376c-.416,27.787-.113,21.984-3.157,24.574-.728.643-2.788,1.021-5.5,1.2-8.506.558-23.5-.841-24.063-2.42-1.966-5.444-.577-7.136-2.221-15.481q-.255-1.323-.624-2.892c-1.37-5.728-2.7-7.675,2.145-16.88,4.4-8.336,8.969-15.122,9.385-14.858,11.6,6.89,12.533,1.1,12.533,1.1S207.16,186.823,206.962,200.376Z" transform="translate(-9.333 -9.524)" fill="#033cfb"/>
      <path id="Path_1848" data-name="Path 1848" d="M239.5,276.614l-8.913,24.007a14.375,14.375,0,0,1-4.726-.435,20.408,20.408,0,0,1-4.584-2.23s2.476-25.774,7.1-40.565Z" transform="translate(-12.139 -14.12)" fill="#243c55"/>
      <path id="Path_1849" data-name="Path 1849" d="M196.93,174.82s11.947,2.023,13.345,7.164,9.65,35.367,9.65,35.367-6.068,1.087-8.875-1.72-9.754-26.01-9.754-26.01Z" transform="translate(-10.803 -9.59)" fill="#033cfb"/>
      <path id="Path_1850" data-name="Path 1850" d="M198.414,227.53c-8.506.558-23.5-.841-24.063-2.42-1.966-5.444-.577-7.136-2.221-15.481l4.111-11.569s-.68,12.882,3.119,16.275,15.557,6.54,17.41,9.376a10.4,10.4,0,0,1,1.645,3.818Z" transform="translate(-9.443 -10.865)" fill="#031efb"/>
      <path id="Path_1851" data-name="Path 1851" d="M189.61,223.424s8.412-1.89,9.763-1.125,4.669,3.459,5.085,4.4-3.015-.709-4.13-1.011c-.728-.2-2.627.463-3.573.784-3.97,1.323-6.4.643-6.4.643Z" transform="translate(-10.402 -12.185)" fill="#ffb27d"/>
      <path id="Path_1852" data-name="Path 1852" d="M182.08,173.65s-11.285.7-15.2,6.153c-5.5,7.665-16.408,40.358-10.151,44.715,7.041,4.915,32.04,1.285,32.04,1.285s.832-3.885-.321-5.765-19.971-4.924-20.84-5.794,10.85-16.937,10.85-19.536S182.08,173.65,182.08,173.65Z" transform="translate(-8.495 -9.526)" fill="#033cfb"/>
      <path id="Path_1853" data-name="Path 1853" d="M200.37,224.79a16.512,16.512,0,0,0,2.344,2.542,1.748,1.748,0,0,0,.945.2l-1.181-2.136Z" transform="translate(-10.992 -12.331)" fill="#ffb27d"/>
      <path id="Path_1854" data-name="Path 1854" d="M199.94,222.31l5.123,2.486a.945.945,0,0,1-.851.331,12.031,12.031,0,0,1-2.221-.614Z" transform="translate(-10.968 -12.195)" fill="#ffb27d"/>
      <path id="Path_1855" data-name="Path 1855" d="M208.532,229.4H240.9a3.781,3.781,0,0,0,3.5-2.363l9.149-22.768a3.781,3.781,0,0,0-3.488-5.17H217.738a3.781,3.781,0,0,0-3.488,2.353l-9.206,22.768a3.781,3.781,0,0,0,3.488,5.179Z" transform="translate(-11.234 -10.922)" fill="#bcbec0"/>
      <path id="Path_1856" data-name="Path 1856" d="M243.1,229.91H189.61v1.181h53.013Z" transform="translate(-10.402 -12.612)" fill="#bcbec0"/>
      <path id="Path_1857" data-name="Path 1857" d="M234.651,215.02a1.4,1.4,0,0,0-1.37-1.89,2.769,2.769,0,0,0-2.486,1.89,1.408,1.408,0,0,0,1.38,1.89A2.75,2.75,0,0,0,234.651,215.02Z" transform="translate(-12.656 -11.692)" fill="#fff"/>
      <path id="Path_1858" data-name="Path 1858" d="M319.176,233.48c.246.813,23.156,71.188,28.959,89.032.671,2.06-1.2,4.083-3.781,4.083a3.837,3.837,0,0,1-3.781-2.457l-25.424-84.5Z" transform="translate(-17.289 -12.808)" fill="#bcbec0"/>
      <path id="Path_1859" data-name="Path 1859" d="M304.451,233.48c-.236.813-23.147,71.188-28.959,89.032-.671,2.06,1.2,4.083,3.781,4.083a3.837,3.837,0,0,0,3.781-2.457l25.424-84.5Z" transform="translate(-15.106 -12.808)" fill="#bcbec0"/>
      <path id="Path_1860" data-name="Path 1860" d="M305.128,230.5H319.4v11.465a2.968,2.968,0,0,1-2.949,2.977h-1.994v25.727a2.231,2.231,0,0,1-4.461,0V244.942H309a3.932,3.932,0,0,1-3.913-3.951Z" transform="translate(-16.737 -12.645)" fill="#bcbec0"/>
      <path id="Path_1861" data-name="Path 1861" d="M360.3,227.59H260.461a3.025,3.025,0,0,0-2.968,1.89l-1.389,4.367c-.5,1.569.945,3.1,2.977,3.091l102.444-.482c1.985,0,3.431-1.522,2.949-3.072l-1.21-3.885A3.024,3.024,0,0,0,360.3,227.59Z" transform="translate(-14.044 -12.485)" fill="#58595b"/>
    </g>
  </g>
</svg>
