<svg id="Layer_2" data-name="Layer 2" xmlns="http://www.w3.org/2000/svg" width="232.59" height="68.333" viewBox="0 0 232.59 68.333">
  <g id="Layer_1" data-name="Layer 1">
    <path id="Path_759" data-name="Path 759" d="M314.166,11.389,294.44,0V22.777Z" transform="translate(-274.714)" fill="#03d0fb"/>
    <path id="Path_760" data-name="Path 760" d="M0,11.389,19.726,0V22.777Z" fill="#03b4fb"/>
    <path id="Path_761" data-name="Path 761" d="M314.2,691.379,294.47,679.99v22.778Z" transform="translate(-274.742 -634.435)" fill="#031efb"/>
    <path id="Path_762" data-name="Path 762" d="M.02,691.4,19.746,680.01v22.777Z" transform="translate(-0.019 -634.454)" fill="#0300be"/>
    <path id="Path_763" data-name="Path 763" d="M0,170v22.777l19.726-11.389Z" transform="translate(0 -158.611)" fill="#0396fb"/>
    <path id="Path_764" data-name="Path 764" d="M19.746,362.768.02,351.379,19.746,339.99Z" transform="translate(-0.019 -317.213)" fill="#0378fb"/>
    <path id="Path_765" data-name="Path 765" d="M294.47,339.99v22.778L314.2,351.379Z" transform="translate(-274.742 -317.213)" fill="#035afb"/>
    <path id="Path_766" data-name="Path 766" d="M314.2,532.768,294.47,521.379,314.2,509.99Z" transform="translate(-274.742 -475.824)" fill="#033cfb"/>
    <path id="Path_767" data-name="Path 767" d="M827.875,219.376a14.078,14.078,0,0,0,5.943,1.42c2.1,0,3.138-.732,3.138-1.888,0-1.1-1.029-1.742-3.622-2.627-3.858-1.365-6.437-3.5-6.437-6.912,0-4.056,3.417-7.168,9.208-7.168a14.98,14.98,0,0,1,6.2,1.173l-1.284,4.91a12.1,12.1,0,0,0-4.982-1.088c-1.872,0-2.9.686-2.9,1.691,0,1.164,1.216,1.632,4.107,2.712,4.132,1.513,5.977,3.724,5.977,6.913,0,3.962-3.078,7.329-9.77,7.329a16.429,16.429,0,0,1-6.742-1.394Z" transform="translate(-771.326 -188.654)" fill="#f6f6f6"/>
    <path id="Path_768" data-name="Path 768" d="M1232.505,213.6c0,7.369-4.429,12.065-11.5,12.065-7.108,0-11.011-5.331-11.011-11.7,0-6.677,4.371-11.969,11.394-11.969C1228.756,202,1232.505,207.464,1232.505,213.6Zm-16.016.255c0,4.31,1.876,6.947,4.812,6.947,2.984,0,4.711-2.874,4.711-7.006,0-3.945-1.769-6.939-4.745-6.939C1218.365,206.86,1216.489,209.641,1216.489,213.858Z" transform="translate(-1128.928 -188.467)" fill="#f6f6f6"/>
    <path id="Path_769" data-name="Path 769" d="M1696.46,207.54h14.719v5.016H1702.6v4.226h8.069v4.966H1702.6v8.715h-6.139Z" transform="translate(-1582.808 -193.636)" fill="#f6f6f6"/>
    <path id="Path_770" data-name="Path 770" d="M2059.7,212.692h-5.841V207.54h17.932v5.152h-5.952v17.771H2059.7Z" transform="translate(-1916.265 -193.636)" fill="#f6f6f6"/>
    <path id="Path_771" data-name="Path 771" d="M2471.709,207.54v22.923h-6.139V207.54Z" transform="translate(-2300.392 -193.636)" fill="#f6f6f6"/>
    <path id="Path_772" data-name="Path 772" d="M2728.42,226.192a27.467,27.467,0,0,1-7.916,1.3c-4.5,0-7.584-1.123-9.642-3.1a11.07,11.07,0,0,1-3.265-8.273c.034-7.968,5.963-12.015,13.392-12.015a16.788,16.788,0,0,1,6.649,1.122l-1.233,4.907a13.134,13.134,0,0,0-5.449-.969c-3.784,0-6.913,1.981-6.913,6.64,0,4.268,2.772,6.751,6.53,6.751a7,7,0,0,0,1.93-.195V218.42h-3.07V213.65h8.987Z" transform="translate(-2526.205 -190.436)" fill="#f6f6f6"/>
    <path id="Path_773" data-name="Path 773" d="M3183.5,207.54v8.477h7.448V207.54h6.139v22.923h-6.139v-9.092H3183.5v9.092h-6.139V207.54Z" transform="translate(-2964.497 -193.636)" fill="#f6f6f6"/>
    <path id="Path_774" data-name="Path 774" d="M821.827,680v3.5h3.393V680h2.057v9.1H825.22v-3.807h-3.393V689.1H819.77V680Z" transform="translate(-764.851 -634.444)" fill="#f6f6f6"/>
    <path id="Path_775" data-name="Path 775" d="M1004.336,685.25h-3.35v2.164h3.743V689.1h-5.8V680h5.606v1.686h-3.551v1.9h3.35Z" transform="translate(-932.008 -634.444)" fill="#f6f6f6"/>
    <path id="Path_776" data-name="Path 776" d="M1146.813,680h2.057v7.376h3.618V689.1h-5.678Z" transform="translate(-1069.981 -634.444)" fill="#f6f6f6"/>
    <path id="Path_777" data-name="Path 777" d="M1290.113,680h2.058v7.376h3.618V689.1h-5.678Z" transform="translate(-1203.681 -634.444)" fill="#f6f6f6"/>
    <path id="Path_778" data-name="Path 778" d="M1428.14,682.387c0,2.986-1.8,4.79-4.463,4.79-2.7,0-4.288-2.042-4.288-4.637,0-2.72,1.751-4.76,4.43-4.76C1426.615,677.78,1428.14,679.872,1428.14,682.387Zm-6.574.114c0,1.783.84,3.04,2.211,3.04,1.391,0,2.187-1.314,2.187-3.082,0-1.64-.776-3.041-2.191-3.041-1.39,0-2.2,1.313-2.2,3.082Z" transform="translate(-1324.3 -632.373)" fill="#f6f6f6"/>
    <path id="Path_779" data-name="Path 779" d="M1693.677,680v9.1h-2.057V680Z" transform="translate(-1578.292 -634.444)" fill="#035afb"/>
    <path id="Path_780" data-name="Path 780" d="M1789.36,689.1V680h2.4l1.889,3.338a25.854,25.854,0,0,1,1.487,3.121l.035,0a36.03,36.03,0,0,1-.165-3.8V680h1.889v9.1h-2.155l-1.951-3.5a33.457,33.457,0,0,1-1.581-3.216l-.045,0c.067,1.206.09,2.494.09,3.98V689.1Z" transform="translate(-1669.484 -634.444)" fill="#035afb"/>
    <path id="Path_781" data-name="Path 781" d="M1968.73,689.1V680h2.4l1.889,3.338a26.1,26.1,0,0,1,1.487,3.121l.035,0a36.021,36.021,0,0,1-.166-3.8V680h1.889v9.1h-2.154l-1.95-3.5a33.52,33.52,0,0,1-1.581-3.216l-.046,0c.067,1.206.09,2.494.09,3.98V689.1Z" transform="translate(-1836.838 -634.444)" fill="#035afb"/>
    <path id="Path_782" data-name="Path 782" d="M2150.46,682.387c0,2.986-1.8,4.79-4.463,4.79-2.7,0-4.288-2.042-4.288-4.637,0-2.72,1.75-4.76,4.43-4.76C2148.934,677.78,2150.46,679.872,2150.46,682.387Zm-6.574.114c0,1.783.84,3.04,2.211,3.04,1.391,0,2.186-1.314,2.186-3.082,0-1.64-.776-3.041-2.19-3.041C2144.7,679.416,2143.887,680.732,2143.887,682.5Z" transform="translate(-1998.229 -632.373)" fill="#035afb"/>
    <path id="Path_783" data-name="Path 783" d="M2322.917,689.072l-2.917-9.1h2.253l1.1,3.852c.318,1.082.595,2.112.822,3.247h.028c.231-1.093.525-2.173.834-3.216l1.155-3.886h2.189l-3.06,9.1Z" transform="translate(-2164.574 -634.416)" fill="#035afb"/>
    <path id="Path_784" data-name="Path 784" d="M2482.01,686.766l-.642,2.333h-2.128l2.777-9.1h2.693l2.833,9.1h-2.216l-.7-2.334Zm2.312-1.533-.567-1.934c-.156-.536-.317-1.22-.457-1.752h-.028c-.134.536-.268,1.226-.417,1.755l-.547,1.928Z" transform="translate(-2313.146 -634.444)" fill="#035afb"/>
    <path id="Path_785" data-name="Path 785" d="M2636.916,681.727h-2.455V680h7v1.728h-2.49V689.1h-2.058Z" transform="translate(-2457.968 -634.444)" fill="#035afb"/>
    <path id="Path_786" data-name="Path 786" d="M2797.7,680v9.1h-2.057V680Z" transform="translate(-2608.35 -634.444)" fill="#035afb"/>
    <path id="Path_787" data-name="Path 787" d="M2895.75,682.387c0,2.986-1.8,4.79-4.463,4.79-2.7,0-4.287-2.042-4.287-4.637,0-2.72,1.75-4.76,4.43-4.76C2894.224,677.78,2895.75,679.872,2895.75,682.387Zm-6.574.114c0,1.783.841,3.04,2.21,3.04,1.391,0,2.186-1.314,2.186-3.082,0-1.64-.776-3.041-2.192-3.041C2889.99,679.416,2889.176,680.732,2889.176,682.5Z" transform="translate(-2693.589 -632.373)" fill="#035afb"/>
    <path id="Path_788" data-name="Path 788" d="M3078.19,689.1V680h2.4l1.889,3.338a25.963,25.963,0,0,1,1.487,3.121l.035,0a36.227,36.227,0,0,1-.166-3.8V680h1.889v9.1h-2.156l-1.951-3.5a33.429,33.429,0,0,1-1.581-3.216l-.045,0c.063,1.206.09,2.494.09,3.98V689.1Z" transform="translate(-2871.97 -634.444)" fill="#035afb"/>
    <path id="Path_789" data-name="Path 789" d="M3253.1,688.026a1.206,1.206,0,1,1,1.206,1.223A1.166,1.166,0,0,1,3253.1,688.026Zm.437-1.9-.3-6.122h2.138l-.3,6.123Z" transform="translate(-3035.164 -634.444)" fill="#035afb"/>
  </g>
</svg>
