<svg id="linkedin" xmlns="http://www.w3.org/2000/svg" width="15.891" height="15.189" viewBox="0 0 15.891 15.189">
  <path id="Path_790" data-name="Path 790" d="M1.927-.668a1.775,1.775,0,1,0-.045,3.541H1.9A1.776,1.776,0,1,0,1.927-.668Zm0,0" transform="translate(0 0.668)" fill="#f2f2f2"/>
  <path id="Path_791" data-name="Path 791" d="M8.109,198.313h3.406v10.249H8.109Zm0,0" transform="translate(-7.908 -193.372)" fill="#f2f2f2"/>
  <path id="Path_792" data-name="Path 792" d="M227.691,188.625a4.268,4.268,0,0,0-3.07,1.727v-1.486h-3.407v10.249h3.406v-5.723a2.334,2.334,0,0,1,.112-.831,1.865,1.865,0,0,1,1.748-1.246c1.233,0,1.726.94,1.726,2.318v5.483h3.406v-5.876c0-3.148-1.681-4.613-3.922-4.613Zm0,0" transform="translate(-215.722 -183.925)" fill="#f2f2f2"/>
</svg>
