<svg id="linkedin" xmlns="http://www.w3.org/2000/svg" width="28.802" height="27.53" viewBox="0 0 28.802 27.53">
  <path id="Path_790" data-name="Path 790" d="M3.493-.668a3.218,3.218,0,1,0-.081,6.419h.04A3.219,3.219,0,1,0,3.493-.668Zm0,0" transform="translate(0 0.668)" fill="#f2f2f2"/>
  <path id="Path_791" data-name="Path 791" d="M8.109,198.313h6.174v18.575H8.109Zm0,0" transform="translate(-7.744 -189.358)" fill="#f2f2f2"/>
  <path id="Path_792" data-name="Path 792" d="M232.954,188.625c-3.331,0-5.564,3.13-5.564,3.13v-2.694h-6.174v18.575h6.174V197.263a4.231,4.231,0,0,1,.2-1.507,3.38,3.38,0,0,1,3.168-2.258c2.234,0,3.128,1.7,3.128,4.2v9.937h6.174V196.986c0-5.706-3.046-8.361-7.108-8.361Zm0,0" transform="translate(-211.26 -180.106)" fill="#f2f2f2"/>
</svg>
