<svg id="Layer_1" data-name="Layer 1" xmlns="http://www.w3.org/2000/svg" viewBox="0 0 70 70"><defs><style>.cls-1{fill:#e2c280;}.cls-2{opacity:0.2;}</style></defs><g id="Layer_2" data-name="Layer 2"><g id="Layer_1-2" data-name="Layer 1-2"><path class="cls-1" d="M21.74,65.7,17,61.84,17,47.37V32.94l.88.63c.5.35,2.72,2.08,4.94,3.86l4.05,3.2V55.11c0,7.9-.1,14.42-.2,14.42S24.3,67.77,21.74,65.7Z"/><path class="cls-1" d="M43.1,55V40.55l4.34-3.45c2.37-1.88,4.59-3.62,4.94-3.8L53,33V47.42l0,14.48L50.6,63.67c-1.28,1-3.5,2.76-4.89,3.9L43.1,69.64Z"/><path class="cls-1" d="M5.2,52.37A46.28,46.28,0,0,1,.37,48.14C.25,47.78.25,37.56.25,25.43L.42,3.32,7.18,8.8,14,14.27v11.3h-.37a8.26,8.26,0,0,1-1.92-1.23L10,23.05l-.1,16.54L9.79,56.1Z"/><path class="cls-1" d="M59.88,39.59V23L58.2,24.29a10.56,10.56,0,0,1-2,1.28h-.3l0-5.79V14l6.47-5.18C66,5.92,69.11,3.53,69.31,3.48l.44-.23V48.14l-4.94,4-4.93,4Z"/><path class="cls-1" d="M25.78,35.79l-8.73-7-.15-5a41.71,41.71,0,0,1,.05-6l.25-.93L26,23.9,34.81,31l.6-.4c.29-.24,3-2.36,6-4.83,4.59-3.7,6.9-5.58,11-8.77l.58-.44V28.48l-8.87,7.16c-4.83,4-9,7.21-9.23,7.21S30.57,39.69,25.78,35.79Z"/><path class="cls-1" d="M25.73,19.36,17,12.2V.36l.39.24c.2.11,4.25,3.31,9,7.16L35,14.67l.72-.64C37.53,12.45,51.79,1.08,52.38.71L53,.36V12.15l-9,7.24c-5,3.95-9.13,7.24-9.28,7.16S30.52,23.26,25.73,19.36Z"/><g class="cls-2"><path class="cls-1" d="M21.74,65.7,17,61.84,17,47.37V32.94l.88.63c.5.35,2.72,2.08,4.94,3.86l4.05,3.2V55.11c0,7.9-.1,14.42-.2,14.42S24.3,67.77,21.74,65.7Z"/><path class="cls-1" d="M43.1,55V40.55l4.34-3.45c2.37-1.88,4.59-3.62,4.94-3.8L53,33V47.42l0,14.48L50.6,63.67c-1.28,1-3.5,2.76-4.89,3.9L43.1,69.64Z"/><path class="cls-1" d="M5.2,52.37A46.28,46.28,0,0,1,.37,48.14C.25,47.78.25,37.56.25,25.43L.42,3.32,7.18,8.8,14,14.27v11.3h-.37a8.26,8.26,0,0,1-1.92-1.23L10,23.05l-.1,16.54L9.79,56.1Z"/><path class="cls-1" d="M59.88,39.59V23L58.2,24.29a10.56,10.56,0,0,1-2,1.28h-.3l0-5.79V14l6.47-5.18C66,5.92,69.11,3.53,69.31,3.48l.44-.23V48.14l-4.94,4-4.93,4Z"/><path class="cls-1" d="M25.78,35.79l-8.73-7-.15-5a41.71,41.71,0,0,1,.05-6l.25-.93L26,23.9,34.81,31l.6-.4c.29-.24,3-2.36,6-4.83,4.59-3.7,6.9-5.58,11-8.77l.58-.44V28.48l-8.87,7.16c-4.83,4-9,7.21-9.23,7.21S30.57,39.69,25.78,35.79Z"/><path class="cls-1" d="M25.73,19.36,17,12.2V.36l.39.24c.2.11,4.25,3.31,9,7.16L35,14.67l.72-.64C37.53,12.45,51.79,1.08,52.38.71L53,.36V12.15l-9,7.24c-5,3.95-9.13,7.24-9.28,7.16S30.52,23.26,25.73,19.36Z"/></g></g></g></svg>