<svg id="Layer_1" data-name="Layer 1" xmlns="http://www.w3.org/2000/svg" viewBox="0 0 70 70"><defs><style>.cls-1{fill:#f8ea1c;}.cls-2{opacity:0.2;}</style></defs><g id="Layer_2" data-name="Layer 2"><g id="Layer_1-2" data-name="Layer 1-2"><path class="cls-1" d="M18.55,65.55c-.16-.16-1.51-1.44-3-2.89l-2.71-2.54V33.86l-1.53-1.71c-.85-.94-2.17-2.47-3-3.37L6.86,27.11l-.09,2.16c0,1.17-.08,6.89-.09,12.69s0,10.86-.09,11.28L6.51,54l-.3-.21C5.66,53.35,3.15,51,1.7,49.6L.25,48.15V31c0-9.53.06-17.8.1-18.41l.07-1.11.82.82c.83.82,9.87,10.28,11,11.46l.59.61.06-10c0-5.51.09-10.06.14-10.13s.88.46,16.3,11.58c4.74,3.41,5.48,3.93,5.79,3.93s1-.42,3.86-2.52L47,11.32c3.11-2.22,6.6-4.73,7.75-5.56C57,4.18,57.12,4.08,57.25,4.22s.11,4.58.15,10.06l.05,10L59,22.58c3.4-3.65,10.31-10.89,10.44-11s.29,2.25.29,19.63v17.1l-2.9,2.78c-3,2.83-3.2,3-3.35,2.9s-.1-6.09-.14-13.43l0-13.37-1.05,1.15c-.58.63-1.92,2.12-2.95,3.27l-1.89,2.12V60l-3.05,2.9c-1.68,1.62-3.11,2.94-3.18,2.94s-.3-4.63-.3-15.47c0-5.33,0-9-.11-9s-2.12,2.26-4.58,5.07L35.67,58.22l-.53.59-.48-.48C34.39,58.08,33.4,57,32.45,56c-3.14-3.5-9.36-10.5-11.2-12.63a26.75,26.75,0,0,0-1.91-2.07s-.1,4.34-.1,9.6c0,10.76-.11,14.91-.29,15a.84.84,0,0,1-.41-.27ZM40.37,43.46c2.53-2.85,5.16-5.79,5.84-6.59s2-2.28,3-3.38l1.76-2V24.27c0-4,0-7.41-.07-7.6l-.07-.37-.73.48c-1,.73-9.59,6.87-12.3,8.88-1.64,1.21-2.46,1.69-2.81,1.69a11.68,11.68,0,0,1-2.52-1.6c-3.35-2.39-10.07-7.24-11.72-8.5l-1.45-1.09,0,7.78V31.7l.5.54c.29.29,2.73,3,5.44,6.07l7.38,8.34,2.46,2.76.35-.37C35.61,48.83,37.83,46.32,40.37,43.46Z"/><g class="cls-2"><path class="cls-1" d="M18.55,65.55c-.16-.16-1.51-1.44-3-2.89l-2.71-2.54V33.86l-1.53-1.71c-.85-.94-2.17-2.47-3-3.37L6.86,27.11l-.09,2.16c0,1.17-.08,6.89-.09,12.69s0,10.86-.09,11.28L6.51,54l-.3-.21C5.66,53.35,3.15,51,1.7,49.6L.25,48.15V31c0-9.53.06-17.8.1-18.41l.07-1.11.82.82c.83.82,9.87,10.28,11,11.46l.59.61.06-10c0-5.51.09-10.06.14-10.13s.88.46,16.3,11.58c4.74,3.41,5.48,3.93,5.79,3.93s1-.42,3.86-2.52L47,11.32c3.11-2.22,6.6-4.73,7.75-5.56C57,4.18,57.12,4.08,57.25,4.22s.11,4.58.15,10.06l.05,10L59,22.58c3.4-3.65,10.31-10.89,10.44-11s.29,2.25.29,19.63v17.1l-2.9,2.78c-3,2.83-3.2,3-3.35,2.9s-.1-6.09-.14-13.43l0-13.37-1.05,1.15c-.58.63-1.92,2.12-2.95,3.27l-1.89,2.12V60l-3.05,2.9c-1.68,1.62-3.11,2.94-3.18,2.94s-.3-4.63-.3-15.47c0-5.33,0-9-.11-9s-2.12,2.26-4.58,5.07L35.67,58.22l-.53.59-.48-.48C34.39,58.08,33.4,57,32.45,56c-3.14-3.5-9.36-10.5-11.2-12.63a26.75,26.75,0,0,0-1.91-2.07s-.1,4.34-.1,9.6c0,10.76-.11,14.91-.29,15a.84.84,0,0,1-.41-.27ZM40.37,43.46c2.53-2.85,5.16-5.79,5.84-6.59s2-2.28,3-3.38l1.76-2V24.27c0-4,0-7.41-.07-7.6l-.07-.37-.73.48c-1,.73-9.59,6.87-12.3,8.88-1.64,1.21-2.46,1.69-2.81,1.69a11.68,11.68,0,0,1-2.52-1.6c-3.35-2.39-10.07-7.24-11.72-8.5l-1.45-1.09,0,7.78V31.7l.5.54c.29.29,2.73,3,5.44,6.07l7.38,8.34,2.46,2.76.35-.37C35.61,48.83,37.83,46.32,40.37,43.46Z"/></g></g></g></svg>