<svg id="Layer_1" data-name="Layer 1" xmlns="http://www.w3.org/2000/svg" viewBox="0 0 59.24 70"><defs><style>.cls-1{opacity:0.2;}</style></defs><g id="Layer_2" data-name="Layer 2"><g id="Layer_1-2" data-name="Layer 1-2"><path d="M.34,69.43c0-.29.61-.83,1.37-1.19A7.76,7.76,0,0,0,4,66.11c1.77-2.56,2.09-4.76,2.09-15v-9.2l5.41,2.7,5.41,2.78v9.78c0,5.41.11,10.06.22,10.38.18.51,1.15.58,7,.58,3.64,0,7.83-.18,9.23-.36a15.83,15.83,0,0,0,9.56-4.94A16.34,16.34,0,0,0,47.4,47.76c-1.37-7.3-6.71-13.32-15.76-17.9l-2.27-1.15,2.23-.46a13.48,13.48,0,0,0,9.78-7.65c.83-1.77,1-2.53,1-5.3s-.18-3.58-1-5.3c-3.65-7.8-15.31-10.58-25-5.92a13.2,13.2,0,0,0-6.56,6.16,9,9,0,0,0-1,5.06,8.61,8.61,0,0,0,1,5c1.88,3.64,4.8,5.92,15.55,12C33.09,36.67,35.07,38,37.81,41c5.3,5.73,6.24,12.34,2.6,17.74-.25.36-.58.07-1.26-1.08-2.45-4.22-6.6-7.61-14.9-12.23C11.29,38.23,8.76,36.54,5.42,33A18.85,18.85,0,0,1,1.31,12.91,12.16,12.16,0,0,1,4.84,7.76,22.17,22.17,0,0,1,14.65,1.7C18.91.29,22.55-.14,28.79,0,38,.36,45.22,2.78,49.45,7c3,2.91,3.72,4.65,3.72,8.61s-.79,5.88-3.72,8.75a18.91,18.91,0,0,1-8,4.84c-2.53.9-2.63,1-1.62,1.22,10.6,2.42,16,6.24,18.58,13,1.45,4,1,10.89-1.16,15.11-2.92,5.77-8.8,9.41-17.64,10.86-4.83.73-39.27.82-39.27,0Z"/><g class="cls-1"><path d="M.34,69.43c0-.29.61-.83,1.37-1.19A7.76,7.76,0,0,0,4,66.11c1.77-2.56,2.09-4.76,2.09-15v-9.2l5.41,2.7,5.41,2.78v9.78c0,5.41.11,10.06.22,10.38.18.51,1.15.58,7,.58,3.64,0,7.83-.18,9.23-.36a15.83,15.83,0,0,0,9.56-4.94A16.34,16.34,0,0,0,47.4,47.76c-1.37-7.3-6.71-13.32-15.76-17.9l-2.27-1.15,2.23-.46a13.48,13.48,0,0,0,9.78-7.65c.83-1.77,1-2.53,1-5.3s-.18-3.58-1-5.3c-3.65-7.8-15.31-10.58-25-5.92a13.2,13.2,0,0,0-6.56,6.16,9,9,0,0,0-1,5.06,8.61,8.61,0,0,0,1,5c1.88,3.64,4.8,5.92,15.55,12C33.09,36.67,35.07,38,37.81,41c5.3,5.73,6.24,12.34,2.6,17.74-.25.36-.58.07-1.26-1.08-2.45-4.22-6.6-7.61-14.9-12.23C11.29,38.23,8.76,36.54,5.42,33A18.85,18.85,0,0,1,1.31,12.91,12.16,12.16,0,0,1,4.84,7.76,22.17,22.17,0,0,1,14.65,1.7C18.91.29,22.55-.14,28.79,0,38,.36,45.22,2.78,49.45,7c3,2.91,3.72,4.65,3.72,8.61s-.79,5.88-3.72,8.75a18.91,18.91,0,0,1-8,4.84c-2.53.9-2.63,1-1.62,1.22,10.6,2.42,16,6.24,18.58,13,1.45,4,1,10.89-1.16,15.11-2.92,5.77-8.8,9.41-17.64,10.86-4.83.73-39.27.82-39.27,0Z"/></g></g></g></svg>