<svg id="Layer_1" data-name="Layer 1" xmlns="http://www.w3.org/2000/svg" viewBox="0 0 70 70"><defs><style>.cls-1{fill:#dfbd75;}.cls-2{opacity:0.2;}</style></defs><g id="Layer_2" data-name="Layer 2"><g id="Layer_1-2" data-name="Layer 1-2"><path class="cls-1" d="M5.93,69.19c0-.29.6-.83,1.36-1.19a7.92,7.92,0,0,0,2.28-2.11c1.76-2.55,2.08-4.72,2.08-14.86V41.86L17,44.54l5.37,2.76V57c0,5.37.11,10,.22,10.31.18.5,1.15.58,6.91.58,3.62,0,7.77-.18,9.17-.36a15.74,15.74,0,0,0,9.49-4.91,16.21,16.21,0,0,0,4.47-15C51.29,40.43,46,34.45,37,29.9l-2.25-1.14L37,28.29a13.32,13.32,0,0,0,9.7-7.59c.83-1.76,1-2.5,1-5.26s-.18-3.55-1-5.27C43.05,2.44,31.47-.32,21.86,4.3a13.06,13.06,0,0,0-6.52,6.12,9,9,0,0,0-1,5,8.55,8.55,0,0,0,1,4.93c1.87,3.62,4.77,5.88,15.44,11.9,7.66,4.34,9.63,5.69,12.35,8.63,5.27,5.69,6.2,12.24,2.58,17.62-.24.35-.57.06-1.25-1.08C42,53.25,37.91,49.88,29.67,45.3,16.81,38.21,14.29,36.52,11,33A18.74,18.74,0,0,1,6.89,13.07,12.1,12.1,0,0,1,10.4,8a22,22,0,0,1,9.74-6C24.36.54,28,.11,34.17.29c9.14.32,16.32,2.72,20.52,7,3,2.89,3.69,4.61,3.69,8.55s-.78,5.84-3.69,8.69a18.85,18.85,0,0,1-8,4.8c-2.51.9-2.61,1-1.61,1.21C55.64,32.9,61,36.69,63.56,43.39c1.45,4,1,10.81-1.15,15-2.89,5.73-8.74,9.35-17.51,10.78-4.79.73-39,.82-39,0Z"/><g class="cls-2"><path class="cls-1" d="M5.93,69.19c0-.29.6-.83,1.36-1.19a7.92,7.92,0,0,0,2.28-2.11c1.76-2.55,2.08-4.72,2.08-14.86V41.86L17,44.54l5.37,2.76V57c0,5.37.11,10,.22,10.31.18.5,1.15.58,6.91.58,3.62,0,7.77-.18,9.17-.36a15.74,15.74,0,0,0,9.49-4.91,16.21,16.21,0,0,0,4.47-15C51.29,40.43,46,34.45,37,29.9l-2.25-1.14L37,28.29a13.32,13.32,0,0,0,9.7-7.59c.83-1.76,1-2.5,1-5.26s-.18-3.55-1-5.27C43.05,2.44,31.47-.32,21.86,4.3a13.06,13.06,0,0,0-6.52,6.12,9,9,0,0,0-1,5,8.55,8.55,0,0,0,1,4.93c1.87,3.62,4.77,5.88,15.44,11.9,7.66,4.34,9.63,5.69,12.35,8.63,5.27,5.69,6.2,12.24,2.58,17.62-.24.35-.57.06-1.25-1.08C42,53.25,37.91,49.88,29.67,45.3,16.81,38.21,14.29,36.52,11,33A18.74,18.74,0,0,1,6.89,13.07,12.1,12.1,0,0,1,10.4,8a22,22,0,0,1,9.74-6C24.36.54,28,.11,34.17.29c9.14.32,16.32,2.72,20.52,7,3,2.89,3.69,4.61,3.69,8.55s-.78,5.84-3.69,8.69a18.85,18.85,0,0,1-8,4.8c-2.51.9-2.61,1-1.61,1.21C55.64,32.9,61,36.69,63.56,43.39c1.45,4,1,10.81-1.15,15-2.89,5.73-8.74,9.35-17.51,10.78-4.79.73-39,.82-39,0Z"/></g></g></g></svg>