<svg id="Layer_1" data-name="Layer 1" xmlns="http://www.w3.org/2000/svg" viewBox="0 0 70 70"><defs><style>.cls-1{fill:#010101;}.cls-2{opacity:0.2;}</style></defs><g id="Layer_2" data-name="Layer 2"><g id="Layer_1-2" data-name="Layer 1-2"><path class="cls-1" d="M8.83,69.58a12,12,0,0,1-3.92-1.21A8.9,8.9,0,0,1,.94,64a10.43,10.43,0,0,1-.63-4.83,10.25,10.25,0,0,1,1-4.9C3.59,49.83,9,46.83,17,45.74a67.3,67.3,0,0,1,6.85-.52h1.32V39.06c0-6.8.06-6.51-.8-7.26a9.59,9.59,0,0,0-3.23-1.49,13.08,13.08,0,0,0-4.95.05c-2.53.75-4.32,1.85-3.86,2.54a8.38,8.38,0,0,1,1,2.3A7.6,7.6,0,0,1,13.67,38c0,1.61,0,1.78-.29,2.3A5.22,5.22,0,0,1,11,42.51a4.07,4.07,0,0,1-2.19.41,8,8,0,0,1-2.07-.06A4.74,4.74,0,0,1,3.3,40.15,5.15,5.15,0,0,1,3,37.79a6.8,6.8,0,0,1,.35-2.65C4.8,30.88,9.92,28,17.29,27.31a37.27,37.27,0,0,1,7.55.29c.17.06.23-.52.23-11.23V5.14H18V1.92h2.36A80.78,80.78,0,0,0,34.8.59c.75-.11,1.49-.23,1.67-.23h.23V66.12h6.22v3.23H25.12V63.53l-.86.92a19,19,0,0,1-9.85,5,30.63,30.63,0,0,1-5.58.17Zm10.08-5.76a7,7,0,0,0,3-1.67,10.85,10.85,0,0,0,2.88-4.61c.29-.8.29-1,.34-5.06V48.27l-1.67.12c-7.19.34-11,2.65-11.8,7a9.38,9.38,0,0,0,.81,5.76,5.9,5.9,0,0,0,6.45,2.65Z"/><path class="cls-1" d="M46.72,67.74V66.12h2.53l2.53-.05-7.25-9.28C38,48.5,37.22,47.41,37.22,47s.34-.75,7.42-7.55l7.43-7.08H44.7V29H66.87v3.34H58.06l-5.3,5.07c-2.88,2.82-5.24,5.12-5.24,5.18s4.15,5.36,9.22,11.81l9.09,11.69,2,.05h2v3.23h-23V67.74Z"/><g class="cls-2"><path class="cls-1" d="M8.83,69.58a12,12,0,0,1-3.92-1.21A8.9,8.9,0,0,1,.94,64a10.43,10.43,0,0,1-.63-4.83,10.25,10.25,0,0,1,1-4.9C3.59,49.83,9,46.83,17,45.74a67.3,67.3,0,0,1,6.85-.52h1.32V39.06c0-6.8.06-6.51-.8-7.26a9.59,9.59,0,0,0-3.23-1.49,13.08,13.08,0,0,0-4.95.05c-2.53.75-4.32,1.85-3.86,2.54a8.38,8.38,0,0,1,1,2.3A7.6,7.6,0,0,1,13.67,38c0,1.61,0,1.78-.29,2.3A5.22,5.22,0,0,1,11,42.51a4.07,4.07,0,0,1-2.19.41,8,8,0,0,1-2.07-.06A4.74,4.74,0,0,1,3.3,40.15,5.15,5.15,0,0,1,3,37.79a6.8,6.8,0,0,1,.35-2.65C4.8,30.88,9.92,28,17.29,27.31a37.27,37.27,0,0,1,7.55.29c.17.06.23-.52.23-11.23V5.14H18V1.92h2.36A80.78,80.78,0,0,0,34.8.59c.75-.11,1.49-.23,1.67-.23h.23V66.12h6.22v3.23H25.12V63.53l-.86.92a19,19,0,0,1-9.85,5,30.63,30.63,0,0,1-5.58.17Zm10.08-5.76a7,7,0,0,0,3-1.67,10.85,10.85,0,0,0,2.88-4.61c.29-.8.29-1,.34-5.06V48.27l-1.67.12c-7.19.34-11,2.65-11.8,7a9.38,9.38,0,0,0,.81,5.76,5.9,5.9,0,0,0,6.45,2.65Z"/><path class="cls-1" d="M46.72,67.74V66.12h2.53l2.53-.05-7.25-9.28C38,48.5,37.22,47.41,37.22,47s.34-.75,7.42-7.55l7.43-7.08H44.7V29H66.87v3.34H58.06l-5.3,5.07c-2.88,2.82-5.24,5.12-5.24,5.18s4.15,5.36,9.22,11.81l9.09,11.69,2,.05h2v3.23h-23V67.74Z"/></g></g></g></svg>