<svg id="Layer_2" data-name="Layer 2" xmlns="http://www.w3.org/2000/svg" width="312" height="91.664" viewBox="0 0 312 91.664">
  <g id="Layer_1" data-name="Layer 1">
    <path id="Path_508" data-name="Path 508" d="M320.9,15.277,294.44,0V30.554Z" transform="translate(-267.98)" fill="#03d0fb"/>
    <path id="Path_509" data-name="Path 509" d="M0,15.277,26.46,0V30.554Z" fill="#03b4fb"/>
    <path id="Path_510" data-name="Path 510" d="M320.93,695.267,294.47,679.99v30.555Z" transform="translate(-268.007 -618.882)" fill="#031efb"/>
    <path id="Path_511" data-name="Path 511" d="M.02,695.286,26.481,680.01v30.554Z" transform="translate(-0.018 -618.9)" fill="#0300be"/>
    <path id="Path_512" data-name="Path 512" d="M0,170v30.554l26.46-15.277Z" transform="translate(0 -154.723)" fill="#0396fb"/>
    <path id="Path_513" data-name="Path 513" d="M26.481,370.545.02,355.267,26.48,339.99Z" transform="translate(-0.018 -309.436)" fill="#0378fb"/>
    <path id="Path_514" data-name="Path 514" d="M294.47,339.99v30.555l26.46-15.277Z" transform="translate(-268.007 -309.436)" fill="#035afb"/>
    <path id="Path_515" data-name="Path 515" d="M320.931,540.545,294.47,525.267l26.461-15.277Z" transform="translate(-268.007 -464.159)" fill="#033cfb"/>
    <path id="Path_516" data-name="Path 516" d="M828.273,225.24a18.884,18.884,0,0,0,7.972,1.905c2.817,0,4.209-.981,4.209-2.532,0-1.471-1.38-2.337-4.859-3.525-5.174-1.831-8.634-4.7-8.634-9.272,0-5.441,4.583-9.616,12.352-9.616a20.1,20.1,0,0,1,8.315,1.574l-1.723,6.586a16.228,16.228,0,0,0-6.683-1.459c-2.511,0-3.889.92-3.889,2.268,0,1.562,1.631,2.189,5.509,3.638,5.543,2.03,8.018,5,8.018,9.273,0,5.315-4.128,9.831-13.105,9.831a22.038,22.038,0,0,1-9.044-1.87Z" transform="translate(-752.416 -184.029)" fill="#333"/>
    <path id="Path_517" data-name="Path 517" d="M1240.192,217.565c0,9.885-5.942,16.184-15.432,16.184-9.535,0-14.771-7.151-14.771-15.693,0-8.956,5.863-16.056,15.284-16.056C1235.163,202,1240.192,209.329,1240.192,217.565Zm-21.484.342c0,5.782,2.516,9.318,6.455,9.318,4,0,6.319-3.855,6.319-9.4,0-5.292-2.373-9.307-6.364-9.307C1221.224,208.52,1218.708,212.249,1218.708,217.906Z" transform="translate(-1101.253 -183.847)" fill="#333"/>
    <path id="Path_518" data-name="Path 518" d="M1696.46,207.54H1716.2v6.729H1704.7v5.669h10.824V226.6H1704.7V238.29h-8.235Z" transform="translate(-1544.005 -188.889)" fill="#333"/>
    <path id="Path_519" data-name="Path 519" d="M2061.7,214.452h-7.835V207.54h24.055v6.912h-7.984V238.29H2061.7Z" transform="translate(-1869.287 -188.889)" fill="#333"/>
    <path id="Path_520" data-name="Path 520" d="M2473.805,207.54v30.75h-8.235V207.54Z" transform="translate(-2243.998 -188.889)" fill="#333"/>
    <path id="Path_521" data-name="Path 521" d="M2735.53,233.731a36.846,36.846,0,0,1-10.619,1.745c-6.034,0-10.174-1.506-12.934-4.152a14.85,14.85,0,0,1-4.38-11.1c.046-10.688,8-16.117,17.964-16.117a22.52,22.52,0,0,1,8.919,1.505l-1.654,6.582a17.621,17.621,0,0,0-7.31-1.3c-5.076,0-9.274,2.657-9.274,8.908,0,5.725,3.719,9.056,8.761,9.056a9.386,9.386,0,0,0,2.589-.261v-5.292h-4.118v-6.4h12.055Z" transform="translate(-2464.275 -185.767)" fill="#333"/>
    <path id="Path_522" data-name="Path 522" d="M3185.6,207.54v11.372h9.991V207.54h8.235v30.75h-8.235v-12.2H3185.6v12.2h-8.235V207.54Z" transform="translate(-2891.822 -188.889)" fill="#333"/>
    <path id="Path_523" data-name="Path 523" d="M822.53,680v4.7h4.551V680h2.76v12.207h-2.76V687.1H822.53v5.108h-2.76V680Z" transform="translate(-746.1 -618.891)" fill="#333"/>
    <path id="Path_524" data-name="Path 524" d="M1006.182,687.043h-4.493v2.9h5.021v2.261h-7.78V680h7.52v2.261h-4.763V684.8h4.493Z" transform="translate(-909.16 -618.891)" fill="#333"/>
    <path id="Path_525" data-name="Path 525" d="M1146.814,680h2.76v9.894h4.853v2.313h-7.617Z" transform="translate(-1043.75 -618.891)" fill="#333"/>
    <path id="Path_526" data-name="Path 526" d="M1290.114,680h2.761v9.894h4.853v2.313h-7.617Z" transform="translate(-1174.172 -618.891)" fill="#333"/>
    <path id="Path_527" data-name="Path 527" d="M1431.128,683.96c0,4.005-2.417,6.425-5.986,6.425-3.62,0-5.752-2.739-5.752-6.221,0-3.649,2.348-6.385,5.942-6.385C1429.082,677.78,1431.128,680.586,1431.128,683.96Zm-8.819.153c0,2.391,1.127,4.078,2.966,4.078,1.866,0,2.933-1.763,2.933-4.134,0-2.2-1.041-4.079-2.939-4.079-1.865,0-2.958,1.761-2.958,4.135Z" transform="translate(-1291.834 -616.87)" fill="#333"/>
    <path id="Path_528" data-name="Path 528" d="M1694.38,680v12.207h-2.76V680Z" transform="translate(-1539.6 -618.891)" fill="#035afb"/>
    <path id="Path_529" data-name="Path 529" d="M1789.36,692.207V680h3.215l2.534,4.478a34.715,34.715,0,0,1,2,4.187l.047-.005a48.344,48.344,0,0,1-.222-5.1V680h2.533v12.207h-2.891l-2.617-4.7a44.837,44.837,0,0,1-2.121-4.313l-.06.005c.09,1.618.12,3.345.12,5.339v3.669Z" transform="translate(-1628.557 -618.891)" fill="#035afb"/>
    <path id="Path_530" data-name="Path 530" d="M1968.73,692.207V680h3.216l2.534,4.478a35.01,35.01,0,0,1,2,4.187l.047-.005a48.335,48.335,0,0,1-.223-5.1V680h2.534v12.207h-2.889l-2.616-4.7a45,45,0,0,1-2.121-4.313l-.061.005c.09,1.618.121,3.345.121,5.339v3.669Z" transform="translate(-1791.807 -618.891)" fill="#035afb"/>
    <path id="Path_531" data-name="Path 531" d="M2153.448,683.96c0,4.005-2.417,6.425-5.987,6.425-3.62,0-5.752-2.739-5.752-6.221,0-3.649,2.347-6.385,5.942-6.385C2151.4,677.78,2153.448,680.586,2153.448,683.96Zm-8.818.153c0,2.391,1.127,4.078,2.966,4.078,1.865,0,2.932-1.763,2.932-4.134,0-2.2-1.041-4.079-2.939-4.079C2145.722,679.975,2144.63,681.74,2144.63,684.113Z" transform="translate(-1949.242 -616.87)" fill="#035afb"/>
    <path id="Path_532" data-name="Path 532" d="M2323.913,692.179,2320,679.973h3.023l1.47,5.167c.427,1.451.8,2.834,1.1,4.356h.038c.309-1.466.7-2.915,1.119-4.314l1.549-5.212h2.936l-4.1,12.207Z" transform="translate(-2111.51 -618.863)" fill="#035afb"/>
    <path id="Path_533" data-name="Path 533" d="M2482.955,689.077l-.861,3.13h-2.854L2482.965,680h3.613l3.8,12.207H2487.4l-.939-3.131Zm3.1-2.056-.76-2.594c-.209-.719-.426-1.637-.614-2.35h-.038c-.18.719-.359,1.645-.559,2.354l-.733,2.586Z" transform="translate(-2256.439 -618.891)" fill="#035afb"/>
    <path id="Path_534" data-name="Path 534" d="M2637.754,682.317h-3.293V680h9.395v2.318h-3.34v9.889h-2.761Z" transform="translate(-2397.711 -618.891)" fill="#035afb"/>
    <path id="Path_535" data-name="Path 535" d="M2798.4,680v12.207h-2.76V680Z" transform="translate(-2544.406 -618.891)" fill="#035afb"/>
    <path id="Path_536" data-name="Path 536" d="M2898.739,683.96c0,4.005-2.417,6.425-5.987,6.425-3.62,0-5.751-2.739-5.751-6.221,0-3.649,2.347-6.385,5.942-6.385C2896.69,677.78,2898.739,680.586,2898.739,683.96Zm-8.82.153c0,2.391,1.128,4.078,2.966,4.078,1.865,0,2.932-1.763,2.932-4.134,0-2.2-1.041-4.079-2.94-4.079C2891.012,679.975,2889.919,681.74,2889.919,684.113Z" transform="translate(-2627.556 -616.87)" fill="#035afb"/>
    <path id="Path_537" data-name="Path 537" d="M3078.19,692.207V680h3.218l2.534,4.478a34.828,34.828,0,0,1,1.994,4.187l.047-.005a48.606,48.606,0,0,1-.222-5.1V680h2.533v12.207H3085.4l-2.617-4.7a44.837,44.837,0,0,1-2.121-4.313l-.06.005c.085,1.618.12,3.345.12,5.339v3.669Z" transform="translate(-2801.564 -618.891)" fill="#035afb"/>
    <path id="Path_538" data-name="Path 538" d="M3253.1,690.766a1.618,1.618,0,1,1,1.617,1.64A1.564,1.564,0,0,1,3253.1,690.766Zm.586-2.554-.4-8.212h2.867l-.4,8.213Z" transform="translate(-2960.756 -618.891)" fill="#035afb"/>
  </g>
</svg>
