<svg id="Layer_1" data-name="Layer 1" xmlns="http://www.w3.org/2000/svg" viewBox="0 0 3810.22 1024"><defs><style>.cls-1{fill:#03d0fb;}.cls-2{fill:#03b4fb;}.cls-3{fill:#031efb;}.cls-4{fill:#0300be;}.cls-5{fill:#0396fb;}.cls-6{fill:#0378fb;}.cls-7{fill:#035afb;}.cls-8{fill:#033cfb;}.cls-9{fill:#333;}</style></defs><polygon class="cls-1" points="815.79 172 521.35 2 521.35 341.99 815.79 172"/><polygon class="cls-2" points="226.9 172 521.35 2 521.35 341.99 226.9 172"/><polygon class="cls-3" points="815.81 851.99 521.37 681.99 521.37 1021.99 815.81 851.99"/><polygon class="cls-4" points="226.93 852 521.37 682.01 521.37 1022 226.93 852"/><polygon class="cls-5" points="226.9 172 226.9 511.99 521.35 341.99 226.9 172"/><polygon class="cls-6" points="521.37 681.99 226.92 511.99 521.37 341.99 521.37 681.99"/><polygon class="cls-7" points="521.37 341.99 521.37 681.99 815.81 511.99 521.37 341.99"/><polygon class="cls-8" points="815.82 851.99 521.37 681.99 815.82 511.99 815.82 851.99"/><path class="cls-9" d="M1020.43,572.66Q987.75,559.28,968.19,533T947.57,469.8h97.5q2.13,20.9,14.46,31.88t32.15,11q20.35,0,32.14-9.38t11.79-26q0-13.92-9.38-23a76.11,76.11,0,0,0-23-15q-13.67-5.88-38.84-13.39-36.45-11.25-59.47-22.5t-39.64-33.21q-16.62-22-16.61-57.33,0-52.5,38-82.23t99.11-29.73q62.15,0,100.18,29.73t40.72,82.77h-99.11q-1.08-18.21-13.39-28.66t-31.61-10.45q-16.62,0-26.79,8.84t-10.18,25.45q0,18.21,17.15,28.39t53.57,22q36.42,12.33,59.2,23.57a112.81,112.81,0,0,1,39.37,32.68q16.6,21.43,16.61,55.18,0,32.15-16.34,58.39t-47.41,41.79q-31.08,15.54-73.39,15.53Q1053.09,586.05,1020.43,572.66Z"/><path class="cls-9" d="M1430.52,561.41a184.14,184.14,0,0,1-70.18-68.84q-26-44.2-26-99.38t26-99.11a184.8,184.8,0,0,1,70.18-68.57q44.19-24.63,97.23-24.64T1625,225.51a181,181,0,0,1,69.64,68.57q25.44,43.94,25.45,99.11t-25.72,99.38a182.82,182.82,0,0,1-69.64,68.84q-43.93,24.65-97,24.64T1430.52,561.41Zm169.29-88.93q27-30,27-79.29,0-49.81-27-79.55t-72.06-29.74q-45.54,0-72.59,29.47t-27.05,79.82q0,49.83,27.05,79.56t72.59,29.73Q1572.75,502.48,1599.81,472.48Z"/><path class="cls-9" d="M2077.94,206.22v73.4H1924.72v79.29h114.65v71.25H1924.72V582.3h-91.61V206.22Z"/><path class="cls-9" d="M2458.84,206.22v73.4H2359.2V582.3h-91.61V279.62h-99.65v-73.4Z"/><path class="cls-9" d="M2658.66,206.22V582.3h-91.61V206.22Z"/><path class="cls-9" d="M3036.88,325.16a68.67,68.67,0,0,0-29.19-28.67q-19-9.9-44.74-9.91-44.47,0-71.25,29.2t-26.79,78q0,52,28.13,81.16t77.41,29.2q33.75,0,57.06-17.15t34-49.28H2945.27v-67.5h199.29v85.18q-10.17,34.29-34.55,63.75t-61.88,47.68Q3010.63,585,2963.49,585q-55.72,0-99.38-24.37a173.61,173.61,0,0,1-68-67.77q-24.37-43.39-24.37-99.11t24.37-99.38a173.74,173.74,0,0,1,67.77-68Q2907.23,202,2963,201.94q67.5,0,113.84,32.68t61.35,90.54Z"/><path class="cls-9" d="M3583.32,206.22V582.3h-91.61V427.48h-142.5V582.3H3257.6V206.22h91.61V353.55h142.5V206.22Z"/><path class="cls-9" d="M1069.17,681.13v140.4H1035v-57.8h-53.2v57.8h-34.2V681.13h34.2v55H1035v-55Z"/><path class="cls-9" d="M1157,708.53v28.4h45.8v26.4H1157v30.8h51.8v27.4h-86V681.13h86v27.4Z"/><path class="cls-9" d="M1294.16,795.13H1339v26.4h-79V681.13h34.2Z"/><path class="cls-9" d="M1418.56,795.13h44.8v26.4h-79V681.13h34.2Z"/><path class="cls-9" d="M1538.86,813.73a68.7,68.7,0,0,1-26.2-25.7q-9.71-16.5-9.7-37.1t9.7-37a69,69,0,0,1,26.2-25.6,76.21,76.21,0,0,1,72.6,0,67.66,67.66,0,0,1,26,25.6q9.49,16.41,9.5,37t-9.6,37.1a68.26,68.26,0,0,1-26,25.7,76,76,0,0,1-72.5,0Zm63.2-33.2q10.1-11.19,10.1-29.6,0-18.6-10.1-29.7t-26.9-11.1q-17,0-27.1,11t-10.1,29.8q0,18.6,10.1,29.7t27.1,11.1Q1592,791.73,1602.06,780.53Z"/><path class="cls-7" d="M1800.55,681.13v140.4h-34.19V681.13Z"/><path class="cls-7" d="M1980,821.53h-34.2l-57.2-86.6v86.6h-34.2V681.13h34.2l57.2,87v-87H1980Z"/><path class="cls-7" d="M2159.35,821.53h-34.2l-57.2-86.6v86.6h-34.2V681.13H2068l57.2,87v-87h34.2Z"/><path class="cls-7" d="M2243.25,813.73a68.77,68.77,0,0,1-26.2-25.7q-9.71-16.5-9.7-37.1t9.7-37a69.09,69.09,0,0,1,26.2-25.6,76.21,76.21,0,0,1,72.6,0,67.59,67.59,0,0,1,26,25.6q9.51,16.41,9.5,37t-9.6,37.1a68.19,68.19,0,0,1-26,25.7,76,76,0,0,1-72.5,0Zm63.2-33.2q10.11-11.19,10.1-29.6,0-18.6-10.1-29.7t-26.9-11.1q-17,0-27.1,11t-10.1,29.8q0,18.6,10.1,29.7t27.1,11.1Q2296.35,791.73,2306.45,780.53Z"/><path class="cls-7" d="M2531.15,681.13l-49.8,140.4h-42.8l-49.8-140.4h36.4l34.8,106,35-106Z"/><path class="cls-7" d="M2661.75,796.73h-52.4l-8.4,24.8h-35.8l50.8-140.4h39.6l50.8,140.4h-36.2Zm-8.8-26.4-17.4-51.4-17.2,51.4Z"/><path class="cls-7" d="M2851.75,681.13v27.4h-37.2v113h-34.2v-113h-37.2v-27.4Z"/><path class="cls-7" d="M2932.15,681.13v140.4H2898V681.13Z"/><path class="cls-7" d="M3016.05,813.73a68.7,68.7,0,0,1-26.2-25.7q-9.7-16.5-9.7-37.1t9.7-37a69,69,0,0,1,26.2-25.6,76.21,76.21,0,0,1,72.6,0,67.66,67.66,0,0,1,26,25.6q9.49,16.41,9.5,37t-9.6,37.1a68.26,68.26,0,0,1-26,25.7,76,76,0,0,1-72.5,0Zm63.2-33.2q10.1-11.19,10.1-29.6,0-18.6-10.1-29.7t-26.9-11.1q-17,0-27.1,11t-10.1,29.8q0,18.6,10.1,29.7t27.1,11.1Q3069.15,791.73,3079.25,780.53Z"/><path class="cls-7" d="M3297.75,821.53h-34.2l-57.2-86.6v86.6h-34.2V681.13h34.2l57.2,87v-87h34.2Z"/><path class="cls-7" d="M3363.85,817.83a17.17,17.17,0,0,1-5.7-13.1,17.72,17.72,0,0,1,5.7-13.4q5.7-5.4,14.7-5.4,8.79,0,14.5,5.4a17.72,17.72,0,0,1,5.7,13.4,17.17,17.17,0,0,1-5.7,13.1q-5.7,5.31-14.5,5.3Q3369.55,823.13,3363.85,817.83Zm32.7-141.7-4,95.8h-29l-4-95.8Z"/></svg>