<svg id="Layer_1" data-name="Layer 1" xmlns="http://www.w3.org/2000/svg" viewBox="0 0 47 47"><defs><style>.cls-1{fill:#fff;}.cls-2{fill:#707071;}</style></defs><circle class="cls-1" cx="23.5" cy="23.5" r="22.77"/><path class="cls-2" d="M23.5,46.75A23.25,23.25,0,1,1,46.75,23.5,23.28,23.28,0,0,1,23.5,46.75Zm0-45.53A22.28,22.28,0,1,0,45.78,23.5,22.3,22.3,0,0,0,23.5,1.22Z"/><polyline class="cls-1" points="31.12 17.23 37.4 23.5 31.12 29.77"/><path class="cls-2" d="M31.12,30.26a.49.49,0,0,1-.34-.14.49.49,0,0,1,0-.69l5.93-5.93-5.93-5.93a.49.49,0,0,1,0-.69.48.48,0,0,1,.68,0l6.28,6.28a.48.48,0,0,1,0,.68l-6.28,6.28A.49.49,0,0,1,31.12,30.26Z"/><path class="cls-2" d="M37.4,24H9.61a.48.48,0,1,1,0-1H37.4a.48.48,0,1,1,0,1Z"/></svg>