<svg xmlns="http://www.w3.org/2000/svg" width="1297.516" height="770.322" viewBox="0 0 1297.516 770.322">
  <g id="Group_1113" data-name="Group 1113" transform="translate(0.951 0.499)">
    <g id="Group_739" data-name="Group 739" transform="translate(0 68.873)" opacity="0.95">
      <g id="Ellipse_15" data-name="Ellipse 15" transform="translate(75.049 74.95)" fill="none" stroke="#fadc9b" stroke-linecap="round" stroke-width="1" stroke-dasharray="6">
        <circle cx="30" cy="30" r="30" stroke="none"/>
        <circle cx="30" cy="30" r="29.5" fill="none"/>
      </g>
      <g id="Ellipse_16" data-name="Ellipse 16" transform="translate(65.049 64.95)" fill="none" stroke="#fadc9b" stroke-linecap="round" stroke-width="1" stroke-dasharray="6">
        <circle cx="40.5" cy="40.5" r="40.5" stroke="none"/>
        <circle cx="40.5" cy="40.5" r="40" fill="none"/>
      </g>
      <g id="Ellipse_17" data-name="Ellipse 17" transform="translate(55.049 54.95)" fill="none" stroke="#fadc9b" stroke-linecap="round" stroke-width="1" stroke-dasharray="6">
        <circle cx="50.5" cy="50.5" r="50.5" stroke="none"/>
        <circle cx="50.5" cy="50.5" r="50" fill="none"/>
      </g>
      <g id="Ellipse_18" data-name="Ellipse 18" transform="translate(43.049 42.95)" fill="none" stroke="#fadc9b" stroke-linecap="round" stroke-width="1" stroke-dasharray="6">
        <circle cx="62" cy="62" r="62" stroke="none"/>
        <circle cx="62" cy="62" r="61.5" fill="none"/>
      </g>
      <g id="Ellipse_19" data-name="Ellipse 19" transform="translate(32.049 31.95)" fill="none" stroke="#fadc9b" stroke-linecap="round" stroke-width="1" stroke-dasharray="6">
        <circle cx="73" cy="73" r="73" stroke="none"/>
        <circle cx="73" cy="73" r="72.5" fill="none"/>
      </g>
      <g id="Ellipse_20" data-name="Ellipse 20" transform="translate(23.049 22.95)" fill="none" stroke="#fadc9b" stroke-linecap="round" stroke-width="1" stroke-dasharray="6">
        <circle cx="82.5" cy="82.5" r="82.5" stroke="none"/>
        <circle cx="82.5" cy="82.5" r="82" fill="none"/>
      </g>
      <g id="Ellipse_21" data-name="Ellipse 21" transform="translate(11.049 10.95)" fill="none" stroke="#fadc9b" stroke-linecap="round" stroke-width="1" stroke-dasharray="6">
        <ellipse cx="94" cy="94.5" rx="94" ry="94.5" stroke="none"/>
        <ellipse cx="94" cy="94.5" rx="93.5" ry="94" fill="none"/>
      </g>
      <g id="Ellipse_22" data-name="Ellipse 22" transform="translate(0.049 -0.05)" fill="none" stroke="#fadc9b" stroke-linecap="round" stroke-width="1" stroke-dasharray="6" opacity="0.56">
        <circle cx="105.5" cy="105.5" r="105.5" stroke="none"/>
        <circle cx="105.5" cy="105.5" r="105" fill="none"/>
      </g>
    </g>
    <g id="Group_778" data-name="Group 778" transform="translate(0 0)">
      <path id="Path_845" data-name="Path 845" d="M1647.221,2160s-302.385,19.014-401.949,92.648c-32.436,23.988-55.66,71.546-24.231,102.625,128.282,126.856,220.929-141.11,0-119.729S886.084,2500.659,1044.3,2564.8s399.1,279.368,252.287,272.242,18.53-143.96,132.557-59.865,8.552,156.789,143.96,94.073,82.67-109.752,82.67-109.752" transform="translate(-369.835 -2160)" fill="none" stroke="#033cfb" stroke-width="1" opacity="0.51"/>
      <g id="Group_734" data-name="Group 734" transform="translate(0 625.947)">
        <line id="Line_21" data-name="Line 21" y2="143" transform="translate(0.049 -0.124)" fill="none" stroke="#ff7b6b" stroke-linecap="round" stroke-width="2" stroke-dasharray="12 18" opacity="0.58"/>
        <line id="Line_21-2" data-name="Line 21" y2="143" transform="translate(15.049 -0.124)" fill="none" stroke="#ff7b6b" stroke-linecap="round" stroke-width="2" stroke-dasharray="12 18" opacity="0.58"/>
        <line id="Line_21-3" data-name="Line 21" y2="143" transform="translate(32.049 -0.124)" fill="none" stroke="#ff7b6b" stroke-linecap="round" stroke-width="2" stroke-dasharray="12 18" opacity="0.58"/>
        <line id="Line_21-4" data-name="Line 21" y2="143" transform="translate(47.049 -0.124)" fill="none" stroke="#ff7b6b" stroke-linecap="round" stroke-width="2" stroke-dasharray="12 18" opacity="0.58"/>
        <line id="Line_21-5" data-name="Line 21" y2="143" transform="translate(63.049 -0.124)" fill="none" stroke="#ff7b6b" stroke-linecap="round" stroke-width="2" stroke-dasharray="12 18" opacity="0.58"/>
        <line id="Line_21-6" data-name="Line 21" y2="143" transform="translate(78.049 -0.124)" fill="none" stroke="#ff7b6b" stroke-linecap="round" stroke-width="2" stroke-dasharray="12 18" opacity="0.58"/>
      </g>
    </g>
  </g>
</svg>
