<svg xmlns="http://www.w3.org/2000/svg" width="19.947" height="19.946" viewBox="0 0 19.947 19.946">
  <g id="tag" opacity="0.45">
    <path id="Path_755" data-name="Path 755" d="M17.8,0H10.23A.585.585,0,0,0,9.817.17L.628,9.359a2.15,2.15,0,0,0,0,3.037l6.923,6.923a2.133,2.133,0,0,0,1.518.627h0a2.132,2.132,0,0,0,1.518-.627l9.189-9.189a.585.585,0,0,0,.171-.413V2.146A2.15,2.15,0,0,0,17.8,0Zm.978,9.475L9.761,18.492a.983.983,0,0,1-1.384,0L1.454,11.569a.98.98,0,0,1,0-1.384l9.018-9.017H17.8a.98.98,0,0,1,.979.978Zm0,0" transform="translate(0 0.001)"/>
    <path id="Path_756" data-name="Path 756" d="M334.488,85.078a1.836,1.836,0,1,0,1.3.538A1.824,1.824,0,0,0,334.488,85.078Zm.472,2.308a.667.667,0,1,1,.2-.472A.663.663,0,0,1,334.96,87.386Zm0,0" transform="translate(-319.692 -81.763)"/>
  </g>
</svg>
