<svg xmlns="http://www.w3.org/2000/svg" viewBox="0 0 109 109"><defs><style>.cls-1{fill:#1c75bc;}.cls-2{fill:#808285;}.cls-3{fill:#ffd15c;}.cls-4{fill:#bf272e;}.cls-5{fill:#ed1c24;}.cls-6{fill:#6d6e71;}.cls-7{fill:#f8b54d;}.cls-8{fill:#334b5e;}</style></defs><g id="Layer_2" data-name="Layer 2"><g id="Layer_1-2" data-name="Layer 1"><circle class="cls-1" cx="54.5" cy="54.5" r="54.5"/><path class="cls-2" d="M54.76,77.93c-.09,0-.17.09-.35.09s-.17-.09-.34-.09Z"/><path class="cls-2" d="M98.36,86.69a54.44,54.44,0,0,1-87.89,0c7.73-8.24,18.2-12.62,27-14.85C36.65,78.1,39.91,86.51,40,86.26,43.26,78.7,54.33,78,54.33,78s11.07.6,14.42,8.24c.08.17,3.34-8.16,2.57-14.42C80.16,74.07,90.63,78.45,98.36,86.69Z"/><path class="cls-3" d="M68,66.09h0c0,1.11-.68,7-13.21,11.84h-.69C41.54,73.12,40.85,67.2,40.85,66.09h0a17.3,17.3,0,0,1,1.55-6.53C45.83,63.43,50,66,54.41,66s8.59-2.49,12-6.44A15.91,15.91,0,0,1,68,66.09Z"/><path class="cls-4" d="M61.88,79.9l-2.75,5.5H49.69L47,79.9A25.42,25.42,0,0,1,54.41,78,24.89,24.89,0,0,1,61.88,79.9Z"/><path class="cls-5" d="M46.78,108.49a56.88,56.88,0,0,0,7.72.51,58.88,58.88,0,0,0,7.72-.51l-3-23H49.78Z"/><path class="cls-6" d="M68,65.91S68.58,72.78,54.41,78c0,0,11.08.6,14.42,8.24C68.92,86.6,75.36,70,68,65.91Z"/><path class="cls-6" d="M40.85,65.91c-7.29,4-.94,20.6-.77,20.35C43.34,78.7,54.5,78,54.5,78,40.25,72.78,40.85,65.91,40.85,65.91Z"/><path class="cls-7" d="M67.12,61.28c-3.61,3.86-7.9,6.35-12.71,6.35s-9.09-2.49-12.7-6.35a10.12,10.12,0,0,1,.69-1.72C45.83,63.43,50,66,54.41,66s8.59-2.49,12-6.44A11,11,0,0,1,67.12,61.28Z"/><path class="cls-3" d="M77.84,48.15c-1.8,3-4.54,4.81-6.6,4.46-4.12,7.64-10.13,13.3-16.83,13.3s-12.7-5.75-16.82-13.3c-2.06.26-4.8-1.46-6.61-4.46-2.14-3.52-2.23-7.38-.17-8.67a2.64,2.64,0,0,1,1.63-.34A20.83,20.83,0,0,0,35.7,44.8c-2-10.9,6.1-12.1,4.72-22.57,0,0,5.07,11.24,19.57,3.35l-1.11,2.14C79.13,23.17,72.35,47,72.18,47.63a26.71,26.71,0,0,0,4.63-8.49,2.07,2.07,0,0,1,1,.34C80.08,40.68,80,44.63,77.84,48.15Z"/><path class="cls-8" d="M66.09,10.9c1.63-.17,4.29,1.29,4.29,1.29-7.3-8.33-19.23-3-19.23-3,4-3.43,7.64-3.09,7.64-3.09-17.08-2.57-20,7.64-20,7.64A6.33,6.33,0,0,1,38.11,10c-1.2,2.06.08,6.18.08,6.18-1.2-3-5.4-2.49-5.4-2.49,3.6.6,4.2,2.83,4.2,2.83-9,3.35-7.47,12.7-7.47,12.7l2.15-2.57C29,36.82,35.79,44.72,35.79,44.72c-2-10.9,6.09-12.11,4.72-22.58,0,0,5.06,11.25,19.57,3.35L59,27.64c20.52-4.64,13.31,20,13.31,20a27.72,27.72,0,0,0,6.18-18.79l.85,3.43C81.62,16.82,66.09,10.9,66.09,10.9Z"/></g></g></svg>