<svg xmlns="http://www.w3.org/2000/svg" viewBox="0 0 109 109"><defs><style>.cls-1{fill:#f15a29;}.cls-2{fill:#00a79d;}.cls-3{fill:#fff;}.cls-4{fill:#2bb673;}.cls-5{fill:#334b5e;}</style></defs><g id="Layer_2" data-name="Layer 2"><g id="Layer_1-2" data-name="Layer 1"><circle class="cls-1" cx="54.5" cy="54.5" r="54.5"/><path class="cls-2" d="M54.76,77.84c-.09,0-.17.09-.26.09s-.17-.09-.26-.09Z"/><path class="cls-2" d="M96.81,88.83a54.46,54.46,0,0,1-84.62,0c7.12-9.53,18-14.25,27-16.56-.69,5.66,2.23,13.21,2.31,13,3-6.86,13-7.47,13-7.47s10,.61,13,7.47c.09.17,3.09-7.38,2.32-13C78.79,74.58,89.77,79.3,96.81,88.83Z"/><path class="cls-3" d="M66.77,66.94V67c0,.86-.43,6.35-12,10.73h-.52c-11.58-4.38-12-9.87-12-10.73v-.09a14.85,14.85,0,0,1,.51-3.34c3.35,4.2,7.38,7,11.76,7s8.41-2.84,11.76-7A14.85,14.85,0,0,1,66.77,66.94Z"/><path class="cls-4" d="M66.77,66.94s.6,6.18-12.27,11c0,0,10,.6,13,7.47C67.63,85.57,73.38,70.64,66.77,66.94Z"/><path class="cls-4" d="M42.23,66.94c-6.61,3.7-.86,18.63-.69,18.37,3-6.86,13-7.47,13-7.47C41.63,73.12,42.23,66.94,42.23,66.94Z"/><path class="cls-3" d="M72.52,45.23a24.45,24.45,0,0,1-7,14.08,16.47,16.47,0,0,1-2.32,2L61.88,56.9H47.12l-1.37,4.38c-2.75-2.06-8.5-7.81-8.59-13.22-2.4-30.81,21.2-24.29,21.2-24.29C74.24,22.66,73.73,36.65,72.52,45.23Z"/><path class="cls-3" d="M75.7,50.81a8.75,8.75,0,0,1-4.38,3.86,36.45,36.45,0,0,0,1.55-4.29v-.09l1-3.86h-.09c.34-1.29.69-2.57,1-3.86a2.5,2.5,0,0,1,1,.34C77.67,44.11,77.59,47.63,75.7,50.81Z"/><path class="cls-3" d="M37.68,54.67a8.75,8.75,0,0,1-4.38-3.86c-2-3.18-2-6.7-.09-7.81.18-.09.26-.17.43-.17a59.91,59.91,0,0,0,2.49,7.64A41.92,41.92,0,0,0,37.68,54.67Z"/><path id="SVGCleanerId_0" data-name="SVGCleanerId 0" class="cls-5" d="M63.86,15.19C64.54,7.3,52,7.81,52,7.81,33,10.56,31,28.24,31,28.24l2.58-3.09c-4,8.84,2.06,24,2.57,25.23C39.31,60.94,46.35,70.64,54.5,70.64s15.19-9.7,18.37-20.26h0v-.09c.34-1.28.68-2.57.94-3.86h-.08c1.71-6.86,3.6-13.82,3.6-13.82C82.22,8,63.86,15.19,63.86,15.19Zm8.66,30a24.45,24.45,0,0,1-7,14.08,22.71,22.71,0,0,1-2.32,2L61.88,57H47.12l-1.37,4.38a27,27,0,0,1-7-8.16,18.54,18.54,0,0,1-1.63-5.06c-2.4-30.81,21.2-24.29,21.2-24.29C74.24,22.66,73.73,36.65,72.52,45.23Z"/><path id="SVGCleanerId_0-2" data-name="SVGCleanerId 0" class="cls-5" d="M63.86,15.19C64.54,7.3,52,7.81,52,7.81,33,10.56,31,28.24,31,28.24l2.58-3.09c-4,8.84,2.06,24,2.57,25.23C39.31,60.94,46.35,70.64,54.5,70.64s15.19-9.7,18.37-20.26h0v-.09c.34-1.28.68-2.57.94-3.86h-.08c1.71-6.86,3.6-13.82,3.6-13.82C82.22,8,63.86,15.19,63.86,15.19Zm8.66,30a24.45,24.45,0,0,1-7,14.08,22.71,22.71,0,0,1-2.32,2L61.88,57H47.12l-1.37,4.38a27,27,0,0,1-7-8.16,18.54,18.54,0,0,1-1.63-5.06c-2.4-30.81,21.2-24.29,21.2-24.29C74.24,22.66,73.73,36.65,72.52,45.23Z"/><path class="cls-5" d="M63.86,15.19C64.54,7.3,52,7.81,52,7.81,33,10.56,31,28.24,31,28.24l2.58-3.09c-4,8.84,2.06,24,2.57,25.23C39.31,60.94,46.35,70.64,54.5,70.64s15.19-9.7,18.37-20.26h0v-.09c.34-1.28.68-2.57.94-3.86h-.08c1.71-6.86,3.6-13.82,3.6-13.82C82.22,8,63.86,15.19,63.86,15.19Zm8.66,30a24.45,24.45,0,0,1-7,14.08,22.71,22.71,0,0,1-2.32,2L61.88,57H47.12l-1.37,4.38c-2.75-2.06-8.5-7.81-8.59-13.22-2.4-30.81,21.2-24.29,21.2-24.29C74.24,22.66,73.73,36.65,72.52,45.23Z"/><path class="cls-3" d="M48.49,59.91a8.11,8.11,0,0,0,6,2.74,7.84,7.84,0,0,0,6-2.74Z"/></g></g></svg>