<svg xmlns="http://www.w3.org/2000/svg" viewBox="0 0 108.98 109"><defs><style>.cls-1{fill:#39b54a;}.cls-2{fill:#e7e9ed;}.cls-3{fill:#f8b54d;}.cls-4{fill:#58595b;}.cls-5{fill:#414042;}.cls-6{fill:#fff;}.cls-7{fill:#ffd15c;}.cls-8{fill:#334b5e;}</style></defs><g id="Layer_2" data-name="Layer 2"><g id="Layer_1-2" data-name="Layer 1"><circle class="cls-1" cx="54.49" cy="54.49" r="54.49"/><path class="cls-2" d="M66.4,66.6A28.38,28.38,0,0,1,68,71.17c.51,1.83,1,3.67,1.57,5.5.89,3.13,1.77,6.54.54,9.54a12.81,12.81,0,0,1-3.41,4.38,49.69,49.69,0,0,1-4.79,3.87A16.89,16.89,0,0,1,57.14,97a18.82,18.82,0,0,1-5.76.49,8.46,8.46,0,0,1-3.67-.62,6,6,0,0,1-2.24-2.12c-2.14-3.19-2.2-7.29-2.2-11.13,0-5.89,0-11.78,0-17.7a12.5,12.5,0,0,1,.28-3.23c.86-3.22,4.17-5.23,7.45-5.81a10.1,10.1,0,0,1,4,0,11.94,11.94,0,0,1,3.41,1.47A20,20,0,0,1,66.4,66.6Z"/><path class="cls-3" d="M54.49,38.39c-4.49,0-8.11,8.78-8.11,14.48a11.43,11.43,0,0,0,3.19,8.18l.69-.07a3.79,3.79,0,0,1,1.12.16,5.11,5.11,0,0,1,1,.41c.06,0,.28.17.43.28l.21.1a3.86,3.86,0,0,1,.65.39c.17.13.33.24.5.35s.19.13.28.19h0a8.13,8.13,0,0,1,.78-.52,3.17,3.17,0,0,1,.45-.23c.22-.09.35-.18.45-.22a4,4,0,0,1,1.13-.52A3.57,3.57,0,0,1,59,61.31a.1.1,0,0,1,.07,0,11.26,11.26,0,0,0,3.54-8.48C62.6,47.2,59,38.39,54.49,38.39Z"/><path class="cls-4" d="M30.71,101.66c.11.63.17,1.28.24,2a53.75,53.75,0,0,1-12.39-8.2c2.07-24,6.21-30.78,6.21-30.78l0,0,8.13,13.16-3.3,20.24v0A11,11,0,0,1,30.71,101.66Z"/><path class="cls-5" d="M56.63,108.94c-.72,0-1.43,0-2.14,0s-1.43,0-2.14,0a54.12,54.12,0,0,1-21.15-5.18c-.15-.78-.32-1.47-.49-2.1-.54-2-1-3.36-1.08-3.54v0C31.2,81,25.14,65.54,24.82,64.7a.08.08,0,0,0,0,0c1.7-2,9.68-3.92,14.76-5,2.5-.52,4.31-.84,4.31-.84l-.13,2.76.09.45,1.7,10.83s4.3,10.23,7.6,18.74a.07.07,0,0,0,0,0c.48,1.27,1,2.5,1.38,3.67a3,3,0,0,1,.11.32c.15.45.32.91.48,1.34l.12.37a7,7,0,0,1,.26.77h0a20.91,20.91,0,0,1,.85,4.4c.12,1.17.19,2.49.25,3.87C56.6,107.21,56.63,108.05,56.63,108.94Z"/><path class="cls-4" d="M45.66,54.29S51.36,91,55.48,98.12c0,0-11.93-6.94-16.61-29.43l3.51-1.21-5.11-4.25A22,22,0,0,1,45.66,54.29Z"/><path class="cls-6" d="M54.49,62.86s-5.87-4-8.55,3.5c0,0-1.31-12.76.59-15.11A26.45,26.45,0,0,0,54.49,62.86Z"/><path class="cls-5" d="M79.37,98.12h0l-3.3-20.26L84.2,64.7a.07.07,0,0,1,0,0s4.14,6.76,6.21,30.78a55.42,55.42,0,0,1-12.39,8.2c.07-.69.13-1.36.24-2A10.51,10.51,0,0,1,79.37,98.12Z"/><path class="cls-4" d="M84.18,64.72c-.32.84-6.38,16.27-4.81,33.4v0a33,33,0,0,0-1.08,3.53c-.15.63-.32,1.34-.49,2.1A54.48,54.48,0,0,1,56.65,109c-.71,0-1.43,0-2.14,0s-1.42,0-2.14,0c.05-4.6.37-8.57,1.15-10.81h0a5.07,5.07,0,0,1,.24-.65,3.06,3.06,0,0,1,.17-.48c.15-.43.3-.86.47-1.33l.13-.33c.43-1.16.91-2.42,1.38-3.69v0c3.28-8.52,7.6-18.73,7.6-18.73l1.4-8.85.39-2.44-.13-2.76s1.81.32,4.34.84c5.09,1.08,13,3,14.76,5C84.2,64.67,84.2,64.7,84.18,64.72Z"/><path class="cls-5" d="M63.32,54.29S57.62,91,53.5,98.12c0,0,11.93-6.94,16.61-29.43L66.6,67.48l5.11-4.25A22,22,0,0,0,63.32,54.29Z"/><path class="cls-6" d="M54.49,62.86s5.87-4,8.54,3.5c0,0,1.32-12.76-.58-15.11A26.45,26.45,0,0,1,54.49,62.86Z"/><circle class="cls-5" cx="57.29" cy="104.4" r="2.11"/><path class="cls-3" d="M70.57,35.33c-1.1,2.72-3.8,5.59-5.49,5.09s-1.7-4.14-.58-6.86,2.94-3.46,4.6-3S71.69,32.61,70.57,35.33Z"/><path class="cls-3" d="M38.41,35.33c1.1,2.72,3.8,5.59,5.48,5.09s1.71-4.14.59-6.86-2.94-3.46-4.6-3S37.29,32.61,38.41,35.33Z"/><ellipse class="cls-7" cx="54.49" cy="35.46" rx="13.08" ry="16.94"/><path class="cls-7" d="M61.22,30.3,58.7,20.11s3.32-4,4.23-3.84,5.93,5.48,5.93,5.48V32.48l-1.38,2.78L62,32.89Z"/><polygon class="cls-7" points="51.4 21.23 43.2 19.68 40.44 22.42 39.97 28.44 41.54 35.07 52.05 32.22 51.4 21.23"/><path class="cls-8" d="M52.37,11.39s4.19-7,12,0a10,10,0,0,0-3.19,0s13.06.89,9.67,15.91a12.31,12.31,0,0,1-3.39,8s4.06-17.24-6.6-13c0,0-6.93,3.9-11.89-.18,0,0-9.54-2.76-7.45,13,0,0-11.09-19.94,1.17-22.47,0,0,3.19-6.93,14.89-5.11A5.58,5.58,0,0,0,52.37,11.39Z"/></g></g></svg>