<svg xmlns="http://www.w3.org/2000/svg" viewBox="0 0 109 109"><defs><style>.cls-1{fill:#ef4136;}.cls-2{fill:#ffdfbb;}.cls-3{fill:#2b3990;}.cls-4{fill:#ffebd3;}.cls-5{fill:#43444e;}.cls-6{fill:#1c75bc;}.cls-7{fill:#4e4f5a;}.cls-8{fill:#fff4e5;}.cls-9{fill:#262262;}</style></defs><g id="Layer_2" data-name="Layer 2"><g id="Layer_1-2" data-name="Layer 1"><path class="cls-1" d="M109,54.5A54.4,54.4,0,0,1,87.65,97.76h0a53.1,53.1,0,0,1-6.49,4.28,54.57,54.57,0,0,1-53.3,0,53.1,53.1,0,0,1-6.49-4.28h0A54.5,54.5,0,1,1,109,54.5Z"/><path class="cls-2" d="M27.85,102.05a54.57,54.57,0,0,0,53.3,0,53.1,53.1,0,0,0,6.49-4.28l0,.37c0-.13,0-.25,0-.38l0-.23A12.14,12.14,0,0,0,87.41,96a2,2,0,0,0,0-.26.24.24,0,0,0,0-.09c0-.24-.1-.47-.16-.7a2.45,2.45,0,0,0-.08-.29c0-.19-.1-.37-.16-.54s-.12-.38-.19-.56a.49.49,0,0,0,0-.11c0-.07,0-.13-.07-.2l-.15-.38-.06-.15c-.08-.2-.17-.39-.26-.57a.61.61,0,0,0-.07-.14v0L86,91.86c-.08-.17-.17-.34-.26-.5a0,0,0,0,0,0,0c-.12-.23-.25-.45-.38-.66l-.1-.15c-.07-.12-.14-.24-.22-.35q-.26-.41-.54-.78l0-.06c-.1-.14-.2-.27-.31-.4l-.26-.31a0,0,0,0,0,0,0l-.34-.39A13,13,0,0,0,82.28,87a2.79,2.79,0,0,0-.32-.28,0,0,0,0,0,0,0l-.19-.16-.56-.44c-.2-.15-.39-.29-.59-.42h0c-.21-.15-.42-.28-.64-.41s-.44-.27-.67-.39-.55-.29-.83-.42l-.19-.09,1.91-1.51a21.94,21.94,0,0,0,2-1.76l.25-.26q.28-.28.54-.57l.41-.47.57-.69q.39-.49.75-1c.19-.27.38-.55.56-.84l0,0c.11-.18.23-.36.33-.54s.28-.47.4-.7a2,2,0,0,0,.13-.25c.22-.4.42-.81.6-1.22s.25-.55.36-.83a.69.69,0,0,0,0-.13c.15-.35.28-.68.4-1l0-.06c.15-.46.3-.93.43-1.4a22.49,22.49,0,0,0,.62-3.15c0-.24.06-.49.08-.73s0-.4,0-.6l0-.43c0-.38,0-.76,0-1.15s0-.62,0-.93c0-.09,0-.19,0-.29q0-.41-.06-.81c0-.35-.07-.69-.12-1s-.09-.65-.15-1a.07.07,0,0,0,0,0c0-.28-.11-.55-.17-.82s-.18-.79-.29-1.18-.23-.77-.36-1.16-.18-.53-.28-.79a16.42,16.42,0,0,0-.66-1.55c-.24-.52-.5-1-.78-1.52s-.59-1-.88-1.43l0,0c-.12-.18-.23-.36-.34-.54l-.18-.3c-.14-.23-.27-.46-.4-.69-.3-.53-.57-1.06-.81-1.6L83,48.71a22.77,22.77,0,0,1-1-3c-.15-.55-.27-1.06-.36-1.58s-.14-.85-.19-1.28c0-.28-.06-.55-.08-.83-.06-.68-.09-1.43-.1-2.29,0-2.08,0-4.84,0-9a19.09,19.09,0,0,0-.17-2.64c0-.25-.06-.5-.1-.74s-.1-.64-.17-1-.13-.61-.21-.91-.2-.78-.32-1.16-.22-.67-.34-1a21.21,21.21,0,0,0-1.75-3.66c-.16-.28-.34-.55-.51-.82a21.57,21.57,0,0,0-2.56-3.16l-.3-.3a15.51,15.51,0,0,0-1.2-1.09,4.82,4.82,0,0,0-.43-.36c-.24-.2-.48-.39-.73-.57L72,13.1c-.21-.15-.43-.29-.65-.43a2.7,2.7,0,0,0-.31-.2l-.31-.19c-.41-.25-.82-.48-1.25-.7l-.11-.06-.12-.06c-.33-.16-.66-.32-1-.46a.88.88,0,0,0-.2-.09l-.22-.09-.43-.17-.36-.14-.42-.14a5.66,5.66,0,0,0-.58-.2l-.11,0-.84-.24-.2-.05-.43-.11-.34-.07-.15,0-.09,0-.27,0-.43-.07a.27.27,0,0,0-.13,0l-.33-.05a.64.64,0,0,0-.2,0l-.45-.06H62l-.15,0q-.37,0-.75-.06h-.47l-1,0H49.33A21.55,21.55,0,0,0,27.78,30.75v9.34a22.19,22.19,0,0,1-3.72,12.29c-.18.27-.35.54-.52.82s-.22.36-.32.54l-.06.1c0,.08-.08.16-.13.24s-.16.29-.23.44-.28.54-.41.82-.14.3-.2.45-.11.24-.16.36c-.21.51-.41,1-.58,1.53-.07.19-.13.39-.19.58s-.05.17-.08.25,0,.05,0,.08c-.07.23-.13.46-.19.69s-.14.54-.2.8-.11.54-.16.82a0,0,0,0,1,0,0c0,.16-.06.32-.08.48s0,.2-.05.31l-.09.71a.31.31,0,0,1,0,.1,0,0,0,0,1,0,0v0c0,.27-.05.54-.07.81s0,.49,0,.73v.12c0,.25,0,.5,0,.75s0,.48,0,.72a5.07,5.07,0,0,0,0,.55c0,.25,0,.51,0,.76s0,.23,0,.35a1,1,0,0,0,0,.16c0,.18.05.36.07.54s.07.55.12.82.1.55.16.83c0,.1,0,.21.07.32l0,.16c.18.75.4,1.5.65,2.23l.09.25q.09.28.21.57l.19.46,0,.09c.07.18.15.37.24.55s.17.37.26.55c.32.65.64,1.26,1,1.83l.42.67.27.42.36.5a.28.28,0,0,0,.08.11c.09.14.2.28.31.42A1.13,1.13,0,0,0,25,79c.08.1.16.21.25.31a4.64,4.64,0,0,0,.42.5c.15.19.31.37.47.54.37.4.73.77,1.1,1.12s.72.66,1.07,1c0,0,0,0,0,0l.08.07.4.33,1.91,1.51-.33.16-.61.31-.15.08c-.21.11-.41.23-.6.35-.43.26-.85.54-1.25.84l-.33.25a15.79,15.79,0,0,0-2.76,2.78l-.3.38A15.82,15.82,0,0,0,21.82,95q-.11.38-.18.78c-.09.44-.17.88-.22,1.34,0,.13,0,.26,0,.39s0,.08,0,.13a.5.5,0,0,0,0,.12c0,.13,0,.25,0,.38Z"/><path class="cls-3" d="M27.85,102.05a54.57,54.57,0,0,0,53.3,0,53.1,53.1,0,0,0,6.49-4.28,1.94,1.94,0,0,0,0-.24A12.14,12.14,0,0,0,87.41,96a2,2,0,0,0,0-.26.24.24,0,0,0,0-.09c0-.24-.1-.47-.16-.7a2.45,2.45,0,0,0-.08-.29c0-.19-.1-.37-.16-.54s-.12-.38-.19-.56a.49.49,0,0,0,0-.11c0-.07,0-.13-.07-.2l-.15-.38-.06-.15c-.08-.2-.17-.39-.26-.57L86.1,92,86,91.86c-.08-.17-.17-.34-.26-.5a0,0,0,0,0,0,0c-.12-.23-.25-.45-.38-.66l-.1-.15c-.07-.12-.14-.24-.22-.35q-.26-.41-.54-.78l0-.06c-.1-.14-.2-.27-.31-.4l-.26-.31a0,0,0,0,0,0,0l-.34-.39A13,13,0,0,0,82.28,87a2.79,2.79,0,0,0-.32-.28,0,0,0,0,0,0,0l-.19-.16-.56-.44c-.2-.15-.39-.29-.59-.42h0c-.21-.15-.42-.28-.64-.41s-.44-.27-.67-.39-.55-.29-.83-.42l-.19-.09-.13-.06L78,84.25a.09.09,0,0,0-.07,0l-.16-.07-.24-.09L77.36,84l-.21-.08-.25-.09-.32-.11-.48-.14-.46-.13h0l-.11,0h-.06a.23.23,0,0,0-.11,0l-.48-.11-.15,0a1.13,1.13,0,0,0-.18,0l-.2,0-.14,0-.24,0-.41,0-.17,0-.11,0-.53,0h-.36c-.25,0-.5,0-.75,0h-.49l-.71-.07h0a5.43,5.43,0,0,1-.56-.09l-.43-.1c-.14,0-.28-.07-.42-.12l-.17-.06-.24-.08c-.22-.08-.43-.16-.64-.26l-.06.12L64.31,85l-8.75,6.78a1.74,1.74,0,0,1-2.12,0L44.69,85l-3.55-2.75-.06-.12-.36.15a3.12,3.12,0,0,1-.39.15h0l-.17.06-.08,0c-.14,0-.28.08-.42.12l-.43.1-.34.06-.14,0h-.08l-.22,0-.53.05H36.73l-.44,0q-.33,0-.66.06c-.24,0-.47,0-.7.09s-.53.08-.79.14a2.88,2.88,0,0,0-.4.09h0a.17.17,0,0,0-.1,0h0a4.37,4.37,0,0,0-.49.12l-.73.22-.28.09-.27.1-.32.12-.15.06-.49.2-.13.06-.33.16-.61.31-.15.08c-.21.11-.41.23-.6.35-.43.26-.85.54-1.25.84l-.33.25a15.79,15.79,0,0,0-2.76,2.78l-.3.38A15.82,15.82,0,0,0,21.82,95q-.11.38-.18.78c-.09.44-.17.88-.22,1.34,0,.13,0,.26,0,.39s0,.08,0,.13a.57.57,0,0,0,0,.13l0,.37Z"/><path class="cls-4" d="M74.2,40.72a1.73,1.73,0,0,1,1.64,1.72V52.76a21.34,21.34,0,1,1-42.68,0V42.59A1.73,1.73,0,0,1,35,40.87a44.57,44.57,0,0,0,29.07-7.43,1.71,1.71,0,0,1,2.62,1,8.05,8.05,0,0,0,7.47,6.32Z"/><path class="cls-5" d="M80.17,82.86l-1.91,1.51a16.14,16.14,0,0,0-6.64-1.43A8.92,8.92,0,0,1,62.69,74V72.56l0-.08A21.34,21.34,0,0,0,75.84,52.76V42.44a1.73,1.73,0,0,0-1.64-1.72,8,8,0,0,1-7.47-6.32,1.71,1.71,0,0,0-2.62-1A44.56,44.56,0,0,1,35,40.87a1.73,1.73,0,0,0-1.88,1.72V52.76A21.34,21.34,0,0,0,46.34,72.48l0,.08V74a8.92,8.92,0,0,1-8.93,8.91,16.18,16.18,0,0,0-6.64,1.43l-1.91-1.51a22.81,22.81,0,0,1-4.77-30.48,22.19,22.19,0,0,0,3.72-12.29V30.75A21.55,21.55,0,0,1,49.33,9.2H59.67A21.55,21.55,0,0,1,81.22,30.75v9.34a22.22,22.22,0,0,0,3.72,12.29,22.81,22.81,0,0,1-4.77,30.48Z"/><path class="cls-6" d="M62.93,76.1a21.37,21.37,0,0,1-16.86,0,13.47,13.47,0,0,0,.24-3.54l0-.08a21.36,21.36,0,0,0,16.32,0l0,.08A13.47,13.47,0,0,0,62.93,76.1Z"/><path class="cls-7" d="M69.41,11.52a2.25,2.25,0,0,1-1.21,4.24c-.68-.06-1.37-.09-2.06-.09H55.79A21.55,21.55,0,0,0,34.24,37.22v2.62c0,1.55-1.08,1.5-1.08,2.75,0,11.39.05,10.67-.12,11.16-1.69,5-3.72,5.69-5.37,11.13a22.94,22.94,0,0,0-.85,9,2.25,2.25,0,0,1-4.32,1.06,22.79,22.79,0,0,1,1.56-22.54,22.19,22.19,0,0,0,3.72-12.29V30.75A21.55,21.55,0,0,1,49.33,9.2H59.67a21.52,21.52,0,0,1,9.74,2.32Z"/><path class="cls-8" d="M50.41,67.06a3.29,3.29,0,0,1-2.89,5.85A21.2,21.2,0,0,1,33.16,52.76V42.59A1.73,1.73,0,0,1,35,40.87c.82.08,1.73.14,2.71.17a3.28,3.28,0,0,1,3.17,3.29v5a21.28,21.28,0,0,0,9.49,17.75Z"/><path class="cls-9" d="M27.85,102.05a16.06,16.06,0,0,1,16-14.58A1.37,1.37,0,0,0,44.69,85l-3.55-2.75-.06-.12-.36.15a3.12,3.12,0,0,1-.39.15l-.11,0-.11,0-.08,0a3.31,3.31,0,0,1-.42.12l-.43.1-.34.06-.1,0h-.12l-.22,0-.53.05H36.55l-.26,0q-.33,0-.66.06c-.24,0-.47,0-.7.09s-.53.08-.79.14a2.88,2.88,0,0,0-.4.09h0a.17.17,0,0,0-.1,0h0a4.37,4.37,0,0,0-.49.12l-.73.22-.28.09-.27.1-.32.12-.15.06-.49.2-.13.06-.33.16-.61.31-.15.08c-.21.11-.41.23-.6.35-.43.26-.85.54-1.25.84l-.33.25a15.79,15.79,0,0,0-2.76,2.78l-.3.38A15.82,15.82,0,0,0,21.82,95q-.11.38-.18.78c-.09.44-.17.88-.22,1.34,0,.13,0,.26,0,.39s0,.08,0,.13a.57.57,0,0,0,0,.13l0,.37Z"/><path class="cls-9" d="M87.64,97.77a53.1,53.1,0,0,1-6.49,4.28,16.06,16.06,0,0,0-16-14.58A1.37,1.37,0,0,1,64.31,85l3.55-2.75.06-.12a8.27,8.27,0,0,0,1.47.52l.43.1.6.1.71.07h.49c.37,0,.74,0,1.11,0l.53,0,.11,0a7.35,7.35,0,0,1,.82.11,4.71,4.71,0,0,1,.52.09l.15,0,.48.11a.23.23,0,0,1,.11,0,1,1,0,0,1,.17,0h0l.46.13.48.14.32.11.25.09a2.55,2.55,0,0,1,.35.14c.21.07.42.16.63.25l.13.06.19.09c.28.13.56.27.83.42s.45.25.67.39.43.26.64.41h0c.2.13.39.27.59.42l.56.44.19.16a0,0,0,0,1,0,0,2.79,2.79,0,0,1,.32.28,13,13,0,0,1,1.24,1.22l.34.39a0,0,0,0,1,0,0l.26.31c.11.13.21.26.31.4l0,.06q.28.38.54.78c.08.11.15.23.22.35l.1.15c.13.21.26.43.38.66a0,0,0,0,1,0,0c.09.16.18.33.26.5l.09.19a.61.61,0,0,1,.07.14c.09.18.18.37.26.57l.06.15.15.38c0,.07,0,.13.07.2a.49.49,0,0,1,0,.11c.07.18.13.37.19.56s.11.35.16.54a2.45,2.45,0,0,1,.08.29c.06.23.12.46.16.7a.24.24,0,0,1,0,.09,2,2,0,0,1,0,.26,12.14,12.14,0,0,1,.21,1.49A1.94,1.94,0,0,1,87.64,97.77Z"/></g></g></svg>