<svg id="twitter" xmlns="http://www.w3.org/2000/svg" width="16.062" height="13.05" viewBox="0 0 16.062 13.05">
  <g id="Group_715" data-name="Group 715" transform="translate(0 0)">
    <path id="Path_793" data-name="Path 793" d="M16.062,49.545a6.865,6.865,0,0,1-1.9.52,3.274,3.274,0,0,0,1.449-1.82,6.58,6.58,0,0,1-2.088.8,3.293,3.293,0,0,0-5.7,2.252,3.39,3.39,0,0,0,.076.751A9.32,9.32,0,0,1,1.118,48.6,3.294,3.294,0,0,0,2.13,53,3.252,3.252,0,0,1,.642,52.6v.036a3.308,3.308,0,0,0,2.638,3.235,3.286,3.286,0,0,1-.863.108,2.912,2.912,0,0,1-.623-.056,3.324,3.324,0,0,0,3.077,2.294,6.616,6.616,0,0,1-4.083,1.4A6.169,6.169,0,0,1,0,59.572,9.27,9.27,0,0,0,5.051,61.05a9.307,9.307,0,0,0,9.372-9.37c0-.146-.005-.286-.012-.426A6.569,6.569,0,0,0,16.062,49.545Z" transform="translate(0 -48)" fill="#f2f2f2"/>
  </g>
</svg>
