<svg id="twitter" xmlns="http://www.w3.org/2000/svg" width="29.112" height="23.653" viewBox="0 0 29.112 23.653">
  <g id="Group_715" data-name="Group 715" transform="translate(0 0)">
    <path id="Path_793" data-name="Path 793" d="M29.112,50.8a12.443,12.443,0,0,1-3.439.942,5.935,5.935,0,0,0,2.626-3.3,11.927,11.927,0,0,1-3.785,1.445A5.968,5.968,0,0,0,14.19,53.97a6.145,6.145,0,0,0,.138,1.361,16.893,16.893,0,0,1-12.3-6.243,5.97,5.97,0,0,0,1.834,7.977,5.894,5.894,0,0,1-2.7-.735V56.4a6,6,0,0,0,4.782,5.864,5.957,5.957,0,0,1-1.565.2,5.277,5.277,0,0,1-1.13-.1,6.025,6.025,0,0,0,5.577,4.158,11.992,11.992,0,0,1-7.4,2.545A11.18,11.18,0,0,1,0,68.975a16.8,16.8,0,0,0,9.156,2.678c10.982,0,16.987-9.1,16.987-16.983,0-.264-.009-.519-.022-.771A11.906,11.906,0,0,0,29.112,50.8Z" transform="translate(0 -48)" fill="#f2f2f2"/>
  </g>
</svg>
