<svg xmlns="http://www.w3.org/2000/svg" width="28.954" height="20.272" viewBox="0 0 28.954 20.272">
  <path id="youtube" d="M28.358-2.91a3.627,3.627,0,0,0-2.552-2.552c-2.266-.62-11.329-.62-11.329-.62s-9.063,0-11.328.6A3.7,3.7,0,0,0,.6-2.91,38.221,38.221,0,0,0,0,4.054a38.081,38.081,0,0,0,.6,6.964A3.628,3.628,0,0,0,3.149,13.57c2.289.62,11.329.62,11.329.62s9.063,0,11.328-.6a3.628,3.628,0,0,0,2.552-2.552,38.233,38.233,0,0,0,.6-6.964,36.282,36.282,0,0,0-.6-6.988ZM11.592,8.395V-.286l7.536,4.341Zm0,0" transform="translate(-0.001 6.082)" fill="#f2f2f2"/>
</svg>
