<svg xmlns="http://www.w3.org/2000/svg" width="15.975" height="11.185" viewBox="0 0 15.975 11.185">
  <path id="youtube" d="M15.646-4.332A2,2,0,0,0,14.238-5.74a46.758,46.758,0,0,0-6.25-.342,48.58,48.58,0,0,0-6.25.329A2.042,2.042,0,0,0,.33-4.332,21.088,21.088,0,0,0,0-.49,21.01,21.01,0,0,0,.33,3.353,2,2,0,0,0,1.738,4.761a46.843,46.843,0,0,0,6.25.342,48.58,48.58,0,0,0,6.25-.329,2,2,0,0,0,1.408-1.408,21.094,21.094,0,0,0,.329-3.842,20.017,20.017,0,0,0-.329-3.855ZM6.4,1.905v-4.79L10.554-.49Zm0,0" transform="translate(-0.001 6.082)" fill="#f2f2f2"/>
</svg>
