<svg xmlns="http://www.w3.org/2000/svg" width="14.168" height="14.169" viewBox="0 0 14.168 14.169">
  <g id="chat" transform="translate(0 0)">
    <g id="Group_936" data-name="Group 936" transform="translate(0)">
      <path id="Path_1397" data-name="Path 1397" d="M12.108,2.076A7.083,7.083,0,0,0,1.644,11.6,2.71,2.71,0,0,1,.509,12.86.665.665,0,0,0,.7,14.113a3.661,3.661,0,0,0,.56.042,4.229,4.229,0,0,0,2.492-.827A7.082,7.082,0,0,0,12.108,2.076Zm-.572,9.445a6.274,6.274,0,0,1-7.615.977.4.4,0,0,0-.491.063.133.133,0,0,0-.033.024,3.459,3.459,0,0,1-2.136.761h0a3.966,3.966,0,0,0,1.216-1.615A.414.414,0,0,0,2.5,11.47a.421.421,0,0,0-.1-.228,6.275,6.275,0,1,1,9.14.279Z" transform="translate(-0.019 0)" fill="#535353"/>
    </g>
  </g>
</svg>
