<svg xmlns="http://www.w3.org/2000/svg" width="9.742" height="9.742" viewBox="0 0 9.742 9.742">
  <g id="clock" opacity="0.5">
    <g id="Group_877" data-name="Group 877" transform="translate(4.494 2.26)">
      <g id="Group_876" data-name="Group 876">
        <path id="Path_1394" data-name="Path 1394" d="M238.282,122.25l-1.358-1.019v-2.075a.377.377,0,1,0-.755,0v2.264a.376.376,0,0,0,.151.3l1.509,1.132a.377.377,0,0,0,.453-.6Z" transform="translate(-236.169 -118.779)" fill="#535353"/>
      </g>
    </g>
    <g id="Group_879" data-name="Group 879" transform="translate(0 0)">
      <g id="Group_878" data-name="Group 878">
        <path id="Path_1395" data-name="Path 1395" d="M4.871,0A4.871,4.871,0,1,0,9.742,4.871,4.877,4.877,0,0,0,4.871,0Zm0,8.988A4.117,4.117,0,1,1,8.988,4.871,4.122,4.122,0,0,1,4.871,8.988Z" transform="translate(0 0)" fill="#535353"/>
      </g>
    </g>
  </g>
</svg>
