<svg id="like" xmlns="http://www.w3.org/2000/svg" width="14.384" height="14.793" viewBox="0 0 14.384 14.793">
  <path id="Path_1398" data-name="Path 1398" d="M20.575,10.058a2.183,2.183,0,0,1,.13.619,1.97,1.97,0,0,1-.7,1.606,1.891,1.891,0,0,1-.21,1.185,2.7,2.7,0,0,1-1.924,1.2,8.961,8.961,0,0,1-2.475.087,31.149,31.149,0,0,1-4.124-.226l-.727-.087a1.284,1.284,0,0,1-.742.235H7.912a1.288,1.288,0,0,1-1.287-1.287V8.36A1.288,1.288,0,0,1,7.912,7.073H9.8a1.277,1.277,0,0,1,.613.155,3.323,3.323,0,0,1,.606-.91.331.331,0,0,1,.049-.043c.971-.746,2.116-3.431,2.521-4.526a2.114,2.114,0,0,1,.26-1.476.772.772,0,0,1,.6-.272,1.97,1.97,0,0,1,1.575.764,3.317,3.317,0,0,1,.08,3,5.4,5.4,0,0,0-.387,1.8c.167-.037.331-.071.489-.1h0a9.709,9.709,0,0,1,1.522-.195,3.412,3.412,0,0,1,2.484.594,1.649,1.649,0,0,1,.393,1.9,1.779,1.779,0,0,1-.031,2.292ZM9.8,7.9H7.912a.452.452,0,0,0-.452.452v5.027a.452.452,0,0,0,.452.452H9.8a.452.452,0,0,0,.452-.452V8.356A.45.45,0,0,0,9.8,7.9Zm9.953-.3A1.239,1.239,0,0,0,19.9,7.2a.756.756,0,0,0-.251-.724c-.591-.538-2.292-.415-3.242-.2l-.04.009c-.17.031-.353.068-.538.108a.674.674,0,0,1-.674-.121C14.74,5.9,14.786,5.074,15.3,3.5A2.635,2.635,0,0,0,15.34,1.25a1.106,1.106,0,0,0-.872-.418,1.885,1.885,0,0,0-.04.9.474.474,0,0,1-.019.207c-.059.158-1.417,3.876-2.806,4.978a2.625,2.625,0,0,0-.575,1.061,1.309,1.309,0,0,1,.059.384v5.024a1.311,1.311,0,0,1-.028.272l.312.037h0a30.49,30.49,0,0,0,4.022.22h.043a8.145,8.145,0,0,0,2.255-.068,1.946,1.946,0,0,0,1.361-.777,1.08,1.08,0,0,0,.09-.811.408.408,0,0,1,.142-.473,1.183,1.183,0,0,0,.439-1.587.408.408,0,0,1,.056-.5,1.166,1.166,0,0,0,.387-.829,1.15,1.15,0,0,0-.346-.727A.408.408,0,0,1,19.752,7.6Z" transform="translate(-6.625 0)" fill="#535353"/>
</svg>
