<svg id="linkedin" xmlns="http://www.w3.org/2000/svg" width="19.407" height="18.55" viewBox="0 0 19.407 18.55">
  <path id="Path_790" data-name="Path 790" d="M2.353-.668A2.168,2.168,0,1,0,2.3,3.657h.027A2.169,2.169,0,1,0,2.353-.668Zm0,0" transform="translate(0 0.668)" fill="#033cfb"/>
  <path id="Path_791" data-name="Path 791" d="M8.109,198.313h4.16v12.516H8.109Zm0,0" transform="translate(-7.863 -192.279)" fill="#033cfb"/>
  <path id="Path_792" data-name="Path 792" d="M229.124,188.625a5.212,5.212,0,0,0-3.749,2.109v-1.815h-4.16v12.516h4.16v-6.989a2.851,2.851,0,0,1,.137-1.015,2.277,2.277,0,0,1,2.134-1.521c1.505,0,2.107,1.148,2.107,2.83v6.7h4.16v-7.177c0-3.844-2.053-5.633-4.789-5.633Zm0,0" transform="translate(-214.507 -182.885)" fill="#033cfb"/>
</svg>
