<svg xmlns="http://www.w3.org/2000/svg" width="13.357" height="14.169" viewBox="0 0 13.357 14.169">
  <g id="share" transform="translate(0)">
    <path id="Path_1399" data-name="Path 1399" d="M24.621,9.1a2.536,2.536,0,0,0-2.007.989L18.722,7.917a2.541,2.541,0,0,0,.141-.836,2.486,2.486,0,0,0-.144-.839l3.89-2.171a2.53,2.53,0,1,0-.524-1.539,2.473,2.473,0,0,0,.144.839L18.343,5.543a2.531,2.531,0,1,0,.006,3.075l3.89,2.174A2.532,2.532,0,1,0,24.621,9.1Zm0-8.306a1.739,1.739,0,1,1-1.739,1.739A1.74,1.74,0,0,1,24.621.8ZM16.336,8.821a1.739,1.739,0,1,1,1.739-1.739A1.74,1.74,0,0,1,16.336,8.821Zm8.285,4.552a1.739,1.739,0,1,1,1.739-1.739A1.74,1.74,0,0,1,24.621,13.372Z" transform="translate(-13.8)" fill="#535353"/>
  </g>
</svg>
