<svg xmlns="http://www.w3.org/2000/svg" width="19.615" height="15.937" viewBox="0 0 19.615 15.937">
  <g id="twitter" transform="translate(0 0)">
    <g id="Group_715" data-name="Group 715" transform="translate(0 0)">
      <path id="Path_793" data-name="Path 793" d="M19.615,49.887a8.384,8.384,0,0,1-2.317.635A4,4,0,0,0,19.067,48.3a8.036,8.036,0,0,1-2.55.973,4.021,4.021,0,0,0-6.956,2.75,4.141,4.141,0,0,0,.093.917,11.382,11.382,0,0,1-8.289-4.206A4.022,4.022,0,0,0,2.6,54.108a3.971,3.971,0,0,1-1.817-.5v.044a4.04,4.04,0,0,0,3.222,3.951,4.014,4.014,0,0,1-1.054.132,3.556,3.556,0,0,1-.761-.069,4.06,4.06,0,0,0,3.758,2.8A8.08,8.08,0,0,1,.962,62.188,7.534,7.534,0,0,1,0,62.133a11.321,11.321,0,0,0,6.169,1.8A11.367,11.367,0,0,0,17.615,52.494c0-.178-.006-.349-.015-.52A8.022,8.022,0,0,0,19.615,49.887Z" transform="translate(0 -48)" fill="#033cfb"/>
    </g>
  </g>
</svg>
