<svg xmlns="http://www.w3.org/2000/svg" width="1481.027" height="2058.039" viewBox="0 0 1481.027 2058.039"><g transform="translate(-0.097 1605.005)"><g transform="translate(523.806 0.774)"><path d="M94,.5A94.683,94.683,0,0,0,75.155,2.39,93.447,93.447,0,0,0,7.847,57.3,92.164,92.164,0,0,0,2.4,74.757a93.419,93.419,0,0,0,0,37.486A92.224,92.224,0,0,0,16.467,145.5,93.483,93.483,0,0,0,75.155,184.61a94.914,94.914,0,0,0,37.689,0A93.447,93.447,0,0,0,180.153,129.7a92.164,92.164,0,0,0,5.448-17.456,93.419,93.419,0,0,0,0-37.486A92.224,92.224,0,0,0,171.533,41.5,93.483,93.483,0,0,0,112.845,2.39,94.683,94.683,0,0,0,94,.5M94,0c51.915,0,94,41.861,94,93.5S145.915,187,94,187,0,145.139,0,93.5,42.085,0,94,0Z" transform="translate(0.291 0.26)" fill="#707070"/><path d="M94,.5A94.683,94.683,0,0,0,75.155,2.39,93.447,93.447,0,0,0,7.847,57.3,92.164,92.164,0,0,0,2.4,74.757a93.419,93.419,0,0,0,0,37.486A92.224,92.224,0,0,0,16.467,145.5,93.483,93.483,0,0,0,75.155,184.61a94.914,94.914,0,0,0,37.689,0A93.447,93.447,0,0,0,180.153,129.7a92.164,92.164,0,0,0,5.448-17.456,93.419,93.419,0,0,0,0-37.486A92.224,92.224,0,0,0,171.533,41.5,93.483,93.483,0,0,0,112.845,2.39,94.683,94.683,0,0,0,94,.5M94,0c51.915,0,94,41.861,94,93.5S145.915,187,94,187,0,145.139,0,93.5,42.085,0,94,0Z" transform="translate(0.291 0.26)" fill="#707070"/><g transform="translate(21.664 40.233)"><g transform="translate(45.649)"><path d="M52.274,304.879A4.706,4.706,0,0,0,46,305.47L41.7,310.129h0l-.782.844a4.835,4.835,0,0,0-4.792-5.364H29.5c-1.092.032-3.238-1.276-4.3-1.685a11.88,11.88,0,0,0-12.495,2.02l-1.875,1.643-6.866-.058A3.929,3.929,0,0,0,.01,311.459V319.2a3.934,3.934,0,0,0,3.93,3.93H39.576a8.417,8.417,0,0,0,6.583-3.149l6.931-8.4a4.68,4.68,0,0,0-.816-6.7Zm-1.632,4.681-6.937,8.41-.012.015a5.258,5.258,0,0,1-4.116,1.972H3.94a.757.757,0,0,1-.756-.756v-7.742a.756.756,0,0,1,.758-.756l7.467.063a1.579,1.579,0,0,0,1.059-.393l2.33-2.041a8.692,8.692,0,0,1,9.139-1.5c1.572.665,3.741,2.02,5.563,1.947h6.629a1.648,1.648,0,0,1,0,3.3h-12.9a1.587,1.587,0,0,0,0,3.174H40.589a1.587,1.587,0,0,0,1.164-.508l1.439-1.553c.017-.017.036-.033.052-.051l5.085-5.52a1.538,1.538,0,0,1,2.053-.193,1.482,1.482,0,0,1,.26,2.132Z" transform="translate(-0.009 -272.87)" fill="#033cfb"/><path d="M49.657,36.1a6.817,6.817,0,0,0,1.326-4.046c0-.966,0-2.741,0-3.723a5.576,5.576,0,0,0-5.569-5.569H42.842a5.576,5.576,0,0,0-5.569,5.569v3.723A6.817,6.817,0,0,0,38.6,36.1a6.694,6.694,0,0,0-2.765,1.822,6.7,6.7,0,0,0-3.153-2.211A6.914,6.914,0,0,0,34.032,31.6V27.807a5.649,5.649,0,0,0-5.643-5.643H25.771a5.649,5.649,0,0,0-5.643,5.643V31.6a6.914,6.914,0,0,0,1.352,4.114,6.7,6.7,0,0,0-3.153,2.211A6.692,6.692,0,0,0,15.562,36.1a6.817,6.817,0,0,0,1.326-4.046c0-.966,0-2.741,0-3.723a5.543,5.543,0,0,0-1.311-3.585c.014-.177.015-.357.015-.561v-.1a5.674,5.674,0,0,0-5.6-5.656,5.578,5.578,0,0,0-4,1.641,5.974,5.974,0,0,0-1.675,4.891,5.54,5.54,0,0,0-1.14,3.372v3.723A6.817,6.817,0,0,0,4.5,36.1,6.685,6.685,0,0,0,0,42.411v.429a1.587,1.587,0,0,0,1.587,1.587H52.573A1.587,1.587,0,0,0,54.16,42.84v-.429A6.684,6.684,0,0,0,49.657,36.1Zm-9.21-4.046v-.769h7.362v.769A3.681,3.681,0,0,1,40.446,32.056Zm2.4-6.119h2.571A2.4,2.4,0,0,1,47.8,28.113H40.457A2.4,2.4,0,0,1,42.842,25.937ZM23.3,31.6V30.1l7.557,1.342V31.6A3.778,3.778,0,0,1,23.3,31.6Zm2.469-6.261H28.39a2.472,2.472,0,0,1,2.469,2.469v.411l-7.386-1.312A2.472,2.472,0,0,1,25.771,25.338ZM6.352,32.056v-.769h7.362v.769A3.681,3.681,0,0,1,6.352,32.056ZM13.7,28.113H6.362a2.4,2.4,0,0,1,2.385-2.175h2.571A2.4,2.4,0,0,1,13.7,28.113ZM9.959,21.6a2.487,2.487,0,0,1,2.1,1.211,5.578,5.578,0,0,0-.746-.051H8.747a5.576,5.576,0,0,0-.923.078,2.634,2.634,0,0,1,.4-.517A2.421,2.421,0,0,1,9.959,21.6ZM3.371,41.253a3.507,3.507,0,0,1,3.3-2.343h6.717a3.507,3.507,0,0,1,3.3,2.343Zm16.787,0a3.507,3.507,0,0,1,3.409-2.7h7.028A3.506,3.506,0,0,1,34,41.253Zm17.308,0a3.507,3.507,0,0,1,3.3-2.343h6.717a3.507,3.507,0,0,1,3.3,2.343Z" transform="translate(0 -18.429)" fill="#033cfb"/></g><text transform="translate(70.627 79.027)" fill="#303030" font-size="18" font-family="Roboto-Regular, Roboto" letter-spacing="0.02em"><tspan x="-70.763" y="0">Discuss Resume,</tspan><tspan x="-42.581" y="24">Interviews</tspan></text></g></g><g transform="translate(524.579 265.385)"><path d="M94,.5A94.193,94.193,0,0,0,75.156,2.4,92.986,92.986,0,0,0,41.724,16.468,93.774,93.774,0,0,0,7.848,57.606,93.023,93.023,0,0,0,2.4,75.156a94.416,94.416,0,0,0,0,37.688,92.986,92.986,0,0,0,14.068,33.432,93.774,93.774,0,0,0,41.138,33.876,93.023,93.023,0,0,0,17.55,5.448,94.416,94.416,0,0,0,37.688,0,92.986,92.986,0,0,0,33.432-14.068,93.774,93.774,0,0,0,33.876-41.138,93.023,93.023,0,0,0,5.448-17.55,94.416,94.416,0,0,0,0-37.688,92.986,92.986,0,0,0-14.068-33.432A93.774,93.774,0,0,0,130.394,7.848,93.023,93.023,0,0,0,112.844,2.4,94.193,94.193,0,0,0,94,.5M94,0A94,94,0,1,1,0,94,94,94,0,0,1,94,0Z" transform="translate(-0.482 -0.351)" fill="#707070"/><g transform="translate(34.817 49.518)"><g transform="translate(34.817)"><path d="M143.45,147.7a4.523,4.523,0,0,0-4.534,1.9l-4.256-.762A4.559,4.559,0,0,0,131,145.225a4.513,4.513,0,0,0-5.25,3.662,4.551,4.551,0,0,0,3.681,5.246,4.521,4.521,0,0,0,4.674-2.114l4.076.73a4.576,4.576,0,0,0,.893,2.139l-2.739,3.822c-.092-.022-.185-.043-.279-.06a4.513,4.513,0,0,0-5.25,3.662,4.551,4.551,0,0,0,3.681,5.246h0a4.519,4.519,0,0,0,1.4.033l2.71,3.924a4.5,4.5,0,0,0-.591,1.571,4.551,4.551,0,0,0,3.681,5.246h0a4.582,4.582,0,0,0,.811.072,4.514,4.514,0,0,0,4.439-3.734,4.548,4.548,0,0,0-5.773-5.131l-2.423-3.508a4.511,4.511,0,0,0,.259-5.485l2.832-3.953.055.011a4.585,4.585,0,0,0,.811.072,4.514,4.514,0,0,0,4.439-3.734A4.551,4.551,0,0,0,143.45,147.7Zm-12.483,3.039a1.285,1.285,0,0,1-.97.211,1.31,1.31,0,0,1-1.064-1.506,1.261,1.261,0,0,1,.523-.822,1.287,1.287,0,0,1,.97-.211,1.31,1.31,0,0,1,1.064,1.506A1.261,1.261,0,0,1,130.967,150.737Zm3.021,12.131a1.261,1.261,0,0,1,.523-.822,1.285,1.285,0,0,1,.97-.211,1.31,1.31,0,0,1,1.064,1.506,1.262,1.262,0,0,1-.523.822c-.028.02-.057.037-.086.054a1.605,1.605,0,0,0-.182.088,1.289,1.289,0,0,1-.7.069A1.31,1.31,0,0,1,133.988,162.868Zm8.457,9.72a1.33,1.33,0,0,1,.234.021,1.31,1.31,0,0,1,1.065,1.506,1.261,1.261,0,0,1-.523.822,1.288,1.288,0,0,1-.97.211h0a1.31,1.31,0,0,1-1.064-1.506,1.261,1.261,0,0,1,.523-.822,1.28,1.28,0,0,1,.737-.232Zm1.5-20.2a1.261,1.261,0,0,1-.523.822,1.287,1.287,0,0,1-.97.211h0a1.272,1.272,0,0,1-.426-.156l-.013-.008a1.307,1.307,0,0,1-.625-1.343,1.261,1.261,0,0,1,.523-.822,1.287,1.287,0,0,1,.97-.211A1.31,1.31,0,0,1,143.944,152.389Z" transform="translate(-115.988 -129.502)" fill="#033cfb"/><path d="M81.649,6.089H65.882v-.1a2.879,2.879,0,0,0-2.875-2.875H61.527a6.007,6.007,0,0,0-10.53,0H49.41a2.879,2.879,0,0,0-2.875,2.875v.1h-9.1a1.617,1.617,0,0,0-1.617,1.617V53.559a1.617,1.617,0,0,0,1.617,1.617h44.22a1.617,1.617,0,0,0,1.617-1.617V7.707A1.618,1.618,0,0,0,81.649,6.089Zm-31.88.259h2.3a1.617,1.617,0,0,0,1.551-1.16,2.762,2.762,0,0,1,5.288,0,1.617,1.617,0,0,0,1.551,1.16h2.19V8.728H49.769ZM39.047,9.324h7.487v.47A2.171,2.171,0,0,0,48.7,11.962H63.714a2.171,2.171,0,0,0,2.168-2.168v-.47h7.6V51.942H39.047ZM80.032,51.942h-3.32V9.324h3.32Z" transform="translate(-35.812 0.001)" fill="#033cfb"/></g><text transform="translate(56.7 84.132)" fill="#303030" font-size="18" font-family="Roboto-Regular, Roboto" letter-spacing="0.02em"><tspan x="-57.017" y="0">Daily Updates</tspan></text></g></g><g transform="translate(262.29 265.385)"><path d="M94,.5A94.193,94.193,0,0,0,75.156,2.4,92.986,92.986,0,0,0,41.724,16.468,93.774,93.774,0,0,0,7.848,57.606,93.023,93.023,0,0,0,2.4,75.156a94.416,94.416,0,0,0,0,37.688,92.986,92.986,0,0,0,14.068,33.432,93.774,93.774,0,0,0,41.138,33.876,93.023,93.023,0,0,0,17.55,5.448,94.416,94.416,0,0,0,37.688,0,92.986,92.986,0,0,0,33.432-14.068,93.774,93.774,0,0,0,33.876-41.138,93.023,93.023,0,0,0,5.448-17.55,94.416,94.416,0,0,0,0-37.688,92.986,92.986,0,0,0-14.068-33.432A93.774,93.774,0,0,0,130.394,7.848,93.023,93.023,0,0,0,112.844,2.4,94.193,94.193,0,0,0,94,.5M94,0A94,94,0,1,1,0,94,94,94,0,0,1,94,0Z" transform="translate(-0.193 -0.351)" fill="#707070"/><g transform="translate(20.117 37.912)"><g transform="translate(47.197)"><path d="M53.38,3.878H47.041V1.6a1.609,1.609,0,0,0-3.219,0V3.878H11.247V1.6a1.609,1.609,0,0,0-3.219,0V3.878H1.679A1.607,1.607,0,0,0,.07,5.482V12.49a1.607,1.607,0,0,0,1.609,1.6h1.7V37.1a1.607,1.607,0,0,0,1.609,1.6h9.945L14.1,45.127h-3.29a1.6,1.6,0,1,0,0,3.208h2.874l-.619,4.788a1.609,1.609,0,0,0,3.192.41l.673-5.2H38.106l.668,5.2a1.609,1.609,0,0,0,3.192-.408l-.615-4.789h2.9a1.6,1.6,0,1,0,0-3.208H40.939l-.825-6.421H50.07a1.607,1.607,0,0,0,1.609-1.6V14.094h1.7a1.607,1.607,0,0,0,1.609-1.6V5.482a1.607,1.607,0,0,0-1.609-1.6ZM37.694,45.127H17.348l.831-6.421h18.69ZM48.461,35.5H6.6v-21.4H48.461ZM51.77,10.886H3.289v-3.8H51.77Z" transform="translate(-0.07 0)" fill="#033cfb"/><path d="M216.172,177.337h18.314a1.607,1.607,0,0,0,1.609-1.6V164.3a1.609,1.609,0,0,0-3.219,0v9.825h-2.886v-6.5a1.609,1.609,0,0,0-3.219,0v6.5h-2.886v-3.247a1.609,1.609,0,0,0-3.219,0v3.247h-2.886V164.3a1.609,1.609,0,0,0-3.219,0v11.429A1.607,1.607,0,0,0,216.172,177.337Z" transform="translate(-191.551 -145.252)" fill="#033cfb"/><path d="M93.9,269.162H87.354a1.6,1.6,0,0,0,0,3.209H93.9A1.6,1.6,0,0,0,93.9,269.162Z" transform="translate(-76.561 -240.285)" fill="#033cfb"/><path d="M87.354,215.307H93.9a1.6,1.6,0,0,0,0-3.209H87.354A1.6,1.6,0,0,0,87.354,215.307Z" transform="translate(-76.561 -189.343)" fill="#033cfb"/></g><text transform="translate(71.69 83.737)" fill="#303030" font-size="18" font-family="Roboto-Regular, Roboto" letter-spacing="0.02em"><tspan x="-72.103" y="0">Manage Projects,</tspan><tspan x="-68.482" y="24">Allocating Tasks</tspan></text></g></g><g transform="translate(262.29 0.774)"><path d="M94,.5A94.683,94.683,0,0,0,75.155,2.39,93.447,93.447,0,0,0,7.847,57.3,92.164,92.164,0,0,0,2.4,74.757a93.419,93.419,0,0,0,0,37.486A92.224,92.224,0,0,0,16.467,145.5,93.483,93.483,0,0,0,75.155,184.61a94.914,94.914,0,0,0,37.689,0A93.447,93.447,0,0,0,180.153,129.7a92.164,92.164,0,0,0,5.448-17.456,93.419,93.419,0,0,0,0-37.486A92.224,92.224,0,0,0,171.533,41.5,93.483,93.483,0,0,0,112.845,2.39,94.683,94.683,0,0,0,94,.5M94,0c51.915,0,94,41.861,94,93.5S145.915,187,94,187,0,145.139,0,93.5,42.085,0,94,0Z" transform="translate(-0.193 0.26)" fill="#707070"/><g transform="translate(34.817 38.686)"><path d="M52.583,51.084H49.864V20.909h2.679a1.586,1.586,0,0,0,1.586-1.587V13.585a1.588,1.588,0,0,0-.52-1.175l-8.8-7.984a1.585,1.585,0,0,0-2.135,0l-8.731,7.984a1.587,1.587,0,0,0-.516,1.172v5.737a1.586,1.586,0,0,0,1.586,1.587h2.615V51.084H34.243V28.816a1.586,1.586,0,0,0-1.586-1.587H23.6a1.586,1.586,0,0,0-1.586,1.587V51.084H18.649V35.305a1.586,1.586,0,0,0-1.586-1.587H8a1.586,1.586,0,0,0-1.586,1.587V51.084H3.171v-20.4H8.277a1.587,1.587,0,0,0,0-3.174H3.171V24.759H6.263a1.587,1.587,0,0,0,0-3.174H3.171V18.832H6.263a1.587,1.587,0,0,0,0-3.174H3.171V12.905H6.263a1.587,1.587,0,0,0,0-3.174H3.171V6.978H8.277a1.587,1.587,0,0,0,0-3.174H3.171V1.7A1.586,1.586,0,0,0,0,1.7V52.671a1.586,1.586,0,0,0,1.586,1.587h51A1.587,1.587,0,0,0,52.583,51.084Zm-42.995,0V36.892h5.89V51.084Zm15.594,0V30.4h5.89V51.084h-5.89Zm15.62,0V19.322a1.586,1.586,0,0,0-1.586-1.587H36.6V14.285l7.15-6.538,7.206,6.541v3.447H48.278a1.586,1.586,0,0,0-1.586,1.587V51.084Z" transform="translate(32.496 -0.124)" fill="#033cfb"/><text transform="translate(56.99 82.575)" fill="#303030" font-size="18" font-family="Roboto-Regular, Roboto" letter-spacing="0.02em"><tspan x="-40.274" y="0">Analyzing</tspan><tspan x="-57.566" y="24">Requirements</tspan></text></g></g><g transform="translate(0)"><path d="M94,.5A94.193,94.193,0,0,0,75.156,2.4,92.986,92.986,0,0,0,41.724,16.468,93.774,93.774,0,0,0,7.848,57.606,93.023,93.023,0,0,0,2.4,75.156a94.416,94.416,0,0,0,0,37.688,92.986,92.986,0,0,0,14.068,33.432,93.774,93.774,0,0,0,41.138,33.876,93.023,93.023,0,0,0,17.55,5.448,94.416,94.416,0,0,0,37.688,0,92.986,92.986,0,0,0,33.432-14.068,93.774,93.774,0,0,0,33.876-41.138,93.023,93.023,0,0,0,5.448-17.55,94.416,94.416,0,0,0,0-37.688,92.986,92.986,0,0,0-14.068-33.432A93.774,93.774,0,0,0,130.394,7.848,93.023,93.023,0,0,0,112.844,2.4,94.193,94.193,0,0,0,94,.5M94,0A94,94,0,1,1,0,94,94,94,0,0,1,94,0Z" transform="translate(0.097 0.034)" fill="#707070"/><g transform="translate(64.992 49.518)"><g transform="translate(2.321 0)"><path d="M53.786,25.184A12.625,12.625,0,0,0,42.757,12.677c.007-2.709.019-8.37.025-11.1A1.576,1.576,0,0,0,41.206,0H12.522a1.6,1.6,0,0,0-1.087.435L.5,10.845a1.582,1.582,0,0,0-.489,1.141V52.2a1.576,1.576,0,0,0,1.576,1.575H44.352A1.575,1.575,0,0,0,45.928,52.2v-10a1.576,1.576,0,0,0-1.576-1.575h-1.6V37.69A12.625,12.625,0,0,0,53.786,25.184Zm-3.151,0c-.211,10.727-14.854,13.011-18.412,3.042a1.559,1.559,0,0,0-.13-.412,9.457,9.457,0,1,1,18.541-2.63ZM39.619,6.728H14.1V3.151H39.627ZM10.946,5.251v5.159H5.528ZM42.777,50.625h-3.2v-6.85h3.2ZM38,40.625A1.575,1.575,0,0,0,36.427,42.2v8.425H3.164V13.561h9.357A1.575,1.575,0,0,0,14.1,11.986V9.879H39.611l-.006,2.8a12.637,12.637,0,0,0-9.559,6.592H17.137a1.575,1.575,0,0,0,0,3.151H28.875a12.67,12.67,0,0,0-.187,4.493H17.137a1.575,1.575,0,0,0,0,3.151H29.553A12.643,12.643,0,0,0,39.6,37.69v2.935Z" transform="translate(-0.013 0)" fill="#033cfb"/><path d="M89.5,183.456a1.576,1.576,0,1,0,1.576,1.575A1.575,1.575,0,0,0,89.5,183.456Z" transform="translate(-78.688 -164.187)" fill="#033cfb"/><path d="M89.5,256.233a1.576,1.576,0,1,0,1.576,1.575A1.575,1.575,0,0,0,89.5,256.233Z" transform="translate(-78.688 -229.32)" fill="#033cfb"/><path d="M158.9,329.01h-9.205a1.575,1.575,0,0,0,0,3.151H158.9A1.575,1.575,0,0,0,158.9,329.01Z" transform="translate(-132.57 -294.454)" fill="#033cfb"/><path d="M89.5,329.011a1.576,1.576,0,1,0,1.576,1.575A1.575,1.575,0,0,0,89.5,329.011Z" transform="translate(-78.688 -294.454)" fill="#033cfb"/><path d="M155.566,401.788H149.7a1.575,1.575,0,0,0,0,3.151h5.871A1.575,1.575,0,0,0,155.566,401.788Z" transform="translate(-132.571 -359.588)" fill="#033cfb"/><path d="M89.5,401.788a1.576,1.576,0,1,0,1.576,1.575A1.575,1.575,0,0,0,89.5,401.788Z" transform="translate(-78.688 -359.588)" fill="#033cfb"/><path d="M348.548,207.726a1.575,1.575,0,0,0-2.035,2.406l2.4,2.032a1.576,1.576,0,0,0,2.132-.089l4.093-4.092a1.576,1.576,0,1,0-2.228-2.228l-3.068,3.067Z" transform="translate(-309.614 -183.731)" fill="#033cfb"/></g><text transform="translate(28.104 82.516)" fill="#303030" font-size="18" font-family="Roboto-Regular, Roboto" letter-spacing="0.02em"><tspan x="-28.058" y="0">Inquiry</tspan></text></g></g><g transform="translate(0 266.158)"><path d="M94,.5A94.683,94.683,0,0,0,75.155,2.39,93.447,93.447,0,0,0,7.847,57.3,92.164,92.164,0,0,0,2.4,74.757a93.419,93.419,0,0,0,0,37.486A92.224,92.224,0,0,0,16.467,145.5,93.483,93.483,0,0,0,75.155,184.61a94.914,94.914,0,0,0,37.689,0A93.447,93.447,0,0,0,180.153,129.7a92.164,92.164,0,0,0,5.448-17.456,93.419,93.419,0,0,0,0-37.486A92.224,92.224,0,0,0,171.533,41.5,93.483,93.483,0,0,0,112.845,2.39,94.683,94.683,0,0,0,94,.5M94,0c51.915,0,94,41.861,94,93.5S145.915,187,94,187,0,145.139,0,93.5,42.085,0,94,0Z" transform="translate(0.097 -0.124)" fill="#707070"/><g transform="translate(30.949 38.686)"><path d="M49.277,45a7.244,7.244,0,0,0,1.448-4.353V36.618a5.9,5.9,0,0,0-5.891-5.891H42.055a5.9,5.9,0,0,0-5.891,5.891v4.024A7.243,7.243,0,0,0,37.612,45a6.668,6.668,0,0,0-2.666,1.465l-6.3-4.364V25.092h8.7A1.587,1.587,0,0,0,38.93,23.5V22.458a6.705,6.705,0,0,0-1.913-4.694,6.509,6.509,0,0,0-3.635-1.913,7.947,7.947,0,0,0,1.686-4.9V6.678A6.686,6.686,0,0,0,28.39,0H25.77a6.686,6.686,0,0,0-6.658,6.178c-.04,0-.013,4.639-.021,4.773a7.947,7.947,0,0,0,1.686,4.9,6.509,6.509,0,0,0-3.635,1.913,6.705,6.705,0,0,0-1.913,4.694v1.047a1.587,1.587,0,0,0,1.587,1.587h8.654V42.063l-6.949,4.479A6.657,6.657,0,0,0,16.311,45.4a7.14,7.14,0,0,0,1.417-4.277c-.07-2.509.485-5.7-1.4-7.723.017-.2.019-.4.019-.628v-.107A5.924,5.924,0,0,0,10.5,26.763a5.821,5.821,0,0,0-4.172,1.713,6.077,6.077,0,0,0-1.793,4.3,5.922,5.922,0,0,0,.047.855,5.783,5.783,0,0,0-1.214,3.55v3.951A7.14,7.14,0,0,0,4.79,45.4,6.684,6.684,0,0,0,0,51.805v.768A1.587,1.587,0,0,0,1.587,54.16H19.514A1.587,1.587,0,0,0,21.1,52.573v-.768a6.631,6.631,0,0,0-.6-2.763l6.526-4.206,6.129,4.244a6.64,6.64,0,0,0-.426,2.343v1.15a1.587,1.587,0,0,0,1.587,1.587H52.573a1.587,1.587,0,0,0,1.587-1.587v-1.15A6.684,6.684,0,0,0,49.277,45ZM22.265,10.951V9.01a23.231,23.231,0,0,0,9.63,1.424v.517a4.821,4.821,0,0,1-4.815,4.815h0A4.821,4.821,0,0,1,22.265,10.951Zm3.5-7.777H28.39a3.509,3.509,0,0,1,3.5,3.5v.575a18.621,18.621,0,0,1-9.462-1.647A3.511,3.511,0,0,1,25.77,3.173ZM21.817,18.939H32.344a3.5,3.5,0,0,1,3.371,2.979H18.445a3.5,3.5,0,0,1,3.371-2.979Zm17.52,21.7V38.934l8.215,1.459v.249A4.108,4.108,0,0,1,39.337,40.642ZM42.055,33.9h2.779a2.721,2.721,0,0,1,2.718,2.718v.553l-8.068-1.433A2.722,2.722,0,0,1,42.055,33.9ZM6.546,41.127v-.914h8.009v.914A4,4,0,0,1,6.546,41.127Zm8.005-4.088h-8a2.643,2.643,0,0,1,2.636-2.5h2.729A2.643,2.643,0,0,1,14.551,37.04Zm-4.078-7.1a2.74,2.74,0,0,1,2.413,1.509,5.825,5.825,0,0,0-.971-.083H9.186a5.817,5.817,0,0,0-1.163.117,2.9,2.9,0,0,1,.544-.75,2.652,2.652,0,0,1,1.906-.793Zm-7.2,21.05a3.506,3.506,0,0,1,3.4-2.681h7.754a3.492,3.492,0,0,1,2.608,1.169,1.577,1.577,0,0,0,.158.19,3.488,3.488,0,0,1,.637,1.322Zm32.659,0A3.505,3.505,0,0,1,39.4,47.923h8.085a3.505,3.505,0,0,1,3.473,3.063Z" transform="translate(36.365 0)" fill="#033cfb"/><text transform="translate(62.148 83.19)" fill="#303030" font-size="18" font-family="Roboto-Regular, Roboto" letter-spacing="0.02em"><tspan x="-40.991" y="0">Assigning</tspan><tspan x="-61.702" y="24">extended team</tspan></text></g></g><g opacity="0.4"><path d="M60.015,5.8h0V0l11.94,5.8-11.94,5.8Z" transform="translate(188.013 87.817)" fill="#535353"/><path d="M59.015,13.2V6.8H0v-2H59.015V-1.6L74.243,5.8Zm2-11.606v8.41l8.652-4.2Z" transform="translate(188.013 87.817)" fill="#535353"/></g><g opacity="0.4"><path d="M60.015,5.8h0V0l11.94,5.8-11.94,5.8Z" transform="translate(450.303 87.817)" fill="#535353"/><path d="M59.015,13.2V6.8H0v-2H59.015V-1.6L74.243,5.8Zm2-11.606v8.41l8.652-4.2Z" transform="translate(450.303 87.817)" fill="#535353"/></g><g opacity="0.4"><path d="M60.015,5.8h0V0l11.94,5.8-11.94,5.8Z" transform="translate(450.303 353.201)" fill="#535353"/><path d="M59.015,13.2V6.8H0v-2H59.015V-1.6L74.243,5.8Zm2-11.606v8.41l8.652-4.2Z" transform="translate(450.303 353.201)" fill="#535353"/></g><g opacity="0.4"><path d="M60.015,5.8h0V0l11.94,5.8-11.94,5.8Z" transform="translate(188.013 353.201)" fill="#535353"/><path d="M59.015,13.2V6.8H0v-2H59.015V-1.6L74.243,5.8Zm2-11.606v8.41l8.652-4.2Z" transform="translate(188.013 353.201)" fill="#535353"/></g><path transform="translate(1481.124 -1605.005)" fill="#707070"/><g transform="translate(86.656 188.013)"><path d="M0,0V14.12L14.483,6.964Z" transform="translate(14.12 63.989) rotate(90)" fill="#535353" opacity="0.4"/><path d="M524.193-1a1,1,0,0,1,1,1V31.673a1,1,0,0,1-1,1H1V63.215a1,1,0,0,1-1,1,1,1,0,0,1-1-1V31.542a1,1,0,0,1,1-1,1,1,0,0,1,.5.132h522.7V0A1,1,0,0,1,524.193-1Z" transform="translate(7.35 0)" fill="#707070" opacity="0.39"/></g></g></svg>