<svg xmlns="http://www.w3.org/2000/svg" width="750.714" height="688.851" viewBox="0 0 750.714 688.851"><path d="M5245.119,688.4c-8.139,0-16.369-.409-24.59-1.224a107.684,107.684,0,0,1-27-5.834,53.4,53.4,0,0,1-17.842-10.592,36.693,36.693,0,0,1-9.61-14.445,43.733,43.733,0,0,1-2.312-17.282,73.586,73.586,0,0,1,4.544-20.855,116.162,116.162,0,0,1,6.1-13.812c-7.838-3.971-16.2-8.336-25.2-13.148-24.582-13.144-50.9-28.018-78.766-43.766-22.98-12.987-46.744-26.417-71.333-39.9-9.358-5.13-17.528-10.066-24.284-14.673a126.628,126.628,0,0,1-16.351-12.951,49.332,49.332,0,0,1-9.251-11.568,22.077,22.077,0,0,1-2.925-10.531,18.7,18.7,0,0,1,1.109-6.271,25.056,25.056,0,0,1,3.151-5.952A53.4,53.4,0,0,1,4962,434.332c9.6-7.342,23.075-14.711,37.343-22.512,39.337-21.508,88.293-48.276,101-96.726a98.071,98.071,0,0,0,3.128-24.665,125.119,125.119,0,0,0-3.392-28.342,185.158,185.158,0,0,0-11.017-32.425,294.1,294.1,0,0,0-19.749-36.9q-20.884-33.492-40.8-55.457a43.893,43.893,0,0,1,1.158,9.451,37.328,37.328,0,0,1-2,12.477A41.837,41.837,0,0,1,5021.1,171.2a62.585,62.585,0,0,1-11.6,11.282,107.657,107.657,0,0,1-17.11,10.465,92.47,92.47,0,0,1-24.208,8.545,48.874,48.874,0,0,1-19.32.015,35.061,35.061,0,0,1-14.548-6.874,38.911,38.911,0,0,1-9.862-12.035,51.043,51.043,0,0,1-4.064-10.055,62.611,62.611,0,0,1-2.108-11.068,74.063,74.063,0,0,1,1.417-23.17,70.976,70.976,0,0,1,3.42-11.1,61.616,61.616,0,0,1,5.165-10.11,50.646,50.646,0,0,1,6.866-8.613,41.839,41.839,0,0,1,8.523-6.6,38.566,38.566,0,0,1,22.731-5.021c9.091.692,18.841,4.206,28.98,10.443,10,6.151,20.438,15,31.083,26.336-3.644-11.533-11.786-24.045-24.335-37.363-14.03-14.889-33.558-30.8-58.04-47.278-9.623-6.478-20.042-13.062-30.97-19.567-8.743-5.2-17.829-10.372-27-15.358C4870.49,5.583,4859.89.5,4859.784.451l.432-.9c.105.05,10.729,5.143,26.374,13.643,9.188,4.992,18.285,10.166,27.039,15.377,10.943,6.515,21.379,13.109,31.017,19.6,24.544,16.524,44.128,32.479,58.209,47.422,8.375,8.887,14.874,17.514,19.317,25.641a67.359,67.359,0,0,1,5.48,12.843q.183.611.35,1.22,1.05,1.139,2.1,2.31c13.016,14.494,26.494,32.876,40.06,54.633a295.057,295.057,0,0,1,19.816,37.025,186.218,186.218,0,0,1,11.076,32.6,126.107,126.107,0,0,1,3.417,28.57,99.065,99.065,0,0,1-3.161,24.916c-5.7,21.74-19.047,41.023-40.8,58.95-18.83,15.516-41.065,27.673-60.682,38.4-14.234,7.783-27.678,15.133-37.215,22.429-10.444,7.99-15.311,15.2-15.315,22.7,0,6.687,3.879,13.68,11.871,21.378a125.675,125.675,0,0,0,16.22,12.845c6.729,4.589,14.872,9.508,24.2,14.622,24.6,13.482,48.361,26.913,71.345,39.9,27.86,15.745,54.174,30.616,78.745,43.754,9,4.811,17.357,9.174,25.193,13.143q1.873-3.558,4.041-7.172c8.6-14.333,20.419-28.9,34.188-42.129,13.693-13.156,28.555-24.267,42.978-32.131a119.874,119.874,0,0,1,21.6-9.355,66.68,66.68,0,0,1,19.577-3.283l.43,0a38,38,0,0,1,14.823,2.928,31.575,31.575,0,0,1,11.895,9.008c7.073,8.575,10.975,21.665,11.6,38.9a195.482,195.482,0,0,1-.773,27.621,102.524,102.524,0,0,1-4.44,21.479,56.5,56.5,0,0,1-7.963,15.76,39.983,39.983,0,0,1-11.333,10.423,41.366,41.366,0,0,1-8.3,3.834,50.835,50.835,0,0,1-9.377,2.146,81.3,81.3,0,0,1-21.807-.379c-15-2.08-32.943-7.56-54.842-16.751-12.433-5.219-26.082-11.593-41.864-19.569a115.08,115.08,0,0,0-6.047,13.7,72.605,72.605,0,0,0-4.486,20.569c-.686,12.7,3.22,23.112,11.606,30.943,9.36,8.74,24.25,14.178,44.255,16.162q12.647,1.254,24.641,1.233c86.75,0,148.2-46.694,198.413-84.848,9.973-7.577,19.392-14.735,28.427-21.064a210.172,210.172,0,0,1,26.013-16.011c8.875-4.457,16.8-7.134,24.239-8.184a48.189,48.189,0,0,1,11.649-.27,44.046,44.046,0,0,1,11.414,2.757,86.274,86.274,0,0,1,23.122,13.346,91.593,91.593,0,0,1,16.9,18.1c8.316,11.667,14.708,25.913,19,42.341a183.128,183.128,0,0,1,4.043,20.226c.8,5.577,1.37,11.273,1.7,16.93a154.609,154.609,0,0,1,.2,15.972l-1-.058a153.963,153.963,0,0,0-.2-15.883c-.326-5.63-.895-11.3-1.69-16.848a182.108,182.108,0,0,0-4.023-20.112c-4.261-16.3-10.6-30.435-18.848-42a86.359,86.359,0,0,0-39.562-31.08c-13.562-5.259-28.334-3.461-46.491,5.658a209.228,209.228,0,0,0-25.888,15.936c-9.019,6.319-18.431,13.47-28.4,21.042-27.14,20.622-57.9,43.995-94.521,61.05a275.258,275.258,0,0,1-28.59,11.455,245.407,245.407,0,0,1-30.948,8.192,236,236,0,0,1-33.488,4.059Q5250.974,688.4,5245.119,688.4Zm-69.356-84.48c15.756,7.963,29.379,14.324,41.788,19.533,28.1,11.8,50.215,17.631,67.387,17.631,10.419,0,19.017-2.147,26.035-6.413a38.987,38.987,0,0,0,11.05-10.165,55.51,55.51,0,0,0,7.818-15.482,101.525,101.525,0,0,0,4.394-21.267,194.566,194.566,0,0,0,.769-27.478c-.613-17.015-4.438-29.9-11.368-38.3-6.253-7.581-14.986-11.475-25.956-11.573l-.42,0a65.689,65.689,0,0,0-19.281,3.238,118.906,118.906,0,0,0-21.422,9.277c-14.346,7.822-29.133,18.878-42.764,31.974-13.706,13.168-25.471,27.665-34.023,41.922Q5177.621,600.39,5175.763,603.92ZM4963.044,97.731a37.012,37.012,0,0,0-18.873,5.013c-11.358,6.6-19.924,19.638-23.5,35.778-3.44,15.523-1.7,31.822,4.659,43.6,5.288,9.8,13.5,16.162,23.744,18.407,11.956,2.62,26.378-.233,42.866-8.477,24.527-12.263,36.884-27.5,36.728-45.286a43.552,43.552,0,0,0-1.586-11.02q-16.556-17.938-32.226-27.594C4983.585,101.219,4972.849,97.731,4963.044,97.731Z" transform="translate(-4859.784 0.451)" fill="#033cfb" opacity="0.5"/></svg>