<svg id="contact_us_hero_img" xmlns="http://www.w3.org/2000/svg" xmlns:xlink="http://www.w3.org/1999/xlink" width="722" height="523.27" viewBox="0 0 722 523.27">
  <defs>
    <linearGradient id="linear-gradient" x1="-430.909" y1="4.476" x2="-430.895" y2="8.119" gradientUnits="objectBoundingBox">
      <stop offset="0" stop-color="#09005d"/>
      <stop offset="1" stop-color="#1a0f91"/>
    </linearGradient>
    <linearGradient id="linear-gradient-2" x1="-1357.792" y1="1.164" x2="-1358.052" y2="-0.58" gradientUnits="objectBoundingBox">
      <stop offset="0" stop-color="#febbba"/>
      <stop offset="1" stop-color="#ff928e"/>
    </linearGradient>
    <linearGradient id="linear-gradient-3" x1="-777.056" y1="3.704" x2="-777.032" y2="7.135" xlink:href="#linear-gradient"/>
    <linearGradient id="linear-gradient-4" x1="-1523.652" y1="1.127" x2="-1523.929" y2="-0.799" xlink:href="#linear-gradient-2"/>
    <linearGradient id="linear-gradient-5" x1="55.11" y1="-13.104" x2="21.465" y2="-4.719" xlink:href="#linear-gradient"/>
    <linearGradient id="linear-gradient-6" x1="-0.001" y1="0.5" x2="1.001" y2="0.5" gradientUnits="objectBoundingBox">
      <stop offset="0" stop-color="#e1473d"/>
      <stop offset="1" stop-color="#e9605a"/>
    </linearGradient>
    <linearGradient id="linear-gradient-7" x1="-379.607" y1="0.501" x2="-378.607" y2="0.501" xlink:href="#linear-gradient-2"/>
    <linearGradient id="linear-gradient-8" x1="-201.866" y1="0.499" x2="-200.866" y2="0.499" xlink:href="#linear-gradient-2"/>
    <linearGradient id="linear-gradient-9" x1="-752.61" y1="1.029" x2="-751.322" y2="0.223" xlink:href="#linear-gradient-2"/>
    <linearGradient id="linear-gradient-10" x1="-614.33" y1="0.176" x2="-615.65" y2="1.493" xlink:href="#linear-gradient-2"/>
    <linearGradient id="linear-gradient-11" x1="-391.082" y1="0.5" x2="-390.084" y2="0.5" xlink:href="#linear-gradient"/>
    <linearGradient id="linear-gradient-12" x1="-1906.934" y1="2.761" x2="-1903.673" y2="0.44" xlink:href="#linear-gradient-2"/>
    <linearGradient id="linear-gradient-13" x1="0" y1="0.5" x2="1" y2="0.5" xlink:href="#linear-gradient-6"/>
  </defs>
  <g id="OBJECTS">
    <path id="Path_1235" data-name="Path 1235" d="M123.9,174.947l2.119-2.826a.625.625,0,1,1,.989.763h0l-2.176,2.727h0a.579.579,0,0,1-.82.085.565.565,0,0,1-.113-.749Z" transform="translate(51.124 70.976)" fill="#d6e8fc"/>
    <path id="Path_1236" data-name="Path 1236" d="M129.13,168.45l2.374-2.6a.75.75,0,0,1,1.1,1.017h0l-2.388,2.515h0a.719.719,0,0,1-1.088-.933Z" transform="translate(53.267 68.387)" fill="#d6e8fc"/>
    <path id="Path_1237" data-name="Path 1237" d="M134.929,162.427l2.586-2.388a.876.876,0,0,1,1.187,1.286h0l-2.6,2.317h0a.862.862,0,0,1-1.187-.071.834.834,0,0,1,.014-1.144Z" transform="translate(55.621 66.003)" fill="#d6e8fc"/>
    <path id="Path_1238" data-name="Path 1238" d="M141.208,156.913l2.826-2.162a.965.965,0,1,1,1.2,1.512h0l-2.826,2.091h0a.933.933,0,0,1-1.314-.184.947.947,0,0,1,.113-1.258Z" transform="translate(58.187 63.817)" fill="#d6e8fc"/>
    <path id="Path_1239" data-name="Path 1239" d="M147.911,151.9l2.925-1.95a1.06,1.06,0,1,1,1.173,1.766h0L149.1,153.6h0a1.037,1.037,0,0,1-1.13-1.738Z" transform="translate(60.908 61.848)" fill="#d6e8fc"/>
    <path id="Path_1240" data-name="Path 1240" d="M154.943,147.39l3.066-1.738a1.159,1.159,0,0,1,1.144,2.006h0l-3.038,1.667h0a1.116,1.116,0,0,1-1.526-.452,1.144,1.144,0,0,1,.353-1.484Z" transform="translate(63.78 60.101)" fill="#d6e8fc"/>
    <path id="Path_1241" data-name="Path 1241" d="M162.305,143.407l3.165-1.54a1.257,1.257,0,0,1,1.681.593,1.243,1.243,0,0,1-.593,1.667h0l-3.165,1.413h0a1.229,1.229,0,0,1-1.625-.593,1.215,1.215,0,0,1,.537-1.54Z" transform="translate(66.761 58.531)" fill="#d6e8fc"/>
    <path id="Path_1242" data-name="Path 1242" d="M169.876,139.87l3.264-1.328a1.413,1.413,0,0,1,1.017,2.5h0l-3.25,1.258h0a1.328,1.328,0,0,1-.975-2.459Z" transform="translate(69.873 57.208)" fill="#d6e8fc"/>
    <path id="Path_1243" data-name="Path 1243" d="M177.714,136.874l3.335-1.1a1.436,1.436,0,0,1,.9,2.727h0l-3.292,1.046h0a1.417,1.417,0,0,1-.947-2.67Z" transform="translate(73.013 56.036)" fill="#d6e8fc"/>
    <path id="Path_1244" data-name="Path 1244" d="M185.68,134.374l3.405-.918a1.5,1.5,0,1,1,.777,2.9h0l-3.363.876h0a1.464,1.464,0,1,1-.763-2.826Z" transform="translate(76.252 55.088)" fill="#d6e8fc"/>
    <path id="Path_1245" data-name="Path 1245" d="M193.749,132.308l3.448-.721a1.554,1.554,0,0,1,.65,3.038h0l-3.405.692h0a1.54,1.54,0,0,1-.622-3.01Z" transform="translate(79.571 54.328)" fill="#d6e8fc"/>
    <path id="Path_1246" data-name="Path 1246" d="M201.941,130.68l3.476-.551a1.611,1.611,0,1,1,.509,3.179h0l-3.419.509h0a1.6,1.6,0,0,1-.495-3.151Z" transform="translate(82.894 53.723)" fill="#d6e8fc"/>
    <path id="Path_1247" data-name="Path 1247" d="M210.214,129.449l3.5-.4a1.671,1.671,0,0,1,.382,3.32h0l-3.462.353h0a1.656,1.656,0,0,1-.367-3.292Z" transform="translate(86.222 53.287)" fill="#d6e8fc"/>
    <path id="Path_1248" data-name="Path 1248" d="M218.475,128.586l3.5-.254a1.728,1.728,0,0,1,.254,3.448h0l-3.462.212h0a1.71,1.71,0,0,1-.226-3.405Z" transform="translate(89.632 52.992)" fill="#d6e8fc"/>
    <path id="Path_1249" data-name="Path 1249" d="M226.784,128.033l3.518-.113a1.781,1.781,0,1,1,.127,3.561h0l-3.476.085h0a1.78,1.78,0,0,1-.113-3.547Z" transform="translate(93.022 52.823)" fill="#d6e8fc"/>
    <path id="Path_1250" data-name="Path 1250" d="M235.107,127.822h3.518a1.851,1.851,0,1,1,0,3.688H235.15a1.837,1.837,0,0,1,0-3.66Z" transform="translate(96.412 52.78)" fill="#d6e8fc"/>
    <path id="Path_1251" data-name="Path 1251" d="M243.431,127.9l3.518.113a1.908,1.908,0,1,1-.113,3.815h0l-3.476-.141h0a1.893,1.893,0,0,1,.127-3.773Z" transform="translate(99.801 52.815)" fill="#d6e8fc"/>
    <path id="Path_1252" data-name="Path 1252" d="M251.8,128.279l3.518.254a1.964,1.964,0,1,1-.268,3.914h0l-3.547-.311h0a1.95,1.95,0,0,1,.283-3.886Z" transform="translate(103.146 52.96)" fill="#d6e8fc"/>
    <path id="Path_1253" data-name="Path 1253" d="M260.13,129l3.5.424a2.007,2.007,0,0,1-.48,3.985h0l-3.448-.424h0a2.007,2.007,0,0,1,.48-3.985Z" transform="translate(106.515 53.265)" fill="#d6e8fc"/>
    <path id="Path_1254" data-name="Path 1254" d="M268.4,130.125l3.49.608a2.035,2.035,0,0,1-.692,4h0l-3.419-.608h0a2.022,2.022,0,0,1,.692-3.985Z" transform="translate(109.886 53.728)" fill="#d6e8fc"/>
    <path id="Path_1255" data-name="Path 1255" d="M276.589,131.72l3.433.834a2.048,2.048,0,1,1-.947,3.985h0l-3.363-.82h0a2.049,2.049,0,0,1,.961-3.97Z" transform="translate(113.27 54.393)" fill="#d6e8fc"/>
    <path id="Path_1256" data-name="Path 1256" d="M284.757,133.866l3.363,1.06a2.077,2.077,0,0,1-1.229,3.956h0l-3.278-1.031h0a2.067,2.067,0,0,1,1.243-3.942Z" transform="translate(116.519 55.257)" fill="#d6e8fc"/>
    <path id="Path_1257" data-name="Path 1257" d="M292.714,136.608c1.1.424,2.19.862,3.292,1.314a2.094,2.094,0,0,1-1.6,3.871h0l-3.193-1.3a2.078,2.078,0,0,1,1.512-3.871Z" transform="translate(119.71 56.358)" fill="#d6e8fc"/>
    <path id="Path_1258" data-name="Path 1258" d="M300.422,139.981l3.165,1.6a2.107,2.107,0,1,1-1.907,3.758h0l-3.066-1.568h0a2.095,2.095,0,0,1,1.908-3.73Z" transform="translate(122.839 57.732)" fill="#d6e8fc"/>
    <path id="Path_1259" data-name="Path 1259" d="M307.845,144.09l2.953,1.837a2.134,2.134,0,1,1-2.275,3.6h0l-2.9-1.837h0a2.134,2.134,0,0,1-.65-2.939,2.105,2.105,0,0,1,2.868-.664Z" transform="translate(125.801 59.374)" fill="#d6e8fc"/>
    <path id="Path_1260" data-name="Path 1260" d="M314.855,148.789l2.826,2.19a2.148,2.148,0,0,1-2.628,3.391h0l-2.812-2.162h0a2.14,2.14,0,1,1,2.628-3.377Z" transform="translate(128.597 61.273)" fill="#d6e8fc"/>
    <path id="Path_1261" data-name="Path 1261" d="M321.348,154.256l2.572,2.487a2.162,2.162,0,1,1-2.981,3.066h0l-2.459-2.388h0a2.162,2.162,0,1,1,3-3.108Z" transform="translate(131.204 63.437)" fill="#d6e8fc"/>
    <path id="Path_1262" data-name="Path 1262" d="M327.228,160.327l2.261,2.826a2.2,2.2,0,1,1-3.377,2.826h0l-2.162-2.642h0a2.2,2.2,0,0,1,3.377-2.826Z" transform="translate(133.561 65.956)" fill="#d6e8fc"/>
    <path id="Path_1263" data-name="Path 1263" d="M332.322,167.126l1.908,3.024a2.209,2.209,0,0,1-3.744,2.345h0l-1.809-2.9h0a2.2,2.2,0,0,1,3.73-2.331Z" transform="translate(135.617 68.694)" fill="#d6e8fc"/>
    <path id="Path_1264" data-name="Path 1264" d="M336.582,174.629,338,177.907a2.232,2.232,0,0,1-4.055,1.837h0v-.085l-1.413-3.108v-.085a2.223,2.223,0,0,1,4.055-1.823Z" transform="translate(137.234 71.576)" fill="#d6e8fc"/>
    <path id="Path_1265" data-name="Path 1265" d="M339.669,182.656l.933,3.49a2.247,2.247,0,1,1-4.338,1.159h0v-.127l-.862-3.264V183.8a2.236,2.236,0,1,1,4.324-1.145Z" transform="translate(138.471 74.739)" fill="#d6e8fc"/>
    <path id="Path_1266" data-name="Path 1266" d="M341.359,191.138l.226,3.631a2.261,2.261,0,1,1-4.507.283h0V194.9l-.2-3.335v-.141a2.261,2.261,0,0,1,4.507-.283Z" transform="translate(139.112 78.099)" fill="#d6e8fc"/>
    <path id="Path_1267" data-name="Path 1267" d="M340,199.3c0,1.2.141,2.43.155,3.66a1.78,1.78,0,0,1-3.561,0,1.965,1.965,0,0,1,.113-.65v-.085c.4-1.074.876-2.134,1.3-3.236v-.071a.989.989,0,0,1,1.286-.579,1,1,0,0,1,.706.961Z" transform="translate(138.993 81.875)" fill="#d6e8fc"/>
    <path id="Path_1268" data-name="Path 1268" d="M339.4,208.2l-1.258,3.377a2.119,2.119,0,0,1-3.984-1.413v-.1l1.173-3.179v-.1a2.134,2.134,0,0,1,4,1.413Z" transform="translate(137.959 84.892)" fill="#d6e8fc"/>
    <path id="Path_1269" data-name="Path 1269" d="M336.127,216.142l-1.724,3.137a2.122,2.122,0,0,1-3.716-2.049v-.071l1.653-2.981v-.085a2.119,2.119,0,1,1,3.7,2.049Z" transform="translate(136.446 87.91)" fill="#d6e8fc"/>
    <path id="Path_1270" data-name="Path 1270" d="M331.769,223.383c-.692.961-1.413,1.936-2.063,2.9h0a2.105,2.105,0,0,1-3.377-2.5c.678-.918,1.314-1.865,1.978-2.826h0a2.105,2.105,0,1,1,3.433,2.43Z" transform="translate(134.616 90.842)" fill="#d6e8fc"/>
    <path id="Path_1271" data-name="Path 1271" d="M326.757,230.033l-2.331,2.685a2.1,2.1,0,1,1-3.165-2.755h0l2.247-2.586h0a2.121,2.121,0,0,1,3.165,2.826Z" transform="translate(132.45 93.601)" fill="#d6e8fc"/>
    <path id="Path_1272" data-name="Path 1272" d="M321.07,236.278l-2.572,2.444a2.077,2.077,0,1,1-2.826-3.024h0l2.487-2.36h0a2.091,2.091,0,1,1,2.826,3.024Z" transform="translate(130.027 96.032)" fill="#d6e8fc"/>
    <path id="Path_1273" data-name="Path 1273" d="M314.8,241.785l-2.826,2.2a2.068,2.068,0,0,1-2.557-3.25h0l2.7-2.134h0a2.077,2.077,0,0,1,2.572,3.25Z" transform="translate(127.447 98.381)" fill="#d6e8fc"/>
    <path id="Path_1274" data-name="Path 1274" d="M308.041,246.824l-2.967,1.936a2.063,2.063,0,0,1-2.261-3.448h0l2.826-1.893h0a2.067,2.067,0,0,1,2.261,3.462Z" transform="translate(124.687 100.379)" fill="#d6e8fc"/>
    <path id="Path_1275" data-name="Path 1275" d="M300.919,251.2l-3.137,1.681a2.051,2.051,0,1,1-1.936-3.617h0l3.038-1.639h0a2.055,2.055,0,1,1,1.95,3.617Z" transform="translate(121.72 102.152)" fill="#d6e8fc"/>
    <path id="Path_1276" data-name="Path 1276" d="M293.405,254.954l-3.264,1.413a2.038,2.038,0,0,1-1.611-3.744h0l3.165-1.413h0a2.041,2.041,0,0,1,1.625,3.744Z" transform="translate(118.638 103.665)" fill="#d6e8fc"/>
    <path id="Path_1277" data-name="Path 1277" d="M285.618,258.042l-3.363,1.116a2.02,2.02,0,1,1-1.286-3.829h0l3.264-1.088h0a2.035,2.035,0,1,1,1.3,3.857Z" transform="translate(115.432 104.943)" fill="#d6e8fc"/>
    <path id="Path_1278" data-name="Path 1278" d="M277.565,260.466l-3.433.848a2.035,2.035,0,0,1-2.444-1.484,2.006,2.006,0,0,1,1.484-2.43h0l3.349-.819h0a2.02,2.02,0,0,1,.975,3.914Z" transform="translate(112.167 105.939)" fill="#d6e8fc"/>
    <path id="Path_1279" data-name="Path 1279" d="M269.388,262.23l-3.5.551a2.006,2.006,0,1,1-.622-3.956h0l3.391-.537h0a2.01,2.01,0,1,1,.636,3.97Z" transform="translate(108.787 106.648)" fill="#d6e8fc"/>
    <path id="Path_1280" data-name="Path 1280" d="M261.007,263.286l-3.532.254a2,2,0,0,1-.283-3.984h0l3.448-.254h0a2,2,0,1,1,.3,3.985Z" transform="translate(105.44 107.075)" fill="#d6e8fc"/>
    <path id="Path_1281" data-name="Path 1281" d="M252.6,263.608h-3.546a1.978,1.978,0,0,1,.071-3.956h3.448a1.992,1.992,0,1,1,0,3.97Z" transform="translate(102.044 107.219)" fill="#d6e8fc"/>
    <path id="Path_1282" data-name="Path 1282" d="M244.173,263.308l-3.518-.381a1.968,1.968,0,1,1,.41-3.914h0l3.419.367h0a1.978,1.978,0,0,1-.424,3.928Z" transform="translate(98.649 106.953)" fill="#d6e8fc"/>
    <path id="Path_1283" data-name="Path 1283" d="M235.783,262.215l-3.476-.706a1.964,1.964,0,0,1,.777-3.843h0l3.363.678h0a1.964,1.964,0,1,1-.777,3.843Z" transform="translate(95.326 106.393)" fill="#d6e8fc"/>
    <path id="Path_1284" data-name="Path 1284" d="M227.6,260.359l-3.405-1.046a1.95,1.95,0,0,1-1.286-2.43,1.922,1.922,0,0,1,2.43-1.286h0l3.278,1h0a1.95,1.95,0,1,1-1.13,3.73Z" transform="translate(92.012 105.509)" fill="#d6e8fc"/>
    <path id="Path_1285" data-name="Path 1285" d="M219.639,257.733l-3.278-1.413a1.936,1.936,0,1,1,1.484-3.546h0l3.165,1.328h0a1.938,1.938,0,0,1-1.5,3.575Z" transform="translate(88.765 104.278)" fill="#d6e8fc"/>
    <path id="Path_1286" data-name="Path 1286" d="M211.853,254.186l-3.094-1.809a1.922,1.922,0,1,1,1.936-3.32h.071l2.953,1.71h0a1.928,1.928,0,1,1-1.936,3.335Z" transform="translate(85.812 102.738)" fill="#d6e8fc"/>
    <path id="Path_1287" data-name="Path 1287" d="M204.637,249.661l-2.826-2.3a1.911,1.911,0,0,1,2.444-2.939h.085l2.614,2.162.071.071a1.911,1.911,0,1,1-2.444,2.939Z" transform="translate(83.052 100.749)" fill="#d6e8fc"/>
    <path id="Path_1288" data-name="Path 1288" d="M198.249,243.771l-2.232-2.826a1.9,1.9,0,0,1,3-2.331l.085.1,2.077,2.642v.113a1.907,1.907,0,1,1-3,2.345Z" transform="translate(80.779 98.232)" fill="#d6e8fc"/>
    <path id="Path_1289" data-name="Path 1289" d="M193.293,236.578l-1.413-3.391a1.883,1.883,0,0,1,3.49-1.413v.141l1.272,3.08v.155a1.893,1.893,0,1,1-3.5,1.413Z" transform="translate(79.179 95.224)" fill="#d6e8fc"/>
    <path id="Path_1290" data-name="Path 1290" d="M190.5,228.225l-.382-3.645a1.865,1.865,0,0,1,3.7-.4v.17l.367,3.306v.17a1.869,1.869,0,1,1-3.716.4Z" transform="translate(78.508 91.934)" fill="#d6e8fc"/>
    <path id="Path_1291" data-name="Path 1291" d="M190.41,219.477l.777-3.6a1.826,1.826,0,0,1,3.575.749v.184l-.678,3.236v.184a1.837,1.837,0,1,1-3.589-.749Z" transform="translate(78.629 88.544)" fill="#d6e8fc"/>
    <path id="Path_1292" data-name="Path 1292" d="M193.391,210.88l2.091-3.066a1.794,1.794,0,0,1,2.967,2.006l-.127.184-1.823,2.713-.127.184a1.809,1.809,0,0,1-3-2.006Z" transform="translate(79.759 85.527)" fill="#d6e8fc"/>
    <path id="Path_1293" data-name="Path 1293" d="M199.45,204.019l3.08-2.006a1.766,1.766,0,0,1,1.936,2.939l-.155.1-2.826,1.823-.155.113a1.766,1.766,0,0,1-2.444-.509,1.794,1.794,0,0,1,.495-2.459Z" transform="translate(82.009 83.332)" fill="#d6e8fc"/>
    <path id="Path_1294" data-name="Path 1294" d="M207.222,199.813l3.448-1.046a1.724,1.724,0,1,1,1.017,3.292h-.1l-3.236,1h-.113a1.738,1.738,0,0,1-1.031-3.32Z" transform="translate(85.06 82.041)" fill="#d6e8fc"/>
    <path id="Path_1295" data-name="Path 1295" d="M215.494,197.686l3.546-.424a1.7,1.7,0,0,1,.424,3.363h0l-3.405.424h0a1.7,1.7,0,1,1-.424-3.377Z" transform="translate(88.43 81.455)" fill="#d6e8fc"/>
    <path id="Path_1296" data-name="Path 1296" d="M224.006,196.93h3.575a1.667,1.667,0,1,1,0,3.32h-3.5a1.681,1.681,0,1,1,0-3.349Z" transform="translate(91.773 81.307)" fill="#d6e8fc"/>
    <path id="Path_1297" data-name="Path 1297" d="M232.529,197.621l3.532.82a1.63,1.63,0,1,1-.721,3.179h-.127l-3.292-.749h-.113a1.639,1.639,0,1,1,.721-3.193Z" transform="translate(95.161 81.605)" fill="#d6e8fc"/>
    <path id="Path_1298" data-name="Path 1298" d="M240.707,200.489c1.046.636,2.119,1.215,3.137,1.907a1.6,1.6,0,1,1-1.809,2.628c-.9-.622-1.893-1.13-2.826-1.71l-.155-.1a1.6,1.6,0,1,1,1.667-2.727Z" transform="translate(98.4 82.694)" fill="#d6e8fc"/>
    <path id="Path_1299" data-name="Path 1299" d="M247.571,205.959l2.261,2.826a1.558,1.558,0,0,1-2.43,1.95l-.085-.113-2.105-2.6-.1-.113a1.572,1.572,0,1,1,2.444-1.978Z" transform="translate(101.073 84.797)" fill="#d6e8fc"/>
    <path id="Path_1300" data-name="Path 1300" d="M252.214,213.251l1.413,3.32a1.535,1.535,0,0,1-2.826,1.2v-.1l-1.413-3.108v-.1a1.54,1.54,0,0,1,2.826-1.215Z" transform="translate(102.944 87.706)" fill="#d6e8fc"/>
    <path id="Path_1301" data-name="Path 1301" d="M254.972,221.372l.749,3.49a1.5,1.5,0,0,1-2.925.622v-.071l-.735-3.335h0a1.512,1.512,0,1,1,2.939-.65Z" transform="translate(104.057 90.889)" fill="#d6e8fc"/>
    <path id="Path_1302" data-name="Path 1302" d="M256.276,229.613l.24,3.532a1.459,1.459,0,0,1-2.911.212h0l-.254-3.433h0a1.474,1.474,0,0,1,2.939-.226Z" transform="translate(104.618 94.29)" fill="#d6e8fc"/>
    <path id="Path_1303" data-name="Path 1303" d="M256.559,237.979l-.113,3.546a1.414,1.414,0,1,1-2.826-.085h0l.085-3.448h0a1.413,1.413,0,0,1,2.826.071Z" transform="translate(104.731 97.709)" fill="#d6e8fc"/>
    <path id="Path_1304" data-name="Path 1304" d="M256.105,246.343l-.424,3.518a1.4,1.4,0,0,1-2.769-.339h0l.41-3.433h0a1.422,1.422,0,1,1,2.826.325Z" transform="translate(104.435 101.1)" fill="#d6e8fc"/>
    <path id="Path_1305" data-name="Path 1305" d="M254.882,254.6l-.749,3.448a1.358,1.358,0,1,1-2.656-.565h0l.721-3.377h0a1.372,1.372,0,1,1,2.685.565Z" transform="translate(103.837 104.484)" fill="#d6e8fc"/>
    <path id="Path_1306" data-name="Path 1306" d="M252.9,262.672l-1.074,3.363a1.3,1.3,0,0,1-2.487-.777h0l1.017-3.306h0a1.328,1.328,0,0,1,2.529.777Z" transform="translate(102.938 107.83)" fill="#d6e8fc"/>
    <path id="Path_1307" data-name="Path 1307" d="M250.184,270.565l-1.413,3.264a1.248,1.248,0,1,1-2.3-.961h0l1.3-3.207h0a1.258,1.258,0,0,1,1.653-.692,1.244,1.244,0,0,1,.692,1.639Z" transform="translate(101.738 111.029)" fill="#d6e8fc"/>
    <path id="Path_1308" data-name="Path 1308" d="M246.738,278.141l-1.653,3.123a1.2,1.2,0,0,1-1.611.495,1.187,1.187,0,0,1-.495-1.6h0l1.6-3.08h0a1.215,1.215,0,0,1,1.625-.523,1.2,1.2,0,0,1,.509,1.625Z" transform="translate(100.281 114.149)" fill="#d6e8fc"/>
    <path id="Path_1309" data-name="Path 1309" d="M242.631,285.342l-1.936,3.024a1.116,1.116,0,0,1-1.554.325,1.13,1.13,0,0,1-.339-1.554h0l1.879-2.911h0a1.147,1.147,0,1,1,1.936,1.229Z" transform="translate(98.539 117.149)" fill="#d6e8fc"/>
    <path id="Path_1310" data-name="Path 1310" d="M237.856,292.158l-2.19,2.755a1.074,1.074,0,0,1-1.681-1.328h0l2.134-2.727h0a1.109,1.109,0,0,1,1.71,1.413Z" transform="translate(96.545 119.942)" fill="#d6e8fc"/>
    <path id="Path_1311" data-name="Path 1311" d="M232.476,298.517l-2.416,2.557a1.017,1.017,0,0,1-1.413,0,.989.989,0,0,1,0-1.413h0l2.374-2.543h0a1.031,1.031,0,1,1,1.5,1.413Z" transform="translate(94.296 122.54)" fill="#d6e8fc"/>
    <path id="Path_1312" data-name="Path 1312" d="M226.735,304.423l-2.388,2.529h0a.96.96,0,0,1-1.413-1.3l2.374-2.586a.989.989,0,0,1,1.413,0,.961.961,0,0,1,0,1.413h0Z" transform="translate(91.955 125.027)" fill="#d6e8fc"/>
    <path id="Path_1313" data-name="Path 1313" d="M221.2,310.5l-2.077,2.741h0a.889.889,0,0,1-1.427-1.06l2.105-2.826a.9.9,0,0,1,1.272-.2.918.918,0,0,1,.184,1.272h0Z" transform="translate(89.822 127.593)" fill="#d6e8fc"/>
    <path id="Path_1314" data-name="Path 1314" d="M216.566,317.232l-1.413,3.123h0a.828.828,0,1,1-1.512-.678l1.413-3.25a.848.848,0,0,1,1.13-.424.862.862,0,0,1,.424,1.13h0Z" transform="translate(88.191 130.459)" fill="#d6e8fc"/>
    <path id="Path_1315" data-name="Path 1315" d="M213.556,324.756l-.692,3.377h0a.777.777,0,1,1-1.512-.3l.678-3.49a.793.793,0,0,1,1.554.311h0Z" transform="translate(87.26 133.674)" fill="#d6e8fc"/>
    <path id="Path_1316" data-name="Path 1316" d="M212.326,332.735V336.2h0a.714.714,0,0,1-1.427.028l-.1-3.547a.749.749,0,0,1,.721-.749.735.735,0,0,1,.749.707h0Z" transform="translate(87.049 137.068)" fill="#d6e8fc"/>
    <path id="Path_1317" data-name="Path 1317" d="M213.014,340.776l.805,3.363h0a.655.655,0,0,1-1.272.311L211.686,341a.664.664,0,0,1,.495-.805.65.65,0,0,1,.805.48h0Z" transform="translate(87.406 140.473)" fill="#d6e8fc"/>
    <path id="Path_1318" data-name="Path 1318" d="M215.476,348.452l1.554,3.08h0a.594.594,0,0,1-.268.791.608.608,0,0,1-.791-.254l-1.611-3.151a.61.61,0,0,1,1.088-.551h0Z" transform="translate(88.491 143.718)" fill="#d6e8fc"/>
    <path id="Path_1319" data-name="Path 1319" d="M343.467,139.45l-90.626,1.681a6.415,6.415,0,0,0-6.231,7.347l1.568,10.639a6.415,6.415,0,0,0,6.4,5.482l90.824-.678a6.415,6.415,0,0,0,6.288-7.39l-1.823-11.657A6.415,6.415,0,0,0,343.467,139.45Z" transform="translate(101.808 57.585)" fill="none" stroke="#c8c9e3" stroke-miterlimit="10" stroke-width="1.36"/>
    <path id="Path_1320" data-name="Path 1320" d="M414.418,144.752l.495,3.01a8.237,8.237,0,0,1-7.969,9.594l-11.3.212-55.1,1.074a8.238,8.238,0,0,1-8.351-7.4l-.381-3.674a8.237,8.237,0,0,1,8.124-9.085l66.154-.608a8.237,8.237,0,0,1,8.336,6.881Z" transform="translate(136.998 56.932)" fill="none" stroke="#e5e6f3" stroke-miterlimit="10" stroke-width="1.1"/>
    <path id="Path_1321" data-name="Path 1321" d="M346.121,136.61l-90.584,1.681a6.4,6.4,0,0,0-6.217,7.333l1.568,10.654a6.4,6.4,0,0,0,6.386,5.468l90.824-.664a6.4,6.4,0,0,0,6.288-7.4l-1.823-11.657a6.4,6.4,0,0,0-6.443-5.412Z" transform="translate(102.927 56.412)" fill="#243c55"/>
    <path id="Path_1322" data-name="Path 1322" d="M316.06,141.691l-4.649.283a10.928,10.928,0,0,0-2.247.155,4.041,4.041,0,0,0-2.119.523.325.325,0,0,0,0,.509,3.914,3.914,0,0,0,2.063.212c.777,0,1.554-.1,2.331-.155l4.564-.339c.749,0,.763-1.243,0-1.187Z" transform="translate(126.742 58.509)" fill="#97b5ce"/>
    <path id="Path_1323" data-name="Path 1323" d="M306.205,142.177c-3.8-.226-7.587-.311-11.388-.3-1.865,0-3.73,0-5.652.113-1.639,0-3.773-.113-5.27.678a.41.41,0,0,0,.1.735,7.065,7.065,0,0,0,2.557.1l2.826-.141c1.865,0,3.744-.085,5.652-.071,3.73,0,7.46.1,11.2,0a.579.579,0,0,0,0-1.144Z" transform="translate(117.155 58.588)" fill="#97b5ce"/>
    <path id="Path_1324" data-name="Path 1324" d="M282.545,142a25.431,25.431,0,0,0-5.567.509c-.382.085-.424.749,0,.805a25.3,25.3,0,0,0,5.567,0,.636.636,0,0,0,0-1.257Z" transform="translate(114.252 58.637)" fill="#97b5ce"/>
    <path id="Path_1325" data-name="Path 1325" d="M279.717,142.237a92.721,92.721,0,0,0-10.484-.339c-1.71,0-3.433.127-5.143.254-.848.071-1.71.127-2.572.24a3.377,3.377,0,0,0-2.021.65.452.452,0,0,0,.1.706,3.659,3.659,0,0,0,2.275.17l2.388-.212c1.71-.141,3.433-.254,5.157-.311,3.419-.113,6.867-.127,10.3,0a.587.587,0,0,0,0-1.173Z" transform="translate(107.105 58.585)" fill="#97b5ce"/>
    <path id="Path_1326" data-name="Path 1326" d="M323.108,148.063a22.027,22.027,0,0,0-7.46-.41l-8.209.2-8.026.184-4.239.1c-1.116,0-2.6-.212-3.518.523a.523.523,0,0,0,.113.834c.9.664,2.515.311,3.575.283l4.027-.113,7.856-.226,7.856-.212c1.272,0,2.557,0,3.829-.113a12.21,12.21,0,0,1,3.8.24.667.667,0,1,0,.353-1.286Z" transform="translate(120.372 60.912)" fill="#97b5ce"/>
    <path id="Path_1327" data-name="Path 1327" d="M290.714,147.99a21.444,21.444,0,0,1-2.826-.127c-.438,0-.876-.071-1.328-.085a1.879,1.879,0,0,0-1.413.325.523.523,0,0,0-.071.579,1.724,1.724,0,0,0,1.314.65,13.419,13.419,0,0,0,1.5.141h2.826a.749.749,0,0,0,.735-.735.735.735,0,0,0-.735-.735Z" transform="translate(117.697 61.013)" fill="#97b5ce"/>
    <path id="Path_1328" data-name="Path 1328" d="M291.081,147.814c-5.652,0-11.219.071-16.828.113H261.805c-1.046,0-2.826-.3-3.433.721a.523.523,0,0,0,0,.537c.664.961,2.247.664,3.264.678,1.413,0,2.826,0,4.239-.071l8.407-.184c5.652-.127,11.219-.268,16.828-.565a.622.622,0,1,0,0-1.243Z" transform="translate(106.662 61.033)" fill="#97b5ce"/>
    <path id="Path_1329" data-name="Path 1329" d="M394.007,146.575a17.327,17.327,0,0,0-3.532-3.207,2.826,2.826,0,0,0-3.716-.155c-1.413,1.144-2.727,2.4-4.1,3.6a6.669,6.669,0,0,1-1.893,1.5c-.551.184-.932-.141-1.314-.523a7.433,7.433,0,0,0-2.289-2.02,3.363,3.363,0,0,0-2.967.438c-.819.48-1.837,1.54-2.826.862a4.663,4.663,0,0,0-1.6-1.017,3.913,3.913,0,0,0-2.2.212,18.028,18.028,0,0,1-2.529.918,7.064,7.064,0,0,1-2.671,0,29.359,29.359,0,0,1-5.539-1.653c-.678-.254-1.116.834-.494,1.173,2.826,1.512,5.793,2.826,9.015,2.176,1.272-.283,3.193-1.851,4.408-.947a5.383,5.383,0,0,0,1.526,1.06,2.515,2.515,0,0,0,1.611,0c1.017-.353,1.71-1.243,2.671-1.7s1.724.523,2.317,1.229a3.49,3.49,0,0,0,2.458,1.54c1.413,0,2.487-1.413,3.405-2.3l2.105-2.063c.664-.664,1.667-2.063,2.727-1.907a6.485,6.485,0,0,1,2.586,1.7,17.047,17.047,0,0,1,1.936,1.978c.494.593,1.328-.254.848-.834Z" transform="translate(147.024 58.881)" fill="#97b5ce"/>
    <path id="Path_1330" data-name="Path 1330" d="M473.705,400.919s34.886-80.538,8.478-165.484a.664.664,0,0,0-1.229.127C474.6,286.908,472.688,342.522,473.705,400.919Z" transform="translate(195.507 97.073)" fill="#031efb" opacity="0.5"/>
    <path id="Path_1331" data-name="Path 1331" d="M474,393.486h-.24a.932.932,0,0,1-.65-1.145C484.894,350.49,483,252.05,482.93,251.047a.933.933,0,0,1,.9-.947.918.918,0,0,1,.947.9c0,.989,1.964,99.7-9.891,141.817a.918.918,0,0,1-.89.664Z" transform="translate(195.354 103.277)" fill="#031efb"/>
    <path id="Path_1332" data-name="Path 1332" d="M473.959,401.4s21.547-98.906-19.174-198.928a.636.636,0,0,0-1.215.24C455.746,264.681,463.136,331.471,473.959,401.4Z" transform="translate(187.299 83.454)" fill="#035afb" opacity="0.5"/>
    <path id="Path_1333" data-name="Path 1333" d="M472.131,392.324h-.1a.947.947,0,0,1-.834-1.017c4.846-50.993-13.592-168.917-13.776-170.1a.947.947,0,0,1,.777-1.06.918.918,0,0,1,1.046.777c.2,1.187,18.651,119.337,13.8,170.571a.933.933,0,0,1-.918.834Z" transform="translate(188.886 90.902)" fill="#035afb"/>
    <path id="Path_1334" data-name="Path 1334" d="M477.88,410.106s10.329-86.26-40.975-163.9c-.339-.509-1.272-.2-1.173.4C444.789,298.3,459.484,353.108,477.88,410.106Z" transform="translate(179.93 101.563)" fill="#031efb" opacity="0.5"/>
    <path id="Path_1335" data-name="Path 1335" d="M474.959,402.937a.919.919,0,0,1-.918-.9c-.876-43.476-32.116-139.5-32.427-140.461a.92.92,0,0,1,1.752-.565c.325.961,31.636,97.239,32.5,140.984a.932.932,0,0,1-.9.947Z" transform="translate(182.343 107.517)" fill="#031efb"/>
    <path id="Path_1336" data-name="Path 1336" d="M452.218,328.49h47.4a4.832,4.832,0,0,1,4.719,5.92c-3.038,13.14-6.669,26.479-14.129,40.015a7.814,7.814,0,0,1-6.839,4.055H467.831a7.644,7.644,0,0,1-6.725-4.012,137.294,137.294,0,0,1-14.525-39.252,5.652,5.652,0,0,1,5.638-6.726Z" transform="translate(184.37 135.648)" fill="#03d0fb"/>
    <path id="Path_1337" data-name="Path 1337" d="M347.074,254.212h-64.8a2.946,2.946,0,0,1,0-5.892h64.656a2.953,2.953,0,0,1,.141,5.892Z" transform="translate(115.368 102.542)" fill="#243c55"/>
    <path id="Path_1338" data-name="Path 1338" d="M265.321,207.259q0,.071,0,.141l27.256,59.81a2.967,2.967,0,0,1-1.413,3.914,2.826,2.826,0,0,1-3.829-1.413l-27.256-59.838a2.967,2.967,0,0,1,1.413-3.914,2.826,2.826,0,0,1,3.829,1.3Z" transform="translate(107.286 84.923)" fill="#243c55"/>
    <path id="Path_1339" data-name="Path 1339" d="M359.241,346.52a89.818,89.818,0,0,1,1.088,9.4,4.055,4.055,0,0,1-3.659,4.239c-7.545.721-24.727,2.077-35.705.495a1.837,1.837,0,0,1-1-3.165c4.521-4.239,15.444-12.42,33.43-14.214Z" transform="translate(131.884 141.751)" fill="url(#linear-gradient)"/>
    <path id="Path_1340" data-name="Path 1340" d="M354.059,339.891l-3.815,9.354a3.122,3.122,0,0,1-3.207,1.936,17.069,17.069,0,0,1-3.109-.593,4.1,4.1,0,0,1-2.727-5.1l2.826-9.636Z" transform="translate(140.824 138.687)" fill="url(#linear-gradient-2)"/>
    <path id="Path_1341" data-name="Path 1341" d="M399.592,350.84s-7.644,6.4-10.625,14.6a3.49,3.49,0,0,0,3.32,4.634h15.726a3.7,3.7,0,0,0,3.66-4.338C410.669,360.067,407.787,350.868,399.592,350.84Z" transform="translate(160.542 144.877)" fill="url(#linear-gradient-3)"/>
    <path id="Path_1342" data-name="Path 1342" d="M406.553,345.339s-1.54,6.839-2.727,11.3a1.413,1.413,0,0,1-1.893.989,13.013,13.013,0,0,0-5.722-1.031,1.13,1.13,0,0,1-1.229-1.116l-.141-11.3Z" transform="translate(163.047 142.127)" fill="url(#linear-gradient-4)"/>
    <path id="Path_1343" data-name="Path 1343" d="M387.946,241.279,341.46,383.111s8.916,5.836,13.169,5.652L409.846,274.78S419.511,345,414.82,395.432l15.825,1.2s25.716-128.846,6.231-172.973Z" transform="translate(141.004 92.359)" fill="#243c55"/>
    <path id="Path_1344" data-name="Path 1344" d="M390.328,263.378h0a.438.438,0,0,0,.381-.509l-1.794-14.313a.466.466,0,0,0-.509-.4.48.48,0,0,0-.4.509l1.809,14.313a.452.452,0,0,0,.509.4Z" transform="translate(160.226 102.475)" fill="url(#linear-gradient-5)"/>
    <path id="Path_1345" data-name="Path 1345" d="M381.417,147.81s37.669,3.349,32.342,30.18c0,0,20.827,39.181,30.548,85.328a2.713,2.713,0,0,1-2.19,3.236l-62.735,10.738a3.377,3.377,0,0,1-3.829-2.487l-14.991-57.931-5.835,26.931-18.566-4.832,15.627-79.125S353.963,148.3,381.417,147.81Z" transform="translate(138.815 61.037)" fill="#031efb"/>
    <path id="Path_1346" data-name="Path 1346" d="M354.863,202.164h.113a.48.48,0,0,0,.353-.565l-5.228-24.02a.47.47,0,1,0-.918.2l5.228,24.02a.48.48,0,0,0,.452.367Z" transform="translate(144.189 73.177)" fill="url(#linear-gradient-6)"/>
    <path id="Path_1347" data-name="Path 1347" d="M359.671,257.521a8.944,8.944,0,0,1,6.485-.848l4.366,1.088a1.582,1.582,0,0,0,1.95-1.413l4.521-40.2c5.652,2.685,13.79,2.36,16.475,2.162l-10.4,47.39H346.7Z" transform="translate(143.168 89.258)" fill="url(#linear-gradient-7)"/>
    <path id="Path_1348" data-name="Path 1348" d="M287.49,191.694l1.1-3.66a7.164,7.164,0,0,1,4.239-4.62l19.88-8s.3-2.543-4.239-4.239-3.448-6.768-3.448-6.768,6.16,2.826,15.161,7.248a21.067,21.067,0,0,1,9.566,10.413l45.059,54.935-5.3,3.631a14.129,14.129,0,0,1-20.474-5.03l-24.4-46.8A91.2,91.2,0,0,1,287.49,191.694Z" transform="translate(118.717 67.892)" fill="url(#linear-gradient-8)"/>
    <path id="Path_1349" data-name="Path 1349" d="M363.066,129.792,374.652,162.2s-10.258,8.026-17.747,5.313l-5.835-18.594S355.521,126.217,363.066,129.792Z" transform="translate(144.972 53.439)" fill="url(#linear-gradient-9)"/>
    <path id="Path_1350" data-name="Path 1350" d="M335.09,123.327c0,.509,11.162,31.593,11.162,31.593l17.619-6.768-6.2-31.085S335.09,114.977,335.09,123.327Z" transform="translate(138.373 48.246)" fill="url(#linear-gradient-10)"/>
    <path id="Path_1351" data-name="Path 1351" d="M357.151,127.82,361.7,143.9a2.452,2.452,0,0,1,.085.636c0,1.314-.325,5.821-4.917,5.214-4.239-.565-8-1-10.413.127a2.36,2.36,0,0,0-1.215,2.911,99.867,99.867,0,0,0,6.429,14.313,2.317,2.317,0,0,0,2.981.961,74.31,74.31,0,0,0,15.1-8.887,2.3,2.3,0,0,0,.834-2.232c-.777-4.126-3.066-16.63-3.179-20.219-.085-3.363,3.688-5.934,5.355-6.9a2.332,2.332,0,0,0,1.074-1.413c.523-2.162.961-7.065-5.284-8.153a2.331,2.331,0,0,1-1.893-2.826c.523-2.586.353-6.4-4.564-7.8s-8.153,1.583-9.749,3.886a2.346,2.346,0,0,1-2.9.777,1.837,1.837,0,0,0-2.077.367,2.289,2.289,0,0,1-3.363-.509,6.952,6.952,0,0,0-8.591-2.826c-7.955,2.572-7.573,11.756-4.663,16.743s11.388,1.7,15.4-1.611c3.052-2.5,7.686-1,9.735-.141A2.317,2.317,0,0,1,357.151,127.82Z" transform="translate(135.797 45.125)" fill="url(#linear-gradient-11)"/>
    <path id="Path_1352" data-name="Path 1352" d="M358,136.752s-4.705-8.916-1.6-11.713,8.393-2.346,8.252,4.634C364.482,138.363,358,136.752,358,136.752Z" transform="translate(146.735 50.971)" fill="url(#linear-gradient-12)"/>
    <path id="Path_1353" data-name="Path 1353" d="M381.757,237.07a41.782,41.782,0,0,0,4.606-.226h.339l13.706-63.95a.452.452,0,0,0-.353-.551.466.466,0,0,0-.551.353l-13.578,63.286c-2.035.184-12.943.9-18.693-3.179l11.883-55.543-2.487-4.677a.465.465,0,1,0-.819.438l2.317,4.366L366.2,233.2l.226.184C370.594,236.476,377.292,237.07,381.757,237.07Z" transform="translate(151.22 71.164)" fill="url(#linear-gradient-13)"/>
    <path id="Path_1354" data-name="Path 1354" d="M325.863,257.8c.367,1.215,34.617,106.437,43.293,133.113,1,3.066-1.794,6.09-5.652,6.09a5.736,5.736,0,0,1-5.652-3.674L319.83,267.069Z" transform="translate(132.072 106.457)" fill="#bcbec0"/>
    <path id="Path_1355" data-name="Path 1355" d="M323.543,257.8c-.353,1.215-34.6,106.437-43.293,133.113-1,3.066,1.794,6.09,5.652,6.09a5.751,5.751,0,0,0,5.652-3.674l38.008-126.261Z" transform="translate(115.643 106.457)" fill="#bcbec0"/>
    <path id="Path_1356" data-name="Path 1356" d="M309.82,254.83h21.335v17.2a4.451,4.451,0,0,1-4.408,4.465h-2.925v38.474a3.335,3.335,0,1,1-6.669,0V276.42h-1.427a5.892,5.892,0,0,1-5.85-5.92Z" transform="translate(127.938 105.23)" fill="#bcbec0"/>
    <path id="Path_1357" data-name="Path 1357" d="M416.55,251.923H267.357a4.507,4.507,0,0,0-4.437,2.826l-2.077,6.514c-.749,2.345,1.413,4.634,4.451,4.62l153.149-.706c2.967,0,5.129-2.275,4.408-4.606l-1.809-5.807a4.521,4.521,0,0,0-4.493-2.84Z" transform="translate(107.652 104.026)" fill="#58595b"/>
    <rect id="Rectangle_129" data-name="Rectangle 129" width="95.289" height="67.143" rx="4.07" transform="translate(170.514 96.984)" fill="#035afb"/>
    <path id="Path_1358" data-name="Path 1358" d="M144.468,124.207h-1.837a1.667,1.667,0,0,1-1.639-1.413,1.7,1.7,0,0,1,1.229-1.851,81.442,81.442,0,0,0,12.589-4.974c-16.673-1.413-19.993-9.891-20.643-13.833-1.625-9.891,6.952-21.053,19.117-24.924,12.406-3.928,24.981-2.515,32.031,3.617,3.744,3.264,7.814,9.509,5.892,20.742C187.619,122.526,154.839,124.207,144.468,124.207ZM143.055,123.783Zm-.353-2.628Zm24.091-8.209-5.284,2.939a114.952,114.952,0,0,1-10.583,5.1c12.886-.777,34.66-4.408,37.316-19.993,1.342-7.912-.3-13.946-4.9-17.944-7.065-6.217-19.781-5.991-29.121-3.024-10.611,3.377-18.368,13.239-17.04,21.547,1.229,7.545,9.891,11.77,23.568,11.473Z" transform="translate(55.322 30.977)" fill="#fff"/>
    <rect id="Rectangle_130" data-name="Rectangle 130" width="95.289" height="67.143" rx="3.19" transform="translate(295.319)" fill="#243c55"/>
    <path id="Path_1359" data-name="Path 1359" d="M272.615,54.59H227.7a6.683,6.683,0,0,1-6.7-6.669V13.233a6.683,6.683,0,0,1,6.669-6.683h44.917a6.683,6.683,0,0,1,6.669,6.683V47.921a6.683,6.683,0,0,1-6.641,6.669ZM227.7,8.867a4.366,4.366,0,0,0-4.352,4.366V47.921a4.352,4.352,0,0,0,4.352,4.352h44.918a4.352,4.352,0,0,0,4.352-4.352V13.233a4.366,4.366,0,0,0-4.352-4.366Z" transform="translate(91.261 2.705)" fill="#fff"/>
    <path id="Path_1360" data-name="Path 1360" d="M249.472,30.115,222.4,9.811l1.385-1.851,25.73,19.287L275.88,8.539l1.342,1.893Z" transform="translate(91.839 3.287)" fill="#fff"/>
    <rect id="Rectangle_131" data-name="Rectangle 131" width="2.317" height="34.278" transform="translate(350.562 25.311) rotate(-29.43)" fill="#fff"/>
    <rect id="Rectangle_132" data-name="Rectangle 132" width="34.278" height="2.317" transform="translate(313.525 53.745) rotate(-61.12)" fill="#fff"/>
    <rect id="Rectangle_133" data-name="Rectangle 133" width="95.289" height="67.143" rx="3.72" transform="translate(401.841 79.591)" fill="#035afb"/>
    <path id="Path_1361" data-name="Path 1361" d="M338.167,111.533c-3.716,0-8.1-1.738-13.027-5.2h0c-3.264-2.289-17.521-16.546-19.781-19.781-4.112-5.878-5.807-10.964-5-15.09a9.891,9.891,0,0,1,4.578-6.542l2.162-1.413a3.518,3.518,0,0,1,4.846.989l5.991,8.986a4.055,4.055,0,0,1-1.031,5.652h0l-1.031.664a3.6,3.6,0,0,0-1.625,2.713,3.533,3.533,0,0,0,1.144,2.939h0L326.327,96.4a3.6,3.6,0,0,0,5.652-.495l.692-1.074a4.069,4.069,0,0,1,5.652-1.031l8.873,5.963a3.532,3.532,0,0,1,1,4.846l-1.413,2.162a10,10,0,0,1-6.556,4.578,10.982,10.982,0,0,1-2.063.184Zm-11.7-7.065c5.355,3.744,9.891,5.3,13.324,4.62a7.658,7.658,0,0,0,5.044-3.561l1.413-2.176a1.187,1.187,0,0,0-.339-1.653l-8.972-5.991a1.752,1.752,0,0,0-2.4.438l-.664,1a5.906,5.906,0,0,1-9.269.82l-10.88-10.88a5.906,5.906,0,0,1,.82-9.269l1.017-.65a1.78,1.78,0,0,0,.424-2.416l-5.991-8.972a1.2,1.2,0,0,0-1.653-.339l-2.162,1.413A7.644,7.644,0,0,0,302.6,71.9c-.678,3.49.876,7.969,4.62,13.324,2.148,3.066,16.178,17.1,19.244,19.244Z" transform="translate(123.95 25.989)" fill="#fff"/>
    <path id="Path_1362" data-name="Path 1362" d="M99.475,391.762h-.127a1.5,1.5,0,0,1-1.5-1.512l2.261-97.493,6.627-.777-5.652,98.3a1.611,1.611,0,0,1-1.611,1.484Z" transform="translate(40.407 120.571)" fill="#bcbec0"/>
    <path id="Path_1363" data-name="Path 1363" d="M72.125,391.754h-.141a1.413,1.413,0,0,1-1.413-1.512l2.247-97.493L79.374,292l-5.652,98.3a1.6,1.6,0,0,1-1.6,1.455Z" transform="translate(29.14 120.58)" fill="#6d6e71"/>
    <path id="Path_1364" data-name="Path 1364" d="M149.206,391.754h.141a1.413,1.413,0,0,0,1.484-1.512l-2.247-97.493L142,292l5.652,98.3a1.625,1.625,0,0,0,1.554,1.455Z" transform="translate(58.638 120.58)" fill="#bcbec0"/>
    <path id="Path_1365" data-name="Path 1365" d="M68.56,313.981V247.163A21.293,21.293,0,0,1,89.853,225.87h48.153a21.279,21.279,0,0,1,21.279,21.293v69.319Z" transform="translate(28.311 93.272)" fill="#bcbec0"/>
    <path id="Path_1366" data-name="Path 1366" d="M68.572,288.23h99.358v10.555H79.085A10.555,10.555,0,0,1,68.53,288.23h.042Z" transform="translate(28.299 119.023)" fill="#6d6e71"/>
    <rect id="Rectangle_134" data-name="Rectangle 134" width="79.775" height="10.555" rx="3.73" transform="translate(132.308 407.253)" fill="#bcbec0"/>
    <path id="Path_1367" data-name="Path 1367" d="M166.521,277.044c-6.867,11.953-15.542,16.574-15.542,16.574H115.09S171.763,267.9,166.521,277.044Z" transform="translate(47.526 113.592)" fill="#233862"/>
    <path id="Path_1368" data-name="Path 1368" d="M132.251,350.637a3.349,3.349,0,0,0-.593,3.547h0c.862,2.36,3.688,5,6.98,7.644.424.339.791.65,1.116.933l.254.226.2.184c3.066,2.826,1.907,3.476,7.418,9.212,6.288,6.528,10.611,6.641,11.84,6.047s-1.074-3.97-3.419-7.87l-.339-.565-.933-1.568c-2.755-4.691-2.049-6.881-1.413-13.861.537-5.652,8.831-31.692,8.831-31.692l-12.038-2.063s-3.631,20.714-7.63,23.893c-2.134,1.71-4.521,1.724-6.57,2.981l-.424.268A16.15,16.15,0,0,0,132.251,350.637Z" transform="translate(54.257 132.476)" fill="#ffb27d"/>
    <path id="Path_1369" data-name="Path 1369" d="M132.251,342.783a3.349,3.349,0,0,0-.593,3.547h0c1.046,2.36,3.815,4.988,6.994,7.616l1.1.961.254.226.2.184c3.066,2.826,1.907,3.476,7.418,9.212,6.288,6.528,10.611,6.641,11.84,6.047s-1.074-3.97-3.419-7.87a26.634,26.634,0,0,1-11.2-8.252c-3.773-4.818-6.3-11.021-8.873-14.624l-.424.268a16.15,16.15,0,0,0-3.292,2.685Z" transform="translate(54.257 140.331)" fill="#233862"/>
    <path id="Path_1370" data-name="Path 1370" d="M203.486,344.169c.749,3.716,6.033,3.094,11.954,1.639s4.521.283,12.943-.65,10.964-4.069,11.3-5.327-3.942-1.512-8.478-2.02l-1.681-.141c-5.044-.636-8.732-3.886-13.31-6.556-4.338-2.529-10.809-12.844-10.809-12.844l-11.558.918s6.062,9.212,8.478,13.211c1.413,2.36,1.314,5.468,1.144,7.87a14.3,14.3,0,0,0,.014,3.9Z" transform="translate(80.049 131.428)" fill="#ffb27d"/>
    <path id="Path_1371" data-name="Path 1371" d="M212.665,340.1c5.92-1.413,4.521.283,12.943-.65s10.964-4.069,11.3-5.327-3.942-1.512-8.478-2.021v.085a23.682,23.682,0,0,1-12.052,3.759c-5.652.127-11.77-1.512-15.712-1.413a14.3,14.3,0,0,0,.085,3.956C201.46,342.174,206.744,341.553,212.665,340.1Z" transform="translate(82.824 137.139)" fill="#233862"/>
    <path id="Path_1372" data-name="Path 1372" d="M180.931,289.731,170.136,318.8l-14.129,37.938a22.779,22.779,0,0,1-7.489-.692,32.582,32.582,0,0,1-7.248-3.518s3.914-40.735,11.219-64.119c1.879-6.005,3.97-10.866,6.288-13.593C170.122,261.43,180.931,289.731,180.931,289.731Z" transform="translate(58.337 111.997)" fill="#0a2033"/>
    <path id="Path_1373" data-name="Path 1373" d="M192.1,253.374c-7.065-2.275-27.256.65-47.517,4.62l-4.239-7.065-43.8-3.419S82.1,279.542,90,299.958a7.432,7.432,0,0,0,7.418,4.988h35.154c21.773,0,46.076-14.977,49.213-15.542,5.157-1.031,7.206,9.255,12.363,20.064s48.365,47.871,48.365,47.871,6.655,0,9.4-.975a9.156,9.156,0,0,0,4.027-2.543S208.052,258.517,192.1,253.374Z" transform="translate(36.19 102.208)" fill="#243c55"/>
    <path id="Path_1374" data-name="Path 1374" d="M145.388,160.821c-5.652-2.939-14.129-3.335-15.542-3.518C113.3,155.07,103.3,179.175,102.7,186.48c-1.074,13.465-8.2,15.542-18.227,24.02-20.106,16.955-14.129,36.553-3.222,43.8,6.6,4.38,18.227,0,18.227,0s31.791-17.676,47.376-26.267C170.228,224.756,159.687,168.338,145.388,160.821Z" transform="translate(29.407 64.897)" fill="#233862"/>
    <path id="Path_1375" data-name="Path 1375" d="M121.731,209.29s-7.658,2.7-12.844.4c-4.861-2.148-8.478-10.159-8.478-10.159,2.218-.1,4.649-2.035,6.514-14.737l.947.325,15.853,5.652s-1.144,5.087-1.893,9.891C121.209,204.868,120.869,208.725,121.731,209.29Z" transform="translate(41.464 76.308)" fill="#ffb27d"/>
    <path id="Path_1376" data-name="Path 1376" d="M121.543,190.741s-1.144,5.087-1.893,9.891c-9.1-1.639-12.717-10.71-13.96-15.641Z" transform="translate(43.644 76.39)" fill="#ed975d"/>
    <path id="Path_1377" data-name="Path 1377" d="M124.367,203.795s-21.689-2.911-19.668-16.4.579-22.932,14.511-21.646,15.853,6.839,16.277,11.5S130.061,204.2,124.367,203.795Z" transform="translate(43.18 68.395)" fill="#ffb27d"/>
    <path id="Path_1378" data-name="Path 1378" d="M136.515,170.2s-13.889,11.968-23.328,12.928-13.027-2.063-13.027-2.063a36.85,36.85,0,0,0,8.916-12.081,6.655,6.655,0,0,1,5.482-3.914C121.3,164.494,134.085,164.225,136.515,170.2Z" transform="translate(41.36 68.048)" fill="#233862"/>
    <path id="Path_1379" data-name="Path 1379" d="M119.75,168.617s4.634,4.493,6.1,7.828,1.837,10.908.706,13.96c0,0,7.248-14.129,3.137-20.912C125.359,162.244,119.75,168.617,119.75,168.617Z" transform="translate(49.45 68.56)" fill="#233862"/>
    <path id="Path_1380" data-name="Path 1380" d="M145.439,237.1c-.65,43.914-.184,34.744-4.974,38.9-1.159,1-4.423,1.611-8.7,1.893-13.465.89-37.132-1.328-38.036-3.815-3.094-8.619-.9-11.3-3.5-24.472-.268-1.413-.593-2.911-.989-4.564-2.162-9.057-4.239-12.137,3.405-26.691,6.938-13.169,14.129-23.865,14.822-23.483,18.368,10.894,19.781,1.738,19.781,1.738S145.764,215.676,145.439,237.1Z" transform="translate(36.025 80.463)" fill="#033cfb"/>
    <path id="Path_1381" data-name="Path 1381" d="M170.136,313.772,156.007,351.71a22.779,22.779,0,0,1-7.489-.692,32.581,32.581,0,0,1-7.248-3.518s3.914-40.735,11.219-64.119Z" transform="translate(58.337 117.02)" fill="#243c55"/>
    <path id="Path_1382" data-name="Path 1382" d="M115.57,196.09s18.877,3.207,21.1,11.3,15.246,55.882,15.246,55.882-9.594,1.724-14.016-2.713-15.429-41.117-15.429-41.117Z" transform="translate(47.724 80.974)" fill="#033cfb"/>
    <path id="Path_1383" data-name="Path 1383" d="M130.891,267.231c-13.465.89-37.132-1.328-38.036-3.815-3.094-8.619-.9-11.3-3.5-24.472l6.57-18.284s-1.074,20.361,4.931,25.716,24.585,10.343,27.51,14.822a16.206,16.206,0,0,1,2.529,6.033Z" transform="translate(36.897 91.12)" fill="#033cfb"/>
    <path id="Path_1384" data-name="Path 1384" d="M107.83,248.162s13.3-2.967,15.429-1.78,7.39,5.468,8.04,6.966-4.776-1.145-6.542-1.611c-1.144-.311-4.14.735-5.652,1.229-6.273,2.091-10.117,1.017-10.117,1.017Z" transform="translate(44.528 101.626)" fill="#ffb27d"/>
    <path id="Path_1385" data-name="Path 1385" d="M114.118,194.86s-17.845,1.1-24.02,9.707c-8.69,12.123-25.928,63.794-16.051,70.647,11.134,7.771,50.654,2.035,50.654,2.035s1.314-6.146-.523-9.113-31.565-7.785-32.936-9.156S108.4,232.218,108.4,228.092,114.118,194.86,114.118,194.86Z" transform="translate(29.353 80.466)" fill="#033cfb"/>
    <path id="Path_1386" data-name="Path 1386" d="M119.21,248.91a26.423,26.423,0,0,0,3.688,4.027,2.826,2.826,0,0,0,1.512.325l-1.879-3.377Z" transform="translate(49.227 102.786)" fill="#ffb27d"/>
    <path id="Path_1387" data-name="Path 1387" d="M118.75,246.3l8.1,3.928a1.413,1.413,0,0,1-1.413.509,19.2,19.2,0,0,1-3.5-.961Z" transform="translate(49.037 101.708)" fill="#ffb27d"/>
    <path id="Path_1388" data-name="Path 1388" d="M126.959,269.645h55.755a3.815,3.815,0,0,0,3.546-2.4l16.178-40.227a3.829,3.829,0,0,0-3.561-5.256H143.222a3.815,3.815,0,0,0-3.546,2.4l-16.263,40.212a3.829,3.829,0,0,0,3.546,5.27Z" transform="translate(50.846 91.574)" fill="#6d6e71"/>
    <path id="Path_1389" data-name="Path 1389" d="M192.366,254.33H107.83V256.2h82.262a2.261,2.261,0,0,0,2.091-1.413Z" transform="translate(44.528 105.024)" fill="#6d6e71"/>
    <path id="Path_1390" data-name="Path 1390" d="M157.506,240.063c.48-1.06-.495-1.922-2.176-1.922a4.521,4.521,0,0,0-3.914,1.922c-.48,1.06.48,1.922,2.176,1.922A4.521,4.521,0,0,0,157.506,240.063Z" transform="translate(62.475 98.337)" fill="#fff"/>
    <rect id="Rectangle_135" data-name="Rectangle 135" width="722" height="10.018" transform="translate(722 523.27) rotate(180)" fill="#031efb" opacity="0.35"/>
    <path id="Path_1391" data-name="Path 1391" d="M235.8,138.131l7.87,27.482a3.6,3.6,0,0,1,.127,1.215,3.561,3.561,0,0,1-2.557,3.165L193.5,183.656a3.518,3.518,0,0,1-3.843-1.413,3.166,3.166,0,0,1-.523-1.074l-7.87-27.482a3.532,3.532,0,0,1,2.43-4.366l47.743-13.663a3.532,3.532,0,0,1,4.366,2.473Z" transform="translate(74.794 55.965)" fill="#cde0fb"/>
    <path id="Path_1392" data-name="Path 1392" d="M241.3,159.613a3.561,3.561,0,0,1-2.557,3.165L191,176.441a3.518,3.518,0,0,1-3.843-1.413L211.477,153Z" transform="translate(77.287 63.18)" fill="#bed7fb"/>
    <path id="Path_1393" data-name="Path 1393" d="M235.8,138.116l-21.378,26.535-32.752-9.509-.41-1.413a3.532,3.532,0,0,1,2.43-4.366L231.433,135.7a3.532,3.532,0,0,1,4.366,2.416Z" transform="translate(74.794 55.98)" fill="#dfebfd"/>
  </g>
</svg>
