<svg xmlns="http://www.w3.org/2000/svg" width="32" height="31" viewBox="0 0 32 31">
  <g id="email" transform="translate(0.426 -0.21)">
    <rect id="Rectangle_127" data-name="Rectangle 127" width="32" height="31" rx="5" transform="translate(-0.426 0.21)" fill="#ff7b6b"/>
    <g id="email-2" data-name="email" transform="translate(5.333 8.244)">
      <g id="Group_859" data-name="Group 859" transform="translate(14.139 2.704)">
        <g id="Group_858" data-name="Group 858">
          <path id="Path_1230" data-name="Path 1230" d="M339.392,149.634l7.191,4.546V144.9Z" transform="translate(-339.392 -144.896)" fill="#fff"/>
        </g>
      </g>
      <g id="Group_861" data-name="Group 861" transform="translate(0 2.704)">
        <g id="Group_860" data-name="Group 860">
          <path id="Path_1231" data-name="Path 1231" d="M0,144.9v9.284l7.191-4.546Z" transform="translate(0 -144.896)" fill="#fff"/>
        </g>
      </g>
      <g id="Group_863" data-name="Group 863" transform="translate(0.04 0)">
        <g id="Group_862" data-name="Group 862">
          <path id="Path_1232" data-name="Path 1232" d="M20.917,80H2.253A1.317,1.317,0,0,0,.96,81.135l10.625,7,10.625-7A1.317,1.317,0,0,0,20.917,80Z" transform="translate(-0.96 -80)" fill="#fff"/>
        </g>
      </g>
      <g id="Group_865" data-name="Group 865" transform="translate(0.043 8.246)">
        <g id="Group_864" data-name="Group 864">
          <path id="Path_1233" data-name="Path 1233" d="M13.9,277.921l-1.886,1.242a.669.669,0,0,1-.733,0L9.394,277.92l-8.37,5.294a1.315,1.315,0,0,0,1.29,1.125H20.979a1.315,1.315,0,0,0,1.29-1.125Z" transform="translate(-1.024 -277.92)" fill="#fff"/>
        </g>
      </g>
    </g>
  </g>
</svg>
