<svg xmlns="http://www.w3.org/2000/svg" xmlns:xlink="http://www.w3.org/1999/xlink" width="424.258" height="271.208" viewBox="0 0 424.258 271.208">
  <defs>
    <radialGradient id="radial-gradient" cx="0.544" cy="0.635" r="0.694" gradientTransform="matrix(-1.125, 0, 0, 1, 36.152, 0)" gradientUnits="objectBoundingBox">
      <stop offset="0" stop-color="#ffc8af"/>
      <stop offset="1" stop-color="#ffbb9c"/>
    </radialGradient>
    <radialGradient id="radial-gradient-2" cx="0.5" cy="0.5" r="0.598" gradientTransform="translate(0.134) scale(0.733 1)" xlink:href="#radial-gradient"/>
    <radialGradient id="radial-gradient-3" cx="0.5" cy="0.5" r="0.573" gradientTransform="translate(0.108) scale(0.784 1)" xlink:href="#radial-gradient"/>
    <linearGradient id="linear-gradient" x1="17.277" y1="0.5" x2="18.277" y2="0.5" gradientUnits="objectBoundingBox">
      <stop offset="0" stop-color="#606bf1"/>
      <stop offset="1" stop-color="#433aff"/>
    </linearGradient>
    <radialGradient id="radial-gradient-4" cx="7.563" cy="0.5" r="0.872" gradientTransform="translate(0.278) scale(0.444 1)" xlink:href="#radial-gradient"/>
    <radialGradient id="radial-gradient-5" cx="27.098" cy="-0.026" r="1.496" gradientTransform="translate(0.069) scale(0.862 1)" xlink:href="#radial-gradient"/>
    <linearGradient id="linear-gradient-2" x1="13.141" x2="13.141" y2="1" gradientUnits="objectBoundingBox">
      <stop offset="0" stop-color="#56549e"/>
      <stop offset="0.99" stop-color="#2e2c71"/>
    </linearGradient>
    <linearGradient id="linear-gradient-3" x1="-475.484" y1="4.471" x2="-475.466" y2="8.115" gradientUnits="objectBoundingBox">
      <stop offset="0" stop-color="#09005d"/>
      <stop offset="1" stop-color="#1a0f91"/>
    </linearGradient>
    <radialGradient id="radial-gradient-6" cx="0.499" cy="0.5" r="0.464" gradientTransform="translate(264.389) scale(1.177 1)" xlink:href="#radial-gradient"/>
    <linearGradient id="linear-gradient-4" x1="-848.924" y1="3.703" x2="-848.898" y2="7.135" xlink:href="#linear-gradient-3"/>
    <radialGradient id="radial-gradient-7" cx="0.494" cy="0.501" r="0.468" gradientTransform="translate(262.826) scale(1.158 1)" xlink:href="#radial-gradient"/>
    <linearGradient id="linear-gradient-5" x1="-7218.82" y1="2.372" x2="-7217.436" y2="1.881" gradientUnits="objectBoundingBox">
      <stop offset="0" stop-color="#4f52ff"/>
      <stop offset="1" stop-color="#4042e2"/>
    </linearGradient>
    <radialGradient id="radial-gradient-8" cx="0.5" cy="0.5" r="0.486" gradientTransform="translate(24.933) scale(1.06 1)" xlink:href="#radial-gradient"/>
    <radialGradient id="radial-gradient-9" cx="0.499" cy="0.5" r="0.528" gradientTransform="translate(-21.83) scale(0.902 1)" xlink:href="#radial-gradient"/>
    <radialGradient id="radial-gradient-10" cx="0.5" cy="0.5" r="0.414" gradientTransform="translate(528.319) scale(1.64 1)" xlink:href="#radial-gradient"/>
    <radialGradient id="radial-gradient-11" cx="0.502" cy="0.5" r="0.443" gradientTransform="translate(217.883) scale(1.322 1)" xlink:href="#radial-gradient"/>
    <radialGradient id="radial-gradient-12" cx="0.498" cy="0.498" r="0.432" gradientTransform="translate(886.164) scale(1.427 1)" xlink:href="#radial-gradient"/>
  </defs>
  <g id="form_back" opacity="0.2">
    <g id="OBJECTS" transform="translate(0 0)">
      <path id="Path_978" data-name="Path 978" d="M199.049,50.131a.448.448,0,0,1-.249-.382c0-.556,0-1.121,0-1.661a.415.415,0,0,1,.44-.4c.565,0,.365.581.374,2.084a.4.4,0,0,1-.415.407A.449.449,0,0,1,199.049,50.131Z" transform="translate(-33.743 -8.093)" fill="#91b3fa"/>
      <path id="Path_979" data-name="Path 979" d="M199.49,34.975c.174-1.054.4-2.109.656-3.147a.407.407,0,0,1,.515-.291c.614.158.183.482-.34,3.587a.423.423,0,0,1-.83-.149Zm2.258-8.112c.39-1,.83-1.993,1.3-2.931a.425.425,0,1,1,.764.374c-.465.93-.888,1.9-1.27,2.873a.423.423,0,0,1-.548.232.432.432,0,0,1-.241-.548Zm3.886-7.472c.589-.888,1.22-1.768,1.876-2.607.34-.432,1.013.091.673.515-.648.83-1.262,1.661-1.843,2.557a.423.423,0,0,1-.706-.448ZM211,13.479a.4.4,0,0,1,0-.581c.764-.756,1.569-1.478,2.391-2.167.415-.349.971.291.548.639-.83.673-1.594,1.387-2.341,2.117a.423.423,0,0,1-.6-.008Zm6.5-5.264a.407.407,0,0,1,.116-.573c.9-.581,1.843-1.129,2.79-1.661.49-.257.9.482.415.739-.93.49-1.851,1.03-2.74,1.594a.423.423,0,0,1-.581-.083ZM225.186,4.6a.415.415,0,0,1,0-.764c1-.382,2.042-.731,3.072-1.038a.44.44,0,0,1,.531.282.4.4,0,0,1-.274.515c-1.013.3-2.026.639-3.014,1.013a.457.457,0,0,1-.315.008Zm8.145-2.175a.432.432,0,0,1-.241-.307.415.415,0,0,1,.34-.482c1.071-.166,2.159-.3,3.238-.39a.432.432,0,0,1,.465.382.415.415,0,0,1-.382.448c-1.054.083-2.125.216-3.172.382a.423.423,0,0,1-.249-.017Zm8.211-.88a.415.415,0,0,1,.432-.4c1.088.05,2.184.141,3.263.274a.418.418,0,1,1-.091.83c-1.054-.125-2.134-.216-3.188-.266a.423.423,0,0,1-.415-.423Zm26.369,10.926c-2.391-2.1-2.964-2.109-2.574-2.607a.423.423,0,0,1,.589-.075c.872.656,1.719,1.353,2.541,2.067a.415.415,0,1,1-.556.614Zm-17.95-9.789a.432.432,0,0,1,.515-.307c1.054.266,2.109.581,3.147.922a.435.435,0,1,1-.257.83c-1.013-.34-2.051-.639-3.089-.9a.432.432,0,0,1-.316-.548Zm11.1,4.849c-2.765-1.578-3.321-1.478-3.055-2.042a.423.423,0,0,1,.565-.191c.98.465,1.959.98,2.906,1.519a.415.415,0,1,1-.415.714Z" transform="translate(-33.86 -0.194)" fill="#91b3fa"/>
      <path id="Path_980" data-name="Path 980" d="M287.408,20.389c-.888-1.1-1.47-1.494-1.038-1.86a.423.423,0,0,1,.6.05c.971,1.1,1.461,1.544,1.038,1.885A.49.49,0,0,1,287.408,20.389Z" transform="translate(-48.582 -3.126)" fill="#91b3fa"/>
      <path id="Path_981" data-name="Path 981" d="M298.608,57.616a.415.415,0,0,1-.249-.432c.066-.54.125-1.1.174-1.661a.415.415,0,0,1,.448-.374.432.432,0,0,1,.39.457q-.075.83-.174,1.661a.423.423,0,0,1-.473.357Z" transform="translate(-50.641 -9.359)" fill="#91b3fa"/>
      <path id="Path_982" data-name="Path 982" d="M225.064,89.844c-1.054-.515-2.1-1.088-3.105-1.661a.423.423,0,0,1-.149-.573c.34-.548.54,0,3.62,1.528a.423.423,0,0,1,.2.556.432.432,0,0,1-.565.149ZM230.1,91.5c.2-.606.54-.108,3.852.722a.423.423,0,0,1,.307.506.407.407,0,0,1-.506.3c-1.129-.282-2.275-.614-3.387-1a.415.415,0,0,1-.266-.523Zm-12.844-6.642c-.913-.731-1.81-1.511-2.657-2.316a.407.407,0,0,1,0-.589c.448-.465.523.116,3.2,2.267a.407.407,0,0,1,.066.581.415.415,0,0,1-.606.066Zm22,9.133a.423.423,0,0,1-.241-.423.4.4,0,0,1,.457-.365c1.146.125,2.3.208,3.446.232a.423.423,0,0,1,.415.432.415.415,0,0,1-.423.407,31.355,31.355,0,0,1-3.52-.249Zm9.133,0a.415.415,0,0,1-.249-.332.4.4,0,0,1,.365-.457c1.137-.125,2.275-.3,3.4-.515a.44.44,0,0,1,.506.332.4.4,0,0,1-.324.482c-1.146.224-2.316.4-3.471.523a.4.4,0,0,1-.224.017Zm8.867-1.91a.407.407,0,0,1-.224-.241.415.415,0,0,1,.224-.49c1.079-.365,2.15-.78,3.2-1.237a.432.432,0,0,1,.556.216.407.407,0,0,1-.208.548c-1.063.465-2.159.888-3.255,1.254a.4.4,0,0,1-.291-.05Zm8.2-3.819a.423.423,0,0,1-.183-.158.415.415,0,0,1,.125-.573c.971-.589,1.926-1.229,2.831-1.893a.44.44,0,0,1,.6.091.415.415,0,0,1-.083.581c-.93.681-1.9,1.328-2.889,1.926a.407.407,0,0,1-.4.025Zm7-5.6c-.465-.465.125-.506,2.333-3.055a.423.423,0,0,1,.639.548c-.747.83-1.553,1.719-2.375,2.491a.432.432,0,0,1-.6.017Zm5.77-6.883c-.556-.349,0-.515,1.577-3.487a.423.423,0,0,1,.747.39c-.54,1.013-1.121,2.018-1.744,2.981A.423.423,0,0,1,278.226,75.787Zm4.035-8a.415.415,0,0,1-.224-.523c.382-1.063.731-2.142,1.021-3.23a.415.415,0,0,1,.515-.282.423.423,0,0,1,.3.515c-.3,1.1-.648,2.209-1.038,3.321a.423.423,0,0,1-.54.241Z" transform="translate(-36.402 -10.817)" fill="#91b3fa"/>
      <path id="Path_983" data-name="Path 983" d="M209.7,80.889c-.922-1.146-1.395-1.611-.955-1.926s.673.249,1.611,1.42a.407.407,0,0,1-.066.581A.423.423,0,0,1,209.7,80.889Z" transform="translate(-35.403 -13.386)" fill="#91b3fa"/>
      <path id="Path_984" data-name="Path 984" d="M312.468,25.389a4.234,4.234,0,1,1,3.952,4.492h0a4.243,4.243,0,0,1-3.952-4.492Zm3.994,3.861Zm-2.723-3.786a2.981,2.981,0,0,0,2.773,3.163h0a2.972,2.972,0,1,0-2.773-3.163Z" transform="translate(-53.035 -3.634)" fill="#bdd0fb"/>
      <path id="Path_985" data-name="Path 985" d="M291.911,33.706c-.166-.548-.307-1.1-.423-1.661a.415.415,0,0,1,.324-.5c.565-.125.49.515.9,1.918a.432.432,0,0,1-.83.241Z" transform="translate(-49.473 -5.35)" fill="#91b3fa"/>
      <path id="Path_986" data-name="Path 986" d="M290.9,21.1a21.74,21.74,0,0,1,.407-3.446.423.423,0,1,1,.83.166c-.606,3.014-.133,3.744-.83,3.711a.415.415,0,0,1-.407-.432Zm2.4-8.2a.432.432,0,0,1-.2-.565,22.036,22.036,0,0,1,1.76-2.989.423.423,0,0,1,.689.482,21.722,21.722,0,0,0-1.661,2.873.432.432,0,0,1-.589.2Zm5.43-7.007a.582.582,0,0,1-.141-.108.432.432,0,0,1,0-.6,23.192,23.192,0,0,1,2.8-2.042.432.432,0,0,1,.581.141.423.423,0,0,1-.141.581,22.022,22.022,0,0,0-2.649,1.951.424.424,0,0,1-.448.075Zm7.763-4.276a.457.457,0,0,1-.224-.257.415.415,0,0,1,.282-.523A21.164,21.164,0,0,1,309.93.074a.423.423,0,0,1,.473.357.407.407,0,0,1-.357.473,21.91,21.91,0,0,0-3.288.756.415.415,0,0,1-.266-.05ZM315.061.373A.432.432,0,0,1,315.526,0a23.247,23.247,0,0,1,3.4.656.43.43,0,1,1-.224.83A21.679,21.679,0,0,0,315.451.83a.423.423,0,0,1-.39-.457Z" transform="translate(-49.375 0.002)" fill="#91b3fa"/>
      <path id="Path_987" data-name="Path 987" d="M331.78,5.02c-1.27-.872-1.827-.963-1.544-1.453a.432.432,0,0,1,.581-.158q.739.44,1.445.922a.415.415,0,0,1,.108.581.423.423,0,0,1-.589.108Z" transform="translate(-56.039 -0.568)" fill="#91b3fa"/>
      <path id="Path_988" data-name="Path 988" d="M342.946,22.813c-.2-1.536-.506-2.009.05-2.125a.415.415,0,0,1,.5.324c.116.556.208,1.129.282,1.661a.419.419,0,1,1-.83.108Z" transform="translate(-58.164 -3.508)" fill="#91b3fa"/>
      <path id="Path_989" data-name="Path 989" d="M308.826,47.483c.224-.664.714,0,3.711.515a.423.423,0,0,1-.133.83,21.677,21.677,0,0,1-3.321-.83.423.423,0,0,1-.257-.515Zm8.643,1.2a.423.423,0,0,1,.382-.457c3.055-.249,3.578-.888,3.745-.208a.423.423,0,0,1-.315.506,21.664,21.664,0,0,1-3.363.54.415.415,0,0,1-.448-.382Zm8.411-2.292c-.324-.614.506-.5,2.947-2.325a.423.423,0,0,1,.5.681,22.952,22.952,0,0,1-2.873,1.818.423.423,0,0,1-.573-.174Zm6.841-5.413c-.548-.44.266-.656,1.793-3.321a.423.423,0,0,1,.731.423,22.354,22.354,0,0,1-1.935,2.8A.423.423,0,0,1,332.722,40.974Zm3.869-8.186c.83-2.939.415-3.661,1.113-3.578a.423.423,0,0,1,.365.473A21.576,21.576,0,0,1,337.4,33a.431.431,0,1,1-.83-.232Z" transform="translate(-52.415 -4.955)" fill="#91b3fa"/>
      <path id="Path_990" data-name="Path 990" d="M302.808,48.644c-.482-.307-.955-.631-1.4-.98a.415.415,0,0,1-.083-.589c.349-.465.706.075,1.934.83a.418.418,0,1,1-.448.706Z" transform="translate(-51.129 -7.959)" fill="#91b3fa"/>
      <path id="Path_991" data-name="Path 991" d="M310.313,33.369a.632.632,0,1,1,.614-1.1,8.975,8.975,0,0,0,1.777.83,9.133,9.133,0,1,0-5.5-12.545c-1.926,4.151.249,6.343-1.079,6.642a.639.639,0,0,1-.764-.473,10.42,10.42,0,1,1,6.958,7.564h0a10.345,10.345,0,0,1-2.009-.913Z" transform="translate(-51.784 -2.365)" fill="#bdd0fb"/>
      <path id="Path_992" data-name="Path 992" d="M352.658,52.817l-4.625,16.157a2.116,2.116,0,0,0-.075.714,2.092,2.092,0,0,0,1.5,1.86l28.055,8.029a2.084,2.084,0,0,0,2.258-.83,2.126,2.126,0,0,0,.307-.631l4.625-16.149a2.084,2.084,0,0,0-1.428-2.574l-28.055-8.029a2.076,2.076,0,0,0-2.565,1.453Z" transform="translate(-59.059 -8.703)" fill="#cde0fb"/>
      <path id="Path_993" data-name="Path 993" d="M348,72.647a2.092,2.092,0,0,0,1.5,1.86l28.055,8.029a2.084,2.084,0,0,0,2.258-.83L365.494,68.72Z" transform="translate(-59.067 -11.662)" fill="#bed7fb"/>
      <path id="Path_994" data-name="Path 994" d="M353.62,52.822l12.554,15.6,19.254-5.6.241-.83a2.084,2.084,0,0,0-1.428-2.574l-28.055-8.029A2.076,2.076,0,0,0,353.62,52.822Z" transform="translate(-60.021 -8.708)" fill="#dfebfd"/>
      <path id="Path_995" data-name="Path 995" d="M270.057,63.348l2.134-4.982.05-.116a1.3,1.3,0,0,0-.556-1.661l-3.969-2.225-.183-.125a1.279,1.279,0,0,1-.415-1.337,22.666,22.666,0,0,0,.689-8.959,1.778,1.778,0,0,1,0-.365,1.337,1.337,0,0,1,.83-1l3.562-1.337a1.32,1.32,0,0,0,.83-1.088,1.72,1.72,0,0,0,0-.457l-1.395-5.388a1.32,1.32,0,0,0-1.577-.988l-4.982.83a1.3,1.3,0,0,1-1.262-.54,13.611,13.611,0,0,0-1.337-1.661,22.326,22.326,0,0,0-2.873-2.806h0a1.312,1.312,0,0,1-.423-1.428l1.611-4.874.075-.249a1.279,1.279,0,0,0-.714-1.578l-5.123-2.192a1.337,1.337,0,0,0-1.661.573l-2.491,4.417a1.3,1.3,0,0,1-1.378.639,22.915,22.915,0,0,0-7.024-.2,1.312,1.312,0,0,1-1.378-.83L239.5,19.211a1.32,1.32,0,0,0-1.577-.83l-5.438,1.337a1.279,1.279,0,0,0-.938,1.436l.988,5.862a1.345,1.345,0,0,1-.531,1.3c-.5.365-1,.747-1.47,1.162a23.355,23.355,0,0,0-2.491,2.491,1.262,1.262,0,0,1-1.37.39l-5.862-1.935a1.3,1.3,0,0,0-1.6.722l-2.192,5.181a1.3,1.3,0,0,0,.4,1.536.664.664,0,0,0,.158.108l4.9,2.756a1.287,1.287,0,0,1,.664,1.27.749.749,0,0,1,0,.133,3.323,3.323,0,0,1-.066.4,22.51,22.51,0,0,0-.39,4.84,1.262,1.262,0,0,1-.83,1.229l-4.45,1.661a1.312,1.312,0,0,0-.83,1.569l.307,1.2,1.079,4.151a1.312,1.312,0,0,0,1.453,1l4.907-.83a1.279,1.279,0,0,1,1.312.614,21.913,21.913,0,0,0,2.491,3.479,22.416,22.416,0,0,0,2.258,2.283l-.34,1.021-1.378,4.151a1.27,1.27,0,0,0,.423,1.4,1.287,1.287,0,0,0,.291.174l5.156,2.209a1.32,1.32,0,0,0,1.661-.556l1.661-3.022a1.287,1.287,0,0,1,1.453-.614,22.99,22.99,0,0,0,7.165.764,1.27,1.27,0,0,1,1.27.83l2.009,5.322a1.262,1.262,0,0,0,1.486.772l5.471-1.42a1.262,1.262,0,0,0,.938-1.445l-1.021-6.094a1.312,1.312,0,0,1,.6-1.328,22.032,22.032,0,0,0,2.873-2.042,18.558,18.558,0,0,0,1.387-1.3,1.312,1.312,0,0,1,1.328-.324l5.588,1.851A1.328,1.328,0,0,0,270.057,63.348ZM255.411,39.835a11.624,11.624,0,0,1,1.453,11.126c-4.9,11.275-20.084,10.27-23.53-1.353a11.341,11.341,0,0,1,1.661-9.565,12.246,12.246,0,0,1,20.416-.208Z" transform="translate(-36.752 -3.111)" fill="#dfedfb"/>
      <path id="Path_996" data-name="Path 996" d="M208.948,154.991l4.915-8.427.116-.2a2.325,2.325,0,0,0-.623-3.03l-6.551-4.849a2.22,2.22,0,0,1-.3-.257,2.283,2.283,0,0,1-.448-2.491,40.683,40.683,0,0,0,3.221-15.775,2.35,2.35,0,0,1,1.777-2.25l6.642-1.586a2.375,2.375,0,0,0,1.727-1.752,2.64,2.64,0,0,0,.041-.83l-1.279-9.88A2.383,2.383,0,0,0,215.7,101.6l-9.042.4a2.292,2.292,0,0,1-2.125-1.229c-.614-1.137-1.262-2.242-1.984-3.321a39.851,39.851,0,0,0-4.492-5.613h0a2.341,2.341,0,0,1-.432-2.64l3.927-8.3.191-.423a2.283,2.283,0,0,0-.913-2.964l-8.61-5.031a2.408,2.408,0,0,0-3.122.648l-5.388,7.331a2.317,2.317,0,0,1-2.59.83,40.725,40.725,0,0,0-12.454-1.918,2.333,2.333,0,0,1-2.25-1.793L164.52,69.74a2.375,2.375,0,0,0-2.6-1.744l-9.913,1.245a2.267,2.267,0,0,0-1.976,2.35l.448,10.619a2.383,2.383,0,0,1-1.229,2.184c-.971.54-1.935,1.113-2.873,1.744A40.242,40.242,0,0,0,141.4,89.99a2.25,2.25,0,0,1-2.491.382l-9.963-4.733a2.341,2.341,0,0,0-3.014.93l-5.048,8.643a2.35,2.35,0,0,0,.374,2.815,1.312,1.312,0,0,0,.257.216l8.079,5.986a2.316,2.316,0,0,1,.9,2.4,1.071,1.071,0,0,1-.066.233c-.075.241-.158.457-.216.7a40.619,40.619,0,0,0-1.76,8.5,2.25,2.25,0,0,1-1.752,1.993l-8.3,2.009a2.358,2.358,0,0,0-1.785,2.607l.274,2.2,1,7.663a2.35,2.35,0,0,0,2.424,2.042l8.9-.39a2.25,2.25,0,0,1,2.184,1.395A40.83,40.83,0,0,0,135,142.3a39.279,39.279,0,0,0,3.52,4.575l-.83,1.661-3.379,7.149a2.242,2.242,0,0,0,.44,2.582,1.893,1.893,0,0,0,.482.365l8.651,5.081a2.35,2.35,0,0,0,3.047-.639l3.678-4.982a2.325,2.325,0,0,1,2.732-.772,40.75,40.75,0,0,0,12.537,2.956,2.267,2.267,0,0,1,2.076,1.744l2.391,9.9a2.25,2.25,0,0,0,2.491,1.661l10.021-1.3a2.267,2.267,0,0,0,2-2.358l-.473-11.051a2.325,2.325,0,0,1,1.37-2.225A39.679,39.679,0,0,0,191.2,153.6c.955-.631,1.868-1.3,2.748-1.993a2.35,2.35,0,0,1,2.433-.282l9.565,4.533A2.366,2.366,0,0,0,208.948,154.991Zm-20.69-45a25.116,25.116,0,0,1,2.491,8.162,13.453,13.453,0,0,1,.116,2.142,22.126,22.126,0,0,1-2.491,9.781c-11.192,18.93-37.935,13.766-41.464-7.638-.05-.349-.108-.706-.149-1.063a21.379,21.379,0,0,1,2.308-11.408A27.813,27.813,0,0,1,152,105.815a21.919,21.919,0,0,1,36.258,4.176Z" transform="translate(-19.788 -11.536)" fill="#d6e8fc"/>
      <rect id="Rectangle_96" data-name="Rectangle 96" width="2.333" height="8.593" transform="translate(114.643 58.843)" fill="#d6e8fc"/>
      <path id="Path_997" data-name="Path 997" d="M140.141,69.721h-1.661a.291.291,0,0,1-.291-.291h0a.291.291,0,0,1,.291-.291h1.661a.291.291,0,0,1,.291.291h0A.291.291,0,0,1,140.141,69.721Z" transform="translate(-23.455 -11.734)" fill="#d6e8fc"/>
      <rect id="Rectangle_97" data-name="Rectangle 97" width="2.333" height="15.335" transform="translate(110.617 52.093)" fill="#d6e8fc"/>
      <path id="Path_998" data-name="Path 998" d="M135.231,61.879h-1.661a.291.291,0,0,1-.291-.291h0a.3.3,0,0,1,.291-.3h1.661a.3.3,0,0,1,.291.3h0A.291.291,0,0,1,135.231,61.879Z" transform="translate(-22.622 -10.401)" fill="#d6e8fc"/>
      <rect id="Rectangle_98" data-name="Rectangle 98" width="2.333" height="26.012" transform="translate(106.764 41.415)" fill="#d6e8fc"/>
      <path id="Path_999" data-name="Path 999" d="M130.6,48.879h-1.661a.291.291,0,0,1-.291-.291h0a.3.3,0,0,1,.291-.3H130.6a.3.3,0,0,1,.291.3h0a.291.291,0,0,1-.291.291Z" transform="translate(-21.836 -8.195)" fill="#d6e8fc"/>
      <rect id="Rectangle_99" data-name="Rectangle 99" width="2.333" height="21.288" transform="translate(102.804 46.14)" fill="#d6e8fc"/>
      <path id="Path_1000" data-name="Path 1000" d="M125.821,54.761h-1.661a.291.291,0,0,1-.291-.291h0a.291.291,0,0,1,.291-.291h1.661a.291.291,0,0,1,.291.291h0a.291.291,0,0,1-.291.291Z" transform="translate(-21.025 -9.195)" fill="#d6e8fc"/>
      <rect id="Rectangle_100" data-name="Rectangle 100" width="2.333" height="33.111" transform="translate(98.951 34.325)" fill="#d6e8fc"/>
      <path id="Path_1001" data-name="Path 1001" d="M121.171,40.451h-1.661a.291.291,0,0,1-.291-.291h0a.291.291,0,0,1,.291-.291h1.661a.291.291,0,0,1,.291.291h0A.291.291,0,0,1,121.171,40.451Z" transform="translate(-20.236 -6.766)" fill="#d6e8fc"/>
      <rect id="Rectangle_101" data-name="Rectangle 101" width="2.333" height="27.939" transform="translate(95.19 39.489)" fill="#d6e8fc"/>
      <path id="Path_1002" data-name="Path 1002" d="M116.651,46.729h-1.661a.291.291,0,0,1-.291-.291h0a.291.291,0,0,1,.291-.3h1.661a.3.3,0,0,1,.291.3h0A.291.291,0,0,1,116.651,46.729Z" transform="translate(-19.468 -7.83)" fill="#d6e8fc"/>
      <path id="Path_1003" data-name="Path 1003" d="M302.353,80.781a8.2,8.2,0,0,0-6.5-.7c-11.042-1.3-14.264,11.624-14.115,16.016s.656,9.191-4.276,14.945c-14.256,16.605,15.592,17.361,15.592,17.361.249-13.284,16.182-8.436,15.476-7.09C328.955,126.23,310.564,85.049,302.353,80.781Z" transform="translate(-46.44 -13.528)" fill="#243c55"/>
      <path id="Path_1004" data-name="Path 1004" d="M254.53,147.016s-1.943-2.956-3.512-3.014-4.467-.83-4.234-.291,2.034.639,2.209.988-2.674.872-3.479.93-2.732,0-2.673.4,3.454,2.092,5.812,1.86a16.173,16.173,0,0,1,5.347.7Z" transform="translate(-41.218 -24.359)" fill="#ffb27d"/>
      <path id="Path_1005" data-name="Path 1005" d="M284.766,144.06a28.829,28.829,0,0,1-2.972,4.492c-2.308,2.9-5.862,6.235-10.337,6.891a11.042,11.042,0,0,1-6.136-1h0c-5.43-2.408-9.507-7.946-9.507-7.946a4.475,4.475,0,0,1,.606-4.384s10.96,2.491,12.006,1.943S275.559,126,277,123.8s6.393-3.321,6.393-3.321Z" transform="translate(-43.366 -20.448)" fill="#0396fb"/>
      <path id="Path_1006" data-name="Path 1006" d="M283.8,153.1c-2.308,2.9-5.862,6.235-10.337,6.891a11.043,11.043,0,0,1-6.136-1c.208,0,5.629.7,7.788-3.163s4.591-10.2,7.863-8.12C284.392,148.621,284.334,150.855,283.8,153.1Z" transform="translate(-45.375 -25.001)" fill="#0396fb"/>
      <path id="Path_1007" data-name="Path 1007" d="M337.524,291.055s3.321,3.055,2.69,5.222-3.67,3.612-4.077,6.26-2.042,4.1-3.5,4.1h-7s-1.079-1.868,1.528-2.433,3.6-3.67,3.429-6.567a49.99,49.99,0,0,1,.249-6.742l5.546-1.287Z" transform="translate(-55.233 -49.155)" fill="#233862"/>
      <path id="Path_1008" data-name="Path 1008" d="M302.006,292.91s1.2,12.927-.266,13.65H282.96s0-2.175,3.014-2.657,8.3-2.242,9.216-6.177S302.006,292.91,302.006,292.91Z" transform="translate(-48.028 -49.715)" fill="#233862"/>
      <path id="Path_1009" data-name="Path 1009" d="M315.536,168.421c-3.869-8.668-6.235-11.159-5.812-13.849.332-2-1.03-37.362-1.03-37.362-.457-.141-1.378-.266-1.876-.382a4.708,4.708,0,0,1-3.446-2.989,24.22,24.22,0,0,1-1.171-7.979l-.5.1-8.3,1.661s.183,2.615.191,5.081v.066a4.8,4.8,0,0,1-3.454,4.633l-1.968.556a76.675,76.675,0,0,0-3.645,17.7c-.581,8.967,5.563,12.861-.042,30.786C278.8,184.752,317.694,173.228,315.536,168.421Z" transform="translate(-48.19 -17.966)" fill="#ffb27d"/>
      <path id="Path_1010" data-name="Path 1010" d="M295.39,107.662s.183,2.615.191,5.081c4.658-.125,7.124-4.376,8.128-6.733Z" transform="translate(-50.137 -17.992)" fill="#e8945b"/>
      <path id="Path_1011" data-name="Path 1011" d="M292.76,107.006s11.026.183,11.034-6.642,1.436-11.466-5.6-11.873-8.411,2.209-8.967,4.5S289.9,106.782,292.76,107.006Z" transform="translate(-49.068 -15.011)" fill="#ffb27d"/>
      <path id="Path_1012" data-name="Path 1012" d="M294,87.955s3.022,8.062,7.655,9.249,6.642-.05,6.642-.05A13.127,13.127,0,0,1,304,89.416S296.283,84.119,294,87.955Z" transform="translate(-49.901 -14.691)" fill="#163560"/>
      <path id="Path_1013" data-name="Path 1013" d="M293.759,88.735a6.841,6.841,0,0,0-3.155,2.491,11.075,11.075,0,0,0-1.494,6.3s-2.275-5.48.282-8.577C292.107,85.68,293.759,88.735,293.759,88.735Z" transform="translate(-48.913 -14.84)" fill="#163560"/>
      <path id="Path_1014" data-name="Path 1014" d="M316.371,135.177a74.268,74.268,0,0,1,0,8.685c-.183,3.138-3.363,7.348-3.811,8.386-1.129,2.607-2.408,3.03-2.408,3.03l-9.864,2.424-3.471.83-10.935-3.271s-4.982-13.9-2.981-21.728a60.25,60.25,0,0,1,5.056-13.284s8.925,8.743,20.541-.739Z" transform="translate(-47.937 -20.283)" fill="#0396fb"/>
      <path id="Path_1015" data-name="Path 1015" d="M316.257,149.733c-.183,3.138-.473,6.069-.922,7.107-1.129,2.607-2.408,3.03-2.408,3.03l-9.864,2.424-4.284-1.254s14.3-2.167,12.72-14.472Z" transform="translate(-50.713 -24.876)" fill="#f2ccaa"/>
      <path id="Path_1016" data-name="Path 1016" d="M286.249,165.14s-5.422,16.854-5.77,22.592,10.353,81.541,10.793,84.189c.407,2.491,3.5,4.085,3.5,4.085a4.691,4.691,0,0,0,3.454.266,9.024,9.024,0,0,0,3.711-1.752s4.218-54.059,1.611-73.371a306.358,306.358,0,0,1-2.64-36.009Z" transform="translate(-47.605 -28.028)" fill="#364858"/>
      <path id="Path_1017" data-name="Path 1017" d="M310.751,164.53s8.245,11.084,9.075,18.581,1.2,33.817,2.848,41.123,7.672,21.363,7.672,44.145a4.575,4.575,0,0,1-2.566,2,20.431,20.431,0,0,1-2.25.623,3.537,3.537,0,0,1-3.96-1.876c-4.077-8.211-17.062-34.68-17.726-40.177-.473-3.886-4.575-29.616-13.517-44.718-2.15-3.628,1.32-18.042,1.32-18.042Z" transform="translate(-49.159 -27.925)" fill="#0a2033"/>
      <path id="Path_1018" data-name="Path 1018" d="M286.323,162a11.4,11.4,0,0,0,6.5,1.81c5.156.1,17.942-1.32,17.942-1.32a10.743,10.743,0,0,1,.548,3.263s-15.617,3.944-24.667.581A5.762,5.762,0,0,1,286.323,162Z" transform="translate(-48.551 -27.495)" fill="#233862"/>
      <path id="Path_1019" data-name="Path 1019" d="M292.1,168.435a2.69,2.69,0,1,1,2.35-2.665,2.491,2.491,0,0,1-2.35,2.665Zm0-4.55a1.918,1.918,0,1,0,1.569,1.885A1.752,1.752,0,0,0,292.1,163.885Z" transform="translate(-49.065 -27.678)" fill="#fff"/>
      <rect id="Rectangle_102" data-name="Rectangle 102" width="21.213" height="29.034" transform="translate(243.954 129.577) rotate(-41.05)" fill="#f1f2f2"/>
      <path id="Path_1020" data-name="Path 1020" d="M310.282,165.73s-5.862.689-5.812,2.084,1.461,4.251,2.184,4.376,4.766-3.869,4.766-3.869Z" transform="translate(-51.678 -28.128)" fill="#ffb27d"/>
      <path id="Path_1021" data-name="Path 1021" d="M313.1,119.55s7.829.548,10.793,7.846,8.693,19.536,8.693,21.587-3.18,8.411-20.25,12.055c0,0-1.768-1.86-1.661-3.321,0,0,10.661-9.133,10.627-10.221-.05-2.026-1.744-4.7-11.1-14.056C307.688,130.891,313.1,119.55,313.1,119.55Z" transform="translate(-52.539 -20.29)" fill="#0396fb"/>
      <path id="Path_1022" data-name="Path 1022" d="M371.853,305.843h.083c.49,0,.888-.581.88-1.287l-1.337-82.479-3.919-.648,3.321,83.135C370.931,305.279,371.346,305.843,371.853,305.843Z" transform="translate(-62.387 -37.582)" fill="#bcbec0"/>
      <path id="Path_1023" data-name="Path 1023" d="M174.094,305.169h-.1a1.212,1.212,0,0,1-1.046-1.337l1.586-85.692,4.65-.681-3.969,86.348A1.27,1.27,0,0,1,174.094,305.169Z" transform="translate(-29.354 -36.908)" fill="#bcbec0"/>
      <rect id="Rectangle_103" data-name="Rectangle 103" width="243.866" height="8.801" rx="4.4" transform="translate(103.36 176.151)" fill="#58595b"/>
      <path id="Path_1024" data-name="Path 1024" d="M49.349,289.5s-3.811-4.442-.241-7.265a10.1,10.1,0,0,1,4.741-1.453s-3.014,5.056-2.034,5.563,2.956-5.887,2.956-5.887,5.936-.573,7.854.349c0,0-5.081,4.151-4.01,4.4s6.551-3.836,6.551-3.836,5.538.947,5.239,4.317-2.2,4.417-3.039,4.326-5.737-1.959-5.812-1.27,2.848,2.931,4.907,3.03c0,0-3.894,4.3-6.484,3.064s-2.815-3.213-4.434-3.944-3-.739-2.325,0S56.8,292.368,57.734,294s1.752,2.74-.93,2.333-7.041-2.366-7.232-4.608Z" transform="translate(-8.076 -47.571)" fill="#035afb"/>
      <path id="Path_1025" data-name="Path 1025" d="M67.367,286.895s-15.028-.581-18.341,3.72a10.91,10.91,0,0,1-3,4.2l-.349.955s2.607-2.74,3.537-2.906C49.217,292.864,47.756,287.534,67.367,286.895Z" transform="translate(-7.753 -48.689)" fill="#c8dbf4"/>
      <path id="Path_1026" data-name="Path 1026" d="M45.4,296.362A9.432,9.432,0,0,0,41.95,303l.589.05s1.03-4.4,2.889-6.127S45.4,296.362,45.4,296.362Z" transform="translate(-7.12 -50.236)" fill="#c8dbf4"/>
      <path id="Path_1027" data-name="Path 1027" d="M29.115,281.448s6.061-3.4,3.238-8c0,0-2.267-2.831-4.691-3.554,0,0,1.3,6.866,0,7.032s-.888-7.763-.888-7.763-6.385-3.072-8.892-2.831c0,0,3.96,6.709,2.665,6.551s-5.737-6.916-5.737-6.916-6.543-1.212-7.6,2.665.648,5.812,1.661,6.061,7.19.166,7.032.971-4.367,2.1-6.709,1.37c0,0,2.582,6.385,5.978,6.061s4.45-2.424,6.551-2.582,3.637.407,2.582.971-4.608.183-6.3,1.661-3.072,2.333.083,2.972,8.809.249,9.963-2.175Z" transform="translate(-1.168 -45.111)" fill="#0378fb"/>
      <path id="Path_1028" data-name="Path 1028" d="M10.89,270.63s16.971,5.5,18.905,11.624a12.819,12.819,0,0,0,1.661,5.895v1.212s-1.777-4.151-2.748-4.683C28.666,284.695,32.46,279.356,10.89,270.63Z" transform="translate(-1.848 -45.933)" fill="#c8dbf4"/>
      <path id="Path_1029" data-name="Path 1029" d="M35.449,291.6a11.2,11.2,0,0,1,1.154,8.817l-.673-.183s.656-5.33-.714-8.012S35.449,291.6,35.449,291.6Z" transform="translate(-5.883 -49.363)" fill="#c8dbf4"/>
      <path id="Path_1030" data-name="Path 1030" d="M44.205,274.778s-8-4.475-4.268-10.544c0,0,2.989-3.728,6.185-4.691,0,0-1.71,9.058,0,9.266S47.294,258.6,47.294,258.6s8.411-4.052,11.715-3.728c0,0-5.222,8.834-3.512,8.626s7.564-9.133,7.564-9.133,8.626-1.594,10.013,3.52-.83,7.672-2.134,7.987-9.482.216-9.266,1.279,5.754,2.74,8.867,1.818c0,0-3.412,8.419-7.888,7.987s-5.812-3.188-8.626-3.4-4.791.531-3.412,1.279,6.078.241,8.3,2.142,4.052,3.08-.108,3.927-11.624.324-13.1-2.873Z" transform="translate(-6.611 -43.132)" fill="#033cfb"/>
      <path id="Path_1031" data-name="Path 1031" d="M69.772,260.53S47.4,267.778,44.864,275.873a17.062,17.062,0,0,1-2.134,7.771v1.6s2.341-5.43,3.62-6.177C46.333,279.07,41.294,272.038,69.772,260.53Z" transform="translate(-7.253 -44.219)" fill="#d4e4f8"/>
      <path id="Path_1032" data-name="Path 1032" d="M42.288,288.166A14.754,14.754,0,0,0,40.8,299.79l.888-.241s-.83-7.024.947-10.561S42.288,288.166,42.288,288.166Z" transform="translate(-6.827 -48.741)" fill="#d4e4f8"/>
      <path id="Path_1033" data-name="Path 1033" d="M41.792,315.8A15.651,15.651,0,0,0,57.4,300.17H26.1A15.651,15.651,0,0,0,41.792,315.8Z" transform="translate(-4.43 -50.947)" fill="#03d0fb"/>
      <path id="Path_1034" data-name="Path 1034" d="M57.573,319.606H25.84a1.926,1.926,0,0,1,1.935-1.926H55.647a1.926,1.926,0,0,1,1.926,1.926Z" transform="translate(-4.386 -53.919)" fill="#d4e4f8"/>
      <rect id="Rectangle_104" data-name="Rectangle 104" width="32.173" height="0.482" transform="translate(21.155 249.223)" fill="#9fc1f4"/>
      <path id="Path_1035" data-name="Path 1035" d="M183.515,205.908h37.312a3.2,3.2,0,0,0,2.964-2l10.736-26.694a3.2,3.2,0,0,0-2.964-4.384H194.3a3.2,3.2,0,0,0-2.964,2l-10.794,26.685a3.2,3.2,0,0,0,2.972,4.392Z" transform="translate(-30.605 -29.333)" fill="#243c55"/>
      <path id="Path_1036" data-name="Path 1036" d="M219.45,211.12h-56.79a.639.639,0,0,0-.639.639h0a.648.648,0,0,0,.639.648h56.79a.639.639,0,0,0,.6-.407h0a.639.639,0,0,0-.6-.88Z" transform="translate(-27.5 -35.832)" fill="#243c55"/>
      <path id="Path_1037" data-name="Path 1037" d="M217.387,192.318a1.536,1.536,0,0,0-1.5-2.109,3.014,3.014,0,0,0-2.707,2.109,1.536,1.536,0,0,0,1.5,2.109,3.014,3.014,0,0,0,2.707-2.109Z" transform="translate(-36.164 -32.283)" fill="#fff"/>
      <path id="Path_1038" data-name="Path 1038" d="M431.784,122.75a18.731,18.731,0,0,0,2.582,6.642c2.067,3.2,6.725,7.879,8.012,8.3.523.158,2.366-.681,4.384-1.735.664-.349,1.337-.722,2-1.079,2.325-1.287,4.367-2.491,4.367-2.491l3.08-4.342a35.651,35.651,0,0,0-6.9-15.543c-3.412-4.475-11.051-1.785-13.832.357S431.186,118.316,431.784,122.75Z" transform="translate(-73.266 -18.683)" fill="url(#radial-gradient)"/>
      <path id="Path_1039" data-name="Path 1039" d="M451.986,126a5.3,5.3,0,0,1-2.134,4.351c-.365.482,2.117,3.072,3.23,1.91S451.986,126,451.986,126Z" transform="translate(-76.348 -21.385)" fill="#efa78b"/>
      <path id="Path_1040" data-name="Path 1040" d="M368.24,296.47l-1.37,6.617,9.083,1.569,2.092-7.58Z" transform="translate(-62.27 -50.319)" fill="url(#radial-gradient-2)"/>
      <path id="Path_1041" data-name="Path 1041" d="M417.459,239.852c5.9.3,13.791.714,24.078,1.113,28.81,1.1,22.94-26.793,22.94-26.793l-27.532-.365s-40.932-.6-49.559,4.907-21.2,63.607-21.2,63.607l13.716,3.828s11.109-23.887,17.593-36.607c2.665-5.231,4.591-9.067,4.757-9.49C402.614,239.113,406.832,239.3,417.459,239.852Z" transform="translate(-62.154 -36.285)" fill="#243c55"/>
      <path id="Path_1042" data-name="Path 1042" d="M450.2,213.8h.88l27.532.365s3.321,15.651-7.157,23.04c-10.4-2.491-16.605-13.068-22.06-22.533Z" transform="translate(-76.276 -36.287)" fill="#0a2033"/>
      <path id="Path_1043" data-name="Path 1043" d="M403.91,254.772l2.275,34.473,2.491.058v-1.436H418.5v1.661l2.707.066,2.665-44.527c-10.627-.548-14.845-.739-15.194.2C408.5,245.706,406.575,249.542,403.91,254.772Z" transform="translate(-68.557 -41.516)" fill="#0a2033"/>
      <path id="Path_1044" data-name="Path 1044" d="M409.64,297.72v7.7h9.822v-7.406Z" transform="translate(-69.529 -50.531)" fill="url(#radial-gradient-3)"/>
      <path id="Path_1045" data-name="Path 1045" d="M409.64,296.71v1.436l9.822.241V296.71Z" transform="translate(-69.529 -50.36)" fill="#0a2033"/>
      <path id="Path_1046" data-name="Path 1046" d="M390.41,199.564h16.265s24.5-3.952,29.267-6.883c1.777-1.088,4.816-4.425,7.954-8.195l-11.067-9.216c-1.934,3.072-3.7,5.571-4.4,5.812-1.935.731-20.192,10.918-22.3,10.918S393.9,191.859,390.41,199.564Z" transform="translate(-66.265 -29.747)" fill="#efa78b"/>
      <path id="Path_1047" data-name="Path 1047" d="M440.57,171.98l11.815,9.448c5.355-6.418,10.96-14.115,10.96-14.115l-16.755-10.1S442.28,167.431,440.57,171.98Z" transform="translate(-74.779 -26.682)" fill="url(#linear-gradient)"/>
      <path id="Path_1048" data-name="Path 1048" d="M451.5,146.074l12.114-4.774s14.438,1.661,15.435,36.49c.2,6.717.133,43.855-1.918,44.834-8.162,3.8-29.184-21.105-29.184-21.105-.415-.772.183-8.8,0-9.59a9.865,9.865,0,0,0,1.262-.573c2.142-1.27,6.152-6.592,10.1-12.338L446.849,169.3c-.49.78-.988,1.544-1.461,2.283C445.064,152.99,451.5,146.074,451.5,146.074Z" transform="translate(-75.595 -23.982)" fill="#033cfb"/>
      <path id="Path_1049" data-name="Path 1049" d="M448.467,195.295a9.863,9.863,0,0,0,1.262-.573c2.142-1.27,6.152-6.592,10.1-12.338l-6.119-4.724,6.119-9.133,11.026-7.207V166.3a190.908,190.908,0,0,1-10.32,22.915,21,21,0,0,1-12.08,9.465,29.146,29.146,0,0,0,.017-3.387Z" transform="translate(-76.117 -27.38)" fill="#3030ef"/>
      <path id="Path_1050" data-name="Path 1050" d="M402.416,195.664s25.605-10.461,27.349-10.843c.548-.116,2.433-2.715,4.749-6.219.49-.764,1.843-2.831,2.333-3.612L449.3,184.7c-3.944,5.745-7.954,11.067-10.1,12.338a9.865,9.865,0,0,1-1.262.573v-.083a.24.24,0,0,1,0,.075c-7.472,2.79-34.232,4.077-34.747,4.251-.963.739-3.221.83-5.264.232a7.679,7.679,0,0,1-2.491-1.171c-1.793-1.337-4.467.556-5.671,1.47a3.187,3.187,0,0,1-3.221,0C387.912,194.642,402.416,195.664,402.416,195.664Z" transform="translate(-65.61 -29.7)" fill="url(#radial-gradient-4)"/>
      <path id="Path_1051" data-name="Path 1051" d="M449.42,138.825l.357.739.78,1.578.141.282,1.478,3,12.114-4.766-5.065-8.045-8.037,5.911Z" transform="translate(-76.281 -22.337)" fill="url(#radial-gradient-5)"/>
      <path id="Path_1052" data-name="Path 1052" d="M469.9,163.64l-12.628,19.4-14.438-8.3s3.927-15.119,7.746-23.447c2.375-5.164,9.191-7.73,15.775-3.62C472.188,151.31,472.031,159.77,469.9,163.64Z" transform="translate(-75.163 -24.718)" fill="#035afb"/>
      <path id="Path_1053" data-name="Path 1053" d="M442.571,122.178c.457-2.109,2.383-4.043,4.151-1.229a5.48,5.48,0,0,1,.664,2.35c.307,2.939,3.728,4.226,6.277,4.417a4.682,4.682,0,0,0,1.229-.041s-.648-4.832-2.076-10.652-4.674-11.748-9.357-9.365c0,0-4.317-2.018-6.941,1.32,0,0-4.45-1.594-6.758,1.984,0,0-6.252,1.187-7.423,5.065-1.486,4.982,5.43,6.144,7.73,4.741s4.052-4.043,5.646-4,1.229,2.491,1.47,4,2.574,0,3.57,1.984,1.486,3.163,2.084,2.806S442.571,122.178,442.571,122.178Z" transform="translate(-71.649 -18.169)" fill="url(#linear-gradient-2)"/>
      <path id="Path_1054" data-name="Path 1054" d="M447.743,125.5c-.174-.764.3-1.835.955-1.885.83-.058,1.237.98,1.3,1.893s-.2,2.275-1.121,1.959c-.706-.232.083-1.088-.174-1.553S447.743,126.318,447.743,125.5Z" transform="translate(-75.99 -20.98)" fill="#efa78b"/>
      <path id="Path_1055" data-name="Path 1055" d="M449.85,140.577l.78,1.578a5.754,5.754,0,0,0,2.449-4.575,7.921,7.921,0,0,1-3.23,3Z" transform="translate(-76.354 -23.35)" fill="#efa78b"/>
      <path id="Path_1056" data-name="Path 1056" d="M415.361,315.612a14.573,14.573,0,0,1-4.982.174,5.726,5.726,0,0,0-1.843,0,2.15,2.15,0,0,0-2.009-1.378,3.255,3.255,0,0,0-2.308,1.029,3.321,3.321,0,0,1-1.013.83,2.409,2.409,0,0,1-.971.108l-11.524-.249a2.632,2.632,0,0,1-2.134-.706,2.533,2.533,0,0,1-.34-1.586,4.823,4.823,0,0,1,.764-2.989c.83-1.038,2.316-1.054,3.587-1.42s2.433-.963,3.786-1.378a10.985,10.985,0,0,0,6.783-6.186,2.682,2.682,0,0,1,.789-1.254,2.308,2.308,0,0,1,2.084,0,18.482,18.482,0,0,1,2.416,1.079c.54.282,1.137.739,1.071,1.345-.091.78-1.27,1.353-.922,2.067.208.407.772.423,1.22.382a21.828,21.828,0,0,0,6.642-1.81,17.891,17.891,0,0,1,.257,3.047l-.307,6.543a4.384,4.384,0,0,1-1.046,2.35Z" transform="translate(-65.894 -50.979)" fill="#1a1d3e"/>
      <path id="Path_1057" data-name="Path 1057" d="M373.13,313.977a14.623,14.623,0,0,1-4.982.174,5.68,5.68,0,0,0-1.835,0,2.159,2.159,0,0,0-2.009-1.378,3.271,3.271,0,0,0-2.316,1.03,3.322,3.322,0,0,1-1.013.83,2.375,2.375,0,0,1-.971.108l-11.524-.249a2.64,2.64,0,0,1-2.134-.706,2.533,2.533,0,0,1-.349-1.553,4.824,4.824,0,0,1,.764-2.989c.83-1.038,2.316-1.054,3.6-1.42s2.433-.963,3.778-1.378a11.009,11.009,0,0,0,6.792-6.177,2.715,2.715,0,0,1,.847-1.32,2.308,2.308,0,0,1,2.084,0,18.591,18.591,0,0,1,2.424,1.079c.531.282,1.137.739,1.063,1.345-.083.789-1.27,1.353-.922,2.067.208.407.772.432,1.229.382a21.848,21.848,0,0,0,6.642-1.81,17.907,17.907,0,0,1,.266,3.047l-.332,6.592a4.516,4.516,0,0,1-1.1,2.325Z" transform="translate(-58.725 -50.698)" fill="#1a1d3e"/>
      <path id="Path_1058" data-name="Path 1058" d="M502.15,174.958v.166a2.048,2.048,0,0,1,0,.208c0,.224-.083.606-.174,1.2-.656,4.392-3.006,19.445-5.2,33.418s-4.209,26.851-4.209,26.851l-4.359-.681s.149-.955.415-2.624c.922-5.812,3.213-20.441,5.28-33.642,1.03-6.6,2-12.853,2.723-17.477.357-2.316.648-4.226.83-5.563.1-.673.183-1.2.232-1.569a2.729,2.729,0,0,1,.058-.415v-.083h0l1.3.141-1.3-.108h0l1.3.141-1.3-.108,2.034.174h-2.042v-.174l2.034.174h2.375Z" transform="translate(-82.865 -29.659)" fill="#bcbec0"/>
      <path id="Path_1059" data-name="Path 1059" d="M451.688,256.69h5.33v50.771a1.353,1.353,0,0,1-1.353,1.353h-2.632a1.353,1.353,0,0,1-1.353-1.353V256.69Z" transform="translate(-76.665 -43.567)" fill="#bcbec0"/>
      <path id="Path_1060" data-name="Path 1060" d="M451.688,304h5.33v11.449a1.353,1.353,0,0,1-1.353,1.353h-2.632a1.353,1.353,0,0,1-1.353-1.353V304Z" transform="translate(-76.665 -51.597)" fill="#0a2033"/>
      <path id="Path_1061" data-name="Path 1061" d="M437.24,257.57h29.333v.531a3.919,3.919,0,0,1-3.919,3.919H441.192a3.919,3.919,0,0,1-3.919-3.919v-.531Z" transform="translate(-74.214 -43.716)" fill="#6d6e71"/>
      <rect id="Rectangle_105" data-name="Rectangle 105" width="65.002" height="10.395" rx="5.197" transform="translate(345.192 203.6)" fill="#414042"/>
      <path id="Path_1062" data-name="Path 1062" d="M486.964,315.072a3.122,3.122,0,1,1-3.122-3.122A3.122,3.122,0,0,1,486.964,315.072Z" transform="translate(-81.594 -52.946)" fill="#0a2033"/>
      <circle id="Ellipse_26" data-name="Ellipse 26" cx="3.122" cy="3.122" r="3.122" transform="translate(350.008 259.004)" fill="#0a2033"/>
      <rect id="Rectangle_106" data-name="Rectangle 106" width="10.735" height="9.374" transform="translate(372.325 248.467)" fill="#6d6e71"/>
      <path id="Path_1063" data-name="Path 1063" d="M425.446,307.9h47.591a3.886,3.886,0,0,1,3.886,3.886v.531H421.56v-.531A3.886,3.886,0,0,1,425.446,307.9Z" transform="translate(-71.553 -52.259)" fill="#58595b"/>
      <path id="Path_1064" data-name="Path 1064" d="M504.243,178.359l-2.35,17.436a4.537,4.537,0,1,1-8.992-1.212l2.35-17.436a4.537,4.537,0,1,1,8.992,1.212" transform="translate(-83.655 -29.399)" fill="#58595b"/>
      <path id="Path_1065" data-name="Path 1065" d="M148.457,300.472a48.79,48.79,0,0,0-.6,5.214,2.258,2.258,0,0,0,2.026,2.4c4.151.4,13.716,1.154,19.81.274a1.021,1.021,0,0,0,.556-1.76c-2.491-2.333-8.568-6.883-18.548-7.879Z" transform="translate(-25.096 -50.701)" fill="url(#linear-gradient-3)"/>
      <path id="Path_1066" data-name="Path 1066" d="M146.07,293.892l2.117,5.2a1.744,1.744,0,0,0,1.777,1.071,9.668,9.668,0,0,0,1.735-.34A2.267,2.267,0,0,0,153.21,297l-1.6-5.347Z" transform="translate(-24.793 -49.501)" fill="url(#radial-gradient-6)"/>
      <path id="Path_1067" data-name="Path 1067" d="M101.094,305.81s4.243,3.545,5.895,8.1a1.935,1.935,0,0,1-1.835,2.574H96.428a2.059,2.059,0,0,1-2.034-2.408C94.95,310.949,96.553,305.818,101.094,305.81Z" transform="translate(-16.017 -51.904)" fill="url(#linear-gradient-4)"/>
      <path id="Path_1068" data-name="Path 1068" d="M96.15,300.118s.83,3.786,1.511,6.293a.83.83,0,0,0,1.046.548,7.4,7.4,0,0,1,3.18-.581.623.623,0,0,0,.681-.614l.083-6.293Z" transform="translate(-16.32 -50.828)" fill="url(#radial-gradient-7)"/>
      <path id="Path_1069" data-name="Path 1069" d="M116.933,195.5l25.788,78.676s-4.982,3.238-7.306,3.105l-30.629-63.233s-5.364,38.964-2.765,66.936l-8.776.664s-14.264-71.478-3.462-95.962Z" transform="translate(-14.553 -31.516)" fill="#0a2033"/>
      <path id="Path_1070" data-name="Path 1070" d="M108.835,217.275h0a.241.241,0,0,1-.216-.274l1-7.946a.249.249,0,0,1,.282-.216.241.241,0,0,1,.216.274l-1,7.946a.249.249,0,0,1-.282.216Z" transform="translate(-18.436 -35.445)" fill="url(#linear-gradient-5)"/>
      <path id="Path_1071" data-name="Path 1071" d="M121.992,114.12s-20.9,1.852-17.942,16.747A202.962,202.962,0,0,0,87.1,178.192a1.5,1.5,0,0,0,1.221,1.785l34.8,5.961a1.885,1.885,0,0,0,2.134-1.378l8.3-32.131,3.238,14.945,10.3-2.682-8.668-43.9S137.227,114.394,121.992,114.12Z" transform="translate(-14.779 -19.368)" fill="#033cfb"/>
      <path id="Path_1072" data-name="Path 1072" d="M143.228,155.73h-.05a.257.257,0,0,1-.2-.307l2.9-13.284a.257.257,0,0,1,.307-.2.249.249,0,0,1,.2.307l-2.9,13.284a.257.257,0,0,1-.257.2Z" transform="translate(-24.267 -24.089)" fill="#91b3fa"/>
      <path id="Path_1073" data-name="Path 1073" d="M136.923,201.6a4.907,4.907,0,0,0-3.587-.465l-2.424.6a.88.88,0,0,1-1.088-.747l-2.491-22.3c-3.138,1.486-7.655,1.312-9.133,1.2l5.762,26.295h20.175Z" transform="translate(-20.062 -30.326)" fill="url(#radial-gradient-8)"/>
      <path id="Path_1074" data-name="Path 1074" d="M195.43,144.9l-.614-2.026a4.019,4.019,0,0,0-2.341-2.566l-11.026-4.434s-.174-1.42,2.325-2.375,1.918-3.761,1.918-3.761-3.412,1.553-8.411,4.027a11.665,11.665,0,0,0-5.305,5.812L147,170.033l2.939,2.018a7.838,7.838,0,0,0,11.358-2.79L174.839,143.3a50.406,50.406,0,0,0,20.591,1.6Z" transform="translate(-24.951 -22.02)" fill="url(#radial-gradient-9)"/>
      <path id="Path_1075" data-name="Path 1075" d="M135.966,96.957,129.54,114.94s5.7,4.45,9.847,2.947l3.238-10.312S140.151,94.972,135.966,96.957Z" transform="translate(-21.987 -16.419)" fill="url(#radial-gradient-10)"/>
      <path id="Path_1076" data-name="Path 1076" d="M157.126,88.489c0,.274-6.194,17.527-6.194,17.527l-9.772-3.745,3.437-17.22S157.126,83.847,157.126,88.489Z" transform="translate(-23.959 -14.411)" fill="url(#radial-gradient-11)"/>
      <path id="Path_1077" data-name="Path 1077" d="M145.447,88.024l-2.491,8.925a1.179,1.179,0,0,0-.05.349c0,.722.183,3.23,2.732,2.889,2.316-.307,4.434-.556,5.812.075a1.3,1.3,0,0,1,.664,1.611,55.726,55.726,0,0,1-3.52,7.946,1.3,1.3,0,0,1-1.661.531,41.928,41.928,0,0,1-8.427-4.932,1.27,1.27,0,0,1-.457-1.237c.423-2.283,1.7-9.233,1.76-11.217s-2.042-3.321-2.972-3.828a1.279,1.279,0,0,1-.6-.83c-.291-1.2-.531-3.927,2.939-4.525a1.3,1.3,0,0,0,1.046-1.544c-.291-1.436-.2-3.554,2.532-4.326a4.741,4.741,0,0,1,5.413,2.159,1.3,1.3,0,0,0,1.6.423,1.038,1.038,0,0,1,1.146.208,1.287,1.287,0,0,0,1.868-.282,3.869,3.869,0,0,1,4.766-1.578c4.417,1.428,4.209,6.518,2.59,9.291s-6.318.947-8.543-.888c-1.661-1.395-4.268-.565-5.405-.083A1.3,1.3,0,0,0,145.447,88.024Z" transform="translate(-23.098 -13.191)" fill="#0a2033"/>
      <path id="Path_1078" data-name="Path 1078" d="M138.728,98.495s2.615-4.982.888-6.493S135,90.707,135,94.567C135.133,99.375,138.728,98.495,138.728,98.495Z" transform="translate(-22.914 -15.466)" fill="url(#radial-gradient-12)"/>
      <path id="Path_1079" data-name="Path 1079" d="M118.5,173.187a23.031,23.031,0,0,1-2.557-.125h-.183l-7.614-35.477a.266.266,0,0,1,.2-.307.249.249,0,0,1,.307.2l7.531,35.1c1.137.1,7.182.506,10.37-1.76L119.972,140l1.37-2.59a.257.257,0,0,1,.349-.108.249.249,0,0,1,.108.349l-1.32,2.408,6.642,30.969-.133.091C124.7,172.855,120.985,173.187,118.5,173.187Z" transform="translate(-18.356 -23.298)" fill="#91b3fa"/>
      <path id="Path_1080" data-name="Path 1080" d="M401.337,211.828H365.146a1.661,1.661,0,0,1,0-3.238h36.108a1.619,1.619,0,0,1,.083,3.23Z" transform="translate(-61.758 -35.403)" fill="#808285"/>
      <path id="Path_1081" data-name="Path 1081" d="M325.843,173h30.064a5.745,5.745,0,0,1,5.189,3.321l13.9,29.483H337.633a3.479,3.479,0,0,1-3.238-2.2L323.6,176.321A2.391,2.391,0,0,1,325.843,173Z" transform="translate(-54.894 -29.362)" fill="#a7a9ac"/>
      <path id="Path_1082" data-name="Path 1082" d="M350.869,190.595c.656,2.026.174,3.994-1.071,4.392s-2.79-.913-3.437-2.939-.174-3.994,1.071-4.392S350.222,188.569,350.869,190.595Z" transform="translate(-58.74 -31.838)" fill="#7d97f4"/>
      <rect id="Rectangle_107" data-name="Rectangle 107" width="424.258" height="5.887" transform="translate(0 265.322)" fill="#031efb" opacity="0.35"/>
    </g>
  </g>
</svg>
