<svg xmlns="http://www.w3.org/2000/svg" width="46" height="46" viewBox="0 0 46 46">
  <g id="location" transform="translate(0 0.038)">
    <rect id="Rectangle_125" data-name="Rectangle 125" width="46" height="46" rx="8" transform="translate(0 -0.038)" fill="#b2b2b2"/>
    <g id="location-pin" transform="translate(13.189 7.881)">
      <path id="Path_1226" data-name="Path 1226" d="M104.515,85.643a4.642,4.642,0,1,0-4.642,4.642A4.647,4.647,0,0,0,104.515,85.643Zm0,0" transform="translate(-89.399 -76.04)" fill="#fff"/>
      <path id="Path_1227" data-name="Path 1227" d="M23.832,25.841c.719-.937,4.936-6.733,6.356-8.669,1.689-2.3,3.246-4.613,3.246-7.57a9.6,9.6,0,0,0-9.6-9.6h0a9.6,9.6,0,0,0-9.6,9.6c0,2.957,1.557,5.268,3.246,7.57l6.356,8.669ZM17.353,9.6a6.479,6.479,0,1,1,6.479,6.479A6.486,6.486,0,0,1,17.353,9.6Zm0,0" transform="translate(-13.359 0)" fill="#fff"/>
      <path id="Path_1228" data-name="Path 1228" d="M14,394.2c-.19.26-3.56,4.763-3.56,4.763L6.947,394.2H2.72L0,401.416H20.947l-2.72-7.213Zm0,0" transform="translate(0 -370.064)" fill="#fff"/>
    </g>
  </g>
</svg>
