<svg id="phone" xmlns="http://www.w3.org/2000/svg" width="46" height="46" viewBox="0 0 46 46">
  <rect id="phone-2" data-name="phone" width="46" height="46" rx="8" fill="#fadc9b"/>
  <g id="phone-call" transform="translate(7.758 7.758)">
    <g id="Group_857" data-name="Group 857">
      <path id="Path_1229" data-name="Path 1229" d="M28.582,20.432a17.741,17.741,0,0,1-5.566-.885,2.385,2.385,0,0,0-2.422.513L17.071,22.72a19.678,19.678,0,0,1-8.758-8.756l2.589-3.44a2.472,2.472,0,0,0,.606-2.5,17.734,17.734,0,0,1-.892-5.576A2.453,2.453,0,0,0,8.166,0H2.45A2.453,2.453,0,0,0,0,2.45,28.616,28.616,0,0,0,28.582,31.032a2.453,2.453,0,0,0,2.45-2.45v-5.7A2.453,2.453,0,0,0,28.582,20.432Z" fill="#fff"/>
    </g>
  </g>
</svg>
