<svg xmlns="http://www.w3.org/2000/svg" width="32" height="32" viewBox="0 0 32 32">
  <g id="phone" transform="translate(0.426 0.176)">
    <rect id="Rectangle_126" data-name="Rectangle 126" width="32" height="32" rx="5" transform="translate(-0.426 -0.176)" fill="#fadc9b"/>
    <g id="phone-call" transform="translate(5.333 5.333)">
      <g id="Group_857" data-name="Group 857">
        <path id="Path_1229" data-name="Path 1229" d="M19.646,14.044a12.2,12.2,0,0,1-3.826-.608,1.639,1.639,0,0,0-1.665.353l-2.422,1.829A13.526,13.526,0,0,1,5.714,9.6L7.494,7.234A1.7,1.7,0,0,0,7.91,5.517,12.19,12.19,0,0,1,7.3,1.684,1.686,1.686,0,0,0,5.613,0H1.684A1.686,1.686,0,0,0,0,1.684,19.669,19.669,0,0,0,19.646,21.33a1.686,1.686,0,0,0,1.684-1.684V15.728A1.686,1.686,0,0,0,19.646,14.044Z" fill="#fff"/>
      </g>
    </g>
  </g>
</svg>
