<svg xmlns="http://www.w3.org/2000/svg" xmlns:xlink="http://www.w3.org/1999/xlink" width="82.2" height="82.2" viewBox="0 0 82.2 82.2">
  <defs>
    <filter id="Path_1209" x="0" y="0" width="82.2" height="82.2" filterUnits="userSpaceOnUse">
      <feOffset dy="3" input="SourceAlpha"/>
      <feGaussianBlur stdDeviation="3" result="blur"/>
      <feFlood flood-opacity="0.161"/>
      <feComposite operator="in" in2="blur"/>
      <feComposite in="SourceGraphic"/>
    </filter>
  </defs>
  <g id="be_conscientious" transform="translate(9 6)">
    <g transform="matrix(1, 0, 0, 1, -9, -6)" filter="url(#Path_1209)">
      <path id="Path_1209-2" data-name="Path 1209" d="M7.133,0H57.067A7.133,7.133,0,0,1,64.2,7.133V57.067A7.133,7.133,0,0,1,57.067,64.2H7.133A7.133,7.133,0,0,1,0,57.067V7.133A7.133,7.133,0,0,1,7.133,0Z" transform="translate(9 6)" fill="#c0ecf7"/>
    </g>
    <path id="Path_1215" data-name="Path 1215" d="M28.812,31c-4.18,0-7.281,2.567-9.2,6.208C17.7,33.567,14.6,31,10.421,31,4.4,31,0,36.059,0,42.227,0,50.385,7.783,55.506,18.86,65.2a1.15,1.15,0,0,0,1.514,0c11.066-9.683,18.86-14.812,18.86-22.971,0-6.17-4.4-11.227-10.421-11.227Zm-9.2,31.808C9.416,53.947,2.3,49.025,2.3,42.227c0-5.09,3.492-8.928,8.123-8.928,4.464,0,7.23,4.134,8.087,7.2a1.15,1.15,0,0,0,2.216,0c.846-3.028,3.58-7.2,8.087-7.2,4.631,0,8.123,3.838,8.123,8.928C36.934,49.029,29.806,53.957,19.617,62.808Z" transform="translate(12.483 -15.842)" fill="#fff"/>
  </g>
</svg>
