<svg xmlns="http://www.w3.org/2000/svg" xmlns:xlink="http://www.w3.org/1999/xlink" width="82.083" height="82.083" viewBox="0 0 82.083 82.083">
  <defs>
    <filter id="Rectangle_92" x="0" y="0" width="82.083" height="82.083" filterUnits="userSpaceOnUse">
      <feOffset dy="3" input="SourceAlpha"/>
      <feGaussianBlur stdDeviation="3" result="blur"/>
      <feFlood flood-opacity="0.161"/>
      <feComposite operator="in" in2="blur"/>
      <feComposite in="SourceGraphic"/>
    </filter>
  </defs>
  <g id="be_discplined" transform="translate(9 6)">
    <g transform="matrix(1, 0, 0, 1, -9, -6)" filter="url(#Rectangle_92)">
      <rect id="Rectangle_92-2" data-name="Rectangle 92" width="64.083" height="64.083" rx="8" transform="translate(9 6)" fill="#624f85"/>
    </g>
    <g id="fencing" transform="translate(12.754 12.86)">
      <path id="Path_977" data-name="Path 977" d="M37.937,26.257l-2.191-3.129a1.146,1.146,0,0,0-1.6-.281l-1.659,1.162a5.746,5.746,0,0,0-6.222-1.1l-5.314-7.589L30.422,1.8A1.146,1.146,0,0,0,28.545.488L19.556,13.325,10.568.488A1.146,1.146,0,0,0,8.691,1.8l9.467,13.52-5.314,7.589a5.746,5.746,0,0,0-6.222,1.1L4.963,22.847a1.146,1.146,0,0,0-1.6.281L1.176,26.257a6.5,6.5,0,0,0,.839,8.426,3.437,3.437,0,0,0,6.106,2.965l4.6-6.571.939.657a1.146,1.146,0,0,0,1.6-.281,5.739,5.739,0,0,0-.535-7.228l4.835-6.9,4.835,6.9a5.739,5.739,0,0,0-.535,7.228,1.146,1.146,0,0,0,1.6.281l.939-.657,4.6,6.571A3.437,3.437,0,0,0,37.1,34.683a6.5,6.5,0,0,0,.839-8.426Zm-34.7,6.379a4.2,4.2,0,0,1-.184-5.065l1.534-2.19,2.5,1.753Zm3.006,3.7a1.146,1.146,0,1,1-1.877-1.314l.657-.938L6.9,35.4Zm1.972-2.816L6.338,32.2l2.629-3.755,1.877,1.314Zm5.66-4.43-5.31-3.718a3.438,3.438,0,0,1,5.31,3.718Zm11.362,0a3.438,3.438,0,0,1,5.31-3.718Zm5.66,4.43-2.629-3.755,1.877-1.314L32.775,32.2Zm3.567,3.1a1.147,1.147,0,0,1-1.6-.281l-.657-.938,1.877-1.315.657.938A1.147,1.147,0,0,1,34.465,36.615Zm2.291-5.9a4.177,4.177,0,0,1-.88,1.925l-3.853-5.5,2.5-1.753,1.534,2.19A4.174,4.174,0,0,1,36.756,30.711Z" transform="translate(0 0.001)" fill="#fff"/>
    </g>
  </g>
</svg>
