<svg xmlns="http://www.w3.org/2000/svg" xmlns:xlink="http://www.w3.org/1999/xlink" width="81.926" height="81.926" viewBox="0 0 81.926 81.926">
  <defs>
    <filter id="Rectangle_92" x="0" y="0" width="81.926" height="81.926" filterUnits="userSpaceOnUse">
      <feOffset dy="3" input="SourceAlpha"/>
      <feGaussianBlur stdDeviation="3" result="blur"/>
      <feFlood flood-opacity="0.161"/>
      <feComposite operator="in" in2="blur"/>
      <feComposite in="SourceGraphic"/>
    </filter>
  </defs>
  <g id="be_reliable" transform="translate(9 6)">
    <g transform="matrix(1, 0, 0, 1, -9, -6)" filter="url(#Rectangle_92)">
      <rect id="Rectangle_92-2" data-name="Rectangle 92" width="63.926" height="63.926" rx="8" transform="translate(9 6)" fill="#fadc9b"/>
    </g>
    <g id="badge" transform="translate(16.444 12.353)">
      <path id="Path_1216" data-name="Path 1216" d="M30.106,17.9a4.254,4.254,0,0,0-.39-2.648,4.246,4.246,0,0,0-.882-5,4.246,4.246,0,0,0-2.54-4.4A4.245,4.245,0,0,0,22.4,2.582,4.246,4.246,0,0,0,17.626.844a4.245,4.245,0,0,0-5.081,0A4.245,4.245,0,0,0,7.77,2.582,4.245,4.245,0,0,0,3.878,5.848a4.244,4.244,0,0,0-2.54,4.4,4.246,4.246,0,0,0-.882,5,4.246,4.246,0,0,0,.882,5,4.244,4.244,0,0,0,2.54,4.4,4.26,4.26,0,0,0,.794,1.649l-3.354,7.02A1.145,1.145,0,0,0,2.6,34.936L7.657,33.79,9.94,38.441a1.145,1.145,0,0,0,1.028.64h.006A1.145,1.145,0,0,0,12,38.431l3.085-6.455,3.085,6.455a1.145,1.145,0,0,0,1.027.651H19.2a1.146,1.146,0,0,0,1.028-.64l2.283-4.651,5.052,1.146a1.145,1.145,0,0,0,1.286-1.61L25.5,26.305a4.26,4.26,0,0,0,.794-1.649,4.245,4.245,0,0,0,2.541-4.4A4.256,4.256,0,0,0,30.106,17.9Zm-2.641-1.944a1.958,1.958,0,0,1-.505,2.867,1.145,1.145,0,0,0-.482,1.324,1.958,1.958,0,0,1-1.456,2.521,1.145,1.145,0,0,0-.906,1.08,1.958,1.958,0,0,1-2.23,1.871,1.144,1.144,0,0,0-1.22.7,1.958,1.958,0,0,1-2.736,1,1.145,1.145,0,0,0-1.388.245,1.958,1.958,0,0,1-2.911,0,1.145,1.145,0,0,0-1.388-.245,1.958,1.958,0,0,1-2.736-1,1.145,1.145,0,0,0-1.22-.7,1.958,1.958,0,0,1-2.23-1.871,1.145,1.145,0,0,0-.906-1.08,1.958,1.958,0,0,1-1.456-2.521,1.145,1.145,0,0,0-.482-1.324,1.958,1.958,0,0,1-.505-2.867,1.145,1.145,0,0,0,0-1.409,1.958,1.958,0,0,1,.505-2.867,1.145,1.145,0,0,0,.482-1.324A1.958,1.958,0,0,1,5.149,7.835a1.145,1.145,0,0,0,.906-1.08,1.958,1.958,0,0,1,2.23-1.871,1.145,1.145,0,0,0,1.22-.7,1.958,1.958,0,0,1,2.736-1,1.145,1.145,0,0,0,1.388-.245,1.958,1.958,0,0,1,2.911,0,1.145,1.145,0,0,0,1.388.245,1.958,1.958,0,0,1,2.736,1,1.145,1.145,0,0,0,1.221.7,1.958,1.958,0,0,1,2.23,1.871,1.145,1.145,0,0,0,.906,1.08,1.958,1.958,0,0,1,1.456,2.521,1.145,1.145,0,0,0,.482,1.324,1.958,1.958,0,0,1,.506,2.867,1.145,1.145,0,0,0,0,1.409Zm-5.326,15.4a1.145,1.145,0,0,0-1.281.612l-1.64,3.341-2.461-5.15a4.258,4.258,0,0,0,.87-.5A4.245,4.245,0,0,0,22.4,27.922a4.265,4.265,0,0,0,1.212-.251l2.155,4.509Zm-12.824.612a1.145,1.145,0,0,0-1.281-.612L4.4,32.18l2.155-4.509a4.268,4.268,0,0,0,1.212.251,4.246,4.246,0,0,0,4.775,1.738,4.258,4.258,0,0,0,.87.5l-2.461,5.15Zm0,0" transform="translate(-0.001 0)" fill="#fff"/>
      <path id="Path_1217" data-name="Path 1217" d="M76.219,68.383A10.032,10.032,0,1,0,86.252,78.415,10.044,10.044,0,0,0,76.219,68.383Zm0,17.774a7.742,7.742,0,1,1,7.743-7.742A7.751,7.751,0,0,1,76.219,86.157Zm0,0" transform="translate(-61.135 -63.163)" fill="#fff"/>
      <path id="Path_1218" data-name="Path 1218" d="M133.294,159.228a1.145,1.145,0,0,0,1.619,0l4.962-4.962a1.145,1.145,0,0,0-1.619-1.619L134.1,156.8l-2.282-2.282a1.145,1.145,0,1,0-1.619,1.619Zm0,0" transform="translate(-119.955 -140.686)" fill="#fff"/>
    </g>
  </g>
</svg>
