<svg xmlns="http://www.w3.org/2000/svg" xmlns:xlink="http://www.w3.org/1999/xlink" width="257" height="280" viewBox="0 0 257 280">
  <defs>
    <filter id="Rectangle_209" x="0" y="0" width="257" height="280" filterUnits="userSpaceOnUse">
      <feOffset dy="6" input="SourceAlpha"/>
      <feGaussianBlur stdDeviation="7.5" result="blur"/>
      <feFlood flood-opacity="0.161"/>
      <feComposite operator="in" in2="blur"/>
      <feComposite in="SourceGraphic"/>
    </filter>
    <filter id="Path_1208" x="32.735" y="34.055" width="81.926" height="81.926" filterUnits="userSpaceOnUse">
      <feOffset dy="3" input="SourceAlpha"/>
      <feGaussianBlur stdDeviation="3" result="blur-2"/>
      <feFlood flood-opacity="0.161"/>
      <feComposite operator="in" in2="blur-2"/>
      <feComposite in="SourceGraphic"/>
    </filter>
  </defs>
  <g id="card_7" transform="translate(22.692 16.5)">
    <g transform="matrix(1, 0, 0, 1, -22.69, -16.5)" filter="url(#Rectangle_209)">
      <rect id="Rectangle_209-2" data-name="Rectangle 209" width="212" height="235" rx="13" transform="translate(22.5 16.5)" fill="#fff"/>
    </g>
    <g id="Group_1065" data-name="Group 1065" transform="translate(19.043 23.555)">
      <g transform="matrix(1, 0, 0, 1, -41.73, -40.06)" filter="url(#Path_1208)">
        <path id="Path_1208-2" data-name="Path 1208" d="M7.1,0h49.72a7.1,7.1,0,0,1,7.1,7.1v49.72a7.1,7.1,0,0,1-7.1,7.1H7.1a7.1,7.1,0,0,1-7.1-7.1V7.1A7.1,7.1,0,0,1,7.1,0Z" transform="translate(41.73 40.06)" fill="#b2b2b2"/>
      </g>
      <path id="recovery" d="M37.816,38.1V36.8H34.661c-.012-.025-.027-.049-.04-.074l2.022-.428-.269-1.273-2.931.621a6.136,6.136,0,0,0-.771-.355l.613-.389-.7-1.1L30.974,34.83c-.319-.06-.649-.112-.985-.152a.636.636,0,0,0-.014-.32l-2.6-7.806a.649.649,0,0,0-.489-.432l-5.981-1.2v-4.71h3.9a.648.648,0,0,0,.46-.191l4.554-4.554a.65.65,0,0,0,0-.92l-1.761-1.761V9.574l6.774-3.08a.65.65,0,0,0,0-1.184L27.677,2.058a.65.65,0,0,0-.92.592V12.789l-3.522,3.522H19.9a3.9,3.9,0,1,0-5.8,0H12.446a.65.65,0,0,0-.491.224L8.487,20.528a3.264,3.264,0,0,0-.517,3.454L9.9,28.324a.65.65,0,0,0,.885.317l2.306-1.153-.645,12.859a.651.651,0,0,0,.65.683h3.253A.651.651,0,0,0,17,40.451l1.224-10.977,6.107,1.11,1.548,4.127c-.249.034-.494.072-.732.118l-1.613-1.025-.7,1.1.613.389a6,6,0,0,0-.771.355l-2.931-.621L19.473,36.3l2.022.428c-.013.025-.029.049-.04.074H18.3v1.3h3.155c.012.025.027.049.04.074l-2.022.428.269,1.273,2.931-.621a6.137,6.137,0,0,0,.771.355L22.831,40l.7,1.1,1.613-1.025a15.434,15.434,0,0,0,2.266.251v.705h1.3v-.7a15.435,15.435,0,0,0,2.266-.251L32.589,41.1l.7-1.1-.613-.389a6,6,0,0,0,.771-.355l2.931.621.269-1.273-2.022-.428c.013-.025.029-.049.04-.074h3.154ZM22.61,37.452c0-.559,2.069-1.586,5.448-1.586s5.448,1.027,5.448,1.586-2.069,1.586-5.448,1.586S22.61,38.011,22.61,37.452ZM28.058,3.661,32.991,5.9,28.058,8.145ZM14.4,13.709a2.6,2.6,0,1,1,4.52,1.743,1.286,1.286,0,0,1-.617-1.093H17a2.6,2.6,0,0,0,.757,1.826,2.565,2.565,0,0,1-.757.126A2.6,2.6,0,0,1,14.4,13.709Zm-2.461,9.274,1.16-1.16V25.3Zm12.985,6.387-7.156-1.3a.637.637,0,0,0-.5.118.65.65,0,0,0-.258.449L15.767,39.729H13.78L14.4,27.409V20.253a.65.65,0,0,0-1.11-.46l-2.6,2.6a.65.65,0,0,0-.122.751l1.661,3.321-1.411.706-1.653-3.72a1.957,1.957,0,0,1,.31-2.073l3.273-3.768H23.5a.648.648,0,0,0,.46-.191l3.443-3.443,1.032,1.032-3.9,3.9H20.252a.65.65,0,0,0-.651.651v5.894a.65.65,0,0,0,.523.637l6.135,1.228L28.52,34.1l-1.358.339-1.748-4.661a.653.653,0,0,0-.493-.411Z" transform="translate(9.178 10.396)" fill="#fff"/>
    </g>
    <text id="Be_Resilient" data-name="Be Resilient" transform="translate(18.808 123)" fill="#535353" font-size="19" font-family="Roboto-Bold, Roboto" font-weight="700" letter-spacing="0.02em"><tspan x="0" y="0">Be Resilient</tspan></text>
    <text id="Learn_from_mistakes_and_losses_seize_the_opportunity_to_improve" data-name="Learn from mistakes and
losses; seize the
opportunity to improve" transform="translate(19.043 147.298)" fill="#303030" font-size="13" font-family="Roboto-Light, Roboto" font-weight="300" letter-spacing="0.02em" opacity="0.6"><tspan x="0" y="0">Learn from mistakes and</tspan><tspan x="0" y="18">losses; seize the</tspan><tspan x="0" y="36">opportunity to improve</tspan></text>
    <line id="Line_47" data-name="Line 47" x2="113.584" transform="translate(49.026 234.576)" fill="none" stroke="#033cfb" stroke-linecap="round" stroke-width="3" opacity="0.53"/>
  </g>
</svg>
