<svg xmlns="http://www.w3.org/2000/svg" xmlns:xlink="http://www.w3.org/1999/xlink" width="397" height="431" viewBox="0 0 397 431">
  <defs>
    <filter id="Rectangle_206" x="0" y="0" width="397" height="431" filterUnits="userSpaceOnUse">
      <feOffset dy="8" input="SourceAlpha"/>
      <feGaussianBlur stdDeviation="15" result="blur"/>
      <feFlood flood-opacity="0.161"/>
      <feComposite operator="in" in2="blur"/>
      <feComposite in="SourceGraphic"/>
    </filter>
    <filter id="Rectangle_117" x="63.431" y="66.557" width="110.706" height="110.706" filterUnits="userSpaceOnUse">
      <feOffset dy="3" input="SourceAlpha"/>
      <feGaussianBlur stdDeviation="3" result="blur-2"/>
      <feFlood flood-opacity="0.161"/>
      <feComposite operator="in" in2="blur-2"/>
      <feComposite in="SourceGraphic"/>
    </filter>
  </defs>
  <g id="card" transform="translate(44.807 37.373)">
    <g id="Group_1118" data-name="Group 1118" transform="translate(0 0)">
      <g transform="matrix(1, 0, 0, 1, -44.81, -37.37)" filter="url(#Rectangle_206)">
        <rect id="Rectangle_206-2" data-name="Rectangle 206" width="307" height="341" rx="13" transform="translate(45 37)" fill="#fff"/>
      </g>
      <line id="Line_46" data-name="Line 46" x2="164.722" transform="translate(71.107 341.211)" fill="none" stroke="#033cfb" stroke-linecap="round" stroke-width="3" opacity="0.53"/>
    </g>
    <text id="Be_Committed" data-name="Be Committed" transform="translate(27.193 180.627)" fill="#535353" font-size="28" font-family="Roboto-Bold, Roboto" font-weight="700" letter-spacing="0.02em"><tspan x="0" y="0">Be Committed</tspan></text>
    <text id="Set_high_standards_for_your_behavior_and_stick_to_them_even_in_difficult_situations" data-name="Set high standards for your
behavior and stick to them
even in difficult situations" transform="translate(27.624 215.235)" fill="#303030" font-size="18" font-family="Roboto-Light, Roboto" font-weight="300" letter-spacing="0.02em" opacity="0.6"><tspan x="0" y="0">Set high standards for your</tspan><tspan x="0" y="24">behavior and stick to them</tspan><tspan x="0" y="48">even in difficult situations</tspan></text>
    <g id="Group_1054" data-name="Group 1054" transform="translate(27.624 35.184)">
      <g transform="matrix(1, 0, 0, 1, -72.43, -72.56)" filter="url(#Rectangle_117)">
        <rect id="Rectangle_117-2" data-name="Rectangle 117" width="92.706" height="92.706" rx="8" transform="translate(72.43 72.56)" fill="#ff7b6b"/>
      </g>
      <g id="handshake" transform="translate(17.061 25.261)">
        <g id="Group_804" data-name="Group 804" transform="translate(0 0)">
          <g id="Group_803" data-name="Group 803" transform="translate(0 0)">
            <path id="Path_1207" data-name="Path 1207" d="M58.031,78.166,46.723,66.858a.931.931,0,0,0-1.317,0l-5.654,5.654a.931.931,0,0,0,0,1.317l.564.564-1.3,1.3a2.911,2.911,0,0,1-3.249.571,8.042,8.042,0,0,0-7.171.267,6.276,6.276,0,0,0-3.645.194,2.9,2.9,0,0,1-3.075-.646l-2.327-2.327.277-.277a.931.931,0,0,0,0-1.317L14.177,66.5a.931.931,0,0,0-1.317,0L.273,79.086a.931.931,0,0,0,0,1.317l5.654,5.654a.931.931,0,0,0,1.317,0l.337-.337,1.641,1.641a2.848,2.848,0,0,1,.794,1.5,14.623,14.623,0,0,0,4.05,7.689l.309.309a3.349,3.349,0,0,0,2.431,5.655c.056,0,.112,0,.168,0a3.349,3.349,0,0,0,3.345,3.519l.075,0a3.35,3.35,0,0,0,5.718,2.443c.053-.053.1-.108.153-.164a3.133,3.133,0,0,0,3.952-1.827l.1.1a3.132,3.132,0,0,0,5.149-1.125,3.13,3.13,0,0,0,4.971-2.533,3.159,3.159,0,0,0-.088-.74,3.131,3.131,0,0,0,1.923-4.879l.747-.747a14.618,14.618,0,0,0,4.068-7.786,2.515,2.515,0,0,1,.711-1.333l2.778-2.778.488.488a.931.931,0,0,0,1.317,0l5.654-5.654a.931.931,0,0,0,0-1.317ZM6.585,84.082,2.248,79.745l11.27-11.27,4.337,4.337ZM17.86,100.214a1.488,1.488,0,1,1,0-2.106A1.491,1.491,0,0,1,17.86,100.214Zm3.513,3.513a1.488,1.488,0,1,1,0-2.106A1.478,1.478,0,0,1,21.373,103.726Zm3.423,3.423a1.488,1.488,0,1,1,0-2.106A1.479,1.479,0,0,1,24.8,107.149ZM40.611,100a1.266,1.266,0,0,1-1.793,0l-9.034-9.032a.931.931,0,0,0-1.317,1.317l9.731,9.73a1.268,1.268,0,1,1-1.794,1.794l-1.642-1.642-.027-.028-.009-.008-7.546-7.546A.931.931,0,0,0,25.864,95.9l7.57,7.57a1.268,1.268,0,0,1-1.805,1.78l-8.209-8.209A.931.931,0,0,0,22.1,98.361l6.085,6.085,0,.005a1.268,1.268,0,0,1-.9,2.164,1.29,1.29,0,0,1-.24-.023,3.349,3.349,0,0,0-3.313-3.847l-.075,0a3.347,3.347,0,0,0-3.348-3.425q-.084,0-.167,0a3.347,3.347,0,0,0-4.1-3.429l-.668-.668a12.767,12.767,0,0,1-3.537-6.714,4.7,4.7,0,0,0-1.308-2.471L8.9,84.4l9.339-9.339,2.327,2.327a4.748,4.748,0,0,0,3.36,1.373,4.882,4.882,0,0,0,1.668-.294,4.383,4.383,0,0,1,.814-.209L20.64,84.028a3.735,3.735,0,0,0,5.282,5.282l2.9-2.9.784.784h0l.033.033.031.031h0l.027.026L40.611,98.207a1.269,1.269,0,0,1,0,1.794ZM46.476,86.11a4.367,4.367,0,0,0-1.227,2.321,12.764,12.764,0,0,1-3.552,6.8l-.716.716-5.891-5.891c.128.009.257.016.386.016a4.752,4.752,0,0,0,1.814-.353.931.931,0,1,0-.705-1.724c-2.4.981-5.27-1.722-5.59-2.033l-.016-.015-.033-.033h0l-.029-.029h0l-.784-.784.889-.889a.931.931,0,1,0-1.317-1.317l-1.545,1.545,0,0,0,0L24.6,87.993a1.872,1.872,0,1,1-2.648-2.648l6.132-6.133A6.175,6.175,0,0,1,35,77.955a4.782,4.782,0,0,0,5.335-.949l1.3-1.3,7.621,7.621Zm5.242-2.948-9.991-9.991,4.337-4.337,9.991,9.991Z" transform="translate(0 -66.227)" fill="#fff"/>
          </g>
        </g>
        <g id="Group_806" data-name="Group 806" transform="translate(51.725 12.379)">
          <g id="Group_805" data-name="Group 805">
            <circle id="Ellipse_30" data-name="Ellipse 30" cx="0.931" cy="0.931" r="0.931" fill="#fff"/>
          </g>
        </g>
        <g id="Group_808" data-name="Group 808" transform="translate(5.169 13.299)">
          <g id="Group_807" data-name="Group 807" transform="translate(0 0)">
            <circle id="Ellipse_31" data-name="Ellipse 31" cx="0.931" cy="0.931" r="0.931" fill="#fff"/>
          </g>
        </g>
      </g>
    </g>
  </g>
</svg>
