<svg xmlns="http://www.w3.org/2000/svg" xmlns:xlink="http://www.w3.org/1999/xlink" width="257" height="280" viewBox="0 0 257 280">
  <defs>
    <filter id="Rectangle_210" x="0" y="0" width="257" height="280" filterUnits="userSpaceOnUse">
      <feOffset dy="6" input="SourceAlpha"/>
      <feGaussianBlur stdDeviation="7.5" result="blur"/>
      <feFlood flood-opacity="0.161"/>
      <feComposite operator="in" in2="blur"/>
      <feComposite in="SourceGraphic"/>
    </filter>
    <filter id="Rectangle_92" x="32.314" y="34.16" width="82.018" height="82.018" filterUnits="userSpaceOnUse">
      <feOffset dy="3" input="SourceAlpha"/>
      <feGaussianBlur stdDeviation="3" result="blur-2"/>
      <feFlood flood-opacity="0.161"/>
      <feComposite operator="in" in2="blur-2"/>
      <feComposite in="SourceGraphic"/>
    </filter>
  </defs>
  <g id="card_10" transform="translate(22.231 16.573)">
    <g transform="matrix(1, 0, 0, 1, -22.23, -16.57)" filter="url(#Rectangle_210)">
      <rect id="Rectangle_210-2" data-name="Rectangle 210" width="212" height="235" rx="13" transform="translate(22.5 16.5)" fill="#fff"/>
    </g>
    <g id="Group_1066" data-name="Group 1066" transform="translate(19.083 23.587)">
      <g transform="matrix(1, 0, 0, 1, -41.31, -40.16)" filter="url(#Rectangle_92)">
        <rect id="Rectangle_92-2" data-name="Rectangle 92" width="64.018" height="64.018" rx="8" transform="translate(41.31 40.16)" fill="#fadc9b"/>
      </g>
      <g id="hands-holding-heart" transform="translate(12.448 12.448)">
        <path id="Path_974" data-name="Path 974" d="M243.942,114.817l-.7-10.223a2.477,2.477,0,0,0-4.949.194l.083,8.334-3.61,4.624a2.321,2.321,0,0,1-2.4.812l3.928-5.1a2.2,2.2,0,0,0-.261-2.953,2.188,2.188,0,0,0-3.156.22l-5.934,7.146a6.489,6.489,0,0,0-1.494,4.2l.092,9.49a.69.69,0,0,0,.689.684l9.88.013h0a.69.69,0,0,0,.688-.75l-.4-4.645,6.559-8.717A4.975,4.975,0,0,0,243.942,114.817Zm-2.091,2.5-6.718,8.928a.69.69,0,0,0-.136.475l.361,4.158-8.444-.012-.086-8.807A5.106,5.106,0,0,1,228,118.752l5.934-7.146a.807.807,0,0,1,1.165-.081.812.812,0,0,1,.1,1.09l-4.457,5.788a.69.69,0,0,0,.165,1,3.706,3.706,0,0,0,4.946-.8l3.759-4.814a.69.69,0,0,0,.146-.432l-.085-8.575a1.1,1.1,0,0,1,2.191-.086l.7,10.223A3.6,3.6,0,0,1,241.851,117.318Z" transform="translate(-204.832 -92.872)" fill="#fff"/>
        <path id="Path_975" data-name="Path 975" d="M12.525,110.726a2.188,2.188,0,0,0-3.156-.22,2.2,2.2,0,0,0-.261,2.953l3.928,5.1a2.322,2.322,0,0,1-2.4-.812l-3.61-4.624.083-8.334A2.477,2.477,0,0,0,2.16,104.6l-.7,10.223a4.976,4.976,0,0,0,.988,3.331l6.559,8.717-.4,4.645a.69.69,0,0,0,.688.75h0l9.88-.013a.69.69,0,0,0,.689-.684l.092-9.49a6.489,6.489,0,0,0-1.494-4.2Zm5.962,20.143-8.444.011.361-4.158a.69.69,0,0,0-.136-.475L3.55,117.32a3.6,3.6,0,0,1-.714-2.407l.7-10.223a1.1,1.1,0,0,1,1.093-1.022l.082,0a1.1,1.1,0,0,1,1.017,1.1l-.085,8.575a.69.69,0,0,0,.146.432L9.548,118.6a3.706,3.706,0,0,0,4.946.8.69.69,0,0,0,.165-1L10.2,112.616a.812.812,0,0,1,.1-1.09.807.807,0,0,1,1.165.081l5.934,7.146a5.106,5.106,0,0,1,1.176,3.308Z" transform="translate(-1.447 -92.874)" fill="#fff"/>
        <path id="Path_976" data-name="Path 976" d="M94.144,7.767a7.767,7.767,0,0,0-13.26-5.492l-.262.263-.263-.263A7.767,7.767,0,1,0,69.375,13.259L80.134,24.018a.69.69,0,0,0,.976,0L91.869,13.259A7.716,7.716,0,0,0,94.144,7.767ZM80.623,22.554,70.352,12.283a6.387,6.387,0,1,1,9.032-9.032L80.134,4a.69.69,0,0,0,.976,0l.751-.751a6.387,6.387,0,1,1,9.032,9.032Z" transform="translate(-61.061)" fill="#fff"/>
      </g>
    </g>
    <text id="Be_Honest" data-name="Be Honest" transform="translate(18.269 122.927)" fill="#535353" font-size="19" font-family="Roboto-Bold, Roboto" font-weight="700" letter-spacing="0.02em"><tspan x="0" y="0">Be Honest</tspan></text>
    <text id="Choose_words_and_actions_that_are_sincere_not_misleading" data-name="Choose words and actions
that are sincere, not
misleading" transform="translate(19.083 147.491)" fill="#303030" font-size="13" font-family="Roboto-Light, Roboto" font-weight="300" letter-spacing="0.02em" opacity="0.6"><tspan x="0" y="0">Choose words and actions</tspan><tspan x="0" y="18">that are sincere, not</tspan><tspan x="0" y="36">misleading</tspan></text>
    <line id="Line_48" data-name="Line 48" x2="113.748" transform="translate(49.11 234.913)" fill="none" stroke="#033cfb" stroke-linecap="round" stroke-width="3" opacity="0.53"/>
  </g>
</svg>
