<svg xmlns="http://www.w3.org/2000/svg" xmlns:xlink="http://www.w3.org/1999/xlink" width="257" height="281" viewBox="0 0 257 281">
  <defs>
    <filter id="Rectangle_211" x="0" y="0" width="257" height="281" filterUnits="userSpaceOnUse">
      <feOffset dy="6" input="SourceAlpha"/>
      <feGaussianBlur stdDeviation="7.5" result="blur"/>
      <feFlood flood-opacity="0.161"/>
      <feComposite operator="in" in2="blur"/>
      <feComposite in="SourceGraphic"/>
    </filter>
    <filter id="Path_1211" x="33.116" y="34.547" width="84.112" height="84.112" filterUnits="userSpaceOnUse">
      <feOffset dy="3" input="SourceAlpha"/>
      <feGaussianBlur stdDeviation="3" result="blur-2"/>
      <feFlood flood-opacity="0.161"/>
      <feComposite operator="in" in2="blur-2"/>
      <feComposite in="SourceGraphic"/>
    </filter>
  </defs>
  <g id="card_9" transform="translate(22.5 16.573)">
    <g transform="matrix(1, 0, 0, 1, -22.5, -16.57)" filter="url(#Rectangle_211)">
      <rect id="Rectangle_211-2" data-name="Rectangle 211" width="212" height="236" rx="13" transform="translate(22.5 16.5)" fill="#fff"/>
    </g>
    <g id="Group_1067" data-name="Group 1067" transform="translate(19.616 23.975)">
      <g transform="matrix(1, 0, 0, 1, -42.12, -40.55)" filter="url(#Path_1211)">
        <path id="Path_1211-2" data-name="Path 1211" d="M7.346,0H58.766a7.346,7.346,0,0,1,7.346,7.346V58.766a7.346,7.346,0,0,1-7.346,7.346H7.346A7.346,7.346,0,0,1,0,58.766V7.346A7.346,7.346,0,0,1,7.346,0Z" transform="translate(42.12 40.55)" fill="#ff7b6b"/>
      </g>
      <g id="Group_823" data-name="Group 823" transform="translate(14.692 14.692)">
        <g id="Group_822" data-name="Group 822" transform="translate(0 0)">
          <path id="Path_1212" data-name="Path 1212" d="M36.587,33.261l-2.521-7.338a17.944,17.944,0,1,0-16.1,10h.028a18.016,18.016,0,0,0,7.934-1.858l7.338,2.521a2.636,2.636,0,0,0,.858.144,2.619,2.619,0,0,0,2.466-3.468Zm-2.164,1.16a.421.421,0,0,1-.452.1L26.2,31.853a1.089,1.089,0,0,0-.863.067,15.777,15.777,0,1,1,6.591-6.591,1.089,1.089,0,0,0-.067.863l2.672,7.776A.42.42,0,0,1,34.423,34.421Z" transform="translate(-0.003 0)" fill="#fff"/>
        </g>
      </g>
      <g id="Group_825" data-name="Group 825" transform="translate(31.386 40.714)">
        <g id="Group_824" data-name="Group 824">
          <path id="Path_1213" data-name="Path 1213" d="M233.809,362.748a1.089,1.089,0,1,0,1.089,1.089A1.1,1.1,0,0,0,233.809,362.748Z" transform="translate(-232.719 -362.748)" fill="#fff"/>
        </g>
      </g>
      <g id="Group_827" data-name="Group 827" transform="translate(27.059 23.851)">
        <g id="Group_826" data-name="Group 826">
          <path id="Path_1214" data-name="Path 1214" d="M177.812,127.674a5.423,5.423,0,0,0-5.417,5.417,1.089,1.089,0,0,0,2.178,0,3.24,3.24,0,1,1,3.24,3.24,1.089,1.089,0,0,0-1.089,1.089v4.441a1.089,1.089,0,1,0,2.178,0V138.4a5.417,5.417,0,0,0-1.089-10.724Z" transform="translate(-172.395 -127.674)" fill="#fff"/>
        </g>
      </g>
    </g>
    <text id="Be_Helpful" data-name="Be Helpful" transform="translate(20 123.927)" fill="#535353" font-size="20" font-family="Roboto-Bold, Roboto" font-weight="700" letter-spacing="0.02em"><tspan x="0" y="0">Be Helpful</tspan></text>
    <text id="Understand_and_advance_the_group_s_positive_goals" data-name="Understand and advance
the group&apos;s positive goals" transform="translate(19.616 148.307)" fill="#303030" font-size="14" font-family="Roboto-Light, Roboto" font-weight="300" letter-spacing="0.02em" opacity="0.6"><tspan x="0" y="0">Understand and advance</tspan><tspan x="0" y="19">the group&apos;s positive goals</tspan></text>
    <line id="Line_49" data-name="Line 49" x2="110.968" transform="translate(50.492 235.564)" fill="none" stroke="#033cfb" stroke-linecap="round" stroke-width="3" opacity="0.53"/>
  </g>
</svg>
