<svg xmlns="http://www.w3.org/2000/svg" width="1291.096" height="840.44" viewBox="0 0 1291.096 840.44"><g transform="translate(-135.515 0.44)"><path d="M9246.11-10334.127a63.774,63.774,0,0,1-23.052-4.125,58.363,58.363,0,0,1-16.312-9.592q-2.952.224-5.911.279-.943.018-1.886.018a104.431,104.431,0,0,1-33.957-5.73,125.88,125.88,0,0,1-36.745-20.381,166.891,166.891,0,0,1-18.1-16.6,212.306,212.306,0,0,1-17.595-21.366c-14.044-19.419-25.727-34.219-35.716-45.246-9.163-10.115-16.905-17.045-23.668-21.187-5.5-3.368-10.406-4.955-15.356-4.955q-.434,0-.869.017c-4.732.177-9.127,1.78-13.778,3.479-4.962,1.811-10.092,3.684-16.556,4.353-7.384.763-15.184-.253-23.846-3.113a112.65,112.65,0,0,1-16.151-6.927,202.868,202.868,0,0,1-19.8-11.863c-7.471-5.021-15.572-11.018-24.079-17.824-9.012-7.211-18.765-15.56-28.989-24.813a227.5,227.5,0,0,1-20.43-20.8,127.511,127.511,0,0,1-13.556-18.91,75.168,75.168,0,0,1-7.4-17.273,52.744,52.744,0,0,1-1.953-15.867c1.066-30.421,30.39-53.442,61.436-77.814,33.807-26.54,68.765-53.984,72.751-94.035,2.922-29.362-11.265-61.911-43.371-99.506a372.57,372.57,0,0,0-35.413-36.706,69.422,69.422,0,0,1,3.029,13.928,55.432,55.432,0,0,1-.172,13.48,51.955,51.955,0,0,1-3.663,13.188,59.381,59.381,0,0,1-7.516,12.759,80.5,80.5,0,0,1-11.722,12.206c-11.494,9.8-22.476,14.771-32.648,14.771-.212,0-.422,0-.633-.006a29.434,29.434,0,0,1-13.314-3.473,37.267,37.267,0,0,1-10.779-8.867,54.662,54.662,0,0,1-6.64-9.9,73.512,73.512,0,0,1-4.9-11.707,91.88,91.88,0,0,1-4.33-26.117,76.977,76.977,0,0,1,3.461-25.245,49.687,49.687,0,0,1,4.858-10.614,35.519,35.519,0,0,1,7.068-8.364,29.586,29.586,0,0,1,17.649-7.058q1.169-.078,2.37-.077c6.747,0,14.232,1.833,22.292,5.465,9.806,4.419,20.569,11.554,31.992,21.208q.7.59,1.4,1.193c-4.771-12.737-13.272-26.3-25.417-40.523-14.278-16.721-33.59-34.372-57.4-52.463-9.357-7.11-19.439-14.306-29.967-21.387-8.423-5.666-17.147-11.271-25.932-16.661-14.959-9.178-25.034-14.616-25.135-14.67l.475-.881c.1.054,10.193,5.5,25.172,14.691,8.8,5.4,17.532,11.01,25.967,16.683,10.543,7.092,20.642,14.3,30.015,21.421,23.866,18.135,43.232,35.836,57.559,52.612a163.351,163.351,0,0,1,20.239,28.992,98.727,98.727,0,0,1,5.985,13.541,369.061,369.061,0,0,1,36.806,37.935,273.964,273.964,0,0,1,21.944,29.152,166.7,166.7,0,0,1,13.978,26.227,107.943,107.943,0,0,1,6.92,23.605,81.387,81.387,0,0,1,.765,21.271,76.428,76.428,0,0,1-2.932,14.633,84.167,84.167,0,0,1-5.5,13.582,116.5,116.5,0,0,1-17.113,24.5c-13.581,15.312-30.866,28.881-47.582,42-30.857,24.226-60,47.106-61.054,77.063-.758,21.613,13.312,45.188,43.013,72.071,37.388,33.844,66.39,53.869,88.662,61.221,19.1,6.3,30.07,2.3,39.745-1.229,9.53-3.478,17.759-6.481,30.868,1.547,6.847,4.192,14.66,11.182,23.888,21.369,10.014,11.054,21.72,25.882,35.785,45.331,37.1,51.3,76.5,63.542,105.628,63.542,2.245,0,4.425-.072,6.542-.205q-.618-.542-1.225-1.1a68.843,68.843,0,0,1-15.062-20.593,84.965,84.965,0,0,1-7.581-24.891,90.411,90.411,0,0,1-.957-13.045,86.959,86.959,0,0,1,.947-12.906,73.279,73.279,0,0,1,7.679-23.785,57.094,57.094,0,0,1,10.587-14.173,50.233,50.233,0,0,1,14.841-9.964,55.776,55.776,0,0,1,19.105-4.449q1.939-.116,3.935-.115a83.237,83.237,0,0,1,19.432,2.452c13.434,3.237,23.848,8.651,30.955,16.094a38.1,38.1,0,0,1,7.649,11.588,38.85,38.85,0,0,1,2.924,13.087,53.106,53.106,0,0,1-4.068,22.312,82.209,82.209,0,0,1-13.281,21.932,109.931,109.931,0,0,1-47.609,32.865,105.692,105.692,0,0,1-25.617,5.607c8.12,6.484,20.568,12.879,38.06,12.879,16.563,0,37.649-5.729,63.882-22.538,72.649-46.553,87.476-88.225,99.389-121.709,3.086-8.672,6-16.863,9.67-24.413a76.013,76.013,0,0,1,14.313-20.8c6.543-6.644,14.621-12.115,24.7-16.728,11-5.034,24.323-9.043,40.745-12.257l.191.981c-67.18,13.145-76.2,38.484-88.673,73.556-5.946,16.713-12.687,35.656-27.032,56.181-16.536,23.658-40.336,45.258-72.76,66.034a163.631,163.631,0,0,1-34.323,17.135,93.909,93.909,0,0,1-29.232,5.513C9246.778-10334.129,9246.443-10334.127,9246.11-10334.127Zm-8.3-138.782a55.98,55.98,0,0,0-22.642,4.489,49.282,49.282,0,0,0-14.546,9.767,56.091,56.091,0,0,0-10.4,13.926,72.28,72.28,0,0,0-7.571,23.462,85.891,85.891,0,0,0-.937,12.758,89.38,89.38,0,0,0,.946,12.9c2.658,18.1,10.589,34.039,22.332,44.895q.932.861,1.966,1.737a104.288,104.288,0,0,0,26.519-5.538,108.915,108.915,0,0,0,47.171-32.56,81.21,81.21,0,0,0,13.123-21.664,52.109,52.109,0,0,0,4-21.891c-1-19.6-15.479-33.754-40.764-39.847A82.048,82.048,0,0,0,9237.806-10472.909Zm-409.879-477.813q-1.169,0-2.306.076a28.6,28.6,0,0,0-17.066,6.82,34.495,34.495,0,0,0-6.867,8.13,48.627,48.627,0,0,0-4.759,10.4,75.968,75.968,0,0,0-3.411,24.912,90.858,90.858,0,0,0,4.281,25.83,72.454,72.454,0,0,0,4.834,11.546,53.691,53.691,0,0,0,6.517,9.725c8.338,9.769,26.691,22.43,55.966-2.538a79.413,79.413,0,0,0,11.575-12.052,58.349,58.349,0,0,0,7.391-12.543,50.987,50.987,0,0,0,3.593-12.934,54.421,54.421,0,0,0,.168-13.237,69.216,69.216,0,0,0-3.542-15.359q-18.593-16.216-34.494-23.4C8841.877-10948.918,8834.529-10950.723,8827.927-10950.723Z" transform="translate(-8072.522 11070)" fill="#033cfb" opacity="0.5"/><g transform="translate(137 707.037)"><path d="M0,133a1,1,0,0,1-1-1V120a1,1,0,0,1,1-1,1,1,0,0,1,1,1v12A1,1,0,0,1,0,133Zm0-30a1,1,0,0,1-1-1V90a1,1,0,0,1,1-1,1,1,0,0,1,1,1v12A1,1,0,0,1,0,103ZM0,73a1,1,0,0,1-1-1V60a1,1,0,0,1,1-1,1,1,0,0,1,1,1V72A1,1,0,0,1,0,73ZM0,43a1,1,0,0,1-1-1V30a1,1,0,0,1,1-1,1,1,0,0,1,1,1V42A1,1,0,0,1,0,43ZM0,13a1,1,0,0,1-1-1V0A1,1,0,0,1,0-1,1,1,0,0,1,1,0V12A1,1,0,0,1,0,13Z" transform="translate(-0.485 -0.037)" fill="#ff7b6b" opacity="0.58"/><path d="M0,133a1,1,0,0,1-1-1V120a1,1,0,0,1,1-1,1,1,0,0,1,1,1v12A1,1,0,0,1,0,133Zm0-30a1,1,0,0,1-1-1V90a1,1,0,0,1,1-1,1,1,0,0,1,1,1v12A1,1,0,0,1,0,103ZM0,73a1,1,0,0,1-1-1V60a1,1,0,0,1,1-1,1,1,0,0,1,1,1V72A1,1,0,0,1,0,73ZM0,43a1,1,0,0,1-1-1V30a1,1,0,0,1,1-1,1,1,0,0,1,1,1V42A1,1,0,0,1,0,43ZM0,13a1,1,0,0,1-1-1V0A1,1,0,0,1,0-1,1,1,0,0,1,1,0V12A1,1,0,0,1,0,13Z" transform="translate(15.515 -0.037)" fill="#ff7b6b" opacity="0.58"/><path d="M0,133a1,1,0,0,1-1-1V120a1,1,0,0,1,1-1,1,1,0,0,1,1,1v12A1,1,0,0,1,0,133Zm0-30a1,1,0,0,1-1-1V90a1,1,0,0,1,1-1,1,1,0,0,1,1,1v12A1,1,0,0,1,0,103ZM0,73a1,1,0,0,1-1-1V60a1,1,0,0,1,1-1,1,1,0,0,1,1,1V72A1,1,0,0,1,0,73ZM0,43a1,1,0,0,1-1-1V30a1,1,0,0,1,1-1,1,1,0,0,1,1,1V42A1,1,0,0,1,0,43ZM0,13a1,1,0,0,1-1-1V0A1,1,0,0,1,0-1,1,1,0,0,1,1,0V12A1,1,0,0,1,0,13Z" transform="translate(31.515 -0.037)" fill="#ff7b6b" opacity="0.58"/><path d="M0,133a1,1,0,0,1-1-1V120a1,1,0,0,1,1-1,1,1,0,0,1,1,1v12A1,1,0,0,1,0,133Zm0-30a1,1,0,0,1-1-1V90a1,1,0,0,1,1-1,1,1,0,0,1,1,1v12A1,1,0,0,1,0,103ZM0,73a1,1,0,0,1-1-1V60a1,1,0,0,1,1-1,1,1,0,0,1,1,1V72A1,1,0,0,1,0,73ZM0,43a1,1,0,0,1-1-1V30a1,1,0,0,1,1-1,1,1,0,0,1,1,1V42A1,1,0,0,1,0,43ZM0,13a1,1,0,0,1-1-1V0A1,1,0,0,1,0-1,1,1,0,0,1,1,0V12A1,1,0,0,1,0,13Z" transform="translate(47.515 -0.037)" fill="#ff7b6b" opacity="0.58"/><path d="M0,133a1,1,0,0,1-1-1V120a1,1,0,0,1,1-1,1,1,0,0,1,1,1v12A1,1,0,0,1,0,133Zm0-30a1,1,0,0,1-1-1V90a1,1,0,0,1,1-1,1,1,0,0,1,1,1v12A1,1,0,0,1,0,103ZM0,73a1,1,0,0,1-1-1V60a1,1,0,0,1,1-1,1,1,0,0,1,1,1V72A1,1,0,0,1,0,73ZM0,43a1,1,0,0,1-1-1V30a1,1,0,0,1,1-1,1,1,0,0,1,1,1V42A1,1,0,0,1,0,43ZM0,13a1,1,0,0,1-1-1V0A1,1,0,0,1,0-1,1,1,0,0,1,1,0V12A1,1,0,0,1,0,13Z" transform="translate(63.515 -0.037)" fill="#ff7b6b" opacity="0.58"/><path d="M0,133a1,1,0,0,1-1-1V120a1,1,0,0,1,1-1,1,1,0,0,1,1,1v12A1,1,0,0,1,0,133Zm0-30a1,1,0,0,1-1-1V90a1,1,0,0,1,1-1,1,1,0,0,1,1,1v12A1,1,0,0,1,0,103ZM0,73a1,1,0,0,1-1-1V60a1,1,0,0,1,1-1,1,1,0,0,1,1,1V72A1,1,0,0,1,0,73ZM0,43a1,1,0,0,1-1-1V30a1,1,0,0,1,1-1,1,1,0,0,1,1,1V42A1,1,0,0,1,0,43ZM0,13a1,1,0,0,1-1-1V0A1,1,0,0,1,0-1,1,1,0,0,1,1,0V12A1,1,0,0,1,0,13Z" transform="translate(79.515 -0.037)" fill="#ff7b6b" opacity="0.58"/></g></g></svg>