<svg xmlns="http://www.w3.org/2000/svg" xmlns:xlink="http://www.w3.org/1999/xlink" width="108.611" height="108.611" viewBox="0 0 108.611 108.611">
  <defs>
    <filter id="Rectangle_92" x="0" y="0" width="108.611" height="108.611" filterUnits="userSpaceOnUse">
      <feOffset dy="3" input="SourceAlpha"/>
      <feGaussianBlur stdDeviation="3" result="blur"/>
      <feFlood flood-opacity="0.161"/>
      <feComposite operator="in" in2="blur"/>
      <feComposite in="SourceGraphic"/>
    </filter>
  </defs>
  <g id="courage_career" transform="translate(9 6)">
    <g transform="matrix(1, 0, 0, 1, -9, -6)" filter="url(#Rectangle_92)">
      <rect id="Rectangle_92-2" data-name="Rectangle 92" width="90.611" height="90.611" rx="8" transform="translate(9 6)" fill="#c0ecf7"/>
    </g>
    <g id="Group_770" data-name="Group 770" transform="translate(18.079 17.332)">
      <rect id="Rectangle_93" data-name="Rectangle 93" width="4.614" height="1.845" rx="0.923" transform="matrix(0.545, 0.839, -0.839, 0.545, 17.693, 46.901)" fill="#fff"/>
      <g id="goal" transform="translate(0 0)">
        <g id="Group_769" data-name="Group 769" transform="translate(0)">
          <g id="Group_768" data-name="Group 768">
            <path id="Path_973" data-name="Path 973" d="M55.358,54,39.783,30.258V18.494h.923a2.768,2.768,0,1,0,0-5.536h-.923V8.021l7.76-3.451a.923.923,0,0,0-.083-1.716L39.155.086a.93.93,0,0,0-1.218.877v12H36.092V10.189a2.768,2.768,0,0,0-2.768-2.768H30.962a3.609,3.609,0,0,0,.517-1.845V2.808A2.768,2.768,0,0,0,28.71.039H24.1a.923.923,0,0,0-.821,1.338L24.1,3.029V5.576a3.609,3.609,0,0,0,.517,1.845H21.329V2.909A2.851,2.851,0,0,0,19.022.039a2.768,2.768,0,0,0-3.229,2.768V9.266a3.691,3.691,0,0,0,3.691,3.691h3.691V29.566h-.923a.923.923,0,0,0-.738.369l-5.259,7.013H13.024a.923.923,0,0,0-.747.378l-12,16.609A.923.923,0,0,0,1.029,55.4H54.546a.941.941,0,0,0,.812-1.4ZM39.783,2.245,44.618,3.85,39.783,6Zm0,12.558h.923a.923.923,0,1,1,0,1.845h-.923ZM28.71,1.885a.923.923,0,0,1,.923.923V5.576a1.845,1.845,0,1,1-3.691,0V2.808a.924.924,0,0,0-.1-.415l-.249-.507H28.71Zm-9.227,9.227a1.845,1.845,0,0,1-1.845-1.845V2.808a.943.943,0,0,1,1.089-.923,1.006,1.006,0,0,1,.757,1.024V8.344a.923.923,0,0,0,.923.923H33.324a.923.923,0,0,1,.923.923V13.88a.923.923,0,0,0,.923.923h2.768v1.845H34.247A1.845,1.845,0,0,1,32.4,14.8V11.112H30.556v5.536H25.02V12.035a.923.923,0,0,0-.923-.923Zm18.454,7.382v8.95l-.148-.231a.923.923,0,0,0-.775-.415H35.169a.923.923,0,0,0-.923.627l-.683,2.048L32.4,28.265V18a3.691,3.691,0,0,0,1.845.5ZM26.865,20.339v8.3a.923.923,0,0,0,.268.655l.277.268H25.02V18.494h5.536v10.15a.923.923,0,0,0,.268.655l.277.268H30.011l-1.3-1.3V20.339ZM2.875,53.556l6-8.3h5.536l3.423,5.121,1.532-1.015-3.691-5.536a.923.923,0,0,0-.8-.415H10.164l3.331-4.614h9.144l3.423,6a.923.923,0,0,0,.8.461h4.992l4.53,8.3Zm35.644,0L35.5,48.02h3.82l2.491,3.322,1.476-1.107-2.768-3.691a.923.923,0,0,0-.738-.369H34.459l-1.246-2.288a.923.923,0,0,0-.812-.48h-5l-3.423-6a.923.923,0,0,0-.8-.461H18.561l4.152-5.536H34.247a.923.923,0,0,0,.923-.627l.664-2.141h.683L52.839,53.556H38.519Z" transform="translate(-0.104 0)" fill="#fff"/>
          </g>
        </g>
      </g>
      <rect id="Rectangle_94" data-name="Rectangle 94" width="4.614" height="1.845" rx="0.923" transform="matrix(0.602, 0.799, -0.799, 0.602, 41.514, 47.979)" fill="#fff"/>
    </g>
  </g>
</svg>
