<svg xmlns="http://www.w3.org/2000/svg" xmlns:xlink="http://www.w3.org/1999/xlink" width="108.611" height="108.611" viewBox="0 0 108.611 108.611">
  <defs>
    <filter id="Rectangle_92" x="0" y="0" width="108.611" height="108.611" filterUnits="userSpaceOnUse">
      <feOffset dy="3" input="SourceAlpha"/>
      <feGaussianBlur stdDeviation="3" result="blur"/>
      <feFlood flood-opacity="0.161"/>
      <feComposite operator="in" in2="blur"/>
      <feComposite in="SourceGraphic"/>
    </filter>
  </defs>
  <g id="discpline_career" transform="translate(-871.229 -1931.719)">
    <g transform="matrix(1, 0, 0, 1, 871.23, 1931.72)" filter="url(#Rectangle_92)">
      <rect id="Rectangle_92-2" data-name="Rectangle 92" width="90.611" height="90.611" rx="8" transform="translate(9 6)" fill="#624f85"/>
    </g>
    <g id="fencing" transform="translate(898.262 1955.902)">
      <path id="Path_977" data-name="Path 977" d="M53.642,37.127l-3.1-4.424a1.62,1.62,0,0,0-2.257-.4l-2.346,1.642a8.125,8.125,0,0,0-8.8-1.55L29.63,21.666,43.017,2.549A1.62,1.62,0,0,0,40.362.691L27.652,18.842,14.943.691a1.62,1.62,0,0,0-2.655,1.859L25.674,21.666,18.161,32.4a8.124,8.124,0,0,0-8.8,1.55L7.017,32.3a1.62,1.62,0,0,0-2.257.4l-3.1,4.424A9.185,9.185,0,0,0,2.849,49.041a4.86,4.86,0,0,0,8.634,4.193l6.506-9.291,1.327.929a1.62,1.62,0,0,0,2.257-.4,8.115,8.115,0,0,0-.756-10.22l6.836-9.763,6.836,9.763a8.115,8.115,0,0,0-.756,10.22,1.62,1.62,0,0,0,2.257.4l1.327-.929,6.506,9.291a4.86,4.86,0,0,0,8.634-4.193,9.185,9.185,0,0,0,1.186-11.915ZM4.578,46.147a5.944,5.944,0,0,1-.26-7.161l2.168-3.1,3.539,2.478Zm4.251,5.228a1.62,1.62,0,1,1-2.654-1.859L7.1,48.19l2.655,1.859Zm2.788-3.981L8.962,45.535l3.718-5.309,2.655,1.859Zm8-6.265-7.509-5.258a4.861,4.861,0,0,1,7.509,5.258Zm16.065,0a4.861,4.861,0,0,1,7.509-5.258Zm8,6.265-3.718-5.309,2.655-1.859,3.718,5.309Zm5.044,4.379a1.622,1.622,0,0,1-2.257-.4l-.929-1.327L48.2,48.189l.929,1.327A1.622,1.622,0,0,1,48.733,51.773Zm3.239-8.348a5.906,5.906,0,0,1-1.244,2.722l-5.448-7.78,3.539-2.478,2.168,3.1A5.9,5.9,0,0,1,51.972,43.425Z" transform="translate(0 0.001)" fill="#fff"/>
    </g>
  </g>
</svg>
