<svg id="Designed_By_Freepik" data-name="Designed By Freepik" xmlns="http://www.w3.org/2000/svg" xmlns:xlink="http://www.w3.org/1999/xlink" width="424" height="280.045" viewBox="0 0 424 280.045">
  <defs>
    <radialGradient id="radial-gradient" cx="0.5" cy="0.5" r="0.514" gradientTransform="translate(0.027) scale(0.945 1)" gradientUnits="objectBoundingBox">
      <stop offset="0" stop-color="#ffc8af"/>
      <stop offset="1" stop-color="#ffbb9c"/>
    </radialGradient>
    <radialGradient id="radial-gradient-2" cx="0.5" cy="0.5" r="0.514" xlink:href="#radial-gradient"/>
    <radialGradient id="radial-gradient-3" cx="0.5" cy="0.5" r="0.473" gradientTransform="translate(-0.061) scale(1.123 1)" xlink:href="#radial-gradient"/>
    <radialGradient id="radial-gradient-4" cx="0.501" cy="0.499" r="0.46" gradientTransform="translate(-0.102) scale(1.203 1)" xlink:href="#radial-gradient"/>
    <radialGradient id="radial-gradient-5" cx="0.5" cy="0.498" r="1.076" gradientTransform="translate(0.326) scale(0.348 1)" xlink:href="#radial-gradient"/>
    <radialGradient id="radial-gradient-6" cx="0.501" cy="0.5" r="1.357" gradientTransform="translate(0.365) scale(0.27 1)" xlink:href="#radial-gradient"/>
    <radialGradient id="radial-gradient-7" cx="0.5" cy="0.5" r="0.664" gradientTransform="translate(0.186) scale(0.628 1)" xlink:href="#radial-gradient"/>
    <radialGradient id="radial-gradient-8" cx="0.501" cy="0.5" r="0.439" gradientTransform="translate(-0.179) scale(1.358 1)" xlink:href="#radial-gradient"/>
    <radialGradient id="radial-gradient-9" cx="0.499" cy="0.5" r="0.46" gradientTransform="translate(-0.102) scale(1.203 1)" xlink:href="#radial-gradient"/>
  </defs>
  <path id="Path_1667" data-name="Path 1667" d="M221.149,123.5a.432.432,0,0,1-.249-.382v-1.66a.415.415,0,0,1,.44-.39c.564,0,.373.581.373,2.083a.4.4,0,0,1-.415.407A.382.382,0,0,1,221.149,123.5Z" transform="translate(-37.606 -20.611)" fill="#91b3fa"/>
  <path id="Path_1668" data-name="Path 1668" d="M221.579,108.283c.174-1.046.4-2.108.656-3.137a.423.423,0,0,1,.514-.3c.614.166.183.49-.34,3.593a.423.423,0,0,1-.83-.158Zm2.257-8.1c.4-1,.83-1.991,1.294-2.929a.423.423,0,1,1,.763.365c-.456.938-.888,1.9-1.27,2.879a.425.425,0,0,1-.788-.315Zm3.883-7.468c.589-.888,1.22-1.767,1.875-2.605a.423.423,0,1,1,.672.514c-.647.83-1.261,1.66-1.842,2.556a.423.423,0,0,1-.689-.448Zm5.36-5.908a.415.415,0,0,1,0-.589c.763-.747,1.568-1.469,2.39-2.157.423-.349.971.29.548.639-.83.672-1.593,1.386-2.34,2.116a.431.431,0,0,1-.6.008Zm6.5-5.252a.407.407,0,0,1,.116-.573c.9-.581,1.842-1.128,2.788-1.66a.424.424,0,1,1,.415.738c-.929.49-1.85,1.029-2.738,1.593A.423.423,0,0,1,239.577,81.556Zm7.684-3.609a.473.473,0,0,1-.224-.232.407.407,0,0,1,.241-.531c1-.382,2.041-.73,3.07-1.037a.431.431,0,0,1,.531.282.4.4,0,0,1-.274.514c-1.012.3-2.025.639-3.012,1.012a.456.456,0,0,1-.332,0Zm8.14-2.2a.432.432,0,0,1-.241-.307.415.415,0,0,1,.34-.481c1.07-.166,2.157-.3,3.236-.39a.432.432,0,0,1,.465.382.415.415,0,0,1-.382.448c-1.054.083-2.124.216-3.17.382a.423.423,0,0,1-.249-.033Zm8.206-.83a.415.415,0,0,1,.431-.4c1.087.05,2.182.141,3.261.274a.417.417,0,1,1-.083.83c-1.062-.124-2.133-.216-3.195-.266a.423.423,0,0,1-.415-.44ZM289.968,85.8c-2.39-2.108-2.954-2.116-2.572-2.614a.44.44,0,0,1,.589-.075c.83.656,1.726,1.353,2.539,2.074a.415.415,0,1,1-.556.614Zm-17.939-9.758a.415.415,0,0,1,.514-.3c1.054.266,2.108.581,3.145.921a.434.434,0,1,1-.257.83c-1.012-.34-2.05-.639-3.087-.9a.415.415,0,0,1-.315-.548ZM283.114,80.9c-2.755-1.577-3.319-1.477-3.054-2.05a.448.448,0,0,1,.564-.191c.979.473,1.958.987,2.9,1.527a.415.415,0,1,1-.415.714Z" transform="translate(-37.721 -12.686)" fill="#91b3fa"/>
  <path id="Path_1669" data-name="Path 1669" d="M309.5,93.718c-.888-1.1-1.469-1.494-1.037-1.859a.432.432,0,0,1,.6.041c.971,1.1,1.46,1.552,1.037,1.884a.473.473,0,0,1-.6-.066Z" transform="translate(-52.487 -15.621)" fill="#91b3fa"/>
  <path id="Path_1670" data-name="Path 1670" d="M320.7,130.944a.415.415,0,0,1-.249-.431c.066-.548.124-1.1.174-1.66a.407.407,0,0,1,.456-.373.431.431,0,0,1,.382.456q-.058.83-.174,1.66a.407.407,0,0,1-.465.349.274.274,0,0,1-.124,0Z" transform="translate(-54.552 -21.872)" fill="#91b3fa"/>
  <path id="Path_1671" data-name="Path 1671" d="M247.148,163.147c-1.054-.514-2.1-1.087-3.1-1.66a.423.423,0,0,1-.149-.573c.34-.548.539,0,3.618,1.527a.415.415,0,0,1,.2.556A.431.431,0,0,1,247.148,163.147Zm5.028,1.66c.2-.606.539-.108,3.85.722a.415.415,0,0,1,.307.506.407.407,0,0,1-.506.3c-1.128-.282-2.265-.614-3.385-1a.415.415,0,0,1-.266-.523Zm-12.836-6.638c-.913-.73-1.809-1.51-2.655-2.315a.415.415,0,0,1,0-.589c.448-.465.523.116,3.195,2.265a.415.415,0,0,1,.075.581.423.423,0,0,1-.614.066Zm22,9.127a.415.415,0,0,1,.207-.788c1.145.133,2.3.207,3.444.241a.423.423,0,0,1,.415.431.407.407,0,0,1-.423.4,31.044,31.044,0,0,1-3.51-.241.315.315,0,0,1-.133-.017Zm9.127,0a.432.432,0,0,1-.249-.332.4.4,0,0,1,.365-.456c1.137-.124,2.274-.3,3.394-.514a.431.431,0,0,1,.506.332.4.4,0,0,1-.324.481c-1.145.224-2.315.4-3.468.523a.49.49,0,0,1-.232.017Zm8.862-1.958a.39.39,0,0,1-.216-.241.407.407,0,0,1,.249-.531c1.079-.357,2.149-.772,3.195-1.228a.431.431,0,0,1,.556.216.407.407,0,0,1-.207.548c-1.062.465-2.157.88-3.253,1.253a.4.4,0,0,1-.332.033Zm8.2-3.817a.423.423,0,0,1-.183-.158.415.415,0,0,1,.124-.573c.971-.589,1.925-1.228,2.838-1.892a.423.423,0,0,1,.589.091.415.415,0,0,1-.083.581c-.929.68-1.9,1.328-2.888,1.925a.423.423,0,0,1-.382.075Zm6.995-5.593c-.465-.465.124-.506,2.332-3.054a.423.423,0,0,1,.639.548,32.133,32.133,0,0,1-2.373,2.489.431.431,0,0,1-.606.066Zm5.808-6.879c-.556-.349,0-.514,1.577-3.493a.423.423,0,1,1,.747.4c-.531,1.012-1.12,2.016-1.742,2.979a.423.423,0,0,1-.631.166Zm4.033-7.991a.415.415,0,0,1-.224-.523c.382-1.062.73-2.141,1.021-3.228a.423.423,0,0,1,.813.232c-.3,1.1-.647,2.207-1.037,3.319a.431.431,0,0,1-.539.249Z" transform="translate(-40.272 -23.324)" fill="#91b3fa"/>
  <path id="Path_1672" data-name="Path 1672" d="M231.771,154.217c-.921-1.145-1.394-1.61-.946-1.925s.664.241,1.6,1.419a.407.407,0,0,1-.066.581.423.423,0,0,1-.589-.075Z" transform="translate(-39.266 -25.911)" fill="#91b3fa"/>
  <path id="Path_1673" data-name="Path 1673" d="M334.568,98.708a4.232,4.232,0,1,1,3.941,4.5h0a4.223,4.223,0,0,1-3.941-4.5ZM338.551,102.575Zm-2.73-3.784a2.962,2.962,0,0,0,2.771,3.153h0a2.971,2.971,0,1,0-2.771-3.153Z" transform="translate(-56.955 -16.13)" fill="#bdd0fb"/>
  <path id="Path_1674" data-name="Path 1674" d="M313.981,107.034c-.158-.548-.307-1.1-.423-1.66a.415.415,0,0,1,.324-.5c.564-.124.49.514.9,1.917a.432.432,0,0,1-.83.241Z" transform="translate(-53.378 -17.851)" fill="#91b3fa"/>
  <path id="Path_1675" data-name="Path 1675" d="M313,94.405a21.75,21.75,0,0,1,.407-3.435.423.423,0,1,1,.83.166c-.606,3.012-.133,3.742-.83,3.709a.415.415,0,0,1-.407-.44Zm2.4-8.2a.415.415,0,0,1-.2-.556,22.026,22.026,0,0,1,1.759-2.987.423.423,0,0,1,.689.481,20.788,20.788,0,0,0-1.66,2.871.423.423,0,0,1-.6.191Zm5.427-7a.432.432,0,0,1-.141-.108.423.423,0,0,1,.042-.589,23.175,23.175,0,0,1,2.8-2.041.432.432,0,0,1,.581.141.415.415,0,0,1-.133.573,21.577,21.577,0,0,0-2.672,1.967.423.423,0,0,1-.481.058Zm7.758-4.265a.456.456,0,0,1-.224-.257.432.432,0,0,1,.282-.531,22.52,22.52,0,0,1,3.377-.747.419.419,0,1,1,.116.83,21.9,21.9,0,0,0-3.253.722.415.415,0,0,1-.307-.017Zm8.588-1.236a.423.423,0,0,1,.465-.373,22.287,22.287,0,0,1,3.394.656.43.43,0,1,1-.224.83,20.687,20.687,0,0,0-3.269-.631.415.415,0,0,1-.373-.481Z" transform="translate(-53.284 -12.483)" fill="#91b3fa"/>
  <path id="Path_1676" data-name="Path 1676" d="M353.877,78.348c-1.27-.83-1.834-.963-1.552-1.452a.423.423,0,0,1,.581-.158c.49.282.971.6,1.444.921a.418.418,0,1,1-.473.689Z" transform="translate(-59.967 -13.054)" fill="#91b3fa"/>
  <path id="Path_1677" data-name="Path 1677" d="M365.075,96.142c-.2-1.535-.506-2.008.05-2.124a.415.415,0,0,1,.5.324c.116.556.207,1.12.282,1.66a.418.418,0,1,1-.83.108Z" transform="translate(-62.104 -16.004)" fill="#91b3fa"/>
  <path id="Path_1678" data-name="Path 1678" d="M330.917,120.8c.224-.664.722,0,3.709.514a.423.423,0,0,1-.133.83,21.664,21.664,0,0,1-3.319-.83.423.423,0,0,1-.257-.514Zm8.638,1.2a.423.423,0,0,1,.382-.456c3.054-.249,3.576-.888,3.742-.207a.423.423,0,0,1-.307.506,21.973,21.973,0,0,1-3.361.539A.423.423,0,0,1,339.554,122.007Zm8.406-2.29c-.324-.622.506-.5,2.946-2.323a.418.418,0,0,1,.5.672,22.078,22.078,0,0,1-2.871,1.825.423.423,0,0,1-.573-.183Zm6.837-5.41c-.548-.44.266-.656,1.792-3.319a.423.423,0,0,1,.73.423,22.35,22.35,0,0,1-1.933,2.8.423.423,0,0,1-.589.091Zm3.867-8.181c.83-2.946.415-3.659,1.112-3.576a.431.431,0,0,1,.373.473,22.834,22.834,0,0,1-.672,3.319.431.431,0,0,1-.83-.232Z" transform="translate(-56.332 -17.457)" fill="#91b3fa"/>
  <path id="Path_1679" data-name="Path 1679" d="M324.9,121.943c-.481-.307-.954-.639-1.4-.979a.415.415,0,0,1-.083-.589c.357-.465.705.066,1.942.83a.434.434,0,0,1-.456.738Z" transform="translate(-55.042 -20.463)" fill="#91b3fa"/>
  <path id="Path_1680" data-name="Path 1680" d="M332.4,106.689a.631.631,0,1,1,.614-1.1,8.971,8.971,0,0,0,1.776.83A9.127,9.127,0,1,0,329.3,93.877c-1.925,4.149.249,6.339-1.079,6.638a.639.639,0,0,1-.763-.465,10.414,10.414,0,1,1,6.953,7.559h0A10.338,10.338,0,0,1,332.4,106.689Z" transform="translate(-55.699 -14.859)" fill="#bdd0fb"/>
  <path id="Path_1681" data-name="Path 1681" d="M128.22,151.207v.465c0,.274.083.747.174,1.477.672,5.435,3.054,24.063,5.269,41.314s4.273,33.19,4.273,33.19l4.406-.83s-.149-1.178-.415-3.236c-.929-7.219-3.253-25.266-5.344-41.579-1.054-8.165-2.041-15.89-2.763-21.574-.365-2.863-.664-5.219-.871-6.879-.1-.83-.183-1.485-.232-1.942a3.916,3.916,0,0,0-.058-.506V151h0l-1.319.174,1.328-.133V151l-1.319.174,1.328-.133-2.066.216h2.066V151l-2.066.216h-2.39Z" transform="translate(-21.828 -25.706)" fill="#112b46"/>
  <path id="Path_1682" data-name="Path 1682" d="M1.344,0H4.049A1.353,1.353,0,0,1,5.4,1.353V64.414H0V1.353A1.353,1.353,0,0,1,1.344,0Z" transform="translate(151.216 273.714) rotate(180)" fill="#0a2033"/>
  <path id="Path_1683" data-name="Path 1683" d="M1.344,0H4.049A1.352,1.352,0,0,1,5.4,1.353V15.824H0V1.344A1.353,1.353,0,0,1,1.344,0Z" transform="translate(151.216 273.714) rotate(180)" fill="#0a2033"/>
  <path id="Path_1684" data-name="Path 1684" d="M4.414,0h20.9a4.406,4.406,0,0,1,4.406,4.406V5.535H0v-1.1A4.406,4.406,0,0,1,4.414,0Z" transform="translate(163.38 215.697) rotate(180)" fill="#112b46"/>
  <rect id="Rectangle_231" data-name="Rectangle 231" width="65.858" height="12.845" rx="6.2" transform="translate(181.444 210.37) rotate(180)" fill="#bcbec0"/>
  <path id="Path_1685" data-name="Path 1685" d="M145.19,324.428c0,2.132,1.419,3.867,3.161,3.867s3.17-1.734,3.17-3.867-1.419-3.858-3.17-3.858S145.19,322.3,145.19,324.428Z" transform="translate(-24.717 -54.573)" fill="#0a2033"/>
  <ellipse id="Ellipse_50" data-name="Ellipse 50" cx="3.161" cy="3.858" rx="3.161" ry="3.858" transform="translate(170.242 265.997)" fill="#0a2033"/>
  <rect id="Rectangle_232" data-name="Rectangle 232" width="10.87" height="11.592" transform="translate(153.954 264.57) rotate(180)" fill="#112b46"/>
  <path id="Path_1686" data-name="Path 1686" d="M0,0H56.092V1.079a4.373,4.373,0,0,1-4.373,4.373H4.373A4.373,4.373,0,0,1,0,1.079Z" transform="translate(176.565 267.299) rotate(180)" fill="#bcbec0"/>
  <path id="Path_1687" data-name="Path 1687" d="M126.6,155.344l2.381,21.574c.34,3.07,2.655,5.219,5.169,4.8s4.282-3.236,3.941-6.306l-2.373-21.574c-.34-3.07-2.655-5.228-5.178-4.813s-4.282,3.236-3.941,6.306" transform="translate(-21.545 -25.362)" fill="#a7a9ac"/>
  <path id="Path_1688" data-name="Path 1688" d="M190.62,80.395c.116-.68.722-.938,2.224-1.593,2.68-1.162,5.369-2.323,8.007-3.585a1.875,1.875,0,0,0,.871-1.311c.216-2.854.266-5.725.514-8.58a1.552,1.552,0,0,0-.83-1.817c-3.228-1.892-6.4-3.867-9.559-5.808.672-3.319,4.331-10.92,6.348-13.069,3.319,1.278,6.738,2.489,10.1,3.916a1.8,1.8,0,0,0,2.406-.523,75.265,75.265,0,0,1,6.2-5.518c.83-.705,1.328-1.253,1-2.489-.83-3.153-1.5-6.348-2.3-9.509-.216-.83-.066-1.394.772-1.66l11.807-4.066c.971-.332,1.145.465,1.411,1.029,1.328,2.879,2.672,5.742,3.9,8.663a2.041,2.041,0,0,0,2.257,1.427c3.186,0,6.381.207,9.816.34l6.248-10.173a42.715,42.715,0,0,1,12.928,6.447c-1.444,3.792-2.879,7.592-4.149,10.936,2.448,2.912,4.779,5.568,6.953,8.339a1.61,1.61,0,0,0,2,.7c3.12-.788,6.256-1.485,9.376-2.249.672-.166,1.17-.207,1.543.523a40.858,40.858,0,0,1,4.149,11.617,1.294,1.294,0,0,1-.913,1.66c-3.02,1.361-6.007,2.771-9.028,4.149a1.469,1.469,0,0,0-1.07,1.552c-.141,3.153-.407,6.29-.755,9.418a1.261,1.261,0,0,0,.747,1.452c3.178,1.958,6.356,3.941,9.609,5.966a45.5,45.5,0,0,1-6.24,12.845l-11.4-4.323-9.011,7.85c.656,2.788,1.427,5.991,2.149,9.21.589,2.639.954,2.282-1.66,3.485a4.28,4.28,0,0,0-.689.481l-7.094,2.381a8.53,8.53,0,0,0-1.66.266c-1.353.473-2.133.183-2.722-1.261-1.228-3.012-2.655-5.949-4.066-8.887a1.734,1.734,0,0,0-1.195-.83c-2.8-.266-5.642-.29-8.422-.7a2.1,2.1,0,0,0-2.547,1.261c-1.8,3.045-3.726,6.024-5.808,9.335l-12.894-6.256c.3-.83.473-1.353.655-1.834,1.137-3,2.249-6.016,3.444-9a1.6,1.6,0,0,0-.456-1.967c-2.033-2.274-3.925-4.68-5.949-6.962a1.9,1.9,0,0,0-1.543-.49c-2.581.531-5.128,1.2-7.7,1.792-2.074.473-2.854.639-3.535,0Zm18.769-.3a29.515,29.515,0,1,0,2.489-22.4,29.515,29.515,0,0,0-2.489,22.4Z" transform="translate(-32.451 -4.206)" fill="#d6e8fc"/>
  <path id="Path_1689" data-name="Path 1689" d="M172.263,148.419A17.309,17.309,0,1,1,193.48,136.23a17.309,17.309,0,0,1-21.217,12.189Zm1.66-3.975h0a13.06,13.06,0,0,0,15.591-9.874h0a13.06,13.06,0,0,0-9.882-15.591h0a13.052,13.052,0,0,0-15.575,9.882h0A13.044,13.044,0,0,0,173.923,144.445Z" transform="translate(-27.146 -19.474)" fill="#d6e8fc"/>
  <path id="Path_1690" data-name="Path 1690" d="M163.929,156.511c-.324-.274-.266-.664-.133-1.66.241-1.759.481-3.518.656-5.286a1.128,1.128,0,0,0-.431-.871c-1.411-1.012-2.888-1.933-4.29-2.962a.938.938,0,0,0-1.2-.141c-2,1.079-4.024,2.108-6.016,3.145a24.832,24.832,0,0,1-4.8-7.41c1.709-1.328,3.435-2.705,5.211-4.016a1.1,1.1,0,0,0,.49-1.411,45.644,45.644,0,0,1-.921-4.979c-.091-.68-.232-1.087-.963-1.3-1.908-.548-3.775-1.211-5.667-1.792-.506-.158-.738-.4-.631-.929.539-2.489,1.07-4.937,1.61-7.41.133-.606.6-.448.979-.407,1.908.216,3.817.415,5.725.7a1.236,1.236,0,0,0,1.452-.714c1-1.66,2.116-3.253,3.261-4.979-1.021-1.991-2.157-4.149-3.319-6.447a26.163,26.163,0,0,1,7.418-4.688l4.373,5.6c2.29-.357,4.4-.738,6.522-1a.979.979,0,0,0,1-.83c.564-1.859,1.195-3.709,1.776-5.576.124-.4.266-.672.763-.631a24.694,24.694,0,0,1,7.327,1.51.78.78,0,0,1,.556.987c-.241,1.991-.448,3.991-.7,5.983a.9.9,0,0,0,.473,1.046c1.593,1.062,3.137,2.191,4.655,3.319a.78.78,0,0,0,.987.066c2.016-1.037,4.041-2.066,6.124-3.12a28.212,28.212,0,0,1,4.713,7.285l-5.808,4.564,1.3,7.144c1.66.539,3.56,1.145,5.46,1.784,1.552.523,1.485.216,1.278,1.967a3.459,3.459,0,0,0,0,.506q-.49,2.232-.987,4.439a5.171,5.171,0,0,0-.39.946c-.183.83-.573,1.162-1.51,1.021-1.95-.315-3.925-.5-5.9-.689a1.062,1.062,0,0,0-.83.365c-1.021,1.377-1.925,2.838-3.012,4.149a1.286,1.286,0,0,0-.149,1.718c1.021,1.9,1.967,3.833,3.037,5.941l-7.31,4.73-.747-.913c-1.2-1.535-2.415-3.062-3.593-4.622a.979.979,0,0,0-1.162-.382c-1.825.34-3.668.564-5.493.9a1.187,1.187,0,0,0-.738.647c-.531,1.51-.987,3.045-1.494,4.564-.407,1.236-.564,1.66-1.12,1.834Zm5.742-9.841a8.68,8.68,0,1,1,0-.025Z" transform="translate(-24.72 -17.111)" fill="#d6e8fc"/>
  <rect id="Rectangle_233" data-name="Rectangle 233" width="1.983" height="7.294" transform="translate(196.33 79.367) rotate(180)" fill="#d6e8fc"/>
  <path id="Path_1691" data-name="Path 1691" d="M234.459,85.9h1.394a.241.241,0,0,0,.249-.249h0a.241.241,0,0,0-.249-.241h-1.394a.249.249,0,0,0-.249.241h0A.249.249,0,0,0,234.459,85.9Z" transform="translate(-39.871 -14.54)" fill="#d6e8fc"/>
  <rect id="Rectangle_234" data-name="Rectangle 234" width="1.983" height="13.019" transform="translate(199.74 79.367) rotate(180)" fill="#d6e8fc"/>
  <path id="Path_1692" data-name="Path 1692" d="M238.631,79.208h1.4a.249.249,0,0,0,.249-.249h0a.257.257,0,0,0-.249-.249h-1.4a.249.249,0,0,0-.241.249h0a.241.241,0,0,0,.241.249Z" transform="translate(-40.583 -13.399)" fill="#d6e8fc"/>
  <rect id="Rectangle_235" data-name="Rectangle 235" width="1.983" height="22.08" transform="translate(203.01 79.367) rotate(180)" fill="#d6e8fc"/>
  <path id="Path_1693" data-name="Path 1693" d="M242.579,68.21h1.394a.241.241,0,0,0,.249-.249h0a.241.241,0,0,0-.249-.241h-1.394a.249.249,0,0,0-.249.241h0A.249.249,0,0,0,242.579,68.21Z" transform="translate(-41.254 -11.528)" fill="#d6e8fc"/>
  <rect id="Rectangle_236" data-name="Rectangle 236" width="1.983" height="18.072" transform="translate(206.37 79.367) rotate(180)" fill="#d6e8fc"/>
  <path id="Path_1694" data-name="Path 1694" d="M246.629,73.18h1.394a.241.241,0,0,0,.249-.241h0a.241.241,0,0,0-.249-.249h-1.394a.249.249,0,0,0-.249.249h0A.249.249,0,0,0,246.629,73.18Z" transform="translate(-41.943 -12.375)" fill="#d6e8fc"/>
  <rect id="Rectangle_237" data-name="Rectangle 237" width="1.983" height="28.104" transform="translate(209.656 79.367) rotate(180)" fill="#d6e8fc"/>
  <path id="Path_1695" data-name="Path 1695" d="M250.579,61.028h1.394a.249.249,0,0,0,.249-.249h0a.257.257,0,0,0-.249-.249h-1.394a.249.249,0,0,0-.249.249h0a.241.241,0,0,0,.249.249Z" transform="translate(-42.616 -10.305)" fill="#d6e8fc"/>
  <rect id="Rectangle_238" data-name="Rectangle 238" width="1.983" height="23.715" transform="translate(212.834 79.367) rotate(180)" fill="#d6e8fc"/>
  <path id="Path_1696" data-name="Path 1696" d="M254.419,66.358h1.394a.241.241,0,0,0,.249-.249h0a.249.249,0,0,0-.249-.249h-1.394a.249.249,0,0,0-.249.249h0a.241.241,0,0,0,.249.249Z" transform="translate(-43.269 -11.212)" fill="#d6e8fc"/>
  <rect id="Rectangle_239" data-name="Rectangle 239" width="424" height="5.883" transform="translate(424 280.045) rotate(180)" fill="#031efb" opacity="0.35"/>
  <path id="Path_1697" data-name="Path 1697" d="M81.883,286.025s-5.651-6.6-.349-10.787c0,0,3.875-2.348,7.036-2.157,0,0-4.481,7.468-3.029,8.248s4.381-8.721,4.381-8.721,8.812-.83,11.617.506c0,0-7.534,6.173-5.949,6.539s9.725-5.684,9.725-5.684,8.206,1.394,7.767,6.4-3.261,6.547-4.506,6.414-8.505-2.9-8.663-1.884,4.215,4.34,7.277,4.5c0,0-5.808,6.381-9.625,4.539s-4.149-4.763-6.572-5.858-4.439-1.087-3.452,0,5.327,2.207,6.7,4.63,2.6,4.058-1.377,3.46-10.438-3.51-10.729-6.846Z" transform="translate(-13.494 -46.365)" fill="#0396fb"/>
  <path id="Path_1698" data-name="Path 1698" d="M108.6,282.173s-22.279-.83-27.2,5.518a16.081,16.081,0,0,1-4.431,6.223l-.523,1.427s3.858-4.074,5.236-4.323C81.686,291.018,79.528,283.127,108.6,282.173Z" transform="translate(-13.015 -48.031)" fill="#0396fb"/>
  <path id="Path_1699" data-name="Path 1699" d="M76.03,296.215a13.982,13.982,0,0,0-5.12,9.858l.83.075s1.527-6.53,4.29-9.086S76.03,296.215,76.03,296.215Z" transform="translate(-12.072 -50.332)" fill="#0396fb"/>
  <path id="Path_1700" data-name="Path 1700" d="M51.84,274.063s8.986-5.037,4.8-11.866c0,0-3.319-4.2-6.953-5.277,0,0,1.917,10.189,0,10.43s-1.319-11.509-1.319-11.509-9.476-4.555-13.185-4.2c0,0,5.875,9.957,3.958,9.708s-8.547-10.306-8.547-10.306S20.881,249.253,19.33,255s.954,8.63,2.39,8.986,10.671.241,10.43,1.444-6.472,3.112-9.957,2.033c0,0,3.833,9.468,8.87,8.986s6.638-3.593,9.708-3.833,5.393.6,3.833,1.444-6.829.274-9.343,2.415-4.555,3.452.116,4.414,13.069.357,14.745-3.236Z" transform="translate(-3.207 -42.693)" fill="#0396fb"/>
  <path id="Path_1701" data-name="Path 1701" d="M24.81,258s25.167,8.148,28.046,17.259a19.159,19.159,0,0,0,2.4,8.746v1.8s-2.639-6.115-4.074-6.953C51.18,278.885,56.814,270.978,24.81,258Z" transform="translate(-4.224 -43.921)" fill="#0396fb"/>
  <path id="Path_1702" data-name="Path 1702" d="M61.252,289.15a16.6,16.6,0,0,1,1.66,13.069l-1-.266s.971-7.908-1.062-11.882S61.252,289.15,61.252,289.15Z" transform="translate(-10.222 -49.034)" fill="#0396fb"/>
  <path id="Path_1703" data-name="Path 1703" d="M74.251,264.174s-11.849-6.638-6.323-15.641c0,0,4.423-5.535,9.127-6.953,0,0-2.489,13.434,0,13.749S78.8,240.161,78.8,240.161s12.446-6.007,17.375-5.535c0,0-7.742,13.119-5.211,12.8s11.218-13.592,11.218-13.592,12.795-2.373,14.853,5.211-1.27,11.376-3.161,11.849-14.106.324-13.749,1.9,8.538,4.107,13.119,2.688c0,0-5.062,12.446-11.691,11.849s-8.7-4.746-12.8-5.062-7.1.83-5.053,1.9,9,.365,12.322,3.178,6.007,4.564-.158,5.808-17.218.473-19.433-4.265Z" transform="translate(-11.314 -39.748)" fill="#033cfb"/>
  <path id="Path_1704" data-name="Path 1704" d="M112.16,243.05S78.97,253.8,75.195,265.8A25.208,25.208,0,0,1,72,277.336V279.7s3.477-8.057,5.369-9.127C77.4,270.54,69.975,260.11,112.16,243.05Z" transform="translate(-12.257 -41.376)" fill="#033cfb"/>
  <path id="Path_1705" data-name="Path 1705" d="M71.364,284.068a21.858,21.858,0,0,0-2.2,17.226l1.311-.349s-1.278-10.422,1.4-15.658S71.364,284.068,71.364,284.068Z" transform="translate(-11.621 -48.109)" fill="#033cfb"/>
  <path id="Path_1706" data-name="Path 1706" d="M70.6,325.083A23.233,23.233,0,0,0,93.832,301.85H47.39A23.233,23.233,0,0,0,70.6,325.083Z" transform="translate(-8.068 -51.386)" fill="#03d0fb"/>
  <path id="Path_1707" data-name="Path 1707" d="M49.871,327.82H91.21a2.863,2.863,0,0,1,2.863,2.863H47a2.863,2.863,0,0,1,2.863-2.863Z" transform="translate(-8.001 -55.807)" fill="#d4e4f8"/>
  <rect id="Rectangle_240" data-name="Rectangle 240" width="47.711" height="0.714" transform="translate(38.559 250.489)" fill="#9fc1f4"/>
  <rect id="Rectangle_241" data-name="Rectangle 241" width="35.854" height="34.784" rx="15.39" transform="translate(263.972)" fill="#c0d8fb"/>
  <rect id="Rectangle_242" data-name="Rectangle 242" width="32.751" height="31.772" rx="14.06" transform="translate(265.532 1.51)" fill="#dfebfd"/>
  <circle id="Ellipse_51" data-name="Ellipse 51" cx="0.747" cy="0.747" r="0.747" transform="translate(281.156 3.933)" fill="#b7d3f3"/>
  <path id="Path_1708" data-name="Path 1708" d="M346.051,6.832a.738.738,0,1,1,.282,1,.738.738,0,0,1-.282-1Z" transform="translate(-58.895 -1.099)" fill="#b7d3f3"/>
  <path id="Path_1709" data-name="Path 1709" d="M352.19,11.8a.747.747,0,1,1-.224,1.029.747.747,0,0,1,.224-1.029Z" transform="translate(-59.898 -1.988)" fill="#b7d3f3"/>
  <path id="Path_1710" data-name="Path 1710" d="M355.167,19.43a.747.747,0,1,1-.747.747A.747.747,0,0,1,355.167,19.43Z" transform="translate(-60.336 -3.308)" fill="#b7d3f3"/>
  <path id="Path_1711" data-name="Path 1711" d="M353.5,28.215a.763.763,0,0,1,0,1.054.747.747,0,1,1,0-1.054Z" transform="translate(-59.962 -4.766)" fill="#b7d3f3"/>
  <path id="Path_1712" data-name="Path 1712" d="M347.871,33.856a.738.738,0,1,1-.523-.217.738.738,0,0,1,.523.217Z" transform="translate(-59.006 -5.727)" fill="#b7d3f3"/>
  <path id="Path_1713" data-name="Path 1713" d="M338.84,36.647a.747.747,0,1,1,.747.747.738.738,0,0,1-.747-.747Z" transform="translate(-57.683 -6.112)" fill="#b7d3f3"/>
  <path id="Path_1714" data-name="Path 1714" d="M333.095,6.83a.738.738,0,1,0,.053.568.738.738,0,0,0-.053-.568Z" transform="translate(-56.469 -1.096)" fill="#b7d3f3"/>
  <path id="Path_1715" data-name="Path 1715" d="M326.966,11.8a.755.755,0,0,0-1.029.224.738.738,0,1,0,1.029-.224Z" transform="translate(-55.467 -1.989)" fill="#b7d3f3"/>
  <path id="Path_1716" data-name="Path 1716" d="M323.977,19.43a.747.747,0,1,0,.747.747A.747.747,0,0,0,323.977,19.43Z" transform="translate(-55.026 -3.308)" fill="#b7d3f3"/>
  <path id="Path_1717" data-name="Path 1717" d="M325.647,28.215a.763.763,0,0,0,0,1.054.747.747,0,1,0,0-1.054Z" transform="translate(-55.402 -4.766)" fill="#b7d3f3"/>
  <circle id="Ellipse_52" data-name="Ellipse 52" cx="0.747" cy="0.747" r="0.747" transform="translate(274.693 27.905)" fill="#b7d3f3"/>
  <path id="Path_1718" data-name="Path 1718" d="M339.5,20.175a.747.747,0,1,1,.738.738.739.739,0,0,1-.738-.738Z" transform="translate(-57.796 -3.306)" fill="#b7d3f3"/>
  <rect id="Rectangle_243" data-name="Rectangle 243" width="0.199" height="9.277" transform="translate(282.343 7.592)" fill="#b7d3f3"/>
  <rect id="Rectangle_244" data-name="Rectangle 244" width="6.256" height="0.606" transform="matrix(0.787, -0.617, 0.617, 0.787, 282.175, 16.619)" fill="#b7d3f3"/>
  <path id="Path_1719" data-name="Path 1719" d="M220.776,227.342c-4.58,7.982-10.347,11.061-10.347,11.061H186.44S224.244,221.26,220.776,227.342Z" transform="translate(-31.739 -38.48)" fill="#233862"/>
  <path id="Path_1720" data-name="Path 1720" d="M263.228,319.483c-.257,2.489,3.244,3.161,7.3,3.41s2.821,1.062,8.381,2.133,7.8-.431,8.215-1.178-2.215-1.734-4.979-2.946l-1.037-.465c-3.1-1.394-4.8-4.2-7.194-6.8-2.274-2.489-4.365-10.322-4.365-10.322L262,301.61s2.041,7.07,2.747,10.09a9.275,9.275,0,0,1-.83,5.244,9.891,9.891,0,0,0-.689,2.539Z" transform="translate(-44.602 -51.346)" fill="url(#radial-gradient)"/>
  <path id="Path_1721" data-name="Path 1721" d="M270.775,326.038c4.058.249,2.821,1.062,8.381,2.132s7.8-.431,8.215-1.178-2.215-1.734-4.979-2.946l-.05.05a15.841,15.841,0,0,1-8.43,0c-3.676-1.037-7.211-3.278-9.741-4.016a9.892,9.892,0,0,0-.722,2.539C263.215,325.142,266.717,325.822,270.775,326.038Z" transform="translate(-44.847 -54.49)" fill="#0a2033"/>
  <path id="Path_1722" data-name="Path 1722" d="M234.765,213.131c-4.058-2.854-30.925-7.933-44.633-9.4l-15.16-13.16s-12.894,19.085-13,33.722c-.041,6.812,3.1,7.468,3.1,7.468s48.583.357,50.707.581c3.485.357,8.082,9.044,9.235,16.952s21.408,40.069,21.408,40.069,4.223,1.361,6.173,1.245a6.215,6.215,0,0,0,3.078-.83S243.925,219.562,234.765,213.131Z" transform="translate(-27.573 -32.442)" fill="#0a2033"/>
  <path id="Path_1723" data-name="Path 1723" d="M248.09,319.483c-.257,2.489,3.244,3.161,7.3,3.41s2.821,1.062,8.381,2.133,7.8-.431,8.215-1.178-2.215-1.734-4.979-2.946l-1.037-.465c-3.087-1.394-4.8-4.2-7.194-6.8-2.265-2.489-4.356-10.322-4.356-10.322l-7.551-1.7s2.049,7.07,2.755,10.09a9.346,9.346,0,0,1-.83,5.244A9.89,9.89,0,0,0,248.09,319.483Z" transform="translate(-42.027 -51.346)" fill="url(#radial-gradient-2)"/>
  <path id="Path_1724" data-name="Path 1724" d="M255.636,326.038c4.058.249,2.821,1.062,8.381,2.132s7.8-.431,8.215-1.178-2.215-1.734-4.979-2.946l-.041.05a15.841,15.841,0,0,1-8.43,0c-3.676-1.037-7.211-3.278-9.741-4.016a9.89,9.89,0,0,0-.722,2.539C248.052,325.142,251.578,325.822,255.636,326.038Z" transform="translate(-42.271 -54.49)" fill="#0a2033"/>
  <path id="Path_1725" data-name="Path 1725" d="M219.487,213.141c-3.526-2.489-14.106-4.4-25.855-5.808a7.883,7.883,0,0,1-6.688-5.916h0L159.7,190.63s-12.9,19.085-13,33.722c-.05,6.812,3.087,7.468,3.087,7.468s48.583.357,50.707.581c3.493.357,8.09,9.044,9.235,16.952s21.408,40.069,21.408,40.069,4.223,1.361,6.173,1.245a6.165,6.165,0,0,0,3.078-.83S228.647,219.572,219.487,213.141Z" transform="translate(-24.974 -32.452)" fill="#243c55"/>
  <path id="Path_1726" data-name="Path 1726" d="M180.318,94.407c-3.717-1.967-9.443-2.232-10.355-2.357-11.077-1.485-17.74,14.6-18.139,19.483-.722,8.986-5.476,10.355-12.164,15.99-13.426,11.285-9.484,24.4-2.149,29.274,4.406,2.929,12.164,0,12.164,0S170.9,145,181.305,139.264C196.9,137.048,189.877,99.46,180.318,94.407Z" transform="translate(-22.265 -15.654)" fill="#233862"/>
  <path id="Path_1727" data-name="Path 1727" d="M184.661,139.156c.05,0-4.92,2.282-8.513,1.1-3.369-1.112-6.348-6.19-6.3-6.2,1.469-.216,2.954-1.66,3.369-10.223l.647.166,10.911,2.755s-.431,3.46-.614,6.721C184.014,136.218,184.08,138.832,184.661,139.156Z" transform="translate(-28.915 -21.081)" fill="url(#radial-gradient-3)"/>
  <path id="Path_1728" data-name="Path 1728" d="M185.543,126.936s0,.714-.407,3.925c-6.173-1.552-8.887-3.6-10.787-5.941Z" transform="translate(-29.681 -21.266)" fill="#efa78b"/>
  <path id="Path_1729" data-name="Path 1729" d="M187.107,122.987s-14.421,2.348-15.765-6.638-4.082-14.761,5.07-16.645,11.451,1.294,12.629,4.149S190.825,122.14,187.107,122.987Z" transform="translate(-28.922 -16.877)" fill="url(#radial-gradient-4)"/>
  <path id="Path_1730" data-name="Path 1730" d="M186.327,99.009s-6.547,10.339-12.4,12.787-8.721,1.2-8.721,1.2a24.545,24.545,0,0,0,3.319-9.443,4.439,4.439,0,0,1,2.738-3.568C175.5,98.312,183.614,95.657,186.327,99.009Z" transform="translate(-28.125 -16.581)" fill="#233862"/>
  <path id="Path_1731" data-name="Path 1731" d="M183.73,99.973s3.833,1.975,5.418,3.817,3.319,6.638,3.161,8.779c0,0,1.892-10.4-2.05-13.973C186.078,94.812,183.73,99.973,183.73,99.973Z" transform="translate(-31.278 -16.549)" fill="#233862"/>
  <path id="Path_1732" data-name="Path 1732" d="M193.638,163.022c-.44,29.315-.124,23.192-3.319,25.972-.78.672-2.946,1.07-5.808,1.261-8.986.6-24.793-.888-25.391-2.547-2.074-5.75-.614-7.534-2.34-16.338-.183-.938-.407-1.95-.664-3.054-1.444-6.041-2.846-8.1,2.265-17.807,4.647-8.8,10.1-15.948,10.53-15.691,12.247,7.269,12.67,1.178,12.67,1.178S193.845,148.717,193.638,163.022Z" transform="translate(-26.349 -22.95)" fill="#035afb"/>
  <path id="Path_1733" data-name="Path 1733" d="M187.07,136.24s12.529,2.124,14.006,7.551,10.189,37.339,10.189,37.339-6.406,1.145-9.368-1.809-10.3-27.449-10.3-27.449Z" transform="translate(-31.846 -23.193)" fill="#035afb"/>
  <path id="Path_1734" data-name="Path 1734" d="M184.911,195.251c-8.986.6-24.793-.888-25.391-2.547-2.074-5.75-.614-7.534-2.34-16.338l4.331-12.206s-.714,13.592,3.319,17.168,16.421,6.9,18.363,9.891A10.878,10.878,0,0,1,184.911,195.251Z" transform="translate(-26.758 -27.946)" fill="#031efb"/>
  <path id="Path_1735" data-name="Path 1735" d="M178.19,194.457s8.87-1.975,10.3-1.195,4.929,3.659,5.369,4.655-3.186-.755-4.365-1.07c-.763-.207-2.771.49-3.767.83-4.19,1.394-6.754.68-6.754.68Z" transform="translate(-30.335 -32.87)" fill="url(#radial-gradient-5)"/>
  <path id="Path_1736" data-name="Path 1736" d="M165.774,134.82s-12.546.738-16.67,6.489c-5.808,8.09-17.317,42.583-10.721,47.189,7.468,5.178,33.821,1.353,33.821,1.353s.83-4.107-.348-6.09-21.076-5.194-21.989-6.107,11.451-17.865,11.451-20.62S165.774,134.82,165.774,134.82Z" transform="translate(-23.221 -22.952)" fill="#035afb"/>
  <path id="Path_1737" data-name="Path 1737" d="M191.12,196.28a16.285,16.285,0,0,0,2.489,2.68,1.784,1.784,0,0,0,1,.216l-1.253-2.257Z" transform="translate(-32.536 -33.414)" fill="#ffb27d"/>
  <path id="Path_1738" data-name="Path 1738" d="M190.6,193.3l5.4,2.63a.962.962,0,0,1-.9.34,12.515,12.515,0,0,1-2.34-.639Z" transform="translate(-32.447 -32.907)" fill="#ffb27d"/>
  <rect id="Rectangle_245" data-name="Rectangle 245" width="172.599" height="6.149" rx="3.074" transform="translate(142.993 166.616)" fill="#58595b"/>
  <path id="Path_1739" data-name="Path 1739" d="M379.852,308.871h.075a1.552,1.552,0,0,0,1.377-1.734L366.153,204.57l-5.543.158,17.823,103.09a1.278,1.278,0,0,0,1.419,1.054Z" transform="translate(-61.39 -34.826)" fill="#939598"/>
  <path id="Path_1740" data-name="Path 1740" d="M166.7,308.874h-.075a1.552,1.552,0,0,1-1.377-1.734L180.4,204.59l5.551.158L168.143,307.821A1.269,1.269,0,0,1,166.7,308.874Z" transform="translate(-28.129 -34.829)" fill="#939598"/>
  <path id="Path_1741" data-name="Path 1741" d="M209,308.874h-.075a1.552,1.552,0,0,1-1.377-1.734L222.7,204.59l5.551.158L210.41,307.821A1.269,1.269,0,0,1,209,308.874Z" transform="translate(-35.33 -34.829)" fill="#939598"/>
  <path id="Path_1742" data-name="Path 1742" d="M317,327.015h30.062c1.444-1.767.913-8.3.7-10.405-.05-.431-.075-.68-.075-.68S337.412,307.723,336,314c-.041.2-.091.39-.149.581-1.776,5.883-9.741,8.555-14.347,9.3C318.527,324.385,317.423,325.928,317,327.015Z" transform="translate(-53.965 -53.053)" fill="#112b46"/>
  <path id="Path_1743" data-name="Path 1743" d="M402.622,212.44c-1.087,0-51.5,9.459-59.834,19.782-4.149,5.161-4.788,64.721-4.788,64.721s5.153,6.389,16.288,2.68c0,0,8.157-40.75,7.559-53.1-.166-3.419,34.443-.5,40.774-2.133s21.814-15.425,18.4-22.138S402.622,212.44,402.622,212.44Z" transform="translate(-57.54 -36.165)" fill="#0a2033"/>
  <path id="Path_1744" data-name="Path 1744" d="M340.149,194.86s-10.165.141-12.571,1.17-7.285,3.394-5.983,3.759,7.534-.149,8.887.058a22.464,22.464,0,0,0,3.825-.058h4.672Z" transform="translate(-54.711 -33.173)" fill="url(#radial-gradient-6)"/>
  <path id="Path_1745" data-name="Path 1745" d="M325.468,162.672a18.334,18.334,0,0,0-6.829-2.954,29.355,29.355,0,0,1-4.92-1.021c-3.1-1.1-9.318-6.638-8.854-7.335,1.51-2.1,8.771,2.348,10.032,1.867s-2.431-3.112-1.145-4.033c.672-.481,2.249,1.942,3.535,2.182,1.734.332,3.1,2.788,3.618,2.912,1.021.249,5.485,3.568,5.485,3.568Z" transform="translate(-51.895 -25.388)" fill="url(#radial-gradient-7)"/>
  <path id="Path_1746" data-name="Path 1746" d="M398.392,130.58s-7.742,2.406-15.367,23.408-10.521,22.13-13.276,22.96-27.108,5.667-27.108,5.667v6.232h37.5s14.056-13.376,18.255-22.4S398.392,130.58,398.392,130.58Z" transform="translate(-58.33 -22.23)" fill="#033cfb"/>
  <path id="Path_1747" data-name="Path 1747" d="M301,327.015h30.062c1.444-1.767.913-8.3.689-10.405-.041-.431-.075-.68-.075-.68S321.412,307.723,320,314c-.041.2-.091.39-.149.581-1.776,5.883-9.75,8.555-14.347,9.3C302.518,324.385,301.415,325.928,301,327.015Z" transform="translate(-51.242 -53.053)" fill="#112b46"/>
  <path id="Path_1748" data-name="Path 1748" d="M384.742,212.44c-1.087,0-51.5,9.459-59.834,19.782-4.149,5.161-4.788,64.721-4.788,64.721s5.153,6.389,16.28,2.68c0,0,8.165-40.75,7.559-53.1-.166-3.419,34.443-.5,40.783-2.133s21.814-15.425,18.4-22.138S384.742,212.44,384.742,212.44Z" transform="translate(-54.497 -36.165)" fill="#243c55"/>
  <path id="Path_1749" data-name="Path 1749" d="M401.125,133.077a49.112,49.112,0,0,0,10.712-2.34c4.149-1.328,7.426-3.278,5.286-7.036-1.967-3.46-5.145-11.185-4.929-17.591l-7.642,6.157-5.194,4.149a60.668,60.668,0,0,0,.589,6.787c.1.788.224,1.66.365,2.547a1.851,1.851,0,0,1-.83,1.859l-.116.075a2.9,2.9,0,0,0,1.759,5.393Z" transform="translate(-67.743 -18.064)" fill="url(#radial-gradient-8)"/>
  <path id="Path_1750" data-name="Path 1750" d="M399.634,116.69s-.266.9.191,4.207c4.63-.763,8.953-4.448,8.953-4.448-2.357-.647-3.211-3.195-4.979-2.962Z" transform="translate(-68.02 -19.317)" fill="#efa78b"/>
  <path id="Path_1751" data-name="Path 1751" d="M393.783,112.218s17.848,2.954,19.508-8.157,5.095-18.255-6.2-20.586-14.156,1.552-15.616,5.128S389.228,111.172,393.783,112.218Z" transform="translate(-66.45 -14.09)" fill="url(#radial-gradient-9)"/>
  <path id="Path_1752" data-name="Path 1752" d="M388.487,83.188c-.772,2.672,1.278,5.933,4.713,7.011,5.1,1.593,3.975,7.85,6.265,7.758s3.228-3.593,5.269-.83c1.751,2.4-1.452,5.228-1.228,6.539.373,2.257,3.9,6.862,7.086,6.638s9.127-15.334,7.933-20.014-5.949-9.6-10.447-10.281-10.787,1.261-12.206,1.261S388.885,81.745,388.487,83.188Z" transform="translate(-66.108 -13.596)" fill="#2b478b"/>
  <path id="Path_1753" data-name="Path 1753" d="M429.218,144.827c-2.581-10.355-9.692-21.225-14.5-21.217-8.19,0-19.972,2.174-24.735,13.907-3.5,8.646-8.173,58.365-2.9,61.9,12.081,8.082,40.061,24.586,45.039,7.758C436.678,191.758,433.682,162.808,429.218,144.827Z" transform="translate(-65.492 -21.043)" fill="#033cfb"/>
  <path id="Path_1754" data-name="Path 1754" d="M398.691,135.488a9.708,9.708,0,0,0-15.019-4.149,92.424,92.424,0,0,0-10.306,9.633c-15.293,16.288-18.4,16.18-21.275,15.848s-27.141-5.485-27.141-5.485a7.268,7.268,0,0,0-1.975,2.4,4.489,4.489,0,0,0-.481,3.319c-.954-.614,8.6,5.966,13.359,8.6,6.273,3.468,15.765,6.721,19.508,7.949a4.978,4.978,0,0,0,3.278-.05c5.593-2.016,24.378-9.36,39.679-22.113C402.342,148.051,400.89,141.122,398.691,135.488Z" transform="translate(-54.879 -22.01)" fill="#033cfb"/>
  <path id="Path_1755" data-name="Path 1755" d="M417.508,122.879l-1.859-4.149s-16.6,1.353-19.4,10.787C396.25,129.5,409.128,123.1,417.508,122.879Z" transform="translate(-67.457 -20.212)" fill="#243c55"/>
  <path id="Path_1756" data-name="Path 1756" d="M468.419,316.549h.116a1.552,1.552,0,0,0,1.568-1.66L463.88,252.4l-5.46.49,8.986,62.821A1.012,1.012,0,0,0,468.419,316.549Z" transform="translate(-78.041 -42.968)" fill="#58595b"/>
  <path id="Path_1757" data-name="Path 1757" d="M429.6,316.551h.108a1.552,1.552,0,0,0,1.577-1.66L425.03,252.41l-5.46.49,8.986,62.813a1,1,0,0,0,1.045.838Z" transform="translate(-71.427 -42.97)" fill="#58595b"/>
  <path id="Path_1758" data-name="Path 1758" d="M358.444,316.551h-.108a1.552,1.552,0,0,1-1.577-1.66l6.256-62.481,5.46.49-8.986,62.813A1,1,0,0,1,358.444,316.551Z" transform="translate(-60.733 -42.97)" fill="#414042"/>
  <path id="Path_1759" data-name="Path 1759" d="M457.07,227.61,463,175.418c.78-7.518-1.734-14.886-12.588-15.45l-19.084-1.162c-11.318-.473-16.429,8.945-17.856,16.2l-11.335,57.37Z" transform="translate(-68.46 -27.032)" fill="#58595b"/>
  <path id="Path_1760" data-name="Path 1760" d="M363.639,241.44h85.93v4.979a4.979,4.979,0,0,1-4.979,4.979H363.639a4.979,4.979,0,0,1-4.979-4.979h0A4.979,4.979,0,0,1,363.639,241.44Z" transform="translate(-61.058 -41.102)" fill="#414042"/>
  <path id="Path_1761" data-name="Path 1761" d="M407.14,241.44h49.844v4.979a4.979,4.979,0,0,1-4.979,4.979H407.2a4.979,4.979,0,0,1-4.979-4.979h0a4.979,4.979,0,0,1,4.979-4.979Z" transform="translate(-68.473 -41.102)" fill="#414042"/>
  <path id="Path_1762" data-name="Path 1762" d="M213.447,200.857H184.53a2.307,2.307,0,0,1,2.307-2.307h26.61Z" transform="translate(-31.414 -33.801)" fill="#0a2033"/>
  <path id="Path_1763" data-name="Path 1763" d="M218.67,163.37h40.708a1.66,1.66,0,0,1,1.593,2.232l-9.957,29.266H206l10.463-29.938a2.34,2.34,0,0,1,2.207-1.56Z" transform="translate(-35.069 -27.812)" fill="#0a2033"/>
  <path id="Path_1764" data-name="Path 1764" d="M261.682,166.375l-9.127,26.893a2.29,2.29,0,0,1-2.174,1.56H210.237a2.3,2.3,0,0,1-2.174-3.062l9.4-26.893a2.307,2.307,0,0,1,2.174-1.543h39.829a2.307,2.307,0,0,1,2.215,3.045Z" transform="translate(-35.398 -27.805)" fill="#0a2033"/>
  <path id="Path_1765" data-name="Path 1765" d="M244,181.554a2.921,2.921,0,0,1-2.688,2.182,1.66,1.66,0,0,1-1.66-2.182,2.912,2.912,0,0,1,2.688-2.174,1.66,1.66,0,0,1,1.66,2.174Z" transform="translate(-40.783 -30.537)" fill="#fff"/>
</svg>
