<svg id="Group_1095" data-name="Group 1095" xmlns="http://www.w3.org/2000/svg" xmlns:xlink="http://www.w3.org/1999/xlink" width="479.498" height="461.932" viewBox="0 0 479.498 461.932">
  <defs>
    <linearGradient id="linear-gradient" y1="0.5" x2="1" y2="0.5" gradientUnits="objectBoundingBox">
      <stop offset="0" stop-color="#03d0fb"/>
      <stop offset="1" stop-color="#0300be"/>
    </linearGradient>
  </defs>
  <g id="Group_1094" data-name="Group 1094" transform="translate(0 0)">
    <g id="Group_1088" data-name="Group 1088" transform="translate(34.385 55.528)">
      <path id="Path_1542" data-name="Path 1542" d="M258.945,426.679H213.6a25.394,25.394,0,0,1-25.368-25.368V156.858a13.421,13.421,0,0,0-13.4-13.408H145.915a13.421,13.421,0,0,0-13.4,13.408v181.7a28.98,28.98,0,1,1-57.961,0l0-89.371a17.043,17.043,0,0,0-17.022-17.022H39.13V220.2h18.4a29.016,29.016,0,0,1,28.981,28.981v89.371a17.02,17.02,0,1,0,34.041,0l0-181.7a25.393,25.393,0,0,1,25.364-25.368h28.917A25.393,25.393,0,0,1,200.2,156.858V401.311A13.421,13.421,0,0,0,213.6,414.719h45.341a13.421,13.421,0,0,0,13.4-13.408v-285.2A25.393,25.393,0,0,1,297.716,90.75h33.522A25.393,25.393,0,0,1,356.6,116.114V269.555a17.043,17.043,0,0,0,17.021,17.022h.265a17.039,17.039,0,0,0,17.017-17.022v-2.627h11.96v2.627a29.011,29.011,0,0,1-28.977,28.981h-.265a29.016,29.016,0,0,1-28.981-28.981V116.114a13.416,13.416,0,0,0-13.4-13.4H297.716a13.421,13.421,0,0,0-13.408,13.4v285.2A25.394,25.394,0,0,1,258.945,426.679Z" transform="translate(-22.416 -81.297)" fill="url(#linear-gradient)"/>
      <circle id="Ellipse_42" data-name="Ellipse 42" cx="15.433" cy="15.433" r="15.433" transform="translate(0 128.672)" fill="#ff7b6b"/>
      <path id="Path_1543" data-name="Path 1543" d="M32.324,404.294H29.18V392.18l-3.75,1.162v-2.563l6.557-2.349h.337Z" transform="translate(-14.568 -251.826)" fill="#fff"/>
      <circle id="Ellipse_43" data-name="Ellipse 43" cx="15.433" cy="15.433" r="15.433" transform="translate(265.622 0)" fill="#fadc9b"/>
      <path id="Path_1544" data-name="Path 1544" d="M654.224,97.135h1.794v2.533h-1.794v3.417H651.1V99.668h-6.492l-.145-1.978,6.6-10.431h3.174Zm-6.642,0H651.1V91.544l-.209.359Z" transform="translate(-369.185 -79.298)" fill="#fff"/>
      <circle id="Ellipse_44" data-name="Ellipse 44" cx="15.433" cy="15.433" r="15.433" transform="translate(218.294 323.969)" fill="#535353"/>
      <path id="Path_1545" data-name="Path 1545" d="M537.436,851.943h1.674a2.362,2.362,0,0,0,1.773-.6,2.2,2.2,0,0,0,.577-1.589,1.943,1.943,0,0,0-.572-1.491,2.209,2.209,0,0,0-1.572-.53,2.324,2.324,0,0,0-1.512.491,1.589,1.589,0,0,0-.607,1.281h-3.144a3.844,3.844,0,0,1,.671-2.225,4.469,4.469,0,0,1,1.871-1.538,6.27,6.27,0,0,1,2.648-.555,5.9,5.9,0,0,1,3.934,1.2,4.1,4.1,0,0,1,1.427,3.31,3.311,3.311,0,0,1-.666,2,4.3,4.3,0,0,1-1.738,1.405,3.69,3.69,0,0,1,2.653,3.695,4.165,4.165,0,0,1-1.538,3.383,6.152,6.152,0,0,1-4.071,1.281,5.869,5.869,0,0,1-3.878-1.251,4.084,4.084,0,0,1-1.508-3.306H537a1.811,1.811,0,0,0,.671,1.457,2.444,2.444,0,0,0,1.645.568,2.482,2.482,0,0,0,1.76-.594,2.042,2.042,0,0,0,.632-1.572c0-1.58-.854-2.371-2.61-2.371h-1.662Z" transform="translate(-305.824 -513.485)" fill="#fff"/>
      <circle id="Ellipse_45" data-name="Ellipse 45" cx="15.433" cy="15.433" r="15.433" transform="translate(120.484 40.433)" fill="#624f85"/>
      <path id="Path_1546" data-name="Path 1546" d="M316.178,196.037H305.324V193.9l5.126-5.459A12.579,12.579,0,0,0,312,186.4a3.242,3.242,0,0,0,.508-1.632,2.435,2.435,0,0,0-.534-1.662,1.922,1.922,0,0,0-1.521-.6,2.072,2.072,0,0,0-1.683.735,2.909,2.909,0,0,0-.615,1.931H305a5.19,5.19,0,0,1,.692-2.644,4.886,4.886,0,0,1,1.952-1.875A5.933,5.933,0,0,1,310.51,180a5.619,5.619,0,0,1,3.8,1.175,4.156,4.156,0,0,1,1.354,3.315,5.339,5.339,0,0,1-.607,2.4,13.438,13.438,0,0,1-2.089,2.836l-3.6,3.793h6.809Z" transform="translate(-174.722 -132.423)" fill="#fff"/>
      <circle id="Ellipse_46" data-name="Ellipse 46" cx="15.433" cy="15.433" r="15.433" transform="translate(358.892 169.297)" fill="#b2b2b2"/>
      <path id="Path_1547" data-name="Path 1547" d="M864.462,491.657l.91-8.047h8.876v2.623h-6.292l-.393,3.417a4.959,4.959,0,0,1,2.383-.6,4.566,4.566,0,0,1,3.545,1.4,5.6,5.6,0,0,1,1.281,3.925,5.779,5.779,0,0,1-.645,2.747,4.588,4.588,0,0,1-1.858,1.884,5.791,5.791,0,0,1-2.849.666,6.125,6.125,0,0,1-2.661-.581,4.745,4.745,0,0,1-1.943-1.636,4.476,4.476,0,0,1-.756-2.4h3.109a2.332,2.332,0,0,0,.709,1.538,2.187,2.187,0,0,0,1.551.551,1.931,1.931,0,0,0,1.64-.769,3.541,3.541,0,0,0,.577-2.166,2.947,2.947,0,0,0-.662-2.067,2.435,2.435,0,0,0-1.879-.718,2.747,2.747,0,0,0-1.82.585l-.3.282Z" transform="translate(-494.985 -306.351)" fill="#fff"/>
    </g>
    <g id="Group_1090" data-name="Group 1090" transform="translate(0 132.418)">
      <g id="Group_1086" data-name="Group 1086" transform="translate(32.68 0)">
        <path id="Path_1550" data-name="Path 1550" d="M893.346,251.039a12.472,12.472,0,0,0-9.5,20.563l-1.281,1.281-2.362-2.358-1.422,1.422.944.944-7.189,7.172a3,3,0,1,0,4.246,4.25l7.189-7.189.944.944,1.418-1.418-2.362-2.358,1.281-1.281a12.477,12.477,0,1,0,8.09-21.981Zm-17.983,31.873a1,1,0,0,1-1.418-1.414l4.579-4.579,1.418,1.414Zm5.98-5.98-1.414-1.418,1.192-1.192,1.418,1.414Zm11.99-2.917a7554.853,7554.853,0,1,1,.013-.013Z" transform="translate(-871.644 -251.03)" fill="#0300be"/>
        <path id="Path_1551" data-name="Path 1551" d="M918.216,269.107a3.814,3.814,0,1,0-5.553,0,5.224,5.224,0,0,0-2.443,4.417v2.691h10.435v-2.691a5.224,5.224,0,0,0-2.443-4.417Zm-2.772-4.421a1.811,1.811,0,1,1-1.811,1.811A1.811,1.811,0,0,1,915.444,264.686Zm3.212,9.525h-6.428v-.688a3.216,3.216,0,0,1,6.428,0Z" transform="translate(-893.743 -257.702)" fill="#0300be"/>
      </g>
      <text id="Pre-screening" transform="translate(0 44.167)" fill="#535353" font-size="11" font-family="Roboto-Medium, Roboto" font-weight="500" letter-spacing="0.02em"><tspan x="0" y="0">Pre-screening</tspan></text>
    </g>
    <g id="Group_1089" data-name="Group 1089" transform="translate(100.929 40.151)">
      <g id="Group_1083" data-name="Group 1083" transform="translate(52.73)">
        <path id="Path_1563" data-name="Path 1563" d="M926.869,2.682V0H913.162V2.682H896.73V28.845h13.382v1.709a1.64,1.64,0,0,1-1.636,1.636H906.14v1.982h15.351v-2h-2.336a1.64,1.64,0,0,1-1.636-1.636V28.823H930.9V2.682ZM915.161,2h9.7V18.794h-9.7V17.013l-1.905-1.905,1.905-1.905Zm.743,30.165h-4.177a3.621,3.621,0,0,0,.389-1.636V28.823h3.417v1.709a3.621,3.621,0,0,0,.372,1.636Zm12.977-5.326H898.733V24.774h30.148Zm-30.165-4.071V4.7h14.446v7.689l-2.738,2.738,2.738,2.734V20.8h13.707V4.7h2.012V22.771Z" transform="translate(-896.73)" fill="#0300be"/>
        <path id="Path_1564" data-name="Path 1564" d="M912.507,26.435a2.961,2.961,0,0,0,.6-1.8,3,3,0,0,0-6.006,0,2.959,2.959,0,0,0,.6,1.8,4,4,0,0,0-1.606,3.2v3.537h8.009V29.639A4,4,0,0,0,912.507,26.435Zm-3.417-1.8a1.008,1.008,0,1,0,.017,0Zm2.99,6.54h-4.006V29.639a2,2,0,1,1,4.006,0Z" transform="translate(-902.098 -12.391)" fill="#0300be"/>
        <path id="Path_1565" data-name="Path 1565" d="M944.57,12.61h5.736v2H944.57Z" transform="translate(-924.136 -7.224)" fill="#0300be"/>
        <path id="Path_1566" data-name="Path 1566" d="M944.57,22h5.736v2H944.57Z" transform="translate(-924.136 -12.603)" fill="#0300be"/>
        <path id="Path_1567" data-name="Path 1567" d="M944.57,31.36h5.736v1.982H944.57Z" transform="translate(-924.136 -17.965)" fill="#0300be"/>
      </g>
      <text id="Technical_Interview" data-name="Technical Interview" transform="translate(0 45.17)" fill="#535353" font-size="12" font-family="Roboto-Medium, Roboto" font-weight="500" letter-spacing="0.02em"><tspan x="0" y="0">Technical Interview</tspan></text>
    </g>
    <g id="Group_1091" data-name="Group 1091" transform="translate(196.422 413.472)">
      <g id="Group_1085" data-name="Group 1085" transform="translate(53.693 0)">
        <path id="Path_1558" data-name="Path 1558" d="M882.951,147.295h-18.76v-.854a5.668,5.668,0,0,0-2.767-4.869,4.118,4.118,0,1,0-5.805,0,5.668,5.668,0,0,0-2.768,4.869v.854H848.78v2h2.067v12.951h2v-2h26.026v2h2V149.294h2.072Zm-26.543-8.654a2.114,2.114,0,1,1,2.11,2.114A2.136,2.136,0,0,1,856.409,138.641Zm-1.555,7.787a3.669,3.669,0,0,1,7.338,0v.854h-7.338Zm24.022,11.8H852.851v-8.932h26.026Z" transform="translate(-848.78 -128.073)" fill="#0300be"/>
        <path id="Path_1559" data-name="Path 1559" d="M888.128,136.59h13.707V119.41H888.128v8.116l-2.738,2.734L888.128,133Zm2-8.248v-6.928h9.7v13.173h-9.7v-2.435l-1.914-1.905Z" transform="translate(-869.752 -119.41)" fill="#0300be"/>
        <path id="Path_1560" data-name="Path 1560" d="M901.17,132.56h5.715v2H901.17Z" transform="translate(-878.792 -126.943)" fill="#0300be"/>
        <path id="Path_1561" data-name="Path 1561" d="M901.17,141.93h5.715v2H901.17Z" transform="translate(-878.792 -132.311)" fill="#0300be"/>
        <path id="Path_1562" data-name="Path 1562" d="M881.54,177.22h6.176v2H881.54Z" transform="translate(-867.547 -152.527)" fill="#0300be"/>
      </g>
      <text id="Second_Tech_Interview" data-name="Second Tech Interview" transform="translate(0 45.46)" fill="#535353" font-size="12" font-family="Roboto-Medium, Roboto" font-weight="500" letter-spacing="0.02em"><tspan x="0" y="0">Second Tech Interview</tspan></text>
    </g>
    <g id="Group_1092" data-name="Group 1092" transform="translate(266.309)">
      <g id="Group_1087" data-name="Group 1087" transform="translate(34.714 0)">
        <path id="Path_1552" data-name="Path 1552" d="M952.188,369.082l2.734-2.738h2.943V352.3H941.8v14.044h7.65ZM943.8,354.308h12.058v10.038h-1.768l-1.905,1.922-1.909-1.909H943.8Z" transform="translate(-941.783 -352.3)" fill="#0300be"/>
        <path id="Path_1553" data-name="Path 1553" d="M952,361.7h7.347v2H952Z" transform="translate(-947.626 -357.685)" fill="#0300be"/>
        <path id="Path_1554" data-name="Path 1554" d="M952,371.07h7.347v2H952Z" transform="translate(-947.626 -363.053)" fill="#0300be"/>
        <path id="Path_1555" data-name="Path 1555" d="M984.19,352.3v10.038h2.939l2.738,2.738,2.738-2.738h7.65V352.3Zm14.062,8.039H991.8l-1.909,1.905-1.935-1.905h-1.768v-6.031h12.058Z" transform="translate(-966.066 -352.3)" fill="#0300be"/>
        <path id="Path_1556" data-name="Path 1556" d="M994.4,361.7h7.343v2H994.4Z" transform="translate(-971.915 -357.685)" fill="#0300be"/>
        <path id="Path_1557" data-name="Path 1557" d="M974.146,404.473a4.626,4.626,0,0,0-2.038-3.844,3.417,3.417,0,1,0-5.207,0,4.634,4.634,0,0,0-2.033,3.844v.453h-2.755v-1.516l.935-.854-1.358-1.469-1.58,1.461v2.392h-2.678v-2.392l-1.58-1.461-1.358,1.469.935.854v1.516h-2.687v-.453a4.635,4.635,0,0,0-2.033-3.844,3.417,3.417,0,1,0-5.207,0,4.635,4.635,0,0,0-2.033,3.844v.453H941.76v2h2v4h30.165v-4h2v-2h-1.8Zm-6.061-6.057a1.422,1.422,0,1,1,1.422,1.422A1.422,1.422,0,0,1,968.085,398.416Zm-1.213,6.061a2.635,2.635,0,0,1,5.271,0v.453h-5.271Zm-20.191-6.061a1.427,1.427,0,1,1,1.427,1.422A1.427,1.427,0,0,1,946.681,398.416Zm-1.213,6.061a2.64,2.64,0,0,1,5.275,0v.453h-5.275Zm26.483,4.459H945.779v-2h26.162Z" transform="translate(-941.76 -376.76)" fill="#0300be"/>
      </g>
      <text id="Final_Interview" data-name="Final Interview" transform="translate(0 46.147)" fill="#535353" font-size="13" font-family="Roboto-Medium, Roboto" font-weight="500" letter-spacing="0.02em"><tspan x="0" y="0">Final Interview</tspan></text>
    </g>
    <g id="Group_1093" data-name="Group 1093" transform="translate(387.498 169.397)">
      <g id="Group_1084" data-name="Group 1084" transform="translate(41.24 0)">
        <path id="Path_1548" data-name="Path 1548" d="M445.971,27.109H434.225v-2.67h2.008v-2H421.543v2h2v2.67H411.8V43.126h1.734V52.7h30.7V43.126h1.734Zm-20.417-2.67h6.672v2.67h-6.672Zm-11.746,4.673h30.165V41.127h-4.643l-.29.487a3.609,3.609,0,0,1-3.08,1.747h-4.071V42.024h-6.006v1.337h-4.071a3.61,3.61,0,0,1-3.093-1.748l-.29-.486H413.8Zm16.078,14.924v1.67a1,1,0,0,1-2,0v-1.67Zm12.349,6.676h-26.7V43.126h1.807a5.613,5.613,0,0,0,4.468,2.238h4.071V45.7a3,3,0,0,0,6.006,0v-.333h4.071a5.621,5.621,0,0,0,4.472-2.238h1.8Z" transform="translate(-411.8 -22.44)" fill="#0300be"/>
        <path id="Path_1549" data-name="Path 1549" d="M445.55,50.83h5.339v2H445.55Z" transform="translate(-431.134 -38.703)" fill="#0300be"/>
      </g>
      <text id="Offer_Placement" data-name="Offer Placement" transform="translate(0 43.808)" fill="#535353" font-size="12" font-family="Roboto-Medium, Roboto" font-weight="500" letter-spacing="0.02em"><tspan x="0" y="0">Offer Placement</tspan></text>
    </g>
  </g>
</svg>
